<?xml version="1.0" encoding="UTF-8"?>
<!DOCTYPE svg PUBLIC "-//W3C//DTD SVG 1.1//EN" "http://www.w3.org/Graphics/SVG/1.1/DTD/svg11.dtd">
<svg xmlns="http://www.w3.org/2000/svg" version="1.1" width="2000px" height="2000px" style="shape-rendering:geometricPrecision; text-rendering:geometricPrecision; image-rendering:optimizeQuality; fill-rule:evenodd; clip-rule:evenodd" xmlns:xlink="http://www.w3.org/1999/xlink">
<g><path style="opacity:1" fill="#8e8888" d="M 1492.5,1163.5 C 1490.22,1161.74 1487.55,1160.74 1484.5,1160.5C 1475.94,1162.46 1467.28,1163.63 1458.5,1164C 1428.5,1164.33 1398.5,1164.67 1368.5,1165C 1365.32,1165.41 1362.15,1165.91 1359,1166.5C 1351.78,1162.54 1344.61,1162.54 1337.5,1166.5C 1257.83,1166.19 1178.16,1166.69 1098.5,1168C 1053.88,1169.16 1009.38,1171.99 965,1176.5C 926.137,1173.83 887.304,1174.17 848.5,1177.5C 846.198,1176.97 843.865,1176.64 841.5,1176.5C 819.794,1177.94 798.127,1179.78 776.5,1182C 686.812,1184.46 597.145,1187.46 507.5,1191C 469.039,1193.4 430.705,1197.07 392.5,1202C 356.201,1204.4 319.868,1206.06 283.5,1207C 277.266,1207.18 271.266,1208.01 265.5,1209.5C 241.488,1211.43 217.488,1213.6 193.5,1216C 174.187,1217.4 154.854,1218.4 135.5,1219C 133.382,1219.64 131.382,1220.47 129.5,1221.5C 125.886,1219.26 122.386,1219.6 119,1222.5C 117.84,1227.34 119.674,1230.51 124.5,1232C 128.475,1233.38 131.309,1232.21 133,1228.5C 139.246,1231.52 145.746,1233.85 152.5,1235.5C 155.342,1239.51 157.509,1243.84 159,1248.5C 160.667,1249.83 162.333,1249.83 164,1248.5C 165.309,1250.98 167.142,1252.98 169.5,1254.5C 170.026,1257.84 171.026,1261.01 172.5,1264C 179.278,1265.19 184.612,1268.53 188.5,1274C 195.693,1277.2 201.693,1281.87 206.5,1288C 215.625,1290.73 223.292,1295.73 229.5,1303C 232.732,1304.47 236.065,1305.63 239.5,1306.5C 240.133,1308.79 241.466,1310.45 243.5,1311.5C 243.965,1315.06 245.132,1318.39 247,1321.5C 252,1325.17 256.333,1329.5 260,1334.5C 261.895,1340.16 265.228,1344.83 270,1348.5C 271,1350.5 272,1352.5 273,1354.5C 275.292,1355.79 277.292,1357.46 279,1359.5C 281.416,1364 284.083,1368.33 287,1372.5C 292.649,1376.75 297.649,1381.75 302,1387.5C 304.333,1391.5 306.667,1395.5 309,1399.5C 310.103,1404.37 311.77,1409.04 314,1413.5C 315,1414.17 316,1414.83 317,1415.5C 319.93,1419.42 322.43,1423.59 324.5,1428C 322.849,1432.97 320.183,1437.3 316.5,1441C 311.666,1444.25 306.666,1447.25 301.5,1450C 297.292,1451.85 292.959,1452.85 288.5,1453C 285.62,1448.74 283.12,1444.24 281,1439.5C 276.666,1435.84 271.833,1433 266.5,1431C 259.162,1422.5 252.828,1413.33 247.5,1403.5C 248.428,1402.23 248.595,1400.9 248,1399.5C 245.48,1398.79 242.98,1397.96 240.5,1397C 237.683,1392.36 234.349,1388.19 230.5,1384.5C 219.727,1372.89 209.061,1361.05 198.5,1349C 195.499,1349.09 193.499,1347.76 192.5,1345C 189.316,1343.5 186.149,1342 183,1340.5C 180.497,1337.5 178.497,1334.16 177,1330.5C 173.167,1328 170,1324.83 167.5,1321C 158.702,1318.22 151.535,1313.05 146,1305.5C 139.145,1298.01 131.311,1290.84 122.5,1284C 111.985,1280.24 102.985,1274.24 95.5,1266C 91.5426,1262.93 87.2093,1260.6 82.5,1259C 79,1255.5 75.5,1252 72,1248.5C 72.7077,1245.51 72.541,1242.51 71.5,1239.5C 67.5,1237.17 63.5,1234.83 59.5,1232.5C 58.0413,1230.42 56.7079,1228.25 55.5,1226C 52.8587,1223.79 50.0254,1223.29 47,1224.5C 43.5749,1220.08 40.5749,1215.41 38,1210.5C 37.2496,1209.87 36.4162,1209.37 35.5,1209C 39.7299,1208.48 43.3966,1206.82 46.5,1204C 52.7421,1203.71 58.9088,1202.87 65,1201.5C 72.8638,1204.5 80.3638,1203.66 87.5,1199C 99.4659,1185.7 112.133,1173.03 125.5,1161C 127.813,1158.5 130.48,1158 133.5,1159.5C 140.042,1155.47 145.876,1150.47 151,1144.5C 163.331,1129.84 175.998,1115.5 189,1101.5C 191.853,1097.26 194.52,1092.93 197,1088.5C 198.378,1086.79 200.045,1085.45 202,1084.5C 209.944,1072.95 218.61,1061.95 228,1051.5C 229.682,1047.11 232.515,1043.77 236.5,1041.5C 237.833,1040.5 237.833,1039.5 236.5,1038.5C 237.274,1037.29 238.107,1037.29 239,1038.5C 245.517,1030.97 250.85,1022.64 255,1013.5C 258.481,1005.38 262.147,997.381 266,989.5C 271,985.833 275.333,981.5 279,976.5C 282.605,967.618 286.938,959.285 292,951.5C 292.667,948.833 293.333,946.167 294,943.5C 296.5,941.667 299,939.833 301.5,938C 303.972,933.534 307.138,929.701 311,926.5C 315.174,917.967 319.84,909.634 325,901.5C 325.667,904.5 325.667,907.5 325,910.5C 323.216,918.21 321.216,925.876 319,933.5C 318.841,938.916 318.174,944.25 317,949.5C 314.667,953.167 312.333,956.833 310,960.5C 302.134,980.433 294.467,1000.43 287,1020.5C 275.553,1035.06 265.886,1050.73 258,1067.5C 256.184,1083.14 249.184,1095.81 237,1105.5C 235,1108.83 233,1112.17 231,1115.5C 228,1117.83 225,1120.17 222,1122.5C 218.833,1128.83 215.667,1135.17 212.5,1141.5C 207.238,1143.44 201.904,1145.27 196.5,1147C 190.126,1153.71 184.126,1160.71 178.5,1168C 173.05,1170.15 167.716,1172.48 162.5,1175C 158.796,1177.93 159.463,1180.1 164.5,1181.5C 170.433,1181.05 176.1,1179.55 181.5,1177C 187.158,1176.26 192.825,1175.59 198.5,1175C 204.108,1172.48 209.941,1170.65 216,1169.5C 218.524,1170.1 221.024,1170.77 223.5,1171.5C 229.42,1168.37 235.42,1165.54 241.5,1163C 264.506,1162.62 287.506,1161.95 310.5,1161C 313.01,1160.62 315.343,1159.79 317.5,1158.5C 318.034,1156.39 319.034,1154.55 320.5,1153C 338.394,1149.51 356.394,1147.68 374.5,1147.5C 396.382,1145.58 418.049,1142.24 439.5,1137.5C 451.543,1136.97 463.543,1137.64 475.5,1139.5C 485.857,1138.57 496.19,1138.24 506.5,1138.5C 509.853,1140.01 513.353,1141.01 517,1141.5C 521.478,1139.71 525.978,1137.88 530.5,1136C 542.829,1136.16 555.162,1136.16 567.5,1136C 571.511,1134.56 575.178,1132.56 578.5,1130C 582.5,1130 586.5,1130 590.5,1130C 591.904,1128.66 593.404,1127.5 595,1126.5C 597.005,1127.78 599.172,1128.78 601.5,1129.5C 605.377,1136.86 611.543,1140.53 620,1140.5C 637.679,1137.28 655.513,1135.78 673.5,1136C 681.474,1133.48 689.641,1131.98 698,1131.5C 713.479,1132.86 728.979,1133.36 744.5,1133C 747.872,1131.06 751.538,1129.89 755.5,1129.5C 759.476,1130.35 763.476,1130.18 767.5,1129C 773.98,1126.2 780.647,1123.87 787.5,1122C 791.5,1121.67 795.5,1121.33 799.5,1121C 800.025,1120.31 800.692,1119.81 801.5,1119.5C 804.299,1124.73 808.632,1127.73 814.5,1128.5C 828.806,1124.08 843.306,1123.41 858,1126.5C 881.155,1123.96 904.321,1121.29 927.5,1118.5C 930.32,1118.58 932.987,1119.24 935.5,1120.5C 940.803,1119.76 946.137,1119.26 951.5,1119C 955.689,1117.24 960.022,1116.07 964.5,1115.5C 986.049,1118.95 1007.38,1118.12 1028.5,1113C 1041.64,1111.78 1054.81,1110.95 1068,1110.5C 1095.83,1111.89 1123.66,1113.22 1151.5,1114.5C 1162.93,1112.79 1174.43,1111.79 1186,1111.5C 1201.21,1112.54 1216.37,1112.54 1231.5,1111.5C 1234.28,1112.36 1237.11,1113.02 1240,1113.5C 1258.82,1112.12 1277.66,1110.79 1296.5,1109.5C 1300.13,1111.23 1303.97,1112.56 1308,1113.5C 1311.46,1112.78 1314.96,1112.28 1318.5,1112C 1319.91,1111.63 1320.91,1110.8 1321.5,1109.5C 1323.17,1109.17 1324.83,1108.83 1326.5,1108.5C 1362.26,1113.08 1398.09,1113.75 1434,1110.5C 1443.43,1110.27 1452.76,1110.93 1462,1112.5C 1465.83,1111.96 1469.66,1111.46 1473.5,1111C 1476.74,1109.03 1480.24,1107.87 1484,1107.5C 1491.65,1108.49 1498.98,1110.49 1506,1113.5C 1531.2,1111.79 1556.53,1110.46 1582,1109.5C 1609,1110.75 1636,1110.75 1663,1109.5C 1680.51,1111.97 1698.01,1111.97 1715.5,1109.5C 1722.37,1110.1 1729.04,1111.6 1735.5,1114C 1742,1114.42 1748.5,1114.25 1755,1113.5C 1763.97,1114.76 1772.97,1115.76 1782,1116.5C 1786.35,1116.38 1790.68,1116.04 1795,1115.5C 1806.07,1117.11 1817.07,1119.11 1828,1121.5C 1834.13,1120.39 1840.29,1120.23 1846.5,1121C 1862.65,1124.41 1878.65,1128.41 1894.5,1133C 1906.75,1140.58 1917.08,1150.24 1925.5,1162C 1921.65,1167.18 1916.65,1170.84 1910.5,1173C 1898.8,1173.84 1887.13,1175 1875.5,1176.5C 1842.21,1167.74 1808.37,1162.41 1774,1160.5C 1745.67,1162.65 1717.34,1164.65 1689,1166.5C 1634.17,1165.74 1579.34,1165.24 1524.5,1165C 1513.81,1164.71 1503.15,1164.21 1492.5,1163.5 Z"/></g>
<g><path style="opacity:1" fill="#7f7873" d="M 265.5,1068.5 C 264.987,1063.51 265.487,1058.51 267,1053.5C 272.838,1043.82 279.172,1034.49 286,1025.5C 293.403,1009.53 299.737,993.195 305,976.5C 308.871,967.091 313.538,958.091 319,949.5C 319.627,945.154 320.794,940.988 322.5,937C 321.919,936.107 321.585,935.107 321.5,934C 324.899,919.571 327.899,905.071 330.5,890.5C 329.82,889.14 329.153,887.807 328.5,886.5C 329.479,884.855 330.812,883.521 332.5,882.5C 333.881,883 334.547,884 334.5,885.5C 329.002,907.539 324.502,929.539 321,951.5C 318.417,954.997 316.084,958.664 314,962.5C 305.119,982.931 296.786,1003.6 289,1024.5C 282.608,1033.23 276.608,1042.23 271,1051.5C 269.375,1057.35 267.541,1063.02 265.5,1068.5 Z"/></g>
<g><path style="opacity:1" fill="#7d7672" d="M 261.5,1078.5 C 256.495,1086.35 251.662,1094.35 247,1102.5C 245.296,1104.37 243.463,1106.04 241.5,1107.5C 241.082,1106.78 240.416,1106.28 239.5,1106C 248.425,1097.34 255.258,1087.17 260,1075.5C 260.232,1076.74 260.732,1077.74 261.5,1078.5 Z"/></g>
<g><path style="opacity:1" fill="#857e7a" d="M 1673.5,1105.5 C 1671.34,1107.22 1668.68,1108.05 1665.5,1108C 1627.17,1108.33 1588.83,1108.67 1550.5,1109C 1542.57,1109.09 1534.74,1109.93 1527,1111.5C 1519.87,1111.46 1513.03,1111.46 1506.5,1111.5C 1498.92,1109.08 1491.25,1107.08 1483.5,1105.5C 1479.01,1105.72 1475.01,1107.22 1471.5,1110C 1469.33,1110.17 1467.17,1110.33 1465,1110.5C 1452.55,1108.92 1440.05,1108.26 1427.5,1108.5C 1425.19,1107.84 1422.69,1107.5 1420,1107.5C 1401.69,1108.76 1383.52,1109.76 1365.5,1110.5C 1360.31,1110.04 1355.15,1109.37 1350,1108.5C 1348.77,1108.64 1347.61,1108.98 1346.5,1109.5C 1346.17,1109.17 1345.83,1108.83 1345.5,1108.5C 1348.31,1107.83 1350.97,1107.17 1353.5,1106.5C 1363.14,1107.46 1372.81,1108.13 1382.5,1108.5C 1399.82,1107.27 1417.15,1106.27 1434.5,1105.5C 1443.05,1105.6 1451.55,1106.26 1460,1107.5C 1464.14,1106.84 1468.31,1106.34 1472.5,1106C 1476.01,1104.37 1479.68,1103.2 1483.5,1102.5C 1491.16,1104 1498.66,1106 1506,1108.5C 1523.99,1108.06 1542.15,1107.23 1560.5,1106C 1598.17,1105.5 1635.83,1105.33 1673.5,1105.5 Z"/></g>
<g><path style="opacity:1" fill="#847d78" d="M 1806.5,1113.5 C 1807.26,1114.27 1808.26,1114.77 1809.5,1115C 1800.02,1114.22 1790.52,1114.39 1781,1115.5C 1772.02,1114.54 1763.18,1112.88 1754.5,1110.5C 1749.76,1111.85 1744.93,1112.52 1740,1112.5C 1731.42,1110.64 1722.75,1108.98 1714,1107.5C 1703.25,1109.46 1692.42,1109.96 1681.5,1109C 1681.83,1108.67 1682.17,1108.33 1682.5,1108C 1681.26,1107.77 1680.26,1107.27 1679.5,1106.5C 1694.18,1106.25 1708.84,1106.08 1723.5,1106C 1729.12,1108.32 1734.95,1109.82 1741,1110.5C 1745.34,1110.21 1749.5,1109.21 1753.5,1107.5C 1767.34,1112.25 1781.51,1113.58 1796,1111.5C 1799.76,1111.49 1803.26,1112.15 1806.5,1113.5 Z"/></g>
<g><path style="opacity:1" fill="#8c8681" d="M 328.5,886.5 C 329.153,887.807 329.82,889.14 330.5,890.5C 327.899,905.071 324.899,919.571 321.5,934C 321.585,935.107 321.919,936.107 322.5,937C 320.794,940.988 319.627,945.154 319,949.5C 313.538,958.091 308.871,967.091 305,976.5C 299.737,993.195 293.403,1009.53 286,1025.5C 279.172,1034.49 272.838,1043.82 267,1053.5C 265.487,1058.51 264.987,1063.51 265.5,1068.5C 262.523,1070.06 261.856,1072.4 263.5,1075.5C 263.058,1076.74 262.391,1077.74 261.5,1078.5C 260.732,1077.74 260.232,1076.74 260,1075.5C 255.258,1087.17 248.425,1097.34 239.5,1106C 240.416,1106.28 241.082,1106.78 241.5,1107.5C 237.51,1112.8 234.01,1118.47 231,1124.5C 229.989,1125.34 228.822,1125.67 227.5,1125.5C 226.316,1124.31 226.316,1123.15 227.5,1122C 224.836,1123.33 222.67,1125.5 221,1128.5C 219.186,1132.95 217.186,1137.29 215,1141.5C 213.681,1143.49 211.848,1144.65 209.5,1145C 211.454,1145.16 213.121,1145.33 214.5,1145.5C 214.389,1146.12 214.056,1146.62 213.5,1147C 208.817,1148.34 204.15,1149.67 199.5,1151C 197.667,1154 195.334,1156.5 192.5,1158.5C 192.052,1156.54 191.052,1156.2 189.5,1157.5C 186.691,1161.48 183.691,1165.31 180.5,1169C 177.104,1171.12 173.77,1172.95 170.5,1174.5C 168.233,1175.42 165.9,1176.26 163.5,1177C 164.167,1177.17 164.833,1177.33 165.5,1177.5C 169.069,1177.03 171.736,1176.03 173.5,1174.5C 175.186,1172.85 176.853,1172.69 178.5,1174C 177.294,1175.02 177.627,1175.52 179.5,1175.5C 185.46,1174.18 191.46,1173.18 197.5,1172.5C 197.5,1171.17 197.5,1169.83 197.5,1168.5C 195.5,1168.5 193.5,1168.5 191.5,1168.5C 191.167,1168.5 190.833,1168.5 190.5,1168.5C 188.894,1169.78 187.894,1169.28 187.5,1167C 188.544,1165.83 189.544,1164.66 190.5,1163.5C 194.25,1163.87 197.25,1165.54 199.5,1168.5C 205.498,1167.17 211.498,1165.83 217.5,1164.5C 219.693,1164.33 221.527,1164.99 223,1166.5C 224.615,1165.61 226.115,1164.61 227.5,1163.5C 228.376,1163.37 229.043,1163.7 229.5,1164.5C 228.494,1165.4 228.494,1166.06 229.5,1166.5C 231.167,1165.67 232.833,1164.83 234.5,1164C 233.5,1163.67 232.5,1163.33 231.5,1163C 232.756,1162.58 233.423,1161.75 233.5,1160.5C 237.297,1158.6 241.297,1157.27 245.5,1156.5C 249.647,1157.32 253.981,1157.82 258.5,1158C 254.167,1158.33 249.833,1158.67 245.5,1159C 247.8,1160.11 250.3,1160.61 253,1160.5C 257.21,1160.36 261.376,1159.86 265.5,1159C 264.833,1158.67 264.167,1158.33 263.5,1158C 266.094,1156.4 268.761,1156.23 271.5,1157.5C 270.271,1158.28 268.938,1158.78 267.5,1159C 274.294,1159.87 280.96,1159.37 287.5,1157.5C 290.807,1157.54 293.974,1156.87 297,1155.5C 302.116,1156.42 307.283,1156.76 312.5,1156.5C 313.833,1156.5 315.167,1156.5 316.5,1156.5C 316.843,1154.52 316.176,1153.18 314.5,1152.5C 309.881,1153.31 305.214,1153.65 300.5,1153.5C 296.818,1153.67 293.152,1153.5 289.5,1153C 289.833,1152.67 290.167,1152.33 290.5,1152C 289.207,1151.51 287.873,1151.34 286.5,1151.5C 289.586,1149.21 293.086,1147.54 297,1146.5C 320.695,1147.73 344.195,1146.07 367.5,1141.5C 372.111,1142.61 376.778,1142.78 381.5,1142C 401.657,1139.81 421.657,1136.64 441.5,1132.5C 452.68,1132.2 463.847,1132.87 475,1134.5C 485.223,1133.61 495.39,1133.28 505.5,1133.5C 505.423,1134.75 504.756,1135.58 503.5,1136C 508.005,1136.59 512.338,1137.76 516.5,1139.5C 519.602,1139.5 519.935,1139 517.5,1138C 518.899,1137.41 520.232,1137.57 521.5,1138.5C 524.221,1136.47 527.221,1134.97 530.5,1134C 542.826,1134.26 555.159,1134.26 567.5,1134C 569.224,1133.55 569.891,1132.72 569.5,1131.5C 571.766,1132.56 573.766,1132.06 575.5,1130C 574.231,1130.11 573.231,1129.94 572.5,1129.5C 573.369,1127.28 573.702,1124.95 573.5,1122.5C 576.366,1123.76 579.366,1124.76 582.5,1125.5C 583.584,1125.31 584.584,1124.98 585.5,1124.5C 585.5,1125.5 585.5,1126.5 585.5,1127.5C 591.779,1127.42 592.113,1126.09 586.5,1123.5C 589.137,1121.57 592.137,1121.07 595.5,1122C 598.089,1123.2 600.756,1124.2 603.5,1125C 604.252,1125.67 604.586,1126.5 604.5,1127.5C 602.168,1125.56 599.502,1124.72 596.5,1125C 601.355,1126.52 605.022,1129.52 607.5,1134C 608.793,1134.49 610.127,1134.66 611.5,1134.5C 624.479,1134.56 637.312,1133.23 650,1130.5C 659.675,1131.61 669.509,1131.61 679.5,1130.5C 679.47,1131.5 679.97,1132.16 681,1132.5C 682.5,1132 684,1131.5 685.5,1131C 700.515,1130.23 715.515,1130.4 730.5,1131.5C 731.833,1131.33 733.167,1131.17 734.5,1131C 732.355,1130.26 732.189,1129.42 734,1128.5C 736.786,1130 739.786,1131 743,1131.5C 744.434,1131.07 745.601,1130.24 746.5,1129C 750.25,1128.74 753.916,1128.07 757.5,1127C 758.636,1125.85 759.636,1124.69 760.5,1123.5C 763.743,1124.58 767.076,1124.75 770.5,1124C 772.046,1122.56 772.879,1120.73 773,1118.5C 773.561,1117.98 774.228,1117.64 775,1117.5C 779.121,1117.05 783.288,1117.05 787.5,1117.5C 792.012,1116.95 796.345,1115.95 800.5,1114.5C 805.623,1115.71 810.623,1117.21 815.5,1119C 813.833,1120.17 812.167,1121.33 810.5,1122.5C 811.833,1122.83 813.167,1123.17 814.5,1123.5C 826.074,1120.76 837.741,1119.26 849.5,1119C 852.22,1121.16 855.387,1122.32 859,1122.5C 863.31,1121.93 867.31,1120.59 871,1118.5C 873.667,1119.17 876.333,1119.83 879,1120.5C 881.137,1119.92 883.304,1119.59 885.5,1119.5C 885.811,1120.48 886.478,1121.14 887.5,1121.5C 896.799,1120.58 906.132,1119.75 915.5,1119C 918.677,1117.05 922.177,1116.22 926,1116.5C 930.145,1116.46 934.145,1117.12 938,1118.5C 942.863,1118.04 947.697,1117.38 952.5,1116.5C 952.137,1115.82 951.804,1115.15 951.5,1114.5C 953.05,1113.56 954.716,1112.89 956.5,1112.5C 956.389,1113.12 956.056,1113.62 955.5,1114C 969.377,1114.23 983.21,1115.07 997,1116.5C 1002.48,1115.79 1007.98,1115.29 1013.5,1115C 1021.56,1112.05 1029.9,1110.39 1038.5,1110C 1052.52,1109.13 1066.52,1108.96 1080.5,1109.5C 1097.17,1110.11 1113.84,1110.78 1130.5,1111.5C 1143.46,1113.16 1156.46,1112.66 1169.5,1110C 1174,1109.83 1178.5,1109.67 1183,1109.5C 1199.4,1110.59 1215.73,1110.59 1232,1109.5C 1234.29,1110.85 1236.79,1111.52 1239.5,1111.5C 1258.69,1110.27 1277.85,1108.94 1297,1107.5C 1299.15,1108.25 1301.32,1108.42 1303.5,1108C 1302.75,1107.33 1302.41,1106.5 1302.5,1105.5C 1308.28,1109.65 1313.61,1109.32 1318.5,1104.5C 1321.77,1105.82 1325.43,1106.49 1329.5,1106.5C 1333.17,1106.33 1336.83,1106.17 1340.5,1106C 1338.38,1105.66 1338.05,1104.82 1339.5,1103.5C 1344.15,1104.79 1348.82,1105.79 1353.5,1106.5C 1350.97,1107.17 1348.31,1107.83 1345.5,1108.5C 1345.83,1108.83 1346.17,1109.17 1346.5,1109.5C 1347.61,1108.98 1348.77,1108.64 1350,1108.5C 1355.15,1109.37 1360.31,1110.04 1365.5,1110.5C 1386.2,1110.72 1406.87,1110.05 1427.5,1108.5C 1440.05,1108.26 1452.55,1108.92 1465,1110.5C 1467.17,1110.33 1469.33,1110.17 1471.5,1110C 1475.01,1107.22 1479.01,1105.72 1483.5,1105.5C 1491.25,1107.08 1498.92,1109.08 1506.5,1111.5C 1513.03,1111.46 1519.87,1111.46 1527,1111.5C 1534.74,1109.93 1542.57,1109.09 1550.5,1109C 1588.83,1108.67 1627.17,1108.33 1665.5,1108C 1668.68,1108.05 1671.34,1107.22 1673.5,1105.5C 1675.5,1105.83 1677.5,1106.17 1679.5,1106.5C 1680.26,1107.27 1681.26,1107.77 1682.5,1108C 1682.17,1108.33 1681.83,1108.67 1681.5,1109C 1692.42,1109.96 1703.25,1109.46 1714,1107.5C 1722.75,1108.98 1731.42,1110.64 1740,1112.5C 1744.93,1112.52 1749.76,1111.85 1754.5,1110.5C 1763.18,1112.88 1772.02,1114.54 1781,1115.5C 1790.52,1114.39 1800.02,1114.22 1809.5,1115C 1808.26,1114.77 1807.26,1114.27 1806.5,1113.5C 1813.88,1114.51 1821.21,1115.84 1828.5,1117.5C 1834.48,1116.47 1840.48,1116.3 1846.5,1117C 1863.68,1121.92 1881.01,1126.25 1898.5,1130C 1910.3,1139.46 1921.13,1149.96 1931,1161.5C 1931.49,1163.13 1931.66,1164.8 1931.5,1166.5C 1926.29,1168.38 1921.29,1170.71 1916.5,1173.5C 1917.46,1172.64 1917.46,1171.97 1916.5,1171.5C 1914.83,1172.67 1913.17,1173.83 1911.5,1175C 1899.24,1175.21 1887.07,1176.38 1875,1178.5C 1866.52,1176.25 1858.02,1174.42 1849.5,1173C 1850.74,1173.23 1851.74,1173.73 1852.5,1174.5C 1832.45,1169.66 1812.11,1166.66 1791.5,1165.5C 1792.6,1164.6 1792.6,1163.77 1791.5,1163C 1788.24,1162.22 1785.07,1162.38 1782,1163.5C 1779.41,1161.99 1776.58,1161.32 1773.5,1161.5C 1754.83,1162.97 1736.16,1164.47 1717.5,1166C 1716.94,1166.38 1716.61,1166.88 1716.5,1167.5C 1701.94,1169.06 1687.27,1169.72 1672.5,1169.5C 1637.5,1168.81 1602.5,1168.47 1567.5,1168.5C 1579.99,1167.67 1592.66,1167.17 1605.5,1167C 1570.5,1166.67 1535.5,1166.33 1500.5,1166C 1497.62,1165.45 1494.95,1164.62 1492.5,1163.5C 1503.15,1164.21 1513.81,1164.71 1524.5,1165C 1579.34,1165.24 1634.17,1165.74 1689,1166.5C 1717.34,1164.65 1745.67,1162.65 1774,1160.5C 1808.37,1162.41 1842.21,1167.74 1875.5,1176.5C 1887.13,1175 1898.8,1173.84 1910.5,1173C 1916.65,1170.84 1921.65,1167.18 1925.5,1162C 1917.08,1150.24 1906.75,1140.58 1894.5,1133C 1878.65,1128.41 1862.65,1124.41 1846.5,1121C 1840.29,1120.23 1834.13,1120.39 1828,1121.5C 1817.07,1119.11 1806.07,1117.11 1795,1115.5C 1790.68,1116.04 1786.35,1116.38 1782,1116.5C 1772.97,1115.76 1763.97,1114.76 1755,1113.5C 1748.5,1114.25 1742,1114.42 1735.5,1114C 1729.04,1111.6 1722.37,1110.1 1715.5,1109.5C 1698.01,1111.97 1680.51,1111.97 1663,1109.5C 1636,1110.75 1609,1110.75 1582,1109.5C 1556.53,1110.46 1531.2,1111.79 1506,1113.5C 1498.98,1110.49 1491.65,1108.49 1484,1107.5C 1480.24,1107.87 1476.74,1109.03 1473.5,1111C 1469.66,1111.46 1465.83,1111.96 1462,1112.5C 1452.76,1110.93 1443.43,1110.27 1434,1110.5C 1398.09,1113.75 1362.26,1113.08 1326.5,1108.5C 1324.83,1108.83 1323.17,1109.17 1321.5,1109.5C 1320.91,1110.8 1319.91,1111.63 1318.5,1112C 1314.96,1112.28 1311.46,1112.78 1308,1113.5C 1303.97,1112.56 1300.13,1111.23 1296.5,1109.5C 1277.66,1110.79 1258.82,1112.12 1240,1113.5C 1237.11,1113.02 1234.28,1112.36 1231.5,1111.5C 1216.37,1112.54 1201.21,1112.54 1186,1111.5C 1174.43,1111.79 1162.93,1112.79 1151.5,1114.5C 1123.66,1113.22 1095.83,1111.89 1068,1110.5C 1054.81,1110.95 1041.64,1111.78 1028.5,1113C 1007.38,1118.12 986.049,1118.95 964.5,1115.5C 960.022,1116.07 955.689,1117.24 951.5,1119C 946.137,1119.26 940.803,1119.76 935.5,1120.5C 932.987,1119.24 930.32,1118.58 927.5,1118.5C 904.321,1121.29 881.155,1123.96 858,1126.5C 843.306,1123.41 828.806,1124.08 814.5,1128.5C 808.632,1127.73 804.299,1124.73 801.5,1119.5C 800.692,1119.81 800.025,1120.31 799.5,1121C 795.5,1121.33 791.5,1121.67 787.5,1122C 780.647,1123.87 773.98,1126.2 767.5,1129C 763.476,1130.18 759.476,1130.35 755.5,1129.5C 751.538,1129.89 747.872,1131.06 744.5,1133C 728.979,1133.36 713.479,1132.86 698,1131.5C 689.641,1131.98 681.474,1133.48 673.5,1136C 655.513,1135.78 637.679,1137.28 620,1140.5C 611.543,1140.53 605.377,1136.86 601.5,1129.5C 599.172,1128.78 597.005,1127.78 595,1126.5C 593.404,1127.5 591.904,1128.66 590.5,1130C 586.5,1130 582.5,1130 578.5,1130C 575.178,1132.56 571.511,1134.56 567.5,1136C 555.162,1136.16 542.829,1136.16 530.5,1136C 525.978,1137.88 521.478,1139.71 517,1141.5C 513.353,1141.01 509.853,1140.01 506.5,1138.5C 496.19,1138.24 485.857,1138.57 475.5,1139.5C 463.543,1137.64 451.543,1136.97 439.5,1137.5C 418.049,1142.24 396.382,1145.58 374.5,1147.5C 356.394,1147.68 338.394,1149.51 320.5,1153C 319.034,1154.55 318.034,1156.39 317.5,1158.5C 315.343,1159.79 313.01,1160.62 310.5,1161C 287.506,1161.95 264.506,1162.62 241.5,1163C 235.42,1165.54 229.42,1168.37 223.5,1171.5C 221.024,1170.77 218.524,1170.1 216,1169.5C 209.941,1170.65 204.108,1172.48 198.5,1175C 192.825,1175.59 187.158,1176.26 181.5,1177C 176.1,1179.55 170.433,1181.05 164.5,1181.5C 159.463,1180.1 158.796,1177.93 162.5,1175C 167.716,1172.48 173.05,1170.15 178.5,1168C 184.126,1160.71 190.126,1153.71 196.5,1147C 201.904,1145.27 207.238,1143.44 212.5,1141.5C 215.667,1135.17 218.833,1128.83 222,1122.5C 225,1120.17 228,1117.83 231,1115.5C 233,1112.17 235,1108.83 237,1105.5C 249.184,1095.81 256.184,1083.14 258,1067.5C 265.886,1050.73 275.553,1035.06 287,1020.5C 294.467,1000.43 302.134,980.433 310,960.5C 312.333,956.833 314.667,953.167 317,949.5C 318.174,944.25 318.841,938.916 319,933.5C 321.216,925.876 323.216,918.21 325,910.5C 325.667,907.5 325.667,904.5 325,901.5C 319.84,909.634 315.174,917.967 311,926.5C 307.138,929.701 303.972,933.534 301.5,938C 299,939.833 296.5,941.667 294,943.5C 293.333,946.167 292.667,948.833 292,951.5C 286.938,959.285 282.605,967.618 279,976.5C 275.333,981.5 271,985.833 266,989.5C 262.147,997.381 258.481,1005.38 255,1013.5C 250.85,1022.64 245.517,1030.97 239,1038.5C 238.107,1037.29 237.274,1037.29 236.5,1038.5C 237.833,1039.5 237.833,1040.5 236.5,1041.5C 232.515,1043.77 229.682,1047.11 228,1051.5C 218.61,1061.95 209.944,1072.95 202,1084.5C 200.045,1085.45 198.378,1086.79 197,1088.5C 194.52,1092.93 191.853,1097.26 189,1101.5C 175.998,1115.5 163.331,1129.84 151,1144.5C 145.876,1150.47 140.042,1155.47 133.5,1159.5C 130.48,1158 127.813,1158.5 125.5,1161C 112.133,1173.03 99.4659,1185.7 87.5,1199C 80.3638,1203.66 72.8638,1204.5 65,1201.5C 58.9088,1202.87 52.7421,1203.71 46.5,1204C 43.3966,1206.82 39.7299,1208.48 35.5,1209C 36.4162,1209.37 37.2496,1209.87 38,1210.5C 40.5749,1215.41 43.5749,1220.08 47,1224.5C 50.0254,1223.29 52.8587,1223.79 55.5,1226C 56.7079,1228.25 58.0413,1230.42 59.5,1232.5C 63.5,1234.83 67.5,1237.17 71.5,1239.5C 72.541,1242.51 72.7077,1245.51 72,1248.5C 75.5,1252 79,1255.5 82.5,1259C 87.2093,1260.6 91.5426,1262.93 95.5,1266C 102.985,1274.24 111.985,1280.24 122.5,1284C 131.311,1290.84 139.145,1298.01 146,1305.5C 151.535,1313.05 158.702,1318.22 167.5,1321C 170,1324.83 173.167,1328 177,1330.5C 178.497,1334.16 180.497,1337.5 183,1340.5C 186.149,1342 189.316,1343.5 192.5,1345C 193.499,1347.76 195.499,1349.09 198.5,1349C 209.061,1361.05 219.727,1372.89 230.5,1384.5C 228.799,1384.97 227.299,1384.97 226,1384.5C 225.536,1385.09 225.369,1385.76 225.5,1386.5C 217.118,1375.27 208.118,1364.44 198.5,1354C 192.467,1349.65 186.133,1345.82 179.5,1342.5C 173.473,1330.97 164.473,1322.8 152.5,1318C 144.197,1308.7 135.531,1299.7 126.5,1291C 119.724,1286.28 112.391,1282.61 104.5,1280C 99.8663,1276.37 95.533,1272.37 91.5,1268C 88.1667,1266.33 84.8333,1264.67 81.5,1263C 76.6347,1257.8 71.4681,1252.97 66,1248.5C 66.3744,1246.23 66.3744,1243.9 66,1241.5C 60.0848,1239.08 55.5848,1235.08 52.5,1229.5C 48.9043,1228.92 45.2376,1228.92 41.5,1229.5C 41.6567,1228.13 41.49,1226.79 41,1225.5C 38.5746,1224.36 36.4079,1223.02 34.5,1221.5C 35.209,1220.6 36.209,1220.26 37.5,1220.5C 37.0051,1218.18 37.0051,1216.01 37.5,1214C 36.5765,1212.19 35.7431,1212.36 35,1214.5C 34.5831,1213.24 33.7498,1212.58 32.5,1212.5C 31.0937,1212.03 30.427,1211.03 30.5,1209.5C 31.1174,1209.39 31.6174,1209.06 32,1208.5C 32.4186,1209.67 33.0853,1210.67 34,1211.5C 33.621,1209.93 33.7877,1208.43 34.5,1207C 39.2358,1205.74 43.5691,1203.74 47.5,1201C 53.3493,1200.67 59.1826,1200.17 65,1199.5C 74.0273,1203.09 82.194,1201.59 89.5,1195C 88.0039,1194.49 86.8373,1194.99 86,1196.5C 85.5357,1195.91 85.369,1195.24 85.5,1194.5C 98.1356,1183.2 110.469,1171.53 122.5,1159.5C 122.369,1160.24 122.536,1160.91 123,1161.5C 126.333,1158.5 129.667,1155.5 133,1152.5C 134.011,1153.34 135.178,1153.67 136.5,1153.5C 138.35,1152.76 139.016,1151.76 138.5,1150.5C 140.27,1147.8 141.936,1144.97 143.5,1142C 142.944,1141.62 142.611,1141.12 142.5,1140.5C 143.762,1136.99 145.595,1136.66 148,1139.5C 153.969,1134.53 159.635,1129.2 165,1123.5C 186.537,1098.74 206.871,1073.08 226,1046.5C 235.352,1038.11 243.019,1028.44 249,1017.5C 254.723,1005 260.057,992.33 265,979.5C 266.403,977.802 268.236,977.302 270.5,978C 274.687,974.785 277.187,970.619 278,965.5C 284.575,957.933 288.908,949.266 291,939.5C 294.362,937.65 297.362,935.317 300,932.5C 301.829,928.172 304.162,924.172 307,920.5C 307.511,918.122 308.178,915.788 309,913.5C 311.185,912.072 313.185,910.405 315,908.5C 319.789,901.237 324.289,893.904 328.5,886.5 Z"/></g>
<g><path style="opacity:1" fill="#7c7570" d="M 227.5,1125.5 C 225.959,1127.39 224.293,1129.22 222.5,1131C 220.722,1135.61 218.722,1140.11 216.5,1144.5C 216.043,1145.3 215.376,1145.63 214.5,1145.5C 213.121,1145.33 211.454,1145.16 209.5,1145C 211.848,1144.65 213.681,1143.49 215,1141.5C 217.186,1137.29 219.186,1132.95 221,1128.5C 222.67,1125.5 224.836,1123.33 227.5,1122C 226.316,1123.15 226.316,1124.31 227.5,1125.5 Z"/></g>
<g><path style="opacity:1" fill="#7d7672" d="M 604.5,1127.5 C 607.07,1129.68 609.403,1132.02 611.5,1134.5C 610.127,1134.66 608.793,1134.49 607.5,1134C 605.022,1129.52 601.355,1126.52 596.5,1125C 599.502,1124.72 602.168,1125.56 604.5,1127.5 Z"/></g>
<g><path style="opacity:1" fill="#847d79" d="M 572.5,1129.5 C 573.231,1129.94 574.231,1130.11 575.5,1130C 573.766,1132.06 571.766,1132.56 569.5,1131.5C 569.891,1132.72 569.224,1133.55 567.5,1134C 555.159,1134.26 542.826,1134.26 530.5,1134C 527.221,1134.97 524.221,1136.47 521.5,1138.5C 520.232,1137.57 518.899,1137.41 517.5,1138C 519.935,1139 519.602,1139.5 516.5,1139.5C 512.338,1137.76 508.005,1136.59 503.5,1136C 504.756,1135.58 505.423,1134.75 505.5,1133.5C 509.236,1134.2 512.903,1135.2 516.5,1136.5C 521.004,1134.42 525.671,1132.59 530.5,1131C 539.547,1130.46 548.547,1130.96 557.5,1132.5C 562.648,1132.14 567.648,1131.14 572.5,1129.5 Z"/></g>
<g><path style="opacity:1" fill="#837c78" d="M 760.5,1123.5 C 759.636,1124.69 758.636,1125.85 757.5,1127C 753.916,1128.07 750.25,1128.74 746.5,1129C 745.601,1130.24 744.434,1131.07 743,1131.5C 739.786,1131 736.786,1130 734,1128.5C 732.189,1129.42 732.355,1130.26 734.5,1131C 733.167,1131.17 731.833,1131.33 730.5,1131.5C 715.515,1130.4 700.515,1130.23 685.5,1131C 684,1131.5 682.5,1132 681,1132.5C 679.97,1132.16 679.47,1131.5 679.5,1130.5C 686.027,1128.35 692.861,1127.35 700,1127.5C 710.493,1128.38 720.993,1128.55 731.5,1128C 734.624,1124.97 737.957,1124.8 741.5,1127.5C 747.562,1126.43 753.395,1124.76 759,1122.5C 759.765,1122.57 760.265,1122.9 760.5,1123.5 Z"/></g>
<g><path style="opacity:1" fill="#a6a19e" d="M 586.5,1123.5 C 592.113,1126.09 591.779,1127.42 585.5,1127.5C 585.5,1126.5 585.5,1125.5 585.5,1124.5C 586.167,1124.5 586.5,1124.17 586.5,1123.5 Z"/></g>
<g><path style="opacity:1" fill="#847d79" d="M 951.5,1114.5 C 951.804,1115.15 952.137,1115.82 952.5,1116.5C 947.697,1117.38 942.863,1118.04 938,1118.5C 934.145,1117.12 930.145,1116.46 926,1116.5C 922.177,1116.22 918.677,1117.05 915.5,1119C 906.132,1119.75 896.799,1120.58 887.5,1121.5C 886.478,1121.14 885.811,1120.48 885.5,1119.5C 900.082,1118.19 914.582,1116.19 929,1113.5C 936.381,1115.27 943.881,1115.6 951.5,1114.5 Z"/></g>
<g><path style="opacity:1" fill="#79716c" d="M 1427.5,1108.5 C 1406.87,1110.05 1386.2,1110.72 1365.5,1110.5C 1383.52,1109.76 1401.69,1108.76 1420,1107.5C 1422.69,1107.5 1425.19,1107.84 1427.5,1108.5 Z"/></g>
<g><path style="opacity:1" fill="#837c78" d="M 1302.5,1105.5 C 1302.41,1106.5 1302.75,1107.33 1303.5,1108C 1301.32,1108.42 1299.15,1108.25 1297,1107.5C 1277.85,1108.94 1258.69,1110.27 1239.5,1111.5C 1236.79,1111.52 1234.29,1110.85 1232,1109.5C 1215.73,1110.59 1199.4,1110.59 1183,1109.5C 1178.5,1109.67 1174,1109.83 1169.5,1110C 1156.46,1112.66 1143.46,1113.16 1130.5,1111.5C 1133.52,1111.66 1136.52,1111.5 1139.5,1111C 1123,1110.13 1106.5,1109.3 1090,1108.5C 1086.65,1108.5 1083.48,1108.84 1080.5,1109.5C 1066.52,1108.96 1052.52,1109.13 1038.5,1110C 1029.9,1110.39 1021.56,1112.05 1013.5,1115C 1007.98,1115.29 1002.48,1115.79 997,1116.5C 983.21,1115.07 969.377,1114.23 955.5,1114C 956.056,1113.62 956.389,1113.12 956.5,1112.5C 959.314,1111.84 962.314,1111.5 965.5,1111.5C 980.461,1113.22 995.461,1113.72 1010.5,1113C 1029.16,1108.03 1048.16,1105.86 1067.5,1106.5C 1096.68,1107.59 1125.85,1108.92 1155,1110.5C 1164.19,1108.23 1173.53,1106.9 1183,1106.5C 1194,1107.21 1205,1107.88 1216,1108.5C 1221.48,1108.6 1226.81,1107.93 1232,1106.5C 1234.62,1107.65 1237.28,1108.65 1240,1109.5C 1243.72,1108.3 1247.55,1107.46 1251.5,1107C 1268.5,1106.56 1285.5,1106.06 1302.5,1105.5 Z"/></g>
<g><path style="opacity:1" fill="#79716c" d="M 1080.5,1109.5 C 1083.48,1108.84 1086.65,1108.5 1090,1108.5C 1106.5,1109.3 1123,1110.13 1139.5,1111C 1136.52,1111.5 1133.52,1111.66 1130.5,1111.5C 1113.84,1110.78 1097.17,1110.11 1080.5,1109.5 Z"/></g>
<g><path style="opacity:1" fill="#817a76" d="M 1339.5,1103.5 C 1338.05,1104.82 1338.38,1105.66 1340.5,1106C 1336.83,1106.17 1333.17,1106.33 1329.5,1106.5C 1325.43,1106.49 1321.77,1105.82 1318.5,1104.5C 1325.31,1103.51 1332.31,1103.18 1339.5,1103.5 Z"/></g>
<g><path style="opacity:1" fill="#b4b0ad" d="M 313.5,912.5 C 314.516,916.374 313.35,919.708 310,922.5C 308.195,919.878 308.195,917.211 310,914.5C 310.654,913.304 311.154,913.304 311.5,914.5C 310.572,915.768 310.405,917.101 311,918.5C 312.122,916.593 312.955,914.593 313.5,912.5 Z"/></g>
<g><path style="opacity:1" fill="#827c78" d="M 142.5,1140.5 C 142.611,1141.12 142.944,1141.62 143.5,1142C 141.936,1144.97 140.27,1147.8 138.5,1150.5C 137.094,1150.97 136.427,1151.97 136.5,1153.5C 135.178,1153.67 134.011,1153.34 133,1152.5C 129.667,1155.5 126.333,1158.5 123,1161.5C 122.536,1160.91 122.369,1160.24 122.5,1159.5C 126.888,1154.66 131.221,1149.82 135.5,1145C 137.761,1143.19 140.095,1141.69 142.5,1140.5 Z"/></g>
<g><path style="opacity:1" fill="#8e8886" d="M 285.5,1151.5 C 285.5,1152.5 285.5,1153.5 285.5,1154.5C 275.852,1155.25 266.185,1155.58 256.5,1155.5C 256.577,1154.25 257.244,1153.42 258.5,1153C 267.508,1152.55 276.508,1152.05 285.5,1151.5 Z"/></g>
<g><path style="opacity:1" fill="#cccac8" d="M 138.5,1150.5 C 139.016,1151.76 138.35,1152.76 136.5,1153.5C 136.427,1151.97 137.094,1150.97 138.5,1150.5 Z"/></g>
<g><path style="opacity:1" fill="#c0bcba" d="M 314.5,1152.5 C 313.4,1153.6 312.733,1154.94 312.5,1156.5C 307.283,1156.76 302.116,1156.42 297,1155.5C 293.974,1156.87 290.807,1157.54 287.5,1157.5C 287.196,1156.85 286.863,1156.18 286.5,1155.5C 291.317,1154.83 295.983,1154.17 300.5,1153.5C 305.214,1153.65 309.881,1153.31 314.5,1152.5 Z"/></g>
<g><path style="opacity:1" fill="#dddad8" d="M 314.5,1152.5 C 316.176,1153.18 316.843,1154.52 316.5,1156.5C 315.167,1156.5 313.833,1156.5 312.5,1156.5C 312.733,1154.94 313.4,1153.6 314.5,1152.5 Z"/></g>
<g><path style="opacity:1" fill="#9b9693" d="M 285.5,1151.5 C 285.833,1151.5 286.167,1151.5 286.5,1151.5C 287.873,1151.34 289.207,1151.51 290.5,1152C 290.167,1152.33 289.833,1152.67 289.5,1153C 293.152,1153.5 296.818,1153.67 300.5,1153.5C 295.983,1154.17 291.317,1154.83 286.5,1155.5C 286.863,1156.18 287.196,1156.85 287.5,1157.5C 280.96,1159.37 274.294,1159.87 267.5,1159C 268.938,1158.78 270.271,1158.28 271.5,1157.5C 268.761,1156.23 266.094,1156.4 263.5,1158C 264.167,1158.33 264.833,1158.67 265.5,1159C 261.376,1159.86 257.21,1160.36 253,1160.5C 250.3,1160.61 247.8,1160.11 245.5,1159C 249.833,1158.67 254.167,1158.33 258.5,1158C 253.981,1157.82 249.647,1157.32 245.5,1156.5C 249.198,1156.45 252.865,1156.11 256.5,1155.5C 266.185,1155.58 275.852,1155.25 285.5,1154.5C 285.5,1153.5 285.5,1152.5 285.5,1151.5 Z"/></g>
<g><path style="opacity:1" fill="#8d8781" d="M 1492.5,1163.5 C 1489.07,1162.58 1485.73,1162.25 1482.5,1162.5C 1475.55,1163.72 1468.55,1164.56 1461.5,1165C 1433.17,1165.33 1404.83,1165.67 1376.5,1166C 1387.34,1166.17 1398.01,1166.67 1408.5,1167.5C 1391.62,1167.1 1374.79,1167.77 1358,1169.5C 1354.48,1169.92 1351.48,1168.92 1349,1166.5C 1346.22,1167.33 1343.39,1167.99 1340.5,1168.5C 1340.18,1166.95 1339.18,1166.29 1337.5,1166.5C 1344.61,1162.54 1351.78,1162.54 1359,1166.5C 1362.15,1165.91 1365.32,1165.41 1368.5,1165C 1398.5,1164.67 1428.5,1164.33 1458.5,1164C 1467.28,1163.63 1475.94,1162.46 1484.5,1160.5C 1487.55,1160.74 1490.22,1161.74 1492.5,1163.5 Z"/></g>
<g><path style="opacity:1" fill="#a8a39f" d="M 233.5,1160.5 C 233.423,1161.75 232.756,1162.58 231.5,1163C 232.5,1163.33 233.5,1163.67 234.5,1164C 232.833,1164.83 231.167,1165.67 229.5,1166.5C 228.494,1166.06 228.494,1165.4 229.5,1164.5C 229.043,1163.7 228.376,1163.37 227.5,1163.5C 229.181,1161.99 231.181,1160.99 233.5,1160.5 Z"/></g>
<g><path style="opacity:1" fill="#867f7a" d="M 1791.5,1165.5 C 1785.69,1164.93 1779.86,1164.6 1774,1164.5C 1754.82,1165.36 1735.66,1166.36 1716.5,1167.5C 1716.61,1166.88 1716.94,1166.38 1717.5,1166C 1736.16,1164.47 1754.83,1162.97 1773.5,1161.5C 1776.58,1161.32 1779.41,1161.99 1782,1163.5C 1785.07,1162.38 1788.24,1162.22 1791.5,1163C 1792.6,1163.77 1792.6,1164.6 1791.5,1165.5 Z"/></g>
<g><path style="opacity:1" fill="#8d8781" d="M 1337.5,1166.5 C 1277,1167.33 1216.33,1167.83 1155.5,1168C 1153.9,1168.27 1152.4,1168.77 1151,1169.5C 1127.23,1168.33 1103.39,1168.5 1079.5,1170C 1082.5,1170.33 1085.5,1170.67 1088.5,1171C 1086.62,1171.2 1084.95,1171.7 1083.5,1172.5C 1072.19,1173.33 1060.85,1173.66 1049.5,1173.5C 1047.26,1172.19 1044.59,1171.52 1041.5,1171.5C 1016.18,1174.01 990.843,1176.34 965.5,1178.5C 929.823,1175.76 894.156,1175.93 858.5,1179C 860.708,1179.19 862.708,1179.69 864.5,1180.5C 850.768,1181 837.101,1181.66 823.5,1182.5C 822.737,1181.73 821.737,1181.23 820.5,1181C 824.232,1180.03 823.899,1179.53 819.5,1179.5C 788.969,1183.54 758.302,1185.54 727.5,1185.5C 694.482,1186.22 661.482,1187.22 628.5,1188.5C 611.147,1188.32 593.814,1188.82 576.5,1190C 584.677,1190.17 592.677,1190.67 600.5,1191.5C 580.489,1192.35 560.489,1193.35 540.5,1194.5C 539.391,1193.71 538.058,1193.21 536.5,1193C 537.833,1192.67 539.167,1192.33 540.5,1192C 520.786,1191.92 501.119,1192.92 481.5,1195C 484.036,1195.19 486.369,1195.69 488.5,1196.5C 483.695,1197.49 478.695,1197.82 473.5,1197.5C 473.611,1196.88 473.944,1196.38 474.5,1196C 469.833,1195.33 465.167,1195.33 460.5,1196C 439.779,1197.86 419.113,1200.2 398.5,1203C 378.309,1203.74 358.309,1205.07 338.5,1207C 340.134,1207.49 341.801,1207.66 343.5,1207.5C 339.366,1208.48 335.032,1208.82 330.5,1208.5C 327.742,1207.18 324.576,1206.52 321,1206.5C 302.475,1207.14 283.975,1208.14 265.5,1209.5C 271.266,1208.01 277.266,1207.18 283.5,1207C 319.868,1206.06 356.201,1204.4 392.5,1202C 430.705,1197.07 469.039,1193.4 507.5,1191C 597.145,1187.46 686.812,1184.46 776.5,1182C 798.127,1179.78 819.794,1177.94 841.5,1176.5C 843.865,1176.64 846.198,1176.97 848.5,1177.5C 887.304,1174.17 926.137,1173.83 965,1176.5C 1009.38,1171.99 1053.88,1169.16 1098.5,1168C 1178.16,1166.69 1257.83,1166.19 1337.5,1166.5 Z"/></g>
<g><path style="opacity:1" fill="#847d7a" d="M 1492.5,1163.5 C 1494.95,1164.62 1497.62,1165.45 1500.5,1166C 1535.5,1166.33 1570.5,1166.67 1605.5,1167C 1592.66,1167.17 1579.99,1167.67 1567.5,1168.5C 1545.16,1168.67 1522.83,1168.5 1500.5,1168C 1494.97,1166.96 1489.47,1165.79 1484,1164.5C 1476.89,1165.8 1469.72,1166.63 1462.5,1167C 1444.5,1167.5 1426.5,1167.67 1408.5,1167.5C 1398.01,1166.67 1387.34,1166.17 1376.5,1166C 1404.83,1165.67 1433.17,1165.33 1461.5,1165C 1468.55,1164.56 1475.55,1163.72 1482.5,1162.5C 1485.73,1162.25 1489.07,1162.58 1492.5,1163.5 Z"/></g>
<g><path style="opacity:1" fill="#87807c" d="M 1337.5,1166.5 C 1339.18,1166.29 1340.18,1166.95 1340.5,1168.5C 1254.86,1169.77 1169.19,1171.1 1083.5,1172.5C 1084.95,1171.7 1086.62,1171.2 1088.5,1171C 1085.5,1170.67 1082.5,1170.33 1079.5,1170C 1103.39,1168.5 1127.23,1168.33 1151,1169.5C 1152.4,1168.77 1153.9,1168.27 1155.5,1168C 1216.33,1167.83 1277,1167.33 1337.5,1166.5 Z"/></g>
<g><path style="opacity:1" fill="#847d78" d="M 192.5,1158.5 C 191.058,1159.82 190.392,1161.49 190.5,1163.5C 189.544,1164.66 188.544,1165.83 187.5,1167C 187.894,1169.28 188.894,1169.78 190.5,1168.5C 190.833,1169.83 191.167,1169.83 191.5,1168.5C 193.5,1168.5 195.5,1168.5 197.5,1168.5C 197.5,1169.83 197.5,1171.17 197.5,1172.5C 191.46,1173.18 185.46,1174.18 179.5,1175.5C 177.627,1175.52 177.294,1175.02 178.5,1174C 176.853,1172.69 175.186,1172.85 173.5,1174.5C 172.5,1174.5 171.5,1174.5 170.5,1174.5C 173.77,1172.95 177.104,1171.12 180.5,1169C 183.691,1165.31 186.691,1161.48 189.5,1157.5C 191.052,1156.2 192.052,1156.54 192.5,1158.5 Z"/></g>
<g><path style="opacity:1" fill="#bebbb8" d="M 170.5,1174.5 C 171.5,1174.5 172.5,1174.5 173.5,1174.5C 171.736,1176.03 169.069,1177.03 165.5,1177.5C 164.833,1177.33 164.167,1177.17 163.5,1177C 165.9,1176.26 168.233,1175.42 170.5,1174.5 Z"/></g>
<g><path style="opacity:1" fill="#7e7872" d="M 1916.5,1173.5 C 1913.4,1177.61 1909.4,1178.94 1904.5,1177.5C 1894.97,1178.22 1885.47,1179.22 1876,1180.5C 1867.85,1179.34 1860.01,1177.34 1852.5,1174.5C 1851.74,1173.73 1850.74,1173.23 1849.5,1173C 1858.02,1174.42 1866.52,1176.25 1875,1178.5C 1887.07,1176.38 1899.24,1175.21 1911.5,1175C 1913.17,1173.83 1914.83,1172.67 1916.5,1171.5C 1917.46,1171.97 1917.46,1172.64 1916.5,1173.5 Z"/></g>
<g><path style="opacity:1" fill="#7e7772" d="M 1049.5,1173.5 C 1021.55,1176.16 993.548,1178.5 965.5,1180.5C 931.838,1178.08 898.171,1178.08 864.5,1180.5C 862.708,1179.69 860.708,1179.19 858.5,1179C 894.156,1175.93 929.823,1175.76 965.5,1178.5C 990.843,1176.34 1016.18,1174.01 1041.5,1171.5C 1044.59,1171.52 1047.26,1172.19 1049.5,1173.5 Z"/></g>
<g><path style="opacity:1" fill="#7f7873" d="M 823.5,1182.5 C 789.932,1185.91 756.265,1187.91 722.5,1188.5C 724.292,1187.69 726.292,1187.19 728.5,1187C 727.944,1186.62 727.611,1186.12 727.5,1185.5C 758.302,1185.54 788.969,1183.54 819.5,1179.5C 823.899,1179.53 824.232,1180.03 820.5,1181C 821.737,1181.23 822.737,1181.73 823.5,1182.5 Z"/></g>
<g><path style="opacity:1" fill="#86807c" d="M 727.5,1185.5 C 727.611,1186.12 727.944,1186.62 728.5,1187C 726.292,1187.19 724.292,1187.69 722.5,1188.5C 690.151,1189.48 657.818,1190.48 625.5,1191.5C 620.015,1190.67 614.348,1190.17 608.5,1190C 615.346,1189.83 622.013,1189.33 628.5,1188.5C 661.482,1187.22 694.482,1186.22 727.5,1185.5 Z"/></g>
<g><path style="opacity:1" fill="#7a736d" d="M 628.5,1188.5 C 622.013,1189.33 615.346,1189.83 608.5,1190C 614.348,1190.17 620.015,1190.67 625.5,1191.5C 617.167,1191.5 608.833,1191.5 600.5,1191.5C 592.677,1190.67 584.677,1190.17 576.5,1190C 593.814,1188.82 611.147,1188.32 628.5,1188.5 Z"/></g>
<g><path style="opacity:1" fill="#827c77" d="M 540.5,1194.5 C 523.147,1194.71 505.814,1195.38 488.5,1196.5C 486.369,1195.69 484.036,1195.19 481.5,1195C 501.119,1192.92 520.786,1191.92 540.5,1192C 539.167,1192.33 537.833,1192.67 536.5,1193C 538.058,1193.21 539.391,1193.71 540.5,1194.5 Z"/></g>
<g><path style="opacity:1" fill="#837d78" d="M 85.5,1194.5 C 85.369,1195.24 85.5357,1195.91 86,1196.5C 86.8373,1194.99 88.0039,1194.49 89.5,1195C 82.194,1201.59 74.0273,1203.09 65,1199.5C 59.1826,1200.17 53.3493,1200.67 47.5,1201C 43.5691,1203.74 39.2358,1205.74 34.5,1207C 33.7877,1208.43 33.621,1209.93 34,1211.5C 33.0853,1210.67 32.4186,1209.67 32,1208.5C 31.6174,1209.06 31.1174,1209.39 30.5,1209.5C 30.2965,1207.61 30.9632,1206.11 32.5,1205C 39.0116,1202.83 45.1782,1199.99 51,1196.5C 52.3333,1197.17 53.6667,1197.83 55,1198.5C 60.5343,1196.16 66.0343,1196.16 71.5,1198.5C 76.1957,1197.16 80.8624,1195.83 85.5,1194.5 Z"/></g>
<g><path style="opacity:1" fill="#847e79" d="M 473.5,1197.5 C 449.846,1199.59 426.179,1202.09 402.5,1205C 382.852,1206.3 363.185,1207.14 343.5,1207.5C 341.801,1207.66 340.134,1207.49 338.5,1207C 358.309,1205.07 378.309,1203.74 398.5,1203C 419.113,1200.2 439.779,1197.86 460.5,1196C 465.167,1195.33 469.833,1195.33 474.5,1196C 473.944,1196.38 473.611,1196.88 473.5,1197.5 Z"/></g>
<g><path style="opacity:1" fill="#857f7a" d="M 330.5,1208.5 C 306.113,1208.97 281.779,1210.3 257.5,1212.5C 257.389,1211.88 257.056,1211.38 256.5,1211C 259.695,1210.82 262.695,1210.32 265.5,1209.5C 283.975,1208.14 302.475,1207.14 321,1206.5C 324.576,1206.52 327.742,1207.18 330.5,1208.5 Z"/></g>
<g><path style="opacity:1" fill="#8e8883" d="M 265.5,1209.5 C 262.695,1210.32 259.695,1210.82 256.5,1211C 257.056,1211.38 257.389,1211.88 257.5,1212.5C 255.958,1213.3 254.292,1213.63 252.5,1213.5C 252.918,1212.78 253.584,1212.28 254.5,1212C 232.826,1213.54 211.16,1215.54 189.5,1218C 190.833,1218.33 192.167,1218.67 193.5,1219C 192.944,1219.38 192.611,1219.88 192.5,1220.5C 188.833,1220.5 185.167,1220.5 181.5,1220.5C 181.611,1219.88 181.944,1219.38 182.5,1219C 180.5,1218.83 178.5,1218.67 176.5,1218.5C 162.693,1219.37 149.027,1220.54 135.5,1222C 137.405,1222.83 137.739,1223.99 136.5,1225.5C 135.549,1224.67 134.549,1224.51 133.5,1225C 139.899,1230.02 147.233,1232.69 155.5,1233C 155.167,1233.33 154.833,1233.67 154.5,1234C 155.877,1237.87 157.877,1241.37 160.5,1244.5C 161.288,1243.23 162.288,1242.23 163.5,1241.5C 163.833,1241.5 164.167,1241.5 164.5,1241.5C 164.637,1248.14 167.97,1251.14 174.5,1250.5C 174.194,1253.28 173.194,1255.78 171.5,1258C 171.509,1259.4 172.009,1260.57 173,1261.5C 172.737,1260.05 172.904,1258.72 173.5,1257.5C 175.211,1260.26 177.378,1262.59 180,1264.5C 180.21,1262.94 180.71,1261.61 181.5,1260.5C 183.153,1260.66 184.486,1261.33 185.5,1262.5C 184.903,1262.74 184.57,1263.24 184.5,1264C 186.573,1266.28 187.907,1268.95 188.5,1272C 190.23,1273.85 191.396,1273.69 192,1271.5C 193.812,1274.82 196.645,1276.15 200.5,1275.5C 200.491,1277.31 200.991,1278.98 202,1280.5C 202.649,1277.35 204.482,1275.35 207.5,1274.5C 209.091,1277.35 210.424,1280.35 211.5,1283.5C 212.502,1285.01 213.169,1286.68 213.5,1288.5C 218.476,1290.01 222.809,1292.51 226.5,1296C 227.585,1298.17 228.919,1300.17 230.5,1302C 237.708,1301.02 242.041,1304.19 243.5,1311.5C 241.466,1310.45 240.133,1308.79 239.5,1306.5C 236.065,1305.63 232.732,1304.47 229.5,1303C 223.292,1295.73 215.625,1290.73 206.5,1288C 201.693,1281.87 195.693,1277.2 188.5,1274C 184.612,1268.53 179.278,1265.19 172.5,1264C 171.026,1261.01 170.026,1257.84 169.5,1254.5C 167.142,1252.98 165.309,1250.98 164,1248.5C 162.333,1249.83 160.667,1249.83 159,1248.5C 157.509,1243.84 155.342,1239.51 152.5,1235.5C 145.746,1233.85 139.246,1231.52 133,1228.5C 131.309,1232.21 128.475,1233.38 124.5,1232C 119.674,1230.51 117.84,1227.34 119,1222.5C 122.386,1219.6 125.886,1219.26 129.5,1221.5C 131.382,1220.47 133.382,1219.64 135.5,1219C 154.854,1218.4 174.187,1217.4 193.5,1216C 217.488,1213.6 241.488,1211.43 265.5,1209.5 Z"/></g>
<g><path style="opacity:1" fill="#7f7874" d="M 252.5,1213.5 C 232.518,1216.12 212.518,1218.45 192.5,1220.5C 192.611,1219.88 192.944,1219.38 193.5,1219C 192.167,1218.67 190.833,1218.33 189.5,1218C 211.16,1215.54 232.826,1213.54 254.5,1212C 253.584,1212.28 252.918,1212.78 252.5,1213.5 Z"/></g>
<g><path style="opacity:1" fill="#a6a19d" d="M 32.5,1212.5 C 33.7498,1212.58 34.5831,1213.24 35,1214.5C 35.7431,1212.36 36.5765,1212.19 37.5,1214C 37.0051,1216.01 37.0051,1218.18 37.5,1220.5C 36.209,1220.26 35.209,1220.6 34.5,1221.5C 34.7721,1218.56 34.1054,1215.56 32.5,1212.5 Z"/></g>
<g><path style="opacity:1" fill="#817a76" d="M 181.5,1220.5 C 167.588,1221.88 153.588,1223.38 139.5,1225C 142.167,1226.33 144.833,1227.67 147.5,1229C 150.5,1229.33 153.5,1229.67 156.5,1230C 157.935,1234.37 160.268,1238.2 163.5,1241.5C 162.288,1242.23 161.288,1243.23 160.5,1244.5C 157.877,1241.37 155.877,1237.87 154.5,1234C 154.833,1233.67 155.167,1233.33 155.5,1233C 147.233,1232.69 139.899,1230.02 133.5,1225C 134.549,1224.51 135.549,1224.67 136.5,1225.5C 137.739,1223.99 137.405,1222.83 135.5,1222C 149.027,1220.54 162.693,1219.37 176.5,1218.5C 178.5,1218.67 180.5,1218.83 182.5,1219C 181.944,1219.38 181.611,1219.88 181.5,1220.5 Z"/></g>
<g><path style="opacity:1" fill="#857f7a" d="M 164.5,1241.5 C 167.118,1242.94 169.618,1244.61 172,1246.5C 174.305,1244.07 177.138,1243.07 180.5,1243.5C 181.415,1248.69 179.748,1253.03 175.5,1256.5C 178.155,1256.98 180.155,1258.31 181.5,1260.5C 180.71,1261.61 180.21,1262.94 180,1264.5C 177.378,1262.59 175.211,1260.26 173.5,1257.5C 172.904,1258.72 172.737,1260.05 173,1261.5C 172.009,1260.57 171.509,1259.4 171.5,1258C 173.194,1255.78 174.194,1253.28 174.5,1250.5C 167.97,1251.14 164.637,1248.14 164.5,1241.5 Z"/></g>
<g><path style="opacity:1" fill="#867f7b" d="M 185.5,1262.5 C 188.354,1263.97 190.688,1266.14 192.5,1269C 197.5,1269.33 202.5,1269.67 207.5,1270C 208.728,1271.49 208.728,1272.99 207.5,1274.5C 204.482,1275.35 202.649,1277.35 202,1280.5C 200.991,1278.98 200.491,1277.31 200.5,1275.5C 196.645,1276.15 193.812,1274.82 192,1271.5C 191.396,1273.69 190.23,1273.85 188.5,1272C 187.907,1268.95 186.573,1266.28 184.5,1264C 184.57,1263.24 184.903,1262.74 185.5,1262.5 Z"/></g>
<g><path style="opacity:1" fill="#827b76" d="M 211.5,1283.5 C 216.806,1285.54 221.806,1288.04 226.5,1291C 228.662,1292.65 229.995,1294.81 230.5,1297.5C 234.023,1298.14 237.356,1299.31 240.5,1301C 244.15,1306.09 247.15,1311.59 249.5,1317.5C 250.912,1318.81 252.579,1319.64 254.5,1320C 255.582,1321.33 256.249,1322.83 256.5,1324.5C 257.028,1325.85 257.195,1327.18 257,1328.5C 255.605,1324.27 252.772,1321.6 248.5,1320.5C 247.063,1317.29 245.397,1314.29 243.5,1311.5C 242.041,1304.19 237.708,1301.02 230.5,1302C 228.919,1300.17 227.585,1298.17 226.5,1296C 222.809,1292.51 218.476,1290.01 213.5,1288.5C 213.169,1286.68 212.502,1285.01 211.5,1283.5 Z"/></g>
<g><path style="opacity:1" fill="#7e7873" d="M 270.5,1337.5 C 271.794,1338.29 272.961,1339.29 274,1340.5C 274.346,1343.58 275.012,1346.58 276,1349.5C 280.219,1352.05 283.386,1355.55 285.5,1360C 288.264,1360.01 290.264,1361.17 291.5,1363.5C 289.753,1364.98 288.586,1366.98 288,1369.5C 287.742,1366.31 286.075,1364.31 283,1363.5C 282.64,1361.39 281.973,1359.39 281,1357.5C 276.237,1355.74 273.237,1352.4 272,1347.5C 270.041,1346.25 268.541,1344.59 267.5,1342.5C 268.994,1341.1 269.994,1339.43 270.5,1337.5 Z"/></g>
<g><path style="opacity:1" fill="#7e7773" d="M 294.5,1373.5 C 296.017,1373.51 297.184,1374.18 298,1375.5C 302.721,1381.22 307.054,1387.22 311,1393.5C 312.667,1394.73 314.167,1396.07 315.5,1397.5C 314.21,1398.06 313.377,1399.06 313,1400.5C 308.245,1393.32 303.245,1386.32 298,1379.5C 295.795,1376.96 293.295,1374.79 290.5,1373C 291.819,1372.81 293.153,1372.97 294.5,1373.5 Z"/></g>
<g><path style="opacity:1" fill="#b1aca9" d="M 230.5,1384.5 C 230.262,1386.4 229.262,1387.74 227.5,1388.5C 226.5,1388.17 225.833,1387.5 225.5,1386.5C 225.369,1385.76 225.536,1385.09 226,1384.5C 227.299,1384.97 228.799,1384.97 230.5,1384.5 Z"/></g>
<g><path style="opacity:1" fill="#8c8681" d="M 243.5,1311.5 C 245.397,1314.29 247.063,1317.29 248.5,1320.5C 252.772,1321.6 255.605,1324.27 257,1328.5C 257.195,1327.18 257.028,1325.85 256.5,1324.5C 260.513,1329.51 265.179,1333.85 270.5,1337.5C 269.994,1339.43 268.994,1341.1 267.5,1342.5C 268.541,1344.59 270.041,1346.25 272,1347.5C 273.237,1352.4 276.237,1355.74 281,1357.5C 281.973,1359.39 282.64,1361.39 283,1363.5C 286.075,1364.31 287.742,1366.31 288,1369.5C 288.586,1366.98 289.753,1364.98 291.5,1363.5C 292.625,1365.38 292.291,1367.21 290.5,1369C 292.041,1370.37 293.375,1371.87 294.5,1373.5C 293.153,1372.97 291.819,1372.81 290.5,1373C 293.295,1374.79 295.795,1376.96 298,1379.5C 303.245,1386.32 308.245,1393.32 313,1400.5C 313.377,1399.06 314.21,1398.06 315.5,1397.5C 315.146,1400.42 316.146,1402.75 318.5,1404.5C 317.572,1405.77 317.405,1407.1 318,1408.5C 320.752,1411.68 323.252,1415.02 325.5,1418.5C 320.745,1417.04 320.411,1417.71 324.5,1420.5C 325.739,1422.31 326.406,1424.31 326.5,1426.5C 325.23,1431.04 323.397,1435.38 321,1439.5C 311.286,1448.52 299.786,1453.69 286.5,1455C 287.598,1455.77 287.598,1456.6 286.5,1457.5C 283.774,1453.05 281.274,1448.39 279,1443.5C 274.753,1440.29 270.253,1437.46 265.5,1435C 257.228,1425.4 249.728,1415.23 243,1404.5C 238.056,1398.94 232.89,1393.61 227.5,1388.5C 229.262,1387.74 230.262,1386.4 230.5,1384.5C 234.349,1388.19 237.683,1392.36 240.5,1397C 242.98,1397.96 245.48,1398.79 248,1399.5C 248.595,1400.9 248.428,1402.23 247.5,1403.5C 252.828,1413.33 259.162,1422.5 266.5,1431C 271.833,1433 276.666,1435.84 281,1439.5C 283.12,1444.24 285.62,1448.74 288.5,1453C 292.959,1452.85 297.292,1451.85 301.5,1450C 306.666,1447.25 311.666,1444.25 316.5,1441C 320.183,1437.3 322.849,1432.97 324.5,1428C 322.43,1423.59 319.93,1419.42 317,1415.5C 316,1414.83 315,1414.17 314,1413.5C 311.77,1409.04 310.103,1404.37 309,1399.5C 306.667,1395.5 304.333,1391.5 302,1387.5C 297.649,1381.75 292.649,1376.75 287,1372.5C 284.083,1368.33 281.416,1364 279,1359.5C 277.292,1357.46 275.292,1355.79 273,1354.5C 272,1352.5 271,1350.5 270,1348.5C 265.228,1344.83 261.895,1340.16 260,1334.5C 256.333,1329.5 252,1325.17 247,1321.5C 245.132,1318.39 243.965,1315.06 243.5,1311.5 Z"/></g>
<g><path style="opacity:1" fill="#837c78" d="M 325.5,1418.5 C 327.335,1421.18 329.002,1424.02 330.5,1427C 327.794,1432.25 324.96,1437.41 322,1442.5C 311.629,1450.93 299.796,1455.93 286.5,1457.5C 287.598,1456.6 287.598,1455.77 286.5,1455C 299.786,1453.69 311.286,1448.52 321,1439.5C 323.397,1435.38 325.23,1431.04 326.5,1426.5C 326.406,1424.31 325.739,1422.31 324.5,1420.5C 320.411,1417.71 320.745,1417.04 325.5,1418.5 Z"/></g>
</svg>
