<?xml version="1.0" encoding="UTF-8"?>
<!DOCTYPE svg PUBLIC "-//W3C//DTD SVG 1.1//EN" "http://www.w3.org/Graphics/SVG/1.1/DTD/svg11.dtd">
<svg xmlns="http://www.w3.org/2000/svg" version="1.1" width="2000px" height="2000px" style="shape-rendering:geometricPrecision; text-rendering:geometricPrecision; image-rendering:optimizeQuality; fill-rule:evenodd; clip-rule:evenodd" xmlns:xlink="http://www.w3.org/1999/xlink">
<g><path style="opacity:1" fill="#857e79" d="M 1689.5,956.5 C 1697.54,970.278 1703.2,984.944 1706.5,1000.5C 1708.83,1008.16 1712,1015.49 1716,1022.5C 1722.58,1030.65 1728.41,1039.32 1733.5,1048.5C 1732.8,1048.79 1732.13,1049.12 1731.5,1049.5C 1726.43,1040.38 1720.6,1031.71 1714,1023.5C 1707.08,1007.74 1700.75,991.738 1695,975.5C 1690.18,966.041 1685.18,956.707 1680,947.5C 1679.14,942.375 1677.8,937.375 1676,932.5C 1675.67,927.833 1675.33,923.167 1675,918.5C 1672.67,907.511 1670.5,896.511 1668.5,885.5C 1668.24,884.022 1668.57,882.689 1669.5,881.5C 1673.85,885.223 1674.85,889.39 1672.5,894C 1674.61,904.844 1676.45,915.677 1678,926.5C 1677.24,923.937 1676.74,923.937 1676.5,926.5C 1679.42,932.507 1681.25,938.841 1682,945.5C 1684.96,948.957 1687.46,952.623 1689.5,956.5 Z"/></g>
<g><path style="opacity:1" fill="#8e8888" d="M 1970.5,1202.5 C 1971.57,1203.25 1971.74,1204.25 1971,1205.5C 1969.33,1206.85 1968.16,1208.51 1967.5,1210.5C 1966.15,1209.97 1964.82,1209.81 1963.5,1210C 1964.57,1211.25 1964.57,1212.58 1963.5,1214C 1964.13,1215.31 1965.13,1216.14 1966.5,1216.5C 1965.45,1218.53 1963.79,1219.87 1961.5,1220.5C 1960.55,1222.05 1960.21,1223.71 1960.5,1225.5C 1959.21,1225.74 1958.21,1225.4 1957.5,1224.5C 1958.04,1224.44 1958.38,1224.11 1958.5,1223.5C 1957.05,1221.78 1956.21,1219.78 1956,1217.5C 1953.34,1218.83 1950.51,1219.67 1947.5,1220C 1944.79,1222.37 1942.46,1225.04 1940.5,1228C 1936.67,1230.5 1932.83,1233 1929,1235.5C 1928.67,1238.5 1928.33,1241.5 1928,1244.5C 1922.61,1251.55 1915.78,1256.72 1907.5,1260C 1902.87,1263.63 1898.53,1267.63 1894.5,1272C 1889.67,1273.61 1885,1275.61 1880.5,1278C 1867.27,1288.23 1854.93,1299.56 1843.5,1312C 1832.27,1317.23 1823.61,1325.23 1817.5,1336C 1808.39,1339.64 1800.55,1345.14 1794,1352.5C 1788.19,1360.61 1782.03,1368.44 1775.5,1376C 1776.52,1377.05 1776.68,1378.22 1776,1379.5C 1775.33,1378.17 1774.67,1378.17 1774,1379.5C 1773.31,1380.44 1773.47,1381.1 1774.5,1381.5C 1768.89,1387.28 1763.39,1393.28 1758,1399.5C 1751.74,1409.91 1744.57,1419.58 1736.5,1428.5C 1736.54,1427.24 1736.04,1426.24 1735,1425.5C 1730.61,1428.19 1726.11,1430.69 1721.5,1433C 1718.35,1437.47 1715.85,1442.31 1714,1447.5C 1701.16,1446.92 1690.16,1441.92 1681,1432.5C 1679.24,1428.64 1677.74,1424.64 1676.5,1420.5C 1680.13,1416.7 1683.63,1412.7 1687,1408.5C 1690,1401.17 1693,1393.83 1696,1386.5C 1699.69,1382.31 1703.19,1377.98 1706.5,1373.5C 1709.09,1371.96 1711.59,1370.29 1714,1368.5C 1716,1364.5 1718,1360.5 1720,1356.5C 1723.14,1353.27 1726.48,1350.27 1730,1347.5C 1731.27,1343.23 1733.94,1340.23 1738,1338.5C 1738.2,1336.79 1738.2,1335.13 1738,1333.5C 1742.71,1327.97 1747.54,1322.63 1752.5,1317.5C 1755.96,1310.76 1760.29,1304.59 1765.5,1299C 1768.29,1298.76 1770.96,1298.09 1773.5,1297C 1776.37,1293.55 1779.71,1290.55 1783.5,1288C 1786.25,1286.25 1789.25,1285.25 1792.5,1285C 1794.42,1283.58 1795.76,1281.75 1796.5,1279.5C 1800.83,1275.35 1805.83,1272.18 1811.5,1270C 1816.76,1264.36 1823.1,1260.19 1830.5,1257.5C 1830.65,1248.93 1834.98,1244.6 1843.5,1244.5C 1843.35,1241.39 1843.85,1238.39 1845,1235.5C 1847.12,1234.38 1848.96,1232.88 1850.5,1231C 1856.03,1229.5 1861.2,1227.34 1866,1224.5C 1869.15,1225.16 1871.99,1226.49 1874.5,1228.5C 1878.09,1227.08 1880.92,1224.75 1883,1221.5C 1883.74,1219.56 1883.58,1217.73 1882.5,1216C 1846.86,1213.88 1811.2,1211.71 1775.5,1209.5C 1759.06,1206.73 1742.39,1204.56 1725.5,1203C 1685.19,1200.61 1644.86,1198.61 1604.5,1197C 1541.74,1189.22 1478.74,1184.56 1415.5,1183C 1347.82,1181.57 1280.15,1179.57 1212.5,1177C 1190.95,1173.91 1169.28,1172.24 1147.5,1172C 1106.17,1170.4 1064.84,1170.07 1023.5,1171C 986.227,1167.75 948.894,1165.42 911.5,1164C 829.133,1162.62 746.799,1161.62 664.5,1161C 660.347,1160.09 656.18,1159.25 652,1158.5C 648.778,1158.95 645.778,1159.95 643,1161.5C 607.868,1159.84 572.701,1159 537.5,1159C 530.472,1158.36 523.472,1157.53 516.5,1156.5C 510.256,1157.97 503.923,1159.13 497.5,1160C 439.498,1160.28 381.498,1160.78 323.5,1161.5C 290.418,1160.88 257.418,1158.88 224.5,1155.5C 193.26,1157.37 162.594,1162.53 132.5,1171C 118.151,1171 103.818,1170.33 89.5,1169C 84.0682,1166.29 79.4015,1162.62 75.5,1158C 82.3284,1149.01 89.995,1140.84 98.5,1133.5C 100.932,1132.25 103.266,1130.75 105.5,1129C 123.028,1124.16 140.695,1119.83 158.5,1116C 163.154,1115.31 167.654,1115.81 172,1117.5C 180.747,1115.44 189.58,1113.61 198.5,1112C 207.827,1112.17 217.161,1112.17 226.5,1112C 233.157,1110.77 239.824,1109.6 246.5,1108.5C 250.833,1109.17 255.167,1109.83 259.5,1110.5C 268.35,1108.61 277.184,1106.61 286,1104.5C 294.431,1105.97 302.931,1106.63 311.5,1106.5C 358.496,1105.42 405.496,1105.25 452.5,1106C 463.156,1106.98 473.822,1107.82 484.5,1108.5C 495.483,1107.71 506.317,1106.04 517,1103.5C 523.715,1105.26 530.549,1106.6 537.5,1107.5C 565.678,1105.13 593.844,1105.46 622,1108.5C 639.95,1107.7 657.783,1106.03 675.5,1103.5C 685.88,1108.8 696.546,1109.46 707.5,1105.5C 725.523,1106.08 743.523,1107.08 761.5,1108.5C 779.69,1108.17 798.024,1107.51 816.5,1106.5C 828.524,1107.38 840.524,1108.38 852.5,1109.5C 887.138,1107.26 921.804,1106.42 956.5,1107C 969.653,1108.1 982.653,1110.1 995.5,1113C 1011.17,1112.72 1026.84,1112.39 1042.5,1112C 1043.83,1112.67 1045.17,1113.33 1046.5,1114C 1058.15,1115.67 1069.81,1116 1081.5,1115C 1101.5,1117.57 1121.5,1120.07 1141.5,1122.5C 1154.45,1120.15 1167.45,1120.32 1180.5,1123C 1185.36,1123.97 1190.03,1123.47 1194.5,1121.5C 1195.62,1120.09 1196.62,1118.59 1197.5,1117C 1203.49,1117 1209.49,1117.33 1215.5,1118C 1219.44,1119.22 1223.11,1120.89 1226.5,1123C 1234.72,1124.88 1243.05,1125.88 1251.5,1126C 1252.83,1126.67 1254.17,1127.33 1255.5,1128C 1274.2,1128.38 1292.87,1128.04 1311.5,1127C 1324.35,1131.39 1337.52,1132.56 1351,1130.5C 1363.93,1133.9 1377.09,1135.06 1390.5,1134C 1394.47,1131.36 1397.81,1128.03 1400.5,1124C 1404.22,1121.86 1407.55,1122.2 1410.5,1125C 1413.71,1125.7 1416.88,1125.54 1420,1124.5C 1424.95,1127.39 1430.12,1129.89 1435.5,1132C 1446.85,1131.6 1458.19,1130.93 1469.5,1130C 1474.02,1132.67 1478.69,1135.17 1483.5,1137.5C 1492.46,1135 1501.63,1133.67 1511,1133.5C 1527.99,1134.23 1544.82,1134.23 1561.5,1133.5C 1588.58,1138.8 1615.92,1141.97 1643.5,1143C 1655.88,1144.47 1668.21,1146.14 1680.5,1148C 1684.16,1154.62 1689.82,1157.79 1697.5,1157.5C 1709.36,1156.56 1721.2,1156.89 1733,1158.5C 1741.94,1156.78 1750.77,1156.61 1759.5,1158C 1764.52,1161.18 1769.86,1163.84 1775.5,1166C 1780.48,1165.78 1785.48,1165.78 1790.5,1166C 1805.31,1169.2 1819.98,1172.7 1834.5,1176.5C 1842.85,1175.99 1843.52,1173.49 1836.5,1169C 1831.39,1168.45 1826.72,1166.78 1822.5,1164C 1819.98,1160.48 1817.15,1157.32 1814,1154.5C 1811.67,1149.16 1808.17,1144.66 1803.5,1141C 1798.75,1140.38 1794.08,1139.38 1789.5,1138C 1785.81,1131.45 1781.97,1124.95 1778,1118.5C 1770.81,1109.5 1763.15,1100.83 1755,1092.5C 1752.67,1088.5 1750.33,1084.5 1748,1080.5C 1746.47,1073.23 1744.13,1066.23 1741,1059.5C 1739.85,1058.26 1738.51,1057.26 1737,1056.5C 1736.25,1051.5 1734.58,1046.83 1732,1042.5C 1721.5,1029.02 1713.17,1014.35 1707,998.5C 1706.54,999.094 1706.37,999.761 1706.5,1000.5C 1703.2,984.944 1697.54,970.278 1689.5,956.5C 1688.83,953.327 1687.66,950.327 1686,947.5C 1685.67,944.5 1685.33,941.5 1685,938.5C 1683.67,937.833 1682.67,936.833 1682,935.5C 1681.61,931.486 1681.11,927.486 1680.5,923.5C 1680.62,922.106 1680.95,920.772 1681.5,919.5C 1679.82,918.231 1678.65,916.564 1678,914.5C 1676.91,909.475 1676.74,904.475 1677.5,899.5C 1679.08,902.994 1680.91,906.327 1683,909.5C 1683.37,911.898 1683.37,914.231 1683,916.5C 1684.18,915.269 1685.35,915.269 1686.5,916.5C 1690.86,921.69 1695.02,927.023 1699,932.5C 1701.49,934.743 1704.15,936.743 1707,938.5C 1711.99,949.007 1716.66,959.674 1721,970.5C 1725.29,976.463 1730.29,981.796 1736,986.5C 1742.57,1001.31 1749.9,1015.64 1758,1029.5C 1766.63,1038.14 1774.63,1047.47 1782,1057.5C 1787.83,1062 1792.17,1067.67 1795,1074.5C 1808.26,1091.72 1822.26,1108.39 1837,1124.5C 1844.55,1134.43 1854.22,1144.43 1866,1154.5C 1866.67,1153.83 1867.33,1153.17 1868,1152.5C 1873.7,1155.19 1878.53,1159.02 1882.5,1164C 1884.53,1165.88 1886.86,1167.05 1889.5,1167.5C 1890.91,1172.08 1893.91,1175.25 1898.5,1177C 1898.17,1177.33 1897.83,1177.67 1897.5,1178C 1902.89,1184.72 1908.89,1190.72 1915.5,1196C 1922.64,1199.73 1929.98,1200.23 1937.5,1197.5C 1947.75,1196.84 1957.08,1199.34 1965.5,1205C 1962.97,1206.32 1962.97,1207.48 1965.5,1208.5C 1967.16,1206.51 1968.83,1204.51 1970.5,1202.5 Z"/></g>
<g><path style="opacity:1" fill="#a29c99" d="M 1690.5,908.5 C 1692.62,911.088 1693.96,914.088 1694.5,917.5C 1693.62,917.369 1692.96,917.702 1692.5,918.5C 1693.4,922.418 1693.07,922.418 1691.5,918.5C 1690.77,916.046 1689.77,913.713 1688.5,911.5C 1689.17,910.5 1689.83,909.5 1690.5,908.5 Z"/></g>
<g><path style="opacity:1" fill="#cac9c5" d="M 1688.5,911.5 C 1689.77,913.713 1690.77,916.046 1691.5,918.5C 1690.12,917.426 1688.95,916.093 1688,914.5C 1687.22,912.486 1687.39,911.486 1688.5,911.5 Z"/></g>
<g><path style="opacity:1" fill="#8b8580" d="M 1690.5,908.5 C 1689.83,909.5 1689.17,910.5 1688.5,911.5C 1687.39,911.486 1687.22,912.486 1688,914.5C 1688.95,916.093 1690.12,917.426 1691.5,918.5C 1693.07,922.418 1693.4,922.418 1692.5,918.5C 1692.96,917.702 1693.62,917.369 1694.5,917.5C 1697.23,921.268 1699.73,925.268 1702,929.5C 1704.85,931.257 1707.51,933.257 1710,935.5C 1712.21,945.262 1716.55,953.928 1723,961.5C 1723.13,964.525 1724.13,967.192 1726,969.5C 1729.67,972.167 1733.33,974.833 1737,977.5C 1742.45,994.072 1749.79,1009.74 1759,1024.5C 1764.26,1031.76 1770.26,1038.43 1777,1044.5C 1797.13,1072.8 1818.96,1099.8 1842.5,1125.5C 1847.01,1130.68 1852.68,1133.68 1859.5,1134.5C 1877.93,1153.77 1896.93,1172.6 1916.5,1191C 1920.78,1190.31 1924.61,1191.48 1928,1194.5C 1929.86,1192.79 1932.03,1191.79 1934.5,1191.5C 1941.15,1192.21 1947.81,1192.71 1954.5,1193C 1959.84,1196.49 1965.17,1199.65 1970.5,1202.5C 1968.83,1204.51 1967.16,1206.51 1965.5,1208.5C 1962.97,1207.48 1962.97,1206.32 1965.5,1205C 1957.08,1199.34 1947.75,1196.84 1937.5,1197.5C 1929.98,1200.23 1922.64,1199.73 1915.5,1196C 1908.89,1190.72 1902.89,1184.72 1897.5,1178C 1897.83,1177.67 1898.17,1177.33 1898.5,1177C 1893.91,1175.25 1890.91,1172.08 1889.5,1167.5C 1886.86,1167.05 1884.53,1165.88 1882.5,1164C 1878.53,1159.02 1873.7,1155.19 1868,1152.5C 1867.33,1153.17 1866.67,1153.83 1866,1154.5C 1854.22,1144.43 1844.55,1134.43 1837,1124.5C 1822.26,1108.39 1808.26,1091.72 1795,1074.5C 1792.17,1067.67 1787.83,1062 1782,1057.5C 1774.63,1047.47 1766.63,1038.14 1758,1029.5C 1749.9,1015.64 1742.57,1001.31 1736,986.5C 1730.29,981.796 1725.29,976.463 1721,970.5C 1716.66,959.674 1711.99,949.007 1707,938.5C 1704.15,936.743 1701.49,934.743 1699,932.5C 1695.02,927.023 1690.86,921.69 1686.5,916.5C 1685.35,915.269 1684.18,915.269 1683,916.5C 1683.37,914.231 1683.37,911.898 1683,909.5C 1680.91,906.327 1679.08,902.994 1677.5,899.5C 1676.74,904.475 1676.91,909.475 1678,914.5C 1678.65,916.564 1679.82,918.231 1681.5,919.5C 1680.95,920.772 1680.62,922.106 1680.5,923.5C 1681.11,927.486 1681.61,931.486 1682,935.5C 1682.67,936.833 1683.67,937.833 1685,938.5C 1685.33,941.5 1685.67,944.5 1686,947.5C 1687.66,950.327 1688.83,953.327 1689.5,956.5C 1687.46,952.623 1684.96,948.957 1682,945.5C 1681.25,938.841 1679.42,932.507 1676.5,926.5C 1676.74,923.937 1677.24,923.937 1678,926.5C 1676.45,915.677 1674.61,904.844 1672.5,894C 1674.85,889.39 1673.85,885.223 1669.5,881.5C 1668.57,882.689 1668.24,884.022 1668.5,885.5C 1667.38,883.712 1667.21,881.712 1668,879.5C 1669,878.167 1670,878.167 1671,879.5C 1675.25,886.337 1679.25,893.337 1683,900.5C 1685.03,903.692 1687.53,906.359 1690.5,908.5 Z"/></g>
<g><path style="opacity:1" fill="#7e7772" d="M 1757.5,1100.5 C 1751.26,1093.7 1746.26,1086.03 1742.5,1077.5C 1741.78,1075.86 1741.62,1074.2 1742,1072.5C 1746.52,1083.35 1753.02,1092.85 1761.5,1101C 1760.18,1101.19 1758.85,1101.03 1757.5,1100.5 Z"/></g>
<g><path style="opacity:1" fill="#8a847f" d="M 98.5,1133.5 C 97.7611,1133.63 97.0944,1133.46 96.5,1133C 98.7658,1131.57 100.432,1129.74 101.5,1127.5C 102.347,1126.03 103.68,1125.2 105.5,1125C 122.451,1120.51 139.451,1116.35 156.5,1112.5C 155.391,1113.29 154.058,1113.79 152.5,1114C 159.321,1113.38 165.988,1113.88 172.5,1115.5C 183.256,1113.18 194.09,1111.18 205,1109.5C 218.878,1111.31 232.545,1110.31 246,1106.5C 257.123,1109.72 267.957,1108.88 278.5,1104C 286.512,1103.73 294.512,1103.73 302.5,1104C 298.264,1103.67 294.264,1102.83 290.5,1101.5C 305.878,1103.04 321.212,1102.71 336.5,1100.5C 377.478,1101.32 418.478,1101.82 459.5,1102C 467.876,1102.66 476.21,1103.49 484.5,1104.5C 495.349,1103.45 506.015,1101.45 516.5,1098.5C 522.927,1099.56 529.26,1100.89 535.5,1102.5C 534.411,1104.12 532.744,1104.95 530.5,1105C 542.849,1105.2 555.183,1104.7 567.5,1103.5C 584.671,1104.48 601.838,1105.48 619,1106.5C 632.195,1106.13 645.361,1105.29 658.5,1104C 655.833,1103.33 655.833,1102.67 658.5,1102C 657.944,1101.62 657.611,1101.12 657.5,1100.5C 658.624,1099.19 660.124,1098.52 662,1098.5C 666.448,1099.15 670.948,1099.15 675.5,1098.5C 679.575,1097.84 682.909,1099.01 685.5,1102C 687.5,1102.5 689.5,1103 691.5,1103.5C 693.453,1102.84 695.453,1102.51 697.5,1102.5C 697.47,1103.5 697.97,1104.16 699,1104.5C 700.462,1104.01 701.962,1103.67 703.5,1103.5C 720.457,1105.05 737.457,1105.89 754.5,1106C 760.836,1107.43 767.169,1107.26 773.5,1105.5C 788.152,1106.5 802.818,1106.17 817.5,1104.5C 834.405,1107.2 851.405,1108.03 868.5,1107C 867.255,1106.21 865.922,1105.71 864.5,1105.5C 870.979,1104.51 877.646,1104.18 884.5,1104.5C 879.684,1105.33 874.684,1105.83 869.5,1106C 892.839,1106.12 916.172,1105.62 939.5,1104.5C 948.841,1104.96 958.174,1105.12 967.5,1105C 958.51,1104.2 949.51,1103.53 940.5,1103C 939.584,1102.72 938.918,1102.22 938.5,1101.5C 958.36,1101.48 977.693,1104.15 996.5,1109.5C 993.15,1109.67 989.817,1109.5 986.5,1109C 981.364,1106.71 976.031,1105.71 970.5,1106C 990.221,1112.03 1010.22,1113.03 1030.5,1109C 1023.85,1109.05 1017.18,1109.22 1010.5,1109.5C 1021.9,1106.91 1033.57,1106.07 1045.5,1107C 1046.55,1108.38 1047.88,1109.38 1049.5,1110C 1054.15,1110.5 1058.82,1110.67 1063.5,1110.5C 1080.12,1113.34 1096.95,1115.67 1114,1117.5C 1114.5,1117.17 1115,1116.83 1115.5,1116.5C 1114.62,1115.75 1113.62,1115.25 1112.5,1115C 1112.73,1114.6 1113.06,1114.43 1113.5,1114.5C 1119.11,1116.04 1124.61,1115.71 1130,1113.5C 1135.26,1117.23 1141.09,1118.39 1147.5,1117C 1149.33,1116.25 1151,1115.25 1152.5,1114C 1155.47,1114.03 1158.3,1113.86 1161,1113.5C 1169.03,1115.86 1177.19,1117.53 1185.5,1118.5C 1185.29,1116.86 1185.62,1115.36 1186.5,1114C 1190.91,1111.29 1195.74,1109.79 1201,1109.5C 1204.72,1110.89 1208.55,1111.89 1212.5,1112.5C 1217.68,1111.56 1222.68,1111.56 1227.5,1112.5C 1229.03,1112.53 1230.2,1113.2 1231,1114.5C 1230.62,1116.07 1230.79,1117.57 1231.5,1119C 1235.17,1121.37 1238,1120.54 1240,1116.5C 1243.72,1118.27 1247.55,1119.94 1251.5,1121.5C 1254.69,1119.96 1257.35,1120.63 1259.5,1123.5C 1263.52,1119.65 1267.52,1119.82 1271.5,1124C 1276.56,1124.66 1281.56,1124.33 1286.5,1123C 1300.48,1121.4 1314.15,1122.73 1327.5,1127C 1337.5,1126.92 1347.5,1126.92 1357.5,1127C 1365.56,1128.55 1373.89,1129.72 1382.5,1130.5C 1385.7,1130.38 1388.7,1129.55 1391.5,1128C 1398.38,1117.53 1407.38,1115.03 1418.5,1120.5C 1421.72,1119.64 1424.89,1118.64 1428,1117.5C 1428.71,1119.37 1428.21,1120.87 1426.5,1122C 1430.39,1126.2 1435.23,1128.36 1441,1128.5C 1448.83,1127.45 1456.66,1126.45 1464.5,1125.5C 1468.33,1125.61 1471.99,1126.44 1475.5,1128C 1480.03,1132.92 1485.03,1133.59 1490.5,1130C 1495.88,1129.74 1501.22,1129.24 1506.5,1128.5C 1506.05,1129.46 1505.38,1130.29 1504.5,1131C 1518.05,1133.16 1531.55,1132.99 1545,1130.5C 1547.64,1130.66 1550.14,1131.32 1552.5,1132.5C 1553.17,1131.83 1553.83,1131.17 1554.5,1130.5C 1583.23,1136.16 1612.23,1139.66 1641.5,1141C 1660.71,1144.19 1680.05,1145.53 1699.5,1145C 1687.97,1144.55 1676.47,1143.72 1665,1142.5C 1663.01,1142.43 1661.51,1141.76 1660.5,1140.5C 1675.32,1142.39 1690.15,1142.73 1705,1141.5C 1708.71,1143.67 1712.54,1145.34 1716.5,1146.5C 1713.41,1146.46 1710.41,1146.29 1707.5,1146C 1709.86,1147.28 1712.19,1148.44 1714.5,1149.5C 1710.83,1149.5 1707.17,1149.5 1703.5,1149.5C 1699.03,1148.51 1694.36,1148.18 1689.5,1148.5C 1687.83,1148.5 1686.17,1148.5 1684.5,1148.5C 1685.03,1151.78 1687.03,1153.11 1690.5,1152.5C 1693.93,1153.1 1697.26,1153.1 1700.5,1152.5C 1701.82,1152.18 1703.15,1151.85 1704.5,1151.5C 1714.65,1154.13 1724.99,1155.13 1735.5,1154.5C 1741.65,1155.65 1747.99,1155.82 1754.5,1155C 1750.46,1154.83 1746.46,1154.33 1742.5,1153.5C 1745.98,1152.83 1749.31,1152.17 1752.5,1151.5C 1761.42,1152.69 1769.42,1156.03 1776.5,1161.5C 1778.31,1160.26 1780.31,1159.59 1782.5,1159.5C 1789.57,1161.2 1796.57,1163.2 1803.5,1165.5C 1803.55,1164.31 1803.89,1162.98 1804.5,1161.5C 1807.06,1160.95 1809.39,1159.95 1811.5,1158.5C 1809.48,1156.15 1807.48,1153.81 1805.5,1151.5C 1806.31,1150.53 1807.31,1149.7 1808.5,1149C 1806.67,1145.17 1803.67,1142.84 1799.5,1142C 1795.54,1140.87 1791.54,1139.87 1787.5,1139C 1784.96,1134.72 1782.79,1130.22 1781,1125.5C 1779.69,1123.36 1778.19,1121.36 1776.5,1119.5C 1775.91,1120.23 1775.91,1121.23 1776.5,1122.5C 1769.46,1119.48 1764.96,1114.15 1763,1106.5C 1760.96,1104.63 1759.13,1102.63 1757.5,1100.5C 1758.85,1101.03 1760.18,1101.19 1761.5,1101C 1753.02,1092.85 1746.52,1083.35 1742,1072.5C 1741.62,1074.2 1741.78,1075.86 1742.5,1077.5C 1739.99,1071.57 1736.82,1065.9 1733,1060.5C 1731.89,1056.91 1731.39,1053.25 1731.5,1049.5C 1732.13,1049.12 1732.8,1048.79 1733.5,1048.5C 1728.41,1039.32 1722.58,1030.65 1716,1022.5C 1712,1015.49 1708.83,1008.16 1706.5,1000.5C 1706.37,999.761 1706.54,999.094 1707,998.5C 1713.17,1014.35 1721.5,1029.02 1732,1042.5C 1734.58,1046.83 1736.25,1051.5 1737,1056.5C 1738.51,1057.26 1739.85,1058.26 1741,1059.5C 1744.13,1066.23 1746.47,1073.23 1748,1080.5C 1750.33,1084.5 1752.67,1088.5 1755,1092.5C 1763.15,1100.83 1770.81,1109.5 1778,1118.5C 1781.97,1124.95 1785.81,1131.45 1789.5,1138C 1794.08,1139.38 1798.75,1140.38 1803.5,1141C 1808.17,1144.66 1811.67,1149.16 1814,1154.5C 1817.15,1157.32 1819.98,1160.48 1822.5,1164C 1826.72,1166.78 1831.39,1168.45 1836.5,1169C 1843.52,1173.49 1842.85,1175.99 1834.5,1176.5C 1819.98,1172.7 1805.31,1169.2 1790.5,1166C 1785.48,1165.78 1780.48,1165.78 1775.5,1166C 1769.86,1163.84 1764.52,1161.18 1759.5,1158C 1750.77,1156.61 1741.94,1156.78 1733,1158.5C 1721.2,1156.89 1709.36,1156.56 1697.5,1157.5C 1689.82,1157.79 1684.16,1154.62 1680.5,1148C 1668.21,1146.14 1655.88,1144.47 1643.5,1143C 1615.92,1141.97 1588.58,1138.8 1561.5,1133.5C 1544.82,1134.23 1527.99,1134.23 1511,1133.5C 1501.63,1133.67 1492.46,1135 1483.5,1137.5C 1478.69,1135.17 1474.02,1132.67 1469.5,1130C 1458.19,1130.93 1446.85,1131.6 1435.5,1132C 1430.12,1129.89 1424.95,1127.39 1420,1124.5C 1416.88,1125.54 1413.71,1125.7 1410.5,1125C 1407.55,1122.2 1404.22,1121.86 1400.5,1124C 1397.81,1128.03 1394.47,1131.36 1390.5,1134C 1377.09,1135.06 1363.93,1133.9 1351,1130.5C 1337.52,1132.56 1324.35,1131.39 1311.5,1127C 1292.87,1128.04 1274.2,1128.38 1255.5,1128C 1254.17,1127.33 1252.83,1126.67 1251.5,1126C 1243.05,1125.88 1234.72,1124.88 1226.5,1123C 1223.11,1120.89 1219.44,1119.22 1215.5,1118C 1209.49,1117.33 1203.49,1117 1197.5,1117C 1196.62,1118.59 1195.62,1120.09 1194.5,1121.5C 1190.03,1123.47 1185.36,1123.97 1180.5,1123C 1167.45,1120.32 1154.45,1120.15 1141.5,1122.5C 1121.5,1120.07 1101.5,1117.57 1081.5,1115C 1069.81,1116 1058.15,1115.67 1046.5,1114C 1045.17,1113.33 1043.83,1112.67 1042.5,1112C 1026.84,1112.39 1011.17,1112.72 995.5,1113C 982.653,1110.1 969.653,1108.1 956.5,1107C 921.804,1106.42 887.138,1107.26 852.5,1109.5C 840.524,1108.38 828.524,1107.38 816.5,1106.5C 798.024,1107.51 779.69,1108.17 761.5,1108.5C 743.523,1107.08 725.523,1106.08 707.5,1105.5C 696.546,1109.46 685.88,1108.8 675.5,1103.5C 657.783,1106.03 639.95,1107.7 622,1108.5C 593.844,1105.46 565.678,1105.13 537.5,1107.5C 530.549,1106.6 523.715,1105.26 517,1103.5C 506.317,1106.04 495.483,1107.71 484.5,1108.5C 473.822,1107.82 463.156,1106.98 452.5,1106C 405.496,1105.25 358.496,1105.42 311.5,1106.5C 302.931,1106.63 294.431,1105.97 286,1104.5C 277.184,1106.61 268.35,1108.61 259.5,1110.5C 255.167,1109.83 250.833,1109.17 246.5,1108.5C 239.824,1109.6 233.157,1110.77 226.5,1112C 217.161,1112.17 207.827,1112.17 198.5,1112C 189.58,1113.61 180.747,1115.44 172,1117.5C 167.654,1115.81 163.154,1115.31 158.5,1116C 140.695,1119.83 123.028,1124.16 105.5,1129C 103.266,1130.75 100.932,1132.25 98.5,1133.5 Z"/></g>
<g><path style="opacity:1" fill="#817a75" d="M 938.5,1101.5 C 938.918,1102.22 939.584,1102.72 940.5,1103C 949.51,1103.53 958.51,1104.2 967.5,1105C 958.174,1105.12 948.841,1104.96 939.5,1104.5C 916.172,1105.62 892.839,1106.12 869.5,1106C 874.684,1105.83 879.684,1105.33 884.5,1104.5C 902.315,1102.94 920.315,1101.94 938.5,1101.5 Z"/></g>
<g><path style="opacity:1" fill="#837d78" d="M 657.5,1100.5 C 657.611,1101.12 657.944,1101.62 658.5,1102C 655.833,1102.67 655.833,1103.33 658.5,1104C 645.361,1105.29 632.195,1106.13 619,1106.5C 601.838,1105.48 584.671,1104.48 567.5,1103.5C 555.183,1104.7 542.849,1105.2 530.5,1105C 532.744,1104.95 534.411,1104.12 535.5,1102.5C 536.93,1102.42 538.264,1102.75 539.5,1103.5C 549.412,1101.98 559.412,1101.31 569.5,1101.5C 586.009,1101.96 602.509,1102.62 619,1103.5C 631.939,1103.56 644.773,1102.56 657.5,1100.5 Z"/></g>
<g><path style="opacity:1" fill="#827b76" d="M 864.5,1105.5 C 865.922,1105.71 867.255,1106.21 868.5,1107C 851.405,1108.03 834.405,1107.2 817.5,1104.5C 802.818,1106.17 788.152,1106.5 773.5,1105.5C 767.169,1107.26 760.836,1107.43 754.5,1106C 737.457,1105.89 720.457,1105.05 703.5,1103.5C 701.962,1103.67 700.462,1104.01 699,1104.5C 697.97,1104.16 697.47,1103.5 697.5,1102.5C 699.586,1101.39 701.92,1100.72 704.5,1100.5C 723.358,1101.68 742.191,1103.01 761,1104.5C 763.667,1103.83 766.333,1103.17 769,1102.5C 784.818,1103.59 800.651,1103.59 816.5,1102.5C 832.393,1104.8 848.393,1105.8 864.5,1105.5 Z"/></g>
<g><path style="opacity:1" fill="#827c77" d="M 290.5,1101.5 C 294.264,1102.83 298.264,1103.67 302.5,1104C 294.512,1103.73 286.512,1103.73 278.5,1104C 267.957,1108.88 257.123,1109.72 246,1106.5C 232.545,1110.31 218.878,1111.31 205,1109.5C 194.09,1111.18 183.256,1113.18 172.5,1115.5C 165.988,1113.88 159.321,1113.38 152.5,1114C 154.058,1113.79 155.391,1113.29 156.5,1112.5C 161.84,1111.32 167.34,1111.32 173,1112.5C 183.978,1110.37 194.978,1108.37 206,1106.5C 209.974,1107.33 213.974,1107.99 218,1108.5C 227.718,1107.15 237.385,1105.49 247,1103.5C 251.228,1104.8 255.562,1105.46 260,1105.5C 266.953,1104.63 273.786,1103.13 280.5,1101C 284.027,1100.19 287.36,1100.36 290.5,1101.5 Z"/></g>
<g><path style="opacity:1" fill="#7c7570" d="M 996.5,1109.5 C 1001.17,1109.5 1005.83,1109.5 1010.5,1109.5C 1017.18,1109.22 1023.85,1109.05 1030.5,1109C 1010.22,1113.03 990.221,1112.03 970.5,1106C 976.031,1105.71 981.364,1106.71 986.5,1109C 989.817,1109.5 993.15,1109.67 996.5,1109.5 Z"/></g>
<g><path style="opacity:1" fill="#827b77" d="M 1113.5,1114.5 C 1113.06,1114.43 1112.73,1114.6 1112.5,1115C 1113.62,1115.25 1114.62,1115.75 1115.5,1116.5C 1115,1116.83 1114.5,1117.17 1114,1117.5C 1096.95,1115.67 1080.12,1113.34 1063.5,1110.5C 1072.07,1108.72 1080.4,1109.22 1088.5,1112C 1097,1112.73 1105.33,1113.56 1113.5,1114.5 Z"/></g>
<g><path style="opacity:1" fill="#847d78" d="M 1660.5,1140.5 C 1661.51,1141.76 1663.01,1142.43 1665,1142.5C 1676.47,1143.72 1687.97,1144.55 1699.5,1145C 1680.05,1145.53 1660.71,1144.19 1641.5,1141C 1612.23,1139.66 1583.23,1136.16 1554.5,1130.5C 1553.83,1131.17 1553.17,1131.83 1552.5,1132.5C 1550.14,1131.32 1547.64,1130.66 1545,1130.5C 1531.55,1132.99 1518.05,1133.16 1504.5,1131C 1505.38,1130.29 1506.05,1129.46 1506.5,1128.5C 1514.09,1129.48 1521.59,1130.14 1529,1130.5C 1534.42,1129.91 1539.75,1128.91 1545,1127.5C 1549.45,1129.57 1553.78,1129.57 1558,1127.5C 1583.36,1133.46 1609.02,1136.79 1635,1137.5C 1643.52,1138.34 1652.02,1139.34 1660.5,1140.5 Z"/></g>
<g><path style="opacity:1" fill="#837c78" d="M 1805.5,1151.5 C 1804.94,1149.44 1803.78,1147.77 1802,1146.5C 1796.99,1145.5 1792.16,1144 1787.5,1142C 1785.64,1140.44 1784.14,1138.61 1783,1136.5C 1781.5,1131.47 1779.33,1126.81 1776.5,1122.5C 1775.91,1121.23 1775.91,1120.23 1776.5,1119.5C 1778.19,1121.36 1779.69,1123.36 1781,1125.5C 1782.79,1130.22 1784.96,1134.72 1787.5,1139C 1791.54,1139.87 1795.54,1140.87 1799.5,1142C 1803.67,1142.84 1806.67,1145.17 1808.5,1149C 1807.31,1149.7 1806.31,1150.53 1805.5,1151.5 Z"/></g>
<g><path style="opacity:1" fill="#9f9a97" d="M 1716.5,1146.5 C 1723.82,1147.14 1731.15,1147.64 1738.5,1148C 1742.25,1148.3 1745.58,1149.47 1748.5,1151.5C 1742.51,1151.03 1736.51,1150.7 1730.5,1150.5C 1725.13,1150.61 1719.8,1150.27 1714.5,1149.5C 1712.19,1148.44 1709.86,1147.28 1707.5,1146C 1710.41,1146.29 1713.41,1146.46 1716.5,1146.5 Z"/></g>
<g><path style="opacity:1" fill="#c5c3c1" d="M 1862.5,1146.5 C 1864.76,1147.56 1865.92,1149.23 1866,1151.5C 1864.2,1150.21 1863.03,1148.54 1862.5,1146.5 Z"/></g>
<g><path style="opacity:1" fill="#c6c2c0" d="M 1689.5,1148.5 C 1689.51,1150.02 1690.18,1151.18 1691.5,1152C 1691.27,1152.4 1690.94,1152.57 1690.5,1152.5C 1687.03,1153.11 1685.03,1151.78 1684.5,1148.5C 1686.17,1148.5 1687.83,1148.5 1689.5,1148.5 Z"/></g>
<g><path style="opacity:1" fill="#cfcdcb" d="M 1703.5,1149.5 C 1707.17,1149.5 1710.83,1149.5 1714.5,1149.5C 1719.8,1150.27 1725.13,1150.61 1730.5,1150.5C 1730.5,1151.5 1730.5,1152.5 1730.5,1153.5C 1733.19,1153.34 1735.85,1153.5 1738.5,1154C 1737.55,1154.48 1736.55,1154.65 1735.5,1154.5C 1724.99,1155.13 1714.65,1154.13 1704.5,1151.5C 1703.15,1151.85 1701.82,1152.18 1700.5,1152.5C 1699.91,1151.85 1699.24,1151.18 1698.5,1150.5C 1700.05,1149.55 1701.71,1149.21 1703.5,1149.5 Z"/></g>
<g><path style="opacity:1" fill="#a8a3a0" d="M 1689.5,1148.5 C 1694.36,1148.18 1699.03,1148.51 1703.5,1149.5C 1701.71,1149.21 1700.05,1149.55 1698.5,1150.5C 1699.24,1151.18 1699.91,1151.85 1700.5,1152.5C 1697.26,1153.1 1693.93,1153.1 1690.5,1152.5C 1690.94,1152.57 1691.27,1152.4 1691.5,1152C 1690.18,1151.18 1689.51,1150.02 1689.5,1148.5 Z"/></g>
<g><path style="opacity:1" fill="#bfbdba" d="M 1730.5,1150.5 C 1736.51,1150.7 1742.51,1151.03 1748.5,1151.5C 1749.83,1151.5 1751.17,1151.5 1752.5,1151.5C 1749.31,1152.17 1745.98,1152.83 1742.5,1153.5C 1746.46,1154.33 1750.46,1154.83 1754.5,1155C 1747.99,1155.82 1741.65,1155.65 1735.5,1154.5C 1736.55,1154.65 1737.55,1154.48 1738.5,1154C 1735.85,1153.5 1733.19,1153.34 1730.5,1153.5C 1730.5,1152.5 1730.5,1151.5 1730.5,1150.5 Z"/></g>
<g><path style="opacity:1" fill="#8e8782" d="M 101.5,1127.5 C 100.432,1129.74 98.7658,1131.57 96.5,1133C 97.0944,1133.46 97.7611,1133.63 98.5,1133.5C 89.995,1140.84 82.3284,1149.01 75.5,1158C 79.4015,1162.62 84.0682,1166.29 89.5,1169C 103.818,1170.33 118.151,1171 132.5,1171C 162.594,1162.53 193.26,1157.37 224.5,1155.5C 257.418,1158.88 290.418,1160.88 323.5,1161.5C 381.498,1160.78 439.498,1160.28 497.5,1160C 503.923,1159.13 510.256,1157.97 516.5,1156.5C 523.472,1157.53 530.472,1158.36 537.5,1159C 572.701,1159 607.868,1159.84 643,1161.5C 645.778,1159.95 648.778,1158.95 652,1158.5C 656.18,1159.25 660.347,1160.09 664.5,1161C 746.799,1161.62 829.133,1162.62 911.5,1164C 948.894,1165.42 986.227,1167.75 1023.5,1171C 1064.84,1170.07 1106.17,1170.4 1147.5,1172C 1169.28,1172.24 1190.95,1173.91 1212.5,1177C 1280.15,1179.57 1347.82,1181.57 1415.5,1183C 1478.74,1184.56 1541.74,1189.22 1604.5,1197C 1644.86,1198.61 1685.19,1200.61 1725.5,1203C 1742.39,1204.56 1759.06,1206.73 1775.5,1209.5C 1748.43,1206.18 1721.26,1203.84 1694,1202.5C 1692.17,1202.67 1690.33,1202.83 1688.5,1203C 1689.83,1203.33 1691.17,1203.67 1692.5,1204C 1690.94,1204.21 1689.61,1204.71 1688.5,1205.5C 1682.89,1204.59 1677.23,1204.26 1671.5,1204.5C 1668.36,1203.68 1665.03,1203.18 1661.5,1203C 1663.5,1202.67 1665.5,1202.33 1667.5,1202C 1641.12,1201.08 1614.79,1199.42 1588.5,1197C 1564.28,1193.63 1540.28,1191.3 1516.5,1190C 1462.24,1185.93 1407.9,1183.93 1353.5,1184C 1355.38,1184.2 1357.05,1184.7 1358.5,1185.5C 1349.17,1185.5 1339.83,1185.5 1330.5,1185.5C 1328.03,1184.68 1325.36,1184.18 1322.5,1184C 1329.83,1183.67 1337.17,1183.33 1344.5,1183C 1301.82,1181.94 1259.16,1180.61 1216.5,1179C 1186.6,1174.55 1156.6,1172.89 1126.5,1174C 1128.38,1174.2 1130.05,1174.7 1131.5,1175.5C 1127.5,1175.5 1123.5,1175.5 1119.5,1175.5C 1120.61,1174.71 1121.94,1174.21 1123.5,1174C 1123.17,1173.67 1122.83,1173.33 1122.5,1173C 1093.99,1171.01 1065.49,1171.17 1037,1173.5C 1029.17,1172.79 1021.34,1172.13 1013.5,1171.5C 1010.41,1171.52 1007.74,1172.19 1005.5,1173.5C 984.201,1171.34 962.868,1169.67 941.5,1168.5C 941.611,1167.88 941.944,1167.38 942.5,1167C 901.202,1164.54 859.869,1163.54 818.5,1164C 819.056,1164.38 819.389,1164.88 819.5,1165.5C 767.499,1165.67 715.499,1165.5 663.5,1165C 658.521,1163.32 653.521,1162.82 648.5,1163.5C 648.631,1162.76 648.464,1162.09 648,1161.5C 645.757,1162.14 643.424,1162.47 641,1162.5C 632.592,1162.05 624.259,1161.39 616,1160.5C 597.949,1161.32 579.782,1161.49 561.5,1161C 546.389,1160.84 531.389,1159.84 516.5,1158C 519.063,1158.76 519.063,1159.26 516.5,1159.5C 515.833,1159.33 515.167,1159.17 514.5,1159C 515.696,1158.35 515.696,1157.85 514.5,1157.5C 510.931,1158.97 507.264,1160.13 503.5,1161C 433.501,1161.87 363.501,1162.21 293.5,1162C 281.811,1161.45 270.311,1160.62 259,1159.5C 258.167,1159.67 257.333,1159.83 256.5,1160C 257.833,1160.33 259.167,1160.67 260.5,1161C 259.584,1161.28 258.918,1161.78 258.5,1162.5C 254.063,1161.89 249.73,1161.22 245.5,1160.5C 246.609,1159.71 247.942,1159.21 249.5,1159C 208.957,1156.19 169.29,1160.86 130.5,1173C 122.314,1173.14 114.147,1172.64 106,1171.5C 104.439,1171.6 102.939,1171.94 101.5,1172.5C 100.304,1172.15 100.304,1171.65 101.5,1171C 98.8333,1170.33 96.1667,1170.33 93.5,1171C 95.5,1171.33 97.5,1171.67 99.5,1172C 98.944,1172.38 98.6107,1172.88 98.5,1173.5C 93.8791,1174.01 89.5458,1173.17 85.5,1171C 81.3001,1167.4 76.6334,1164.57 71.5,1162.5C 70.6433,1161.26 69.9766,1159.93 69.5,1158.5C 78.2512,1146.08 88.9179,1135.75 101.5,1127.5 Z"/></g>
<g><path style="opacity:1" fill="#847d79" d="M 245.5,1160.5 C 204.959,1159.19 165.293,1164.53 126.5,1176.5C 117.2,1175.14 107.866,1174.14 98.5,1173.5C 98.6107,1172.88 98.944,1172.38 99.5,1172C 97.5,1171.67 95.5,1171.33 93.5,1171C 96.1667,1170.33 98.8333,1170.33 101.5,1171C 100.304,1171.65 100.304,1172.15 101.5,1172.5C 102.939,1171.94 104.439,1171.6 106,1171.5C 114.147,1172.64 122.314,1173.14 130.5,1173C 169.29,1160.86 208.957,1156.19 249.5,1159C 247.942,1159.21 246.609,1159.71 245.5,1160.5 Z"/></g>
<g><path style="opacity:1" fill="#87807c" d="M 648.5,1163.5 C 647.508,1165.03 646.008,1165.69 644,1165.5C 638.515,1164.85 633.015,1164.35 627.5,1164C 599.5,1163.67 571.5,1163.33 543.5,1163C 534.791,1162.59 526.124,1161.76 517.5,1160.5C 509.331,1162.71 500.998,1163.87 492.5,1164C 436.498,1164.28 380.498,1164.78 324.5,1165.5C 302.464,1165.2 280.464,1164.2 258.5,1162.5C 258.918,1161.78 259.584,1161.28 260.5,1161C 259.167,1160.67 257.833,1160.33 256.5,1160C 257.333,1159.83 258.167,1159.67 259,1159.5C 270.311,1160.62 281.811,1161.45 293.5,1162C 363.501,1162.21 433.501,1161.87 503.5,1161C 507.264,1160.13 510.931,1158.97 514.5,1157.5C 515.696,1157.85 515.696,1158.35 514.5,1159C 515.167,1159.17 515.833,1159.33 516.5,1159.5C 519.063,1159.26 519.063,1158.76 516.5,1158C 531.389,1159.84 546.389,1160.84 561.5,1161C 579.782,1161.49 597.949,1161.32 616,1160.5C 624.259,1161.39 632.592,1162.05 641,1162.5C 643.424,1162.47 645.757,1162.14 648,1161.5C 648.464,1162.09 648.631,1162.76 648.5,1163.5 Z"/></g>
<g><path style="opacity:1" fill="#857e79" d="M 941.5,1168.5 C 900.851,1166.86 860.185,1165.86 819.5,1165.5C 819.389,1164.88 819.056,1164.38 818.5,1164C 859.869,1163.54 901.202,1164.54 942.5,1167C 941.944,1167.38 941.611,1167.88 941.5,1168.5 Z"/></g>
<g><path style="opacity:1" fill="#c3bebd" d="M 1828.5,1171.5 C 1830.73,1170.44 1833.06,1170.61 1835.5,1172C 1833.15,1172.33 1830.82,1172.17 1828.5,1171.5 Z"/></g>
<g><path style="opacity:1" fill="#817b76" d="M 1119.5,1175.5 C 1091.85,1174.23 1064.18,1174.23 1036.5,1175.5C 1026.13,1175.14 1015.8,1174.48 1005.5,1173.5C 1007.74,1172.19 1010.41,1171.52 1013.5,1171.5C 1021.34,1172.13 1029.17,1172.79 1037,1173.5C 1065.49,1171.17 1093.99,1171.01 1122.5,1173C 1122.83,1173.33 1123.17,1173.67 1123.5,1174C 1121.94,1174.21 1120.61,1174.71 1119.5,1175.5 Z"/></g>
<g><path style="opacity:1" fill="#807974" d="M 1330.5,1185.5 C 1296.17,1184.32 1261.84,1183.16 1227.5,1182C 1209.83,1180.42 1192.16,1178.75 1174.5,1177C 1160.05,1176.6 1145.72,1176.1 1131.5,1175.5C 1130.05,1174.7 1128.38,1174.2 1126.5,1174C 1156.6,1172.89 1186.6,1174.55 1216.5,1179C 1259.16,1180.61 1301.82,1181.94 1344.5,1183C 1337.17,1183.33 1329.83,1183.67 1322.5,1184C 1325.36,1184.18 1328.03,1184.68 1330.5,1185.5 Z"/></g>
<g><path style="opacity:1" fill="#847d79" d="M 1671.5,1204.5 C 1648.16,1203.54 1624.83,1202.37 1601.5,1201C 1565.94,1196.52 1530.27,1193.19 1494.5,1191C 1449.17,1188.78 1403.84,1186.94 1358.5,1185.5C 1357.05,1184.7 1355.38,1184.2 1353.5,1184C 1407.9,1183.93 1462.24,1185.93 1516.5,1190C 1540.28,1191.3 1564.28,1193.63 1588.5,1197C 1614.79,1199.42 1641.12,1201.08 1667.5,1202C 1665.5,1202.33 1663.5,1202.67 1661.5,1203C 1665.03,1203.18 1668.36,1203.68 1671.5,1204.5 Z"/></g>
<g><path style="opacity:1" fill="#ada8a5" d="M 1967.5,1210.5 C 1966.85,1212.44 1966.52,1214.44 1966.5,1216.5C 1965.13,1216.14 1964.13,1215.31 1963.5,1214C 1964.57,1212.58 1964.57,1211.25 1963.5,1210C 1964.82,1209.81 1966.15,1209.97 1967.5,1210.5 Z"/></g>
<g><path style="opacity:1" fill="#827c77" d="M 1838.5,1237.5 C 1841.29,1233.65 1843.63,1229.48 1845.5,1225C 1851.38,1225.52 1856.71,1223.86 1861.5,1220C 1840.03,1217.81 1818.7,1215.64 1797.5,1213.5C 1799.3,1212.84 1801.3,1212.5 1803.5,1212.5C 1824.48,1214.12 1845.48,1215.29 1866.5,1216C 1870.22,1216.39 1873.89,1217.06 1877.5,1218C 1874.72,1218.07 1872.56,1219.23 1871,1221.5C 1866.74,1221.37 1862.91,1222.87 1859.5,1226C 1855.58,1227.1 1851.58,1227.77 1847.5,1228C 1845.78,1232.21 1843.45,1236.05 1840.5,1239.5C 1839.82,1238.76 1839.15,1238.09 1838.5,1237.5 Z"/></g>
<g><path style="opacity:1" fill="#89837e" d="M 1957.5,1224.5 C 1954.82,1223.99 1952.16,1223.83 1949.5,1224C 1945.71,1229.8 1940.71,1234.13 1934.5,1237C 1935.8,1239.54 1935.63,1242.04 1934,1244.5C 1926.85,1252.82 1918.35,1259.32 1908.5,1264C 1904.83,1267.67 1901.17,1271.33 1897.5,1275C 1886.43,1278.37 1876.76,1284.03 1868.5,1292C 1861.86,1299.64 1854.86,1306.97 1847.5,1314C 1835.79,1318.38 1827.29,1326.21 1822,1337.5C 1809.9,1343.07 1799.56,1351.07 1791,1361.5C 1786.31,1369.01 1780.81,1375.67 1774.5,1381.5C 1773.47,1381.1 1773.31,1380.44 1774,1379.5C 1774.67,1378.17 1775.33,1378.17 1776,1379.5C 1776.68,1378.22 1776.52,1377.05 1775.5,1376C 1782.03,1368.44 1788.19,1360.61 1794,1352.5C 1800.55,1345.14 1808.39,1339.64 1817.5,1336C 1823.61,1325.23 1832.27,1317.23 1843.5,1312C 1854.93,1299.56 1867.27,1288.23 1880.5,1278C 1885,1275.61 1889.67,1273.61 1894.5,1272C 1898.53,1267.63 1902.87,1263.63 1907.5,1260C 1915.78,1256.72 1922.61,1251.55 1928,1244.5C 1928.33,1241.5 1928.67,1238.5 1929,1235.5C 1932.83,1233 1936.67,1230.5 1940.5,1228C 1942.46,1225.04 1944.79,1222.37 1947.5,1220C 1950.51,1219.67 1953.34,1218.83 1956,1217.5C 1956.21,1219.78 1957.05,1221.78 1958.5,1223.5C 1958.38,1224.11 1958.04,1224.44 1957.5,1224.5 Z"/></g>
<g><path style="opacity:1" fill="#89837e" d="M 1775.5,1209.5 C 1811.2,1211.71 1846.86,1213.88 1882.5,1216C 1883.58,1217.73 1883.74,1219.56 1883,1221.5C 1880.92,1224.75 1878.09,1227.08 1874.5,1228.5C 1871.99,1226.49 1869.15,1225.16 1866,1224.5C 1861.2,1227.34 1856.03,1229.5 1850.5,1231C 1848.96,1232.88 1847.12,1234.38 1845,1235.5C 1843.85,1238.39 1843.35,1241.39 1843.5,1244.5C 1834.98,1244.6 1830.65,1248.93 1830.5,1257.5C 1823.1,1260.19 1816.76,1264.36 1811.5,1270C 1805.83,1272.18 1800.83,1275.35 1796.5,1279.5C 1795.76,1281.75 1794.42,1283.58 1792.5,1285C 1789.25,1285.25 1786.25,1286.25 1783.5,1288C 1779.71,1290.55 1776.37,1293.55 1773.5,1297C 1770.96,1298.09 1768.29,1298.76 1765.5,1299C 1760.29,1304.59 1755.96,1310.76 1752.5,1317.5C 1747.54,1322.63 1742.71,1327.97 1738,1333.5C 1738.2,1335.13 1738.2,1336.79 1738,1338.5C 1733.94,1340.23 1731.27,1343.23 1730,1347.5C 1726.48,1350.27 1723.14,1353.27 1720,1356.5C 1718,1360.5 1716,1364.5 1714,1368.5C 1711.59,1370.29 1709.09,1371.96 1706.5,1373.5C 1703.19,1377.98 1699.69,1382.31 1696,1386.5C 1693,1393.83 1690,1401.17 1687,1408.5C 1683.63,1412.7 1680.13,1416.7 1676.5,1420.5C 1677.74,1424.64 1679.24,1428.64 1681,1432.5C 1690.16,1441.92 1701.16,1446.92 1714,1447.5C 1715.85,1442.31 1718.35,1437.47 1721.5,1433C 1726.11,1430.69 1730.61,1428.19 1735,1425.5C 1736.04,1426.24 1736.54,1427.24 1736.5,1428.5C 1731.82,1431.93 1726.99,1435.27 1722,1438.5C 1719.92,1442.91 1717.76,1447.25 1715.5,1451.5C 1709.29,1452.62 1703.29,1451.79 1697.5,1449C 1691.67,1445.92 1686,1442.59 1680.5,1439C 1677.67,1434.52 1674.84,1430.02 1672,1425.5C 1671.33,1423.17 1671.33,1420.83 1672,1418.5C 1675.62,1413.84 1679.29,1409.17 1683,1404.5C 1684.29,1400.24 1685.29,1395.91 1686,1391.5C 1691.32,1385.84 1696.32,1379.84 1701,1373.5C 1703.87,1370.3 1707.04,1367.46 1710.5,1365C 1707.49,1360.73 1708.49,1357.73 1713.5,1356C 1716.78,1351.94 1720.61,1348.44 1725,1345.5C 1725.89,1341.79 1726.89,1338.12 1728,1334.5C 1732.62,1331.55 1736.95,1328.22 1741,1324.5C 1743.95,1319.55 1747.61,1315.22 1752,1311.5C 1754.28,1305.78 1757.44,1300.61 1761.5,1296C 1764.04,1294.91 1766.71,1294.24 1769.5,1294C 1770.65,1291.54 1771.98,1289.2 1773.5,1287C 1778.85,1283.75 1784.52,1281.25 1790.5,1279.5C 1790.34,1277.8 1790.51,1276.13 1791,1274.5C 1795.08,1272.99 1795.58,1270.65 1792.5,1267.5C 1793.99,1265.16 1796.16,1263.83 1799,1263.5C 1800.9,1265.18 1803.06,1265.68 1805.5,1265C 1809.13,1264.02 1811.79,1261.85 1813.5,1258.5C 1817.51,1256.81 1821.51,1255.14 1825.5,1253.5C 1824.7,1250.51 1823.2,1247.84 1821,1245.5C 1819.09,1239.91 1820.92,1237.74 1826.5,1239C 1828,1240.5 1829.5,1242 1831,1243.5C 1832.11,1242 1832.95,1240.33 1833.5,1238.5C 1835.05,1237.55 1836.71,1237.21 1838.5,1237.5C 1839.15,1238.09 1839.82,1238.76 1840.5,1239.5C 1843.45,1236.05 1845.78,1232.21 1847.5,1228C 1851.58,1227.77 1855.58,1227.1 1859.5,1226C 1862.91,1222.87 1866.74,1221.37 1871,1221.5C 1872.56,1219.23 1874.72,1218.07 1877.5,1218C 1873.89,1217.06 1870.22,1216.39 1866.5,1216C 1845.48,1215.29 1824.48,1214.12 1803.5,1212.5C 1801.3,1212.5 1799.3,1212.84 1797.5,1213.5C 1775.13,1211.85 1752.8,1209.69 1730.5,1207C 1716.51,1206.05 1702.51,1205.55 1688.5,1205.5C 1689.61,1204.71 1690.94,1204.21 1692.5,1204C 1691.17,1203.67 1689.83,1203.33 1688.5,1203C 1690.33,1202.83 1692.17,1202.67 1694,1202.5C 1721.26,1203.84 1748.43,1206.18 1775.5,1209.5 Z"/></g>
</svg>
