<?xml version="1.0" encoding="UTF-8"?>
<!DOCTYPE svg PUBLIC "-//W3C//DTD SVG 1.1//EN" "http://www.w3.org/Graphics/SVG/1.1/DTD/svg11.dtd">
<svg xmlns="http://www.w3.org/2000/svg" version="1.1" width="2000px" height="2000px" style="shape-rendering:geometricPrecision; text-rendering:geometricPrecision; image-rendering:optimizeQuality; fill-rule:evenodd; clip-rule:evenodd" xmlns:xlink="http://www.w3.org/1999/xlink">
<g><path style="opacity:1" fill="#ed7575" d="M 1271.5,382.5 C 1303.93,390.864 1335.26,402.198 1365.5,416.5C 1369.5,418.164 1373.5,419.831 1377.5,421.5C 1382.83,424.833 1388.17,428.167 1393.5,431.5C 1369.53,419.356 1344.87,408.523 1319.5,399C 1264.04,379.773 1207.37,365.107 1149.5,355C 1032.92,336.48 917.919,341.98 804.5,371.5C 803.713,372.242 803.047,373.075 802.5,374C 798.167,374.333 793.833,374.667 789.5,375C 789.018,376.46 787.851,377.96 786,379.5C 783.599,378.398 781.099,378.231 778.5,379C 776.714,379.196 775.381,380.029 774.5,381.5C 771.215,382.324 767.882,382.824 764.5,383C 763.833,384 763.167,385 762.5,386C 759.5,386.333 756.5,386.667 753.5,387C 752.167,387.667 751.167,388.667 750.5,390C 747.833,390.333 745.167,390.667 742.5,391C 741.027,391.71 740.36,392.876 740.5,394.5C 737.813,394.336 735.146,394.503 732.5,395C 728.334,396.705 724.334,398.705 720.5,401C 718.5,401.333 716.5,401.667 714.5,402C 710.007,404.079 705.674,406.412 701.5,409C 597.731,451.714 510.897,520.214 441,614.5C 419.043,645.767 399.71,678.434 383,712.5C 381.446,717.706 379.446,722.706 377,727.5C 376.292,728.381 375.458,729.047 374.5,729.5C 417.699,628.93 483.032,545.764 570.5,480C 569.906,479.536 569.239,479.369 568.5,479.5C 569.436,478.026 570.77,477.026 572.5,476.5C 572.696,478.646 573.696,478.812 575.5,477C 661.903,415.658 757.569,375.325 862.5,356C 1001.08,331.361 1137.41,340.194 1271.5,382.5 Z M 1093.5,359.5 C 1092.39,360.29 1091.06,360.79 1089.5,361C 1061.47,363.327 1033.47,364.494 1005.5,364.5C 997.978,364.598 990.644,365.765 983.5,368C 974.833,368.333 966.167,368.667 957.5,369C 953.916,370.292 950.249,371.292 946.5,372C 932.888,373.966 919.221,375.633 905.5,377C 901.5,378 897.5,379 893.5,380C 885.368,379.782 877.368,379.116 869.5,378C 868.167,378.667 868.167,379.333 869.5,380C 872.362,380.27 875.028,381.104 877.5,382.5C 873.893,383.489 870.226,383.823 866.5,383.5C 866.119,382.069 865.119,381.236 863.5,381C 857.086,380.517 850.752,379.517 844.5,378C 843.058,377.623 842.058,376.79 841.5,375.5C 846.801,374.823 852.134,374.323 857.5,374C 858.714,372.431 860.381,371.598 862.5,371.5C 910.822,362.374 959.488,357.707 1008.5,357.5C 1014.13,356.906 1019.8,356.572 1025.5,356.5C 1048.18,357.278 1070.85,358.278 1093.5,359.5 Z M 840.5,383.5 C 842.364,382.207 844.364,382.207 846.5,383.5C 844.599,384.231 842.599,384.231 840.5,383.5 Z M 849.5,386.5 C 850.919,385.549 852.585,385.216 854.5,385.5C 853.393,387.847 851.726,388.18 849.5,386.5 Z M 819.5,394.5 C 818.5,395.833 817.5,395.833 816.5,394.5C 817.348,393.375 818.348,393.375 819.5,394.5 Z M 765.5,409.5 C 767.337,409.639 767.67,410.306 766.5,411.5C 765.702,411.043 765.369,410.376 765.5,409.5 Z M 730.5,410.5 C 730.938,410.435 731.272,410.601 731.5,411C 730.054,412.298 728.721,412.465 727.5,411.5C 728.209,410.596 729.209,410.263 730.5,410.5 Z M 721.5,413.5 C 722.86,415.802 722.193,417.468 719.5,418.5C 718.265,417.66 717.265,416.66 716.5,415.5C 717.93,414.463 719.597,413.796 721.5,413.5 Z"/></g>
<g><path style="opacity:1" fill="#ed767c" d="M 1393.5,431.5 C 1397.02,433.424 1400.68,435.091 1404.5,436.5C 1405.66,438.25 1407.33,439.25 1409.5,439.5C 1420.32,447.078 1431.32,454.412 1442.5,461.5C 1449.92,468.588 1457.92,474.921 1466.5,480.5C 1472.51,486.509 1478.84,492.175 1485.5,497.5C 1504.88,516.211 1523.21,535.878 1540.5,556.5C 1569.61,594.318 1594.27,634.985 1614.5,678.5C 1645.87,750.524 1663.04,825.857 1666,904.5C 1666.21,902.942 1666.71,901.609 1667.5,900.5C 1667.93,927.538 1667.27,954.538 1665.5,981.5C 1664.05,980.866 1663.39,979.699 1663.5,978C 1664.54,972.861 1664.7,967.695 1664,962.5C 1657.08,1046.24 1636.08,1126.24 1601,1202.5C 1554.89,1299.34 1493.05,1385.17 1415.5,1460C 1374.12,1498.39 1330.12,1533.39 1283.5,1565C 1238.43,1592.69 1191.09,1616.03 1141.5,1635C 1102.91,1647.82 1063.57,1657.15 1023.5,1663C 1024.06,1663.38 1024.39,1663.88 1024.5,1664.5C 1016.49,1664.73 1008.49,1665.06 1000.5,1665.5C 1001.95,1664.7 1003.62,1664.2 1005.5,1664C 1003.67,1663.83 1001.83,1663.67 1000,1663.5C 986.335,1664.81 972.668,1664.81 959,1663.5C 956.39,1663.53 954.223,1664.2 952.5,1665.5C 912.106,1662.22 872.772,1654.22 834.5,1641.5C 836.931,1640.26 836.931,1639.09 834.5,1638C 802.496,1628.34 772.163,1615 743.5,1598C 734.781,1594.81 726.447,1590.81 718.5,1586C 716.842,1582.83 714.175,1581.17 710.5,1581C 697.827,1570.6 684.494,1561.6 670.5,1554C 669.167,1552.33 667.833,1550.67 666.5,1549C 645.629,1533.8 625.629,1517.47 606.5,1500C 590.932,1484.6 575.598,1469.1 560.5,1453.5C 559.718,1455.33 560.384,1456.83 562.5,1458C 562.272,1458.4 561.938,1458.57 561.5,1458.5C 522.653,1417.99 488.32,1373.99 458.5,1326.5C 459.496,1326.41 460.329,1326.75 461,1327.5C 489.704,1371.87 522.037,1413.54 558,1452.5C 558.667,1451.83 558.667,1451.17 558,1450.5C 528.315,1416.76 500.815,1381.43 475.5,1344.5C 474.675,1343.61 473.675,1343.28 472.5,1343.5C 472.643,1341.74 472.309,1340.07 471.5,1338.5C 447.575,1304.62 425.742,1269.62 406,1233.5C 405.695,1231.44 405.695,1229.44 406,1227.5C 404.989,1228.34 403.822,1228.67 402.5,1228.5C 400.15,1223.46 397.65,1218.46 395,1213.5C 394.667,1211.83 394.333,1210.17 394,1208.5C 391.211,1206.63 389.878,1203.97 390,1200.5C 387.491,1197.35 385.157,1194.01 383,1190.5C 382.503,1188.19 382.337,1185.86 382.5,1183.5C 381.325,1183.72 380.325,1183.39 379.5,1182.5C 378.787,1180.22 378.287,1177.89 378,1175.5C 375.215,1174.71 374.049,1172.88 374.5,1170C 375.867,1166.92 376.367,1163.76 376,1160.5C 374.812,1161.56 374.312,1162.9 374.5,1164.5C 373.178,1164.67 372.011,1164.34 371,1163.5C 370.689,1161.44 370.189,1159.44 369.5,1157.5C 371.461,1155.75 372.794,1153.58 373.5,1151C 374.449,1150.38 375.282,1150.55 376,1151.5C 382.745,1167.98 389.745,1184.32 397,1200.5C 418.43,1238.62 440.763,1276.29 464,1313.5C 468.369,1320.26 473.202,1326.6 478.5,1332.5C 494.369,1354.55 510.869,1376.22 528,1397.5C 528.163,1395.61 527.329,1394.11 525.5,1393C 525.728,1392.6 526.062,1392.43 526.5,1392.5C 528.9,1394.3 530.567,1396.63 531.5,1399.5C 529.895,1398.03 529.395,1398.36 530,1400.5C 539.626,1412.46 549.626,1424.13 560,1435.5C 561.439,1437.27 562.439,1439.27 563,1441.5C 577.5,1454.67 591.333,1468.5 604.5,1483C 628.98,1505.38 654.313,1526.54 680.5,1546.5C 760.311,1606.87 850.311,1642.04 950.5,1652C 1016.48,1656.11 1080.48,1646.78 1142.5,1624C 1191.2,1606.32 1237.2,1583.32 1280.5,1555C 1288.47,1546.71 1297.8,1540.37 1308.5,1536C 1313.31,1532.95 1317.64,1529.45 1321.5,1525.5C 1334.8,1517.34 1346.8,1507.5 1357.5,1496C 1361.5,1493 1365.5,1490 1369.5,1487C 1370.83,1486 1370.83,1485 1369.5,1484C 1368.17,1484 1366.83,1484 1365.5,1484C 1366.96,1483.19 1367.29,1482.36 1366.5,1481.5C 1331.94,1502.78 1296.28,1521.94 1259.5,1539C 1186.59,1571.73 1109.92,1591.06 1029.5,1597C 972.718,1601.12 916.385,1598.12 860.5,1588C 848.81,1585.66 837.144,1583.32 825.5,1581C 821.943,1578.41 818.11,1577.91 814,1579.5C 812.005,1577.82 809.839,1576.32 807.5,1575C 800.415,1573.86 793.582,1572.03 787,1569.5C 785.216,1568.67 785.216,1567.67 787,1566.5C 865.973,1590.71 946.807,1599.88 1029.5,1594C 1044.49,1592.45 1059.49,1591.11 1074.5,1590C 1076.58,1587.42 1079.24,1585.75 1082.5,1585C 1083.83,1584.33 1083.83,1583.67 1082.5,1583C 1076.5,1582.5 1070.5,1582 1064.5,1581.5C 1042.84,1582.81 1021.17,1582.81 999.5,1581.5C 996.833,1581.67 994.167,1581.83 991.5,1582C 992.056,1582.38 992.389,1582.88 992.5,1583.5C 973.014,1582.72 953.681,1580.55 934.5,1577C 921.462,1575.23 908.795,1572.4 896.5,1568.5C 896.611,1567.88 896.944,1567.38 897.5,1567C 893.193,1563.35 888.193,1561.68 882.5,1562C 859.846,1555.06 837.18,1548.23 814.5,1541.5C 790.951,1532.27 767.617,1522.44 744.5,1512C 721.171,1498.67 697.838,1485.33 674.5,1472C 668.41,1468.3 662.743,1464.13 657.5,1459.5C 565.107,1394.3 492.94,1311.64 441,1211.5C 440.506,1209.87 440.34,1208.2 440.5,1206.5C 438.876,1206.64 437.71,1205.97 437,1204.5C 436.865,1201.04 437.199,1197.71 438,1194.5C 437.888,1197.45 436.388,1198.78 433.5,1198.5C 433.032,1194.87 433.699,1191.54 435.5,1188.5C 433.995,1185.87 433.329,1186.2 433.5,1189.5C 432.167,1189.5 430.833,1189.5 429.5,1189.5C 430.352,1185.85 430.852,1182.18 431,1178.5C 430.667,1178.17 430.333,1177.83 430,1177.5C 429,1178.83 428,1180.17 427,1181.5C 426.667,1181.17 426.333,1180.83 426,1180.5C 425.411,1177.28 425.911,1174.28 427.5,1171.5C 427.167,1170.5 426.833,1169.5 426.5,1168.5C 425.684,1170.29 424.684,1171.95 423.5,1173.5C 422.914,1173.29 422.414,1172.96 422,1172.5C 421.315,1168.94 421.815,1165.61 423.5,1162.5C 423.167,1161.5 422.833,1160.5 422.5,1159.5C 421.996,1162.34 420.329,1163.68 417.5,1163.5C 417.292,1159.44 417.958,1155.61 419.5,1152C 419.167,1150.83 418.833,1149.67 418.5,1148.5C 417.239,1150.45 416.073,1152.45 415,1154.5C 412.572,1150.98 413.072,1148.15 416.5,1146C 415.887,1143.85 415.221,1141.69 414.5,1139.5C 413.573,1141.11 412.739,1142.78 412,1144.5C 409.188,1142.11 408.854,1139.45 411,1136.5C 412.191,1131.79 411.358,1127.62 408.5,1124C 408.1,1121.1 407.434,1118.27 406.5,1115.5C 404.894,1117.51 403.727,1119.85 403,1122.5C 400.526,1119.23 401.026,1116.73 404.5,1115C 404.38,1112.21 404.047,1109.38 403.5,1106.5C 404.277,1104.46 405.443,1103.79 407,1104.5C 419.085,1146.46 436.585,1186.13 459.5,1223.5C 498.41,1292.14 547.41,1352.64 606.5,1405C 607.167,1405.67 607.833,1405.67 608.5,1405C 607.29,1403.96 606.29,1402.79 605.5,1401.5C 608.089,1402.42 610.089,1404.09 611.5,1406.5C 610.761,1406.37 610.094,1406.54 609.5,1407C 679.322,1467.76 758.655,1512.26 847.5,1540.5C 860.583,1545.86 874.25,1549.52 888.5,1551.5C 889.966,1552.14 891.3,1552.97 892.5,1554C 969.924,1572.41 1048.26,1578.08 1127.5,1571C 1128.84,1574.18 1131.18,1576.02 1134.5,1576.5C 1144.35,1575.05 1154.02,1572.88 1163.5,1570C 1175.47,1566.12 1187.47,1562.45 1199.5,1559C 1225.04,1548.96 1250.38,1538.63 1275.5,1528C 1276.38,1527.29 1277.05,1526.46 1277.5,1525.5C 1279.48,1525 1281.48,1524.5 1283.5,1524C 1312.9,1508.27 1341.57,1491.27 1369.5,1473C 1370.17,1472 1370.83,1471 1371.5,1470C 1395.04,1454.55 1416.71,1436.71 1436.5,1416.5C 1479.5,1374.76 1516.5,1328.42 1547.5,1277.5C 1551.22,1272.4 1554.72,1267.07 1558,1261.5C 1558.85,1255.47 1561.51,1250.47 1566,1246.5C 1642.37,1091.38 1659.37,930.05 1617,762.5C 1610.62,737.581 1602.12,713.581 1591.5,690.5C 1563.68,617.354 1521.68,553.521 1465.5,499C 1436.07,473.785 1404.4,451.785 1370.5,433C 1361.48,428.148 1352.15,423.982 1342.5,420.5C 1319.84,409.221 1296.17,400.388 1271.5,394C 1228.85,383.186 1185.51,377.186 1141.5,376C 1137.46,375.887 1133.79,374.721 1130.5,372.5C 1079.49,374.787 1028.49,377.621 977.5,381C 930.037,386.561 883.037,394.561 836.5,405C 813.094,412.436 789.427,419.103 765.5,425C 745.219,432.149 725.219,439.816 705.5,448C 689.765,455.957 673.765,463.624 657.5,471C 604.341,499.781 555.841,535.281 512,577.5C 496.955,594.508 481.955,611.508 467,628.5C 447.928,653.592 431.261,680.258 417,708.5C 413.418,717.989 409.585,727.323 405.5,736.5C 398.802,750.556 393.302,765.223 389,780.5C 385.178,795.765 381.678,811.098 378.5,826.5C 375.52,816.049 374.354,805.383 375,794.5C 375.667,793.833 376.333,793.167 377,792.5C 377.421,788.128 378.088,783.795 379,779.5C 381.286,776.635 382.12,773.302 381.5,769.5C 381.873,766.426 382.539,763.426 383.5,760.5C 401.492,708.829 427.492,661.829 461.5,619.5C 471.762,607.397 482.262,595.397 493,583.5C 557.647,517.675 632.48,468.509 717.5,436C 718.167,435.333 718.833,434.667 719.5,434C 726.67,431.089 734.004,428.422 741.5,426C 743.81,425.503 746.143,425.337 748.5,425.5C 748.36,423.876 749.027,422.71 750.5,422C 760.361,418.91 770.195,415.743 780,412.5C 782.031,413.435 783.864,412.935 785.5,411C 837.736,395.085 891.069,383.751 945.5,377C 946.858,376.066 948.192,375.232 949.5,374.5C 986.729,370.892 1024.06,368.392 1061.5,367C 1077.83,366.333 1094.17,366.333 1110.5,367C 1118.02,367.07 1125.35,368.237 1132.5,370.5C 1135.55,370.032 1138.38,369.032 1141,367.5C 1141.45,363.909 1139.95,361.409 1136.5,360C 1078.02,353.764 1019.35,351.764 960.5,354C 935.051,356.005 909.718,358.672 884.5,362C 864.723,366.755 844.723,370.755 824.5,374C 722.219,398.139 630.219,443.806 548.5,511C 516.638,538.864 487.471,569.364 461,602.5C 449,619.833 437,637.167 425,654.5C 418.946,664.613 413.446,674.946 408.5,685.5C 397.116,707.607 386.783,730.274 377.5,753.5C 378.233,754.087 379.233,754.087 380.5,753.5C 380.5,753.833 380.5,754.167 380.5,754.5C 378.757,757.495 377.757,760.829 377.5,764.5C 376.833,764.5 376.5,764.833 376.5,765.5C 375.662,765.842 375.328,766.508 375.5,767.5C 374.895,770.127 374.395,772.793 374,775.5C 372.676,776.88 371.343,777.214 370,776.5C 369.536,777.094 369.369,777.761 369.5,778.5C 367.861,782.388 366.527,786.388 365.5,790.5C 361.268,803.853 357.268,817.186 353.5,830.5C 353.611,828.352 352.944,828.019 351.5,829.5C 350.504,834.134 349.671,838.8 349,843.5C 348.586,843.957 348.086,844.291 347.5,844.5C 346.659,841.128 345.159,838.128 343,835.5C 342.376,830.777 342.71,826.11 344,821.5C 346.221,816.802 347.554,811.802 348,806.5C 348.667,805.833 349.333,805.167 350,804.5C 350.333,801.833 350.667,799.167 351,796.5C 358.682,774.101 366.515,751.768 374.5,729.5C 375.458,729.047 376.292,728.381 377,727.5C 379.446,722.706 381.446,717.706 383,712.5C 399.71,678.434 419.043,645.767 441,614.5C 510.897,520.214 597.731,451.714 701.5,409C 705.674,406.412 710.007,404.079 714.5,402C 716.5,401.667 718.5,401.333 720.5,401C 724.334,398.705 728.334,396.705 732.5,395C 735.146,394.503 737.813,394.336 740.5,394.5C 740.36,392.876 741.027,391.71 742.5,391C 745.167,390.667 747.833,390.333 750.5,390C 751.167,388.667 752.167,387.667 753.5,387C 756.5,386.667 759.5,386.333 762.5,386C 763.167,385 763.833,384 764.5,383C 767.882,382.824 771.215,382.324 774.5,381.5C 775.381,380.029 776.714,379.196 778.5,379C 781.099,378.231 783.599,378.398 786,379.5C 787.851,377.96 789.018,376.46 789.5,375C 793.833,374.667 798.167,374.333 802.5,374C 803.047,373.075 803.713,372.242 804.5,371.5C 917.919,341.98 1032.92,336.48 1149.5,355C 1207.37,365.107 1264.04,379.773 1319.5,399C 1344.87,408.523 1369.53,419.356 1393.5,431.5 Z M 1093.5,359.5 C 1092.39,360.29 1091.06,360.79 1089.5,361C 1061.47,363.327 1033.47,364.494 1005.5,364.5C 997.978,364.598 990.644,365.765 983.5,368C 974.833,368.333 966.167,368.667 957.5,369C 953.916,370.292 950.249,371.292 946.5,372C 932.888,373.966 919.221,375.633 905.5,377C 901.5,378 897.5,379 893.5,380C 885.368,379.782 877.368,379.116 869.5,378C 868.167,378.667 868.167,379.333 869.5,380C 872.362,380.27 875.028,381.104 877.5,382.5C 873.893,383.489 870.226,383.823 866.5,383.5C 866.119,382.069 865.119,381.236 863.5,381C 857.086,380.517 850.752,379.517 844.5,378C 843.058,377.623 842.058,376.79 841.5,375.5C 846.801,374.823 852.134,374.323 857.5,374C 858.714,372.431 860.381,371.598 862.5,371.5C 910.822,362.374 959.488,357.707 1008.5,357.5C 1014.13,356.906 1019.8,356.572 1025.5,356.5C 1048.18,357.278 1070.85,358.278 1093.5,359.5 Z M 840.5,383.5 C 842.599,384.231 844.599,384.231 846.5,383.5C 844.364,382.207 842.364,382.207 840.5,383.5 Z M 849.5,386.5 C 850.919,385.549 852.585,385.216 854.5,385.5C 853.393,387.847 851.726,388.18 849.5,386.5 Z M 819.5,394.5 C 818.5,395.833 817.5,395.833 816.5,394.5C 817.348,393.375 818.348,393.375 819.5,394.5 Z M 765.5,409.5 C 765.369,410.376 765.702,411.043 766.5,411.5C 767.67,410.306 767.337,409.639 765.5,409.5 Z M 730.5,410.5 C 730.938,410.435 731.272,410.601 731.5,411C 730.054,412.298 728.721,412.465 727.5,411.5C 728.209,410.596 729.209,410.263 730.5,410.5 Z M 721.5,413.5 C 722.86,415.802 722.193,417.468 719.5,418.5C 718.265,417.66 717.265,416.66 716.5,415.5C 717.93,414.463 719.597,413.796 721.5,413.5 Z M 713.5,417.5 C 714.289,417.783 714.956,418.283 715.5,419C 713.953,421.787 711.953,424.12 709.5,426C 710.984,426.662 712.317,427.496 713.5,428.5C 714.859,430.009 714.359,430.676 712,430.5C 708.798,426.966 705.298,426.799 701.5,430C 703.584,430.697 705.251,431.864 706.5,433.5C 705.726,434.147 704.726,434.48 703.5,434.5C 701.006,434.141 698.839,433.141 697,431.5C 692.43,433.353 692.597,435.186 697.5,437C 694.291,439.073 691.124,438.907 688,436.5C 687.5,436.833 687,437.167 686.5,437.5C 687.313,438.814 688.313,439.981 689.5,441C 685.655,443.331 682.655,442.497 680.5,438.5C 678.77,439.026 677.436,440.026 676.5,441.5C 678.167,442.5 679.5,443.833 680.5,445.5C 675.918,446.458 671.918,448.458 668.5,451.5C 666.362,450.571 665.196,448.904 665,446.5C 663.581,447.46 662.081,448.293 660.5,449C 661.579,449.956 662.745,450.789 664,451.5C 664.617,452.449 664.451,453.282 663.5,454C 658.416,457.037 653.082,459.703 647.5,462C 644.953,462.354 642.619,462.02 640.5,461C 640.167,461.333 639.833,461.667 639.5,462C 642.106,463.65 642.106,465.15 639.5,466.5C 632.62,469.433 626.287,473.099 620.5,477.5C 614.811,480.677 609.144,483.843 603.5,487C 587.091,499.083 570.424,510.749 553.5,522C 552.781,524.556 551.114,525.723 548.5,525.5C 548.5,526.5 548.5,527.5 548.5,528.5C 544.103,530.902 540.103,534.069 536.5,538C 525.329,545.51 515.329,554.343 506.5,564.5C 485.116,584.522 466.449,606.522 450.5,630.5C 449.209,630.737 448.209,630.404 447.5,629.5C 463.287,606.33 480.787,584.33 500,563.5C 512.505,551.995 524.671,540.162 536.5,528C 543.019,522.904 549.352,517.571 555.5,512C 556.448,511.517 557.448,511.351 558.5,511.5C 558.281,510.325 558.614,509.325 559.5,508.5C 600.45,475.557 644.45,448.057 691.5,426C 693.81,425.503 696.143,425.337 698.5,425.5C 698.281,424.325 698.614,423.325 699.5,422.5C 704.903,421.034 709.569,419.367 713.5,417.5 Z M 446.5,631.5 C 447.512,633.1 447.012,634.434 445,635.5C 444.601,635.272 444.435,634.938 444.5,634.5C 444.427,632.973 445.094,631.973 446.5,631.5 Z M 442.5,636.5 C 443.713,637.497 443.546,638.497 442,639.5C 441.601,639.272 441.435,638.938 441.5,638.5C 441.328,637.508 441.662,636.842 442.5,636.5 Z M 437.5,643.5 C 438.885,644.947 438.552,645.947 436.5,646.5C 437.11,645.609 437.443,644.609 437.5,643.5 Z M 435.5,647.5 C 435.649,648.552 435.483,649.552 435,650.5C 434.31,651.738 433.81,651.738 433.5,650.5C 433.427,648.973 434.094,647.973 435.5,647.5 Z M 430.5,654.5 C 431.976,656.709 431.309,658.042 428.5,658.5C 428.733,656.938 429.4,655.605 430.5,654.5 Z M 427.5,659.5 C 427.614,662.216 426.614,664.216 424.5,665.5C 424.912,663.113 425.912,661.113 427.5,659.5 Z M 423.5,665.5 C 423.628,667.655 423.128,669.655 422,671.5C 421.617,670.944 421.117,670.611 420.5,670.5C 420.75,668.326 421.75,666.659 423.5,665.5 Z M 419.5,672.5 C 419.66,674.199 419.494,675.866 419,677.5C 418.329,678.252 417.496,678.586 416.5,678.5C 416.5,677.5 416.5,676.5 416.5,675.5C 417.272,674.306 418.272,673.306 419.5,672.5 Z M 415.5,679.5 C 415.785,681.288 415.452,682.955 414.5,684.5C 413.893,684.376 413.56,684.043 413.5,683.5C 413.989,682.005 414.655,680.671 415.5,679.5 Z M 411.5,687.5 C 411.785,689.288 411.452,690.955 410.5,692.5C 409.893,692.376 409.56,692.043 409.5,691.5C 409.5,690.5 409.5,689.5 409.5,688.5C 410.167,688.167 410.833,687.833 411.5,687.5 Z M 1587.5,691.5 C 1588.45,692.919 1588.78,694.585 1588.5,696.5C 1586.4,695.121 1586.07,693.455 1587.5,691.5 Z M 407.5,694.5 C 408.501,695.789 408.334,697.122 407,698.5C 406.536,697.906 406.369,697.239 406.5,696.5C 406.328,695.508 406.662,694.842 407.5,694.5 Z M 403.5,702.5 C 404.306,704.164 403.973,705.831 402.5,707.5C 401.893,707.376 401.56,707.043 401.5,706.5C 401.66,704.847 402.326,703.514 403.5,702.5 Z M 1592.5,703.5 C 1592.5,704.167 1592.5,704.833 1592.5,705.5C 1589.83,704.833 1589.83,704.167 1592.5,703.5 Z M 399.5,710.5 C 400.465,711.721 400.298,713.054 399,714.5C 398.536,713.906 398.369,713.239 398.5,712.5C 398.328,711.508 398.662,710.842 399.5,710.5 Z M 395.5,718.5 C 396.097,718.735 396.43,719.235 396.5,720C 396,721.5 395.5,723 395,724.5C 394.31,725.738 393.81,725.738 393.5,724.5C 393.595,722.214 394.262,720.214 395.5,718.5 Z M 392.5,725.5 C 392.662,727.527 392.495,729.527 392,731.5C 391.583,732.756 390.75,733.423 389.5,733.5C 389.733,730.458 390.733,727.792 392.5,725.5 Z M 388.5,734.5 C 388.662,736.527 388.495,738.527 388,740.5C 387.764,742.119 386.931,743.119 385.5,743.5C 385.132,739.956 386.132,736.956 388.5,734.5 Z M 384.5,743.5 C 384.889,746.553 384.223,749.22 382.5,751.5C 382.111,748.447 382.777,745.78 384.5,743.5 Z M 380.5,754.5 C 380.5,756.5 380.5,758.5 380.5,760.5C 380.446,762.632 379.446,763.965 377.5,764.5C 377.757,760.829 378.757,757.495 380.5,754.5 Z M 425.5,1239.5 C 426.833,1239.5 427.5,1240.17 427.5,1241.5C 426.5,1241.17 425.833,1240.5 425.5,1239.5 Z M 429.5,1246.5 C 432.007,1246.63 432.674,1247.63 431.5,1249.5C 430.094,1249.03 429.427,1248.03 429.5,1246.5 Z M 437.5,1258.5 C 438.5,1258.5 439.5,1258.5 440.5,1258.5C 440.567,1259.96 440.234,1261.29 439.5,1262.5C 437.896,1261.71 437.229,1260.38 437.5,1258.5 Z M 441.5,1264.5 C 444.084,1265.05 445.084,1266.71 444.5,1269.5C 441.916,1268.95 440.916,1267.29 441.5,1264.5 Z M 444.5,1269.5 C 445.833,1269.5 447.167,1269.5 448.5,1269.5C 448.5,1271.83 448.5,1274.17 448.5,1276.5C 447.504,1276.59 446.671,1276.25 446,1275.5C 445.495,1273.48 444.995,1271.48 444.5,1269.5 Z M 536.5,1357.5 C 539.305,1361.07 542.138,1364.73 545,1368.5C 559.754,1382.58 574.587,1396.75 589.5,1411C 602.684,1421.43 615.684,1432.09 628.5,1443C 636.548,1449.02 644.881,1454.52 653.5,1459.5C 667.502,1470.98 682.502,1481.14 698.5,1490C 760.383,1526.44 826.383,1552.6 896.5,1568.5C 908.795,1572.4 921.462,1575.23 934.5,1577C 953.681,1580.55 973.014,1582.72 992.5,1583.5C 1009.1,1585.62 1025.76,1586.95 1042.5,1587.5C 1034.39,1589.07 1026.06,1589.9 1017.5,1590C 1003.84,1590.5 990.171,1590.67 976.5,1590.5C 913.733,1591.4 852.399,1582.56 792.5,1564C 783.476,1560.15 780.142,1562.82 782.5,1572C 835.915,1588.58 890.581,1598.42 946.5,1601.5C 963.377,1603.53 980.377,1603.87 997.5,1602.5C 1127.15,1598.7 1246.32,1562.03 1355,1492.5C 1356.49,1493.25 1356.65,1494.09 1355.5,1495C 1348.71,1500.23 1341.71,1505.23 1334.5,1510C 1332.64,1513.02 1330.31,1515.52 1327.5,1517.5C 1315.79,1525.03 1304.45,1533.2 1293.5,1542C 1242.5,1576.5 1187.83,1604.17 1129.5,1625C 1081.86,1640.4 1033.03,1648.56 983,1649.5C 918.596,1648.44 856.763,1635.44 797.5,1610.5C 734.878,1582.2 677.878,1545.37 626.5,1500C 612.015,1486.35 597.681,1472.52 583.5,1458.5C 565.371,1439.38 548.038,1419.71 531.5,1399.5C 530.567,1396.63 528.9,1394.3 526.5,1392.5C 503.296,1362.64 481.296,1331.97 460.5,1300.5C 458.533,1295.9 456.033,1291.57 453,1287.5C 452.506,1285.87 452.34,1284.2 452.5,1282.5C 449.221,1281.97 447.887,1279.97 448.5,1276.5C 450.167,1276.5 451.833,1276.5 453.5,1276.5C 453.215,1278.29 453.548,1279.95 454.5,1281.5C 455.881,1281 456.547,1280 456.5,1278.5C 455.535,1276.67 454.535,1274.84 453.5,1273C 453.667,1272.17 453.833,1271.33 454,1270.5C 455.02,1271.89 455.853,1273.39 456.5,1275C 457.899,1275.59 459.232,1275.43 460.5,1274.5C 462.171,1277.33 464.004,1279.99 466,1282.5C 468.988,1284.49 471.655,1286.82 474,1289.5C 477.378,1296.28 481.711,1302.28 487,1307.5C 489.185,1308.93 491.185,1310.6 493,1312.5C 496.542,1308.53 497.709,1309.2 496.5,1314.5C 497.531,1315.7 498.365,1317.03 499,1318.5C 502.92,1320.46 506.254,1323.12 509,1326.5C 515.426,1335.02 522.093,1343.35 529,1351.5C 531.299,1353.78 533.799,1355.78 536.5,1357.5 Z M 1356.5,1490.5 C 1359,1490.51 1359.17,1491.18 1357,1492.5C 1356.54,1491.91 1356.37,1491.24 1356.5,1490.5 Z"/></g>
<g><path style="opacity:1" fill="#ee8485" d="M 1273.5,379.5 C 1273.22,380.778 1272.55,381.778 1271.5,382.5C 1137.41,340.194 1001.08,331.361 862.5,356C 757.569,375.325 661.903,415.658 575.5,477C 573.696,478.812 572.696,478.646 572.5,476.5C 646.799,422.863 728.799,385.03 818.5,363C 971.752,327.551 1123.42,333.051 1273.5,379.5 Z"/></g>
<g><path style="opacity:1" fill="#ed7374" d="M 949.5,374.5 C 970.607,371.321 991.94,368.821 1013.5,367C 1009.83,366.667 1006.17,366.333 1002.5,366C 1003.74,365.768 1004.74,365.268 1005.5,364.5C 1033.47,364.494 1061.47,363.327 1089.5,361C 1091.06,360.79 1092.39,360.29 1093.5,359.5C 1096.19,359.664 1098.85,359.497 1101.5,359C 1064.28,354.873 1026.95,353.539 989.5,355C 993.833,355.333 998.167,355.667 1002.5,356C 997.167,356.333 991.833,356.667 986.5,357C 993.826,357.5 1001.16,357.666 1008.5,357.5C 959.488,357.707 910.822,362.374 862.5,371.5C 860.381,371.598 858.714,372.431 857.5,374C 852.134,374.323 846.801,374.823 841.5,375.5C 837.037,376.695 832.704,378.028 828.5,379.5C 828.167,379.5 827.833,379.5 827.5,379.5C 807.533,383.742 787.866,389.075 768.5,395.5C 768.389,394.883 768.056,394.383 767.5,394C 772.56,392.486 777.56,390.819 782.5,389C 753.996,396.122 726.663,406.289 700.5,419.5C 683.916,425.462 668.249,433.129 653.5,442.5C 552.843,497.822 473.51,575.155 415.5,674.5C 415.624,675.107 415.957,675.44 416.5,675.5C 416.5,676.5 416.5,677.5 416.5,678.5C 415.833,678.5 415.5,678.833 415.5,679.5C 414.655,680.671 413.989,682.005 413.5,683.5C 412.655,684.671 411.989,686.005 411.5,687.5C 410.833,687.833 410.167,688.167 409.5,688.5C 409.539,687.417 409.873,686.417 410.5,685.5C 410.03,684.537 409.363,684.537 408.5,685.5C 413.446,674.946 418.946,664.613 425,654.5C 437,637.167 449,619.833 461,602.5C 487.471,569.364 516.638,538.864 548.5,511C 630.219,443.806 722.219,398.139 824.5,374C 844.723,370.755 864.723,366.755 884.5,362C 909.718,358.672 935.051,356.005 960.5,354C 1019.35,351.764 1078.02,353.764 1136.5,360C 1139.95,361.409 1141.45,363.909 1141,367.5C 1138.38,369.032 1135.55,370.032 1132.5,370.5C 1125.35,368.237 1118.02,367.07 1110.5,367C 1094.17,366.333 1077.83,366.333 1061.5,367C 1024.06,368.392 986.729,370.892 949.5,374.5 Z"/></g>
<g><path style="opacity:1" fill="#ed6668" d="M 1093.5,359.5 C 1070.85,358.278 1048.18,357.278 1025.5,356.5C 1019.8,356.572 1014.13,356.906 1008.5,357.5C 1001.16,357.666 993.826,357.5 986.5,357C 991.833,356.667 997.167,356.333 1002.5,356C 998.167,355.667 993.833,355.333 989.5,355C 1026.95,353.539 1064.28,354.873 1101.5,359C 1098.85,359.497 1096.19,359.664 1093.5,359.5 Z"/></g>
<g><path style="opacity:1" fill="#f3abab" d="M 1112.5,361.5 C 1110.3,361.12 1108.64,361.787 1107.5,363.5C 1093.22,363.69 1093.38,362.69 1108,360.5C 1109.71,360.508 1111.21,360.842 1112.5,361.5 Z"/></g>
<g><path style="opacity:1" fill="#f8cecf" d="M 1112.5,361.5 C 1119.56,361.758 1126.56,362.591 1133.5,364C 1124.85,363.918 1116.18,363.752 1107.5,363.5C 1108.64,361.787 1110.3,361.12 1112.5,361.5 Z"/></g>
<g><path style="opacity:1" fill="#ed7576" d="M 949.5,374.5 C 948.192,375.232 946.858,376.066 945.5,377C 891.069,383.751 837.736,395.085 785.5,411C 783.864,412.935 782.031,413.435 780,412.5C 770.195,415.743 760.361,418.91 750.5,422C 749.027,422.71 748.36,423.876 748.5,425.5C 746.143,425.337 743.81,425.503 741.5,426C 734.004,428.422 726.67,431.089 719.5,434C 718.833,434.667 718.167,435.333 717.5,436C 632.48,468.509 557.647,517.675 493,583.5C 482.262,595.397 471.762,607.397 461.5,619.5C 475.279,600.539 490.779,582.873 508,566.5C 508.528,565.184 508.028,564.517 506.5,564.5C 515.329,554.343 525.329,545.51 536.5,538C 540.103,534.069 544.103,530.902 548.5,528.5C 548.5,527.5 548.5,526.5 548.5,525.5C 551.114,525.723 552.781,524.556 553.5,522C 570.424,510.749 587.091,499.083 603.5,487C 609.144,483.843 614.811,480.677 620.5,477.5C 626.287,473.099 632.62,469.433 639.5,466.5C 639.542,467.479 639.542,468.479 639.5,469.5C 653.979,461.76 668.646,454.26 683.5,447C 681.519,446.395 681.185,445.395 682.5,444C 683.833,443.333 685.167,443.333 686.5,444C 685.112,444.889 685.278,445.389 687,445.5C 694.438,442.528 701.604,439.195 708.5,435.5C 724.941,428.95 741.607,422.95 758.5,417.5C 768.156,414.17 777.822,410.837 787.5,407.5C 840.65,392.403 894.65,381.403 949.5,374.5 Z"/></g>
<g><path style="opacity:1" fill="#ed7e82" d="M 841.5,375.5 C 842.058,376.79 843.058,377.623 844.5,378C 850.752,379.517 857.086,380.517 863.5,381C 865.119,381.236 866.119,382.069 866.5,383.5C 862.557,384.486 858.557,385.152 854.5,385.5C 852.585,385.216 850.919,385.549 849.5,386.5C 839.366,388.791 829.366,391.458 819.5,394.5C 818.348,393.375 817.348,393.375 816.5,394.5C 806.398,397.386 796.565,400.053 787,402.5C 786.5,402.833 786,403.167 785.5,403.5C 786.833,404.167 788.167,404.833 789.5,405.5C 788.757,406.182 788.091,406.849 787.5,407.5C 777.822,410.837 768.156,414.17 758.5,417.5C 757.391,416.71 756.058,416.21 754.5,416C 756.615,415.576 757.448,414.409 757,412.5C 745.306,415.948 734.139,420.281 723.5,425.5C 722.833,425.5 722.167,425.5 721.5,425.5C 718.993,426.892 716.327,427.892 713.5,428.5C 712.317,427.496 710.984,426.662 709.5,426C 711.953,424.12 713.953,421.787 715.5,419C 714.956,418.283 714.289,417.783 713.5,417.5C 714.5,416.833 715.5,416.167 716.5,415.5C 717.265,416.66 718.265,417.66 719.5,418.5C 722.193,417.468 722.86,415.802 721.5,413.5C 723.421,412.637 725.421,411.971 727.5,411.5C 728.721,412.465 730.054,412.298 731.5,411C 731.272,410.601 730.938,410.435 730.5,410.5C 743.053,405.096 755.72,400.096 768.5,395.5C 787.866,389.075 807.533,383.742 827.5,379.5C 835.476,380.312 835.809,380.312 828.5,379.5C 832.704,378.028 837.037,376.695 841.5,375.5 Z M 840.5,383.5 C 842.599,384.231 844.599,384.231 846.5,383.5C 844.364,382.207 842.364,382.207 840.5,383.5 Z M 765.5,409.5 C 765.369,410.376 765.702,411.043 766.5,411.5C 767.67,410.306 767.337,409.639 765.5,409.5 Z"/></g>
<g><path style="opacity:1" fill="#ed7474" d="M 1342.5,420.5 C 1293.59,399.689 1242.59,386.523 1189.5,381C 1078.43,371.422 968.434,378.422 859.5,402C 858.833,402.333 858.167,402.667 857.5,403C 858.737,403.232 859.737,403.732 860.5,404.5C 857.321,405.793 853.988,406.46 850.5,406.5C 849.761,406.631 849.094,406.464 848.5,406C 850.878,405.489 853.212,404.822 855.5,404C 758.885,423.482 669.885,460.816 588.5,516C 525.233,560.93 473.4,616.43 433,682.5C 422.987,700.858 413.82,719.525 405.5,738.5C 405.5,737.833 405.5,737.167 405.5,736.5C 409.585,727.323 413.418,717.989 417,708.5C 431.261,680.258 447.928,653.592 467,628.5C 481.955,611.508 496.955,594.508 512,577.5C 555.841,535.281 604.341,499.781 657.5,471C 673.765,463.624 689.765,455.957 705.5,448C 725.219,439.816 745.219,432.149 765.5,425C 789.427,419.103 813.094,412.436 836.5,405C 883.037,394.561 930.037,386.561 977.5,381C 1028.49,377.621 1079.49,374.787 1130.5,372.5C 1133.79,374.721 1137.46,375.887 1141.5,376C 1185.51,377.186 1228.85,383.186 1271.5,394C 1296.17,400.388 1319.84,409.221 1342.5,420.5 Z"/></g>
<g><path style="opacity:1" fill="#ed6668" d="M 1342.5,420.5 C 1348.5,424.166 1354.83,427.333 1361.5,430C 1362.55,431.385 1363.88,432.385 1365.5,433C 1363.94,433.21 1362.61,433.71 1361.5,434.5C 1358.28,431.822 1355.61,432.156 1353.5,435.5C 1353.17,435.167 1352.83,434.833 1352.5,434.5C 1353.83,433.38 1354.33,432.047 1354,430.5C 1351.62,429.446 1349.12,428.779 1346.5,428.5C 1346.59,427.504 1346.25,426.671 1345.5,426C 1343.26,425.023 1340.93,424.523 1338.5,424.5C 1338.63,423.624 1338.3,422.957 1337.5,422.5C 1305.45,408.317 1272.11,397.817 1237.5,391C 1181.6,381.093 1125.26,377.093 1068.5,379C 998.364,381.107 929.031,389.607 860.5,404.5C 859.737,403.732 858.737,403.232 857.5,403C 858.167,402.667 858.833,402.333 859.5,402C 968.434,378.422 1078.43,371.422 1189.5,381C 1242.59,386.523 1293.59,399.689 1342.5,420.5 Z"/></g>
<g><path style="opacity:1" fill="#f19293" d="M 1273.5,379.5 C 1306.11,388.478 1337.77,399.811 1368.5,413.5C 1367.69,414.728 1366.69,415.728 1365.5,416.5C 1335.26,402.198 1303.93,390.864 1271.5,382.5C 1272.55,381.778 1273.22,380.778 1273.5,379.5 Z"/></g>
<g><path style="opacity:1" fill="#ef8889" d="M 1005.5,364.5 C 1004.74,365.268 1003.74,365.768 1002.5,366C 1006.17,366.333 1009.83,366.667 1013.5,367C 991.94,368.821 970.607,371.321 949.5,374.5C 894.65,381.403 840.65,392.403 787.5,407.5C 788.091,406.849 788.757,406.182 789.5,405.5C 788.167,404.833 786.833,404.167 785.5,403.5C 786,403.167 786.5,402.833 787,402.5C 796.565,400.053 806.398,397.386 816.5,394.5C 817.5,395.833 818.5,395.833 819.5,394.5C 829.366,391.458 839.366,388.791 849.5,386.5C 851.726,388.18 853.393,387.847 854.5,385.5C 858.557,385.152 862.557,384.486 866.5,383.5C 870.226,383.823 873.893,383.489 877.5,382.5C 875.028,381.104 872.362,380.27 869.5,380C 868.167,379.333 868.167,378.667 869.5,378C 877.368,379.116 885.368,379.782 893.5,380C 897.5,379 901.5,378 905.5,377C 919.221,375.633 932.888,373.966 946.5,372C 950.249,371.292 953.916,370.292 957.5,369C 966.167,368.667 974.833,368.333 983.5,368C 990.644,365.765 997.978,364.598 1005.5,364.5 Z"/></g>
<g><path style="opacity:1" fill="#f6c4c5" d="M 1377.5,421.5 C 1387.31,425.236 1396.31,430.236 1404.5,436.5C 1400.68,435.091 1397.02,433.424 1393.5,431.5C 1388.17,428.167 1382.83,424.833 1377.5,421.5 Z"/></g>
<g><path style="opacity:1" fill="#f3a4a6" d="M 1368.5,413.5 C 1372.02,414.976 1375.69,416.143 1379.5,417C 1391.36,424.098 1403.36,430.932 1415.5,437.5C 1416.31,438.728 1417.31,439.728 1418.5,440.5C 1417.76,440.369 1417.09,440.536 1416.5,441C 1417.74,441.69 1417.74,442.19 1416.5,442.5C 1414.29,441.227 1411.95,440.227 1409.5,439.5C 1407.33,439.25 1405.66,438.25 1404.5,436.5C 1396.31,430.236 1387.31,425.236 1377.5,421.5C 1373.5,419.831 1369.5,418.164 1365.5,416.5C 1366.69,415.728 1367.69,414.728 1368.5,413.5 Z"/></g>
<g><path style="opacity:1" fill="#ed7c7e" d="M 1338.5,424.5 C 1338.48,426.028 1337.82,426.528 1336.5,426C 1337.04,425.283 1337.71,424.783 1338.5,424.5 Z"/></g>
<g><path style="opacity:1" fill="#ee8788" d="M 758.5,417.5 C 741.607,422.95 724.941,428.95 708.5,435.5C 712.415,432.412 711.748,431.745 706.5,433.5C 705.251,431.864 703.584,430.697 701.5,430C 705.298,426.799 708.798,426.966 712,430.5C 714.359,430.676 714.859,430.009 713.5,428.5C 716.327,427.892 718.993,426.892 721.5,425.5C 723.048,426.734 723.715,426.734 723.5,425.5C 734.139,420.281 745.306,415.948 757,412.5C 757.448,414.409 756.615,415.576 754.5,416C 756.058,416.21 757.391,416.71 758.5,417.5 Z"/></g>
<g><path style="opacity:1" fill="#ed7c7e" d="M 1346.5,428.5 C 1346.72,429.675 1346.39,430.675 1345.5,431.5C 1344.33,430.14 1344.67,429.14 1346.5,428.5 Z"/></g>
<g><path style="opacity:1" fill="#ed5b5d" d="M 700.5,419.5 C 685.026,427.403 669.359,435.07 653.5,442.5C 668.249,433.129 683.916,425.462 700.5,419.5 Z"/></g>
<g><path style="opacity:1" fill="#f8d5d5" d="M 1409.5,439.5 C 1411.95,440.227 1414.29,441.227 1416.5,442.5C 1425.72,448.052 1434.39,454.385 1442.5,461.5C 1431.32,454.412 1420.32,447.078 1409.5,439.5 Z"/></g>
<g><path style="opacity:1" fill="#ed7e7f" d="M 706.5,433.5 C 711.748,431.745 712.415,432.412 708.5,435.5C 701.604,439.195 694.438,442.528 687,445.5C 685.278,445.389 685.112,444.889 686.5,444C 685.167,443.333 683.833,443.333 682.5,444C 681.185,445.395 681.519,446.395 683.5,447C 668.646,454.26 653.979,461.76 639.5,469.5C 639.542,468.479 639.542,467.479 639.5,466.5C 642.106,465.15 642.106,463.65 639.5,462C 639.833,461.667 640.167,461.333 640.5,461C 642.619,462.02 644.953,462.354 647.5,462C 653.082,459.703 658.416,457.037 663.5,454C 664.451,453.282 664.617,452.449 664,451.5C 662.745,450.789 661.579,449.956 660.5,449C 662.081,448.293 663.581,447.46 665,446.5C 665.196,448.904 666.362,450.571 668.5,451.5C 671.918,448.458 675.918,446.458 680.5,445.5C 679.5,443.833 678.167,442.5 676.5,441.5C 677.436,440.026 678.77,439.026 680.5,438.5C 682.655,442.497 685.655,443.331 689.5,441C 688.313,439.981 687.313,438.814 686.5,437.5C 687,437.167 687.5,436.833 688,436.5C 691.124,438.907 694.291,439.073 697.5,437C 692.597,435.186 692.43,433.353 697,431.5C 698.839,433.141 701.006,434.141 703.5,434.5C 704.726,434.48 705.726,434.147 706.5,433.5 Z"/></g>
<g><path style="opacity:1" fill="#f08f91" d="M 1415.5,437.5 C 1421.1,439.402 1426.43,441.902 1431.5,445C 1438.32,450.576 1445.32,455.909 1452.5,461C 1454.82,463.305 1456.82,465.805 1458.5,468.5C 1445.87,458.182 1432.53,448.848 1418.5,440.5C 1417.31,439.728 1416.31,438.728 1415.5,437.5 Z"/></g>
<g><path style="opacity:1" fill="#ed7677" d="M 1342.5,420.5 C 1352.15,423.982 1361.48,428.148 1370.5,433C 1404.4,451.785 1436.07,473.785 1465.5,499C 1521.68,553.521 1563.68,617.354 1591.5,690.5C 1591.02,692.338 1590.69,694.172 1590.5,696C 1591.67,696.5 1592.5,697.333 1593,698.5C 1597.68,710.563 1601.85,722.396 1605.5,734C 1607.05,737.68 1607.72,741.513 1607.5,745.5C 1605.54,747.967 1604.37,750.967 1604,754.5C 1602.44,751.706 1602.11,748.706 1603,745.5C 1605.62,741.392 1605.62,737.059 1603,732.5C 1601.84,735.135 1600.67,737.802 1599.5,740.5C 1598.06,738.979 1597.4,737.145 1597.5,735C 1598.86,732.479 1599.86,729.812 1600.5,727C 1600.55,725.272 1600.05,723.772 1599,722.5C 1597.92,724.553 1597.09,726.72 1596.5,729C 1596.17,729.167 1595.83,729.333 1595.5,729.5C 1593.89,727.378 1593.39,725.045 1594,722.5C 1598.06,719.195 1598.56,715.529 1595.5,711.5C 1594.12,709.711 1593.12,707.711 1592.5,705.5C 1592.5,704.833 1592.5,704.167 1592.5,703.5C 1591.17,701.167 1589.83,698.833 1588.5,696.5C 1588.78,694.585 1588.45,692.919 1587.5,691.5C 1587.46,690.417 1587.13,689.417 1586.5,688.5C 1587.17,688.167 1587.83,687.833 1588.5,687.5C 1587.85,685.885 1587.35,684.218 1587,682.5C 1586.33,681.167 1585.67,681.167 1585,682.5C 1584.33,681.167 1583.33,680.167 1582,679.5C 1581.44,675.905 1580.27,672.572 1578.5,669.5C 1579.48,667.902 1579.65,666.235 1579,664.5C 1578.33,663.167 1577.67,663.167 1577,664.5C 1575.31,656.759 1572.14,649.425 1567.5,642.5C 1566.67,639.515 1565.34,636.849 1563.5,634.5C 1560.67,628.17 1557.34,622.17 1553.5,616.5C 1551.25,610.995 1548.25,605.995 1544.5,601.5C 1520.77,561.13 1491.1,525.463 1455.5,494.5C 1453.54,492.844 1451.54,491.177 1449.5,489.5C 1446.48,486.484 1443.15,483.817 1439.5,481.5C 1432.82,476.169 1425.82,471.169 1418.5,466.5C 1416.9,467.485 1415.24,467.651 1413.5,467C 1405.3,461.302 1396.97,455.802 1388.5,450.5C 1388.5,449.833 1388.17,449.5 1387.5,449.5C 1385.95,448.559 1384.28,447.893 1382.5,447.5C 1382.19,446.522 1381.52,445.855 1380.5,445.5C 1378.37,449.208 1376.04,449.374 1373.5,446C 1376.28,443.891 1376.11,442.058 1373,440.5C 1371.33,441.5 1370,442.833 1369,444.5C 1365.69,442.411 1365.86,440.578 1369.5,439C 1368.83,438.667 1368.17,438.333 1367.5,438C 1364.67,437.674 1362,438.174 1359.5,439.5C 1359.83,437.678 1360.5,436.011 1361.5,434.5C 1362.61,433.71 1363.94,433.21 1365.5,433C 1363.88,432.385 1362.55,431.385 1361.5,430C 1354.83,427.333 1348.5,424.166 1342.5,420.5 Z"/></g>
<g><path style="opacity:1" fill="#ec7d7c" d="M 632.5,464.5 C 634.337,464.639 634.67,465.306 633.5,466.5C 632.702,466.043 632.369,465.376 632.5,464.5 Z"/></g>
<g><path style="opacity:1" fill="#f3b2b3" d="M 1418.5,440.5 C 1432.53,448.848 1445.87,458.182 1458.5,468.5C 1464.85,474.183 1471.52,479.516 1478.5,484.5C 1480.83,486.495 1483.16,488.495 1485.5,490.5C 1486.13,491.417 1486.46,492.417 1486.5,493.5C 1485.51,493.328 1484.84,493.662 1484.5,494.5C 1479.74,491.247 1475.41,487.413 1471.5,483C 1469.92,481.906 1468.26,481.072 1466.5,480.5C 1457.92,474.921 1449.92,468.588 1442.5,461.5C 1434.39,454.385 1425.72,448.052 1416.5,442.5C 1417.74,442.19 1417.74,441.69 1416.5,441C 1417.09,440.536 1417.76,440.369 1418.5,440.5 Z"/></g>
<g><path style="opacity:1" fill="#f08c8d" d="M 1382.5,447.5 C 1384.28,447.893 1385.95,448.559 1387.5,449.5C 1387.46,451.224 1387.79,451.557 1388.5,450.5C 1396.97,455.802 1405.3,461.302 1413.5,467C 1415.24,467.651 1416.9,467.485 1418.5,466.5C 1425.82,471.169 1432.82,476.169 1439.5,481.5C 1438.42,481.539 1437.42,481.873 1436.5,482.5C 1435.38,481.167 1434.05,480.667 1432.5,481C 1437.55,485.593 1441.21,491.093 1443.5,497.5C 1442.23,500.44 1440.23,502.773 1437.5,504.5C 1430.45,497.943 1424.28,490.61 1419,482.5C 1407.08,469.719 1393.91,458.719 1379.5,449.5C 1380.36,448.575 1381.36,447.908 1382.5,447.5 Z"/></g>
<g><path style="opacity:1" fill="#f29798" d="M 1458.5,468.5 C 1461.63,469.473 1464.63,470.807 1467.5,472.5C 1471.92,475.915 1475.59,479.915 1478.5,484.5C 1471.52,479.516 1464.85,474.183 1458.5,468.5 Z"/></g>
<g><path style="opacity:1" fill="#f29798" d="M 1439.5,481.5 C 1443.15,483.817 1446.48,486.484 1449.5,489.5C 1448.4,490.601 1448.24,491.934 1449,493.5C 1451.24,495.309 1452.4,497.642 1452.5,500.5C 1457.43,506.171 1461.76,512.337 1465.5,519C 1464.83,519.667 1464.17,520.333 1463.5,521C 1458.75,521.223 1454.08,521.723 1449.5,522.5C 1445.49,516.471 1441.49,510.471 1437.5,504.5C 1440.23,502.773 1442.23,500.44 1443.5,497.5C 1441.21,491.093 1437.55,485.593 1432.5,481C 1434.05,480.667 1435.38,481.167 1436.5,482.5C 1437.42,481.873 1438.42,481.539 1439.5,481.5 Z"/></g>
<g><path style="opacity:1" fill="#ec7d7c" d="M 593.5,487.5 C 595.465,487.948 595.798,488.948 594.5,490.5C 592.481,489.867 592.147,488.867 593.5,487.5 Z"/></g>
<g><path style="opacity:1" fill="#f7cccc" d="M 1466.5,480.5 C 1468.26,481.072 1469.92,481.906 1471.5,483C 1475.41,487.413 1479.74,491.247 1484.5,494.5C 1485.11,495.391 1485.44,496.391 1485.5,497.5C 1478.84,492.175 1472.51,486.509 1466.5,480.5 Z"/></g>
<g><path style="opacity:1" fill="#ec7d7c" d="M 581.5,495.5 C 583.337,495.639 583.67,496.306 582.5,497.5C 581.702,497.043 581.369,496.376 581.5,495.5 Z"/></g>
<g><path style="opacity:1" fill="#f3a2a3" d="M 1544.5,556.5 C 1543.52,555.859 1542.52,555.193 1541.5,554.5C 1540.7,554.957 1540.37,555.624 1540.5,556.5C 1523.21,535.878 1504.88,516.211 1485.5,497.5C 1485.44,496.391 1485.11,495.391 1484.5,494.5C 1484.84,493.662 1485.51,493.328 1486.5,493.5C 1487.82,493.67 1488.99,493.337 1490,492.5C 1490.22,493.938 1490.72,495.271 1491.5,496.5C 1492.45,495.674 1493.45,495.508 1494.5,496C 1497.3,498.503 1499.8,501.337 1502,504.5C 1502.33,505.833 1502.67,507.167 1503,508.5C 1504.05,507.483 1505.22,507.316 1506.5,508C 1509.97,512.799 1514.13,516.966 1519,520.5C 1521.64,524.238 1523.8,528.238 1525.5,532.5C 1529.35,536.573 1533.35,540.406 1537.5,544C 1536.48,545.049 1536.32,546.216 1537,547.5C 1539.53,550.602 1542.03,553.602 1544.5,556.5 Z"/></g>
<g><path style="opacity:1" fill="#f39c9d" d="M 1452.5,500.5 C 1462.78,510.287 1472.28,520.954 1481,532.5C 1488.63,538.125 1495.63,544.458 1502,551.5C 1502.33,552.5 1502.67,553.5 1503,554.5C 1509.89,562.262 1516.39,570.262 1522.5,578.5C 1522.83,578.5 1523.17,578.5 1523.5,578.5C 1523.35,579.552 1523.52,580.552 1524,581.5C 1533,591.728 1540.84,602.728 1547.5,614.5C 1543.68,611.933 1540.52,608.599 1538,604.5C 1529.09,591.231 1518.93,578.731 1507.5,567C 1506.55,566.517 1505.55,566.351 1504.5,566.5C 1505.85,577.425 1507.51,588.258 1509.5,599C 1508.94,599.383 1508.61,599.883 1508.5,600.5C 1488.86,574.524 1469.2,548.524 1449.5,522.5C 1454.08,521.723 1458.75,521.223 1463.5,521C 1464.17,520.333 1464.83,519.667 1465.5,519C 1461.76,512.337 1457.43,506.171 1452.5,500.5 Z"/></g>
<g><path style="opacity:1" fill="#f3adae" d="M 1449.5,489.5 C 1451.54,491.177 1453.54,492.844 1455.5,494.5C 1454.96,494.56 1454.62,494.893 1454.5,495.5C 1459.01,502.52 1464.51,508.853 1471,514.5C 1475.64,521.804 1481.31,528.138 1488,533.5C 1492.42,539.576 1497.42,545.243 1503,550.5C 1507.76,557.015 1512.76,563.348 1518,569.5C 1519.73,572.391 1521.23,575.391 1522.5,578.5C 1516.39,570.262 1509.89,562.262 1503,554.5C 1502.67,553.5 1502.33,552.5 1502,551.5C 1495.63,544.458 1488.63,538.125 1481,532.5C 1472.28,520.954 1462.78,510.287 1452.5,500.5C 1452.4,497.642 1451.24,495.309 1449,493.5C 1448.24,491.934 1448.4,490.601 1449.5,489.5 Z"/></g>
<g><path style="opacity:1" fill="#ed6769" d="M 768.5,395.5 C 755.72,400.096 743.053,405.096 730.5,410.5C 729.209,410.263 728.209,410.596 727.5,411.5C 725.421,411.971 723.421,412.637 721.5,413.5C 719.597,413.796 717.93,414.463 716.5,415.5C 715.5,416.167 714.5,416.833 713.5,417.5C 709.569,419.367 704.903,421.034 699.5,422.5C 698.614,423.325 698.281,424.325 698.5,425.5C 696.143,425.337 693.81,425.503 691.5,426C 644.45,448.057 600.45,475.557 559.5,508.5C 558.614,509.325 558.281,510.325 558.5,511.5C 557.448,511.351 556.448,511.517 555.5,512C 549.352,517.571 543.019,522.904 536.5,528C 524.671,540.162 512.505,551.995 500,563.5C 480.787,584.33 463.287,606.33 447.5,629.5C 446.662,629.842 446.328,630.508 446.5,631.5C 445.094,631.973 444.427,632.973 444.5,634.5C 443.5,634.833 442.833,635.5 442.5,636.5C 441.662,636.842 441.328,637.508 441.5,638.5C 440.197,640.142 438.864,641.809 437.5,643.5C 437.443,644.609 437.11,645.609 436.5,646.5C 435.833,646.5 435.5,646.833 435.5,647.5C 434.094,647.973 433.427,648.973 433.5,650.5C 431.738,651.262 430.738,652.596 430.5,654.5C 429.4,655.605 428.733,656.938 428.5,658.5C 427.833,658.5 427.5,658.833 427.5,659.5C 425.912,661.113 424.912,663.113 424.5,665.5C 424.167,665.5 423.833,665.5 423.5,665.5C 421.75,666.659 420.75,668.326 420.5,670.5C 420.167,671.167 419.833,671.833 419.5,672.5C 418.272,673.306 417.272,674.306 416.5,675.5C 415.957,675.44 415.624,675.107 415.5,674.5C 473.51,575.155 552.843,497.822 653.5,442.5C 669.359,435.07 685.026,427.403 700.5,419.5C 726.663,406.289 753.996,396.122 782.5,389C 777.56,390.819 772.56,392.486 767.5,394C 768.056,394.383 768.389,394.883 768.5,395.5 Z"/></g>
<g><path style="opacity:1" fill="#ec8f8e" d="M 1540.5,547.5 C 1541.83,548.167 1541.83,548.167 1540.5,547.5 Z"/></g>
<g><path style="opacity:1" fill="#f9d6d6" d="M 1455.5,494.5 C 1491.1,525.463 1520.77,561.13 1544.5,601.5C 1543.11,602.522 1541.77,602.189 1540.5,600.5C 1539.42,598.004 1538.09,595.67 1536.5,593.5C 1532.41,588.333 1528.07,583.333 1523.5,578.5C 1523.17,578.5 1522.83,578.5 1522.5,578.5C 1521.23,575.391 1519.73,572.391 1518,569.5C 1512.76,563.348 1507.76,557.015 1503,550.5C 1497.42,545.243 1492.42,539.576 1488,533.5C 1481.31,528.138 1475.64,521.804 1471,514.5C 1464.51,508.853 1459.01,502.52 1454.5,495.5C 1454.62,494.893 1454.96,494.56 1455.5,494.5 Z"/></g>
<g><path style="opacity:1" fill="#f29697" d="M 1547.5,614.5 C 1547.78,615.289 1548.28,615.956 1549,616.5C 1550.3,616.034 1551.8,616.034 1553.5,616.5C 1557.34,622.17 1560.67,628.17 1563.5,634.5C 1562.53,635.309 1561.7,636.309 1561,637.5C 1560.67,637.167 1560.33,636.833 1560,636.5C 1558.8,632.806 1556.97,629.472 1554.5,626.5C 1547.83,619.322 1541.67,611.656 1536,603.5C 1532.95,600.117 1529.62,597.117 1526,594.5C 1525.23,594.645 1524.56,594.978 1524,595.5C 1523.67,604.5 1523.33,613.5 1523,622.5C 1522.77,623.737 1522.27,624.737 1521.5,625.5C 1516.39,617.612 1512.06,609.278 1508.5,600.5C 1508.61,599.883 1508.94,599.383 1509.5,599C 1507.51,588.258 1505.85,577.425 1504.5,566.5C 1505.55,566.351 1506.55,566.517 1507.5,567C 1518.93,578.731 1529.09,591.231 1538,604.5C 1540.52,608.599 1543.68,611.933 1547.5,614.5 Z"/></g>
<g><path style="opacity:1" fill="#ef8c8e" d="M 1563.5,634.5 C 1565.34,636.849 1566.67,639.515 1567.5,642.5C 1566.88,642.389 1566.38,642.056 1566,641.5C 1565.69,642.766 1565.19,643.933 1564.5,645C 1565.83,645.667 1566.83,646.667 1567.5,648C 1567,648.167 1566.5,648.333 1566,648.5C 1562.03,645.366 1558.2,642.033 1554.5,638.5C 1550.86,635.904 1547.7,636.237 1545,639.5C 1544.16,643.229 1542.66,646.563 1540.5,649.5C 1535.53,644.362 1530.7,639.029 1526,633.5C 1524.23,630.968 1522.73,628.301 1521.5,625.5C 1522.27,624.737 1522.77,623.737 1523,622.5C 1523.33,613.5 1523.67,604.5 1524,595.5C 1524.56,594.978 1525.23,594.645 1526,594.5C 1529.62,597.117 1532.95,600.117 1536,603.5C 1541.67,611.656 1547.83,619.322 1554.5,626.5C 1556.97,629.472 1558.8,632.806 1560,636.5C 1560.33,636.833 1560.67,637.167 1561,637.5C 1561.7,636.309 1562.53,635.309 1563.5,634.5 Z"/></g>
<g><path style="opacity:1" fill="#f3b8b9" d="M 1523.5,578.5 C 1528.07,583.333 1532.41,588.333 1536.5,593.5C 1538.09,595.67 1539.42,598.004 1540.5,600.5C 1541.77,602.189 1543.11,602.522 1544.5,601.5C 1548.25,605.995 1551.25,610.995 1553.5,616.5C 1551.8,616.034 1550.3,616.034 1549,616.5C 1548.28,615.956 1547.78,615.289 1547.5,614.5C 1540.84,602.728 1533,591.728 1524,581.5C 1523.52,580.552 1523.35,579.552 1523.5,578.5 Z"/></g>
<g><path style="opacity:1" fill="#ed6365" d="M 850.5,406.5 C 791.989,420.586 735.322,440.086 680.5,465C 593.288,506.515 520.455,565.682 462,642.5C 426.169,692.117 401.002,746.783 386.5,806.5C 382.52,822.496 379.687,838.829 378,855.5C 381.02,815.085 390.187,776.085 405.5,738.5C 413.82,719.525 422.987,700.858 433,682.5C 473.4,616.43 525.233,560.93 588.5,516C 669.885,460.816 758.885,423.482 855.5,404C 853.212,404.822 850.878,405.489 848.5,406C 849.094,406.464 849.761,406.631 850.5,406.5 Z"/></g>
<g><path style="opacity:1" fill="#ed8283" d="M 1567.5,642.5 C 1572.14,649.425 1575.31,656.759 1577,664.5C 1577.67,663.167 1578.33,663.167 1579,664.5C 1579.65,666.235 1579.48,667.902 1578.5,669.5C 1580.27,672.572 1581.44,675.905 1582,679.5C 1583.33,680.167 1584.33,681.167 1585,682.5C 1585.67,681.167 1586.33,681.167 1587,682.5C 1587.35,684.218 1587.85,685.885 1588.5,687.5C 1587.83,687.833 1587.17,688.167 1586.5,688.5C 1587.13,689.417 1587.46,690.417 1587.5,691.5C 1586.07,693.455 1586.4,695.121 1588.5,696.5C 1589.83,698.833 1591.17,701.167 1592.5,703.5C 1589.83,704.167 1589.83,704.833 1592.5,705.5C 1593.12,707.711 1594.12,709.711 1595.5,711.5C 1594.14,713.22 1593.14,715.22 1592.5,717.5C 1591.83,718.833 1591.17,718.833 1590.5,717.5C 1588.94,712.043 1586.6,707.043 1583.5,702.5C 1582.11,703.645 1580.78,703.645 1579.5,702.5C 1576.85,699.349 1574.02,696.349 1571,693.5C 1561,678.678 1550.84,664.011 1540.5,649.5C 1542.66,646.563 1544.16,643.229 1545,639.5C 1547.7,636.237 1550.86,635.904 1554.5,638.5C 1558.2,642.033 1562.03,645.366 1566,648.5C 1566.5,648.333 1567,648.167 1567.5,648C 1566.83,646.667 1565.83,645.667 1564.5,645C 1565.19,643.933 1565.69,642.766 1566,641.5C 1566.38,642.056 1566.88,642.389 1567.5,642.5 Z"/></g>
<g><path style="opacity:1" fill="#f29495" d="M 1544.5,556.5 C 1544.99,557.473 1545.49,558.473 1546,559.5C 1547.01,558.663 1548.18,558.33 1549.5,558.5C 1549.21,560.288 1549.55,561.955 1550.5,563.5C 1551.61,562.41 1552.61,562.41 1553.5,563.5C 1551.73,566.85 1552.73,568.516 1556.5,568.5C 1556.28,569.675 1556.61,570.675 1557.5,571.5C 1561.78,574.049 1564.61,577.716 1566,582.5C 1568.27,585.357 1570.77,588.024 1573.5,590.5C 1570.7,594.232 1571.7,596.232 1576.5,596.5C 1576.41,599.541 1577.91,601.207 1581,601.5C 1581.72,603.112 1581.55,604.612 1580.5,606C 1581.62,607.044 1582.96,607.71 1584.5,608C 1588.75,613.902 1591.75,620.402 1593.5,627.5C 1594.17,627.833 1594.83,628.167 1595.5,628.5C 1596.74,632.914 1598.24,637.247 1600,641.5C 1605.91,651.323 1610.74,661.656 1614.5,672.5C 1613.71,674.309 1613.71,676.309 1614.5,678.5C 1594.27,634.985 1569.61,594.318 1540.5,556.5C 1540.37,555.624 1540.7,554.957 1541.5,554.5C 1542.52,555.193 1543.52,555.859 1544.5,556.5 Z"/></g>
<g><path style="opacity:1" fill="#f7cacc" d="M 1600.5,683.5 C 1598.21,680.923 1597.04,677.923 1597,674.5C 1598.74,677.309 1599.91,680.309 1600.5,683.5 Z"/></g>
<g><path style="opacity:1" fill="#faf0f0" d="M 1600.5,683.5 C 1635.37,759.021 1652.71,838.521 1652.5,922C 1652.46,953.02 1650.13,983.853 1645.5,1014.5C 1644.83,1014.5 1644.5,1014.17 1644.5,1013.5C 1656.87,899.775 1642.2,789.775 1600.5,683.5 Z"/></g>
<g><path style="opacity:1" fill="#ee8687" d="M 506.5,564.5 C 508.028,564.517 508.528,565.184 508,566.5C 490.779,582.873 475.279,600.539 461.5,619.5C 427.492,661.829 401.492,708.829 383.5,760.5C 382.5,760.5 381.5,760.5 380.5,760.5C 380.5,758.5 380.5,756.5 380.5,754.5C 380.5,754.167 380.5,753.833 380.5,753.5C 381.167,752.833 381.833,752.167 382.5,751.5C 384.223,749.22 384.889,746.553 384.5,743.5C 384.833,743.5 385.167,743.5 385.5,743.5C 386.931,743.119 387.764,742.119 388,740.5C 388.495,738.527 388.662,736.527 388.5,734.5C 388.5,733.833 388.833,733.5 389.5,733.5C 390.75,733.423 391.583,732.756 392,731.5C 392.495,729.527 392.662,727.527 392.5,725.5C 392.5,724.833 392.833,724.5 393.5,724.5C 393.81,725.738 394.31,725.738 395,724.5C 395.5,723 396,721.5 396.5,720C 396.43,719.235 396.097,718.735 395.5,718.5C 396.514,716.426 397.514,714.426 398.5,712.5C 398.369,713.239 398.536,713.906 399,714.5C 400.298,713.054 400.465,711.721 399.5,710.5C 399.66,708.847 400.326,707.514 401.5,706.5C 401.56,707.043 401.893,707.376 402.5,707.5C 403.973,705.831 404.306,704.164 403.5,702.5C 403.992,700.181 404.992,698.181 406.5,696.5C 406.369,697.239 406.536,697.906 407,698.5C 408.334,697.122 408.501,695.789 407.5,694.5C 407.427,692.973 408.094,691.973 409.5,691.5C 409.56,692.043 409.893,692.376 410.5,692.5C 411.452,690.955 411.785,689.288 411.5,687.5C 411.989,686.005 412.655,684.671 413.5,683.5C 413.56,684.043 413.893,684.376 414.5,684.5C 415.452,682.955 415.785,681.288 415.5,679.5C 415.5,678.833 415.833,678.5 416.5,678.5C 417.496,678.586 418.329,678.252 419,677.5C 419.494,675.866 419.66,674.199 419.5,672.5C 419.833,671.833 420.167,671.167 420.5,670.5C 421.117,670.611 421.617,670.944 422,671.5C 423.128,669.655 423.628,667.655 423.5,665.5C 423.833,665.5 424.167,665.5 424.5,665.5C 426.614,664.216 427.614,662.216 427.5,659.5C 427.5,658.833 427.833,658.5 428.5,658.5C 431.309,658.042 431.976,656.709 430.5,654.5C 430.738,652.596 431.738,651.262 433.5,650.5C 433.81,651.738 434.31,651.738 435,650.5C 435.483,649.552 435.649,648.552 435.5,647.5C 435.5,646.833 435.833,646.5 436.5,646.5C 438.552,645.947 438.885,644.947 437.5,643.5C 438.864,641.809 440.197,640.142 441.5,638.5C 441.435,638.938 441.601,639.272 442,639.5C 443.546,638.497 443.713,637.497 442.5,636.5C 442.833,635.5 443.5,634.833 444.5,634.5C 444.435,634.938 444.601,635.272 445,635.5C 447.012,634.434 447.512,633.1 446.5,631.5C 446.328,630.508 446.662,629.842 447.5,629.5C 448.209,630.404 449.209,630.737 450.5,630.5C 466.449,606.522 485.116,584.522 506.5,564.5 Z"/></g>
<g><path style="opacity:1" fill="#ed6667" d="M 409.5,688.5 C 409.5,689.5 409.5,690.5 409.5,691.5C 408.094,691.973 407.427,692.973 407.5,694.5C 406.662,694.842 406.328,695.508 406.5,696.5C 404.992,698.181 403.992,700.181 403.5,702.5C 402.326,703.514 401.66,704.847 401.5,706.5C 400.326,707.514 399.66,708.847 399.5,710.5C 398.662,710.842 398.328,711.508 398.5,712.5C 397.514,714.426 396.514,716.426 395.5,718.5C 394.262,720.214 393.595,722.214 393.5,724.5C 392.833,724.5 392.5,724.833 392.5,725.5C 390.733,727.792 389.733,730.458 389.5,733.5C 388.833,733.5 388.5,733.833 388.5,734.5C 386.132,736.956 385.132,739.956 385.5,743.5C 385.167,743.5 384.833,743.5 384.5,743.5C 382.777,745.78 382.111,748.447 382.5,751.5C 381.833,752.167 381.167,752.833 380.5,753.5C 379.233,754.087 378.233,754.087 377.5,753.5C 386.783,730.274 397.116,707.607 408.5,685.5C 409.363,684.537 410.03,684.537 410.5,685.5C 409.873,686.417 409.539,687.417 409.5,688.5 Z"/></g>
<g><path style="opacity:1" fill="#ed7677" d="M 405.5,736.5 C 405.5,737.167 405.5,737.833 405.5,738.5C 390.187,776.085 381.02,815.085 378,855.5C 379.687,838.829 382.52,822.496 386.5,806.5C 375.817,867.282 374.65,928.282 383,989.5C 386.774,1009.87 390.607,1030.2 394.5,1050.5C 399.836,1075.53 407.169,1099.86 416.5,1123.5C 429.646,1157.45 444.646,1190.45 461.5,1222.5C 460.075,1220.97 459.409,1221.3 459.5,1223.5C 436.585,1186.13 419.085,1146.46 407,1104.5C 405.443,1103.79 404.277,1104.46 403.5,1106.5C 404.047,1109.38 404.38,1112.21 404.5,1115C 401.026,1116.73 400.526,1119.23 403,1122.5C 403.727,1119.85 404.894,1117.51 406.5,1115.5C 407.434,1118.27 408.1,1121.1 408.5,1124C 411.358,1127.62 412.191,1131.79 411,1136.5C 408.854,1139.45 409.188,1142.11 412,1144.5C 412.739,1142.78 413.573,1141.11 414.5,1139.5C 415.221,1141.69 415.887,1143.85 416.5,1146C 413.072,1148.15 412.572,1150.98 415,1154.5C 416.073,1152.45 417.239,1150.45 418.5,1148.5C 418.833,1149.67 419.167,1150.83 419.5,1152C 417.958,1155.61 417.292,1159.44 417.5,1163.5C 420.329,1163.68 421.996,1162.34 422.5,1159.5C 422.833,1160.5 423.167,1161.5 423.5,1162.5C 421.815,1165.61 421.315,1168.94 422,1172.5C 422.414,1172.96 422.914,1173.29 423.5,1173.5C 424.684,1171.95 425.684,1170.29 426.5,1168.5C 426.833,1169.5 427.167,1170.5 427.5,1171.5C 425.911,1174.28 425.411,1177.28 426,1180.5C 426.333,1180.83 426.667,1181.17 427,1181.5C 428,1180.17 429,1178.83 430,1177.5C 430.333,1177.83 430.667,1178.17 431,1178.5C 430.852,1182.18 430.352,1185.85 429.5,1189.5C 430.833,1189.5 432.167,1189.5 433.5,1189.5C 433.329,1186.2 433.995,1185.87 435.5,1188.5C 433.699,1191.54 433.032,1194.87 433.5,1198.5C 436.388,1198.78 437.888,1197.45 438,1194.5C 437.199,1197.71 436.865,1201.04 437,1204.5C 437.71,1205.97 438.876,1206.64 440.5,1206.5C 440.34,1208.2 440.506,1209.87 441,1211.5C 492.94,1311.64 565.107,1394.3 657.5,1459.5C 655.965,1458.65 654.632,1458.65 653.5,1459.5C 644.881,1454.52 636.548,1449.02 628.5,1443C 615.684,1432.09 602.684,1421.43 589.5,1411C 574.587,1396.75 559.754,1382.58 545,1368.5C 542.138,1364.73 539.305,1361.07 536.5,1357.5C 537.458,1357.95 538.292,1358.62 539,1359.5C 539.667,1358.83 539.667,1358.17 539,1357.5C 518.113,1333.8 498.613,1309.13 480.5,1283.5C 472.58,1271.33 464.913,1258.99 457.5,1246.5C 455.527,1242.54 453.194,1238.88 450.5,1235.5C 447.085,1228.33 443.418,1221.33 439.5,1214.5C 430.526,1196.22 421.86,1177.89 413.5,1159.5C 406.512,1141.21 399.845,1122.88 393.5,1104.5C 376.773,1050.7 366.273,995.697 362,939.5C 358.645,891.615 362.145,844.282 372.5,797.5C 374.102,793.761 375.102,789.761 375.5,785.5C 377.3,780.1 379.3,774.767 381.5,769.5C 382.12,773.302 381.286,776.635 379,779.5C 378.088,783.795 377.421,788.128 377,792.5C 376.333,793.167 375.667,793.833 375,794.5C 374.354,805.383 375.52,816.049 378.5,826.5C 381.678,811.098 385.178,795.765 389,780.5C 393.302,765.223 398.802,750.556 405.5,736.5 Z"/></g>
<g><path style="opacity:1" fill="#ec8988" d="M 1606.5,760.5 C 1608.98,762.483 1609.14,764.816 1607,767.5C 1606.5,765.19 1606.34,762.857 1606.5,760.5 Z"/></g>
<g><path style="opacity:1" fill="#f29999" d="M 380.5,760.5 C 381.5,760.5 382.5,760.5 383.5,760.5C 382.539,763.426 381.873,766.426 381.5,769.5C 379.3,774.767 377.3,780.1 375.5,785.5C 374.207,784.158 373.374,782.491 373,780.5C 371.887,779.695 370.721,779.028 369.5,778.5C 369.369,777.761 369.536,777.094 370,776.5C 371.343,777.214 372.676,776.88 374,775.5C 374.395,772.793 374.895,770.127 375.5,767.5C 376.338,767.158 376.672,766.492 376.5,765.5C 376.5,764.833 376.833,764.5 377.5,764.5C 379.446,763.965 380.446,762.632 380.5,760.5 Z"/></g>
<g><path style="opacity:1" fill="#ed888c" d="M 1610.5,775.5 C 1611.73,776.152 1612.39,777.319 1612.5,779C 1612.17,780.167 1611.83,781.333 1611.5,782.5C 1610.53,780.257 1610.19,777.924 1610.5,775.5 Z"/></g>
<g><path style="opacity:1" fill="#f4b0b1" d="M 369.5,778.5 C 370.721,779.028 371.887,779.695 373,780.5C 373.374,782.491 374.207,784.158 375.5,785.5C 375.102,789.761 374.102,793.761 372.5,797.5C 370.637,796.033 369.304,794.033 368.5,791.5C 367.675,790.614 366.675,790.281 365.5,790.5C 366.527,786.388 367.861,782.388 369.5,778.5 Z"/></g>
<g><path style="opacity:1" fill="#ec898d" d="M 1616.5,788.5 C 1616.33,791.874 1615.83,795.207 1615,798.5C 1614.33,795.5 1614.33,792.5 1615,789.5C 1615.38,788.944 1615.88,788.611 1616.5,788.5 Z"/></g>
<g><path style="opacity:1" fill="#faf8f8" d="M 365.5,790.5 C 366.675,790.281 367.675,790.614 368.5,791.5C 369.304,794.033 370.637,796.033 372.5,797.5C 362.145,844.282 358.645,891.615 362,939.5C 366.273,995.697 376.773,1050.7 393.5,1104.5C 393.077,1105.26 392.743,1106.1 392.5,1107C 394.769,1114.91 397.269,1122.74 400,1130.5C 400.667,1132.17 400.667,1133.83 400,1135.5C 396.743,1129.32 393.743,1122.99 391,1116.5C 389.178,1113.68 387.011,1111.18 384.5,1109C 382.833,1108.33 381.167,1108.33 379.5,1109C 377.333,1112.5 374.5,1115.33 371,1117.5C 370.667,1118.5 370.333,1119.5 370,1120.5C 369.252,1118.67 368.252,1117 367,1115.5C 366.617,1116.06 366.117,1116.39 365.5,1116.5C 340.397,1043 332.897,967.662 343,890.5C 345.87,870.362 349.37,850.362 353.5,830.5C 357.268,817.186 361.268,803.853 365.5,790.5 Z"/></g>
<g><path style="opacity:1" fill="#ef898b" d="M 1614.5,672.5 C 1647.23,744.752 1664.89,820.752 1667.5,900.5C 1666.71,901.609 1666.21,902.942 1666,904.5C 1663.04,825.857 1645.87,750.524 1614.5,678.5C 1613.71,676.309 1613.71,674.309 1614.5,672.5 Z"/></g>
<g><path style="opacity:1" fill="#ed7678" d="M 374.5,729.5 C 366.515,751.768 358.682,774.101 351,796.5C 350.667,799.167 350.333,801.833 350,804.5C 349.333,805.167 348.667,805.833 348,806.5C 347.554,811.802 346.221,816.802 344,821.5C 342.71,826.11 342.376,830.777 343,835.5C 345.159,838.128 346.659,841.128 347.5,844.5C 348.086,844.291 348.586,843.957 349,843.5C 349.671,838.8 350.504,834.134 351.5,829.5C 352.944,828.019 353.611,828.352 353.5,830.5C 349.37,850.362 345.87,870.362 343,890.5C 332.897,967.662 340.397,1043 365.5,1116.5C 368.164,1123.83 370.831,1131.16 373.5,1138.5C 374.499,1141.16 375.499,1143.83 376.5,1146.5C 378.108,1149.38 379.441,1152.38 380.5,1155.5C 381.831,1158.83 383.164,1162.16 384.5,1165.5C 386.262,1169.36 388.262,1173.03 390.5,1176.5C 390.94,1179.38 391.94,1182.05 393.5,1184.5C 399.732,1197.3 406.232,1209.96 413,1222.5C 413.333,1222.17 413.667,1221.83 414,1221.5C 418.839,1226.84 422.672,1232.84 425.5,1239.5C 425.833,1240.5 426.5,1241.17 427.5,1241.5C 428.441,1243.05 429.107,1244.72 429.5,1246.5C 429.427,1248.03 430.094,1249.03 431.5,1249.5C 432.401,1250.29 433.068,1251.29 433.5,1252.5C 433.5,1253.17 433.833,1253.5 434.5,1253.5C 434.263,1254.79 434.596,1255.79 435.5,1256.5C 436.167,1257.17 436.833,1257.83 437.5,1258.5C 437.229,1260.38 437.896,1261.71 439.5,1262.5C 439.833,1263.5 440.5,1264.17 441.5,1264.5C 440.916,1267.29 441.916,1268.95 444.5,1269.5C 444.995,1271.48 445.495,1273.48 446,1275.5C 446.671,1276.25 447.504,1276.59 448.5,1276.5C 447.887,1279.97 449.221,1281.97 452.5,1282.5C 452.34,1284.2 452.506,1285.87 453,1287.5C 456.033,1291.57 458.533,1295.9 460.5,1300.5C 459.637,1299.54 458.97,1299.54 458.5,1300.5C 465.188,1311.22 471.855,1321.89 478.5,1332.5C 473.202,1326.6 468.369,1320.26 464,1313.5C 440.763,1276.29 418.43,1238.62 397,1200.5C 389.745,1184.32 382.745,1167.98 376,1151.5C 375.282,1150.55 374.449,1150.38 373.5,1151C 372.794,1153.58 371.461,1155.75 369.5,1157.5C 370.189,1159.44 370.689,1161.44 371,1163.5C 372.011,1164.34 373.178,1164.67 374.5,1164.5C 374.312,1162.9 374.812,1161.56 376,1160.5C 376.367,1163.76 375.867,1166.92 374.5,1170C 374.049,1172.88 375.215,1174.71 378,1175.5C 378.287,1177.89 378.787,1180.22 379.5,1182.5C 380.325,1183.39 381.325,1183.72 382.5,1183.5C 382.337,1185.86 382.503,1188.19 383,1190.5C 385.157,1194.01 387.491,1197.35 390,1200.5C 389.878,1203.97 391.211,1206.63 394,1208.5C 394.333,1210.17 394.667,1211.83 395,1213.5C 397.65,1218.46 400.15,1223.46 402.5,1228.5C 403.822,1228.67 404.989,1228.34 406,1227.5C 405.695,1229.44 405.695,1231.44 406,1233.5C 425.742,1269.62 447.575,1304.62 471.5,1338.5C 472.309,1340.07 472.643,1341.74 472.5,1343.5C 473.675,1343.28 474.675,1343.61 475.5,1344.5C 500.815,1381.43 528.315,1416.76 558,1450.5C 558.667,1451.17 558.667,1451.83 558,1452.5C 522.037,1413.54 489.704,1371.87 461,1327.5C 460.329,1326.75 459.496,1326.41 458.5,1326.5C 446.863,1309.34 435.363,1292.01 424,1274.5C 418.808,1264.78 413.642,1255.11 408.5,1245.5C 396.271,1221.37 384.104,1196.7 372,1171.5C 321.963,1059.03 311.963,943.034 342,823.5C 349.785,790.973 360.618,759.64 374.5,729.5 Z"/></g>
<g><path style="opacity:1" fill="#ec8d8e" d="M 1622.5,830.5 C 1623.75,831.334 1624.41,832.667 1624.5,834.5C 1624.11,837.849 1623.61,841.183 1623,844.5C 1622.5,839.845 1622.33,835.179 1622.5,830.5 Z"/></g>
<g><path style="opacity:1" fill="#ed7172" d="M 1591.5,690.5 C 1602.12,713.581 1610.62,737.581 1617,762.5C 1659.37,930.05 1642.37,1091.38 1566,1246.5C 1561.51,1250.47 1558.85,1255.47 1558,1261.5C 1554.72,1267.07 1551.22,1272.4 1547.5,1277.5C 1547.96,1275.24 1548.96,1273.24 1550.5,1271.5C 1550.33,1271.17 1550.17,1270.83 1550,1270.5C 1549.29,1271.38 1548.46,1272.05 1547.5,1272.5C 1624.43,1134.15 1650.93,986.485 1627,829.5C 1626.33,828.833 1625.67,828.167 1625,827.5C 1624.67,821.833 1624.33,816.167 1624,810.5C 1623.89,808.026 1622.89,806.026 1621,804.5C 1620.68,799.134 1620.18,793.801 1619.5,788.5C 1618.5,788.5 1617.5,788.5 1616.5,788.5C 1617.33,781.724 1616.17,775.391 1613,769.5C 1612.61,765.472 1612.11,761.472 1611.5,757.5C 1610.5,757.5 1609.5,757.5 1608.5,757.5C 1608.69,753.434 1608.36,749.434 1607.5,745.5C 1607.72,741.513 1607.05,737.68 1605.5,734C 1601.85,722.396 1597.68,710.563 1593,698.5C 1592.5,697.333 1591.67,696.5 1590.5,696C 1590.69,694.172 1591.02,692.338 1591.5,690.5 Z"/></g>
<g><path style="opacity:1" fill="#ed8384" d="M 568.5,479.5 C 569.239,479.369 569.906,479.536 570.5,480C 483.032,545.764 417.699,628.93 374.5,729.5C 360.618,759.64 349.785,790.973 342,823.5C 311.963,943.034 321.963,1059.03 372,1171.5C 384.104,1196.7 396.271,1221.37 408.5,1245.5C 310.99,1084.39 297.156,916.056 367,740.5C 407.563,641.55 469.396,558.383 552.5,491C 557.712,486.948 563.045,483.115 568.5,479.5 Z"/></g>
<g><path style="opacity:1" fill="#ed686a" d="M 376.5,858.5 C 377.162,860.304 377.495,862.304 377.5,864.5C 376.167,883.143 375.334,901.81 375,920.5C 374.129,899.79 374.629,879.123 376.5,858.5 Z"/></g>
<g><path style="opacity:1" fill="#f6c0c0" d="M 1644.5,1013.5 C 1644.5,1014.17 1644.83,1014.5 1645.5,1014.5C 1644.38,1021.5 1643.21,1028.5 1642,1035.5C 1641.86,1027.94 1642.7,1020.61 1644.5,1013.5 Z"/></g>
<g><path style="opacity:1" fill="#ee8688" d="M 394.5,1050.5 C 401.657,1074.78 408.991,1099.11 416.5,1123.5C 407.169,1099.86 399.836,1075.53 394.5,1050.5 Z"/></g>
<g><path style="opacity:1" fill="#faefef" d="M 393.5,1104.5 C 399.845,1122.88 406.512,1141.21 413.5,1159.5C 412.71,1160.61 412.21,1161.94 412,1163.5C 410.27,1161.92 408.437,1160.59 406.5,1159.5C 405.864,1155.22 404.364,1151.22 402,1147.5C 395.58,1139.65 389.913,1131.32 385,1122.5C 383.302,1123.53 382.468,1125.03 382.5,1127C 384.246,1131.71 384.746,1136.54 384,1141.5C 379.197,1146.37 376.53,1145.37 376,1138.5C 375.23,1137.4 374.397,1137.4 373.5,1138.5C 370.831,1131.16 368.164,1123.83 365.5,1116.5C 366.117,1116.39 366.617,1116.06 367,1115.5C 368.252,1117 369.252,1118.67 370,1120.5C 370.333,1119.5 370.667,1118.5 371,1117.5C 374.5,1115.33 377.333,1112.5 379.5,1109C 381.167,1108.33 382.833,1108.33 384.5,1109C 387.011,1111.18 389.178,1113.68 391,1116.5C 393.743,1122.99 396.743,1129.32 400,1135.5C 400.667,1133.83 400.667,1132.17 400,1130.5C 397.269,1122.74 394.769,1114.91 392.5,1107C 392.743,1106.1 393.077,1105.26 393.5,1104.5 Z"/></g>
<g><path style="opacity:1" fill="#ed7f81" d="M 1662.5,1012.5 C 1658.14,1040.44 1652.31,1068.11 1645,1095.5C 1636.99,1121.84 1628.16,1147.84 1618.5,1173.5C 1617.88,1173.61 1617.38,1173.94 1617,1174.5C 1616.72,1173.58 1616.22,1172.92 1615.5,1172.5C 1636.89,1120.3 1652.05,1066.3 1661,1010.5C 1661.28,1011.42 1661.78,1012.08 1662.5,1012.5 Z"/></g>
<g><path style="opacity:1" fill="#fae4e5" d="M 406.5,1159.5 C 403.443,1155.74 400.61,1151.74 398,1147.5C 396.292,1145.46 394.292,1143.79 392,1142.5C 389.92,1144.99 388.086,1147.66 386.5,1150.5C 385.264,1151.25 383.93,1151.58 382.5,1151.5C 382.349,1147.69 380.349,1146.02 376.5,1146.5C 375.499,1143.83 374.499,1141.16 373.5,1138.5C 374.397,1137.4 375.23,1137.4 376,1138.5C 376.53,1145.37 379.197,1146.37 384,1141.5C 384.746,1136.54 384.246,1131.71 382.5,1127C 382.468,1125.03 383.302,1123.53 385,1122.5C 389.913,1131.32 395.58,1139.65 402,1147.5C 404.364,1151.22 405.864,1155.22 406.5,1159.5 Z"/></g>
<g><path style="opacity:1" fill="#f9cece" d="M 406.5,1159.5 C 410.04,1167.46 413.373,1175.46 416.5,1183.5C 415.833,1183.5 415.167,1183.5 414.5,1183.5C 412.98,1178.94 410.98,1175.11 408.5,1172C 409.634,1170.98 409.301,1170.32 407.5,1170C 407.833,1169.67 408.167,1169.33 408.5,1169C 406.248,1167.91 404.915,1166.08 404.5,1163.5C 402.401,1162.03 400.234,1160.7 398,1159.5C 396.225,1160.27 394.725,1161.44 393.5,1163C 391.126,1162.6 388.793,1162.76 386.5,1163.5C 385.832,1161.07 385.498,1158.74 385.5,1156.5C 383.891,1156.61 382.225,1156.28 380.5,1155.5C 379.441,1152.38 378.108,1149.38 376.5,1146.5C 380.349,1146.02 382.349,1147.69 382.5,1151.5C 383.93,1151.58 385.264,1151.25 386.5,1150.5C 388.086,1147.66 389.92,1144.99 392,1142.5C 394.292,1143.79 396.292,1145.46 398,1147.5C 400.61,1151.74 403.443,1155.74 406.5,1159.5 Z"/></g>
<g><path style="opacity:1" fill="#f9e5e5" d="M 406.5,1159.5 C 408.437,1160.59 410.27,1161.92 412,1163.5C 412.21,1161.94 412.71,1160.61 413.5,1159.5C 421.86,1177.89 430.526,1196.22 439.5,1214.5C 437.559,1214.13 435.725,1213.46 434,1212.5C 431.488,1208.81 429.488,1204.81 428,1200.5C 427,1199.83 426,1199.17 425,1198.5C 423.318,1194.11 421.484,1189.77 419.5,1185.5C 418.643,1184.57 417.643,1183.91 416.5,1183.5C 413.373,1175.46 410.04,1167.46 406.5,1159.5 Z"/></g>
<g><path style="opacity:1" fill="#f3bebe" d="M 380.5,1155.5 C 382.225,1156.28 383.891,1156.61 385.5,1156.5C 385.498,1158.74 385.832,1161.07 386.5,1163.5C 388.793,1162.76 391.126,1162.6 393.5,1163C 394.725,1161.44 396.225,1160.27 398,1159.5C 400.234,1160.7 402.401,1162.03 404.5,1163.5C 404.915,1166.08 406.248,1167.91 408.5,1169C 408.167,1169.33 407.833,1169.67 407.5,1170C 409.301,1170.32 409.634,1170.98 408.5,1172C 410.98,1175.11 412.98,1178.94 414.5,1183.5C 410.597,1177.09 405.764,1171.43 400,1166.5C 396.854,1168.83 393.354,1170.16 389.5,1170.5C 390.543,1165.54 388.876,1163.87 384.5,1165.5C 383.164,1162.16 381.831,1158.83 380.5,1155.5 Z"/></g>
<g><path style="opacity:1" fill="#f3b0b1" d="M 414.5,1183.5 C 415.167,1183.5 415.833,1183.5 416.5,1183.5C 418.572,1187.99 420.406,1192.66 422,1197.5C 422.615,1199.12 423.615,1200.45 425,1201.5C 425.49,1202.79 425.657,1204.13 425.5,1205.5C 421.897,1200.63 419.064,1195.3 417,1189.5C 414.509,1187.71 412.342,1185.54 410.5,1183C 407.249,1180.07 403.915,1179.9 400.5,1182.5C 398.851,1181.35 397.351,1180.02 396,1178.5C 395.667,1179.17 395.333,1179.83 395,1180.5C 394.293,1178.92 393.46,1177.42 392.5,1176C 391.563,1175.31 390.897,1175.47 390.5,1176.5C 388.262,1173.03 386.262,1169.36 384.5,1165.5C 388.876,1163.87 390.543,1165.54 389.5,1170.5C 393.354,1170.16 396.854,1168.83 400,1166.5C 405.764,1171.43 410.597,1177.09 414.5,1183.5 Z"/></g>
<g><path style="opacity:1" fill="#f3a4a5" d="M 425.5,1205.5 C 429.274,1209.17 432.774,1213.17 436,1217.5C 438.391,1221.39 440.558,1225.39 442.5,1229.5C 440.192,1226.71 437.359,1224.37 434,1222.5C 428.726,1212.87 422.226,1204.04 414.5,1196C 411.411,1195.03 408.244,1194.53 405,1194.5C 403.989,1195.06 403.156,1195.72 402.5,1196.5C 400.549,1192.53 398.549,1188.53 396.5,1184.5C 395.575,1183.44 394.575,1183.44 393.5,1184.5C 391.94,1182.05 390.94,1179.38 390.5,1176.5C 390.897,1175.47 391.563,1175.31 392.5,1176C 393.46,1177.42 394.293,1178.92 395,1180.5C 395.333,1179.83 395.667,1179.17 396,1178.5C 397.351,1180.02 398.851,1181.35 400.5,1182.5C 403.915,1179.9 407.249,1180.07 410.5,1183C 412.342,1185.54 414.509,1187.71 417,1189.5C 419.064,1195.3 421.897,1200.63 425.5,1205.5 Z"/></g>
<g><path style="opacity:1" fill="#f08e8f" d="M 1615.5,1172.5 C 1616.22,1172.92 1616.72,1173.58 1617,1174.5C 1617.38,1173.94 1617.88,1173.61 1618.5,1173.5C 1615.7,1180.71 1613.2,1188.04 1611,1195.5C 1606.14,1205.96 1600.64,1215.96 1594.5,1225.5C 1594.59,1223.3 1593.92,1222.97 1592.5,1224.5C 1600.7,1207.43 1608.37,1190.1 1615.5,1172.5 Z"/></g>
<g><path style="opacity:1" fill="#f3999a" d="M 442.5,1229.5 C 444.817,1231.8 447.484,1233.8 450.5,1235.5C 453.194,1238.88 455.527,1242.54 457.5,1246.5C 456.365,1248.21 454.698,1248.88 452.5,1248.5C 450.158,1244.78 448.158,1240.78 446.5,1236.5C 445.205,1235.9 443.872,1235.4 442.5,1235C 438.833,1230.67 435.167,1226.33 431.5,1222C 427.649,1218.22 423.482,1217.72 419,1220.5C 417.921,1218.61 416.587,1218.27 415,1219.5C 410.823,1211.81 406.656,1204.14 402.5,1196.5C 403.156,1195.72 403.989,1195.06 405,1194.5C 408.244,1194.53 411.411,1195.03 414.5,1196C 422.226,1204.04 428.726,1212.87 434,1222.5C 437.359,1224.37 440.192,1226.71 442.5,1229.5 Z"/></g>
<g><path style="opacity:1" fill="#f7c9c9" d="M 416.5,1183.5 C 417.643,1183.91 418.643,1184.57 419.5,1185.5C 421.484,1189.77 423.318,1194.11 425,1198.5C 426,1199.17 427,1199.83 428,1200.5C 429.488,1204.81 431.488,1208.81 434,1212.5C 435.725,1213.46 437.559,1214.13 439.5,1214.5C 443.418,1221.33 447.085,1228.33 450.5,1235.5C 447.484,1233.8 444.817,1231.8 442.5,1229.5C 440.558,1225.39 438.391,1221.39 436,1217.5C 432.774,1213.17 429.274,1209.17 425.5,1205.5C 425.657,1204.13 425.49,1202.79 425,1201.5C 423.615,1200.45 422.615,1199.12 422,1197.5C 420.406,1192.66 418.572,1187.99 416.5,1183.5 Z"/></g>
<g><path style="opacity:1" fill="#ef8b8c" d="M 402.5,1196.5 C 406.656,1204.14 410.823,1211.81 415,1219.5C 416.587,1218.27 417.921,1218.61 419,1220.5C 423.482,1217.72 427.649,1218.22 431.5,1222C 435.167,1226.33 438.833,1230.67 442.5,1235C 443.872,1235.4 445.205,1235.9 446.5,1236.5C 448.158,1240.78 450.158,1244.78 452.5,1248.5C 454.698,1248.88 456.365,1248.21 457.5,1246.5C 464.913,1258.99 472.58,1271.33 480.5,1283.5C 479.25,1283.58 478.417,1284.24 478,1285.5C 470.881,1277.2 464.714,1268.2 459.5,1258.5C 454.437,1254.05 448.604,1251.05 442,1249.5C 438.775,1249.7 435.941,1250.7 433.5,1252.5C 433.068,1251.29 432.401,1250.29 431.5,1249.5C 432.674,1247.63 432.007,1246.63 429.5,1246.5C 429.107,1244.72 428.441,1243.05 427.5,1241.5C 427.5,1240.17 426.833,1239.5 425.5,1239.5C 422.672,1232.84 418.839,1226.84 414,1221.5C 413.667,1221.83 413.333,1222.17 413,1222.5C 406.232,1209.96 399.732,1197.3 393.5,1184.5C 394.575,1183.44 395.575,1183.44 396.5,1184.5C 398.549,1188.53 400.549,1192.53 402.5,1196.5 Z"/></g>
<g><path style="opacity:1" fill="#ed8183" d="M 480.5,1283.5 C 498.613,1309.13 518.113,1333.8 539,1357.5C 539.667,1358.17 539.667,1358.83 539,1359.5C 538.292,1358.62 537.458,1357.95 536.5,1357.5C 533.799,1355.78 531.299,1353.78 529,1351.5C 522.093,1343.35 515.426,1335.02 509,1326.5C 506.254,1323.12 502.92,1320.46 499,1318.5C 498.365,1317.03 497.531,1315.7 496.5,1314.5C 497.709,1309.2 496.542,1308.53 493,1312.5C 491.185,1310.6 489.185,1308.93 487,1307.5C 481.711,1302.28 477.378,1296.28 474,1289.5C 471.655,1286.82 468.988,1284.49 466,1282.5C 464.004,1279.99 462.171,1277.33 460.5,1274.5C 459.232,1275.43 457.899,1275.59 456.5,1275C 455.853,1273.39 455.02,1271.89 454,1270.5C 453.833,1271.33 453.667,1272.17 453.5,1273C 454.535,1274.84 455.535,1276.67 456.5,1278.5C 456.547,1280 455.881,1281 454.5,1281.5C 453.548,1279.95 453.215,1278.29 453.5,1276.5C 451.833,1276.5 450.167,1276.5 448.5,1276.5C 448.5,1274.17 448.5,1271.83 448.5,1269.5C 447.167,1269.5 445.833,1269.5 444.5,1269.5C 445.084,1266.71 444.084,1265.05 441.5,1264.5C 440.5,1264.17 439.833,1263.5 439.5,1262.5C 440.234,1261.29 440.567,1259.96 440.5,1258.5C 439.5,1258.5 438.5,1258.5 437.5,1258.5C 436.833,1257.83 436.167,1257.17 435.5,1256.5C 435.737,1255.21 435.404,1254.21 434.5,1253.5C 433.833,1253.5 433.5,1253.17 433.5,1252.5C 435.941,1250.7 438.775,1249.7 442,1249.5C 448.604,1251.05 454.437,1254.05 459.5,1258.5C 464.714,1268.2 470.881,1277.2 478,1285.5C 478.417,1284.24 479.25,1283.58 480.5,1283.5 Z"/></g>
<g><path style="opacity:1" fill="#ec7d7c" d="M 457.5,1283.5 C 459.104,1284.29 459.771,1285.62 459.5,1287.5C 458.325,1287.72 457.325,1287.39 456.5,1286.5C 457.127,1285.58 457.461,1284.58 457.5,1283.5 Z"/></g>
<g><path style="opacity:1" fill="#ed696a" d="M 461.5,1222.5 C 500.171,1289.41 548.171,1349.08 605.5,1401.5C 606.29,1402.79 607.29,1403.96 608.5,1405C 607.833,1405.67 607.167,1405.67 606.5,1405C 547.41,1352.64 498.41,1292.14 459.5,1223.5C 459.409,1221.3 460.075,1220.97 461.5,1222.5 Z"/></g>
<g><path style="opacity:1" fill="#ec7d7c" d="M 461.5,1290.5 C 462.931,1291.78 463.598,1293.45 463.5,1295.5C 462.5,1295.5 461.5,1295.5 460.5,1295.5C 460.629,1293.78 460.962,1292.12 461.5,1290.5 Z"/></g>
<g><path style="opacity:1" fill="#ed8486" d="M 1594.5,1225.5 C 1580.37,1255.78 1563.7,1284.45 1544.5,1311.5C 1544.19,1310.26 1543.69,1310.26 1543,1311.5C 1560.44,1283.3 1576.94,1254.3 1592.5,1224.5C 1593.92,1222.97 1594.59,1223.3 1594.5,1225.5 Z"/></g>
<g><path style="opacity:1" fill="#ed686a" d="M 460.5,1300.5 C 481.296,1331.97 503.296,1362.64 526.5,1392.5C 526.062,1392.43 525.728,1392.6 525.5,1393C 527.329,1394.11 528.163,1395.61 528,1397.5C 510.869,1376.22 494.369,1354.55 478.5,1332.5C 471.855,1321.89 465.188,1311.22 458.5,1300.5C 458.97,1299.54 459.637,1299.54 460.5,1300.5 Z"/></g>
<g><path style="opacity:1" fill="#ee8384" d="M 1541.5,1315.5 C 1533.56,1327.95 1525.39,1340.28 1517,1352.5C 1502.33,1370.5 1487.67,1388.5 1473,1406.5C 1466.7,1412.39 1460.54,1418.39 1454.5,1424.5C 1453.47,1424.1 1453.31,1423.44 1454,1422.5C 1485.38,1389.14 1513.71,1353.47 1539,1315.5C 1539.77,1314.4 1540.6,1314.4 1541.5,1315.5 Z"/></g>
<g><path style="opacity:1" fill="#ed7576" d="M 1665.5,981.5 C 1664.43,991.818 1663.43,1002.15 1662.5,1012.5C 1661.78,1012.08 1661.28,1011.42 1661,1010.5C 1652.05,1066.3 1636.89,1120.3 1615.5,1172.5C 1608.37,1190.1 1600.7,1207.43 1592.5,1224.5C 1576.94,1254.3 1560.44,1283.3 1543,1311.5C 1543.69,1310.26 1544.19,1310.26 1544.5,1311.5C 1543.49,1312.87 1542.49,1314.2 1541.5,1315.5C 1540.6,1314.4 1539.77,1314.4 1539,1315.5C 1513.71,1353.47 1485.38,1389.14 1454,1422.5C 1453.31,1423.44 1453.47,1424.1 1454.5,1424.5C 1452.83,1426.34 1451.33,1428.34 1450,1430.5C 1414.7,1467.32 1376.87,1500.98 1336.5,1531.5C 1336.1,1530.47 1335.44,1530.31 1334.5,1531C 1279.67,1572.6 1220,1606.27 1155.5,1632C 1156.09,1632.46 1156.76,1632.63 1157.5,1632.5C 1114.8,1649.51 1070.47,1660.18 1024.5,1664.5C 1024.39,1663.88 1024.06,1663.38 1023.5,1663C 1063.57,1657.15 1102.91,1647.82 1141.5,1635C 1191.09,1616.03 1238.43,1592.69 1283.5,1565C 1330.12,1533.39 1374.12,1498.39 1415.5,1460C 1493.05,1385.17 1554.89,1299.34 1601,1202.5C 1636.08,1126.24 1657.08,1046.24 1664,962.5C 1664.7,967.695 1664.54,972.861 1663.5,978C 1663.39,979.699 1664.05,980.866 1665.5,981.5 Z"/></g>
<g><path style="opacity:1" fill="#ed6769" d="M 531.5,1399.5 C 548.038,1419.71 565.371,1439.38 583.5,1458.5C 597.681,1472.52 612.015,1486.35 626.5,1500C 677.878,1545.37 734.878,1582.2 797.5,1610.5C 798.6,1611.56 799.934,1612.39 801.5,1613C 782.195,1606.02 763.529,1597.35 745.5,1587C 723.105,1574.48 701.439,1560.98 680.5,1546.5C 654.313,1526.54 628.98,1505.38 604.5,1483C 591.333,1468.5 577.5,1454.67 563,1441.5C 562.439,1439.27 561.439,1437.27 560,1435.5C 549.626,1424.13 539.626,1412.46 530,1400.5C 529.395,1398.36 529.895,1398.03 531.5,1399.5 Z"/></g>
<g><path style="opacity:1" fill="#ed7575" d="M 1436.5,1416.5 C 1416.71,1436.71 1395.04,1454.55 1371.5,1470C 1370.83,1471 1370.17,1472 1369.5,1473C 1341.57,1491.27 1312.9,1508.27 1283.5,1524C 1281.48,1524.5 1279.48,1525 1277.5,1525.5C 1285.28,1520.77 1293.28,1516.27 1301.5,1512C 1301.83,1511.67 1302.17,1511.33 1302.5,1511C 1301.23,1511.11 1300.23,1510.94 1299.5,1510.5C 1301.18,1508.99 1303.18,1507.99 1305.5,1507.5C 1302.9,1510.72 1303.57,1511.22 1307.5,1509C 1353.74,1482.58 1396.74,1451.74 1436.5,1416.5 Z"/></g>
<g><path style="opacity:1" fill="#f7cdcd" d="M 1385.5,1468.5 C 1386.24,1468.37 1386.91,1468.54 1387.5,1469C 1384.31,1471.43 1381.31,1474.1 1378.5,1477C 1377.5,1477.67 1376.5,1477.67 1375.5,1477C 1379.02,1474.3 1382.36,1471.47 1385.5,1468.5 Z"/></g>
<g><path style="opacity:1" fill="#ed686a" d="M 1547.5,1277.5 C 1516.5,1328.42 1479.5,1374.76 1436.5,1416.5C 1396.74,1451.74 1353.74,1482.58 1307.5,1509C 1303.57,1511.22 1302.9,1510.72 1305.5,1507.5C 1397.68,1456.83 1472.84,1387.5 1531,1299.5C 1536.53,1290.44 1542.03,1281.44 1547.5,1272.5C 1548.46,1272.05 1549.29,1271.38 1550,1270.5C 1550.17,1270.83 1550.33,1271.17 1550.5,1271.5C 1548.96,1273.24 1547.96,1275.24 1547.5,1277.5 Z"/></g>
<g><path style="opacity:1" fill="#ed696b" d="M 611.5,1406.5 C 683.082,1467.47 764.082,1512.14 854.5,1540.5C 852.374,1541.1 850.041,1541.1 847.5,1540.5C 758.655,1512.26 679.322,1467.76 609.5,1407C 610.094,1406.54 610.761,1406.37 611.5,1406.5 Z"/></g>
<g><path style="opacity:1" fill="#ed696c" d="M 1299.5,1510.5 C 1300.23,1510.94 1301.23,1511.11 1302.5,1511C 1302.17,1511.33 1301.83,1511.67 1301.5,1512C 1293.28,1516.27 1285.28,1520.77 1277.5,1525.5C 1262.78,1531.35 1248.11,1537.52 1233.5,1544C 1230.12,1544.63 1229.79,1544.13 1232.5,1542.5C 1255.13,1532.69 1277.47,1522.02 1299.5,1510.5 Z"/></g>
<g><path style="opacity:1" fill="#ed7273" d="M 1277.5,1525.5 C 1277.05,1526.46 1276.38,1527.29 1275.5,1528C 1250.38,1538.63 1225.04,1548.96 1199.5,1559C 1187.47,1562.45 1175.47,1566.12 1163.5,1570C 1154.02,1572.88 1144.35,1575.05 1134.5,1576.5C 1131.18,1576.02 1128.84,1574.18 1127.5,1571C 1048.26,1578.08 969.924,1572.41 892.5,1554C 891.3,1552.97 889.966,1552.14 888.5,1551.5C 874.25,1549.52 860.583,1545.86 847.5,1540.5C 850.041,1541.1 852.374,1541.1 854.5,1540.5C 929.646,1562.14 1006.31,1571.64 1084.5,1569C 1097.55,1568.27 1110.55,1567.1 1123.5,1565.5C 1128.35,1566.17 1132.18,1568.51 1135,1572.5C 1147.23,1569.76 1159.4,1566.59 1171.5,1563C 1191.89,1556.26 1212.23,1549.42 1232.5,1542.5C 1229.79,1544.13 1230.12,1544.63 1233.5,1544C 1248.11,1537.52 1262.78,1531.35 1277.5,1525.5 Z"/></g>
<g><path style="opacity:1" fill="#ed7172" d="M 657.5,1459.5 C 662.743,1464.13 668.41,1468.3 674.5,1472C 697.838,1485.33 721.171,1498.67 744.5,1512C 767.617,1522.44 790.951,1532.27 814.5,1541.5C 837.18,1548.23 859.846,1555.06 882.5,1562C 888.193,1561.68 893.193,1563.35 897.5,1567C 896.944,1567.38 896.611,1567.88 896.5,1568.5C 826.383,1552.6 760.383,1526.44 698.5,1490C 682.502,1481.14 667.502,1470.98 653.5,1459.5C 654.632,1458.65 655.965,1458.65 657.5,1459.5 Z"/></g>
<g><path style="opacity:1" fill="#ed7476" d="M 1321.5,1525.5 C 1323.76,1523.35 1326.09,1521.18 1328.5,1519C 1327.94,1518.62 1327.61,1518.12 1327.5,1517.5C 1330.31,1515.52 1332.64,1513.02 1334.5,1510C 1341.71,1505.23 1348.71,1500.23 1355.5,1495C 1356.65,1494.09 1356.49,1493.25 1355,1492.5C 1246.32,1562.03 1127.15,1598.7 997.5,1602.5C 1002.32,1601.67 1007.32,1601.17 1012.5,1601C 990.329,1600.17 968.329,1600.34 946.5,1601.5C 890.581,1598.42 835.915,1588.58 782.5,1572C 780.142,1562.82 783.476,1560.15 792.5,1564C 852.399,1582.56 913.733,1591.4 976.5,1590.5C 979.641,1591.32 982.975,1591.82 986.5,1592C 971.833,1592.33 957.167,1592.67 942.5,1593C 981.289,1594.49 1019.96,1593.16 1058.5,1589C 1053.13,1588.68 1047.8,1588.18 1042.5,1587.5C 1025.76,1586.95 1009.1,1585.62 992.5,1583.5C 992.389,1582.88 992.056,1582.38 991.5,1582C 994.167,1581.83 996.833,1581.67 999.5,1581.5C 1021.17,1582.81 1042.84,1582.81 1064.5,1581.5C 1070.5,1582 1076.5,1582.5 1082.5,1583C 1083.83,1583.67 1083.83,1584.33 1082.5,1585C 1079.24,1585.75 1076.58,1587.42 1074.5,1590C 1059.49,1591.11 1044.49,1592.45 1029.5,1594C 946.807,1599.88 865.973,1590.71 787,1566.5C 785.216,1567.67 785.216,1568.67 787,1569.5C 793.582,1572.03 800.415,1573.86 807.5,1575C 809.839,1576.32 812.005,1577.82 814,1579.5C 818.11,1577.91 821.943,1578.41 825.5,1581C 837.144,1583.32 848.81,1585.66 860.5,1588C 916.385,1598.12 972.718,1601.12 1029.5,1597C 1109.92,1591.06 1186.59,1571.73 1259.5,1539C 1296.28,1521.94 1331.94,1502.78 1366.5,1481.5C 1367.29,1482.36 1366.96,1483.19 1365.5,1484C 1366.83,1484 1368.17,1484 1369.5,1484C 1370.83,1485 1370.83,1486 1369.5,1487C 1365.5,1490 1361.5,1493 1357.5,1496C 1346.8,1507.5 1334.8,1517.34 1321.5,1525.5 Z M 1356.5,1490.5 C 1356.37,1491.24 1356.54,1491.91 1357,1492.5C 1359.17,1491.18 1359,1490.51 1356.5,1490.5 Z"/></g>
<g><path style="opacity:1" fill="#ed7173" d="M 834.5,1641.5 C 797.793,1629.81 762.793,1614.31 729.5,1595C 666.255,1558.61 610.255,1513.11 561.5,1458.5C 561.938,1458.57 562.272,1458.4 562.5,1458C 560.384,1456.83 559.718,1455.33 560.5,1453.5C 575.598,1469.1 590.932,1484.6 606.5,1500C 625.629,1517.47 645.629,1533.8 666.5,1549C 667.833,1550.67 669.167,1552.33 670.5,1554C 684.494,1561.6 697.827,1570.6 710.5,1581C 714.175,1581.17 716.842,1582.83 718.5,1586C 726.447,1590.81 734.781,1594.81 743.5,1598C 772.163,1615 802.496,1628.34 834.5,1638C 836.931,1639.09 836.931,1640.26 834.5,1641.5 Z"/></g>
<g><path style="opacity:1" fill="#ed7f80" d="M 1336.5,1531.5 C 1295.08,1563.74 1250.41,1591.24 1202.5,1614C 1187.71,1620.73 1172.71,1626.9 1157.5,1632.5C 1156.76,1632.63 1156.09,1632.46 1155.5,1632C 1220,1606.27 1279.67,1572.6 1334.5,1531C 1335.44,1530.31 1336.1,1530.47 1336.5,1531.5 Z"/></g>
<g><path style="opacity:1" fill="#ed7072" d="M 1327.5,1517.5 C 1327.61,1518.12 1327.94,1518.62 1328.5,1519C 1326.09,1521.18 1323.76,1523.35 1321.5,1525.5C 1317.64,1529.45 1313.31,1532.95 1308.5,1536C 1297.8,1540.37 1288.47,1546.71 1280.5,1555C 1237.2,1583.32 1191.2,1606.32 1142.5,1624C 1080.48,1646.78 1016.48,1656.11 950.5,1652C 850.311,1642.04 760.311,1606.87 680.5,1546.5C 701.439,1560.98 723.105,1574.48 745.5,1587C 763.529,1597.35 782.195,1606.02 801.5,1613C 799.934,1612.39 798.6,1611.56 797.5,1610.5C 856.763,1635.44 918.596,1648.44 983,1649.5C 1033.03,1648.56 1081.86,1640.4 1129.5,1625C 1187.83,1604.17 1242.5,1576.5 1293.5,1542C 1304.45,1533.2 1315.79,1525.03 1327.5,1517.5 Z"/></g>
<g><path style="opacity:1" fill="#f08c8d" d="M 997.5,1602.5 C 980.377,1603.87 963.377,1603.53 946.5,1601.5C 968.329,1600.34 990.329,1600.17 1012.5,1601C 1007.32,1601.17 1002.32,1601.67 997.5,1602.5 Z"/></g>
<g><path style="opacity:1" fill="#ed6b6e" d="M 1042.5,1587.5 C 1047.8,1588.18 1053.13,1588.68 1058.5,1589C 1019.96,1593.16 981.289,1594.49 942.5,1593C 957.167,1592.67 971.833,1592.33 986.5,1592C 982.975,1591.82 979.641,1591.32 976.5,1590.5C 990.171,1590.67 1003.84,1590.5 1017.5,1590C 1026.06,1589.9 1034.39,1589.07 1042.5,1587.5 Z"/></g>
<g><path style="opacity:1" fill="#f8d3d3" d="M 1065.5,1585.5 C 1067.74,1585.21 1069.74,1585.54 1071.5,1586.5C 1063.14,1587.94 1054.81,1587.78 1046.5,1586C 1052.82,1585.5 1059.16,1585.33 1065.5,1585.5 Z"/></g>
<g><path style="opacity:1" fill="#f3a3a3" d="M 1065.5,1585.5 C 1069.65,1584.35 1073.98,1584.19 1078.5,1585C 1076.13,1585.44 1073.8,1585.94 1071.5,1586.5C 1069.74,1585.54 1067.74,1585.21 1065.5,1585.5 Z"/></g>
<g><path style="opacity:1" fill="#ed6163" d="M 973.5,1567.5 C 974.793,1566.84 976.293,1566.51 978,1566.5C 1003.76,1569.27 1029.59,1570.6 1055.5,1570.5C 1075.86,1570.36 1096.19,1569.86 1116.5,1569C 1068.8,1573.24 1021.13,1572.74 973.5,1567.5 Z"/></g>
<g><path style="opacity:1" fill="#ef8d8e" d="M 1000.5,1665.5 C 984.507,1666.73 968.507,1666.73 952.5,1665.5C 954.223,1664.2 956.39,1663.53 959,1663.5C 972.668,1664.81 986.335,1664.81 1000,1663.5C 1001.83,1663.67 1003.67,1663.83 1005.5,1664C 1003.62,1664.2 1001.95,1664.7 1000.5,1665.5 Z"/></g>
</svg>
