<?xml version="1.0" encoding="UTF-8"?>
<!DOCTYPE svg PUBLIC "-//W3C//DTD SVG 1.1//EN" "http://www.w3.org/Graphics/SVG/1.1/DTD/svg11.dtd">
<svg xmlns="http://www.w3.org/2000/svg" version="1.1" width="2000px" height="2000px" style="shape-rendering:geometricPrecision; text-rendering:geometricPrecision; image-rendering:optimizeQuality; fill-rule:evenodd; clip-rule:evenodd" xmlns:xlink="http://www.w3.org/1999/xlink">
<g><path style="opacity:1" fill="#6f6451" d="M 1834.5,933.5 C 1834.5,933.833 1834.5,934.167 1834.5,934.5C 1799.82,934.815 1769.15,935.482 1742.5,936.5C 1736.68,937.653 1730.68,937.819 1724.5,937C 1726.72,936.434 1728.72,935.6 1730.5,934.5C 1765.17,934.167 1799.83,933.833 1834.5,933.5 Z"/></g>
<g><path style="opacity:1" fill="#625542" d="M 1834.5,934.5 C 1834.5,934.167 1834.5,933.833 1834.5,933.5C 1875.83,933.333 1917.17,933.5 1958.5,934C 1963.82,936.452 1965.32,940.285 1963,945.5C 1962.33,946.252 1961.5,946.586 1960.5,946.5C 1962.33,944.504 1962.83,942.171 1962,939.5C 1961.84,941.676 1961,943.509 1959.5,945C 1930.17,945.333 1900.83,945.667 1871.5,946C 1875.7,946.528 1879.7,947.361 1883.5,948.5C 1865.5,948.5 1847.5,948.5 1829.5,948.5C 1842.33,947.669 1855.33,947.169 1868.5,947C 1820.83,946.444 1773.16,946.611 1725.5,947.5C 1671.82,948.451 1618.15,949.951 1564.5,952C 1564.17,952.333 1563.83,952.667 1563.5,953C 1565.06,953.21 1566.39,953.71 1567.5,954.5C 1561.17,954.5 1554.83,954.5 1548.5,954.5C 1548.92,953.778 1549.58,953.278 1550.5,953C 1525.78,952.79 1501.11,953.79 1476.5,956C 1478.06,956.21 1479.39,956.71 1480.5,957.5C 1475.83,957.5 1471.17,957.5 1466.5,957.5C 1462.35,956.353 1458.02,956.186 1453.5,957C 1454.06,957.383 1454.39,957.883 1454.5,958.5C 1443.18,959.222 1431.85,959.555 1420.5,959.5C 1417.52,958.835 1414.35,958.502 1411,958.5C 1407.42,958.515 1404.26,959.182 1401.5,960.5C 1389.88,961.782 1378.21,962.449 1366.5,962.5C 1369.64,961.679 1372.97,961.179 1376.5,961C 1361.49,961.079 1346.49,961.745 1331.5,963C 1332.06,963.383 1332.39,963.883 1332.5,964.5C 1318.36,966.114 1304.03,967.114 1289.5,967.5C 1291.63,966.686 1293.96,966.186 1296.5,966C 1288.14,965.525 1279.81,965.858 1271.5,967C 1273.06,967.21 1274.39,967.71 1275.5,968.5C 1266.27,969.915 1256.94,970.582 1247.5,970.5C 1249.29,969.691 1251.29,969.191 1253.5,969C 1241.8,968.845 1230.13,969.512 1218.5,971C 1220.06,971.21 1221.39,971.71 1222.5,972.5C 1213.02,973.92 1203.35,974.92 1193.5,975.5C 1196.01,973.763 1199.01,972.93 1202.5,973C 1195.45,972.27 1188.45,972.603 1181.5,974C 1183.71,974.191 1185.71,974.691 1187.5,975.5C 1175.55,977.029 1163.55,978.029 1151.5,978.5C 1159.39,976.858 1168.05,975.691 1177.5,975C 1161.09,975.173 1144.76,976.506 1128.5,979C 1130.38,979.198 1132.05,979.698 1133.5,980.5C 1099.17,983.916 1064.84,987.249 1030.5,990.5C 1029.13,990.657 1027.79,990.49 1026.5,990C 1028.5,989.667 1030.5,989.333 1032.5,989C 1013.09,990.009 993.758,992.009 974.5,995C 975.416,995.278 976.082,995.778 976.5,996.5C 962.204,998.109 947.871,999.776 933.5,1001.5C 933.918,1000.78 934.584,1000.28 935.5,1000C 906.041,1002.42 876.708,1006.09 847.5,1011C 849.058,1011.21 850.391,1011.71 851.5,1012.5C 848.57,1013.3 845.57,1013.63 842.5,1013.5C 841.991,1012.66 842.657,1012.16 844.5,1012C 838.411,1011.62 832.411,1012.28 826.5,1014C 828.058,1014.21 829.391,1014.71 830.5,1015.5C 822.6,1017.25 814.6,1018.25 806.5,1018.5C 810.726,1016.92 816.392,1015.76 823.5,1015C 804.368,1016.47 785.368,1019.13 766.5,1023C 767.737,1023.23 768.737,1023.73 769.5,1024.5C 760.605,1026.27 751.605,1027.6 742.5,1028.5C 741.448,1028.65 740.448,1028.48 739.5,1028C 741.167,1027.67 742.833,1027.33 744.5,1027C 734.42,1027.46 724.42,1028.79 714.5,1031C 716.058,1031.21 717.391,1031.71 718.5,1032.5C 713.224,1033.68 707.891,1034.68 702.5,1035.5C 702.953,1034.54 703.619,1033.71 704.5,1033C 690.442,1034.68 676.442,1037.01 662.5,1040C 663.737,1040.23 664.737,1040.73 665.5,1041.5C 656.5,1042.83 647.5,1044.17 638.5,1045.5C 639.609,1044.71 640.942,1044.21 642.5,1044C 636.165,1044.26 629.832,1044.93 623.5,1046C 591.412,1052.02 559.412,1058.36 527.5,1065C 531.199,1065.1 534.866,1064.6 538.5,1063.5C 539.416,1063.54 540.083,1063.88 540.5,1064.5C 533.878,1065.96 527.211,1067.29 520.5,1068.5C 519.761,1068.63 519.094,1068.46 518.5,1068C 520.788,1067.18 523.122,1066.51 525.5,1066C 498.04,1070.76 470.707,1076.43 443.5,1083C 444.416,1083.28 445.082,1083.78 445.5,1084.5C 443.784,1084.63 442.117,1084.96 440.5,1085.5C 440.53,1084.5 440.03,1083.84 439,1083.5C 406.41,1090.46 373.91,1097.79 341.5,1105.5C 333.704,1107.36 326.037,1109.52 318.5,1112C 319.416,1112.28 320.082,1112.78 320.5,1113.5C 320.167,1113.5 319.833,1113.5 319.5,1113.5C 308.203,1113.57 297.203,1115.74 286.5,1120C 287.416,1120.28 288.082,1120.78 288.5,1121.5C 285.321,1122.79 281.988,1123.46 278.5,1123.5C 277.991,1122.66 278.657,1122.16 280.5,1122C 274.06,1122.52 267.727,1123.86 261.5,1126C 263.058,1126.21 264.391,1126.71 265.5,1127.5C 263.194,1127.99 260.861,1128.33 258.5,1128.5C 258.918,1127.78 259.584,1127.28 260.5,1127C 259.833,1126.83 259.167,1126.67 258.5,1126.5C 232.35,1133.37 206.35,1140.54 180.5,1148C 181.416,1148.28 182.082,1148.78 182.5,1149.5C 178.8,1151.25 174.8,1152.25 170.5,1152.5C 159.543,1156.74 148.21,1160.08 136.5,1162.5C 136.96,1161.46 138.293,1160.63 140.5,1160C 140,1159.83 139.5,1159.67 139,1159.5C 123.348,1164.12 107.848,1168.78 92.5,1173.5C 86.4527,1174.81 80.4527,1176.31 74.5,1178C 76.4727,1178.5 78.4727,1178.66 80.5,1178.5C 77.7699,1179.82 74.9365,1179.82 72,1178.5C 69.6654,1174.85 70.1654,1171.68 73.5,1169C 92.0429,1162.98 110.71,1157.48 129.5,1152.5C 129.938,1152.43 130.272,1152.6 130.5,1153C 127.937,1153.76 127.937,1154.26 130.5,1154.5C 142.318,1151.31 153.985,1147.81 165.5,1144C 160.612,1144.6 155.778,1145.76 151,1147.5C 150.235,1147.43 149.735,1147.1 149.5,1146.5C 189.741,1134.27 230.408,1123.27 271.5,1113.5C 270.739,1114.7 269.072,1115.53 266.5,1116C 277.629,1114.13 288.629,1111.47 299.5,1108C 299,1107.83 298.5,1107.67 298,1107.5C 296.003,1108.66 294.169,1108.66 292.5,1107.5C 305.879,1103.42 319.545,1100.09 333.5,1097.5C 336.097,1097.72 336.097,1098.22 333.5,1099C 342.342,1098.03 351.008,1096.03 359.5,1093C 358.263,1092.77 357.263,1092.27 356.5,1091.5C 371.363,1087.66 386.363,1084.33 401.5,1081.5C 400.15,1082.65 400.316,1083.32 402,1083.5C 409.883,1081.9 417.716,1080.07 425.5,1078C 423.866,1077.51 422.199,1077.34 420.5,1077.5C 430.216,1074.42 440.216,1072.09 450.5,1070.5C 451.239,1070.37 451.906,1070.54 452.5,1071C 451.5,1071.33 450.5,1071.67 449.5,1072C 465.937,1069.48 482.271,1066.14 498.5,1062C 497.263,1061.77 496.263,1061.27 495.5,1060.5C 503.729,1058.45 512.063,1056.79 520.5,1055.5C 521.552,1055.35 522.552,1055.52 523.5,1056C 517.799,1057.21 512.132,1058.54 506.5,1060C 517.253,1058.78 527.92,1056.78 538.5,1054C 536.942,1053.79 535.609,1053.29 534.5,1052.5C 567.182,1045.4 600.182,1039.4 633.5,1034.5C 632.737,1035.27 631.737,1035.77 630.5,1036C 637.494,1036.17 644.161,1035 650.5,1032.5C 663.823,1030.84 663.823,1030.5 650.5,1031.5C 658.173,1028.83 666.173,1027.16 674.5,1026.5C 675.334,1027.75 676.667,1028.41 678.5,1028.5C 690.529,1026.53 702.529,1024.36 714.5,1022C 710.327,1022.23 706.327,1022.06 702.5,1021.5C 778.549,1008.53 854.883,997.532 931.5,988.5C 932.552,988.351 933.552,988.517 934.5,989C 932.833,989.333 931.167,989.667 929.5,990C 935.894,990.183 942.227,989.516 948.5,988C 947.263,987.768 946.263,987.268 945.5,986.5C 948.764,985.676 952.098,985.342 955.5,985.5C 956.239,985.369 956.906,985.536 957.5,986C 955.833,986.333 954.167,986.667 952.5,987C 962.247,987.028 971.914,986.028 981.5,984C 980.263,983.768 979.263,983.268 978.5,982.5C 983.29,981.275 988.29,980.608 993.5,980.5C 993.389,981.117 993.056,981.617 992.5,982C 990.167,982.333 987.833,982.667 985.5,983C 991.972,983.766 998.305,983.266 1004.5,981.5C 1010.39,981.55 1016.06,980.884 1021.5,979.5C 1032.9,979.039 1044.23,977.872 1055.5,976C 1053.94,975.79 1052.61,975.29 1051.5,974.5C 1061.62,972.797 1071.95,971.797 1082.5,971.5C 1083.55,971.351 1084.55,971.517 1085.5,972C 1080.15,972.521 1074.81,973.187 1069.5,974C 1078.56,974.358 1087.56,973.691 1096.5,972C 1094.29,971.809 1092.29,971.309 1090.5,970.5C 1136.35,965.401 1182.35,961.401 1228.5,958.5C 1230.47,959.163 1232.64,959.496 1235,959.5C 1240.94,959.368 1245.44,958.701 1248.5,957.5C 1289.64,953.851 1330.97,950.851 1372.5,948.5C 1372.39,949.117 1372.06,949.617 1371.5,950C 1366.83,950.333 1362.17,950.667 1357.5,951C 1385.53,950.554 1413.53,949.221 1441.5,947C 1428.16,946.9 1414.82,947.4 1401.5,948.5C 1399.3,948.495 1397.3,948.162 1395.5,947.5C 1423.36,945.996 1451.36,944.329 1479.5,942.5C 1477.5,943.167 1475.5,943.833 1473.5,944.5C 1465.85,945.147 1458.19,945.647 1450.5,946C 1461.04,946.789 1471.38,946.289 1481.5,944.5C 1484.83,944.5 1488.17,944.5 1491.5,944.5C 1526.12,943.799 1533.12,943.466 1512.5,943.5C 1505.02,942.508 1497.35,942.175 1489.5,942.5C 1520.03,941.55 1550.69,940.216 1581.5,938.5C 1579.71,939.309 1577.71,939.809 1575.5,940C 1590.52,940.555 1605.52,940.222 1620.5,939C 1615.98,938.825 1611.65,938.325 1607.5,937.5C 1648.53,937.589 1689.53,936.589 1730.5,934.5C 1728.72,935.6 1726.72,936.434 1724.5,937C 1730.68,937.819 1736.68,937.653 1742.5,936.5C 1814.17,936.165 1885.83,935.665 1957.5,935C 1916.5,934.5 1875.5,934.333 1834.5,934.5 Z"/></g>
<g><path style="opacity:1" fill="#7f7565" d="M 1834.5,934.5 C 1875.5,934.333 1916.5,934.5 1957.5,935C 1885.83,935.665 1814.17,936.165 1742.5,936.5C 1769.15,935.482 1799.82,934.815 1834.5,934.5 Z"/></g>
<g><path style="opacity:1" fill="#746a58" d="M 1607.5,937.5 C 1611.65,938.325 1615.98,938.825 1620.5,939C 1605.52,940.222 1590.52,940.555 1575.5,940C 1577.71,939.809 1579.71,939.309 1581.5,938.5C 1590.15,937.854 1598.82,937.521 1607.5,937.5 Z"/></g>
<g><path style="opacity:1" fill="#6e6351" d="M 1479.5,942.5 C 1482.83,942.5 1486.17,942.5 1489.5,942.5C 1497.35,942.175 1505.02,942.508 1512.5,943.5C 1505.31,943.175 1498.31,943.509 1491.5,944.5C 1488.17,944.5 1484.83,944.5 1481.5,944.5C 1478.83,944.5 1476.17,944.5 1473.5,944.5C 1475.5,943.833 1477.5,943.167 1479.5,942.5 Z"/></g>
<g><path style="opacity:1" fill="#554732" d="M 1491.5,944.5 C 1498.31,943.509 1505.31,943.175 1512.5,943.5C 1533.12,943.466 1526.12,943.799 1491.5,944.5 Z"/></g>
<g><path style="opacity:1" fill="#554832" d="M 1473.5,944.5 C 1476.17,944.5 1478.83,944.5 1481.5,944.5C 1471.38,946.289 1461.04,946.789 1450.5,946C 1458.19,945.647 1465.85,945.147 1473.5,944.5 Z"/></g>
<g><path style="opacity:1" fill="#4f4229" d="M 1960.5,946.5 C 1958.8,947.734 1956.8,948.401 1954.5,948.5C 1930.85,947.484 1907.18,947.484 1883.5,948.5C 1879.7,947.361 1875.7,946.528 1871.5,946C 1900.83,945.667 1930.17,945.333 1959.5,945C 1961,943.509 1961.84,941.676 1962,939.5C 1962.83,942.171 1962.33,944.504 1960.5,946.5 Z"/></g>
<g><path style="opacity:1" fill="#594c37" d="M 1372.5,948.5 C 1380.15,947.793 1387.81,947.46 1395.5,947.5C 1397.3,948.162 1399.3,948.495 1401.5,948.5C 1414.82,947.4 1428.16,946.9 1441.5,947C 1413.53,949.221 1385.53,950.554 1357.5,951C 1362.17,950.667 1366.83,950.333 1371.5,950C 1372.06,949.617 1372.39,949.117 1372.5,948.5 Z"/></g>
<g><path style="opacity:1" fill="#4e412a" d="M 1829.5,948.5 C 1809.76,948.179 1790.09,948.513 1770.5,949.5C 1755.5,948.833 1740.5,948.167 1725.5,947.5C 1773.16,946.611 1820.83,946.444 1868.5,947C 1855.33,947.169 1842.33,947.669 1829.5,948.5 Z"/></g>
<g><path style="opacity:1" fill="#574b35" d="M 1725.5,947.5 C 1740.5,948.167 1755.5,948.833 1770.5,949.5C 1702.8,950.21 1635.13,951.876 1567.5,954.5C 1566.39,953.71 1565.06,953.21 1563.5,953C 1563.83,952.667 1564.17,952.333 1564.5,952C 1618.15,949.951 1671.82,948.451 1725.5,947.5 Z"/></g>
<g><path style="opacity:1" fill="#5b4e39" d="M 1548.5,954.5 C 1525.8,955.299 1503.13,956.299 1480.5,957.5C 1479.39,956.71 1478.06,956.21 1476.5,956C 1501.11,953.79 1525.78,952.79 1550.5,953C 1549.58,953.278 1548.92,953.778 1548.5,954.5 Z"/></g>
<g><path style="opacity:1" fill="#6c604e" d="M 1248.5,957.5 C 1245.44,958.701 1240.94,959.368 1235,959.5C 1232.64,959.496 1230.47,959.163 1228.5,958.5C 1235.08,957.54 1241.74,957.207 1248.5,957.5 Z"/></g>
<g><path style="opacity:1" fill="#766d5b" d="M 1466.5,957.5 C 1462.6,958.43 1458.6,958.763 1454.5,958.5C 1454.39,957.883 1454.06,957.383 1453.5,957C 1458.02,956.186 1462.35,956.353 1466.5,957.5 Z"/></g>
<g><path style="opacity:1" fill="#594d36" d="M 1420.5,959.5 C 1414.2,960.32 1407.87,960.653 1401.5,960.5C 1404.26,959.182 1407.42,958.515 1411,958.5C 1414.35,958.502 1417.52,958.835 1420.5,959.5 Z"/></g>
<g><path style="opacity:1" fill="#534631" d="M 1366.5,962.5 C 1355.24,963.467 1343.91,964.134 1332.5,964.5C 1332.39,963.883 1332.06,963.383 1331.5,963C 1346.49,961.745 1361.49,961.079 1376.5,961C 1372.97,961.179 1369.64,961.679 1366.5,962.5 Z"/></g>
<g><path style="opacity:1" fill="#554830" d="M 1289.5,967.5 C 1284.86,968.127 1280.19,968.46 1275.5,968.5C 1274.39,967.71 1273.06,967.21 1271.5,967C 1279.81,965.858 1288.14,965.525 1296.5,966C 1293.96,966.186 1291.63,966.686 1289.5,967.5 Z"/></g>
<g><path style="opacity:1" fill="#544630" d="M 1247.5,970.5 C 1239.34,971.473 1231.01,972.14 1222.5,972.5C 1221.39,971.71 1220.06,971.21 1218.5,971C 1230.13,969.512 1241.8,968.845 1253.5,969C 1251.29,969.191 1249.29,969.691 1247.5,970.5 Z"/></g>
<g><path style="opacity:1" fill="#554833" d="M 1082.5,971.5 C 1084.95,970.527 1087.61,970.194 1090.5,970.5C 1092.29,971.309 1094.29,971.809 1096.5,972C 1087.56,973.691 1078.56,974.358 1069.5,974C 1074.81,973.187 1080.15,972.521 1085.5,972C 1084.55,971.517 1083.55,971.351 1082.5,971.5 Z"/></g>
<g><path style="opacity:1" fill="#544631" d="M 1193.5,975.5 C 1191.5,975.5 1189.5,975.5 1187.5,975.5C 1185.71,974.691 1183.71,974.191 1181.5,974C 1188.45,972.603 1195.45,972.27 1202.5,973C 1199.01,972.93 1196.01,973.763 1193.5,975.5 Z"/></g>
<g><path style="opacity:1" fill="#544731" d="M 1151.5,978.5 C 1145.66,979.351 1139.66,980.018 1133.5,980.5C 1132.05,979.698 1130.38,979.198 1128.5,979C 1144.76,976.506 1161.09,975.173 1177.5,975C 1168.05,975.691 1159.39,976.858 1151.5,978.5 Z"/></g>
<g><path style="opacity:1" fill="#5c4f3a" d="M 1051.5,974.5 C 1052.61,975.29 1053.94,975.79 1055.5,976C 1044.23,977.872 1032.9,979.039 1021.5,979.5C 1015.6,979.321 1009.93,979.988 1004.5,981.5C 998.305,983.266 991.972,983.766 985.5,983C 987.833,982.667 990.167,982.333 992.5,982C 993.056,981.617 993.389,981.117 993.5,980.5C 1012.78,978.006 1032.12,976.006 1051.5,974.5 Z"/></g>
<g><path style="opacity:1" fill="#4e412a" d="M 1021.5,979.5 C 1016.06,980.884 1010.39,981.55 1004.5,981.5C 1009.93,979.988 1015.6,979.321 1021.5,979.5 Z"/></g>
<g><path style="opacity:1" fill="#554832" d="M 978.5,982.5 C 979.263,983.268 980.263,983.768 981.5,984C 971.914,986.028 962.247,987.028 952.5,987C 954.167,986.667 955.833,986.333 957.5,986C 956.906,985.536 956.239,985.369 955.5,985.5C 963.037,984.56 970.704,983.56 978.5,982.5 Z"/></g>
<g><path style="opacity:1" fill="#574a36" d="M 945.5,986.5 C 946.263,987.268 947.263,987.768 948.5,988C 942.227,989.516 935.894,990.183 929.5,990C 931.167,989.667 932.833,989.333 934.5,989C 933.552,988.517 932.552,988.351 931.5,988.5C 935.964,987.356 940.63,986.69 945.5,986.5 Z"/></g>
<g><path style="opacity:1" fill="#5a4d38" d="M 1030.5,990.5 C 1012.69,992.974 994.693,994.974 976.5,996.5C 976.082,995.778 975.416,995.278 974.5,995C 993.758,992.009 1013.09,990.009 1032.5,989C 1030.5,989.333 1028.5,989.667 1026.5,990C 1027.79,990.49 1029.13,990.657 1030.5,990.5 Z"/></g>
<g><path style="opacity:1" fill="#594c37" d="M 933.5,1001.5 C 906.14,1004.87 878.807,1008.54 851.5,1012.5C 850.391,1011.71 849.058,1011.21 847.5,1011C 876.708,1006.09 906.041,1002.42 935.5,1000C 934.584,1000.28 933.918,1000.78 933.5,1001.5 Z"/></g>
<g><path style="opacity:1" fill="#716654" d="M 1582.5,1005.5 C 1586.31,1006.32 1590.31,1006.82 1594.5,1007C 1553.93,1007.06 1513.43,1006.56 1473,1005.5C 1449.87,1005.56 1426.54,1005.89 1403,1006.5C 1394.17,1006.33 1385.33,1006.17 1376.5,1006C 1378.38,1005.8 1380.05,1005.3 1381.5,1004.5C 1448.66,1003.06 1515.66,1003.39 1582.5,1005.5 Z"/></g>
<g><path style="opacity:1" fill="#574a35" d="M 1318.5,1005.5 C 1317.74,1006.27 1316.74,1006.77 1315.5,1007C 1320.5,1007.33 1325.5,1007.67 1330.5,1008C 1310.84,1009.14 1291.18,1009.47 1271.5,1009C 1276.59,1008.93 1280.26,1008.43 1282.5,1007.5C 1294.34,1006.7 1306.34,1006.04 1318.5,1005.5 Z"/></g>
<g><path style="opacity:1" fill="#635642" d="M 1381.5,1004.5 C 1380.05,1005.3 1378.38,1005.8 1376.5,1006C 1385.33,1006.17 1394.17,1006.33 1403,1006.5C 1426.54,1005.89 1449.87,1005.56 1473,1005.5C 1513.43,1006.56 1553.93,1007.06 1594.5,1007C 1590.31,1006.82 1586.31,1006.32 1582.5,1005.5C 1602.34,1005.85 1622,1006.52 1641.5,1007.5C 1640.13,1007.34 1638.79,1007.51 1637.5,1008C 1649.97,1009.13 1662.47,1009.96 1675,1010.5C 1676.99,1010.43 1678.49,1009.76 1679.5,1008.5C 1699.83,1009.35 1720.16,1010.02 1740.5,1010.5C 1738.83,1011.17 1737.17,1011.83 1735.5,1012.5C 1717.52,1011.35 1699.52,1010.85 1681.5,1011C 1700.99,1012.48 1720.32,1012.98 1739.5,1012.5C 1742.43,1013.3 1745.43,1013.63 1748.5,1013.5C 1764.83,1014.46 1781.16,1014.96 1797.5,1015C 1790.3,1014.65 1783.3,1013.82 1776.5,1012.5C 1793.83,1013.62 1811.16,1014.79 1828.5,1016C 1831.22,1017.26 1832.55,1019.43 1832.5,1022.5C 1832.53,1025.1 1831.53,1027.1 1829.5,1028.5C 1829.29,1026.58 1828.62,1026.24 1827.5,1027.5C 1816.17,1027.17 1804.83,1026.83 1793.5,1026.5C 1773.93,1024.64 1754.26,1023.81 1734.5,1024C 1737.36,1024.18 1740.03,1024.68 1742.5,1025.5C 1732.47,1025.73 1722.47,1025.4 1712.5,1024.5C 1715.98,1023.68 1719.64,1023.18 1723.5,1023C 1716.19,1022.17 1708.85,1021.67 1701.5,1021.5C 1691.51,1021.01 1681.51,1020.68 1671.5,1020.5C 1658.67,1019.34 1645.67,1019.17 1632.5,1020C 1641.17,1020.33 1649.83,1020.67 1658.5,1021C 1652.51,1021.5 1646.51,1021.67 1640.5,1021.5C 1637.17,1021.5 1633.83,1021.5 1630.5,1021.5C 1630.08,1020.78 1629.42,1020.28 1628.5,1020C 1613.49,1019.4 1598.49,1019.06 1583.5,1019C 1584.74,1019.23 1585.74,1019.73 1586.5,1020.5C 1584.83,1020.5 1583.17,1020.5 1581.5,1020.5C 1580.6,1019.84 1579.6,1019.18 1578.5,1018.5C 1540.19,1016.82 1501.85,1015.82 1463.5,1015.5C 1442.17,1015.5 1420.83,1015.5 1399.5,1015.5C 1370.98,1015.77 1342.65,1016.77 1314.5,1018.5C 1298.49,1019.01 1282.49,1019.67 1266.5,1020.5C 1249.29,1019.4 1231.96,1019.9 1214.5,1022C 1219.68,1022.17 1224.68,1022.67 1229.5,1023.5C 1214.19,1024.57 1198.85,1025.23 1183.5,1025.5C 1181.8,1025.66 1180.13,1025.49 1178.5,1025C 1186.81,1024.04 1195.14,1023.38 1203.5,1023C 1185.44,1022.67 1167.44,1023.67 1149.5,1026C 1151.71,1026.19 1153.71,1026.69 1155.5,1027.5C 1145.56,1028.83 1135.56,1029.5 1125.5,1029.5C 1121.55,1029.31 1121.55,1028.81 1125.5,1028C 1115.79,1027.8 1106.12,1028.46 1096.5,1030C 1099.04,1030.19 1101.37,1030.69 1103.5,1031.5C 1056.81,1035.61 1010.14,1039.95 963.5,1044.5C 963.918,1043.78 964.584,1043.28 965.5,1043C 955.779,1042.92 946.112,1043.76 936.5,1045.5C 935.006,1045.71 933.839,1046.38 933,1047.5C 932.692,1046.69 932.192,1046.03 931.5,1045.5C 922.495,1046.86 913.495,1048.36 904.5,1050C 906.81,1050.5 909.143,1050.66 911.5,1050.5C 907.764,1051.99 903.764,1052.66 899.5,1052.5C 899.918,1051.78 900.584,1051.28 901.5,1051C 883.792,1052.58 866.125,1054.91 848.5,1058C 850.382,1058.2 852.048,1058.7 853.5,1059.5C 850.236,1060.32 846.902,1060.66 843.5,1060.5C 844.263,1059.73 845.263,1059.23 846.5,1059C 838.411,1059.01 830.411,1060.01 822.5,1062C 824.382,1062.2 826.048,1062.7 827.5,1063.5C 819.613,1065.29 811.613,1066.63 803.5,1067.5C 802.448,1067.65 801.448,1067.48 800.5,1067C 801.833,1066.67 803.167,1066.33 804.5,1066C 772.889,1070.23 741.555,1076.07 710.5,1083.5C 684.823,1088.17 659.49,1093.83 634.5,1100.5C 628.108,1101.58 621.774,1102.91 615.5,1104.5C 584.373,1113.03 553.373,1121.7 522.5,1130.5C 503.378,1136.1 484.378,1142.1 465.5,1148.5C 446.324,1155.26 427.324,1162.26 408.5,1169.5C 400.321,1172.06 392.154,1174.73 384,1177.5C 382.779,1176.73 381.779,1175.73 381,1174.5C 380.722,1175.42 380.222,1176.08 379.5,1176.5C 378.205,1172.58 379.538,1169.75 383.5,1168C 517.066,1116.94 654.399,1079.27 795.5,1055C 847.949,1045.99 900.616,1038.49 953.5,1032.5C 954.873,1032.34 956.207,1032.51 957.5,1033C 955.5,1033.33 953.5,1033.67 951.5,1034C 964.232,1033.55 976.899,1032.21 989.5,1030C 984.652,1030.05 979.985,1029.88 975.5,1029.5C 983.415,1028.07 991.415,1027.4 999.5,1027.5C 997.708,1028.31 995.708,1028.81 993.5,1029C 1005.56,1028.97 1017.56,1027.97 1029.5,1026C 1026.96,1025.81 1024.63,1025.31 1022.5,1024.5C 1027.07,1023.56 1031.74,1023.23 1036.5,1023.5C 1035.05,1024.3 1033.38,1024.8 1031.5,1025C 1040.54,1025.14 1049.54,1024.47 1058.5,1023C 1056.62,1022.8 1054.95,1022.3 1053.5,1021.5C 1090.6,1017.46 1127.94,1014.46 1165.5,1012.5C 1163.03,1013.32 1160.36,1013.82 1157.5,1014C 1164.54,1014.66 1171.54,1014.33 1178.5,1013C 1175.31,1012.82 1172.31,1012.32 1169.5,1011.5C 1177.17,1011.5 1184.83,1011.5 1192.5,1011.5C 1193.87,1011.34 1195.21,1011.51 1196.5,1012C 1193.17,1012.33 1189.83,1012.67 1186.5,1013C 1201.2,1013.36 1215.87,1012.69 1230.5,1011C 1222.65,1010.96 1214.99,1010.79 1207.5,1010.5C 1232.42,1008.27 1257.42,1007.27 1282.5,1007.5C 1280.26,1008.43 1276.59,1008.93 1271.5,1009C 1291.18,1009.47 1310.84,1009.14 1330.5,1008C 1325.5,1007.67 1320.5,1007.33 1315.5,1007C 1316.74,1006.77 1317.74,1006.27 1318.5,1005.5C 1339.49,1004.88 1360.49,1004.55 1381.5,1004.5 Z"/></g>
<g><path style="opacity:1" fill="#6a5e4c" d="M 1641.5,1007.5 C 1654.2,1007.22 1666.87,1007.56 1679.5,1008.5C 1678.49,1009.76 1676.99,1010.43 1675,1010.5C 1662.47,1009.96 1649.97,1009.13 1637.5,1008C 1638.79,1007.51 1640.13,1007.34 1641.5,1007.5 Z"/></g>
<g><path style="opacity:1" fill="#564934" d="M 1192.5,1011.5 C 1197.31,1010.51 1202.31,1010.18 1207.5,1010.5C 1214.99,1010.79 1222.65,1010.96 1230.5,1011C 1215.87,1012.69 1201.2,1013.36 1186.5,1013C 1189.83,1012.67 1193.17,1012.33 1196.5,1012C 1195.21,1011.51 1193.87,1011.34 1192.5,1011.5 Z"/></g>
<g><path style="opacity:1" fill="#584c37" d="M 1735.5,1012.5 C 1736.83,1012.5 1738.17,1012.5 1739.5,1012.5C 1720.32,1012.98 1700.99,1012.48 1681.5,1011C 1699.52,1010.85 1717.52,1011.35 1735.5,1012.5 Z"/></g>
<g><path style="opacity:1" fill="#6d614f" d="M 1740.5,1010.5 C 1749.13,1011.38 1757.8,1011.71 1766.5,1011.5C 1760.5,1012.17 1754.5,1012.83 1748.5,1013.5C 1745.43,1013.63 1742.43,1013.3 1739.5,1012.5C 1738.17,1012.5 1736.83,1012.5 1735.5,1012.5C 1737.17,1011.83 1738.83,1011.17 1740.5,1010.5 Z"/></g>
<g><path style="opacity:1" fill="#726855" d="M 1169.5,1011.5 C 1172.31,1012.32 1175.31,1012.82 1178.5,1013C 1171.54,1014.33 1164.54,1014.66 1157.5,1014C 1160.36,1013.82 1163.03,1013.32 1165.5,1012.5C 1166.83,1012.17 1168.17,1011.83 1169.5,1011.5 Z"/></g>
<g><path style="opacity:1" fill="#52442f" d="M 842.5,1013.5 C 838.642,1014.29 834.642,1014.96 830.5,1015.5C 829.391,1014.71 828.058,1014.21 826.5,1014C 832.411,1012.28 838.411,1011.62 844.5,1012C 842.657,1012.16 841.991,1012.66 842.5,1013.5 Z"/></g>
<g><path style="opacity:1" fill="#7d7363" d="M 1766.5,1011.5 C 1769.9,1011.34 1773.24,1011.68 1776.5,1012.5C 1783.3,1013.82 1790.3,1014.65 1797.5,1015C 1781.16,1014.96 1764.83,1014.46 1748.5,1013.5C 1754.5,1012.83 1760.5,1012.17 1766.5,1011.5 Z"/></g>
<g><path style="opacity:1" fill="#52432d" d="M 749.5,1014.5 C 751.527,1014.34 753.527,1014.5 755.5,1015C 750.583,1016.51 745.583,1017.18 740.5,1017C 743.678,1016.34 746.678,1015.51 749.5,1014.5 Z"/></g>
<g><path style="opacity:1" fill="#51442d" d="M 1399.5,1015.5 C 1399.47,1016.5 1399.97,1017.16 1401,1017.5C 1421.97,1016.85 1442.81,1016.18 1463.5,1015.5C 1501.85,1015.82 1540.19,1016.82 1578.5,1018.5C 1579.6,1019.18 1580.6,1019.84 1581.5,1020.5C 1499.84,1018.31 1418.18,1017.98 1336.5,1019.5C 1329.69,1018.51 1322.69,1018.18 1315.5,1018.5C 1315.17,1018.5 1314.83,1018.5 1314.5,1018.5C 1342.65,1016.77 1370.98,1015.77 1399.5,1015.5 Z"/></g>
<g><path style="opacity:1" fill="#46371f" d="M 1399.5,1015.5 C 1420.83,1015.5 1442.17,1015.5 1463.5,1015.5C 1442.81,1016.18 1421.97,1016.85 1401,1017.5C 1399.97,1017.16 1399.47,1016.5 1399.5,1015.5 Z"/></g>
<g><path style="opacity:1" fill="#5b4d3a" d="M 1315.5,1018.5 C 1322.69,1018.18 1329.69,1018.51 1336.5,1019.5C 1328.48,1019.39 1320.48,1019.72 1312.5,1020.5C 1313.5,1019.83 1314.5,1019.17 1315.5,1018.5 Z"/></g>
<g><path style="opacity:1" fill="#52452f" d="M 1136.5,1015.5 C 1141.18,1015.33 1145.85,1015.5 1150.5,1016C 1125.51,1018.18 1100.51,1019.85 1075.5,1021C 1095.99,1019.18 1116.32,1017.35 1136.5,1015.5 Z"/></g>
<g><path style="opacity:1" fill="#6b604c" d="M 1314.5,1018.5 C 1314.83,1018.5 1315.17,1018.5 1315.5,1018.5C 1314.5,1019.17 1313.5,1019.83 1312.5,1020.5C 1296.81,1020.81 1281.14,1021.47 1265.5,1022.5C 1261.35,1021.68 1257.02,1021.18 1252.5,1021C 1257.15,1020.5 1261.82,1020.33 1266.5,1020.5C 1282.49,1019.67 1298.49,1019.01 1314.5,1018.5 Z"/></g>
<g><path style="opacity:1" fill="#6b604d" d="M 1630.5,1021.5 C 1615.82,1021.58 1601.15,1021.25 1586.5,1020.5C 1585.74,1019.73 1584.74,1019.23 1583.5,1019C 1598.49,1019.06 1613.49,1019.4 1628.5,1020C 1629.42,1020.28 1630.08,1020.78 1630.5,1021.5 Z"/></g>
<g><path style="opacity:1" fill="#584b36" d="M 1266.5,1020.5 C 1261.82,1020.33 1257.15,1020.5 1252.5,1021C 1257.02,1021.18 1261.35,1021.68 1265.5,1022.5C 1253.48,1022.3 1241.48,1022.63 1229.5,1023.5C 1224.68,1022.67 1219.68,1022.17 1214.5,1022C 1231.96,1019.9 1249.29,1019.4 1266.5,1020.5 Z"/></g>
<g><path style="opacity:1" fill="#4e412b" d="M 1671.5,1020.5 C 1681.51,1020.68 1691.51,1021.01 1701.5,1021.5C 1699.02,1022.16 1696.36,1022.5 1693.5,1022.5C 1684.77,1022.21 1677.44,1021.54 1671.5,1020.5 Z"/></g>
<g><path style="opacity:1" fill="#594c37" d="M 806.5,1018.5 C 794.385,1021.04 782.052,1023.04 769.5,1024.5C 768.737,1023.73 767.737,1023.23 766.5,1023C 785.368,1019.13 804.368,1016.47 823.5,1015C 816.392,1015.76 810.726,1016.92 806.5,1018.5 Z"/></g>
<g><path style="opacity:1" fill="#574934" d="M 1053.5,1021.5 C 1054.95,1022.3 1056.62,1022.8 1058.5,1023C 1049.54,1024.47 1040.54,1025.14 1031.5,1025C 1033.38,1024.8 1035.05,1024.3 1036.5,1023.5C 1041.94,1022.12 1047.61,1021.45 1053.5,1021.5 Z"/></g>
<g><path style="opacity:1" fill="#5c4f3a" d="M 1671.5,1020.5 C 1677.44,1021.54 1684.77,1022.21 1693.5,1022.5C 1696.36,1022.5 1699.02,1022.16 1701.5,1021.5C 1708.85,1021.67 1716.19,1022.17 1723.5,1023C 1719.64,1023.18 1715.98,1023.68 1712.5,1024.5C 1688.35,1023.43 1664.35,1022.43 1640.5,1021.5C 1646.51,1021.67 1652.51,1021.5 1658.5,1021C 1649.83,1020.67 1641.17,1020.33 1632.5,1020C 1645.67,1019.17 1658.67,1019.34 1671.5,1020.5 Z"/></g>
<g><path style="opacity:1" fill="#584b36" d="M 1183.5,1025.5 C 1174.33,1026.38 1165,1027.05 1155.5,1027.5C 1153.71,1026.69 1151.71,1026.19 1149.5,1026C 1167.44,1023.67 1185.44,1022.67 1203.5,1023C 1195.14,1023.38 1186.81,1024.04 1178.5,1025C 1180.13,1025.49 1181.8,1025.66 1183.5,1025.5 Z"/></g>
<g><path style="opacity:1" fill="#574934" d="M 1022.5,1024.5 C 1024.63,1025.31 1026.96,1025.81 1029.5,1026C 1017.56,1027.97 1005.56,1028.97 993.5,1029C 995.708,1028.81 997.708,1028.31 999.5,1027.5C 1006.94,1025.78 1014.6,1024.78 1022.5,1024.5 Z"/></g>
<g><path style="opacity:1" fill="#584b36" d="M 702.5,1021.5 C 706.327,1022.06 710.327,1022.23 714.5,1022C 702.529,1024.36 690.529,1026.53 678.5,1028.5C 676.667,1028.41 675.334,1027.75 674.5,1026.5C 683.809,1024.84 693.142,1023.17 702.5,1021.5 Z"/></g>
<g><path style="opacity:1" fill="#554831" d="M 1793.5,1026.5 C 1804.81,1028.31 1816.14,1028.64 1827.5,1027.5C 1828.62,1026.24 1829.29,1026.58 1829.5,1028.5C 1828.22,1029.9 1826.56,1030.56 1824.5,1030.5C 1797.17,1028.66 1769.84,1026.99 1742.5,1025.5C 1740.03,1024.68 1737.36,1024.18 1734.5,1024C 1754.26,1023.81 1773.93,1024.64 1793.5,1026.5 Z"/></g>
<g><path style="opacity:1" fill="#50432b" d="M 1793.5,1026.5 C 1804.83,1026.83 1816.17,1027.17 1827.5,1027.5C 1816.14,1028.64 1804.81,1028.31 1793.5,1026.5 Z"/></g>
<g><path style="opacity:1" fill="#5a4d38" d="M 742.5,1028.5 C 734.665,1030.04 726.665,1031.38 718.5,1032.5C 717.391,1031.71 716.058,1031.21 714.5,1031C 724.42,1028.79 734.42,1027.46 744.5,1027C 742.833,1027.33 741.167,1027.67 739.5,1028C 740.448,1028.48 741.448,1028.65 742.5,1028.5 Z"/></g>
<g><path style="opacity:1" fill="#594c36" d="M 1125.5,1029.5 C 1118.31,1030.27 1110.98,1030.94 1103.5,1031.5C 1101.37,1030.69 1099.04,1030.19 1096.5,1030C 1106.12,1028.46 1115.79,1027.8 1125.5,1028C 1121.55,1028.81 1121.55,1029.31 1125.5,1029.5 Z"/></g>
<g><path style="opacity:1" fill="#473721" d="M 650.5,1032.5 C 650.5,1032.17 650.5,1031.83 650.5,1031.5C 663.823,1030.5 663.823,1030.84 650.5,1032.5 Z"/></g>
<g><path style="opacity:1" fill="#594c37" d="M 975.5,1029.5 C 979.985,1029.88 984.652,1030.05 989.5,1030C 976.899,1032.21 964.232,1033.55 951.5,1034C 953.5,1033.67 955.5,1033.33 957.5,1033C 956.207,1032.51 954.873,1032.34 953.5,1032.5C 960.695,1031.51 968.029,1030.51 975.5,1029.5 Z"/></g>
<g><path style="opacity:1" fill="#574a35" d="M 650.5,1031.5 C 650.5,1031.83 650.5,1032.17 650.5,1032.5C 644.161,1035 637.494,1036.17 630.5,1036C 631.737,1035.77 632.737,1035.27 633.5,1034.5C 638.873,1032.55 644.54,1031.55 650.5,1031.5 Z"/></g>
<g><path style="opacity:1" fill="#5a4e39" d="M 702.5,1035.5 C 690.101,1037.32 677.767,1039.32 665.5,1041.5C 664.737,1040.73 663.737,1040.23 662.5,1040C 676.442,1037.01 690.442,1034.68 704.5,1033C 703.619,1033.71 702.953,1034.54 702.5,1035.5 Z"/></g>
<g><path style="opacity:1" fill="#594c38" d="M 963.5,1044.5 C 946.182,1046.59 928.849,1048.59 911.5,1050.5C 909.143,1050.66 906.81,1050.5 904.5,1050C 913.495,1048.36 922.495,1046.86 931.5,1045.5C 932.192,1046.03 932.692,1046.69 933,1047.5C 933.839,1046.38 935.006,1045.71 936.5,1045.5C 946.112,1043.76 955.779,1042.92 965.5,1043C 964.584,1043.28 963.918,1043.78 963.5,1044.5 Z"/></g>
<g><path style="opacity:1" fill="#544731" d="M 638.5,1045.5 C 605.839,1051.83 573.172,1058.17 540.5,1064.5C 540.083,1063.88 539.416,1063.54 538.5,1063.5C 534.866,1064.6 531.199,1065.1 527.5,1065C 559.412,1058.36 591.412,1052.02 623.5,1046C 629.832,1044.93 636.165,1044.26 642.5,1044C 640.942,1044.21 639.609,1044.71 638.5,1045.5 Z"/></g>
<g><path style="opacity:1" fill="#594c37" d="M 534.5,1052.5 C 535.609,1053.29 536.942,1053.79 538.5,1054C 527.92,1056.78 517.253,1058.78 506.5,1060C 512.132,1058.54 517.799,1057.21 523.5,1056C 522.552,1055.52 521.552,1055.35 520.5,1055.5C 524.994,1054.27 529.661,1053.27 534.5,1052.5 Z"/></g>
<g><path style="opacity:1" fill="#544731" d="M 899.5,1052.5 C 884.328,1055.03 868.995,1057.36 853.5,1059.5C 852.048,1058.7 850.382,1058.2 848.5,1058C 866.125,1054.91 883.792,1052.58 901.5,1051C 900.584,1051.28 899.918,1051.78 899.5,1052.5 Z"/></g>
<g><path style="opacity:1" fill="#52452f" d="M 843.5,1060.5 C 838.33,1061.7 832.997,1062.7 827.5,1063.5C 826.048,1062.7 824.382,1062.2 822.5,1062C 830.411,1060.01 838.411,1059.01 846.5,1059C 845.263,1059.23 844.263,1059.73 843.5,1060.5 Z"/></g>
<g><path style="opacity:1" fill="#5c4f3b" d="M 495.5,1060.5 C 496.263,1061.27 497.263,1061.77 498.5,1062C 482.271,1066.14 465.937,1069.48 449.5,1072C 450.5,1071.67 451.5,1071.33 452.5,1071C 451.906,1070.54 451.239,1070.37 450.5,1070.5C 465.28,1066.68 480.28,1063.34 495.5,1060.5 Z"/></g>
<g><path style="opacity:1" fill="#534730" d="M 747.5,1065.5 C 749.199,1065.34 750.866,1065.51 752.5,1066C 747.903,1067.46 743.237,1068.12 738.5,1068C 741.678,1067.34 744.678,1066.51 747.5,1065.5 Z"/></g>
<g><path style="opacity:1" fill="#5b4e39" d="M 803.5,1067.5 C 771.638,1073.6 739.638,1079.6 707.5,1085.5C 708.5,1084.83 709.5,1084.17 710.5,1083.5C 741.555,1076.07 772.889,1070.23 804.5,1066C 803.167,1066.33 801.833,1066.67 800.5,1067C 801.448,1067.48 802.448,1067.65 803.5,1067.5 Z"/></g>
<g><path style="opacity:1" fill="#554932" d="M 726.5,1069.5 C 728.527,1069.34 730.527,1069.5 732.5,1070C 727.935,1071.65 723.269,1072.31 718.5,1072C 721.31,1071.22 723.977,1070.38 726.5,1069.5 Z"/></g>
<g><path style="opacity:1" fill="#574a35" d="M 520.5,1068.5 C 495.642,1074.07 470.642,1079.41 445.5,1084.5C 445.082,1083.78 444.416,1083.28 443.5,1083C 470.707,1076.43 498.04,1070.76 525.5,1066C 523.122,1066.51 520.788,1067.18 518.5,1068C 519.094,1068.46 519.761,1068.63 520.5,1068.5 Z"/></g>
<g><path style="opacity:1" fill="#564933" d="M 420.5,1077.5 C 422.199,1077.34 423.866,1077.51 425.5,1078C 417.716,1080.07 409.883,1081.9 402,1083.5C 400.316,1083.32 400.15,1082.65 401.5,1081.5C 407.753,1079.85 414.086,1078.51 420.5,1077.5 Z"/></g>
<g><path style="opacity:1" fill="#544731" d="M 710.5,1083.5 C 709.5,1084.17 708.5,1084.83 707.5,1085.5C 646.144,1099.42 585.144,1114.76 524.5,1131.5C 524.158,1130.66 523.492,1130.33 522.5,1130.5C 553.373,1121.7 584.373,1113.03 615.5,1104.5C 615.917,1105.12 616.584,1105.46 617.5,1105.5C 623.421,1104.27 629.088,1102.61 634.5,1100.5C 659.49,1093.83 684.823,1088.17 710.5,1083.5 Z"/></g>
<g><path style="opacity:1" fill="#52452f" d="M 440.5,1085.5 C 409.828,1092.5 379.162,1099.5 348.5,1106.5C 346.179,1106.32 343.846,1105.98 341.5,1105.5C 373.91,1097.79 406.41,1090.46 439,1083.5C 440.03,1083.84 440.53,1084.5 440.5,1085.5 Z"/></g>
<g><path style="opacity:1" fill="#5b4e39" d="M 356.5,1091.5 C 357.263,1092.27 358.263,1092.77 359.5,1093C 351.008,1096.03 342.342,1098.03 333.5,1099C 336.097,1098.22 336.097,1097.72 333.5,1097.5C 340.923,1095.01 348.59,1093.01 356.5,1091.5 Z"/></g>
<g><path style="opacity:1" fill="#493b23" d="M 634.5,1100.5 C 629.088,1102.61 623.421,1104.27 617.5,1105.5C 616.584,1105.46 615.917,1105.12 615.5,1104.5C 621.774,1102.91 628.108,1101.58 634.5,1100.5 Z"/></g>
<g><path style="opacity:1" fill="#594c37" d="M 341.5,1105.5 C 343.846,1105.98 346.179,1106.32 348.5,1106.5C 339.292,1109.23 329.958,1111.57 320.5,1113.5C 320.082,1112.78 319.416,1112.28 318.5,1112C 326.037,1109.52 333.704,1107.36 341.5,1105.5 Z"/></g>
<g><path style="opacity:1" fill="#5b4f3a" d="M 292.5,1107.5 C 294.169,1108.66 296.003,1108.66 298,1107.5C 298.5,1107.67 299,1107.83 299.5,1108C 288.629,1111.47 277.629,1114.13 266.5,1116C 269.072,1115.53 270.739,1114.7 271.5,1113.5C 278.271,1111.05 285.271,1109.05 292.5,1107.5 Z"/></g>
<g><path style="opacity:1" fill="#5a4e38" d="M 319.5,1113.5 C 309.394,1116.61 299.06,1119.28 288.5,1121.5C 288.082,1120.78 287.416,1120.28 286.5,1120C 297.203,1115.74 308.203,1113.57 319.5,1113.5 Z"/></g>
<g><path style="opacity:1" fill="#584b36" d="M 278.5,1123.5 C 274.251,1124.8 269.918,1126.14 265.5,1127.5C 264.391,1126.71 263.058,1126.21 261.5,1126C 267.727,1123.86 274.06,1122.52 280.5,1122C 278.657,1122.16 277.991,1122.66 278.5,1123.5 Z"/></g>
<g><path style="opacity:1" fill="#554832" d="M 258.5,1128.5 C 233.348,1135.79 208.015,1142.79 182.5,1149.5C 182.082,1148.78 181.416,1148.28 180.5,1148C 206.35,1140.54 232.35,1133.37 258.5,1126.5C 259.167,1126.67 259.833,1126.83 260.5,1127C 259.584,1127.28 258.918,1127.78 258.5,1128.5 Z"/></g>
<g><path style="opacity:1" fill="#4c3f28" d="M 522.5,1130.5 C 523.492,1130.33 524.158,1130.66 524.5,1131.5C 507.513,1137 490.513,1142.67 473.5,1148.5C 470.874,1148.7 468.207,1148.7 465.5,1148.5C 484.378,1142.1 503.378,1136.1 522.5,1130.5 Z"/></g>
<g><path style="opacity:1" fill="#564933" d="M 473.5,1148.5 C 451.975,1156.23 430.308,1163.56 408.5,1170.5C 408.5,1170.17 408.5,1169.83 408.5,1169.5C 427.324,1162.26 446.324,1155.26 465.5,1148.5C 468.207,1148.7 470.874,1148.7 473.5,1148.5 Z"/></g>
<g><path style="opacity:1" fill="#5a4d38" d="M 129.5,1152.5 C 135.884,1149.9 142.551,1147.9 149.5,1146.5C 149.735,1147.1 150.235,1147.43 151,1147.5C 155.778,1145.76 160.612,1144.6 165.5,1144C 153.985,1147.81 142.318,1151.31 130.5,1154.5C 127.937,1154.26 127.937,1153.76 130.5,1153C 130.272,1152.6 129.938,1152.43 129.5,1152.5 Z"/></g>
<g><path style="opacity:1" fill="#51442c" d="M 170.5,1152.5 C 169.127,1152.66 167.793,1152.49 166.5,1152C 166.833,1151.67 167.167,1151.33 167.5,1151C 171.488,1149.88 175.488,1149.22 179.5,1149C 176.282,1149.9 173.282,1151.07 170.5,1152.5 Z"/></g>
<g><path style="opacity:1" fill="#574a34" d="M 136.5,1162.5 C 121.36,1167.21 106.027,1171.54 90.5,1175.5C 91.1667,1174.83 91.8333,1174.17 92.5,1173.5C 107.848,1168.78 123.348,1164.12 139,1159.5C 139.5,1159.67 140,1159.83 140.5,1160C 138.293,1160.63 136.96,1161.46 136.5,1162.5 Z"/></g>
<g><path style="opacity:1" fill="#4e4129" d="M 408.5,1169.5 C 408.5,1169.83 408.5,1170.17 408.5,1170.5C 400.169,1175.44 391.169,1178.28 381.5,1179C 380.619,1178.29 379.953,1177.46 379.5,1176.5C 380.222,1176.08 380.722,1175.42 381,1174.5C 381.779,1175.73 382.779,1176.73 384,1177.5C 392.154,1174.73 400.321,1172.06 408.5,1169.5 Z"/></g>
<g><path style="opacity:1" fill="#4d3f28" d="M 92.5,1173.5 C 91.8333,1174.17 91.1667,1174.83 90.5,1175.5C 87.4954,1177.28 84.1621,1178.28 80.5,1178.5C 78.4727,1178.66 76.4727,1178.5 74.5,1178C 80.4527,1176.31 86.4527,1174.81 92.5,1173.5 Z"/></g>
</svg>
