<?xml version="1.0" encoding="UTF-8"?>
<!DOCTYPE svg PUBLIC "-//W3C//DTD SVG 1.1//EN" "http://www.w3.org/Graphics/SVG/1.1/DTD/svg11.dtd">
<svg xmlns="http://www.w3.org/2000/svg" version="1.1" width="2000px" height="2000px" style="shape-rendering:geometricPrecision; text-rendering:geometricPrecision; image-rendering:optimizeQuality; fill-rule:evenodd; clip-rule:evenodd" xmlns:xlink="http://www.w3.org/1999/xlink">
<g><path style="opacity:1" fill="#f3ec58" d="M 1236.5,302.5 C 1237.5,302.5 1238.5,302.5 1239.5,302.5C 1243.27,302.737 1246.94,302.237 1250.5,301C 1249.5,300.667 1248.5,300.333 1247.5,300C 1250.52,298.82 1253.52,297.654 1256.5,296.5C 1257.5,296.586 1258.33,296.252 1259,295.5C 1259.42,296.956 1260.26,297.456 1261.5,297C 1269.45,290.238 1274.12,281.738 1275.5,271.5C 1276.39,260.21 1275.05,249.21 1271.5,238.5C 1270.83,236.84 1269.83,235.507 1268.5,234.5C 1266.04,231.442 1263.04,229.108 1259.5,227.5C 1261.04,227.297 1262.38,226.63 1263.5,225.5C 1271.43,231.724 1276.93,239.724 1280,249.5C 1283.59,264.713 1281.59,279.046 1274,292.5C 1265.48,302.95 1254.65,306.95 1241.5,304.5C 1239.5,304.167 1237.5,303.833 1235.5,303.5C 1235.62,302.893 1235.96,302.56 1236.5,302.5 Z"/></g>
<g><path style="opacity:1" fill="#f3ed78" d="M 1243.5,227.5 C 1248.67,226.534 1254,226.534 1259.5,227.5C 1263.04,229.108 1266.04,231.442 1268.5,234.5C 1267.96,234.56 1267.62,234.893 1267.5,235.5C 1268.83,236.62 1269.33,237.953 1269,239.5C 1266.07,235.377 1262.23,232.71 1257.5,231.5C 1251.53,230.802 1245.53,230.302 1239.5,230C 1240.83,229.667 1242.17,229.333 1243.5,229C 1244.74,228.31 1244.74,227.81 1243.5,227.5 Z"/></g>
<g><path style="opacity:1" fill="#f3ec50" d="M 1243.5,227.5 C 1244.74,227.81 1244.74,228.31 1243.5,229C 1242.17,229.333 1240.83,229.667 1239.5,230C 1245.53,230.302 1251.53,230.802 1257.5,231.5C 1265.26,235.585 1269.92,241.918 1271.5,250.5C 1271.65,256.845 1271.99,263.178 1272.5,269.5C 1271.51,273.386 1270.51,277.386 1269.5,281.5C 1266.26,287.411 1261.92,292.411 1256.5,296.5C 1253.52,297.654 1250.52,298.82 1247.5,300C 1248.5,300.333 1249.5,300.667 1250.5,301C 1246.94,302.237 1243.27,302.737 1239.5,302.5C 1241.31,300.803 1243.64,299.97 1246.5,300C 1236.39,299.057 1228.72,294.223 1223.5,285.5C 1219.11,278.387 1216.11,270.721 1214.5,262.5C 1215.68,259.157 1216.51,255.824 1217,252.5C 1216.09,253.328 1215.42,254.328 1215,255.5C 1214.52,254.552 1214.35,253.552 1214.5,252.5C 1218.99,245.015 1224.33,238.182 1230.5,232C 1234.44,229.409 1238.77,227.909 1243.5,227.5 Z"/></g>
<g><path style="opacity:1" fill="#f3ea44" d="M 1214.5,252.5 C 1214.35,253.552 1214.52,254.552 1215,255.5C 1215.42,254.328 1216.09,253.328 1217,252.5C 1216.51,255.824 1215.68,259.157 1214.5,262.5C 1216.11,270.721 1219.11,278.387 1223.5,285.5C 1228.72,294.223 1236.39,299.057 1246.5,300C 1243.64,299.97 1241.31,300.803 1239.5,302.5C 1238.5,302.5 1237.5,302.5 1236.5,302.5C 1222.61,292.88 1214.27,279.547 1211.5,262.5C 1212.13,258.94 1213.13,255.606 1214.5,252.5 Z"/></g>
<g><path style="opacity:1" fill="#faf3b1" d="M 1272.5,269.5 C 1271.99,263.178 1271.65,256.845 1271.5,250.5C 1272.71,254.205 1273.38,258.705 1273.5,264C 1273.58,266.636 1273.25,268.469 1272.5,269.5 Z"/></g>
<g><path style="opacity:1" fill="#f4f089" d="M 1257.5,231.5 C 1262.23,232.71 1266.07,235.377 1269,239.5C 1269.33,237.953 1268.83,236.62 1267.5,235.5C 1267.62,234.893 1267.96,234.56 1268.5,234.5C 1269.83,235.507 1270.83,236.84 1271.5,238.5C 1275.05,249.21 1276.39,260.21 1275.5,271.5C 1273.97,275.048 1271.97,278.381 1269.5,281.5C 1270.51,277.386 1271.51,273.386 1272.5,269.5C 1273.25,268.469 1273.58,266.636 1273.5,264C 1273.38,258.705 1272.71,254.205 1271.5,250.5C 1269.92,241.918 1265.26,235.585 1257.5,231.5 Z"/></g>
<g><path style="opacity:1" fill="#f3ec50" d="M 668.5,296.5 C 669.906,296.973 670.573,297.973 670.5,299.5C 670.25,305.304 671.416,310.971 674,316.5C 678.181,346.7 681.181,377.033 683,407.5C 683.333,406.5 683.667,405.5 684,404.5C 684.232,405.737 684.732,406.737 685.5,407.5C 686.926,445.872 689.093,484.205 692,522.5C 692.272,525.382 693.106,528.049 694.5,530.5C 693.402,532.642 694.236,533.975 697,534.5C 751.626,505.881 805.793,476.381 859.5,446C 880.167,435 900.833,424 921.5,413C 920.906,412.536 920.239,412.369 919.5,412.5C 920.659,410.75 922.326,409.75 924.5,409.5C 923.031,411.105 923.365,411.605 925.5,411C 953.672,396.088 980.672,379.421 1006.5,361C 1005.91,360.536 1005.24,360.369 1004.5,360.5C 1011.98,353.865 1019.64,347.365 1027.5,341C 1030.73,338.425 1034.39,336.925 1038.5,336.5C 1056.19,337.421 1064.69,347.421 1064,366.5C 1064.83,349.179 1065.33,349.179 1065.5,366.5C 1063.6,375.628 1059.6,383.628 1053.5,390.5C 1052.81,389.293 1052.64,387.959 1053,386.5C 1033.52,410.323 1010.69,430.157 984.5,446C 902.929,490.284 821.263,534.284 739.5,578C 735.5,580.667 731.5,583.333 727.5,586C 726.549,586.718 726.383,587.551 727,588.5C 727.816,587.177 728.983,586.511 730.5,586.5C 730.67,587.822 730.337,588.989 729.5,590C 730.984,591.574 732.651,592.907 734.5,594C 766.044,609.606 797.711,624.939 829.5,640C 848.492,650.161 867.159,660.828 885.5,672C 925.58,698.695 965.247,725.862 1004.5,753.5C 1002.62,753.393 1002.29,753.893 1003.5,755C 1020.71,766.239 1037.38,777.905 1053.5,790C 1051.63,788.296 1049.96,786.463 1048.5,784.5C 1060.42,792.705 1064.92,804.038 1062,818.5C 1059.08,827.586 1053.24,833.919 1044.5,837.5C 1044.12,836.867 1043.79,836.2 1043.5,835.5C 1034.15,838.582 1025.15,837.749 1016.5,833C 1001.09,819.916 985.425,807.25 969.5,795C 928.01,764.755 886.343,734.755 844.5,705C 799.833,682 755.167,659 710.5,636C 707.232,634.787 703.899,634.454 700.5,635C 699.874,635.75 699.374,636.584 699,637.5C 698.167,666.839 698.333,696.172 699.5,725.5C 699.81,723.675 700.477,721.675 701.5,719.5C 702.212,785.502 702.712,851.502 703,917.5C 700.041,946.82 684.541,957.32 656.5,949C 647.003,941.856 641.17,932.356 639,920.5C 638.118,913.119 637.285,905.785 636.5,898.5C 637.117,898.389 637.617,898.056 638,897.5C 638.49,898.793 638.657,900.127 638.5,901.5C 638.537,910.002 639.704,918.335 642,926.5C 641.189,918.165 640.355,909.831 639.5,901.5C 639.055,885.49 638.388,869.49 637.5,853.5C 637.443,852.391 637.11,851.391 636.5,850.5C 636.165,840.475 635.498,830.475 634.5,820.5C 633.965,816.181 633.465,811.848 633,807.5C 632.821,811.025 632.321,814.359 631.5,817.5C 631.167,812.167 630.833,806.833 630.5,801.5C 631.222,801.918 631.722,802.584 632,803.5C 631.664,792.803 630.664,782.136 629,771.5C 629.135,777.341 628.969,783.008 628.5,788.5C 626.457,771.201 624.791,753.868 623.5,736.5C 623.252,716.171 623.586,695.671 624.5,675C 624.333,668.167 624.167,661.333 624,654.5C 623.768,655.737 623.268,656.737 622.5,657.5C 622.664,654.813 622.497,652.146 622,649.5C 621.005,648.934 620.172,648.267 619.5,647.5C 620.263,646.732 621.263,646.232 622.5,646C 617.889,644.993 613.555,645.66 609.5,648C 545.478,686.003 482.811,726.003 421.5,768C 379.026,799.071 336.026,829.404 292.5,859C 289.576,859.988 286.576,860.654 283.5,861C 284.5,861.333 285.5,861.667 286.5,862C 284.618,862.198 282.952,862.698 281.5,863.5C 279.77,862.974 278.436,861.974 277.5,860.5C 277.74,858.408 276.906,856.408 275,854.5C 273.126,850.48 273.126,846.48 275,842.5C 280.934,831.819 288.434,822.319 297.5,814C 390.469,730.684 490.469,657.018 597.5,593C 600.167,590.333 602.833,587.667 605.5,585C 604.944,584.617 604.611,584.117 604.5,583.5C 603.043,581.215 601.043,579.382 598.5,578C 548.606,555.224 498.94,531.557 449.5,507C 432.62,498.064 416.954,487.398 402.5,475C 400.095,474.719 400.095,475.385 402.5,477C 402.272,477.399 401.938,477.565 401.5,477.5C 390.952,470.128 381.119,461.795 372,452.5C 368.697,448.197 367.864,443.53 369.5,438.5C 369.264,441.439 369.764,444.439 371,447.5C 371.302,435.541 377.469,430.374 389.5,432C 387.392,431.64 385.392,430.973 383.5,430C 384.793,429.51 386.127,429.343 387.5,429.5C 401.48,433.998 414.146,440.832 425.5,450C 453.588,464.709 482.255,478.376 511.5,491C 546.818,505 581.818,519.5 616.5,534.5C 613.402,534.413 613.068,534.913 615.5,536C 619.166,537.271 621.666,536.104 623,532.5C 623.243,501.66 623.743,470.827 624.5,440C 624.498,436.648 624.165,433.482 623.5,430.5C 623.181,425.637 623.514,420.97 624.5,416.5C 624.335,419.85 624.502,423.183 625,426.5C 626.925,393.471 629.259,360.471 632,327.5C 632.492,317.53 635.159,308.196 640,299.5C 647.003,292.078 655.17,290.578 664.5,295C 665.667,296.167 666.833,297.333 668,298.5C 668.464,297.906 668.631,297.239 668.5,296.5 Z"/></g>
<g><path style="opacity:1" fill="#f3ed6a" d="M 1275.5,271.5 C 1274.12,281.738 1269.45,290.238 1261.5,297C 1260.26,297.456 1259.42,296.956 1259,295.5C 1258.33,296.252 1257.5,296.586 1256.5,296.5C 1261.92,292.411 1266.26,287.411 1269.5,281.5C 1271.97,278.381 1273.97,275.048 1275.5,271.5 Z"/></g>
<g><path style="opacity:1" fill="#f3ee7c" d="M 1539.5,311.5 C 1544.76,309.605 1549.42,310.605 1553.5,314.5C 1552.66,314.842 1552.33,315.508 1552.5,316.5C 1548.01,314.947 1543.34,314.114 1538.5,314C 1540.39,313.027 1542.39,312.36 1544.5,312C 1542.87,311.506 1541.2,311.34 1539.5,311.5 Z"/></g>
<g><path style="opacity:1" fill="#f2ec51" d="M 1539.5,311.5 C 1541.2,311.34 1542.87,311.506 1544.5,312C 1542.39,312.36 1540.39,313.027 1538.5,314C 1543.34,314.114 1548.01,314.947 1552.5,316.5C 1556.57,322.973 1557.57,329.973 1555.5,337.5C 1554.38,384.49 1554.22,431.49 1555,478.5C 1555.42,479.756 1556.25,480.423 1557.5,480.5C 1557.92,481.222 1558.58,481.722 1559.5,482C 1572.15,483.277 1584.81,483.61 1597.5,483C 1598.5,482.667 1599.5,482.333 1600.5,482C 1598.62,481.802 1596.95,481.302 1595.5,480.5C 1603.79,478.633 1611.79,479.3 1619.5,482.5C 1619.08,483.222 1618.42,483.722 1617.5,484C 1623.9,487.395 1629.4,491.895 1634,497.5C 1635.95,501.284 1637.28,505.284 1638,509.5C 1638.67,504.167 1639.33,504.167 1640,509.5C 1640.49,508.207 1640.66,506.873 1640.5,505.5C 1641.44,508.827 1642.28,512.161 1643,515.5C 1642.63,514.09 1641.8,513.09 1640.5,512.5C 1637.54,521.12 1631.88,527.12 1623.5,530.5C 1623.08,529.778 1622.42,529.278 1621.5,529C 1622.67,528.581 1623.67,527.915 1624.5,527C 1621.91,526.64 1619.58,527.307 1617.5,529C 1613.53,529.853 1609.53,530.519 1605.5,531C 1589.83,531.322 1574.16,531.322 1558.5,531C 1557.83,531.333 1557.17,531.667 1556.5,532C 1557.76,532.417 1558.42,533.25 1558.5,534.5C 1555.74,535.961 1553.91,538.295 1553,541.5C 1552.13,556.199 1550.96,570.866 1549.5,585.5C 1548.68,583.031 1548.18,580.365 1548,577.5C 1546.73,589.861 1545.23,602.195 1543.5,614.5C 1543.51,616.045 1543.84,617.378 1544.5,618.5C 1544.26,622.842 1543.93,627.176 1543.5,631.5C 1542.7,630.048 1542.2,628.382 1542,626.5C 1538.04,653.939 1533.54,681.272 1528.5,708.5C 1528.96,709.298 1529.62,709.631 1530.5,709.5C 1529.74,713.37 1527.74,716.37 1524.5,718.5C 1523.5,717.335 1522.17,716.668 1520.5,716.5C 1510.89,720.179 1502.72,718.179 1496,710.5C 1493.21,705.45 1491.21,700.116 1490,694.5C 1488.46,676.195 1488.13,657.862 1489,639.5C 1492.01,607.779 1495.34,576.112 1499,544.5C 1502.91,531.788 1498.41,524.622 1485.5,523C 1458.84,520.898 1432.17,518.898 1405.5,517C 1397.3,514.101 1393.46,508.267 1394,499.5C 1393.82,502.365 1393.32,505.031 1392.5,507.5C 1390.21,499.865 1392.21,493.365 1398.5,488C 1412.56,480.764 1427.56,477.431 1443.5,478C 1462.18,477.688 1480.84,477.188 1499.5,476.5C 1500.55,476.351 1501.55,476.517 1502.5,477C 1501.17,477.667 1499.83,478.333 1498.5,479C 1500.29,479.52 1501.96,479.187 1503.5,478C 1505.05,475.345 1506.22,472.512 1507,469.5C 1509.86,440.477 1512.86,411.477 1516,382.5C 1518.28,369.466 1520.78,356.466 1523.5,343.5C 1523.3,339.576 1522.8,339.576 1522,343.5C 1521.51,342.207 1521.34,340.873 1521.5,339.5C 1522.59,330.16 1526.25,321.993 1532.5,315C 1534.89,313.807 1537.22,312.64 1539.5,311.5 Z"/></g>
<g><path style="opacity:1" fill="#f3e942" d="M 670.5,299.5 C 674.061,307.387 676.561,315.721 678,324.5C 681.541,352.079 684.041,379.746 685.5,407.5C 684.732,406.737 684.232,405.737 684,404.5C 683.667,405.5 683.333,406.5 683,407.5C 681.181,377.033 678.181,346.7 674,316.5C 671.416,310.971 670.25,305.304 670.5,299.5 Z"/></g>
<g><path style="opacity:1" fill="#f3ed69" d="M 1553.5,314.5 C 1555.22,316.253 1556.72,318.253 1558,320.5C 1558.78,330.547 1558.62,340.547 1557.5,350.5C 1556.83,346.167 1556.17,341.833 1555.5,337.5C 1557.57,329.973 1556.57,322.973 1552.5,316.5C 1552.33,315.508 1552.66,314.842 1553.5,314.5 Z"/></g>
<g><path style="opacity:1" fill="#f3ed72" d="M 1038.5,336.5 C 1052.14,333.91 1061.31,339.243 1066,352.5C 1066.82,357.352 1066.65,362.019 1065.5,366.5C 1065.33,349.179 1064.83,349.179 1064,366.5C 1064.69,347.421 1056.19,337.421 1038.5,336.5 Z"/></g>
<g><path style="opacity:1" fill="#f5ef86" d="M 1555.5,337.5 C 1556.17,341.833 1556.83,346.167 1557.5,350.5C 1557.37,382.982 1557.04,415.315 1556.5,447.5C 1555.52,420.176 1555.35,430.176 1556,477.5C 1556.51,478.527 1557.01,479.527 1557.5,480.5C 1556.25,480.423 1555.42,479.756 1555,478.5C 1554.22,431.49 1554.38,384.49 1555.5,337.5 Z"/></g>
<g><path style="opacity:1" fill="#f3ed68" d="M 668.5,296.5 C 668.631,297.239 668.464,297.906 668,298.5C 666.833,297.333 665.667,296.167 664.5,295C 655.17,290.578 647.003,292.078 640,299.5C 635.159,308.196 632.492,317.53 632,327.5C 629.259,360.471 626.925,393.471 625,426.5C 624.502,423.183 624.335,419.85 624.5,416.5C 624.966,388.78 626.466,361.113 629,333.5C 629.18,320.243 632.513,307.91 639,296.5C 645.139,290.936 652.306,289.103 660.5,291C 663.721,292.104 666.388,293.937 668.5,296.5 Z"/></g>
<g><path style="opacity:1" fill="#f3ec5f" d="M 1004.5,360.5 C 1005.24,360.369 1005.91,360.536 1006.5,361C 980.672,379.421 953.672,396.088 925.5,411C 923.365,411.605 923.031,411.105 924.5,409.5C 942.77,398.693 961.103,387.86 979.5,377C 987.862,371.49 996.195,365.99 1004.5,360.5 Z"/></g>
<g><path style="opacity:1" fill="#f3ea43" d="M 1521.5,339.5 C 1521.34,340.873 1521.51,342.207 1522,343.5C 1522.8,339.576 1523.3,339.576 1523.5,343.5C 1520.78,356.466 1518.28,369.466 1516,382.5C 1512.86,411.477 1509.86,440.477 1507,469.5C 1506.22,472.512 1505.05,475.345 1503.5,478C 1501.96,479.187 1500.29,479.52 1498.5,479C 1499.83,478.333 1501.17,477.667 1502.5,477C 1501.55,476.517 1500.55,476.351 1499.5,476.5C 1502.18,475.522 1503.68,473.522 1504,470.5C 1506.94,442.494 1509.94,414.494 1513,386.5C 1514.78,370.504 1517.61,354.837 1521.5,339.5 Z"/></g>
<g><path style="opacity:1" fill="#f4ee80" d="M 387.5,429.5 C 386.127,429.343 384.793,429.51 383.5,430C 385.392,430.973 387.392,431.64 389.5,432C 377.469,430.374 371.302,435.541 371,447.5C 369.764,444.439 369.264,441.439 369.5,438.5C 373.234,430.632 379.234,427.632 387.5,429.5 Z"/></g>
<g><path style="opacity:1" fill="#f4ee73" d="M 623.5,430.5 C 624.165,433.482 624.498,436.648 624.5,440C 623.743,470.827 623.243,501.66 623,532.5C 621.666,536.104 619.166,537.271 615.5,536C 613.068,534.913 613.402,534.413 616.5,534.5C 618.371,534.141 619.871,533.141 621,531.5C 619.795,497.731 620.628,464.065 623.5,430.5 Z"/></g>
<g><path style="opacity:1" fill="#f3ed64" d="M 1556.5,447.5 C 1556.33,456.839 1556.5,466.173 1557,475.5C 1557.47,476.931 1558.3,478.097 1559.5,479C 1571.44,481.006 1583.44,481.506 1595.5,480.5C 1596.95,481.302 1598.62,481.802 1600.5,482C 1599.5,482.333 1598.5,482.667 1597.5,483C 1584.81,483.61 1572.15,483.277 1559.5,482C 1558.58,481.722 1557.92,481.222 1557.5,480.5C 1557.01,479.527 1556.51,478.527 1556,477.5C 1555.35,430.176 1555.52,420.176 1556.5,447.5 Z"/></g>
<g><path style="opacity:1" fill="#ece750" d="M 1630.5,485.5 C 1630.9,484.475 1631.56,484.308 1632.5,485C 1631.91,485.464 1631.24,485.631 1630.5,485.5 Z"/></g>
<g><path style="opacity:1" fill="#f3e739" d="M 1053.5,390.5 C 1035.07,412.438 1013.74,430.938 989.5,446C 903.337,493.41 817.004,540.243 730.5,586.5C 728.983,586.511 727.816,587.177 727,588.5C 726.383,587.551 726.549,586.718 727.5,586C 731.5,583.333 735.5,580.667 739.5,578C 821.263,534.284 902.929,490.284 984.5,446C 1010.69,430.157 1033.52,410.323 1053,386.5C 1052.64,387.959 1052.81,389.293 1053.5,390.5 Z"/></g>
<g><path style="opacity:1" fill="#f3ed71" d="M 1619.5,482.5 C 1623.57,484.045 1627.24,486.379 1630.5,489.5C 1631.74,490.246 1633.07,490.579 1634.5,490.5C 1634.57,493.084 1635.74,495.084 1638,496.5C 1638.39,499.652 1639.23,502.652 1640.5,505.5C 1640.66,506.873 1640.49,508.207 1640,509.5C 1639.33,504.167 1638.67,504.167 1638,509.5C 1637.28,505.284 1635.95,501.284 1634,497.5C 1629.4,491.895 1623.9,487.395 1617.5,484C 1618.42,483.722 1619.08,483.222 1619.5,482.5 Z"/></g>
<g><path style="opacity:1" fill="#f0e854" d="M 1634.5,490.5 C 1634.2,487.664 1634.87,487.164 1636.5,489C 1635.96,489.717 1635.29,490.217 1634.5,490.5 Z"/></g>
<g><path style="opacity:1" fill="#f3ed64" d="M 919.5,412.5 C 920.239,412.369 920.906,412.536 921.5,413C 900.833,424 880.167,435 859.5,446C 805.793,476.381 751.626,505.881 697,534.5C 694.236,533.975 693.402,532.642 694.5,530.5C 699.509,531.342 704.176,530.175 708.5,527C 767.371,494.065 826.371,461.399 885.5,429C 896.702,423.232 908.035,417.732 919.5,412.5 Z"/></g>
<g><path style="opacity:1" fill="#f3e83f" d="M 1623.5,530.5 C 1618.79,532.718 1613.79,533.885 1608.5,534C 1591.75,534.235 1575.09,534.402 1558.5,534.5C 1558.42,533.25 1557.76,532.417 1556.5,532C 1557.17,531.667 1557.83,531.333 1558.5,531C 1574.16,531.322 1589.83,531.322 1605.5,531C 1609.53,530.519 1613.53,529.853 1617.5,529C 1619.58,527.307 1621.91,526.64 1624.5,527C 1623.67,527.915 1622.67,528.581 1621.5,529C 1622.42,529.278 1623.08,529.778 1623.5,530.5 Z"/></g>
<g><path style="opacity:1" fill="#f3ea42" d="M 604.5,583.5 C 603.5,583.5 602.5,583.5 601.5,583.5C 597.005,580.53 592.338,577.697 587.5,575C 545.683,555.924 504.016,536.59 462.5,517C 450.671,510.586 439.004,503.92 427.5,497C 418.367,491.021 409.7,484.521 401.5,477.5C 401.938,477.565 402.272,477.399 402.5,477C 400.095,475.385 400.095,474.719 402.5,475C 416.954,487.398 432.62,498.064 449.5,507C 498.94,531.557 548.606,555.224 598.5,578C 601.043,579.382 603.043,581.215 604.5,583.5 Z"/></g>
<g><path style="opacity:1" fill="#f3ed65" d="M 601.5,583.5 C 602.5,583.5 603.5,583.5 604.5,583.5C 604.611,584.117 604.944,584.617 605.5,585C 602.833,587.667 600.167,590.333 597.5,593C 490.469,657.018 390.469,730.684 297.5,814C 288.434,822.319 280.934,831.819 275,842.5C 273.126,846.48 273.126,850.48 275,854.5C 276.906,856.408 277.74,858.408 277.5,860.5C 273.422,857.632 271.422,853.632 271.5,848.5C 271.656,842.868 273.49,837.868 277,833.5C 283.763,824.733 291.263,816.567 299.5,809C 352.127,761.876 407.127,717.876 464.5,677C 486.774,662.391 508.774,647.391 530.5,632C 553.434,618.062 576.1,603.728 598.5,589C 600.607,587.736 601.607,585.903 601.5,583.5 Z"/></g>
<g><path style="opacity:1" fill="#f3e942" d="M 1524.5,718.5 C 1508.57,725.47 1497.07,720.804 1490,704.5C 1488.84,700.203 1487.84,695.869 1487,691.5C 1486.33,673.167 1486.33,654.833 1487,636.5C 1491.06,601.537 1494.4,566.537 1497,531.5C 1494.77,528.194 1491.61,526.694 1487.5,527C 1461.86,524.925 1436.19,523.258 1410.5,522C 1401.26,520.907 1395.26,516.074 1392.5,507.5C 1393.32,505.031 1393.82,502.365 1394,499.5C 1393.46,508.267 1397.3,514.101 1405.5,517C 1432.17,518.898 1458.84,520.898 1485.5,523C 1498.41,524.622 1502.91,531.788 1499,544.5C 1495.34,576.112 1492.01,607.779 1489,639.5C 1488.13,657.862 1488.46,676.195 1490,694.5C 1491.21,700.116 1493.21,705.45 1496,710.5C 1502.72,718.179 1510.89,720.179 1520.5,716.5C 1522.17,716.668 1523.5,717.335 1524.5,718.5 Z"/></g>
<g><path style="opacity:1" fill="#f3ed6d" d="M 1549.5,585.5 C 1548.41,596.587 1546.74,607.587 1544.5,618.5C 1543.84,617.378 1543.51,616.045 1543.5,614.5C 1545.23,602.195 1546.73,589.861 1548,577.5C 1548.18,580.365 1548.68,583.031 1549.5,585.5 Z"/></g>
<g><path style="opacity:1" fill="#f3ea42" d="M 1044.5,837.5 C 1033.82,841.399 1023.49,840.232 1013.5,834C 998.833,822 984.167,810 969.5,798C 931.5,770.333 893.5,742.667 855.5,715C 834.316,702.239 812.65,690.239 790.5,679C 761.652,664.993 732.818,650.826 704,636.5C 702.615,637.551 701.615,638.884 701,640.5C 700.621,666.835 700.787,693.169 701.5,719.5C 700.477,721.675 699.81,723.675 699.5,725.5C 698.333,696.172 698.167,666.839 699,637.5C 699.374,636.584 699.874,635.75 700.5,635C 703.899,634.454 707.232,634.787 710.5,636C 755.167,659 799.833,682 844.5,705C 886.343,734.755 928.01,764.755 969.5,795C 985.425,807.25 1001.09,819.916 1016.5,833C 1025.15,837.749 1034.15,838.582 1043.5,835.5C 1043.79,836.2 1044.12,836.867 1044.5,837.5 Z"/></g>
<g><path style="opacity:1" fill="#f3ed6b" d="M 1543.5,631.5 C 1540.42,651.118 1537.59,670.785 1535,690.5C 1534.13,697.116 1532.63,703.449 1530.5,709.5C 1529.62,709.631 1528.96,709.298 1528.5,708.5C 1533.54,681.272 1538.04,653.939 1542,626.5C 1542.2,628.382 1542.7,630.048 1543.5,631.5 Z"/></g>
<g><path style="opacity:1" fill="#f4ee73" d="M 623.5,736.5 C 622.079,725.7 621.412,714.7 621.5,703.5C 622.031,688.17 622.364,672.836 622.5,657.5C 623.268,656.737 623.768,655.737 624,654.5C 624.167,661.333 624.333,668.167 624.5,675C 623.586,695.671 623.252,716.171 623.5,736.5 Z"/></g>
<g><path style="opacity:1" fill="#f3ec5f" d="M 1004.5,753.5 C 1020.26,762.37 1034.92,772.703 1048.5,784.5C 1049.96,786.463 1051.63,788.296 1053.5,790C 1037.38,777.905 1020.71,766.239 1003.5,755C 1002.29,753.893 1002.62,753.393 1004.5,753.5 Z"/></g>
<g><path style="opacity:1" fill="#f3ed6f" d="M 630.5,801.5 C 629.642,797.327 628.976,792.993 628.5,788.5C 628.969,783.008 629.135,777.341 629,771.5C 630.664,782.136 631.664,792.803 632,803.5C 631.722,802.584 631.222,801.918 630.5,801.5 Z"/></g>
<g><path style="opacity:1" fill="#f3ec50" d="M 1835.5,799.5 C 1836.26,800.268 1837.26,800.768 1838.5,801C 1835.83,801.333 1833.17,801.667 1830.5,802C 1837.71,801.619 1843.21,804.452 1847,810.5C 1849.58,813.997 1851.92,817.664 1854,821.5C 1855.29,825.73 1855.79,830.064 1855.5,834.5C 1850.71,843.073 1844.71,850.74 1837.5,857.5C 1827.02,860.782 1818.18,858.449 1811,850.5C 1803.45,840.423 1803.12,830.09 1810,819.5C 1813.86,815.64 1817.69,811.806 1821.5,808C 1819.02,808.747 1816.69,810.081 1814.5,812C 1806.11,819.623 1802.27,829.123 1803,840.5C 1802.72,839.584 1802.22,838.918 1801.5,838.5C 1800.13,829.892 1802.29,822.226 1808,815.5C 1813.91,808.473 1821.08,803.306 1829.5,800C 1831.47,799.505 1833.47,799.338 1835.5,799.5 Z"/></g>
<g><path style="opacity:1" fill="#f3e737" d="M 619.5,647.5 C 615.938,647.965 612.605,649.132 609.5,651C 547.644,687.085 487.311,725.419 428.5,766C 385.778,797.055 342.778,827.721 299.5,858C 294.096,861.745 288.096,863.579 281.5,863.5C 282.952,862.698 284.618,862.198 286.5,862C 285.5,861.667 284.5,861.333 283.5,861C 286.576,860.654 289.576,859.988 292.5,859C 336.026,829.404 379.026,799.071 421.5,768C 482.811,726.003 545.478,686.003 609.5,648C 613.555,645.66 617.889,644.993 622.5,646C 621.263,646.232 620.263,646.732 619.5,647.5 Z"/></g>
<g><path style="opacity:1" fill="#f3ed69" d="M 1835.5,799.5 C 1838.64,799.956 1841.64,800.956 1844.5,802.5C 1848.58,801.551 1851.24,803.218 1852.5,807.5C 1854,807.415 1855,808.081 1855.5,809.5C 1853.88,810.869 1853.38,812.536 1854,814.5C 1855.33,815.833 1856.67,815.833 1858,814.5C 1858.63,816.713 1858.46,818.88 1857.5,821C 1857.81,822.459 1858.47,823.626 1859.5,824.5C 1859.81,827.247 1859.48,829.914 1858.5,832.5C 1857.91,832.291 1857.41,831.957 1857,831.5C 1856.77,832.737 1856.27,833.737 1855.5,834.5C 1855.79,830.064 1855.29,825.73 1854,821.5C 1851.92,817.664 1849.58,813.997 1847,810.5C 1843.21,804.452 1837.71,801.619 1830.5,802C 1833.17,801.667 1835.83,801.333 1838.5,801C 1837.26,800.768 1836.26,800.268 1835.5,799.5 Z M 1852.5,807.5 C 1852.36,809.337 1851.69,809.67 1850.5,808.5C 1850.96,807.702 1851.62,807.369 1852.5,807.5 Z"/></g>
<g><path style="opacity:1" fill="#f6f08c" d="M 634.5,820.5 C 635.498,830.475 636.165,840.475 636.5,850.5C 635.095,842.195 634.095,833.695 633.5,825C 633.508,823.293 633.842,821.793 634.5,820.5 Z"/></g>
<g><path style="opacity:1" fill="#f3ea44" d="M 1837.5,857.5 C 1833.43,859.379 1829.43,861.379 1825.5,863.5C 1822.82,862.829 1820.15,862.162 1817.5,861.5C 1809.14,856.106 1803.8,848.439 1801.5,838.5C 1802.22,838.918 1802.72,839.584 1803,840.5C 1802.27,829.123 1806.11,819.623 1814.5,812C 1816.69,810.081 1819.02,808.747 1821.5,808C 1817.69,811.806 1813.86,815.64 1810,819.5C 1803.12,830.09 1803.45,840.423 1811,850.5C 1818.18,858.449 1827.02,860.782 1837.5,857.5 Z"/></g>
<g><path style="opacity:1" fill="#f3ec5c" d="M 1859.5,824.5 C 1861.18,827.668 1862.18,831.168 1862.5,835C 1862.17,835.833 1861.83,836.667 1861.5,837.5C 1859.84,833.777 1858.51,833.777 1857.5,837.5C 1860.77,841.766 1859.77,844.433 1854.5,845.5C 1855.75,847.042 1855.75,848.542 1854.5,850C 1853.26,850.311 1852.26,849.811 1851.5,848.5C 1850.77,850.401 1850.77,852.401 1851.5,854.5C 1849.86,854.52 1848.52,853.853 1847.5,852.5C 1846.36,853.776 1846.36,855.109 1847.5,856.5C 1843.11,858.908 1838.77,861.408 1834.5,864C 1829.17,864.667 1823.83,864.667 1818.5,864C 1817.75,863.329 1817.41,862.496 1817.5,861.5C 1820.15,862.162 1822.82,862.829 1825.5,863.5C 1829.43,861.379 1833.43,859.379 1837.5,857.5C 1844.71,850.74 1850.71,843.073 1855.5,834.5C 1856.27,833.737 1856.77,832.737 1857,831.5C 1857.41,831.957 1857.91,832.291 1858.5,832.5C 1859.48,829.914 1859.81,827.247 1859.5,824.5 Z"/></g>
<g><path style="opacity:1" fill="#f3ed66" d="M 634.5,820.5 C 633.842,821.793 633.508,823.293 633.5,825C 634.095,833.695 635.095,842.195 636.5,850.5C 637.11,851.391 637.443,852.391 637.5,853.5C 636.968,864.836 636.634,876.17 636.5,887.5C 635.344,864.144 633.678,840.811 631.5,817.5C 632.321,814.359 632.821,811.025 633,807.5C 633.465,811.848 633.965,816.181 634.5,820.5 Z"/></g>
<g><path style="opacity:1" fill="#f3ec4f" d="M 1211.5,873.5 C 1224.6,871.478 1235.44,875.478 1244,885.5C 1246.3,889.218 1246.97,893.218 1246,897.5C 1240,911.344 1229.83,920.344 1215.5,924.5C 1210.17,923.746 1206,921.079 1203,916.5C 1198.2,909.911 1195.37,902.578 1194.5,894.5C 1196.11,884.225 1201.77,877.225 1211.5,873.5 Z"/></g>
<g><path style="opacity:1" fill="#f4ee7f" d="M 637.5,853.5 C 638.388,869.49 639.055,885.49 639.5,901.5C 639.167,901.5 638.833,901.5 638.5,901.5C 638.657,900.127 638.49,898.793 638,897.5C 637.617,898.056 637.117,898.389 636.5,898.5C 636.5,894.833 636.5,891.167 636.5,887.5C 636.634,876.17 636.968,864.836 637.5,853.5 Z"/></g>
<g><path style="opacity:1" fill="#f3ed78" d="M 638.5,901.5 C 638.833,901.5 639.167,901.5 639.5,901.5C 640.355,909.831 641.189,918.165 642,926.5C 639.704,918.335 638.537,910.002 638.5,901.5 Z"/></g>
<g><path style="opacity:1" fill="#f3ec50" d="M 239.5,1023.5 C 240.222,1023.92 240.722,1024.58 241,1025.5C 238.254,1014.4 241.754,1005.9 251.5,1000C 250.906,999.536 250.239,999.369 249.5,999.5C 258.449,994.107 267.449,994.274 276.5,1000C 287.409,1011.63 287.075,1022.96 275.5,1034C 265.5,1040 255.5,1040 245.5,1034C 242.572,1030.97 240.572,1027.47 239.5,1023.5 Z"/></g>
<g><path style="opacity:1" fill="#f3ec50" d="M 1388.5,999.5 C 1396.97,998.654 1404.14,1001.32 1410,1007.5C 1418.2,1018.58 1423.7,1030.91 1426.5,1044.5C 1425.88,1044.92 1425.54,1045.58 1425.5,1046.5C 1430.65,1069.77 1435.49,1093.1 1440,1116.5C 1440.2,1114.62 1440.7,1112.95 1441.5,1111.5C 1441.83,1114.83 1442.17,1118.17 1442.5,1121.5C 1441.71,1120.39 1441.21,1119.06 1441,1117.5C 1442.21,1130.24 1444.21,1142.91 1447,1155.5C 1447.19,1153.29 1447.69,1151.29 1448.5,1149.5C 1449.17,1154.83 1449.83,1160.17 1450.5,1165.5C 1449.73,1164.74 1449.23,1163.74 1449,1162.5C 1450.45,1175.53 1452.45,1188.53 1455,1201.5C 1455.2,1199.62 1455.7,1197.95 1456.5,1196.5C 1458.22,1209.17 1460.06,1221.84 1462,1234.5C 1462.84,1238.5 1465.01,1241.5 1468.5,1243.5C 1471.45,1245.63 1474.62,1244.63 1478,1240.5C 1501.21,1210.95 1525.54,1182.29 1551,1154.5C 1583.14,1120.46 1615.64,1086.63 1648.5,1053C 1655.68,1046.92 1663.34,1041.58 1671.5,1037C 1675.19,1036.44 1678.85,1035.77 1682.5,1035C 1676.14,1034.02 1676.47,1033.52 1683.5,1033.5C 1687.42,1034.13 1690.75,1035.79 1693.5,1038.5C 1693.57,1038.94 1693.4,1039.27 1693,1039.5C 1692.16,1037.99 1691,1037.49 1689.5,1038C 1695.92,1043.1 1698.25,1049.6 1696.5,1057.5C 1693.68,1066.8 1689.51,1075.47 1684,1083.5C 1674.59,1096.06 1665.42,1108.73 1656.5,1121.5C 1644.91,1135.6 1633.07,1149.6 1621,1163.5C 1620.39,1165.64 1620.89,1165.97 1622.5,1164.5C 1618.58,1170.75 1613.92,1176.42 1608.5,1181.5C 1608.63,1180.76 1608.46,1180.09 1608,1179.5C 1601.72,1186.57 1595.55,1193.74 1589.5,1201C 1590.06,1201.38 1590.39,1201.88 1590.5,1202.5C 1589.5,1204.17 1588.17,1205.5 1586.5,1206.5C 1585.81,1205.23 1584.98,1205.23 1584,1206.5C 1571.54,1221.96 1558.71,1237.13 1545.5,1252C 1546.09,1252.46 1546.76,1252.63 1547.5,1252.5C 1540.87,1260.3 1534.04,1267.96 1527,1275.5C 1525.87,1277.35 1525.37,1279.35 1525.5,1281.5C 1524.83,1282.85 1524.83,1284.01 1525.5,1285C 1529.83,1285.67 1534.17,1285.67 1538.5,1285C 1586.66,1277.55 1635,1271.22 1683.5,1266C 1687.08,1264.93 1690.75,1264.26 1694.5,1264C 1692.83,1263.67 1691.17,1263.33 1689.5,1263C 1690.74,1262.77 1691.74,1262.27 1692.5,1261.5C 1694.95,1261.7 1697.28,1261.37 1699.5,1260.5C 1700.26,1261.27 1701.26,1261.77 1702.5,1262C 1700.17,1262.33 1697.83,1262.67 1695.5,1263C 1698,1263.17 1700.5,1263.33 1703,1263.5C 1773.88,1254.69 1845.05,1250.52 1916.5,1251C 1913.96,1250.81 1911.63,1250.31 1909.5,1249.5C 1923.07,1248.6 1935.74,1251.43 1947.5,1258C 1958.52,1270.29 1959.19,1283.13 1949.5,1296.5C 1942.55,1303.31 1934.22,1307.47 1924.5,1309C 1915.56,1310.93 1906.56,1312.43 1897.5,1313.5C 1896.76,1313.63 1896.09,1313.46 1895.5,1313C 1896.83,1312.67 1898.17,1312.33 1899.5,1312C 1880.82,1313.56 1862.15,1315.56 1843.5,1318C 1845.71,1318.19 1847.71,1318.69 1849.5,1319.5C 1840.53,1320.5 1831.53,1321.16 1822.5,1321.5C 1825.73,1320.26 1830.4,1319.43 1836.5,1319C 1824.74,1318.95 1813.08,1319.95 1801.5,1322C 1802.42,1322.28 1803.08,1322.78 1803.5,1323.5C 1709.52,1332 1615.86,1343.16 1522.5,1357C 1518.09,1357.36 1513.92,1358.53 1510,1360.5C 1509.48,1362.29 1509.81,1363.96 1511,1365.5C 1560.66,1407.15 1603.99,1454.49 1641,1507.5C 1642.76,1510.41 1644.26,1513.41 1645.5,1516.5C 1644.64,1515.54 1643.97,1515.54 1643.5,1516.5C 1651.8,1528.24 1655.97,1541.24 1656,1555.5C 1655.35,1558.97 1653.85,1561.97 1651.5,1564.5C 1651.67,1564.83 1651.83,1565.17 1652,1565.5C 1653.04,1564.29 1654.21,1563.29 1655.5,1562.5C 1655.14,1564.37 1654.14,1565.87 1652.5,1567C 1644.68,1573.2 1636.34,1574.36 1627.5,1570.5C 1626.95,1569.31 1626.62,1568.14 1626.5,1567C 1615.82,1560.33 1606.32,1552.16 1598,1542.5C 1568.24,1508.4 1537.41,1475.24 1505.5,1443C 1504.13,1442.6 1502.79,1442.1 1501.5,1441.5C 1500.3,1441.85 1500.3,1442.35 1501.5,1443C 1500.26,1443.23 1499.26,1443.73 1498.5,1444.5C 1497.76,1452.48 1498.26,1460.48 1500,1468.5C 1506.85,1506.57 1514.02,1544.57 1521.5,1582.5C 1520.73,1581.74 1520.23,1580.74 1520,1579.5C 1521.37,1590.32 1523.7,1600.98 1527,1611.5C 1527.23,1610.26 1527.73,1609.26 1528.5,1608.5C 1528.83,1610.5 1529.17,1612.5 1529.5,1614.5C 1528.78,1614.08 1528.28,1613.42 1528,1612.5C 1527.83,1614.85 1528.16,1617.18 1529,1619.5C 1536.74,1641.39 1544.07,1663.39 1551,1685.5C 1553.39,1696.59 1551.56,1706.92 1545.5,1716.5C 1545.97,1717.46 1546.64,1717.46 1547.5,1716.5C 1539.38,1728.55 1528.05,1733.55 1513.5,1731.5C 1516.31,1730.68 1519.31,1730.18 1522.5,1730C 1509.05,1730.11 1498.22,1724.95 1490,1714.5C 1482.67,1702.84 1476.67,1690.51 1472,1677.5C 1454.09,1626.66 1441.76,1574.33 1435,1520.5C 1434.77,1521.74 1434.27,1522.74 1433.5,1523.5C 1426.97,1484.65 1421.14,1445.65 1416,1406.5C 1415.37,1400.64 1412.54,1399.14 1407.5,1402C 1392.92,1416.56 1378.59,1431.23 1364.5,1446C 1354.96,1455.04 1345.3,1463.87 1335.5,1472.5C 1334.45,1472.35 1333.45,1472.52 1332.5,1473C 1323.86,1480.64 1315.53,1488.64 1307.5,1497C 1308.06,1497.38 1308.39,1497.88 1308.5,1498.5C 1295.7,1511.13 1282.7,1523.63 1269.5,1536C 1251.45,1550.38 1233.12,1564.38 1214.5,1578C 1203.08,1583.78 1195.74,1580.62 1192.5,1568.5C 1192.88,1565.17 1193.88,1562.17 1195.5,1559.5C 1195.36,1562.35 1195.03,1565.18 1194.5,1568C 1194.54,1569.97 1195.04,1571.8 1196,1573.5C 1195.28,1567.13 1196.61,1561.13 1200,1555.5C 1235.49,1518.02 1269.49,1479.35 1302,1439.5C 1315.33,1425.5 1328.67,1411.5 1342,1397.5C 1345.51,1393.48 1347.01,1388.81 1346.5,1383.5C 1334.1,1383.1 1321.77,1384.27 1309.5,1387C 1311.15,1387.61 1312.82,1388.11 1314.5,1388.5C 1241.53,1399.12 1168.2,1407.95 1094.5,1415C 1076.86,1416.64 1059.2,1417.81 1041.5,1418.5C 1035.76,1418.18 1030.09,1417.35 1024.5,1416C 1012.17,1411.17 1008,1402.34 1012,1389.5C 1012.94,1386.4 1014.77,1384.07 1017.5,1382.5C 1017.94,1383.23 1018.11,1384.23 1018,1385.5C 1022.13,1381.52 1026.96,1378.68 1032.5,1377C 1074.5,1368 1116.5,1359 1158.5,1350C 1155.85,1349.5 1153.19,1349.34 1150.5,1349.5C 1153.59,1348.22 1156.92,1347.55 1160.5,1347.5C 1161.24,1347.37 1161.91,1347.54 1162.5,1348C 1161.5,1348.33 1160.5,1348.67 1159.5,1349C 1168.5,1348 1177.5,1346.67 1186.5,1345C 1242.33,1334 1298.17,1322.83 1354,1311.5C 1353.57,1307.62 1352.24,1303.95 1350,1300.5C 1317.87,1269.71 1287.87,1237.04 1260,1202.5C 1259.83,1202.83 1259.67,1203.17 1259.5,1203.5C 1262.26,1206.25 1264.6,1209.25 1266.5,1212.5C 1257.73,1203.84 1249.07,1195.01 1240.5,1186C 1225.5,1173 1210.5,1160 1195.5,1147C 1189.95,1141.4 1185.78,1134.9 1183,1127.5C 1180.43,1115.29 1185.26,1108.29 1197.5,1106.5C 1202.23,1107.46 1206.56,1109.3 1210.5,1112C 1231.83,1126.67 1253.17,1141.33 1274.5,1156C 1295.42,1172.92 1315.09,1191.25 1333.5,1211C 1352.5,1227.33 1371.5,1243.67 1390.5,1260C 1392.35,1260.84 1394.18,1261.67 1396,1262.5C 1396.67,1261.83 1397.33,1261.17 1398,1260.5C 1398.25,1250.8 1397.75,1241.14 1396.5,1231.5C 1397.69,1235.05 1398.52,1239.39 1399,1244.5C 1399.33,1250.83 1399.67,1257.17 1400,1263.5C 1401.52,1259.63 1401.85,1255.63 1401,1251.5C 1392.17,1175.5 1383.33,1099.5 1374.5,1023.5C 1373.48,1010.37 1379.48,1002.87 1392.5,1001C 1390.94,1000.79 1389.61,1000.29 1388.5,999.5 Z"/></g>
<g><path style="opacity:1" fill="#f3ed66" d="M 249.5,999.5 C 250.239,999.369 250.906,999.536 251.5,1000C 241.754,1005.9 238.254,1014.4 241,1025.5C 240.722,1024.58 240.222,1023.92 239.5,1023.5C 236.817,1015.01 238.817,1007.51 245.5,1001C 246.745,1000.21 248.078,999.709 249.5,999.5 Z"/></g>
<g><path style="opacity:1" fill="#f3ed6a" d="M 1693.5,1038.5 C 1696.05,1040.58 1697.88,1043.24 1699,1046.5C 1699.77,1051.25 1699.61,1055.92 1698.5,1060.5C 1697.83,1059.5 1697.17,1058.5 1696.5,1057.5C 1698.25,1049.6 1695.92,1043.1 1689.5,1038C 1691,1037.49 1692.16,1037.99 1693,1039.5C 1693.4,1039.27 1693.57,1038.94 1693.5,1038.5 Z"/></g>
<g><path style="opacity:1" fill="#f3ec4f" d="M 880.5,1113.5 C 880.217,1112.71 879.717,1112.04 879,1111.5C 871.418,1119.09 863.252,1125.92 854.5,1132C 853.075,1133.36 852.242,1134.86 852,1136.5C 851.282,1135.55 850.449,1135.38 849.5,1136C 844.366,1140.13 839.532,1144.63 835,1149.5C 832.296,1153 831.963,1156.67 834,1160.5C 837.517,1164.18 841.684,1166.85 846.5,1168.5C 846.787,1167.8 847.12,1167.13 847.5,1166.5C 854.925,1168.13 861.425,1171.46 867,1176.5C 868.403,1182.61 865.903,1185.61 859.5,1185.5C 851.998,1184.29 844.664,1182.46 837.5,1180C 834.166,1178.79 831.666,1179.62 830,1182.5C 828.921,1194.86 827.588,1207.2 826,1219.5C 823.007,1225.83 818.507,1227.33 812.5,1224C 811.874,1223.25 811.374,1222.42 811,1221.5C 808.358,1210.33 807.024,1199 807,1187.5C 807.031,1183.88 805.364,1181.54 802,1180.5C 798.809,1181.41 796.143,1183.07 794,1185.5C 787.919,1194.25 781.086,1202.42 773.5,1210C 767.529,1212.51 763.529,1210.68 761.5,1204.5C 763.761,1196.64 767.595,1189.64 773,1183.5C 778.698,1177.47 784.698,1171.8 791,1166.5C 793.37,1164.13 794.87,1161.3 795.5,1158C 794.821,1154.99 793.321,1152.49 791,1150.5C 779.797,1139.49 767.297,1130.32 753.5,1123C 749.302,1118.37 749.636,1114.03 754.5,1110C 763.795,1109.09 772.462,1111.09 780.5,1116C 787.614,1120.97 794.781,1125.8 802,1130.5C 804.29,1108.97 806.29,1087.31 808,1065.5C 811.442,1058.37 816.609,1056.87 823.5,1061C 825.049,1062.21 826.215,1063.71 827,1065.5C 828.604,1084.13 829.604,1102.79 830,1121.5C 829.907,1124.96 830.907,1127.96 833,1130.5C 849.277,1121.27 864.444,1110.44 878.5,1098C 889.078,1094.33 891.911,1097.5 887,1107.5C 884.963,1109.71 882.797,1111.71 880.5,1113.5 Z"/></g>
<g><path style="opacity:1" fill="#f3ec63" d="M 1426.5,1044.5 C 1432.03,1066.62 1437.03,1088.95 1441.5,1111.5C 1440.7,1112.95 1440.2,1114.62 1440,1116.5C 1435.49,1093.1 1430.65,1069.77 1425.5,1046.5C 1425.54,1045.58 1425.88,1044.92 1426.5,1044.5 Z"/></g>
<g><path style="opacity:1" fill="#f4ee7f" d="M 1696.5,1057.5 C 1697.17,1058.5 1697.83,1059.5 1698.5,1060.5C 1695.76,1069.32 1691.92,1077.65 1687,1085.5C 1678.87,1097.45 1670.04,1108.78 1660.5,1119.5C 1660.57,1119.06 1660.4,1118.73 1660,1118.5C 1658.96,1119.71 1657.79,1120.71 1656.5,1121.5C 1665.42,1108.73 1674.59,1096.06 1684,1083.5C 1689.51,1075.47 1693.68,1066.8 1696.5,1057.5 Z"/></g>
<g><path style="opacity:1" fill="#f3ed6a" d="M 807.5,1082.5 C 808.163,1084.47 808.496,1086.64 808.5,1089C 807.674,1103.89 806.341,1118.73 804.5,1133.5C 805.137,1116.66 806.137,1099.66 807.5,1082.5 Z"/></g>
<g><path style="opacity:1" fill="#f3e93e" d="M 1683.5,1033.5 C 1676.47,1033.52 1676.14,1034.02 1682.5,1035C 1678.85,1035.77 1675.19,1036.44 1671.5,1037C 1663.34,1041.58 1655.68,1046.92 1648.5,1053C 1615.64,1086.63 1583.14,1120.46 1551,1154.5C 1525.54,1182.29 1501.21,1210.95 1478,1240.5C 1474.62,1244.63 1471.45,1245.63 1468.5,1243.5C 1472.01,1241.81 1475.18,1239.48 1478,1236.5C 1489.67,1222.17 1501.33,1207.83 1513,1193.5C 1556.07,1145.43 1600.23,1098.26 1645.5,1052C 1653.15,1045.84 1661.15,1040.18 1669.5,1035C 1674.15,1032.67 1678.82,1032.17 1683.5,1033.5 Z"/></g>
<g><path style="opacity:1" fill="#f3ea42" d="M 880.5,1113.5 C 867.982,1124.85 854.982,1135.68 841.5,1146C 838.763,1149.07 836.429,1152.4 834.5,1156C 834.95,1157.29 835.617,1158.45 836.5,1159.5C 839.876,1162.39 843.543,1164.72 847.5,1166.5C 847.12,1167.13 846.787,1167.8 846.5,1168.5C 841.684,1166.85 837.517,1164.18 834,1160.5C 831.963,1156.67 832.296,1153 835,1149.5C 839.532,1144.63 844.366,1140.13 849.5,1136C 850.449,1135.38 851.282,1135.55 852,1136.5C 852.242,1134.86 853.075,1133.36 854.5,1132C 863.252,1125.92 871.418,1119.09 879,1111.5C 879.717,1112.04 880.217,1112.71 880.5,1113.5 Z"/></g>
<g><path style="opacity:1" fill="#f3ed69" d="M 1442.5,1121.5 C 1444.59,1130.72 1446.59,1140.06 1448.5,1149.5C 1447.69,1151.29 1447.19,1153.29 1447,1155.5C 1444.21,1142.91 1442.21,1130.24 1441,1117.5C 1441.21,1119.06 1441.71,1120.39 1442.5,1121.5 Z"/></g>
<g><path style="opacity:1" fill="#f3ea43" d="M 1388.5,999.5 C 1389.61,1000.29 1390.94,1000.79 1392.5,1001C 1379.48,1002.87 1373.48,1010.37 1374.5,1023.5C 1383.33,1099.5 1392.17,1175.5 1401,1251.5C 1401.85,1255.63 1401.52,1259.63 1400,1263.5C 1399.67,1257.17 1399.33,1250.83 1399,1244.5C 1398.52,1239.39 1397.69,1235.05 1396.5,1231.5C 1387.56,1162.25 1379.56,1092.75 1372.5,1023C 1371.83,1014.66 1374.5,1007.66 1380.5,1002C 1382.91,1000.29 1385.58,999.46 1388.5,999.5 Z"/></g>
<g><path style="opacity:1" fill="#f3ed68" d="M 1660.5,1119.5 C 1649.28,1135.72 1636.61,1150.72 1622.5,1164.5C 1620.89,1165.97 1620.39,1165.64 1621,1163.5C 1633.07,1149.6 1644.91,1135.6 1656.5,1121.5C 1657.79,1120.71 1658.96,1119.71 1660,1118.5C 1660.4,1118.73 1660.57,1119.06 1660.5,1119.5 Z"/></g>
<g><path style="opacity:1" fill="#f3ec51" d="M 418.5,1159.5 C 419.552,1159.35 420.552,1159.52 421.5,1160C 418.623,1160.96 415.956,1162.29 413.5,1164C 418.675,1162.65 424.009,1162.32 429.5,1163C 431.246,1163.47 432.913,1164.14 434.5,1165C 436.667,1167.83 439.167,1170.33 442,1172.5C 448.264,1189.09 442.431,1197.42 424.5,1197.5C 417.474,1197.5 411.807,1194.84 407.5,1189.5C 406.479,1190 406.312,1190.67 407,1191.5C 409.205,1194.04 411.705,1196.21 414.5,1198C 412.981,1197.67 411.648,1197.84 410.5,1198.5C 400.339,1189.63 398.839,1179.3 406,1167.5C 409.337,1163.42 413.503,1160.76 418.5,1159.5 Z"/></g>
<g><path style="opacity:1" fill="#f3ed64" d="M 1450.5,1165.5 C 1452.68,1175.71 1454.68,1186.04 1456.5,1196.5C 1455.7,1197.95 1455.2,1199.62 1455,1201.5C 1452.45,1188.53 1450.45,1175.53 1449,1162.5C 1449.23,1163.74 1449.73,1164.74 1450.5,1165.5 Z"/></g>
<g><path style="opacity:1" fill="#f3ec62" d="M 1608.5,1181.5 C 1603.24,1189.09 1597.24,1196.09 1590.5,1202.5C 1590.39,1201.88 1590.06,1201.38 1589.5,1201C 1595.55,1193.74 1601.72,1186.57 1608,1179.5C 1608.46,1180.09 1608.63,1180.76 1608.5,1181.5 Z"/></g>
<g><path style="opacity:1" fill="#f3ea46" d="M 418.5,1159.5 C 431.801,1157.58 441.301,1162.91 447,1175.5C 450.046,1185.5 447.212,1193.33 438.5,1199C 428.917,1203.72 419.583,1203.55 410.5,1198.5C 411.648,1197.84 412.981,1197.67 414.5,1198C 411.705,1196.21 409.205,1194.04 407,1191.5C 406.312,1190.67 406.479,1190 407.5,1189.5C 411.807,1194.84 417.474,1197.5 424.5,1197.5C 442.431,1197.42 448.264,1189.09 442,1172.5C 439.167,1170.33 436.667,1167.83 434.5,1165C 432.913,1164.14 431.246,1163.47 429.5,1163C 424.009,1162.32 418.675,1162.65 413.5,1164C 415.956,1162.29 418.623,1160.96 421.5,1160C 420.552,1159.52 419.552,1159.35 418.5,1159.5 Z"/></g>
<g><path style="opacity:1" fill="#f3ed5f" d="M 1586.5,1206.5 C 1574.24,1222.43 1561.24,1237.76 1547.5,1252.5C 1546.76,1252.63 1546.09,1252.46 1545.5,1252C 1558.71,1237.13 1571.54,1221.96 1584,1206.5C 1584.98,1205.23 1585.81,1205.23 1586.5,1206.5 Z"/></g>
<g><path style="opacity:1" fill="#f3ea41" d="M 1909.5,1249.5 C 1911.63,1250.31 1913.96,1250.81 1916.5,1251C 1845.05,1250.52 1773.88,1254.69 1703,1263.5C 1700.5,1263.33 1698,1263.17 1695.5,1263C 1697.83,1262.67 1700.17,1262.33 1702.5,1262C 1701.26,1261.77 1700.26,1261.27 1699.5,1260.5C 1758.68,1254.02 1818.02,1249.69 1877.5,1247.5C 1888.17,1248.19 1898.84,1248.86 1909.5,1249.5 Z"/></g>
<g><path style="opacity:1" fill="#f3ea43" d="M 1692.5,1261.5 C 1691.74,1262.27 1690.74,1262.77 1689.5,1263C 1691.17,1263.33 1692.83,1263.67 1694.5,1264C 1690.75,1264.26 1687.08,1264.93 1683.5,1266C 1635,1271.22 1586.66,1277.55 1538.5,1285C 1534.17,1285.67 1529.83,1285.67 1525.5,1285C 1524.83,1284.01 1524.83,1282.85 1525.5,1281.5C 1527.06,1281.52 1528.56,1281.85 1530,1282.5C 1584.17,1275.54 1638.33,1268.54 1692.5,1261.5 Z"/></g>
<g><path style="opacity:1" fill="#f3ea42" d="M 1160.5,1347.5 C 1223.72,1335.18 1287.05,1322.85 1350.5,1310.5C 1350.86,1307.44 1350.02,1304.77 1348,1302.5C 1318.41,1274.42 1291.24,1244.42 1266.5,1212.5C 1264.6,1209.25 1262.26,1206.25 1259.5,1203.5C 1259.67,1203.17 1259.83,1202.83 1260,1202.5C 1287.87,1237.04 1317.87,1269.71 1350,1300.5C 1352.24,1303.95 1353.57,1307.62 1354,1311.5C 1298.17,1322.83 1242.33,1334 1186.5,1345C 1177.5,1346.67 1168.5,1348 1159.5,1349C 1160.5,1348.67 1161.5,1348.33 1162.5,1348C 1161.91,1347.54 1161.24,1347.37 1160.5,1347.5 Z"/></g>
<g><path style="opacity:1" fill="#f3ec50" d="M 150.5,1370.5 C 146.062,1389.27 134.395,1400.6 115.5,1404.5C 114.761,1404.63 114.094,1404.46 113.5,1404C 116.937,1403.35 117.104,1402.85 114,1402.5C 106.054,1403.96 98.221,1403.46 90.5,1401C 85.1205,1398.65 80.1205,1395.82 75.5,1392.5C 70.2609,1386.08 64.7609,1379.75 59,1373.5C 54.5038,1367.84 50.5038,1361.84 47,1355.5C 44.8159,1348.32 45.3159,1341.32 48.5,1334.5C 47.7997,1334.21 47.1331,1333.88 46.5,1333.5C 48.647,1328.01 51.9803,1323.35 56.5,1319.5C 57.2389,1319.37 57.9056,1319.54 58.5,1320C 56.6707,1321.11 55.8374,1322.61 56,1324.5C 75.7972,1303.89 98.6306,1299.73 124.5,1312C 145.163,1326.51 153.329,1346.35 149,1371.5C 149.333,1370.5 149.667,1369.5 150,1368.5C 150.464,1369.09 150.631,1369.76 150.5,1370.5 Z"/></g>
<g><path style="opacity:1" fill="#f3e83f" d="M 150.5,1370.5 C 150.631,1369.76 150.464,1369.09 150,1368.5C 149.667,1369.5 149.333,1370.5 149,1371.5C 153.329,1346.35 145.163,1326.51 124.5,1312C 98.6306,1299.73 75.7972,1303.89 56,1324.5C 55.8374,1322.61 56.6707,1321.11 58.5,1320C 57.9056,1319.54 57.2389,1319.37 56.5,1319.5C 76.7608,1300.73 99.4275,1297.23 124.5,1309C 147.099,1323.63 155.766,1344.13 150.5,1370.5 Z"/></g>
<g><path style="opacity:1" fill="#f3ec62" d="M 1897.5,1313.5 C 1881.74,1316.3 1865.74,1318.3 1849.5,1319.5C 1847.71,1318.69 1845.71,1318.19 1843.5,1318C 1862.15,1315.56 1880.82,1313.56 1899.5,1312C 1898.17,1312.33 1896.83,1312.67 1895.5,1313C 1896.09,1313.46 1896.76,1313.63 1897.5,1313.5 Z"/></g>
<g><path style="opacity:1" fill="#f3ec66" d="M 1822.5,1321.5 C 1816.35,1322.54 1810.02,1323.21 1803.5,1323.5C 1803.08,1322.78 1802.42,1322.28 1801.5,1322C 1813.08,1319.95 1824.74,1318.95 1836.5,1319C 1830.4,1319.43 1825.73,1320.26 1822.5,1321.5 Z"/></g>
<g><path style="opacity:1" fill="#f3ec50" d="M 506.5,1426.5 C 506.326,1428.86 505.993,1431.19 505.5,1433.5C 504.732,1432.74 504.232,1431.74 504,1430.5C 499.078,1449.97 495.745,1469.63 494,1489.5C 496.448,1492.47 499.614,1493.97 503.5,1494C 530.515,1497 557.515,1500 584.5,1503C 600.559,1505.67 616.559,1508.67 632.5,1512C 644.361,1515.35 654.861,1521.18 664,1529.5C 665.916,1532.9 666.916,1536.57 667,1540.5C 667.236,1538.88 668.069,1537.88 669.5,1537.5C 670.168,1544.16 668.168,1550.16 663.5,1555.5C 661.36,1556.47 659.693,1557.97 658.5,1560C 656.5,1560.33 654.5,1560.67 652.5,1561C 651.95,1562.84 650.95,1564.34 649.5,1565.5C 646.579,1564.59 643.579,1564.26 640.5,1564.5C 639.048,1563.7 637.382,1563.2 635.5,1563C 636.5,1562.67 637.5,1562.33 638.5,1562C 632.996,1561.6 627.496,1561.77 622,1562.5C 614.178,1561.46 606.345,1560.96 598.5,1561C 600.5,1561.33 602.5,1561.67 604.5,1562C 601.854,1562.5 599.187,1562.66 596.5,1562.5C 594.369,1561.69 592.036,1561.19 589.5,1561C 597.5,1560.33 597.5,1559.67 589.5,1559C 583.859,1557.93 578.193,1557.59 572.5,1558C 574.833,1558.33 577.167,1558.67 579.5,1559C 577.866,1559.49 576.199,1559.66 574.5,1559.5C 570.766,1559.68 567.099,1559.34 563.5,1558.5C 565.969,1557.68 568.635,1557.18 571.5,1557C 549.535,1554 527.535,1551.67 505.5,1550C 507.343,1550.16 508.009,1550.66 507.5,1551.5C 501.47,1551.16 495.47,1550.5 489.5,1549.5C 487.286,1549.61 485.286,1550.28 483.5,1551.5C 483.062,1551.57 482.728,1551.4 482.5,1551C 486.611,1547.49 486.444,1546.99 482,1549.5C 480.438,1551.96 479.438,1554.62 479,1557.5C 468.732,1609.17 458.732,1660.51 449,1711.5C 447.301,1723.78 446.301,1736.11 446,1748.5C 445.64,1750.42 444.806,1752.09 443.5,1753.5C 444.127,1754.42 444.461,1755.42 444.5,1756.5C 442.388,1758.77 439.721,1760.1 436.5,1760.5C 436.611,1759.88 436.944,1759.38 437.5,1759C 429.888,1759.59 424.054,1756.75 420,1750.5C 416.529,1744.23 414.195,1737.56 413,1730.5C 412.83,1719.33 412.33,1708.33 411.5,1697.5C 411.79,1687.95 412.79,1678.62 414.5,1669.5C 414.337,1671.86 414.503,1674.19 415,1676.5C 419.876,1635.12 428.209,1594.45 440,1554.5C 440.667,1550.83 440.667,1547.17 440,1543.5C 437.958,1541.4 435.458,1540.23 432.5,1540C 421.487,1538.42 410.487,1536.92 399.5,1535.5C 366.367,1531.97 334.034,1524.8 302.5,1514C 289.985,1509.41 277.985,1503.74 266.5,1497C 264.333,1494.83 262.167,1492.67 260,1490.5C 258.848,1487.56 257.848,1484.56 257,1481.5C 256.775,1483.79 256.608,1485.79 256.5,1487.5C 253.845,1477.48 257.178,1470.14 266.5,1465.5C 266.918,1466.22 267.584,1466.72 268.5,1467C 267.167,1467.67 265.833,1468.33 264.5,1469C 263.304,1469.65 263.304,1470.15 264.5,1470.5C 268.914,1468.32 273.58,1466.99 278.5,1466.5C 311.608,1472.2 344.941,1477.37 378.5,1482C 403.749,1485.33 429.083,1487.33 454.5,1488C 455.696,1487.35 455.696,1486.85 454.5,1486.5C 451.875,1488.1 450.875,1487.77 451.5,1485.5C 455.043,1485.13 457.21,1483.13 458,1479.5C 468.825,1434.04 480.159,1388.71 492,1343.5C 493.591,1337.97 496.424,1333.3 500.5,1329.5C 500.88,1330.13 501.213,1330.8 501.5,1331.5C 507.111,1327.86 512.778,1327.69 518.5,1331C 520.941,1333.65 521.941,1336.82 521.5,1340.5C 516.323,1369.23 510.656,1397.9 504.5,1426.5C 504.667,1427.17 504.833,1427.83 505,1428.5C 505.278,1427.58 505.778,1426.92 506.5,1426.5 Z"/></g>
<g><path style="opacity:1" fill="#f3e940" d="M 1150.5,1349.5 C 1153.19,1349.34 1155.85,1349.5 1158.5,1350C 1116.5,1359 1074.5,1368 1032.5,1377C 1026.96,1378.68 1022.13,1381.52 1018,1385.5C 1018.11,1384.23 1017.94,1383.23 1017.5,1382.5C 1019.93,1380.44 1022.59,1378.61 1025.5,1377C 1066.95,1366.88 1108.62,1357.71 1150.5,1349.5 Z"/></g>
<g><path style="opacity:1" fill="#f3ee72" d="M 46.5,1333.5 C 47.1331,1333.88 47.7997,1334.21 48.5,1334.5C 45.3159,1341.32 44.8159,1348.32 47,1355.5C 50.5038,1361.84 54.5038,1367.84 59,1373.5C 64.7609,1379.75 70.2609,1386.08 75.5,1392.5C 74.609,1391.89 73.609,1391.56 72.5,1391.5C 61.7335,1381.51 52.5669,1370.18 45,1357.5C 43.4725,1351.59 43.1392,1345.59 44,1339.5C 44.5662,1337.28 45.3995,1335.28 46.5,1333.5 Z"/></g>
<g><path style="opacity:1" fill="#f3ec5d" d="M 72.5,1391.5 C 73.609,1391.56 74.609,1391.89 75.5,1392.5C 80.1205,1395.82 85.1205,1398.65 90.5,1401C 98.221,1403.46 106.054,1403.96 114,1402.5C 117.104,1402.85 116.937,1403.35 113.5,1404C 114.094,1404.46 114.761,1404.63 115.5,1404.5C 98.7852,1408.04 84.4519,1403.71 72.5,1391.5 Z"/></g>
<g><path style="opacity:1" fill="#f3e840" d="M 506.5,1426.5 C 505.778,1426.92 505.278,1427.58 505,1428.5C 504.833,1427.83 504.667,1427.17 504.5,1426.5C 510.656,1397.9 516.323,1369.23 521.5,1340.5C 521.941,1336.82 520.941,1333.65 518.5,1331C 512.778,1327.69 507.111,1327.86 501.5,1331.5C 501.213,1330.8 500.88,1330.13 500.5,1329.5C 508.398,1323.75 515.898,1324.42 523,1331.5C 523.912,1333.66 524.745,1335.83 525.5,1338C 519.564,1367.58 513.231,1397.08 506.5,1426.5 Z"/></g>
<g><path style="opacity:1" fill="#f3e83e" d="M 451.5,1485.5 C 450.875,1487.77 451.875,1488.1 454.5,1486.5C 455.696,1486.85 455.696,1487.35 454.5,1488C 429.083,1487.33 403.749,1485.33 378.5,1482C 344.941,1477.37 311.608,1472.2 278.5,1466.5C 273.58,1466.99 268.914,1468.32 264.5,1470.5C 263.304,1470.15 263.304,1469.65 264.5,1469C 265.833,1468.33 267.167,1467.67 268.5,1467C 267.584,1466.72 266.918,1466.22 266.5,1465.5C 272.35,1463.68 278.35,1463.18 284.5,1464C 333.748,1473.86 383.415,1480.86 433.5,1485C 439.491,1485.5 445.491,1485.67 451.5,1485.5 Z"/></g>
<g><path style="opacity:1" fill="#f3e940" d="M 1195.5,1559.5 C 1196.13,1556.91 1197.3,1554.58 1199,1552.5C 1235.55,1514.67 1270.22,1475.33 1303,1434.5C 1315.67,1421.17 1328.33,1407.83 1341,1394.5C 1345.2,1389.28 1344.2,1385.94 1338,1384.5C 1330.29,1386.34 1322.45,1387.67 1314.5,1388.5C 1312.82,1388.11 1311.15,1387.61 1309.5,1387C 1321.77,1384.27 1334.1,1383.1 1346.5,1383.5C 1347.01,1388.81 1345.51,1393.48 1342,1397.5C 1328.67,1411.5 1315.33,1425.5 1302,1439.5C 1269.49,1479.35 1235.49,1518.02 1200,1555.5C 1196.61,1561.13 1195.28,1567.13 1196,1573.5C 1195.04,1571.8 1194.54,1569.97 1194.5,1568C 1195.03,1565.18 1195.36,1562.35 1195.5,1559.5 Z"/></g>
<g><path style="opacity:1" fill="#f3ea44" d="M 1627.5,1570.5 C 1621.46,1567.31 1615.79,1563.47 1610.5,1559C 1584.96,1531.8 1559.8,1504.3 1535,1476.5C 1525.17,1466.67 1515.33,1456.83 1505.5,1447C 1503.56,1445.1 1501.23,1444.26 1498.5,1444.5C 1499.26,1443.73 1500.26,1443.23 1501.5,1443C 1500.3,1442.35 1500.3,1441.85 1501.5,1441.5C 1502.79,1442.1 1504.13,1442.6 1505.5,1443C 1537.41,1475.24 1568.24,1508.4 1598,1542.5C 1606.32,1552.16 1615.82,1560.33 1626.5,1567C 1626.62,1568.14 1626.95,1569.31 1627.5,1570.5 Z"/></g>
<g><path style="opacity:1" fill="#f3ed68" d="M 1335.5,1472.5 C 1327.13,1481.87 1318.13,1490.53 1308.5,1498.5C 1308.39,1497.88 1308.06,1497.38 1307.5,1497C 1315.53,1488.64 1323.86,1480.64 1332.5,1473C 1333.45,1472.52 1334.45,1472.35 1335.5,1472.5 Z"/></g>
<g><path style="opacity:1" fill="#f3ea42" d="M 505.5,1433.5 C 501.538,1450.02 498.204,1466.69 495.5,1483.5C 496.037,1488.87 499.037,1491.7 504.5,1492C 532.583,1494.34 560.583,1497.34 588.5,1501C 603.307,1502.89 617.974,1505.56 632.5,1509C 643.315,1512.08 653.315,1516.74 662.5,1523C 666.541,1526.97 668.874,1531.8 669.5,1537.5C 668.069,1537.88 667.236,1538.88 667,1540.5C 666.916,1536.57 665.916,1532.9 664,1529.5C 654.861,1521.18 644.361,1515.35 632.5,1512C 616.559,1508.67 600.559,1505.67 584.5,1503C 557.515,1500 530.515,1497 503.5,1494C 499.614,1493.97 496.448,1492.47 494,1489.5C 495.745,1469.63 499.078,1449.97 504,1430.5C 504.232,1431.74 504.732,1432.74 505.5,1433.5 Z"/></g>
<g><path style="opacity:1" fill="#f3ed6c" d="M 399.5,1535.5 C 397.5,1536.17 395.5,1536.83 393.5,1537.5C 385.492,1536.82 377.492,1535.98 369.5,1535C 358.135,1533.45 346.969,1531.29 336,1528.5C 334.564,1528.56 333.231,1528.89 332,1529.5C 331.691,1528.23 331.191,1527.07 330.5,1526C 327.5,1525.5 324.5,1525 321.5,1524.5C 319.714,1524.3 318.381,1523.47 317.5,1522C 310.86,1520.05 304.193,1518.05 297.5,1516C 289.541,1511.45 281.208,1507.45 272.5,1504C 268.008,1501.92 264.008,1499.08 260.5,1495.5C 258.095,1493.36 256.762,1490.69 256.5,1487.5C 256.608,1485.79 256.775,1483.79 257,1481.5C 257.848,1484.56 258.848,1487.56 260,1490.5C 262.167,1492.67 264.333,1494.83 266.5,1497C 277.985,1503.74 289.985,1509.41 302.5,1514C 334.034,1524.8 366.367,1531.97 399.5,1535.5 Z"/></g>
<g><path style="opacity:1" fill="#f3ec62" d="M 1645.5,1516.5 C 1654.8,1528.92 1658.97,1542.92 1658,1558.5C 1657.39,1560.07 1656.56,1561.4 1655.5,1562.5C 1654.21,1563.29 1653.04,1564.29 1652,1565.5C 1651.83,1565.17 1651.67,1564.83 1651.5,1564.5C 1653.85,1561.97 1655.35,1558.97 1656,1555.5C 1655.97,1541.24 1651.8,1528.24 1643.5,1516.5C 1643.97,1515.54 1644.64,1515.54 1645.5,1516.5 Z"/></g>
<g><path style="opacity:1" fill="#f3ed5f" d="M 399.5,1535.5 C 410.487,1536.92 421.487,1538.42 432.5,1540C 435.458,1540.23 437.958,1541.4 440,1543.5C 440.667,1547.17 440.667,1550.83 440,1554.5C 428.209,1594.45 419.876,1635.12 415,1676.5C 414.503,1674.19 414.337,1671.86 414.5,1669.5C 418.679,1630.1 426.513,1591.44 438,1553.5C 439.992,1547.66 438.158,1543.83 432.5,1542C 419.488,1540.41 406.488,1538.91 393.5,1537.5C 395.5,1536.83 397.5,1536.17 399.5,1535.5 Z"/></g>
<g><path style="opacity:1" fill="#f3ed62" d="M 563.5,1558.5 C 544.653,1556.52 525.986,1554.19 507.5,1551.5C 508.009,1550.66 507.343,1550.16 505.5,1550C 527.535,1551.67 549.535,1554 571.5,1557C 568.635,1557.18 565.969,1557.68 563.5,1558.5 Z"/></g>
<g><path style="opacity:1" fill="#f3ec6d" d="M 596.5,1562.5 C 588.933,1562.25 581.6,1561.25 574.5,1559.5C 576.199,1559.66 577.866,1559.49 579.5,1559C 577.167,1558.67 574.833,1558.33 572.5,1558C 578.193,1557.59 583.859,1557.93 589.5,1559C 597.5,1559.67 597.5,1560.33 589.5,1561C 592.036,1561.19 594.369,1561.69 596.5,1562.5 Z"/></g>
<g><path style="opacity:1" fill="#f3ed71" d="M 640.5,1564.5 C 639.167,1564.5 637.833,1564.5 636.5,1564.5C 630.225,1565.42 623.892,1565.75 617.5,1565.5C 610.339,1564.71 603.339,1563.71 596.5,1562.5C 599.187,1562.66 601.854,1562.5 604.5,1562C 602.5,1561.67 600.5,1561.33 598.5,1561C 606.345,1560.96 614.178,1561.46 622,1562.5C 627.496,1561.77 632.996,1561.6 638.5,1562C 637.5,1562.33 636.5,1562.67 635.5,1563C 637.382,1563.2 639.048,1563.7 640.5,1564.5 Z"/></g>
<g><path style="opacity:1" fill="#f3ec52" d="M 636.5,1564.5 C 635.316,1565.69 635.316,1566.85 636.5,1568C 633.012,1569.72 629.512,1569.55 626,1567.5C 622.608,1569.06 619.775,1568.39 617.5,1565.5C 623.892,1565.75 630.225,1565.42 636.5,1564.5 Z"/></g>
<g><path style="opacity:1" fill="#f3e742" d="M 1059.5,1594.5 C 1058.53,1594.99 1057.53,1595.49 1056.5,1596C 1058.29,1599.4 1060.63,1602.9 1063.5,1606.5C 1064.23,1608.34 1064.9,1610.17 1065.5,1612C 1065.02,1616.24 1064.35,1620.41 1063.5,1624.5C 1062.83,1624.17 1062.17,1623.83 1061.5,1623.5C 1060.82,1620.64 1059.49,1618.14 1057.5,1616C 1059.93,1615.55 1060.1,1614.72 1058,1613.5C 1057.67,1613.83 1057.33,1614.17 1057,1614.5C 1056.89,1612.15 1055.72,1610.65 1053.5,1610C 1054.28,1608.93 1054.11,1607.76 1053,1606.5C 1052.67,1607.17 1052.33,1607.83 1052,1608.5C 1051.61,1607.57 1050.95,1606.91 1050,1606.5C 1048.85,1607.42 1047.85,1607.42 1047,1606.5C 1046.16,1609.46 1045.16,1609.8 1044,1607.5C 1043.25,1608.99 1042.09,1609.99 1040.5,1610.5C 1038.85,1609.77 1037.18,1609.61 1035.5,1610C 1035.83,1610.33 1036.17,1610.67 1036.5,1611C 1033.31,1612.85 1031.14,1615.02 1030,1617.5C 1025.06,1614.24 1022.9,1615.4 1023.5,1621C 1023.12,1622.63 1022.46,1624.13 1021.5,1625.5C 1020.53,1621.53 1019.69,1617.53 1019,1613.5C 1018.62,1612.94 1018.12,1612.61 1017.5,1612.5C 1022.17,1599.33 1031.34,1591.33 1045,1588.5C 1049.05,1589.13 1052.88,1590.3 1056.5,1592C 1057.57,1592.85 1058.57,1593.69 1059.5,1594.5 Z"/></g>
<g><path style="opacity:1" fill="#f3ec49" d="M 1059.5,1594.5 C 1060.48,1595.14 1061.48,1595.81 1062.5,1596.5C 1063.21,1594.57 1064.21,1594.23 1065.5,1595.5C 1066.46,1595.95 1067.29,1596.62 1068,1597.5C 1074.95,1611.28 1075.11,1624.94 1068.5,1638.5C 1067.91,1636.6 1067.74,1634.6 1068,1632.5C 1061.4,1644.29 1051.57,1648.12 1038.5,1644C 1029.4,1642.03 1022.23,1637.2 1017,1629.5C 1014.85,1623.72 1015.02,1618.05 1017.5,1612.5C 1018.12,1612.61 1018.62,1612.94 1019,1613.5C 1019.69,1617.53 1020.53,1621.53 1021.5,1625.5C 1022.46,1624.13 1023.12,1622.63 1023.5,1621C 1022.9,1615.4 1025.06,1614.24 1030,1617.5C 1031.14,1615.02 1033.31,1612.85 1036.5,1611C 1036.17,1610.67 1035.83,1610.33 1035.5,1610C 1037.18,1609.61 1038.85,1609.77 1040.5,1610.5C 1042.09,1609.99 1043.25,1608.99 1044,1607.5C 1045.16,1609.8 1046.16,1609.46 1047,1606.5C 1047.85,1607.42 1048.85,1607.42 1050,1606.5C 1050.95,1606.91 1051.61,1607.57 1052,1608.5C 1052.33,1607.83 1052.67,1607.17 1053,1606.5C 1054.11,1607.76 1054.28,1608.93 1053.5,1610C 1055.72,1610.65 1056.89,1612.15 1057,1614.5C 1057.33,1614.17 1057.67,1613.83 1058,1613.5C 1060.1,1614.72 1059.93,1615.55 1057.5,1616C 1059.49,1618.14 1060.82,1620.64 1061.5,1623.5C 1062.17,1623.83 1062.83,1624.17 1063.5,1624.5C 1064.35,1620.41 1065.02,1616.24 1065.5,1612C 1064.9,1610.17 1064.23,1608.34 1063.5,1606.5C 1060.63,1602.9 1058.29,1599.4 1056.5,1596C 1057.53,1595.49 1058.53,1594.99 1059.5,1594.5 Z"/></g>
<g><path style="opacity:1" fill="#f3ec62" d="M 1521.5,1582.5 C 1523.81,1591.08 1526.15,1599.75 1528.5,1608.5C 1527.73,1609.26 1527.23,1610.26 1527,1611.5C 1523.7,1600.98 1521.37,1590.32 1520,1579.5C 1520.23,1580.74 1520.73,1581.74 1521.5,1582.5 Z"/></g>
<g><path style="opacity:1" fill="#f3e73b" d="M 1065.5,1595.5 C 1064.21,1594.23 1063.21,1594.57 1062.5,1596.5C 1061.48,1595.81 1060.48,1595.14 1059.5,1594.5C 1058.57,1593.69 1057.57,1592.85 1056.5,1592C 1052.88,1590.3 1049.05,1589.13 1045,1588.5C 1031.34,1591.33 1022.17,1599.33 1017.5,1612.5C 1015.02,1618.05 1014.85,1623.72 1017,1629.5C 1022.23,1637.2 1029.4,1642.03 1038.5,1644C 1051.57,1648.12 1061.4,1644.29 1068,1632.5C 1067.74,1634.6 1067.91,1636.6 1068.5,1638.5C 1061.07,1647.92 1051.4,1651.09 1039.5,1648C 1011.21,1639.95 1005.04,1623.78 1021,1599.5C 1032.19,1585.4 1045.69,1582.56 1061.5,1591C 1063.19,1592.31 1064.53,1593.81 1065.5,1595.5 Z"/></g>
<g><path style="opacity:1" fill="#f3ed63" d="M 1529.5,1614.5 C 1536.14,1634.91 1543.31,1655.25 1551,1675.5C 1555.52,1687.54 1555.52,1699.54 1551,1711.5C 1550.3,1713.58 1549.14,1715.25 1547.5,1716.5C 1546.64,1717.46 1545.97,1717.46 1545.5,1716.5C 1551.56,1706.92 1553.39,1696.59 1551,1685.5C 1544.07,1663.39 1536.74,1641.39 1529,1619.5C 1528.16,1617.18 1527.83,1614.85 1528,1612.5C 1528.28,1613.42 1528.78,1614.08 1529.5,1614.5 Z"/></g>
<g><path style="opacity:1" fill="#f3ea42" d="M 1513.5,1731.5 C 1500.33,1728.66 1490.49,1721.33 1484,1709.5C 1468.16,1677.66 1456.5,1644.33 1449,1609.5C 1442.64,1581.04 1437.48,1552.37 1433.5,1523.5C 1434.27,1522.74 1434.77,1521.74 1435,1520.5C 1441.76,1574.33 1454.09,1626.66 1472,1677.5C 1476.67,1690.51 1482.67,1702.84 1490,1714.5C 1498.22,1724.95 1509.05,1730.11 1522.5,1730C 1519.31,1730.18 1516.31,1730.68 1513.5,1731.5 Z"/></g>
<g><path style="opacity:1" fill="#f3e942" d="M 483.5,1551.5 C 472.585,1601.98 462.418,1652.65 453,1703.5C 450.363,1719.06 448.696,1734.73 448,1750.5C 447.576,1753.03 446.41,1755.03 444.5,1756.5C 444.461,1755.42 444.127,1754.42 443.5,1753.5C 444.806,1752.09 445.64,1750.42 446,1748.5C 446.301,1736.11 447.301,1723.78 449,1711.5C 458.732,1660.51 468.732,1609.17 479,1557.5C 479.438,1554.62 480.438,1551.96 482,1549.5C 486.444,1546.99 486.611,1547.49 482.5,1551C 482.728,1551.4 483.062,1551.57 483.5,1551.5 Z"/></g>
<g><path style="opacity:1" fill="#f3ec5d" d="M 654.5,1742.5 C 654.337,1744.86 654.503,1747.19 655,1749.5C 655.236,1751.12 656.069,1752.12 657.5,1752.5C 661.112,1768.48 671.112,1775.32 687.5,1773C 689.814,1771.91 691.148,1770.08 691.5,1767.5C 693.679,1769.16 695.512,1768.83 697,1766.5C 697.972,1764.7 699.139,1763.03 700.5,1761.5C 699.754,1760.26 699.421,1758.93 699.5,1757.5C 700.226,1754.82 701.059,1752.15 702,1749.5C 702.333,1750.17 702.667,1750.83 703,1751.5C 705.228,1741.66 702.062,1734.33 693.5,1729.5C 695.16,1727.75 697.16,1727.25 699.5,1728C 701.043,1729.88 702.876,1731.38 705,1732.5C 714.686,1749.41 714.686,1766.41 705,1783.5C 703.457,1785.38 701.624,1786.88 699.5,1788C 691.81,1788.68 684.144,1789.52 676.5,1790.5C 659.309,1786.48 650.309,1775.64 649.5,1758C 649.906,1754.15 650.406,1750.32 651,1746.5C 651.498,1744.46 652.665,1743.12 654.5,1742.5 Z M 654.5,1742.5 C 655.791,1742.26 656.791,1742.6 657.5,1743.5C 657.5,1746.5 657.5,1749.5 657.5,1752.5C 656.069,1752.12 655.236,1751.12 655,1749.5C 654.503,1747.19 654.337,1744.86 654.5,1742.5 Z"/></g>
<g><path style="opacity:1" fill="#f3ec4f" d="M 693.5,1729.5 C 702.062,1734.33 705.228,1741.66 703,1751.5C 702.667,1750.83 702.333,1750.17 702,1749.5C 701.059,1752.15 700.226,1754.82 699.5,1757.5C 697.244,1761.1 694.577,1764.43 691.5,1767.5C 679.445,1773.43 670.279,1770.43 664,1758.5C 662.208,1754 661.375,1749.33 661.5,1744.5C 662.871,1741.43 664.538,1738.43 666.5,1735.5C 665.738,1735.09 664.738,1734.92 663.5,1735C 664.056,1734.62 664.389,1734.12 664.5,1733.5C 665.404,1732.79 665.737,1731.79 665.5,1730.5C 664.5,1730.5 663.5,1730.5 662.5,1730.5C 662.415,1729 663.081,1728 664.5,1727.5C 667.225,1729.43 670.225,1729.93 673.5,1729C 674.097,1724.79 676.263,1723.62 680,1725.5C 682.526,1724.94 685.026,1724.27 687.5,1723.5C 689,1723.45 690,1724.12 690.5,1725.5C 689.092,1726.24 687.759,1727.08 686.5,1728C 688.594,1729.35 690.927,1729.85 693.5,1729.5 Z"/></g>
<g><path style="opacity:1" fill="#f3ec5d" d="M 662.5,1730.5 C 662.427,1732.03 663.094,1733.03 664.5,1733.5C 664.389,1734.12 664.056,1734.62 663.5,1735C 664.738,1734.92 665.738,1735.09 666.5,1735.5C 664.538,1738.43 662.871,1741.43 661.5,1744.5C 660.681,1747.31 660.181,1750.31 660,1753.5C 658.916,1750.17 658.082,1746.83 657.5,1743.5C 656.791,1742.6 655.791,1742.26 654.5,1742.5C 654.462,1736.56 657.128,1732.56 662.5,1730.5 Z M 659.5,1734.5 C 661.344,1735.2 661.844,1736.54 661,1738.5C 658.988,1737.43 658.488,1736.1 659.5,1734.5 Z"/></g>
<g><path style="opacity:1" fill="#f3ed63" d="M 411.5,1697.5 C 412.33,1708.33 412.83,1719.33 413,1730.5C 414.195,1737.56 416.529,1744.23 420,1750.5C 424.054,1756.75 429.888,1759.59 437.5,1759C 436.944,1759.38 436.611,1759.88 436.5,1760.5C 428.939,1761.59 423.106,1758.92 419,1752.5C 414.333,1745.17 411.667,1737.17 411,1728.5C 410.192,1718.09 410.359,1707.76 411.5,1697.5 Z"/></g>
<g><path style="opacity:1" fill="#f3ed6f" d="M 657.5,1743.5 C 658.082,1746.83 658.916,1750.17 660,1753.5C 660.181,1750.31 660.681,1747.31 661.5,1744.5C 661.375,1749.33 662.208,1754 664,1758.5C 670.279,1770.43 679.445,1773.43 691.5,1767.5C 691.148,1770.08 689.814,1771.91 687.5,1773C 671.112,1775.32 661.112,1768.48 657.5,1752.5C 657.5,1749.5 657.5,1746.5 657.5,1743.5 Z"/></g>
<g><path style="opacity:1" fill="#f4ee7a" d="M 699.5,1757.5 C 699.421,1758.93 699.754,1760.26 700.5,1761.5C 699.139,1763.03 697.972,1764.7 697,1766.5C 695.512,1768.83 693.679,1769.16 691.5,1767.5C 694.577,1764.43 697.244,1761.1 699.5,1757.5 Z"/></g>
</svg>
