<?xml version="1.0" encoding="UTF-8"?>
<!DOCTYPE svg PUBLIC "-//W3C//DTD SVG 1.1//EN" "http://www.w3.org/Graphics/SVG/1.1/DTD/svg11.dtd">
<svg xmlns="http://www.w3.org/2000/svg" version="1.1" width="2000px" height="2000px" style="shape-rendering:geometricPrecision; text-rendering:geometricPrecision; image-rendering:optimizeQuality; fill-rule:evenodd; clip-rule:evenodd" xmlns:xlink="http://www.w3.org/1999/xlink">
<g><path style="opacity:1" fill="#040201" d="M 1236.5,253.5 C 1236.28,254.675 1236.61,255.675 1237.5,256.5C 1259.27,268.882 1281.93,279.382 1305.5,288C 1311,290.225 1316.67,291.725 1322.5,292.5C 1334.1,295.464 1345.43,299.297 1356.5,304C 1379.82,316.826 1403.82,328.326 1428.5,338.5C 1447.01,351.776 1466.67,363.609 1487.5,374C 1506.5,381 1525.5,388 1544.5,395C 1555.08,400.125 1565.75,404.959 1576.5,409.5C 1585.17,413.502 1593.84,417.502 1602.5,421.5C 1602.08,422.222 1601.42,422.722 1600.5,423C 1622.03,432.789 1644.37,440.289 1667.5,445.5C 1690.52,454.005 1712.85,464.172 1734.5,476C 1750.19,482.848 1765.86,489.681 1781.5,496.5C 1781.57,498.411 1782.57,499.578 1784.5,500C 1807.92,510.139 1831.25,520.472 1854.5,531C 1864.65,535.572 1874.32,540.905 1883.5,547C 1903.25,564.904 1907.25,585.737 1895.5,609.5C 1892.49,615.023 1888.49,619.856 1883.5,624C 1871.8,633.433 1858.97,640.933 1845,646.5C 1844.67,651.167 1844.33,655.833 1844,660.5C 1843.56,663.376 1842.56,666.043 1841,668.5C 1835.99,674.676 1830.49,680.343 1824.5,685.5C 1826.54,692.772 1826.88,700.106 1825.5,707.5C 1827.52,710.177 1830.19,711.844 1833.5,712.5C 1833.94,714.074 1834.94,715.241 1836.5,716C 1858.67,726.161 1878.51,739.661 1896,756.5C 1904.49,767.122 1907.32,779.122 1904.5,792.5C 1905.42,793.562 1906.42,793.562 1907.5,792.5C 1932.8,803.476 1955.8,817.976 1976.5,836C 1997.3,857.527 2000.13,881.361 1985,907.5C 1974.82,918.011 1962.99,926.178 1949.5,932C 1934.55,937.484 1919.88,943.651 1905.5,950.5C 1904.39,951.723 1904.22,953.056 1905,954.5C 1912.28,964.264 1914.11,974.93 1910.5,986.5C 1909.62,986.369 1908.96,986.702 1908.5,987.5C 1907.1,991.539 1905.6,995.539 1904,999.5C 1903.67,1010.5 1903.33,1021.5 1903,1032.5C 1900.87,1038.63 1897.87,1044.29 1894,1049.5C 1893.5,1051.47 1893.34,1053.47 1893.5,1055.5C 1894.79,1055.74 1895.79,1055.4 1896.5,1054.5C 1909.03,1059.1 1921.37,1064.26 1933.5,1070C 1952.51,1082.01 1970.67,1095.17 1988,1109.5C 1992.36,1115.56 1996.2,1121.9 1999.5,1128.5C 1999.5,1138.17 1999.5,1147.83 1999.5,1157.5C 1996.31,1165.22 1991.31,1171.72 1984.5,1177C 1974.22,1183.61 1964.22,1190.61 1954.5,1198C 1949.66,1200.92 1944.66,1203.59 1939.5,1206C 1917.06,1215.22 1894.4,1223.88 1871.5,1232C 1842.86,1245.32 1814.2,1258.65 1785.5,1272C 1763.18,1280.33 1740.84,1288.66 1718.5,1297C 1703.38,1304.98 1688.21,1312.81 1673,1320.5C 1672.38,1321.45 1672.55,1322.28 1673.5,1323C 1696.13,1335.62 1715.8,1351.96 1732.5,1372C 1750.33,1385.83 1768.17,1399.67 1786,1413.5C 1792.28,1423.94 1789.45,1430.61 1777.5,1433.5C 1760.17,1438.06 1743.17,1443.39 1726.5,1449.5C 1721.21,1449.89 1717.71,1452.55 1716,1457.5C 1714.06,1477.51 1714.22,1497.51 1716.5,1517.5C 1717.59,1526.68 1713.76,1532.35 1705,1534.5C 1698.12,1531.65 1690.96,1529.82 1683.5,1529C 1679,1526.58 1674.67,1523.92 1670.5,1521C 1647.01,1503.42 1623.34,1486.09 1599.5,1469C 1575.61,1446.77 1550.28,1426.43 1523.5,1408C 1516.62,1400.79 1509.46,1393.96 1502,1387.5C 1452.96,1411.52 1402.12,1431.02 1349.5,1446C 1331.31,1454.26 1312.98,1462.26 1294.5,1470C 1269.68,1477.94 1244.68,1485.27 1219.5,1492C 1214.17,1494 1208.83,1496 1203.5,1498C 1194.94,1502.22 1188.78,1508.72 1185,1517.5C 1170.74,1536.72 1151.57,1547.22 1127.5,1549C 1106.49,1553.63 1085.49,1553.63 1064.5,1549C 1045.4,1542.74 1027.07,1534.74 1009.5,1525C 999.876,1517.71 990.542,1510.04 981.5,1502C 952.326,1485.59 923.993,1467.92 896.5,1449C 868.571,1434.2 839.571,1421.87 809.5,1412C 767.629,1395.24 728.629,1373.57 692.5,1347C 685.167,1343.33 677.833,1339.67 670.5,1336C 641.301,1326.82 612.968,1315.49 585.5,1302C 570.833,1293.33 556.167,1284.67 541.5,1276C 517.917,1266.25 494.584,1255.92 471.5,1245C 445.965,1227.91 418.965,1213.24 390.5,1201C 379.753,1194.6 368.753,1188.6 357.5,1183C 330.223,1173.2 305.223,1159.53 282.5,1142C 270.646,1136.13 259.313,1129.46 248.5,1122C 237.171,1116.5 225.505,1111.84 213.5,1108C 202.653,1102.41 191.653,1097.08 180.5,1092C 157.335,1078.59 134.335,1064.92 111.5,1051C 101.785,1049.28 92.1184,1047.28 82.5,1045C 63.6925,1038.19 50.8592,1025.36 44,1006.5C 31.9866,975.795 23.6533,944.128 19,911.5C 18.236,896.143 18.5693,880.809 20,865.5C 22.8456,844.223 25.1789,822.889 27,801.5C 27.809,782.008 35.6423,766.174 50.5,754C 63.922,746.887 78.2553,743.22 93.5,743C 101.469,739.016 109.469,735.016 117.5,731C 133.5,725.667 149.5,720.333 165.5,715C 189.67,702.751 214.67,692.418 240.5,684C 242.116,683.385 243.449,682.385 244.5,681C 237.164,672.155 232.664,661.989 231,650.5C 230.667,638.167 230.333,625.833 230,613.5C 228.279,595.016 226.779,576.516 225.5,558C 225.742,542.641 227.575,527.475 231,512.5C 235.181,496.773 239.515,481.106 244,465.5C 252.814,445.49 267.648,431.99 288.5,425C 302.196,420.754 316.196,419.42 330.5,421C 347.717,424.045 365.051,425.045 382.5,424C 388.363,423.413 394.03,422.08 399.5,420C 432.486,405.007 464.82,388.673 496.5,371C 521.477,354.009 547.811,339.342 575.5,327C 602.263,309.286 630.93,295.286 661.5,285C 715.035,254.591 770.702,228.591 828.5,207C 857.507,191.998 887.174,178.331 917.5,166C 935.867,155.15 955.2,146.483 975.5,140C 984.167,139.333 992.833,139.333 1001.5,140C 1009.51,142.502 1017.17,145.836 1024.5,150C 1034.23,156.728 1044.23,163.062 1054.5,169C 1081.41,180.786 1108.07,193.119 1134.5,206C 1157.75,213.293 1179.75,223.293 1200.5,236C 1204.98,236.871 1209.32,238.204 1213.5,240C 1221.19,244.512 1228.86,249.012 1236.5,253.5 Z"/></g>
<g><path style="opacity:1" fill="#a15031" d="M 982.5,152.5 C 1003.27,151.035 1021.93,156.535 1038.5,169C 1050.64,178.907 1063.64,187.574 1077.5,195C 1108.33,207.944 1139,221.278 1169.5,235C 1187.23,244.196 1205.23,252.862 1223.5,261C 1232.37,266.268 1241.37,271.268 1250.5,276C 1277.94,284.811 1304.27,296.144 1329.5,310C 1344.5,315.667 1359.5,321.333 1374.5,327C 1388.5,335 1402.5,343 1416.5,351C 1435.67,359.391 1455,367.391 1474.5,375C 1510.41,393.955 1547.08,411.289 1584.5,427C 1602.38,432.404 1620.05,438.404 1637.5,445C 1664.11,459.308 1691.45,471.975 1719.5,483C 1761.23,504.531 1804.57,522.198 1849.5,536C 1860.12,541.283 1869.62,548.116 1878,556.5C 1882.72,563.276 1886.39,570.609 1889,578.5C 1891.12,597.759 1883.62,611.925 1866.5,621C 1828.46,640.519 1788.79,655.853 1747.5,667C 1742.17,669.333 1736.83,671.667 1731.5,674C 1713.16,684.841 1694.49,695.174 1675.5,705C 1670.33,708.085 1665.33,711.419 1660.5,715C 1658.74,714.656 1656.91,714.156 1655,713.5C 1647.34,717.15 1640.17,721.65 1633.5,727C 1624.17,732 1614.83,737 1605.5,742C 1573.49,755.783 1541.15,768.783 1508.5,781C 1482.88,793.809 1457.55,807.142 1432.5,821C 1411.67,829.277 1391,837.943 1370.5,847C 1357.66,854.254 1344.66,861.254 1331.5,868C 1306.38,876.894 1281.71,886.894 1257.5,898C 1233.46,906.229 1208.96,907.729 1184,902.5C 1167.72,904.101 1160.22,912.934 1161.5,929C 1151.94,961.853 1148.77,995.353 1152,1029.5C 1154.44,1050.5 1161.44,1069.83 1173,1087.5C 1187.76,1107.19 1206.59,1112.36 1229.5,1103C 1232.67,1101.25 1235.67,1099.25 1238.5,1097C 1249.49,1082.33 1263.16,1071 1279.5,1063C 1305.49,1053.67 1331.49,1044.34 1357.5,1035C 1371.77,1028.86 1385.77,1022.2 1399.5,1015C 1420.09,1007.14 1440.76,999.47 1461.5,992C 1481.74,982.878 1501.74,973.211 1521.5,963C 1559.09,948.873 1595.09,931.539 1629.5,911C 1659.64,896.725 1689.64,882.058 1719.5,867C 1743.18,851.152 1767.85,836.819 1793.5,824C 1806.83,816.414 1819,807.247 1830,796.5C 1838.61,784.741 1839.61,772.408 1833,759.5C 1831.83,758.333 1830.67,757.167 1829.5,756C 1825.25,754.873 1821.25,753.207 1817.5,751C 1819.65,741.622 1821.31,732.122 1822.5,722.5C 1847.5,732.743 1870.34,746.41 1891,763.5C 1899.76,775.016 1899.43,786.349 1890,797.5C 1875.14,814.7 1857.64,828.533 1837.5,839C 1826.86,843.984 1816.2,848.984 1805.5,854C 1786.49,865.506 1767.16,876.506 1747.5,887C 1725.76,894.803 1704.09,902.803 1682.5,911C 1658.11,923.529 1633.44,935.529 1608.5,947C 1581.78,954.928 1555.45,963.928 1529.5,974C 1508.2,985.316 1486.2,994.983 1463.5,1003C 1435.85,1016.49 1408.52,1030.49 1381.5,1045C 1352.03,1053.16 1323.36,1063.49 1295.5,1076C 1289.17,1079.16 1283.17,1082.83 1277.5,1087C 1258.34,1106.56 1237.01,1123.23 1213.5,1137C 1203.42,1142.19 1192.75,1144.52 1181.5,1144C 1173.57,1143.02 1165.91,1141.02 1158.5,1138C 1125.4,1122.78 1092.07,1108.12 1058.5,1094C 1039.46,1085.15 1022.12,1073.82 1006.5,1060C 999.833,1055.67 993.167,1051.33 986.5,1047C 985.809,1045.93 985.309,1044.77 985,1043.5C 984.734,1018.99 984.234,994.494 983.5,970C 983.543,952.364 986.376,935.198 992,918.5C 997.216,902.851 1003.22,887.518 1010,872.5C 1017.88,861.624 1027.38,852.458 1038.5,845C 1052.83,835.333 1067.17,825.667 1081.5,816C 1087.38,812.561 1093.38,809.395 1099.5,806.5C 1112.96,810.894 1125.96,816.394 1138.5,823C 1150.11,830.947 1161.45,839.281 1172.5,848C 1177.5,851 1182.5,854 1187.5,857C 1196.38,858.046 1199.05,854.546 1195.5,846.5C 1185,839.417 1174.34,832.584 1163.5,826C 1142.83,816 1122.17,806 1101.5,796C 1083.17,788.668 1064.51,782.335 1045.5,777C 1035.12,772.263 1024.79,767.43 1014.5,762.5C 1012.51,759.15 1009.51,757.65 1005.5,758C 988.328,746.915 971.328,735.581 954.5,724C 944.994,718.413 935.327,713.08 925.5,708C 877.925,691.714 831.591,672.381 786.5,650C 768.833,639 751.167,628 733.5,617C 706.833,603 680.167,589 653.5,575C 637.5,565 621.5,555 605.5,545C 585.75,536.528 566.084,527.861 546.5,519C 519.95,500.215 491.617,484.215 461.5,471C 441.765,458.27 421.765,445.937 401.5,434C 415.893,426.471 430.56,419.471 445.5,413C 458.567,404.271 471.901,395.938 485.5,388C 504.621,379.273 523.621,370.273 542.5,361C 551.5,355.333 560.5,349.667 569.5,344C 587.5,335.333 605.5,326.667 623.5,318C 640.006,307.244 657.006,297.244 674.5,288C 696.281,279.276 717.948,270.276 739.5,261C 763.816,248.843 787.816,236.176 811.5,223C 835.016,214.272 858.682,205.939 882.5,198C 909.917,182.458 938.251,168.791 967.5,157C 972.664,155.631 977.664,154.131 982.5,152.5 Z"/></g>
<g><path style="opacity:1" fill="#040100" d="M 981.5,190.5 C 989.625,190.152 997.625,190.985 1005.5,193C 1029.18,203.45 1053.52,212.117 1078.5,219C 1084.79,219.953 1086.95,223.453 1085,229.5C 1082.79,232.29 1079.96,233.123 1076.5,232C 1071.76,230.53 1067.09,228.864 1062.5,227C 1044.32,217.075 1025.32,209.075 1005.5,203C 992.111,199.665 979.444,201.332 967.5,208C 959.5,213.667 951.5,219.333 943.5,225C 938.93,227.215 935.93,225.882 934.5,221C 934.703,218.594 935.703,216.594 937.5,215C 950.593,203.955 965.26,195.788 981.5,190.5 Z"/></g>
<g><path style="opacity:1" fill="#f2c78e" d="M 1062.5,275.5 C 1053.52,271.345 1044.52,267.178 1035.5,263C 1032.58,261.86 1029.58,261.027 1026.5,260.5C 1024.63,260.39 1023.13,261.056 1022,262.5C 1021.23,265.099 1021.4,267.599 1022.5,270C 1052.04,283.77 1082.04,296.436 1112.5,308C 1136.82,319.822 1159.49,334.155 1180.5,351C 1184.32,354.955 1184.49,359.122 1181,363.5C 1178.67,366.5 1176.33,369.5 1174,372.5C 1152.96,390.599 1131.46,408.099 1109.5,425C 1084.83,437 1060.17,449 1035.5,461C 1015,474.085 994.662,487.418 974.5,501C 959,508.388 943.334,515.388 927.5,522C 924.914,524.494 924.914,526.994 927.5,529.5C 913.402,536.383 899.402,543.55 885.5,551C 872.597,554.812 859.93,554.145 847.5,549C 831.631,541.907 817.297,532.573 804.5,521C 805.056,520.617 805.389,520.117 805.5,519.5C 808.5,517.678 809.167,515.178 807.5,512C 787.815,501.966 769.482,489.966 752.5,476C 734.701,466.52 717.701,455.853 701.5,444C 697.234,442.502 694.234,443.668 692.5,447.5C 685.829,443.665 681.163,438.165 678.5,431C 678.773,429.467 679.106,427.967 679.5,426.5C 683.696,428.953 687.696,428.453 691.5,425C 730.253,399.453 771.253,377.786 814.5,360C 829.325,352.424 843.658,344.091 857.5,335C 891.476,320.848 923.809,303.848 954.5,284C 961.554,279.806 968.888,276.139 976.5,273C 979.061,270.844 979.061,268.677 976.5,266.5C 983.938,263.118 991.604,260.284 999.5,258C 1022.75,255.806 1043.75,261.639 1062.5,275.5 Z"/></g>
<g><path style="opacity:1" fill="#060302" d="M 1062.5,275.5 C 1087.8,289.478 1114.13,301.311 1141.5,311C 1160.23,319.419 1177.07,330.586 1192,344.5C 1194.96,350.299 1195.29,356.299 1193,362.5C 1189.62,371.862 1184.62,380.195 1178,387.5C 1171.79,393.375 1165.29,398.875 1158.5,404C 1133.67,417.912 1109.34,432.579 1085.5,448C 1059.91,461.933 1034.58,476.266 1009.5,491C 983.925,503.954 958.259,516.621 932.5,529C 930.866,529.494 929.199,529.66 927.5,529.5C 924.914,526.994 924.914,524.494 927.5,522C 943.334,515.388 959,508.388 974.5,501C 994.662,487.418 1015,474.085 1035.5,461C 1060.17,449 1084.83,437 1109.5,425C 1131.46,408.099 1152.96,390.599 1174,372.5C 1176.33,369.5 1178.67,366.5 1181,363.5C 1184.49,359.122 1184.32,354.955 1180.5,351C 1159.49,334.155 1136.82,319.822 1112.5,308C 1082.04,296.436 1052.04,283.77 1022.5,270C 1021.4,267.599 1021.23,265.099 1022,262.5C 1023.13,261.056 1024.63,260.39 1026.5,260.5C 1029.58,261.027 1032.58,261.86 1035.5,263C 1044.52,267.178 1053.52,271.345 1062.5,275.5 Z"/></g>
<g><path style="opacity:1" fill="#050301" d="M 976.5,266.5 C 979.061,268.677 979.061,270.844 976.5,273C 968.888,276.139 961.554,279.806 954.5,284C 923.809,303.848 891.476,320.848 857.5,335C 843.658,344.091 829.325,352.424 814.5,360C 771.253,377.786 730.253,399.453 691.5,425C 687.696,428.453 683.696,428.953 679.5,426.5C 678.064,423.499 678.397,420.665 680.5,418C 707.301,401.264 735.301,386.597 764.5,374C 792.648,355.924 821.981,339.924 852.5,326C 862.5,320 872.5,314 882.5,308C 912.584,294.527 942.584,280.86 972.5,267C 973.793,266.51 975.127,266.343 976.5,266.5 Z"/></g>
<g><path style="opacity:1" fill="#231814" d="M 1236.5,253.5 C 1263.99,269.248 1292.66,282.248 1322.5,292.5C 1316.67,291.725 1311,290.225 1305.5,288C 1281.93,279.382 1259.27,268.882 1237.5,256.5C 1236.61,255.675 1236.28,254.675 1236.5,253.5 Z"/></g>
<g><path style="opacity:1" fill="#1f1410" d="M 1428.5,338.5 C 1448.45,350.48 1468.78,361.98 1489.5,373C 1510.4,380.077 1531.06,387.743 1551.5,396C 1560.21,400.02 1568.55,404.52 1576.5,409.5C 1565.75,404.959 1555.08,400.125 1544.5,395C 1525.5,388 1506.5,381 1487.5,374C 1466.67,363.609 1447.01,351.776 1428.5,338.5 Z"/></g>
<g><path style="opacity:1" fill="#050100" d="M 551.5,411.5 C 557.33,411.161 559.83,413.827 559,419.5C 555.478,422.266 552.145,425.266 549,428.5C 547.669,431.834 545.835,434.834 543.5,437.5C 535.304,438.784 532.804,435.45 536,427.5C 540.026,420.975 545.193,415.642 551.5,411.5 Z"/></g>
<g><path style="opacity:1" fill="#f2c78e" d="M 1323.5,424.5 C 1320.43,428.714 1321.1,432.214 1325.5,435C 1351.11,446.47 1376.44,458.47 1401.5,471C 1421.53,483.349 1442.19,494.682 1463.5,505C 1478.19,510.509 1492.52,516.842 1506.5,524C 1521.17,533.333 1535.83,542.667 1550.5,552C 1566.97,559.569 1583.63,566.569 1600.5,573C 1594.55,578.973 1587.88,583.973 1580.5,588C 1553.09,601.204 1526.09,615.204 1499.5,630C 1476.18,638.327 1452.84,646.66 1429.5,655C 1396.16,671.667 1363.16,688.834 1330.5,706.5C 1318.63,710.927 1308.29,717.594 1299.5,726.5C 1289.02,732.908 1278.36,739.074 1267.5,745C 1264.96,747.201 1264.96,749.368 1267.5,751.5C 1255.86,761.396 1242.36,767.396 1227,769.5C 1222.73,768.781 1218.9,767.114 1215.5,764.5C 1215.42,762.071 1214.42,760.071 1212.5,758.5C 1197.18,750.842 1182.18,742.675 1167.5,734C 1146.38,724.607 1125.38,714.94 1104.5,705C 1080.5,692 1056.5,679 1032.5,666C 1008.84,649.164 984.174,633.831 958.5,620C 952.999,617.028 949.666,618.528 948.5,624.5C 940.507,621.357 937.674,615.69 940,607.5C 946.236,600.593 953.069,594.427 960.5,589C 963.206,587.092 966.206,586.259 969.5,586.5C 969.624,588.582 970.624,590.082 972.5,591C 975.303,591.755 977.97,591.422 980.5,590C 1005.67,574.25 1030.67,558.25 1055.5,542C 1083.33,526.586 1111,510.92 1138.5,495C 1157.22,486.762 1175.55,477.762 1193.5,468C 1213.84,455.163 1234.5,442.83 1255.5,431C 1257.18,427.886 1256.35,425.719 1253,424.5C 1249.52,427.146 1245.68,429.146 1241.5,430.5C 1251.28,421.28 1262.95,415.78 1276.5,414C 1285.87,413.268 1295.2,413.602 1304.5,415C 1311.13,417.65 1317.47,420.817 1323.5,424.5 Z"/></g>
<g><path style="opacity:1" fill="#050302" d="M 1323.5,424.5 C 1328.08,424.113 1332.41,424.947 1336.5,427C 1347.83,432.667 1359.17,438.333 1370.5,444C 1398.38,462.105 1428.04,476.772 1459.5,488C 1470.62,493.061 1481.62,498.394 1492.5,504C 1510.68,513.921 1529.01,523.588 1547.5,533C 1564.23,545.364 1582.23,555.697 1601.5,564C 1604.71,565.762 1606.71,568.429 1607.5,572C 1605.07,580.175 1600.41,586.842 1593.5,592C 1576.35,604.913 1557.68,615.246 1537.5,623C 1502.01,635.278 1467.68,650.278 1434.5,668C 1402.61,680.444 1372.28,695.778 1343.5,714C 1318.33,726.083 1293.66,738.916 1269.5,752.5C 1268.82,752.137 1268.15,751.804 1267.5,751.5C 1264.96,749.368 1264.96,747.201 1267.5,745C 1278.36,739.074 1289.02,732.908 1299.5,726.5C 1310.35,720.578 1320.69,713.911 1330.5,706.5C 1363.16,688.834 1396.16,671.667 1429.5,655C 1452.84,646.66 1476.18,638.327 1499.5,630C 1526.09,615.204 1553.09,601.204 1580.5,588C 1587.88,583.973 1594.55,578.973 1600.5,573C 1583.63,566.569 1566.97,559.569 1550.5,552C 1535.83,542.667 1521.17,533.333 1506.5,524C 1492.52,516.842 1478.19,510.509 1463.5,505C 1442.19,494.682 1421.53,483.349 1401.5,471C 1376.44,458.47 1351.11,446.47 1325.5,435C 1321.1,432.214 1320.43,428.714 1323.5,424.5 Z"/></g>
<g><path style="opacity:1" fill="#050302" d="M 969.5,586.5 C 969.84,584.321 970.84,582.488 972.5,581C 994.329,568.92 1016,556.586 1037.5,544C 1055.89,530.61 1074.56,517.61 1093.5,505C 1110.29,496.289 1127.29,487.956 1144.5,480C 1152.5,475 1160.5,470 1168.5,465C 1188.26,455.451 1208.26,446.451 1228.5,438C 1233.22,435.978 1237.56,433.478 1241.5,430.5C 1245.68,429.146 1249.52,427.146 1253,424.5C 1256.35,425.719 1257.18,427.886 1255.5,431C 1234.5,442.83 1213.84,455.163 1193.5,468C 1175.55,477.762 1157.22,486.762 1138.5,495C 1111,510.92 1083.33,526.586 1055.5,542C 1030.67,558.25 1005.67,574.25 980.5,590C 977.97,591.422 975.303,591.755 972.5,591C 970.624,590.082 969.624,588.582 969.5,586.5 Z"/></g>
<g><path style="opacity:1" fill="#a15031" d="M 417.5,639.5 C 411.732,656.486 406.732,673.819 402.5,691.5C 402.52,692.726 402.853,693.726 403.5,694.5C 401.466,704.687 400.966,715.02 402,725.5C 403.132,732.31 404.465,738.976 406,745.5C 380.775,732.315 354.942,720.482 328.5,710C 304.096,697.654 279.763,685.32 255.5,673C 249.13,666.764 244.964,659.264 243,650.5C 238.696,625.008 237.363,599.342 239,573.5C 241.42,555.229 243.087,536.896 244,518.5C 246.461,489.085 257.961,463.918 278.5,443C 292.547,430.545 308.547,427.212 326.5,433C 298.213,448.964 279.046,472.464 269,503.5C 263.58,516.759 259.58,530.425 257,544.5C 256.333,562.833 256.333,581.167 257,599.5C 261.325,603.752 264.658,603.085 267,597.5C 267.271,565.757 270.938,534.424 278,503.5C 282.105,490.618 288.772,479.284 298,469.5C 311.466,455.013 327.299,443.847 345.5,436C 362.994,435.778 379.994,438.445 396.5,444C 419.685,457.762 443.352,470.762 467.5,483C 476.221,488.353 484.554,494.187 492.5,500.5C 457.635,528.848 433.135,564.514 419,607.5C 416.612,618.144 416.112,628.811 417.5,639.5 Z"/></g>
<g><path style="opacity:1" fill="#261915" d="M 1602.5,421.5 C 1609.18,424.23 1615.85,427.063 1622.5,430C 1637.78,434.726 1652.78,439.892 1667.5,445.5C 1644.37,440.289 1622.03,432.789 1600.5,423C 1601.42,422.722 1602.08,422.222 1602.5,421.5 Z"/></g>
<g><path style="opacity:1" fill="#060402" d="M 805.5,519.5 C 801.219,518.864 797.219,517.364 793.5,515C 765.667,495.576 736.667,477.909 706.5,462C 702.049,459.217 697.883,456.05 694,452.5C 692.991,450.975 692.491,449.308 692.5,447.5C 694.234,443.668 697.234,442.502 701.5,444C 717.701,455.853 734.701,466.52 752.5,476C 769.482,489.966 787.815,501.966 807.5,512C 809.167,515.178 808.5,517.678 805.5,519.5 Z"/></g>
<g><path style="opacity:1" fill="#f89500" d="M 403.5,694.5 C 402.853,693.726 402.52,692.726 402.5,691.5C 406.732,673.819 411.732,656.486 417.5,639.5C 421.528,646.134 425.695,646.134 430,639.5C 428.995,619.862 431.828,600.862 438.5,582.5C 443.255,575.996 447.255,568.996 450.5,561.5C 462.486,545.335 475.819,530.168 490.5,516C 494.744,512.756 499.244,509.922 504,507.5C 526.565,519.866 549.065,532.366 571.5,545C 558.551,551.949 546.718,560.449 536,570.5C 524.333,586.833 512.667,603.167 501,619.5C 490.96,637.285 484.293,656.285 481,676.5C 478.203,694.818 475.536,713.151 473,731.5C 472.333,741.833 472.333,752.167 473,762.5C 473.413,769.312 474.58,775.979 476.5,782.5C 476.167,782.833 475.833,783.167 475.5,783.5C 459.074,773.201 442.241,763.535 425,754.5C 412.17,735.355 408.336,714.522 413.5,692C 412.18,688.794 409.847,687.794 406.5,689C 404.84,690.488 403.84,692.321 403.5,694.5 Z"/></g>
<g><path style="opacity:1" fill="#201511" d="M 1781.5,496.5 C 1812.18,509.455 1842.52,523.288 1872.5,538C 1890.26,546.76 1900.76,560.927 1904,580.5C 1904.72,591.305 1901.89,600.972 1895.5,609.5C 1907.25,585.737 1903.25,564.904 1883.5,547C 1874.32,540.905 1864.65,535.572 1854.5,531C 1831.25,520.472 1807.92,510.139 1784.5,500C 1782.57,499.578 1781.57,498.411 1781.5,496.5 Z"/></g>
<g><path style="opacity:1" fill="#060201" d="M 1655.5,529.5 C 1659.51,529.502 1663.18,530.668 1666.5,533C 1680.08,541.041 1693.58,549.208 1707,557.5C 1707.85,560.407 1707.02,562.74 1704.5,564.5C 1703.23,565.428 1701.9,565.595 1700.5,565C 1685.34,556.92 1670.34,548.587 1655.5,540C 1651.57,536.504 1651.57,533.004 1655.5,529.5 Z"/></g>
<g><path style="opacity:1" fill="#a15031" d="M 585.5,552.5 C 605.577,559.534 625.244,567.701 644.5,577C 660.225,588.39 676.225,599.39 692.5,610C 720.012,623.923 747.679,637.589 775.5,651C 793.901,663.062 812.567,674.729 831.5,686C 849.406,693.524 867.739,699.858 886.5,705C 925.335,720.25 962.335,738.917 997.5,761C 985.004,767.747 972.671,774.747 960.5,782C 940.201,795.634 924.035,813.134 912,834.5C 900.539,851.88 893.206,870.88 890,891.5C 888.579,904.533 886.913,917.533 885,930.5C 883.46,948.881 884.627,967.047 888.5,985C 888.167,985.5 887.833,986 887.5,986.5C 862.376,975.959 837.376,965.125 812.5,954C 794.669,941.915 776.336,930.581 757.5,920C 730.833,907.333 704.167,894.667 677.5,882C 659.426,870.934 641.092,860.268 622.5,850C 608.226,843.352 593.559,837.686 578.5,833C 564.674,825.921 551.008,818.588 537.5,811C 523.58,805.138 509.58,799.471 495.5,794C 493.413,793.208 491.579,792.041 490,790.5C 488.617,785.92 487.617,781.253 487,776.5C 486.333,753.833 486.333,731.167 487,708.5C 492.457,680.006 499.79,652.006 509,624.5C 522.178,599.322 540.345,578.488 563.5,562C 570.646,558.128 577.98,554.961 585.5,552.5 Z"/></g>
<g><path style="opacity:1" fill="#040100" d="M 1867.5,568.5 C 1873.02,569.044 1874.35,571.544 1871.5,576C 1835.84,600.167 1797.84,620.167 1757.5,636C 1744.8,642.349 1732.14,648.682 1719.5,655C 1699.09,662.804 1678.75,670.804 1658.5,679C 1625.59,698.454 1591.59,715.787 1556.5,731C 1540.76,736.804 1525.09,742.804 1509.5,749C 1479.18,765.491 1447.85,779.824 1415.5,792C 1400.45,800.525 1385.12,808.525 1369.5,816C 1348.72,822.693 1328.06,829.693 1307.5,837C 1285.07,848.382 1262.74,860.048 1240.5,872C 1233.3,873.143 1230.8,870.309 1233,863.5C 1248.21,855.809 1263.38,847.976 1278.5,840C 1297.61,832.61 1316.61,824.943 1335.5,817C 1356.6,806.785 1377.93,797.118 1399.5,788C 1418.59,777.791 1437.92,768.124 1457.5,759C 1477.24,752.531 1496.91,745.864 1516.5,739C 1539.83,727 1563.17,715 1586.5,703C 1609.6,692.449 1632.93,682.449 1656.5,673C 1676.5,662.333 1696.5,651.667 1716.5,641C 1733.61,634.276 1750.61,627.276 1767.5,620C 1795.65,605.76 1823.98,591.76 1852.5,578C 1857.67,574.97 1862.67,571.804 1867.5,568.5 Z"/></g>
<g><path style="opacity:1" fill="#984c2d" d="M 450.5,561.5 C 447.255,568.996 443.255,575.996 438.5,582.5C 441.239,574.677 445.239,567.677 450.5,561.5 Z"/></g>
<g><path style="opacity:1" fill="#050100" d="M 1723.5,593.5 C 1732.71,595.526 1733.71,599.693 1726.5,606C 1709,616.918 1691.33,627.585 1673.5,638C 1668.18,638.34 1666.01,635.84 1667,630.5C 1686.01,618.304 1704.84,605.97 1723.5,593.5 Z"/></g>
<g><path style="opacity:1" fill="#050301" d="M 1215.5,764.5 C 1213.89,768.637 1210.89,770.137 1206.5,769C 1187.04,758.956 1167.38,749.289 1147.5,740C 1136.31,732.904 1124.65,726.571 1112.5,721C 1097.5,715.108 1082.83,708.442 1068.5,701C 1031.5,673.485 992.168,649.485 950.5,629C 949.418,627.67 948.751,626.17 948.5,624.5C 949.666,618.528 952.999,617.028 958.5,620C 984.174,633.831 1008.84,649.164 1032.5,666C 1056.5,679 1080.5,692 1104.5,705C 1125.38,714.94 1146.38,724.607 1167.5,734C 1182.18,742.675 1197.18,750.842 1212.5,758.5C 1214.42,760.071 1215.42,762.071 1215.5,764.5 Z"/></g>
<g><path style="opacity:1" fill="#f9d3c7" d="M 1828.5,649.5 C 1831.46,649.73 1832.8,651.397 1832.5,654.5C 1830.89,663.231 1826.22,669.731 1818.5,674C 1811.17,677.667 1803.83,681.333 1796.5,685C 1793.4,689.209 1794.4,692.042 1799.5,693.5C 1803.31,692.562 1806.98,691.229 1810.5,689.5C 1811.09,689.709 1811.59,690.043 1812,690.5C 1812.13,708.216 1811.13,725.882 1809,743.5C 1807.38,751.453 1803.05,757.453 1796,761.5C 1796.01,767.55 1798.85,769.05 1804.5,766C 1807.41,761.678 1811.08,760.678 1815.5,763C 1817.75,764.377 1819.92,765.877 1822,767.5C 1821.11,775.409 1817.28,781.576 1810.5,786C 1774.64,801.591 1740.64,820.258 1708.5,842C 1679.09,855.202 1650.76,870.202 1623.5,887C 1600,897.722 1576.33,908.056 1552.5,918C 1526.19,930.823 1500.19,944.156 1474.5,958C 1453.67,965.459 1432.67,972.459 1411.5,979C 1394.14,985.844 1377.14,993.511 1360.5,1002C 1344.06,1008.26 1327.39,1013.93 1310.5,1019C 1284.42,1031.21 1257.42,1040.87 1229.5,1048C 1211.92,1054.54 1195.42,1063.04 1180,1073.5C 1171.9,1057.53 1165.56,1040.86 1161,1023.5C 1158.08,990.841 1162.41,959.174 1174,928.5C 1176.77,923.396 1179.94,918.563 1183.5,914C 1191.81,914.424 1200.14,914.924 1208.5,915.5C 1257.87,910.74 1304.2,896.24 1347.5,872C 1362.63,866.768 1377.3,860.434 1391.5,853C 1409.52,841.322 1428.18,830.655 1447.5,821C 1493.8,803.23 1538.8,782.563 1582.5,759C 1601.17,751.333 1620.17,744.666 1639.5,739C 1686.82,709.672 1736.15,684.005 1787.5,662C 1801.16,657.342 1814.83,653.175 1828.5,649.5 Z"/></g>
<g><path style="opacity:1" fill="#75634a" d="M 259.5,690.5 C 280.51,698.227 301.51,706.06 322.5,714C 346.86,729.852 372.193,744.186 398.5,757C 426.093,768.295 453.093,780.962 479.5,795C 481.167,796.667 482.833,798.333 484.5,800C 485.899,800.595 487.232,800.428 488.5,799.5C 509.039,810.936 529.705,822.102 550.5,833C 575.645,843.238 600.311,854.572 624.5,867C 640.327,872.942 655.993,879.275 671.5,886C 715.167,913.672 760.833,938.006 808.5,959C 839.663,976.805 871.33,993.805 903.5,1010C 920.005,1020.17 935.672,1031.51 950.5,1044C 966.024,1052.2 981.024,1061.2 995.5,1071C 1038.45,1094.31 1082.12,1116.31 1126.5,1137C 1158.31,1152.72 1190.97,1154.72 1224.5,1143C 1234.28,1138.86 1243.28,1133.53 1251.5,1127C 1262.47,1117.03 1273.14,1106.7 1283.5,1096C 1286.83,1094 1290.17,1092 1293.5,1090C 1306.25,1085.2 1318.91,1080.2 1331.5,1075C 1386.4,1051.22 1441.07,1026.88 1495.5,1002C 1532.86,987.986 1569.53,972.32 1605.5,955C 1626.65,947.727 1647.65,940.06 1668.5,932C 1694.29,919.939 1719.96,907.606 1745.5,895C 1766.61,886.61 1787.61,877.943 1808.5,869C 1831.09,856.065 1853.43,842.731 1875.5,829C 1879.5,826 1883.5,823 1887.5,820C 1892.07,814.771 1896.57,809.605 1901,804.5C 1928.59,815.787 1953.59,831.12 1976,850.5C 1977.92,853.339 1979.59,856.339 1981,859.5C 1986.86,877.576 1982.69,892.743 1968.5,905C 1957.14,912.681 1945.14,919.348 1932.5,925C 1905.32,936.059 1877.99,946.725 1850.5,957C 1831.2,966.651 1811.86,976.318 1792.5,986C 1771.5,993.667 1750.5,1001.33 1729.5,1009C 1702.62,1021.44 1675.95,1034.44 1649.5,1048C 1617.6,1059.19 1586.6,1072.52 1556.5,1088C 1540.99,1093.46 1525.32,1098.46 1509.5,1103C 1483.01,1114.72 1455.67,1124.05 1427.5,1131C 1408.44,1137.47 1389.44,1144.13 1370.5,1151C 1365.42,1155.39 1359.75,1159.05 1353.5,1162C 1335.43,1169.87 1317.77,1178.53 1300.5,1188C 1286.72,1193.89 1272.72,1199.22 1258.5,1204C 1236.38,1214.55 1215.38,1226.89 1195.5,1241C 1186.14,1244.4 1176.48,1245.4 1166.5,1244C 1143.51,1236.05 1120.84,1236.72 1098.5,1246C 1080.26,1255.59 1067.43,1270.09 1060,1289.5C 1043.33,1330.3 1040.99,1371.96 1053,1414.5C 1063.73,1449.25 1087.07,1468.58 1123,1472.5C 1128.66,1472.68 1134.16,1471.84 1139.5,1470C 1184.67,1448.27 1231.01,1429.27 1278.5,1413C 1318.12,1394.8 1357.78,1376.8 1397.5,1359C 1414.51,1351.83 1431.51,1344.66 1448.5,1337.5C 1454.95,1339.95 1460.62,1343.62 1465.5,1348.5C 1460.86,1351.82 1455.86,1354.66 1450.5,1357C 1449.17,1358.33 1447.83,1359.67 1446.5,1361C 1429.29,1367.3 1411.95,1373.3 1394.5,1379C 1378.88,1386.47 1363.55,1394.47 1348.5,1403C 1318,1415.61 1287.67,1428.61 1257.5,1442C 1242.65,1446.8 1227.65,1451.13 1212.5,1455C 1197.18,1460.33 1181.84,1465.66 1166.5,1471C 1160.8,1473.83 1160.13,1477.5 1164.5,1482C 1166.17,1482.67 1167.83,1482.67 1169.5,1482C 1190.09,1474.14 1210.76,1466.47 1231.5,1459C 1259.3,1450.4 1286.97,1441.4 1314.5,1432C 1331.8,1423.35 1349.14,1414.68 1366.5,1406C 1394.62,1395.4 1421.96,1383.07 1448.5,1369C 1458.17,1366.58 1467,1362.41 1475,1356.5C 1481.68,1363.01 1488.18,1369.68 1494.5,1376.5C 1487.33,1379.61 1480,1382.45 1472.5,1385C 1467.54,1387.64 1462.88,1390.64 1458.5,1394C 1442.32,1400.06 1425.98,1405.73 1409.5,1411C 1388.83,1420 1368.17,1429 1347.5,1438C 1314.83,1448.67 1282.17,1459.33 1249.5,1470C 1226.8,1478.9 1204.47,1488.56 1182.5,1499C 1171.92,1511.59 1159.59,1521.92 1145.5,1530C 1126.96,1538.02 1107.62,1540.69 1087.5,1538C 1072.36,1536.09 1057.36,1533.42 1042.5,1530C 1030.37,1526.94 1019.71,1521.27 1010.5,1513C 1001.68,1502.84 991.681,1494.17 980.5,1487C 969.497,1480.83 958.83,1474.17 948.5,1467C 935.592,1460.38 922.592,1454.05 909.5,1448C 890.521,1435.7 871.021,1424.2 851,1413.5C 847.953,1401.37 846.286,1389.04 846,1376.5C 841.583,1330 847.916,1285 865,1241.5C 878.967,1218.86 896.467,1199.36 917.5,1183C 920.585,1181.04 923.752,1179.21 927,1177.5C 947.192,1191.68 969.025,1202.85 992.5,1211C 999.43,1211.03 1001.93,1207.53 1000,1200.5C 980.392,1190.95 960.559,1181.78 940.5,1173C 924.5,1162.67 908.5,1152.33 892.5,1142C 849.057,1122.95 807.057,1101.28 766.5,1077C 761.608,1075.31 758.608,1076.98 757.5,1082C 757.99,1083.98 758.99,1085.65 760.5,1087C 772.993,1093.41 785.326,1100.08 797.5,1107C 814.546,1114.24 831.213,1122.24 847.5,1131C 830.676,1141.79 816.842,1155.62 806,1172.5C 792.393,1194.38 782.06,1217.71 775,1242.5C 773.781,1249.8 772.781,1257.13 772,1264.5C 771.12,1286.53 771.453,1308.53 773,1330.5C 774.647,1340.44 777.314,1350.11 781,1359.5C 785.953,1370.05 790.286,1380.72 794,1391.5C 772.804,1381.15 752.304,1369.65 732.5,1357C 701.099,1342.47 670.099,1327.13 639.5,1311C 603.691,1296.1 568.358,1280.1 533.5,1263C 519.667,1254.92 506,1246.58 492.5,1238C 460.359,1222.1 428.693,1205.43 397.5,1188C 375.773,1181.09 354.773,1172.42 334.5,1162C 316.156,1150.5 298.156,1138.5 280.5,1126C 269.5,1121.67 258.5,1117.33 247.5,1113C 238.308,1109.15 229.474,1104.65 221,1099.5C 218.54,1093.99 216.54,1088.33 215,1082.5C 210.633,1059.7 205.633,1037.03 200,1014.5C 198.491,1000.53 198.158,986.534 199,972.5C 199.788,959.173 200.454,945.839 201,932.5C 202.635,893.738 217.802,861.572 246.5,836C 248.044,834.813 249.711,834.48 251.5,835C 258.5,839.333 265.5,843.667 272.5,848C 303.058,861.945 333.058,876.945 362.5,893C 378.756,899.197 395.09,905.197 411.5,911C 421.554,915.777 431.388,920.944 441,926.5C 444.345,925.281 445.179,923.114 443.5,920C 429.169,912.17 415.169,903.837 401.5,895C 381.08,884.623 360.08,875.623 338.5,868C 309.185,850.343 278.518,835.343 246.5,823C 234.232,815.728 222.232,808.061 210.5,800C 196.558,792.529 182.225,785.863 167.5,780C 163.903,778.723 160.236,778.39 156.5,779C 152.928,781.626 152.595,784.626 155.5,788C 164.408,790.791 173.075,794.124 181.5,798C 159.98,806.519 143.814,821.019 133,841.5C 109.576,882.101 100.576,925.767 106,972.5C 107.545,989.47 112.879,1005.14 122,1019.5C 130.305,1031.97 138.805,1044.3 147.5,1056.5C 147.333,1056.83 147.167,1057.17 147,1057.5C 144.913,1056.21 142.746,1055.04 140.5,1054C 131.506,1047.5 122.173,1041.5 112.5,1036C 73.8978,1036.05 51.0644,1017.22 44,979.5C 36.2046,940.879 31.7046,901.879 30.5,862.5C 29.8847,829.627 37.718,798.96 54,770.5C 62.6201,758.842 74.1201,755.009 88.5,759C 104.747,764.622 120.414,771.622 135.5,780C 140.033,781.471 142.367,779.804 142.5,775C 142.561,773.289 141.894,771.956 140.5,771C 129.99,765.245 119.323,759.745 108.5,754.5C 107.167,753.833 107.167,753.167 108.5,752.5C 123.609,743.612 139.276,735.779 155.5,729C 189.929,715.249 224.596,702.416 259.5,690.5 Z"/></g>
<g><path style="opacity:1" fill="#9b4f31" d="M 1330.5,706.5 C 1320.69,713.911 1310.35,720.578 1299.5,726.5C 1308.29,717.594 1318.63,710.927 1330.5,706.5 Z"/></g>
<g><path style="opacity:1" fill="#241915" d="M 1833.5,712.5 C 1857.09,722.876 1878.26,736.876 1897,754.5C 1906.15,765.795 1909.65,778.462 1907.5,792.5C 1906.42,793.562 1905.42,793.562 1904.5,792.5C 1907.32,779.122 1904.49,767.122 1896,756.5C 1878.51,739.661 1858.67,726.161 1836.5,716C 1834.94,715.241 1833.94,714.074 1833.5,712.5 Z"/></g>
<g><path style="opacity:1" fill="#030201" d="M 179.5,757.5 C 183.273,757.263 186.94,757.763 190.5,759C 207.737,765.079 224.737,771.745 241.5,779C 253.658,787.913 265.992,796.579 278.5,805C 287.999,809.721 297.666,814.055 307.5,818C 310.835,820.679 311.335,823.845 309,827.5C 305.957,829.908 302.791,830.074 299.5,828C 282.49,817.497 265.824,806.497 249.5,795C 245.326,792.412 240.993,790.079 236.5,788C 218.137,780.545 199.47,773.879 180.5,768C 176.935,764.784 176.602,761.284 179.5,757.5 Z"/></g>
<g><path style="opacity:1" fill="#f89500" d="M 1008.5,769.5 C 1010.31,769.491 1011.98,769.991 1013.5,771C 1023.33,778.086 1033.67,784.419 1044.5,790C 1058.2,792.23 1071.53,795.897 1084.5,801C 1065.61,813.223 1047.28,826.223 1029.5,840C 1010.18,856.176 995.343,875.676 985,898.5C 981.325,907.193 978.658,916.193 977,925.5C 975.299,941.875 973.299,958.209 971,974.5C 970.333,988.167 970.333,1001.83 971,1015.5C 972.289,1023.52 973.289,1031.52 974,1039.5C 970.423,1036.63 966.589,1034.13 962.5,1032C 960.231,1031.24 958.064,1031.41 956,1032.5C 938.174,1019.92 920.174,1007.59 902,995.5C 900.59,987.217 899.59,978.883 899,970.5C 898.633,955.329 898.133,940.162 897.5,925C 901.136,886.427 912.969,850.593 933,817.5C 940.481,809.026 948.981,801.859 958.5,796C 974.214,785.31 990.881,776.477 1008.5,769.5 Z"/></g>
<g><path style="opacity:1" fill="#883719" d="M 191.5,806.5 C 194.85,806.335 198.183,806.502 201.5,807C 213.698,813.596 225.698,820.429 237.5,827.5C 224.96,839.574 215.126,853.574 208,869.5C 197.245,895.188 190.245,921.855 187,949.5C 186.373,976.888 187.373,1004.22 190,1031.5C 193.862,1052.64 199.362,1072.98 206.5,1092.5C 191.083,1083.04 175.583,1073.71 160,1064.5C 140.486,1033.8 126.152,1000.8 117,965.5C 116.91,929.373 122.243,894.039 133,859.5C 142.241,839.925 156.074,824.425 174.5,813C 180.16,810.507 185.826,808.341 191.5,806.5 Z"/></g>
<g><path style="opacity:1" fill="#030201" d="M 1913.5,826.5 C 1916.5,826.253 1919,827.253 1921,829.5C 1926.29,840.047 1925.12,849.881 1917.5,859C 1914.88,861.271 1911.88,861.938 1908.5,861C 1906.56,858.847 1906.06,856.347 1907,853.5C 1913.06,847.084 1914.22,839.751 1910.5,831.5C 1911.09,829.577 1912.09,827.911 1913.5,826.5 Z"/></g>
<g><path style="opacity:1" fill="#030201" d="M 347.5,841.5 C 353.278,841.882 358.611,843.715 363.5,847C 390.291,864.065 418.291,879.065 447.5,892C 459.241,895.803 470.908,899.803 482.5,904C 507.807,916.654 533.807,927.654 560.5,937C 582.112,947.139 603.445,957.806 624.5,969C 656.287,980.395 686.621,994.728 715.5,1012C 728.991,1021.91 742.658,1031.58 756.5,1041C 778.044,1051.94 799.71,1062.61 821.5,1073C 836.167,1082.67 850.833,1092.33 865.5,1102C 895.5,1117.67 925.5,1133.33 955.5,1149C 977.475,1157.99 999.809,1165.99 1022.5,1173C 1026.89,1177.94 1025.89,1181.44 1019.5,1183.5C 1001.15,1176.49 983.155,1168.66 965.5,1160C 939.443,1151.43 914.11,1141.09 889.5,1129C 862.686,1112.2 835.353,1096.2 807.5,1081C 789.336,1069.08 771.003,1057.42 752.5,1046C 714.673,1025.59 677.006,1004.92 639.5,984C 632.833,980.667 626.167,977.333 619.5,974C 599.232,966.466 578.899,959.133 558.5,952C 546.325,946.384 534.325,940.384 522.5,934C 504.5,927 486.5,920 468.5,913C 445.687,900.594 422.354,889.26 398.5,879C 382.008,870.588 365.675,861.921 349.5,853C 347.443,851.281 345.776,849.281 344.5,847C 345.124,844.915 346.124,843.082 347.5,841.5 Z"/></g>
<g><path style="opacity:1" fill="#030201" d="M 1958.5,863.5 C 1964.03,862.069 1967.36,864.069 1968.5,869.5C 1968.12,871.383 1967.12,872.883 1965.5,874C 1932.05,890.15 1897.72,904.15 1862.5,916C 1837.75,928.879 1812.41,940.379 1786.5,950.5C 1781.92,949.132 1780.42,946.132 1782,941.5C 1807.49,929.891 1833.32,919.057 1859.5,909C 1875.96,901.272 1892.29,893.272 1908.5,885C 1925.31,877.906 1941.98,870.739 1958.5,863.5 Z"/></g>
<g><path style="opacity:1" fill="#040100" d="M 1177.5,864.5 C 1189.7,863.883 1201.03,866.717 1211.5,873C 1218.5,878.076 1218.17,882.243 1210.5,885.5C 1203.31,881.238 1195.64,878.071 1187.5,876C 1184.17,875.333 1180.83,875.333 1177.5,876C 1162.92,882.214 1150.09,891.047 1139,902.5C 1133.67,910.163 1129.67,918.496 1127,927.5C 1122.44,949.196 1117.77,970.862 1113,992.5C 1108.58,1032.88 1118.58,1069.21 1143,1101.5C 1145,1103.5 1147,1105.5 1149,1107.5C 1150.08,1110.24 1149.25,1111.9 1146.5,1112.5C 1128.42,1097.9 1114.59,1079.9 1105,1058.5C 1101.1,1048.35 1099.27,1037.85 1099.5,1027C 1100.49,1000.23 1103.66,973.725 1109,947.5C 1115.78,924.762 1126.78,904.429 1142,886.5C 1152.28,876.454 1164.11,869.121 1177.5,864.5 Z"/></g>
<g><path style="opacity:1" fill="#030201" d="M 477.5,939.5 C 480.187,939.336 482.854,939.503 485.5,940C 512.068,954.117 539.068,967.451 566.5,980C 581.273,985.925 596.273,991.258 611.5,996C 620.997,999.61 630.331,1003.61 639.5,1008C 658.519,1018.51 677.853,1028.51 697.5,1038C 711.683,1047.93 726.683,1056.6 742.5,1064C 747.798,1066.49 748.798,1070.15 745.5,1075C 743.956,1076.19 742.289,1076.52 740.5,1076C 723.058,1065.95 705.058,1056.95 686.5,1049C 673.433,1040.27 660.099,1031.94 646.5,1024C 630.055,1017.94 613.722,1011.61 597.5,1005C 580.833,996.667 564.167,988.333 547.5,980C 523.43,971.298 500.097,960.964 477.5,949C 474.914,945.839 474.914,942.672 477.5,939.5 Z"/></g>
<g><path style="opacity:1" fill="#853719" d="M 1828.5,771.5 C 1831.82,779.767 1829.82,786.933 1822.5,793C 1805.49,803.174 1788.16,812.84 1770.5,822C 1742.63,840.106 1713.63,856.44 1683.5,871C 1662.49,885.512 1640.49,898.512 1617.5,910C 1581.51,923.777 1546.17,939.11 1511.5,956C 1499.75,960.471 1488.09,965.138 1476.5,970C 1450.32,983.256 1423.99,996.256 1397.5,1009C 1363.07,1018.37 1329.74,1030.7 1297.5,1046C 1281.35,1054.57 1265.02,1062.91 1248.5,1071C 1239.33,1079.17 1229.33,1086.17 1218.5,1092C 1209.77,1095.21 1201.1,1095.21 1192.5,1092C 1189.98,1089.65 1187.65,1087.15 1185.5,1084.5C 1186.31,1083.19 1187.31,1082.02 1188.5,1081C 1207.16,1069.44 1226.82,1059.77 1247.5,1052C 1272.73,1044.03 1298.06,1036.36 1323.5,1029C 1351.36,1016.82 1379.69,1005.82 1408.5,996C 1426.5,987.333 1444.5,978.667 1462.5,970C 1488.51,960.497 1514.17,950.163 1539.5,939C 1560.63,927.601 1581.63,915.935 1602.5,904C 1626.08,894.919 1649.41,885.252 1672.5,875C 1715.68,849.241 1759.34,824.241 1803.5,800C 1810.88,795.627 1817.38,790.127 1823,783.5C 1825.66,779.856 1827.49,775.856 1828.5,771.5 Z"/></g>
<g><path style="opacity:1" fill="#f8d3c7" d="M 1886.5,956.5 C 1896.01,961.502 1900.34,969.502 1899.5,980.5C 1864.99,990.839 1831.49,1003.84 1799,1019.5C 1797.17,1025.67 1799.33,1027.83 1805.5,1026C 1834.19,1013.49 1863.52,1002.66 1893.5,993.5C 1892.31,1001.31 1892.31,1009.31 1893.5,1017.5C 1884.01,1020.5 1874.68,1024 1865.5,1028C 1835.3,1042.93 1804.3,1055.93 1772.5,1067C 1770.5,1068 1768.5,1069 1766.5,1070C 1764.74,1073.47 1765.74,1075.63 1769.5,1076.5C 1771.87,1076.16 1774.2,1075.66 1776.5,1075C 1815.59,1059.14 1854.93,1043.97 1894.5,1029.5C 1894.31,1031.56 1893.81,1033.56 1893,1035.5C 1890.08,1039.67 1887.42,1044 1885,1048.5C 1884.5,1050.81 1884.34,1053.14 1884.5,1055.5C 1877.57,1056.79 1870.9,1058.96 1864.5,1062C 1844.88,1070.43 1825.54,1079.43 1806.5,1089C 1781.82,1098.17 1757.49,1108.17 1733.5,1119C 1730.33,1123.46 1731.16,1126.96 1736,1129.5C 1741.09,1127.47 1746.26,1125.64 1751.5,1124C 1773.95,1113.61 1796.29,1102.94 1818.5,1092C 1834.58,1085.86 1850.58,1079.53 1866.5,1073C 1871.71,1070.98 1877.05,1069.48 1882.5,1068.5C 1881.49,1076.54 1880.16,1084.54 1878.5,1092.5C 1846.78,1104.68 1815.28,1117.35 1784,1130.5C 1782.7,1134.18 1783.7,1136.84 1787,1138.5C 1818.68,1126.83 1850.35,1115.16 1882,1103.5C 1883.5,1107.04 1883.84,1110.71 1883,1114.5C 1881.19,1118.8 1878.85,1122.8 1876,1126.5C 1853.31,1147.77 1827.81,1164.93 1799.5,1178C 1776.83,1185.83 1754.5,1194.5 1732.5,1204C 1708.18,1216.16 1684.18,1228.82 1660.5,1242C 1642.31,1250.29 1623.81,1257.79 1605,1264.5C 1597.91,1259.36 1591.08,1253.86 1584.5,1248C 1590.15,1244.75 1590.82,1240.75 1586.5,1236C 1584.17,1235.33 1581.83,1235.33 1579.5,1236C 1544.18,1245.16 1510.51,1258.49 1478.5,1276C 1450.41,1287.72 1421.74,1297.72 1392.5,1306C 1383.17,1309.33 1373.83,1312.67 1364.5,1316C 1359.3,1318.14 1358.3,1321.47 1361.5,1326C 1363.83,1326.67 1366.17,1326.67 1368.5,1326C 1379.73,1321.87 1391.07,1318.03 1402.5,1314.5C 1405.76,1316.73 1409.1,1318.9 1412.5,1321C 1419.94,1323.56 1427.28,1326.39 1434.5,1329.5C 1435.83,1330.17 1435.83,1330.83 1434.5,1331.5C 1418.39,1338.55 1402.06,1345.05 1385.5,1351C 1353.49,1367.79 1320.49,1382.45 1286.5,1395C 1257.49,1411.67 1227.16,1425.34 1195.5,1436C 1180.52,1439.33 1165.85,1443.66 1151.5,1449C 1145.66,1452.42 1140,1456.08 1134.5,1460C 1126.06,1462.2 1117.73,1461.87 1109.5,1459C 1086.95,1447.45 1070.11,1430.28 1059,1407.5C 1053.31,1390.53 1051.97,1373.2 1055,1355.5C 1058.99,1331.85 1065.33,1308.85 1074,1286.5C 1078.2,1273.58 1085.7,1263.08 1096.5,1255C 1108.27,1249.21 1120.61,1247.88 1133.5,1251C 1142.09,1253.31 1150.76,1255.31 1159.5,1257C 1169.64,1258.08 1179.64,1257.42 1189.5,1255C 1197.29,1251.61 1204.95,1247.94 1212.5,1244C 1254.58,1218.29 1298.58,1196.29 1344.5,1178C 1360.53,1170.32 1376.53,1162.65 1392.5,1155C 1415.24,1146.86 1437.91,1138.53 1460.5,1130C 1481.41,1125.22 1502.07,1119.55 1522.5,1113C 1543.52,1104.21 1564.86,1096.21 1586.5,1089C 1612.83,1075.33 1639.17,1061.67 1665.5,1048C 1716.02,1030.24 1765.02,1008.91 1812.5,984C 1837.79,976.174 1862.46,967.007 1886.5,956.5 Z"/></g>
<g><path style="opacity:1" fill="#030201" d="M 1718.5,976.5 C 1726.02,976.887 1728.52,980.554 1726,987.5C 1710.39,995.385 1694.56,1002.89 1678.5,1010C 1661.01,1016.27 1643.68,1022.94 1626.5,1030C 1581.46,1054.19 1534.79,1074.52 1486.5,1091C 1467.83,1100 1449.17,1109 1430.5,1118C 1400.2,1128.1 1370.53,1139.77 1341.5,1153C 1295.54,1167.15 1250.54,1183.82 1206.5,1203C 1203.83,1203.67 1201.17,1203.67 1198.5,1203C 1195.26,1197.85 1196.59,1194.18 1202.5,1192C 1229.01,1181.27 1256.01,1171.94 1283.5,1164C 1297.37,1158.05 1311.04,1151.71 1324.5,1145C 1346.09,1136.8 1367.76,1128.8 1389.5,1121C 1399.87,1115.99 1410.2,1110.99 1420.5,1106C 1443.38,1098.93 1466.05,1091.26 1488.5,1083C 1512.92,1070.46 1537.59,1058.46 1562.5,1047C 1582.35,1039.27 1602.35,1031.94 1622.5,1025C 1653.88,1007.48 1685.88,991.312 1718.5,976.5 Z"/></g>
<g><path style="opacity:1" fill="#201b19" d="M 1910.5,986.5 C 1908.71,991.045 1907.21,995.712 1906,1000.5C 1905.67,1010.5 1905.33,1020.5 1905,1030.5C 1903.59,1037.33 1900.59,1043.33 1896,1048.5C 1895.32,1050.6 1895.49,1052.6 1896.5,1054.5C 1895.79,1055.4 1894.79,1055.74 1893.5,1055.5C 1893.34,1053.47 1893.5,1051.47 1894,1049.5C 1897.87,1044.29 1900.87,1038.63 1903,1032.5C 1903.33,1021.5 1903.67,1010.5 1904,999.5C 1905.6,995.539 1907.1,991.539 1908.5,987.5C 1908.96,986.702 1909.62,986.369 1910.5,986.5 Z"/></g>
<g><path style="opacity:1" fill="#060504" d="M 1738.5,1058.5 C 1743.6,1057.61 1746.94,1059.61 1748.5,1064.5C 1747.19,1069.68 1743.86,1072.84 1738.5,1074C 1703.13,1089.57 1667.13,1103.57 1630.5,1116C 1614.32,1124.26 1597.99,1132.26 1581.5,1140C 1577.98,1141.73 1574.32,1142.4 1570.5,1142C 1566.86,1135.95 1568.53,1131.95 1575.5,1130C 1609.45,1117.46 1642.45,1102.79 1674.5,1086C 1696.04,1077.06 1717.37,1067.89 1738.5,1058.5 Z"/></g>
<g><path style="opacity:1" fill="#75634a" d="M 1895.5,1068.5 C 1908.73,1072.19 1921.4,1077.36 1933.5,1084C 1946.33,1092.58 1959.33,1100.92 1972.5,1109C 1984.98,1118.77 1989.82,1131.6 1987,1147.5C 1981.44,1161.06 1972.27,1171.56 1959.5,1179C 1929.61,1192.61 1900.28,1207.28 1871.5,1223C 1846.28,1231.74 1821.28,1241.07 1796.5,1251C 1773.07,1261.55 1750.07,1272.88 1727.5,1285C 1703.22,1294.76 1678.55,1303.09 1653.5,1310C 1645.53,1303.03 1637.86,1295.7 1630.5,1288C 1633.89,1287.2 1637.23,1286.2 1640.5,1285C 1664.5,1272.67 1688.5,1260.33 1712.5,1248C 1723.45,1242.86 1734.78,1238.86 1746.5,1236C 1762.05,1228.73 1777.72,1221.73 1793.5,1215C 1798.4,1211.73 1798.74,1208.06 1794.5,1204C 1792.3,1202.63 1789.97,1202.29 1787.5,1203C 1771.58,1210.19 1755.58,1217.19 1739.5,1224C 1730.15,1230.68 1720.15,1236.35 1709.5,1241C 1681.9,1251.96 1654.9,1264.3 1628.5,1278C 1627.28,1279.65 1626.45,1281.48 1626,1283.5C 1622.47,1279.63 1618.63,1276.13 1614.5,1273C 1633.8,1263.02 1653.14,1253.02 1672.5,1243C 1720.84,1224.66 1767.84,1203.33 1813.5,1179C 1832.13,1172.58 1849.79,1164.24 1866.5,1154C 1883.07,1142.2 1892.74,1126.2 1895.5,1106C 1894.64,1100.19 1893.97,1094.36 1893.5,1088.5C 1894.49,1081.87 1895.16,1075.2 1895.5,1068.5 Z"/></g>
<g><path style="opacity:1" fill="#030201" d="M 1937.5,1116.5 C 1943.66,1115.83 1946.16,1118.5 1945,1124.5C 1935.91,1130.63 1926.41,1136.13 1916.5,1141C 1893.62,1156.95 1869.29,1170.61 1843.5,1182C 1835.5,1186.67 1827.5,1191.33 1819.5,1196C 1813.67,1196.83 1811.17,1194.33 1812,1188.5C 1812.93,1186.45 1814.43,1184.95 1816.5,1184C 1840.83,1170.67 1865.83,1158.67 1891.5,1148C 1906.74,1137.25 1922.07,1126.75 1937.5,1116.5 Z"/></g>
<g><path style="opacity:1" fill="#883718" d="M 858.5,1138.5 C 861.016,1138.76 863.35,1139.59 865.5,1141C 881.666,1151.25 898,1161.25 914.5,1171C 880.316,1198.5 855.816,1233 841,1274.5C 837.971,1284.98 835.971,1295.65 835,1306.5C 833.99,1328.84 832.823,1351.17 831.5,1373.5C 831.888,1385.08 833.388,1396.42 836,1407.5C 827.006,1403.61 817.84,1400.11 808.5,1397C 806.185,1395.89 804.685,1394.06 804,1391.5C 794.202,1363.18 787.202,1334.18 783,1304.5C 782.754,1275.05 786.421,1246.05 794,1217.5C 799.209,1198.41 808.542,1181.74 822,1167.5C 828.167,1161.33 834.333,1155.17 840.5,1149C 846.399,1145.22 852.399,1141.72 858.5,1138.5 Z"/></g>
<g><path style="opacity:1" fill="#050404" d="M 1621.5,1140.5 C 1627.66,1139.83 1630.16,1142.5 1629,1148.5C 1579.19,1171.31 1528.36,1191.81 1476.5,1210C 1458.58,1220.04 1440.08,1228.88 1421,1236.5C 1415.27,1233.13 1415.1,1229.3 1420.5,1225C 1454.59,1211.75 1487.92,1196.75 1520.5,1180C 1554.7,1167.88 1588.37,1154.72 1621.5,1140.5 Z"/></g>
<g><path style="opacity:1" fill="#020201" d="M 1092.5,1202.5 C 1101.64,1202.12 1110.31,1203.95 1118.5,1208C 1122.89,1213 1121.89,1216.5 1115.5,1218.5C 1090.82,1210 1070.32,1216 1054,1236.5C 1044.42,1250.91 1037.75,1266.58 1034,1283.5C 1030.45,1304.13 1027.12,1324.8 1024,1345.5C 1022.71,1376.04 1020.88,1406.54 1018.5,1437C 1016.14,1461.29 1023.98,1481.45 1042,1497.5C 1042.72,1501.46 1041.05,1503.79 1037,1504.5C 1034.08,1504.2 1031.74,1502.87 1030,1500.5C 1020.5,1487.33 1014.5,1472.67 1012,1456.5C 1008.1,1434.66 1006.44,1412.66 1007,1390.5C 1011.2,1365.99 1013.86,1341.32 1015,1316.5C 1016.47,1301.28 1020.14,1286.62 1026,1272.5C 1033.89,1255.72 1042.55,1239.39 1052,1223.5C 1063.17,1211.83 1076.67,1204.83 1092.5,1202.5 Z"/></g>
<g><path style="opacity:1" fill="#f2c78e" d="M 1568.5,1252.5 C 1569.87,1252.34 1571.21,1252.51 1572.5,1253C 1608.06,1281.89 1643.06,1311.55 1677.5,1342C 1702.18,1359.88 1725.18,1379.88 1746.5,1402C 1755.83,1409.33 1765.17,1416.67 1774.5,1424C 1767.73,1428.2 1760.4,1431.2 1752.5,1433C 1740.03,1436.41 1727.36,1438.75 1714.5,1440C 1707.74,1443.09 1703.58,1448.26 1702,1455.5C 1701.09,1459.28 1700.59,1463.11 1700.5,1467C 1702.52,1486.12 1703.85,1505.29 1704.5,1524.5C 1701.68,1524.75 1699.01,1524.25 1696.5,1523C 1692.83,1520 1689.17,1517 1685.5,1514C 1683.19,1513.24 1681.19,1513.74 1679.5,1515.5C 1668.47,1509.32 1658.14,1502.15 1648.5,1494C 1624.13,1467.95 1597.13,1445.28 1567.5,1426C 1547.08,1408.24 1526.08,1391.24 1504.5,1375C 1494.94,1366.35 1486.44,1356.85 1479,1346.5C 1468.64,1336.74 1457.14,1328.57 1444.5,1322C 1436.82,1318.5 1429.16,1315 1421.5,1311.5C 1440.59,1302.52 1459.92,1294.02 1479.5,1286C 1488.58,1280.6 1497.92,1275.6 1507.5,1271C 1528.08,1265.28 1548.41,1259.11 1568.5,1252.5 Z"/></g>
<g><path style="opacity:1" fill="#060504" d="M 1370.5,1261.5 C 1375.99,1260.18 1378.49,1262.18 1378,1267.5C 1365.54,1273.44 1352.7,1278.6 1339.5,1283C 1309.43,1298.03 1278.1,1309.7 1245.5,1318C 1213.14,1331.12 1180.14,1342.45 1146.5,1352C 1123.06,1361.26 1099.4,1369.92 1075.5,1378C 1069.17,1378.67 1066.67,1375.83 1068,1369.5C 1094.43,1359.69 1121.26,1350.86 1148.5,1343C 1177.87,1329.1 1208.2,1317.76 1239.5,1309C 1271.18,1295.88 1303.51,1284.55 1336.5,1275C 1347.81,1270.18 1359.15,1265.68 1370.5,1261.5 Z"/></g>
<g><path style="opacity:1" fill="#060504" d="M 1130.5,1308.5 C 1136.99,1307.63 1139.49,1310.3 1138,1316.5C 1121.06,1325.38 1103.9,1333.88 1086.5,1342C 1082.45,1344.07 1078.62,1343.91 1075,1341.5C 1073.46,1336.88 1074.96,1333.71 1079.5,1332C 1097.07,1325.21 1114.07,1317.38 1130.5,1308.5 Z"/></g>
<g><path style="opacity:1" fill="#080706" d="M 1178.5,1369.5 C 1185,1369.14 1186.67,1371.64 1183.5,1377C 1147.23,1390.76 1110.73,1403.92 1074,1416.5C 1070.01,1415.17 1068.67,1412.5 1070,1408.5C 1070.5,1406.67 1071.67,1405.5 1073.5,1405C 1109.11,1394.63 1144.11,1382.8 1178.5,1369.5 Z"/></g>
<g><path style="opacity:1" fill="#060504" d="M 1248.5,1371.5 C 1255.56,1370.73 1258.06,1373.73 1256,1380.5C 1227.86,1391.33 1199.36,1401.16 1170.5,1410C 1149.4,1419.55 1128.06,1428.55 1106.5,1437C 1101.18,1437.34 1099.01,1434.84 1100,1429.5C 1101.17,1428.33 1102.33,1427.17 1103.5,1426C 1152.13,1408.34 1200.46,1390.17 1248.5,1371.5 Z"/></g>
<g><path style="opacity:1" fill="#070606" d="M 1227.5,1401.5 C 1235.06,1400.86 1237.06,1403.69 1233.5,1410C 1203.42,1420.8 1173.42,1431.8 1143.5,1443C 1135.81,1444.65 1132.98,1441.81 1135,1434.5C 1137.09,1433.21 1139.25,1432.04 1141.5,1431C 1170.56,1421.95 1199.23,1412.12 1227.5,1401.5 Z"/></g>
<g><path style="opacity:1" fill="#030201" d="M 1041.5,1436.5 C 1044.65,1435.96 1047.15,1436.96 1049,1439.5C 1052.83,1465.71 1067,1483.55 1091.5,1493C 1098.02,1495.21 1104.68,1495.88 1111.5,1495C 1118.15,1493.23 1124.65,1491.06 1131,1488.5C 1134.82,1489.46 1135.98,1491.8 1134.5,1495.5C 1113.1,1506.23 1091.77,1506.06 1070.5,1495C 1051.31,1481.47 1040.81,1462.97 1039,1439.5C 1040.04,1438.63 1040.88,1437.63 1041.5,1436.5 Z"/></g>
<g><path style="opacity:1" fill="#2b2113" d="M 1777.5,1433.5 C 1760.99,1440 1743.99,1445.34 1726.5,1449.5C 1743.17,1443.39 1760.17,1438.06 1777.5,1433.5 Z"/></g>
</svg>
