<?xml version="1.0" encoding="UTF-8"?>
<!DOCTYPE svg PUBLIC "-//W3C//DTD SVG 1.1//EN" "http://www.w3.org/Graphics/SVG/1.1/DTD/svg11.dtd">
<svg xmlns="http://www.w3.org/2000/svg" version="1.1" width="2000px" height="2000px" style="shape-rendering:geometricPrecision; text-rendering:geometricPrecision; image-rendering:optimizeQuality; fill-rule:evenodd; clip-rule:evenodd" xmlns:xlink="http://www.w3.org/1999/xlink">
<g><path style="opacity:1" fill="#95756f" d="M 1389.5,961.5 C 1390.4,962.158 1391.4,962.824 1392.5,963.5C 1416.88,964.44 1441.22,964.44 1465.5,963.5C 1469.51,963.39 1473.34,964.056 1477,965.5C 1477.49,964.207 1477.66,962.873 1477.5,961.5C 1480.42,963.639 1483.42,963.805 1486.5,962C 1490.83,961.833 1495.17,961.667 1499.5,961.5C 1528.85,960.744 1558.18,960.744 1587.5,961.5C 1587.61,963.379 1587.11,963.712 1586,962.5C 1584.93,963.191 1583.77,963.691 1582.5,964C 1594.75,964.992 1606.92,964.492 1619,962.5C 1676.8,963.661 1734.64,963.827 1792.5,963C 1794.04,961.813 1795.71,961.48 1797.5,962C 1797.17,962.333 1796.83,962.667 1796.5,963C 1804.18,964.448 1811.85,964.615 1819.5,963.5C 1826.14,964.83 1832.8,964.83 1839.5,963.5C 1840.7,963.846 1840.7,964.346 1839.5,965C 1850.96,966.081 1862.46,966.581 1874,966.5C 1902.17,965.773 1930.34,964.939 1958.5,964C 1944.99,963.831 1931.66,963.331 1918.5,962.5C 1935.19,961.064 1951.86,961.23 1968.5,963C 1973.19,963.654 1976.19,966.154 1977.5,970.5C 1977.47,972.029 1976.8,973.196 1975.5,974C 1968.34,974.965 1961.34,976.299 1954.5,978C 1957.42,980.045 1960.26,982.212 1963,984.5C 1964.08,988.797 1965.08,993.13 1966,997.5C 1968.82,998.818 1971.32,1000.48 1973.5,1002.5C 1975.91,1004.89 1978.58,1007.05 1981.5,1009C 1983,1009.51 1984.16,1009.01 1985,1007.5C 1986.58,1009.62 1986.75,1011.79 1985.5,1014C 1982.83,1014.57 1980.17,1015.07 1977.5,1015.5C 1977.56,1017.59 1978.56,1019.09 1980.5,1020C 1979.94,1020.38 1979.61,1020.88 1979.5,1021.5C 1977.77,1022.03 1976.44,1023.03 1975.5,1024.5C 1977.56,1025.2 1980.23,1026.04 1983.5,1027C 1980.91,1027.89 1978.91,1029.39 1977.5,1031.5C 1975.97,1032.31 1974.31,1032.98 1972.5,1033.5C 1973.12,1031.66 1974.46,1030.5 1976.5,1030C 1958.11,1030.8 1939.77,1032.3 1921.5,1034.5C 1917.62,1034.06 1913.95,1033.06 1910.5,1031.5C 1909.91,1032.23 1909.91,1033.23 1910.5,1034.5C 1909.85,1034.2 1909.18,1033.86 1908.5,1033.5C 1904.98,1035.23 1901.31,1036.56 1897.5,1037.5C 1893.62,1036.57 1889.79,1035.57 1886,1034.5C 1881.71,1035.12 1877.54,1036.12 1873.5,1037.5C 1873.2,1036.85 1872.86,1036.18 1872.5,1035.5C 1861.82,1034.08 1850.82,1033.08 1839.5,1032.5C 1828.49,1033.54 1817.49,1033.54 1806.5,1032.5C 1804.83,1032.67 1803.17,1032.83 1801.5,1033C 1802.76,1033.42 1803.42,1034.25 1803.5,1035.5C 1794,1037.23 1784.34,1037.23 1774.5,1035.5C 1766.83,1036.73 1759.16,1036.73 1751.5,1035.5C 1736.1,1038.3 1720.77,1037.96 1705.5,1034.5C 1702.65,1034.56 1699.98,1035.23 1697.5,1036.5C 1697.12,1035.02 1697.12,1033.68 1697.5,1032.5C 1696.5,1033.17 1695.5,1033.83 1694.5,1034.5C 1679.2,1033.07 1663.87,1031.74 1648.5,1030.5C 1646.06,1031.11 1643.72,1031.11 1641.5,1030.5C 1640.3,1030.85 1640.3,1031.35 1641.5,1032C 1638.11,1032.75 1634.77,1032.59 1631.5,1031.5C 1631.17,1031.67 1630.83,1031.83 1630.5,1032C 1631.57,1032.85 1632.57,1033.69 1633.5,1034.5C 1627.55,1034.25 1621.72,1034.25 1616,1034.5C 1614.85,1033.26 1613.51,1032.26 1612,1031.5C 1609.41,1033.2 1606.58,1034.2 1603.5,1034.5C 1603.58,1033.25 1604.24,1032.42 1605.5,1032C 1600.9,1030.68 1596.24,1029.68 1591.5,1029C 1577.44,1028.07 1563.44,1028.41 1549.5,1030C 1551.06,1030.21 1552.39,1030.71 1553.5,1031.5C 1548.32,1032.75 1543.15,1034.09 1538,1035.5C 1536.41,1034.62 1534.91,1033.62 1533.5,1032.5C 1531.31,1035.04 1528.64,1036.71 1525.5,1037.5C 1520.91,1035.97 1516.24,1034.64 1511.5,1033.5C 1506.87,1035.53 1502.03,1036.86 1497,1037.5C 1459.56,1037.28 1422.23,1037.28 1385,1037.5C 1378.75,1037.16 1372.58,1036.49 1366.5,1035.5C 1366.92,1034.78 1367.58,1034.28 1368.5,1034C 1366.61,1033.03 1364.61,1032.36 1362.5,1032C 1344.8,1031.68 1327.13,1031.51 1309.5,1031.5C 1305.76,1031.85 1302.1,1032.51 1298.5,1033.5C 1295.72,1032.91 1293.39,1031.58 1291.5,1029.5C 1290.29,1030.58 1289.63,1031.91 1289.5,1033.5C 1287.42,1034.62 1285.25,1035.62 1283,1036.5C 1278.74,1035.18 1274.4,1034.18 1270,1033.5C 1262.79,1035.88 1255.63,1035.88 1248.5,1033.5C 1242.88,1036.44 1237.55,1036.11 1232.5,1032.5C 1231.13,1033.71 1229.63,1034.71 1228,1035.5C 1224.6,1034.27 1221.1,1033.61 1217.5,1033.5C 1218.29,1032.21 1219.29,1031.04 1220.5,1030C 1217.24,1029.79 1214.08,1029.29 1211,1028.5C 1208.98,1030.68 1206.48,1031.68 1203.5,1031.5C 1197.32,1031.08 1191.32,1030.08 1185.5,1028.5C 1170.89,1030.44 1156.22,1030.94 1141.5,1030C 1139.85,1028.37 1138.18,1028.54 1136.5,1030.5C 1135.83,1030.33 1135.17,1030.17 1134.5,1030C 1135.7,1029.35 1135.7,1028.85 1134.5,1028.5C 1133.39,1029.61 1132.06,1030.28 1130.5,1030.5C 1127.83,1029.5 1125.17,1028.5 1122.5,1027.5C 1116.27,1028.14 1110.11,1029.14 1104,1030.5C 1101.23,1030.19 1098.73,1029.19 1096.5,1027.5C 1095.21,1027.85 1094.38,1028.52 1094,1029.5C 1092.78,1028.61 1091.45,1027.95 1090,1027.5C 1061.52,1028.97 1033.02,1029.31 1004.5,1028.5C 997.102,1028.51 989.768,1029.17 982.5,1030.5C 980.726,1030.11 979.059,1029.45 977.5,1028.5C 976.575,1029.36 975.908,1030.36 975.5,1031.5C 974.292,1030.77 972.959,1030.43 971.5,1030.5C 973.137,1028.88 972.803,1027.88 970.5,1027.5C 969.328,1027.92 968.328,1028.59 967.5,1029.5C 966.808,1028.97 966.308,1028.31 966,1027.5C 964.426,1028.85 962.593,1029.51 960.5,1029.5C 957.685,1029.02 954.852,1028.68 952,1028.5C 939.753,1030.62 927.42,1030.95 915,1029.5C 873.428,1030.16 831.928,1032.16 790.5,1035.5C 784.148,1035.14 777.814,1034.97 771.5,1035C 772.696,1035.65 772.696,1036.15 771.5,1036.5C 767.524,1035.65 763.524,1035.82 759.5,1037C 760.056,1037.38 760.389,1037.88 760.5,1038.5C 759.5,1038.5 758.5,1038.5 757.5,1038.5C 756.391,1037.71 755.058,1037.21 753.5,1037C 756.937,1036.35 757.104,1035.85 754,1035.5C 744.887,1039.2 735.553,1040.2 726,1038.5C 725.536,1039.09 725.369,1039.76 725.5,1040.5C 724.883,1040.39 724.383,1040.06 724,1039.5C 722.687,1040.57 721.187,1041.24 719.5,1041.5C 716.65,1039.97 713.65,1038.97 710.5,1038.5C 706.323,1039.1 702.157,1039.77 698,1040.5C 691.498,1039.19 684.998,1039.19 678.5,1040.5C 672.798,1039.61 667.131,1038.61 661.5,1037.5C 657.552,1038.96 653.552,1040.29 649.5,1041.5C 647.736,1039.72 645.736,1038.39 643.5,1037.5C 643.53,1036.5 643.03,1035.84 642,1035.5C 640.775,1035.86 639.609,1036.36 638.5,1037C 632.449,1037.21 626.449,1037.71 620.5,1038.5C 608.203,1037.51 595.87,1037.51 583.5,1038.5C 582.833,1038.5 582.167,1038.5 581.5,1038.5C 582.609,1037.71 583.942,1037.21 585.5,1037C 585.167,1036.67 584.833,1036.33 584.5,1036C 569.965,1035.72 555.465,1034.88 541,1033.5C 539.564,1033.56 538.231,1033.89 537,1034.5C 533.085,1033.59 529.085,1032.93 525,1032.5C 516.885,1033.83 508.719,1034.66 500.5,1035C 502.343,1035.16 503.009,1035.66 502.5,1036.5C 496.447,1035.47 490.614,1035.8 485,1037.5C 479.534,1035.15 474.034,1035.15 468.5,1037.5C 465.209,1037.72 462.709,1036.39 461,1033.5C 460.044,1034.58 459.211,1035.75 458.5,1037C 454.49,1037.36 450.49,1037.19 446.5,1036.5C 446.082,1035.78 445.416,1035.28 444.5,1035C 445.833,1034.67 447.167,1034.33 448.5,1034C 420.794,1034.25 393.127,1033.42 365.5,1031.5C 365.213,1032.2 364.88,1032.87 364.5,1033.5C 362.784,1033.37 361.117,1033.04 359.5,1032.5C 359.209,1031.35 358.376,1030.68 357,1030.5C 341.501,1031.87 326.001,1032.37 310.5,1032C 311.5,1032.33 312.5,1032.67 313.5,1033C 312.906,1033.46 312.239,1033.63 311.5,1033.5C 302.5,1033.5 293.5,1033.5 284.5,1033.5C 284.082,1032.78 283.416,1032.28 282.5,1032C 286.833,1031.67 291.167,1031.33 295.5,1031C 272.833,1030.67 250.167,1030.33 227.5,1030C 222.19,1028.76 216.857,1028.1 211.5,1028C 212.5,1028.33 213.5,1028.67 214.5,1029C 213.263,1029.23 212.263,1029.73 211.5,1030.5C 200.885,1029.55 190.218,1029.21 179.5,1029.5C 178.398,1027.91 179.065,1027.07 181.5,1027C 136.63,1024.78 91.9638,1020.45 47.5,1014C 36.3987,1010.8 25.3987,1007.47 14.5,1004C 10.3077,1002.3 7.30768,999.471 5.5,995.5C 5.32065,988.252 6.48732,981.252 9,974.5C 10,973.5 11,972.5 12,971.5C 14.609,973.108 15.9423,975.441 16,978.5C 17.3297,979.582 18.8297,980.249 20.5,980.5C 21.6016,982.092 20.935,982.925 18.5,983C 26.7692,984.703 35.1025,985.87 43.5,986.5C 45.0478,987.794 47.0478,988.461 49.5,988.5C 51.7588,988.468 53.9255,988.134 56,987.5C 66.3829,989.374 76.8829,989.874 87.5,989C 86.1859,988.015 85.1859,986.848 84.5,985.5C 82.5,984.167 80.5,984.167 78.5,985.5C 77.5,985.5 76.5,985.5 75.5,985.5C 73.0314,984.933 70.698,984.933 68.5,985.5C 68.5,984.833 68.5,984.167 68.5,983.5C 74.3027,984.087 79.8027,983.42 85,981.5C 87.3333,982.5 89,984.167 90,986.5C 91.0946,985.307 91.928,983.973 92.5,982.5C 93.8734,982.343 95.2068,982.51 96.5,983C 95.2625,983.232 94.2625,983.732 93.5,984.5C 92.2264,985.189 92.2264,986.023 93.5,987C 96.9236,987.747 100.257,987.58 103.5,986.5C 104.568,987.434 105.901,987.768 107.5,987.5C 109.865,988.289 112.199,987.956 114.5,986.5C 120.624,985.65 126.124,986.984 131,990.5C 132.967,989.507 134.134,987.84 134.5,985.5C 126.46,983.664 118.46,982.498 110.5,982C 108.771,980.211 108.104,978.044 108.5,975.5C 118.576,976.947 128.576,976.447 138.5,974C 164.167,973.167 189.833,972.333 215.5,971.5C 221.782,971.311 227.949,971.977 234,973.5C 241.588,970.991 249.422,969.824 257.5,970C 280.848,969.241 304.182,969.408 327.5,970.5C 328.952,971.302 330.618,971.802 332.5,972C 330.167,972.333 327.833,972.667 325.5,973C 330.301,974.918 335.134,974.752 340,972.5C 343.669,973.972 347.169,973.639 350.5,971.5C 354.776,973.038 358.61,972.371 362,969.5C 363.983,969.954 366.316,970.287 369,970.5C 371.156,970.245 373.156,969.578 375,968.5C 381.129,969.273 387.296,969.773 393.5,970C 395.833,972 398.167,972 400.5,970C 403.833,969.333 407.167,969.333 410.5,970C 407.447,970.179 404.447,970.679 401.5,971.5C 402.167,971.833 402.833,972.167 403.5,972.5C 407.138,971.818 410.805,971.318 414.5,971C 413.619,970.292 412.953,969.458 412.5,968.5C 434.841,968.217 457.174,967.884 479.5,967.5C 508.624,968.238 537.624,968.905 566.5,969.5C 566.918,970.222 567.584,970.722 568.5,971C 553.831,971.452 539.164,971.286 524.5,970.5C 518.666,970.353 512.999,970.853 507.5,972C 545.848,972.203 584.182,973.036 622.5,974.5C 626.372,974.449 630.205,974.115 634,973.5C 637.423,975.795 640.923,977.961 644.5,980C 645.738,980.69 645.738,981.19 644.5,981.5C 643.5,981.5 642.5,981.5 641.5,981.5C 640.5,981.5 639.5,981.5 638.5,981.5C 638.5,983.5 638.5,985.5 638.5,987.5C 640.429,987.231 642.095,987.731 643.5,989C 642.262,988.923 641.262,989.089 640.5,989.5C 652.159,991 663.826,991.334 675.5,990.5C 678.613,989.444 681.613,988.111 684.5,986.5C 689.5,989.729 694.833,992.396 700.5,994.5C 700.517,993.606 700.851,992.606 701.5,991.5C 706.509,990.269 706.843,988.102 702.5,985C 703.056,984.617 703.389,984.117 703.5,983.5C 704.167,983.5 704.833,983.5 705.5,983.5C 706.11,984.391 706.443,985.391 706.5,986.5C 706.36,988.124 707.027,989.29 708.5,990C 707.833,990.667 707.167,991.333 706.5,992C 709.879,991.555 713.212,991.388 716.5,991.5C 723.304,994.725 730.304,995.225 737.5,993C 748.346,992.303 759.18,992.47 770,993.5C 777.492,992.883 784.992,992.383 792.5,992C 793.025,991.308 793.692,990.808 794.5,990.5C 800.166,991.83 805.166,990.497 809.5,986.5C 810.852,987.518 811.852,988.851 812.5,990.5C 812.407,988.89 812.74,987.224 813.5,985.5C 814.507,986.828 815.84,987.828 817.5,988.5C 821.745,987.699 825.579,986.032 829,983.5C 833.228,984.549 837.395,984.216 841.5,982.5C 841.918,983.222 842.584,983.722 843.5,984C 842.833,984.333 842.167,984.667 841.5,985C 845.188,984.546 848.855,984.713 852.5,985.5C 856.422,990.506 860.755,991.172 865.5,987.5C 866.117,987.611 866.617,987.944 867,988.5C 868.33,984.993 870.83,983.327 874.5,983.5C 874.155,986.488 875.488,987.821 878.5,987.5C 881.187,987.462 881.854,986.462 880.5,984.5C 885.02,982.857 889.687,981.857 894.5,981.5C 895.038,983.117 895.371,984.784 895.5,986.5C 897.527,986.662 899.527,986.495 901.5,986C 897.148,985.581 896.815,984.914 900.5,984C 899.944,983.617 899.611,983.117 899.5,982.5C 900.167,982.5 900.5,982.167 900.5,981.5C 901.376,981.369 902.043,981.702 902.5,982.5C 901.494,983.396 901.494,984.062 902.5,984.5C 903.646,983.855 904.646,983.022 905.5,982C 906.5,981.333 907.5,981.333 908.5,982C 909.346,984.18 910.846,985.68 913,986.5C 915.323,984.848 917.656,983.181 920,981.5C 921.067,982.191 922.234,982.691 923.5,983C 946.166,984.338 968.833,984.504 991.5,983.5C 981.465,982.91 971.132,982.41 960.5,982C 967.575,982.133 974.242,981.3 980.5,979.5C 984.182,979.665 987.848,979.499 991.5,979C 993.748,977.086 996.248,975.586 999,974.5C 1003.38,974.692 1007.88,975.192 1012.5,976C 1015.14,977.549 1017.97,978.715 1021,979.5C 1022.47,979.097 1023.81,978.43 1025,977.5C 1027.47,978.777 1029.97,978.777 1032.5,977.5C 1031.22,975.854 1029.55,974.687 1027.5,974C 1023.36,973.759 1019.36,973.593 1015.5,973.5C 1019.57,972.807 1023.73,972.14 1028,971.5C 1037.53,971.229 1047.03,971.562 1056.5,972.5C 1054.44,973.776 1052.1,974.61 1049.5,975C 1050.1,977.071 1051.44,978.238 1053.5,978.5C 1053.92,979.222 1054.58,979.722 1055.5,980C 1053.58,980.36 1051.91,981.194 1050.5,982.5C 1047.18,981.062 1046.84,979.229 1049.5,977C 1049,976.5 1048.5,976 1048,975.5C 1046.99,976.337 1045.82,976.67 1044.5,976.5C 1044.5,977.833 1044.5,979.167 1044.5,980.5C 1041.14,980.93 1038.3,979.93 1036,977.5C 1035.96,979.76 1036.79,981.76 1038.5,983.5C 1042.3,982.395 1046.13,982.395 1050,983.5C 1058.74,980.869 1067.58,980.535 1076.5,982.5C 1080.29,982.396 1080.29,981.729 1076.5,980.5C 1076.86,979.817 1077.2,979.15 1077.5,978.5C 1079.59,976.89 1081.92,975.557 1084.5,974.5C 1084.41,975.496 1084.75,976.329 1085.5,977C 1084.83,977.333 1084.17,977.667 1083.5,978C 1093.88,978.922 1104.21,980.089 1114.5,981.5C 1118.96,981.429 1123.13,980.429 1127,978.5C 1130.45,978.87 1133.45,980.203 1136,982.5C 1138.14,981.794 1140.31,982.128 1142.5,983.5C 1146.1,981.641 1149.93,980.641 1154,980.5C 1158.61,981.677 1163.28,982.677 1168,983.5C 1170.36,983.496 1172.53,983.163 1174.5,982.5C 1176.17,982.5 1177.83,982.5 1179.5,982.5C 1179.92,983.222 1180.58,983.722 1181.5,984C 1194.5,984.667 1207.5,984.667 1220.5,984C 1231.09,979.019 1241.42,979.353 1251.5,985C 1253.83,985.667 1256.17,985.667 1258.5,985C 1259.85,984.228 1260.68,983.061 1261,981.5C 1261.53,977.141 1261.37,972.808 1260.5,968.5C 1258.28,968.275 1256.62,969.108 1255.5,971C 1256.5,971.333 1257.5,971.667 1258.5,972C 1257.58,972.278 1256.92,972.778 1256.5,973.5C 1246.33,973.641 1235.99,973.641 1225.5,973.5C 1225.61,972.883 1225.94,972.383 1226.5,972C 1212.12,971.729 1197.79,970.896 1183.5,969.5C 1179.83,969.667 1176.17,969.833 1172.5,970C 1172.83,970.333 1173.17,970.667 1173.5,971C 1170.97,971.852 1168.97,971.186 1167.5,969C 1163.5,968.333 1159.5,968.333 1155.5,969C 1157.17,969.333 1158.83,969.667 1160.5,970C 1157.52,970.097 1154.85,970.93 1152.5,972.5C 1152.33,971.178 1152.66,970.011 1153.5,969C 1152.5,968.833 1151.5,968.667 1150.5,968.5C 1130.46,969.694 1110.46,969.694 1090.5,968.5C 1087.83,968.5 1085.17,968.5 1082.5,968.5C 1056.29,968.011 1030.13,968.678 1004,970.5C 999.498,970.118 994.998,969.785 990.5,969.5C 976.535,967.68 962.202,966.847 947.5,967C 948.634,965.984 948.301,965.317 946.5,965C 947.167,964.833 947.833,964.667 948.5,964.5C 951.988,965.705 955.322,965.705 958.5,964.5C 960.41,965.094 962.41,965.427 964.5,965.5C 978.155,964.76 991.821,964.26 1005.5,964C 1006.17,963.667 1006.83,963.333 1007.5,963C 1006.58,962.722 1005.92,962.222 1005.5,961.5C 1009.3,960.285 1012.97,960.285 1016.5,961.5C 1015.26,961.81 1015.26,962.31 1016.5,963C 1025.44,964.548 1034.44,964.881 1043.5,964C 1043.83,963.667 1044.17,963.333 1044.5,963C 1043.58,962.722 1042.92,962.222 1042.5,961.5C 1050.69,959.227 1058.86,959.56 1067,962.5C 1073.34,961.164 1079.68,959.831 1086,958.5C 1089,958.481 1091.84,959.148 1094.5,960.5C 1096.17,959.833 1097.83,959.167 1099.5,958.5C 1102.01,959.799 1104.68,960.799 1107.5,961.5C 1113.54,958.287 1119.87,957.621 1126.5,959.5C 1139.12,957.724 1151.79,957.224 1164.5,958C 1167.61,959.779 1170.95,960.945 1174.5,961.5C 1187.98,961.143 1201.48,961.143 1215,961.5C 1219.68,960.915 1224.35,960.248 1229,959.5C 1244.15,960.294 1259.31,960.794 1274.5,961C 1279.58,961.426 1284.58,962.26 1289.5,963.5C 1291.86,962.323 1294.36,961.657 1297,961.5C 1301,962.167 1305,962.833 1309,963.5C 1313.36,962.069 1317.86,961.402 1322.5,961.5C 1344.85,961.618 1367.18,961.618 1389.5,961.5 Z M 1131.5,972.5 C 1131.8,973.15 1132.14,973.817 1132.5,974.5C 1126.34,975.541 1120.17,976.541 1114,977.5C 1109.84,976.974 1106.01,975.641 1102.5,973.5C 1096.54,974.414 1090.54,974.747 1084.5,974.5C 1081.92,975.557 1079.59,976.89 1077.5,978.5C 1072.75,978.483 1068.08,977.816 1063.5,976.5C 1060,977.011 1056.66,977.678 1053.5,978.5C 1051.44,978.238 1050.1,977.071 1049.5,975C 1052.1,974.61 1054.44,973.776 1056.5,972.5C 1063.03,972.314 1069.53,972.648 1076,973.5C 1085.41,971.719 1094.91,970.386 1104.5,969.5C 1107.23,969.295 1109.56,970.128 1111.5,972C 1118.16,972.5 1124.83,972.666 1131.5,972.5 Z M 959.5,972.5 C 969.701,974.039 980.034,974.372 990.5,973.5C 998.833,973.5 1007.17,973.5 1015.5,973.5C 1019.36,973.593 1023.36,973.759 1027.5,974C 1029.55,974.687 1031.22,975.854 1032.5,977.5C 1029.97,978.777 1027.47,978.777 1025,977.5C 1023.81,978.43 1022.47,979.097 1021,979.5C 1017.97,978.715 1015.14,977.549 1012.5,976C 1007.88,975.192 1003.38,974.692 999,974.5C 996.248,975.586 993.748,977.086 991.5,979C 987.848,979.499 984.182,979.665 980.5,979.5C 960.831,979.667 941.164,979.5 921.5,979C 916.868,977.921 917.201,976.421 922.5,974.5C 934.974,973.2 947.307,972.533 959.5,972.5 Z M 1039.5,972.5 C 1044.07,972.976 1044.57,974.642 1041,977.5C 1038.7,976.257 1038.2,974.591 1039.5,972.5 Z M 1149.5,972.5 C 1150.17,972.5 1150.83,972.5 1151.5,972.5C 1152.14,973.482 1152.81,974.482 1153.5,975.5C 1158.13,976.328 1162.8,976.828 1167.5,977C 1168.06,977.383 1168.39,977.883 1168.5,978.5C 1157.5,977.335 1146.5,977.168 1135.5,978C 1134.17,977.333 1134.17,976.667 1135.5,976C 1140.7,976.206 1145.36,975.039 1149.5,972.5 Z M 1225.5,973.5 C 1235.99,973.641 1246.33,973.641 1256.5,973.5C 1257.84,976.861 1256.84,979.527 1253.5,981.5C 1247.62,978.822 1241.46,977.156 1235,976.5C 1228.71,978.039 1222.38,979.373 1216,980.5C 1208.3,979.889 1200.46,979.556 1192.5,979.5C 1186.01,978.672 1179.35,978.172 1172.5,978C 1181.6,977.084 1190.6,975.751 1199.5,974C 1208.16,973.5 1216.83,973.334 1225.5,973.5 Z M 1296.5,975.5 C 1298.39,976.065 1300.05,977.065 1301.5,978.5C 1296.47,978.978 1291.64,979.978 1287,981.5C 1285.42,981.012 1284.25,980.012 1283.5,978.5C 1279.82,979.669 1276.15,979.502 1272.5,978C 1273.5,977 1274.5,976 1275.5,975C 1282.7,973.524 1289.7,973.691 1296.5,975.5 Z M 1306.5,975.5 C 1308.17,975.5 1309.83,975.5 1311.5,975.5C 1319.21,976.43 1326.88,977.263 1334.5,978C 1324.78,982.581 1314.78,983.415 1304.5,980.5C 1303.22,978.101 1303.88,976.434 1306.5,975.5 Z M 905.5,976.5 C 908.649,976.211 911.649,976.711 914.5,978C 910.833,978.667 907.167,978.667 903.5,978C 904.416,977.722 905.082,977.222 905.5,976.5 Z M 450.5,979.5 C 450.833,980.167 451.167,980.833 451.5,981.5C 451.5,981.833 451.5,982.167 451.5,982.5C 442.803,982.913 442.47,981.913 450.5,979.5 Z M 413.5,980.5 C 415.5,980.5 417.5,980.5 419.5,980.5C 419.611,981.117 419.944,981.617 420.5,982C 417.5,982.667 414.5,982.667 411.5,982C 412.416,981.722 413.082,981.222 413.5,980.5 Z M 463.5,980.5 C 465.655,980.372 467.655,980.872 469.5,982C 467.167,984 464.833,984 462.5,982C 463.056,981.617 463.389,981.117 463.5,980.5 Z M 800.5,981.5 C 807.645,980.585 808.312,982.419 802.5,987C 775.641,990.157 748.641,991.157 721.5,990C 718.823,989.751 716.49,988.751 714.5,987C 711.854,986.503 709.187,986.336 706.5,986.5C 706.443,985.391 706.11,984.391 705.5,983.5C 711.292,982.107 716.959,982.774 722.5,985.5C 725.53,983.538 728.697,983.205 732,984.5C 738.02,983.775 743.853,982.775 749.5,981.5C 755.936,981.231 762.269,981.897 768.5,983.5C 773.129,981.569 777.963,980.569 783,980.5C 788.821,981.105 794.654,981.438 800.5,981.5 Z M 838.5,980.5 C 840.604,980.201 842.604,980.534 844.5,981.5C 843.675,982.386 842.675,982.719 841.5,982.5C 837.395,984.216 833.228,984.549 829,983.5C 825.579,986.032 821.745,987.699 817.5,988.5C 815.84,987.828 814.507,986.828 813.5,985.5C 813.5,984.167 813.5,982.833 813.5,981.5C 821.748,980.531 830.082,980.198 838.5,980.5 Z M 868.5,981.5 C 867.081,982.451 865.415,982.784 863.5,982.5C 860.07,983.89 856.736,983.724 853.5,982C 854.5,981.5 855.5,981 856.5,980.5C 860.429,981.433 864.429,981.766 868.5,981.5 Z M 429.5,981.5 C 433.042,981.187 436.375,981.521 439.5,982.5C 438.504,983.665 437.171,984.332 435.5,984.5C 431.656,983.018 427.656,982.185 423.5,982C 425.473,981.505 427.473,981.338 429.5,981.5 Z M 475.5,982.5 C 476.251,981.427 477.251,981.26 478.5,982C 477.648,983.728 476.648,983.895 475.5,982.5 Z M 703.5,983.5 C 703.389,984.117 703.056,984.617 702.5,985C 706.843,988.102 706.509,990.269 701.5,991.5C 696.539,990.853 692.206,988.853 688.5,985.5C 693.32,982.633 698.32,981.966 703.5,983.5 Z M 495.5,983.5 C 497.225,983.843 497.725,984.843 497,986.5C 495.961,985.756 495.461,984.756 495.5,983.5 Z M 75.5,985.5 C 72.5568,986.792 70.2235,986.792 68.5,985.5C 70.698,984.933 73.0314,984.933 75.5,985.5 Z M 84.5,985.5 C 82.5,986.833 80.5,986.833 78.5,985.5C 80.5,984.167 82.5,984.167 84.5,985.5 Z M 93.5,984.5 C 96.1873,984.336 98.854,984.503 101.5,985C 103.343,985.159 104.009,985.659 103.5,986.5C 100.257,987.58 96.9236,987.747 93.5,987C 92.2264,986.023 92.2264,985.189 93.5,984.5 Z M 114.5,986.5 C 112.199,987.956 109.865,988.289 107.5,987.5C 106.22,985.894 106.72,984.894 109,984.5C 111.03,984.954 112.863,985.62 114.5,986.5 Z M 641.5,981.5 C 642.5,981.5 643.5,981.5 644.5,981.5C 646.913,983.873 649.913,985.206 653.5,985.5C 658.079,984.184 662.746,983.517 667.5,983.5C 671.499,983.091 675.166,983.925 678.5,986C 677.5,986.333 676.5,986.667 675.5,987C 664.045,987.411 652.711,987.244 641.5,986.5C 641.5,984.833 641.5,983.167 641.5,981.5 Z"/></g>
<g><path style="opacity:1" fill="#927166" d="M 1477.5,961.5 C 1477.66,962.873 1477.49,964.207 1477,965.5C 1473.34,964.056 1469.51,963.39 1465.5,963.5C 1441.22,964.44 1416.88,964.44 1392.5,963.5C 1391.4,962.824 1390.4,962.158 1389.5,961.5C 1418.87,961.219 1448.2,961.219 1477.5,961.5 Z"/></g>
<g><path style="opacity:1" fill="#906f64" d="M 1819.5,961.5 C 1819.5,962.167 1819.5,962.833 1819.5,963.5C 1811.85,964.615 1804.18,964.448 1796.5,963C 1796.83,962.667 1797.17,962.333 1797.5,962C 1795.71,961.48 1794.04,961.813 1792.5,963C 1734.64,963.827 1676.8,963.661 1619,962.5C 1606.92,964.492 1594.75,964.992 1582.5,964C 1583.77,963.691 1584.93,963.191 1586,962.5C 1587.11,963.712 1587.61,963.379 1587.5,961.5C 1664.84,960.197 1742.17,960.197 1819.5,961.5 Z"/></g>
<g><path style="opacity:1" fill="#a58981" d="M 1005.5,961.5 C 1005.92,962.222 1006.58,962.722 1007.5,963C 1006.83,963.333 1006.17,963.667 1005.5,964C 991.821,964.26 978.155,964.76 964.5,965.5C 962.41,965.427 960.41,965.094 958.5,964.5C 955.612,965.01 953.279,964.344 951.5,962.5C 969.496,961.995 987.496,961.661 1005.5,961.5 Z"/></g>
<g><path style="opacity:1" fill="#a2877f" d="M 1016.5,961.5 C 1025.17,961.5 1033.83,961.5 1042.5,961.5C 1042.92,962.222 1043.58,962.722 1044.5,963C 1044.17,963.333 1043.83,963.667 1043.5,964C 1034.44,964.881 1025.44,964.548 1016.5,963C 1015.26,962.31 1015.26,961.81 1016.5,961.5 Z"/></g>
<g><path style="opacity:1" fill="#8f6b62" d="M 1819.5,961.5 C 1852.51,964.105 1885.51,964.438 1918.5,962.5C 1931.66,963.331 1944.99,963.831 1958.5,964C 1930.34,964.939 1902.17,965.773 1874,966.5C 1862.46,966.581 1850.96,966.081 1839.5,965C 1840.7,964.346 1840.7,963.846 1839.5,963.5C 1832.8,964.83 1826.14,964.83 1819.5,963.5C 1819.5,962.833 1819.5,962.167 1819.5,961.5 Z"/></g>
<g><path style="opacity:1" fill="#95746c" d="M 951.5,962.5 C 953.279,964.344 955.612,965.01 958.5,964.5C 955.322,965.705 951.988,965.705 948.5,964.5C 947.833,964.667 947.167,964.833 946.5,965C 948.301,965.317 948.634,965.984 947.5,967C 962.202,966.847 976.535,967.68 990.5,969.5C 972.838,968.156 955.172,968.489 937.5,970.5C 935.359,970.613 933.525,971.28 932,972.5C 928.062,971.046 924.229,971.212 920.5,973C 921.416,973.278 922.082,973.778 922.5,974.5C 917.201,976.421 916.868,977.921 921.5,979C 941.164,979.5 960.831,979.667 980.5,979.5C 974.242,981.3 967.575,982.133 960.5,982C 971.132,982.41 981.465,982.91 991.5,983.5C 968.833,984.504 946.166,984.338 923.5,983C 922.234,982.691 921.067,982.191 920,981.5C 917.656,983.181 915.323,984.848 913,986.5C 910.846,985.68 909.346,984.18 908.5,982C 907.5,981.333 906.5,981.333 905.5,982C 904.646,983.022 903.646,983.855 902.5,984.5C 901.494,984.062 901.494,983.396 902.5,982.5C 902.043,981.702 901.376,981.369 900.5,981.5C 899.794,980.443 899.461,980.776 899.5,982.5C 899.611,983.117 899.944,983.617 900.5,984C 896.815,984.914 897.148,985.581 901.5,986C 899.527,986.495 897.527,986.662 895.5,986.5C 895.371,984.784 895.038,983.117 894.5,981.5C 895.434,980.432 895.768,979.099 895.5,977.5C 894.5,977.5 893.5,977.5 892.5,977.5C 891.167,977.5 889.833,977.5 888.5,977.5C 884.795,977.204 880.462,977.204 875.5,977.5C 874.726,976.853 873.726,976.52 872.5,976.5C 868.258,976.988 864.092,977.654 860,978.5C 851.89,976.219 843.723,976.052 835.5,978C 836.571,978.852 837.571,979.685 838.5,980.5C 830.082,980.198 821.748,980.531 813.5,981.5C 812.469,980.751 811.302,980.085 810,979.5C 806.73,980.132 803.563,980.799 800.5,981.5C 794.654,981.438 788.821,981.105 783,980.5C 777.963,980.569 773.129,981.569 768.5,983.5C 762.269,981.897 755.936,981.231 749.5,981.5C 749.93,980.579 751.264,980.079 753.5,980C 751.667,979.833 749.833,979.667 748,979.5C 729.853,979.65 711.686,979.817 693.5,980C 689.223,979.525 686.223,981.192 684.5,985C 678.436,988.208 678.102,987.541 683.5,983C 683.043,982.586 682.709,982.086 682.5,981.5C 674.521,980.335 666.521,980.168 658.5,981C 661.833,981.333 665.167,981.667 668.5,982C 667.944,982.383 667.611,982.883 667.5,983.5C 662.746,983.517 658.079,984.184 653.5,985.5C 649.913,985.206 646.913,983.873 644.5,981.5C 645.738,981.19 645.738,980.69 644.5,980C 640.923,977.961 637.423,975.795 634,973.5C 630.205,974.115 626.372,974.449 622.5,974.5C 584.182,973.036 545.848,972.203 507.5,972C 512.999,970.853 518.666,970.353 524.5,970.5C 539.164,971.286 553.831,971.452 568.5,971C 567.584,970.722 566.918,970.222 566.5,969.5C 592.169,970.519 617.835,971.519 643.5,972.5C 648.18,971.927 652.847,971.26 657.5,970.5C 673.146,970.787 688.813,970.954 704.5,971C 706.034,971.923 707.701,972.423 709.5,972.5C 715.28,971.089 721.114,970.089 727,969.5C 728.973,970.64 730.807,971.973 732.5,973.5C 734.722,972.222 737.056,971.222 739.5,970.5C 742.355,971.117 745.022,972.117 747.5,973.5C 750.999,971.994 754.499,970.66 758,969.5C 763.222,970.934 768.556,971.6 774,971.5C 796.116,969.28 818.283,967.613 840.5,966.5C 843.042,966.586 845.542,966.92 848,967.5C 851.348,965.325 855.015,964.325 859,964.5C 874.292,963.642 889.625,963.642 905,964.5C 910.588,964.515 916.088,963.848 921.5,962.5C 926.12,963.488 930.787,964.155 935.5,964.5C 940.857,963.961 946.191,963.295 951.5,962.5 Z M 905.5,976.5 C 905.082,977.222 904.416,977.722 903.5,978C 907.167,978.667 910.833,978.667 914.5,978C 911.649,976.711 908.649,976.211 905.5,976.5 Z M 868.5,981.5 C 867.081,982.451 865.415,982.784 863.5,982.5C 860.07,983.89 856.736,983.724 853.5,982C 854.5,981.5 855.5,981 856.5,980.5C 860.429,981.433 864.429,981.766 868.5,981.5 Z"/></g>
<g><path style="opacity:1" fill="#927066" d="M 412.5,968.5 C 412.953,969.458 413.619,970.292 414.5,971C 410.805,971.318 407.138,971.818 403.5,972.5C 402.833,972.167 402.167,971.833 401.5,971.5C 404.447,970.679 407.447,970.179 410.5,970C 407.167,969.333 403.833,969.333 400.5,970C 398.167,972 395.833,972 393.5,970C 387.296,969.773 381.129,969.273 375,968.5C 373.156,969.578 371.156,970.245 369,970.5C 366.316,970.287 363.983,969.954 362,969.5C 358.61,972.371 354.776,973.038 350.5,971.5C 347.169,973.639 343.669,973.972 340,972.5C 335.134,974.752 330.301,974.918 325.5,973C 327.833,972.667 330.167,972.333 332.5,972C 330.618,971.802 328.952,971.302 327.5,970.5C 347.194,969.22 366.861,967.886 386.5,966.5C 395.087,967.923 403.754,968.59 412.5,968.5 Z"/></g>
<g><path style="opacity:1" fill="#8d6960" d="M 1090.5,968.5 C 1110.46,969.694 1130.46,969.694 1150.5,968.5C 1151.5,968.667 1152.5,968.833 1153.5,969C 1152.66,970.011 1152.33,971.178 1152.5,972.5C 1152.17,972.5 1151.83,972.5 1151.5,972.5C 1150.83,972.5 1150.17,972.5 1149.5,972.5C 1143.46,971.529 1137.46,971.529 1131.5,972.5C 1124.83,972.666 1118.16,972.5 1111.5,972C 1109.56,970.128 1107.23,969.295 1104.5,969.5C 1094.91,970.386 1085.41,971.719 1076,973.5C 1069.53,972.648 1063.03,972.314 1056.5,972.5C 1047.03,971.562 1037.53,971.229 1028,971.5C 1023.73,972.14 1019.57,972.807 1015.5,973.5C 1007.17,973.5 998.833,973.5 990.5,973.5C 984.046,972.123 977.38,971.29 970.5,971C 972.167,970.667 973.833,970.333 975.5,970C 970.798,969.172 966.131,969.338 961.5,970.5C 962.609,972.214 961.942,972.881 959.5,972.5C 947.307,972.533 934.974,973.2 922.5,974.5C 922.082,973.778 921.416,973.278 920.5,973C 924.229,971.212 928.062,971.046 932,972.5C 933.525,971.28 935.359,970.613 937.5,970.5C 955.172,968.489 972.838,968.156 990.5,969.5C 994.998,969.785 999.498,970.118 1004,970.5C 1030.13,968.678 1056.29,968.011 1082.5,968.5C 1075.01,969.329 1067.34,969.829 1059.5,970C 1063.5,970.167 1067.5,970.333 1071.5,970.5C 1079.94,970.659 1086.28,969.993 1090.5,968.5 Z"/></g>
<g><path style="opacity:1" fill="#7c5548" d="M 1082.5,968.5 C 1085.17,968.5 1087.83,968.5 1090.5,968.5C 1086.28,969.993 1079.94,970.659 1071.5,970.5C 1067.5,970.333 1063.5,970.167 1059.5,970C 1067.34,969.829 1075.01,969.329 1082.5,968.5 Z"/></g>
<g><path style="opacity:1" fill="#9c7e74" d="M 1225.5,973.5 C 1216.83,973.334 1208.16,973.5 1199.5,974C 1190.6,975.751 1181.6,977.084 1172.5,978C 1179.35,978.172 1186.01,978.672 1192.5,979.5C 1188.15,979.334 1183.82,979.501 1179.5,980C 1184.32,981.279 1189.32,981.946 1194.5,982C 1189.51,982.499 1184.51,982.666 1179.5,982.5C 1177.83,982.5 1176.17,982.5 1174.5,982.5C 1172.2,981.94 1169.87,981.44 1167.5,981C 1169.36,980.399 1169.69,979.566 1168.5,978.5C 1168.39,977.883 1168.06,977.383 1167.5,977C 1162.8,976.828 1158.13,976.328 1153.5,975.5C 1152.81,974.482 1152.14,973.482 1151.5,972.5C 1151.83,972.5 1152.17,972.5 1152.5,972.5C 1154.85,970.93 1157.52,970.097 1160.5,970C 1158.83,969.667 1157.17,969.333 1155.5,969C 1159.5,968.333 1163.5,968.333 1167.5,969C 1168.97,971.186 1170.97,971.852 1173.5,971C 1173.17,970.667 1172.83,970.333 1172.5,970C 1176.17,969.833 1179.83,969.667 1183.5,969.5C 1197.79,970.896 1212.12,971.729 1226.5,972C 1225.94,972.383 1225.61,972.883 1225.5,973.5 Z"/></g>
<g><path style="opacity:1" fill="#9c7d74" d="M 990.5,973.5 C 980.034,974.372 969.701,974.039 959.5,972.5C 961.942,972.881 962.609,972.214 961.5,970.5C 966.131,969.338 970.798,969.172 975.5,970C 973.833,970.333 972.167,970.667 970.5,971C 977.38,971.29 984.046,972.123 990.5,973.5 Z"/></g>
<g><path style="opacity:1" fill="#f0edec" d="M 1516.5,973.5 C 1521.16,972.832 1523.16,974.832 1522.5,979.5C 1519.39,979.736 1516.39,979.403 1513.5,978.5C 1512.02,978.762 1510.69,978.429 1509.5,977.5C 1511.73,975.89 1514.06,974.557 1516.5,973.5 Z"/></g>
<g><path style="opacity:1" fill="#866156" d="M 1311.5,975.5 C 1309.83,975.5 1308.17,975.5 1306.5,975.5C 1303.17,975.5 1299.83,975.5 1296.5,975.5C 1299.31,974.681 1302.31,974.181 1305.5,974C 1302.17,973.667 1298.83,973.333 1295.5,973C 1309.84,972.637 1324.18,972.97 1338.5,974C 1329.24,974.327 1320.24,974.827 1311.5,975.5 Z"/></g>
<g><path style="opacity:1" fill="#947369" d="M 59.5,974.5 C 53.3466,975.328 47.0133,975.828 40.5,976C 51.0043,976.413 61.5043,976.913 72,977.5C 76.8796,977.429 81.7129,976.929 86.5,976C 84.9419,975.79 83.6085,975.29 82.5,974.5C 86.5,974.5 90.5,974.5 94.5,974.5C 93.7375,975.268 92.7375,975.768 91.5,976C 94.3791,976.546 97.0458,977.379 99.5,978.5C 99.3893,979.117 99.056,979.617 98.5,980C 95.4748,980.361 92.4748,980.861 89.5,981.5C 75.1926,980.367 60.8593,980.2 46.5,981C 52.2722,982.663 58.1055,984.163 64,985.5C 65.1086,984.495 66.6086,983.828 68.5,983.5C 68.5,984.167 68.5,984.833 68.5,985.5C 70.2235,986.792 72.5568,986.792 75.5,985.5C 76.5,985.5 77.5,985.5 78.5,985.5C 80.5,986.833 82.5,986.833 84.5,985.5C 85.1859,986.848 86.1859,988.015 87.5,989C 76.8829,989.874 66.3829,989.374 56,987.5C 53.9255,988.134 51.7588,988.468 49.5,988.5C 47.0478,988.461 45.0478,987.794 43.5,986.5C 44.8734,986.657 46.2068,986.49 47.5,986C 45.0481,985.71 42.7148,985.044 40.5,984C 41.5,983.667 42.5,983.333 43.5,983C 40.5,982.667 37.5,982.333 34.5,982C 35.1667,981.667 35.8333,981.333 36.5,981C 34.4127,980.208 32.5793,979.041 31,977.5C 29.9125,979.932 29.4125,979.598 29.5,976.5C 29.6107,975.883 29.944,975.383 30.5,975C 40.1609,974.5 49.8276,974.334 59.5,974.5 Z"/></g>
<g><path style="opacity:1" fill="#a1857d" d="M 59.5,974.5 C 67.1667,975.833 74.8333,975.833 82.5,974.5C 83.6085,975.29 84.9419,975.79 86.5,976C 81.7129,976.929 76.8796,977.429 72,977.5C 61.5043,976.913 51.0043,976.413 40.5,976C 47.0133,975.828 53.3466,975.328 59.5,974.5 Z"/></g>
<g><path style="opacity:1" fill="#baa59f" d="M 1523.5,972.5 C 1531.65,973.036 1539.65,973.703 1547.5,974.5C 1541.16,974.334 1534.82,974.5 1528.5,975C 1530.07,977.326 1531.73,979.492 1533.5,981.5C 1535.83,981.859 1535.66,982.526 1533,983.5C 1530.95,981.624 1529.12,979.624 1527.5,977.5C 1526.37,978.808 1526.37,980.142 1527.5,981.5C 1526.5,981.5 1525.5,981.5 1524.5,981.5C 1524.23,978.881 1524.56,976.381 1525.5,974C 1524.58,973.722 1523.92,973.222 1523.5,972.5 Z"/></g>
<g><path style="opacity:1" fill="#c3b2ac" d="M 1561.5,973.5 C 1566.09,973.932 1568.42,976.598 1568.5,981.5C 1566.01,981.702 1563.68,981.202 1561.5,980C 1563.44,978.807 1563.28,977.307 1561,975.5C 1558.77,977.374 1556.27,978.208 1553.5,978C 1556.19,976.395 1558.86,974.895 1561.5,973.5 Z"/></g>
<g><path style="opacity:1" fill="#a68a83" d="M 1547.5,974.5 C 1550.81,977.165 1550.81,979.665 1547.5,982C 1544.64,981.226 1541.64,980.559 1538.5,980C 1539.74,979.768 1540.74,979.268 1541.5,978.5C 1543.55,978.84 1544.55,978.507 1544.5,977.5C 1540.98,976.192 1537.31,976.192 1533.5,977.5C 1534.36,978.726 1534.36,980.06 1533.5,981.5C 1531.73,979.492 1530.07,977.326 1528.5,975C 1534.82,974.5 1541.16,974.334 1547.5,974.5 Z"/></g>
<g><path style="opacity:1" fill="#927167" d="M 1149.5,972.5 C 1145.36,975.039 1140.7,976.206 1135.5,976C 1134.17,976.667 1134.17,977.333 1135.5,978C 1146.5,977.168 1157.5,977.335 1168.5,978.5C 1169.69,979.566 1169.36,980.399 1167.5,981C 1169.87,981.44 1172.2,981.94 1174.5,982.5C 1172.53,983.163 1170.36,983.496 1168,983.5C 1163.28,982.677 1158.61,981.677 1154,980.5C 1149.93,980.641 1146.1,981.641 1142.5,983.5C 1140.31,982.128 1138.14,981.794 1136,982.5C 1133.45,980.203 1130.45,978.87 1127,978.5C 1123.13,980.429 1118.96,981.429 1114.5,981.5C 1104.21,980.089 1093.88,978.922 1083.5,978C 1084.17,977.667 1084.83,977.333 1085.5,977C 1084.75,976.329 1084.41,975.496 1084.5,974.5C 1090.54,974.747 1096.54,974.414 1102.5,973.5C 1106.01,975.641 1109.84,976.974 1114,977.5C 1120.17,976.541 1126.34,975.541 1132.5,974.5C 1132.14,973.817 1131.8,973.15 1131.5,972.5C 1137.46,971.529 1143.46,971.529 1149.5,972.5 Z"/></g>
<g><path style="opacity:1" fill="#e0d7d5" d="M 1516.5,973.5 C 1518.61,972.532 1520.94,972.198 1523.5,972.5C 1523.92,973.222 1524.58,973.722 1525.5,974C 1524.56,976.381 1524.23,978.881 1524.5,981.5C 1525.5,981.5 1526.5,981.5 1527.5,981.5C 1522.65,982.814 1517.65,982.814 1512.5,981.5C 1513.13,980.583 1513.46,979.583 1513.5,978.5C 1516.39,979.403 1519.39,979.736 1522.5,979.5C 1523.16,974.832 1521.16,972.832 1516.5,973.5 Z"/></g>
<g><path style="opacity:1" fill="#a58a82" d="M 29.5,976.5 C 29.4125,979.598 29.9125,979.932 31,977.5C 32.5793,979.041 34.4127,980.208 36.5,981C 35.8333,981.333 35.1667,981.667 34.5,982C 37.5,982.333 40.5,982.667 43.5,983C 42.5,983.333 41.5,983.667 40.5,984C 42.7148,985.044 45.0481,985.71 47.5,986C 46.2068,986.49 44.8734,986.657 43.5,986.5C 35.1025,985.87 26.7692,984.703 18.5,983C 20.935,982.925 21.6016,982.092 20.5,980.5C 23.0545,979.612 25.7212,979.279 28.5,979.5C 28.2627,978.209 28.596,977.209 29.5,976.5 Z"/></g>
<g><path style="opacity:1" fill="#906d64" d="M 875.5,977.5 C 872.903,977.721 872.903,978.221 875.5,979C 874.167,979.333 872.833,979.667 871.5,980C 871.833,980.333 872.167,980.667 872.5,981C 871.207,981.49 869.873,981.657 868.5,981.5C 864.429,981.766 860.429,981.433 856.5,980.5C 855.5,981 854.5,981.5 853.5,982C 856.736,983.724 860.07,983.89 863.5,982.5C 864.167,984.167 864.833,985.833 865.5,987.5C 860.755,991.172 856.422,990.506 852.5,985.5C 848.855,984.713 845.188,984.546 841.5,985C 842.167,984.667 842.833,984.333 843.5,984C 842.584,983.722 841.918,983.222 841.5,982.5C 842.675,982.719 843.675,982.386 844.5,981.5C 842.604,980.534 840.604,980.201 838.5,980.5C 837.571,979.685 836.571,978.852 835.5,978C 843.723,976.052 851.89,976.219 860,978.5C 864.092,977.654 868.258,976.988 872.5,976.5C 873.726,976.52 874.726,976.853 875.5,977.5 Z"/></g>
<g><path style="opacity:1" fill="#9e8077" d="M 888.5,977.5 C 889.833,978.833 891.167,978.833 892.5,977.5C 893.5,977.5 894.5,977.5 895.5,977.5C 895.768,979.099 895.434,980.432 894.5,981.5C 889.687,981.857 885.02,982.857 880.5,984.5C 881.854,986.462 881.187,987.462 878.5,987.5C 875.488,987.821 874.155,986.488 874.5,983.5C 870.83,983.327 868.33,984.993 867,988.5C 866.617,987.944 866.117,987.611 865.5,987.5C 864.833,985.833 864.167,984.167 863.5,982.5C 865.415,982.784 867.081,982.451 868.5,981.5C 869.873,981.657 871.207,981.49 872.5,981C 872.167,980.667 871.833,980.333 871.5,980C 872.833,979.667 874.167,979.333 875.5,979C 872.903,978.221 872.903,977.721 875.5,977.5C 880.462,977.204 884.795,977.204 888.5,977.5 Z"/></g>
<g><path style="opacity:1" fill="#917066" d="M 1179.5,982.5 C 1184.51,982.666 1189.51,982.499 1194.5,982C 1189.32,981.946 1184.32,981.279 1179.5,980C 1183.82,979.501 1188.15,979.334 1192.5,979.5C 1200.46,979.556 1208.3,979.889 1216,980.5C 1222.38,979.373 1228.71,978.039 1235,976.5C 1241.46,977.156 1247.62,978.822 1253.5,981.5C 1256.84,979.527 1257.84,976.861 1256.5,973.5C 1256.92,972.778 1257.58,972.278 1258.5,972C 1257.5,971.667 1256.5,971.333 1255.5,971C 1256.62,969.108 1258.28,968.275 1260.5,968.5C 1261.37,972.808 1261.53,977.141 1261,981.5C 1260.68,983.061 1259.85,984.228 1258.5,985C 1256.17,985.667 1253.83,985.667 1251.5,985C 1241.42,979.353 1231.09,979.019 1220.5,984C 1207.5,984.667 1194.5,984.667 1181.5,984C 1180.58,983.722 1179.92,983.222 1179.5,982.5 Z"/></g>
<g><path style="opacity:1" fill="#906d63" d="M 1053.5,978.5 C 1056.66,977.678 1060,977.011 1063.5,976.5C 1068.08,977.816 1072.75,978.483 1077.5,978.5C 1077.2,979.15 1076.86,979.817 1076.5,980.5C 1080.29,981.729 1080.29,982.396 1076.5,982.5C 1067.58,980.535 1058.74,980.869 1050,983.5C 1046.13,982.395 1042.3,982.395 1038.5,983.5C 1036.79,981.76 1035.96,979.76 1036,977.5C 1038.3,979.93 1041.14,980.93 1044.5,980.5C 1044.5,979.167 1044.5,977.833 1044.5,976.5C 1045.82,976.67 1046.99,976.337 1048,975.5C 1048.5,976 1049,976.5 1049.5,977C 1046.84,979.229 1047.18,981.062 1050.5,982.5C 1051.91,981.194 1053.58,980.36 1055.5,980C 1054.58,979.722 1053.92,979.222 1053.5,978.5 Z"/></g>
<g><path style="opacity:1" fill="#886459" d="M 99.5,978.5 C 103.019,978.187 104.353,979.52 103.5,982.5C 99.7011,981.207 96.0344,981.207 92.5,982.5C 91.928,983.973 91.0946,985.307 90,986.5C 89,984.167 87.3333,982.5 85,981.5C 79.8027,983.42 74.3027,984.087 68.5,983.5C 66.6086,983.828 65.1086,984.495 64,985.5C 58.1055,984.163 52.2722,982.663 46.5,981C 60.8593,980.2 75.1926,980.367 89.5,981.5C 92.4748,980.861 95.4748,980.361 98.5,980C 99.056,979.617 99.3893,979.117 99.5,978.5 Z"/></g>
<g><path style="opacity:1" fill="#9f8179" d="M 94.5,974.5 C 99.0683,976.374 103.735,976.707 108.5,975.5C 108.104,978.044 108.771,980.211 110.5,982C 118.46,982.498 126.46,983.664 134.5,985.5C 134.134,987.84 132.967,989.507 131,990.5C 126.124,986.984 120.624,985.65 114.5,986.5C 112.863,985.62 111.03,984.954 109,984.5C 106.72,984.894 106.22,985.894 107.5,987.5C 105.901,987.768 104.568,987.434 103.5,986.5C 104.009,985.659 103.343,985.159 101.5,985C 98.854,984.503 96.1873,984.336 93.5,984.5C 94.2625,983.732 95.2625,983.232 96.5,983C 95.2068,982.51 93.8734,982.343 92.5,982.5C 96.0344,981.207 99.7011,981.207 103.5,982.5C 104.353,979.52 103.019,978.187 99.5,978.5C 97.0458,977.379 94.3791,976.546 91.5,976C 92.7375,975.768 93.7375,975.268 94.5,974.5 Z"/></g>
<g><path style="opacity:1" fill="#906d63" d="M 450.5,979.5 C 442.47,981.913 442.803,982.913 451.5,982.5C 453.01,984.322 454.343,986.322 455.5,988.5C 453.393,987.7 451.226,987.033 449,986.5C 446.79,987.022 444.623,987.688 442.5,988.5C 441.833,988.167 441.167,987.833 440.5,987.5C 441.729,986.719 443.062,986.219 444.5,986C 443.062,985.781 441.729,985.281 440.5,984.5C 441.981,983.056 441.648,982.389 439.5,982.5C 436.375,981.521 433.042,981.187 429.5,981.5C 426.375,980.521 423.042,980.187 419.5,980.5C 417.5,980.5 415.5,980.5 413.5,980.5C 410.854,980.108 408.354,980.108 406,980.5C 405.383,979.551 405.549,978.718 406.5,978C 418.809,975.745 430.976,976.245 443,979.5C 445.086,977.751 447.419,976.417 450,975.5C 451.726,975.946 453.226,976.779 454.5,978C 453.451,978.492 452.451,978.326 451.5,977.5C 451.213,978.2 450.88,978.867 450.5,979.5 Z"/></g>
<g><path style="opacity:1" fill="#aa9189" d="M 455.5,988.5 C 454.343,986.322 453.01,984.322 451.5,982.5C 451.5,982.167 451.5,981.833 451.5,981.5C 452.735,981.279 453.735,980.612 454.5,979.5C 457.305,982.236 458.138,985.57 457,989.5C 456.617,988.944 456.117,988.611 455.5,988.5 Z"/></g>
<g><path style="opacity:1" fill="#b49d97" d="M 498.5,980.5 C 498.735,979.903 499.235,979.57 500,979.5C 504.311,981.249 508.811,981.916 513.5,981.5C 513.813,984.247 513.48,986.914 512.5,989.5C 509.167,987.833 505.833,986.167 502.5,984.5C 501.995,982.231 500.662,980.897 498.5,980.5 Z"/></g>
<g><path style="opacity:1" fill="#c2b0aa" d="M 207.5,983.5 C 210.385,983.194 213.052,983.527 215.5,984.5C 213.517,984.157 212.183,984.824 211.5,986.5C 210.432,987.434 209.099,987.768 207.5,987.5C 207.5,986.167 207.5,984.833 207.5,983.5 Z"/></g>
<g><path style="opacity:1" fill="#c9bab6" d="M 240.5,981.5 C 242.256,982.552 242.923,984.219 242.5,986.5C 240.567,986.271 238.9,985.438 237.5,984C 238.571,983.148 239.571,982.315 240.5,981.5 Z"/></g>
<g><path style="opacity:1" fill="#af968f" d="M 558.5,980.5 C 563.546,980.357 567.546,982.357 570.5,986.5C 569.311,987.429 567.978,987.762 566.5,987.5C 566.5,986.5 566.5,985.5 566.5,984.5C 563.266,984.795 560.266,984.129 557.5,982.5C 557.863,981.817 558.196,981.15 558.5,980.5 Z"/></g>
<g><path style="opacity:1" fill="#8c685e" d="M 749.5,981.5 C 743.853,982.775 738.02,983.775 732,984.5C 728.697,983.205 725.53,983.538 722.5,985.5C 716.959,982.774 711.292,982.107 705.5,983.5C 704.833,983.5 704.167,983.5 703.5,983.5C 698.32,981.966 693.32,982.633 688.5,985.5C 692.206,988.853 696.539,990.853 701.5,991.5C 700.851,992.606 700.517,993.606 700.5,994.5C 694.833,992.396 689.5,989.729 684.5,986.5C 681.613,988.111 678.613,989.444 675.5,990.5C 663.826,991.334 652.159,991 640.5,989.5C 641.262,989.089 642.262,988.923 643.5,989C 642.095,987.731 640.429,987.231 638.5,987.5C 638.5,985.5 638.5,983.5 638.5,981.5C 639.5,981.5 640.5,981.5 641.5,981.5C 641.5,983.167 641.5,984.833 641.5,986.5C 652.711,987.244 664.045,987.411 675.5,987C 676.5,986.667 677.5,986.333 678.5,986C 675.166,983.925 671.499,983.091 667.5,983.5C 667.611,982.883 667.944,982.383 668.5,982C 665.167,981.667 661.833,981.333 658.5,981C 666.521,980.168 674.521,980.335 682.5,981.5C 682.709,982.086 683.043,982.586 683.5,983C 678.102,987.541 678.436,988.208 684.5,985C 686.223,981.192 689.223,979.525 693.5,980C 711.686,979.817 729.853,979.65 748,979.5C 749.833,979.667 751.667,979.833 753.5,980C 751.264,980.079 749.93,980.579 749.5,981.5 Z M 641.5,981.5 C 642.5,981.5 643.5,981.5 644.5,981.5C 646.913,983.873 649.913,985.206 653.5,985.5C 658.079,984.184 662.746,983.517 667.5,983.5C 671.499,983.091 675.166,983.925 678.5,986C 677.5,986.333 676.5,986.667 675.5,987C 664.045,987.411 652.711,987.244 641.5,986.5C 641.5,984.833 641.5,983.167 641.5,981.5 Z"/></g>
<g><path style="opacity:1" fill="#c4b1ac" d="M 192.5,983.5 C 192.557,984.609 192.89,985.609 193.5,986.5C 191.654,986.778 190.32,986.111 189.5,984.5C 190.325,983.614 191.325,983.281 192.5,983.5 Z"/></g>
<g><path style="opacity:1" fill="#eae3e2" d="M 215.5,984.5 C 214.817,986.176 213.483,986.843 211.5,986.5C 212.183,984.824 213.517,984.157 215.5,984.5 Z"/></g>
<g><path style="opacity:1" fill="#a68b82" d="M 599.5,982.5 C 603.574,982.701 607.574,983.368 611.5,984.5C 608.09,987.288 604.59,989.955 601,992.5C 600.39,989.173 599.89,985.839 599.5,982.5 Z"/></g>
<g><path style="opacity:1" fill="#a68c83" d="M 192.5,983.5 C 197.5,983.5 202.5,983.5 207.5,983.5C 207.5,984.833 207.5,986.167 207.5,987.5C 205.427,988.138 203.427,989.138 201.5,990.5C 198.642,989.339 195.975,988.006 193.5,986.5C 192.89,985.609 192.557,984.609 192.5,983.5 Z"/></g>
<g><path style="opacity:1" fill="#906e64" d="M 813.5,981.5 C 813.5,982.833 813.5,984.167 813.5,985.5C 812.74,987.224 812.407,988.89 812.5,990.5C 811.852,988.851 810.852,987.518 809.5,986.5C 805.166,990.497 800.166,991.83 794.5,990.5C 793.692,990.808 793.025,991.308 792.5,992C 784.992,992.383 777.492,992.883 770,993.5C 759.18,992.47 748.346,992.303 737.5,993C 730.304,995.225 723.304,994.725 716.5,991.5C 713.212,991.388 709.879,991.555 706.5,992C 707.167,991.333 707.833,990.667 708.5,990C 707.027,989.29 706.36,988.124 706.5,986.5C 709.187,986.336 711.854,986.503 714.5,987C 716.49,988.751 718.823,989.751 721.5,990C 748.641,991.157 775.641,990.157 802.5,987C 808.312,982.419 807.645,980.585 800.5,981.5C 803.563,980.799 806.73,980.132 810,979.5C 811.302,980.085 812.469,980.751 813.5,981.5 Z"/></g>
<g><path style="opacity:1" fill="#9e8179" d="M 1973.5,1002.5 C 1978.2,1005.01 1983.2,1006.68 1988.5,1007.5C 1990.58,1012.67 1988.91,1016 1983.5,1017.5C 1986.09,1021.2 1986.76,1025.2 1985.5,1029.5C 1983.07,1031.05 1980.4,1031.72 1977.5,1031.5C 1978.91,1029.39 1980.91,1027.89 1983.5,1027C 1980.23,1026.04 1977.56,1025.2 1975.5,1024.5C 1977.68,1024.72 1979.35,1023.88 1980.5,1022C 1980.27,1021.6 1979.94,1021.43 1979.5,1021.5C 1979.61,1020.88 1979.94,1020.38 1980.5,1020C 1978.56,1019.09 1977.56,1017.59 1977.5,1015.5C 1980.17,1015.07 1982.83,1014.57 1985.5,1014C 1986.75,1011.79 1986.58,1009.62 1985,1007.5C 1984.16,1009.01 1983,1009.51 1981.5,1009C 1978.58,1007.05 1975.91,1004.89 1973.5,1002.5 Z"/></g>
<g><path style="opacity:1" fill="#8a665c" d="M 5.5,995.5 C 7.30768,999.471 10.3077,1002.3 14.5,1004C 25.3987,1007.47 36.3987,1010.8 47.5,1014C 91.9638,1020.45 136.63,1024.78 181.5,1027C 179.065,1027.07 178.398,1027.91 179.5,1029.5C 134.938,1027.31 90.6045,1022.81 46.5,1016C 32.6074,1013.41 19.4408,1008.91 7,1002.5C 5.79777,1000.32 5.29777,997.989 5.5,995.5 Z"/></g>
<g><path style="opacity:1" fill="#cbbab5" d="M 1979.5,1021.5 C 1979.94,1021.43 1980.27,1021.6 1980.5,1022C 1979.35,1023.88 1977.68,1024.72 1975.5,1024.5C 1976.44,1023.03 1977.77,1022.03 1979.5,1021.5 Z"/></g>
<g><path style="opacity:1" fill="#89655a" d="M 1217.5,1033.5 C 1216.03,1033.11 1214.53,1032.77 1213,1032.5C 1210.57,1033.89 1207.91,1034.55 1205,1034.5C 1197.89,1034.02 1190.89,1033.02 1184,1031.5C 1168.32,1034.1 1152.65,1034.1 1137,1031.5C 1134.79,1032.02 1132.62,1032.69 1130.5,1033.5C 1127.2,1031.77 1123.7,1030.77 1120,1030.5C 1114.86,1031.36 1109.69,1032.03 1104.5,1032.5C 1100.11,1032.13 1095.77,1031.47 1091.5,1030.5C 1069.17,1030.13 1046.83,1030.8 1024.5,1032.5C 1017.49,1031.98 1010.49,1031.31 1003.5,1030.5C 994.19,1032.37 984.857,1032.7 975.5,1031.5C 975.908,1030.36 976.575,1029.36 977.5,1028.5C 979.059,1029.45 980.726,1030.11 982.5,1030.5C 989.768,1029.17 997.102,1028.51 1004.5,1028.5C 1033.02,1029.31 1061.52,1028.97 1090,1027.5C 1091.45,1027.95 1092.78,1028.61 1094,1029.5C 1094.38,1028.52 1095.21,1027.85 1096.5,1027.5C 1098.73,1029.19 1101.23,1030.19 1104,1030.5C 1110.11,1029.14 1116.27,1028.14 1122.5,1027.5C 1125.17,1028.5 1127.83,1029.5 1130.5,1030.5C 1132.06,1030.28 1133.39,1029.61 1134.5,1028.5C 1135.7,1028.85 1135.7,1029.35 1134.5,1030C 1135.17,1030.17 1135.83,1030.33 1136.5,1030.5C 1138.18,1028.54 1139.85,1028.37 1141.5,1030C 1156.22,1030.94 1170.89,1030.44 1185.5,1028.5C 1191.32,1030.08 1197.32,1031.08 1203.5,1031.5C 1206.48,1031.68 1208.98,1030.68 1211,1028.5C 1214.08,1029.29 1217.24,1029.79 1220.5,1030C 1219.29,1031.04 1218.29,1032.21 1217.5,1033.5 Z"/></g>
<g><path style="opacity:1" fill="#89645a" d="M 1603.5,1034.5 C 1599.71,1034.27 1596.04,1033.44 1592.5,1032C 1579.47,1031.12 1566.47,1030.96 1553.5,1031.5C 1552.39,1030.71 1551.06,1030.21 1549.5,1030C 1563.44,1028.41 1577.44,1028.07 1591.5,1029C 1596.24,1029.68 1600.9,1030.68 1605.5,1032C 1604.24,1032.42 1603.58,1033.25 1603.5,1034.5 Z"/></g>
<g><path style="opacity:1" fill="#89675c" d="M 284.5,1033.5 C 268.96,1032.68 253.46,1032.68 238,1033.5C 229.156,1032.63 220.322,1031.63 211.5,1030.5C 212.263,1029.73 213.263,1029.23 214.5,1029C 213.5,1028.67 212.5,1028.33 211.5,1028C 216.857,1028.1 222.19,1028.76 227.5,1030C 250.167,1030.33 272.833,1030.67 295.5,1031C 291.167,1031.33 286.833,1031.67 282.5,1032C 283.416,1032.28 284.082,1032.78 284.5,1033.5 Z"/></g>
<g><path style="opacity:1" fill="#8c695f" d="M 971.5,1030.5 C 969.724,1030.79 967.724,1030.96 965.5,1031C 964.069,1031.47 962.903,1032.3 962,1033.5C 958.384,1032.29 954.718,1031.29 951,1030.5C 945.844,1032.29 940.511,1033.29 935,1033.5C 907.837,1032.64 880.67,1032.8 853.5,1034C 840.107,1034.21 826.773,1035.21 813.5,1037C 795.819,1037.27 778.152,1037.77 760.5,1038.5C 760.389,1037.88 760.056,1037.38 759.5,1037C 763.524,1035.82 767.524,1035.65 771.5,1036.5C 772.696,1036.15 772.696,1035.65 771.5,1035C 777.814,1034.97 784.148,1035.14 790.5,1035.5C 831.928,1032.16 873.428,1030.16 915,1029.5C 927.42,1030.95 939.753,1030.62 952,1028.5C 954.852,1028.68 957.685,1029.02 960.5,1029.5C 962.593,1029.51 964.426,1028.85 966,1027.5C 966.308,1028.31 966.808,1028.97 967.5,1029.5C 968.328,1028.59 969.328,1027.92 970.5,1027.5C 972.803,1027.88 973.137,1028.88 971.5,1030.5 Z"/></g>
<g><path style="opacity:1" fill="#8a655b" d="M 359.5,1032.5 C 357.914,1033.15 356.247,1033.65 354.5,1034C 339.994,1034.83 325.661,1034.66 311.5,1033.5C 312.239,1033.63 312.906,1033.46 313.5,1033C 312.5,1032.67 311.5,1032.33 310.5,1032C 326.001,1032.37 341.501,1031.87 357,1030.5C 358.376,1030.68 359.209,1031.35 359.5,1032.5 Z"/></g>
<g><path style="opacity:1" fill="#8d6a60" d="M 1366.5,1035.5 C 1344.14,1034.45 1321.81,1034.45 1299.5,1035.5C 1296.14,1035.89 1293.31,1034.89 1291,1032.5C 1290.62,1033.06 1290.12,1033.39 1289.5,1033.5C 1289.63,1031.91 1290.29,1030.58 1291.5,1029.5C 1293.39,1031.58 1295.72,1032.91 1298.5,1033.5C 1302.1,1032.51 1305.76,1031.85 1309.5,1031.5C 1327.13,1031.51 1344.8,1031.68 1362.5,1032C 1364.61,1032.36 1366.61,1033.03 1368.5,1034C 1367.58,1034.28 1366.92,1034.78 1366.5,1035.5 Z"/></g>
<g><path style="opacity:1" fill="#8b675d" d="M 1697.5,1036.5 C 1681.36,1035.93 1665.19,1034.93 1649,1033.5C 1644.39,1033.44 1639.89,1034.11 1635.5,1035.5C 1634.58,1035.46 1633.92,1035.12 1633.5,1034.5C 1632.57,1033.69 1631.57,1032.85 1630.5,1032C 1630.83,1031.83 1631.17,1031.67 1631.5,1031.5C 1634.77,1032.59 1638.11,1032.75 1641.5,1032C 1640.3,1031.35 1640.3,1030.85 1641.5,1030.5C 1643.72,1031.11 1646.06,1031.11 1648.5,1030.5C 1663.87,1031.74 1679.2,1033.07 1694.5,1034.5C 1695.5,1033.83 1696.5,1033.17 1697.5,1032.5C 1697.12,1033.68 1697.12,1035.02 1697.5,1036.5 Z"/></g>
<g><path style="opacity:1" fill="#8f6d62" d="M 1972.5,1033.5 C 1955.99,1034.25 1939.49,1035.25 1923,1036.5C 1919.5,1036.33 1916,1036.17 1912.5,1036C 1911.58,1035.72 1910.92,1035.22 1910.5,1034.5C 1909.91,1033.23 1909.91,1032.23 1910.5,1031.5C 1913.95,1033.06 1917.62,1034.06 1921.5,1034.5C 1939.77,1032.3 1958.11,1030.8 1976.5,1030C 1974.46,1030.5 1973.12,1031.66 1972.5,1033.5 Z"/></g>
<g><path style="opacity:1" fill="#8d6960" d="M 446.5,1036.5 C 420.236,1036.87 393.903,1036.37 367.5,1035C 366.263,1034.77 365.263,1034.27 364.5,1033.5C 364.88,1032.87 365.213,1032.2 365.5,1031.5C 393.127,1033.42 420.794,1034.25 448.5,1034C 447.167,1034.33 445.833,1034.67 444.5,1035C 445.416,1035.28 446.082,1035.78 446.5,1036.5 Z"/></g>
<g><path style="opacity:1" fill="#8d6b60" d="M 581.5,1038.5 C 562.987,1037.93 544.487,1036.93 526,1035.5C 519.971,1035.91 513.971,1036.57 508,1037.5C 505.967,1037.49 504.134,1037.16 502.5,1036.5C 503.009,1035.66 502.343,1035.16 500.5,1035C 508.719,1034.66 516.885,1033.83 525,1032.5C 529.085,1032.93 533.085,1033.59 537,1034.5C 538.231,1033.89 539.564,1033.56 541,1033.5C 555.465,1034.88 569.965,1035.72 584.5,1036C 584.833,1036.33 585.167,1036.67 585.5,1037C 583.942,1037.21 582.609,1037.71 581.5,1038.5 Z"/></g>
<g><path style="opacity:1" fill="#8c6a5f" d="M 1873.5,1037.5 C 1851.32,1036.08 1829.16,1035.08 1807,1034.5C 1805.99,1035.34 1804.82,1035.67 1803.5,1035.5C 1803.42,1034.25 1802.76,1033.42 1801.5,1033C 1803.17,1032.83 1804.83,1032.67 1806.5,1032.5C 1817.49,1033.54 1828.49,1033.54 1839.5,1032.5C 1850.82,1033.08 1861.82,1034.08 1872.5,1035.5C 1872.86,1036.18 1873.2,1036.85 1873.5,1037.5 Z"/></g>
<g><path style="opacity:1" fill="#8e6c61" d="M 643.5,1037.5 C 640.742,1038.76 637.742,1039.59 634.5,1040C 625.993,1040.5 617.493,1040.33 609,1039.5C 602.754,1039.62 596.587,1040.29 590.5,1041.5C 587.873,1040.94 585.54,1039.94 583.5,1038.5C 595.87,1037.51 608.203,1037.51 620.5,1038.5C 626.449,1037.71 632.449,1037.21 638.5,1037C 639.609,1036.36 640.775,1035.86 642,1035.5C 643.03,1035.84 643.53,1036.5 643.5,1037.5 Z"/></g>
<g><path style="opacity:1" fill="#89645a" d="M 757.5,1038.5 C 749.553,1039.71 741.553,1040.71 733.5,1041.5C 730.747,1041.45 728.08,1041.12 725.5,1040.5C 725.369,1039.76 725.536,1039.09 726,1038.5C 735.553,1040.2 744.887,1039.2 754,1035.5C 757.104,1035.85 756.937,1036.35 753.5,1037C 755.058,1037.21 756.391,1037.71 757.5,1038.5 Z"/></g>
</svg>
