<?xml version="1.0" encoding="UTF-8"?>
<!DOCTYPE svg PUBLIC "-//W3C//DTD SVG 1.1//EN" "http://www.w3.org/Graphics/SVG/1.1/DTD/svg11.dtd">
<svg xmlns="http://www.w3.org/2000/svg" version="1.1" width="2000px" height="2000px" style="shape-rendering:geometricPrecision; text-rendering:geometricPrecision; image-rendering:optimizeQuality; fill-rule:evenodd; clip-rule:evenodd" xmlns:xlink="http://www.w3.org/1999/xlink">
<g><path style="opacity:1" fill="#d4aa97" d="M 1238.5,832.5 C 1230.36,834.214 1221.86,835.214 1213,835.5C 1210.75,834.749 1208.42,834.749 1206,835.5C 1204.32,835.392 1203.15,834.725 1202.5,833.5C 1214.48,832.723 1226.48,832.39 1238.5,832.5 Z"/></g>
<g><path style="opacity:1" fill="#d3a795" d="M 1406.5,1008.5 C 1408.29,1010.43 1409.29,1012.76 1409.5,1015.5C 1408.52,1015.54 1407.52,1015.54 1406.5,1015.5C 1416.29,1040.09 1430.79,1061.42 1450,1079.5C 1451.41,1078.59 1452.91,1078.59 1454.5,1079.5C 1458.17,1082.83 1461.83,1086.17 1465.5,1089.5C 1463.32,1088.07 1460.99,1087.24 1458.5,1087C 1480.7,1106.78 1506.03,1121.44 1534.5,1131C 1579.23,1146.26 1624.89,1150.6 1671.5,1144C 1716.04,1136.73 1758.04,1122.07 1797.5,1100C 1800.27,1098.63 1802.6,1096.8 1804.5,1094.5C 1827.38,1082.22 1848.38,1067.22 1867.5,1049.5C 1868.39,1048.68 1868.72,1047.68 1868.5,1046.5C 1869.55,1046.65 1870.55,1046.48 1871.5,1046C 1900.66,1019.19 1926.49,989.693 1949,957.5C 1958.11,942.642 1967.78,927.975 1978,913.5C 1978.48,912.552 1978.65,911.552 1978.5,910.5C 1981.81,905.9 1985.14,901.234 1988.5,896.5C 1991.78,894.675 1994.11,895.342 1995.5,898.5C 1964.1,960.825 1923.43,1013.99 1873.5,1058C 1874,1058.5 1874.5,1059 1875,1059.5C 1876.13,1057.86 1877.63,1056.86 1879.5,1056.5C 1875.79,1061.21 1871.46,1065.21 1866.5,1068.5C 1865.76,1068.63 1865.09,1068.46 1864.5,1068C 1867.28,1066.19 1869.78,1064.02 1872,1061.5C 1872.67,1060.83 1872.67,1060.17 1872,1059.5C 1812.75,1110.53 1744.25,1142.36 1666.5,1155C 1623.71,1159.92 1581.71,1156.42 1540.5,1144.5C 1524.83,1138.38 1509.16,1132.05 1493.5,1125.5C 1486.82,1120.35 1479.49,1116.18 1471.5,1113C 1468.77,1110.12 1465.77,1107.45 1462.5,1105C 1461.17,1104.67 1459.83,1104.33 1458.5,1104C 1450.69,1095.86 1442.52,1088.02 1434,1080.5C 1418.64,1062.44 1405.81,1042.78 1395.5,1021.5C 1388.11,1000.99 1381.11,980.323 1374.5,959.5C 1373.89,959.624 1373.56,959.957 1373.5,960.5C 1372.66,960.158 1372.33,959.492 1372.5,958.5C 1373.5,958.53 1374.16,958.03 1374.5,957C 1371.11,943.806 1365.61,931.639 1358,920.5C 1353.75,910.826 1347.75,901.493 1340,892.5C 1338.93,891.809 1337.77,891.309 1336.5,891C 1333.07,886.81 1329.4,882.81 1325.5,879C 1314.68,871.249 1303.01,864.582 1290.5,859C 1286.55,857.516 1282.55,856.35 1278.5,855.5C 1273.76,853.534 1268.76,852.034 1263.5,851C 1251.2,849.458 1238.87,848.291 1226.5,847.5C 1212.43,848.39 1198.43,849.89 1184.5,852C 1175.09,853.445 1166.09,855.945 1157.5,859.5C 1150.72,860.869 1144.38,863.202 1138.5,866.5C 1119.83,872.835 1102.16,881.335 1085.5,892C 1084.26,892.69 1084.26,893.19 1085.5,893.5C 1082.32,894.421 1079.32,895.921 1076.5,898C 1075.17,898.667 1075.17,899.333 1076.5,900C 1074.39,900.36 1072.39,901.027 1070.5,902C 1059.74,910.269 1047.74,918.936 1034.5,928C 1004.3,953.038 973.966,977.871 943.5,1002.5C 942.833,1002.5 942.5,1002.83 942.5,1003.5C 925.828,1015.17 909.161,1026.84 892.5,1038.5C 880.664,1044.8 868.664,1050.97 856.5,1057C 843.876,1062.48 831.21,1067.65 818.5,1072.5C 805.212,1075.68 791.878,1078.68 778.5,1081.5C 779.689,1082.43 781.022,1082.76 782.5,1082.5C 780.735,1083.46 778.735,1083.79 776.5,1083.5C 776.611,1082.88 776.944,1082.38 777.5,1082C 775.5,1081.83 773.5,1081.67 771.5,1081.5C 756.334,1082.82 741.167,1082.82 726,1081.5C 723.39,1081.53 721.223,1082.2 719.5,1083.5C 718.833,1083.5 718.167,1083.5 717.5,1083.5C 719.137,1081.88 718.803,1080.88 716.5,1080.5C 704.643,1077.81 693.143,1074.15 682,1069.5C 677.969,1070.7 675.469,1073.37 674.5,1077.5C 668.615,1085.56 662.115,1093.23 655,1100.5C 654.383,1101.45 654.549,1102.28 655.5,1103C 652.506,1104.62 649.673,1106.79 647,1109.5C 645.887,1110.76 645.72,1111.93 646.5,1113C 645.627,1114.04 644.627,1114.88 643.5,1115.5C 636.365,1121.11 629.365,1127.61 622.5,1135C 622.728,1135.4 623.062,1135.57 623.5,1135.5C 623.167,1136.5 622.5,1137.17 621.5,1137.5C 621.44,1136.96 621.107,1136.62 620.5,1136.5C 609.392,1146.23 598.058,1155.73 586.5,1165C 585.262,1165.69 585.262,1166.19 586.5,1166.5C 583.975,1166.98 581.975,1168.31 580.5,1170.5C 560.737,1182.94 540.737,1194.94 520.5,1206.5C 493.982,1218.33 466.815,1228.67 439,1237.5C 422.31,1241.8 405.143,1245.64 387.5,1249C 388.598,1249.77 388.598,1250.6 387.5,1251.5C 384.904,1252.27 382.237,1252.6 379.5,1252.5C 381.476,1250.99 383.809,1250.16 386.5,1250C 376.81,1250 367.144,1250.67 357.5,1252C 358.942,1252.38 359.942,1253.21 360.5,1254.5C 357.609,1255.4 354.609,1255.74 351.5,1255.5C 353.158,1254.82 354.825,1253.99 356.5,1253C 350.5,1252.33 344.5,1252.33 338.5,1253C 339.888,1253.89 339.722,1254.39 338,1254.5C 327.488,1253.18 316.988,1253.18 306.5,1254.5C 301.062,1252.61 295.395,1251.95 289.5,1252.5C 282.339,1250.63 275.006,1250.3 267.5,1251.5C 266.304,1251.15 266.304,1250.65 267.5,1250C 262.448,1249.26 257.448,1248.26 252.5,1247C 250.231,1246.24 248.064,1246.41 246,1247.5C 245.481,1246.48 244.647,1245.82 243.5,1245.5C 226.939,1240.95 210.605,1235.95 194.5,1230.5C 152.456,1214.39 114.289,1191.73 80,1162.5C 79.7216,1163.42 79.2216,1164.08 78.5,1164.5C 77.8333,1163.5 77.1667,1162.5 76.5,1161.5C 77.2389,1161.63 77.9056,1161.46 78.5,1161C 70.2735,1152.7 61.9402,1144.54 53.5,1136.5C 35.731,1115.75 20.3976,1093.42 7.5,1069.5C 5.87031,1063.52 4.70364,1057.52 4,1051.5C 9.54311,1046 14.5431,1046.66 19,1053.5C 21.8917,1060.03 25.0584,1066.37 28.5,1072.5C 29.3724,1075.91 31.039,1078.91 33.5,1081.5C 41.5601,1098.96 52.5601,1114.29 66.5,1127.5C 79.639,1143.98 94.9723,1157.98 112.5,1169.5C 113.436,1170.97 114.77,1171.97 116.5,1172.5C 132.959,1185.91 150.959,1197.08 170.5,1206C 193.623,1217.07 217.623,1225.57 242.5,1231.5C 251.93,1234.1 261.597,1236.27 271.5,1238C 379.683,1250.45 479.016,1226.79 569.5,1167C 583.143,1157.02 596.477,1146.68 609.5,1136C 622.777,1123.25 634.777,1110.75 645.5,1098.5C 655.183,1088.81 663.683,1078.15 671,1066.5C 671.667,1065.17 671.667,1063.83 671,1062.5C 670.011,1065.57 668.511,1067.57 666.5,1068.5C 667.641,1066.45 667.641,1064.45 666.5,1062.5C 667.496,1062.41 668.329,1062.75 669,1063.5C 669.749,1062.36 669.583,1061.36 668.5,1060.5C 653.608,1049.44 641.775,1035.78 633,1019.5C 629.751,1012.76 627.084,1005.76 625,998.5C 624.722,999.416 624.222,1000.08 623.5,1000.5C 621,993.848 619.666,986.848 619.5,979.5C 620.491,972.687 620.825,965.687 620.5,958.5C 622.3,942.1 627.3,926.766 635.5,912.5C 635.957,911.702 636.624,911.369 637.5,911.5C 640.239,909.666 641.573,907.332 641.5,904.5C 642.086,904.709 642.586,905.043 643,905.5C 660.762,886.184 681.262,882.517 704.5,894.5C 720.369,909.262 727.703,927.596 726.5,949.5C 724.708,974.288 718.541,997.954 708,1020.5C 703.644,1027.88 699.811,1035.55 696.5,1043.5C 692.161,1048.17 688.827,1053.51 686.5,1059.5C 686.977,1060.48 687.643,1061.31 688.5,1062C 721.715,1074.53 755.715,1076.86 790.5,1069C 822.307,1061.89 852.307,1050.22 880.5,1034C 896.179,1024.16 911.512,1013.83 926.5,1003C 958.791,977.044 990.791,950.711 1022.5,924C 1021.5,922.844 1020.5,922.344 1019.5,922.5C 1019.83,921.5 1020.5,920.833 1021.5,920.5C 1022.75,920.577 1023.58,921.244 1024,922.5C 1045.38,905.892 1067.55,890.392 1090.5,876C 1118.52,860.155 1148.19,848.489 1179.5,841C 1221.3,831.394 1261.97,834.728 1301.5,851C 1334.69,866.859 1359.19,891.359 1375,924.5C 1385.72,951.701 1395.05,979.368 1403,1007.5C 1404.05,1011.86 1405.21,1012.19 1406.5,1008.5 Z M 710.5,925.5 C 712.247,933.398 713.247,941.398 713.5,949.5C 713.365,955.181 713.032,960.848 712.5,966.5C 711.732,968.715 711.065,971.048 710.5,973.5C 708.243,987.105 704.076,1000.1 698,1012.5C 692.509,1024.15 686.509,1035.48 680,1046.5C 678.662,1049.08 676.829,1049.75 674.5,1048.5C 669.294,1045.8 664.794,1042.14 661,1037.5C 657.146,1032.43 653.313,1027.43 649.5,1022.5C 633.333,992.897 631.166,962.23 643,930.5C 649.381,917.62 658.881,907.953 671.5,901.5C 691.178,898.873 704.178,906.873 710.5,925.5 Z"/></g>
<g><path style="opacity:1" fill="#d2a68f" d="M 1238.5,832.5 C 1308.47,836.543 1356.64,870.876 1383,935.5C 1391.74,959.563 1399.58,983.896 1406.5,1008.5C 1405.21,1012.19 1404.05,1011.86 1403,1007.5C 1395.05,979.368 1385.72,951.701 1375,924.5C 1359.19,891.359 1334.69,866.859 1301.5,851C 1261.97,834.728 1221.3,831.394 1179.5,841C 1148.19,848.489 1118.52,860.155 1090.5,876C 1067.55,890.392 1045.38,905.892 1024,922.5C 1023.58,921.244 1022.75,920.577 1021.5,920.5C 1050.2,896.293 1081.54,875.793 1115.5,859C 1143.18,845.996 1172.18,837.496 1202.5,833.5C 1203.15,834.725 1204.32,835.392 1206,835.5C 1208.42,834.749 1210.75,834.749 1213,835.5C 1221.86,835.214 1230.36,834.214 1238.5,832.5 Z"/></g>
<g><path style="opacity:1" fill="#cda087" d="M 1196.5,853.5 C 1175.02,857.433 1154.02,863.433 1133.5,871.5C 1133.39,870.883 1133.06,870.383 1132.5,870C 1134.73,869.059 1136.73,867.892 1138.5,866.5C 1144.38,863.202 1150.72,860.869 1157.5,859.5C 1168.79,857.011 1180.13,854.511 1191.5,852C 1193.83,851.333 1196.17,851.333 1198.5,852C 1197.17,852.333 1195.83,852.667 1194.5,853C 1195.09,853.464 1195.76,853.631 1196.5,853.5 Z"/></g>
<g><path style="opacity:1" fill="#d1a48d" d="M 1278.5,855.5 C 1271.18,854.172 1263.85,852.838 1256.5,851.5C 1255.5,851.667 1254.5,851.833 1253.5,852C 1255.51,852.083 1256.51,852.583 1256.5,853.5C 1246.35,852.696 1236.18,852.029 1226,851.5C 1216.16,852.068 1206.32,852.735 1196.5,853.5C 1195.76,853.631 1195.09,853.464 1194.5,853C 1195.83,852.667 1197.17,852.333 1198.5,852C 1196.17,851.333 1193.83,851.333 1191.5,852C 1180.13,854.511 1168.79,857.011 1157.5,859.5C 1166.09,855.945 1175.09,853.445 1184.5,852C 1198.43,849.89 1212.43,848.39 1226.5,847.5C 1238.87,848.291 1251.2,849.458 1263.5,851C 1268.76,852.034 1273.76,853.534 1278.5,855.5 Z"/></g>
<g><path style="opacity:1" fill="#d2a78f" d="M 698.5,887.5 C 698.281,888.675 698.614,889.675 699.5,890.5C 701.419,891.612 703.086,892.946 704.5,894.5C 681.262,882.517 660.762,886.184 643,905.5C 642.586,905.043 642.086,904.709 641.5,904.5C 641.573,907.332 640.239,909.666 637.5,911.5C 637.5,910.167 636.833,909.5 635.5,909.5C 648.173,889.999 666.173,881.499 689.5,884C 692.802,884.661 695.802,885.828 698.5,887.5 Z"/></g>
<g><path style="opacity:1" fill="#d2a68e" d="M 1138.5,866.5 C 1136.73,867.892 1134.73,869.059 1132.5,870C 1133.06,870.383 1133.39,870.883 1133.5,871.5C 1132.61,872.11 1131.61,872.443 1130.5,872.5C 1131.46,871.637 1131.46,870.97 1130.5,870.5C 1114.78,876.916 1099.78,884.583 1085.5,893.5C 1084.26,893.19 1084.26,892.69 1085.5,892C 1102.16,881.335 1119.83,872.835 1138.5,866.5 Z"/></g>
<g><path style="opacity:1" fill="#cfa28a" d="M 710.5,925.5 C 704.178,906.873 691.178,898.873 671.5,901.5C 672.263,900.732 673.263,900.232 674.5,900C 671.315,899.612 668.315,900.279 665.5,902C 660.713,904.955 656.38,908.455 652.5,912.5C 656.245,905.679 662.245,900.845 670.5,898C 691.784,894.561 705.951,903.061 713,923.5C 713.663,928.001 713.163,928.335 711.5,924.5C 710.893,924.624 710.56,924.957 710.5,925.5 Z"/></g>
<g><path style="opacity:1" fill="#cea088" d="M 1278.5,855.5 C 1282.55,856.35 1286.55,857.516 1290.5,859C 1303.01,864.582 1314.68,871.249 1325.5,879C 1329.4,882.81 1333.07,886.81 1336.5,891C 1337.77,891.309 1338.93,891.809 1340,892.5C 1347.75,901.493 1353.75,910.826 1358,920.5C 1365.61,931.639 1371.11,943.806 1374.5,957C 1374.16,958.03 1373.5,958.53 1372.5,958.5C 1362.3,924.166 1342.97,896.333 1314.5,875C 1296.42,864.115 1277.09,856.948 1256.5,853.5C 1256.51,852.583 1255.51,852.083 1253.5,852C 1254.5,851.833 1255.5,851.667 1256.5,851.5C 1263.85,852.838 1271.18,854.172 1278.5,855.5 Z"/></g>
<g><path style="opacity:1" fill="#d4ad99" d="M 635.5,909.5 C 636.833,909.5 637.5,910.167 637.5,911.5C 636.624,911.369 635.957,911.702 635.5,912.5C 627.3,926.766 622.3,942.1 620.5,958.5C 619.833,959.5 619.167,960.5 618.5,961.5C 619.809,942.574 625.476,925.241 635.5,909.5 Z"/></g>
<g><path style="opacity:1" fill="#cb9b82" d="M 671.5,901.5 C 658.881,907.953 649.381,917.62 643,930.5C 631.166,962.23 633.333,992.897 649.5,1022.5C 650.028,1023.85 650.195,1025.18 650,1026.5C 648.058,1022.93 645.892,1019.6 643.5,1016.5C 640.589,1009.35 638.255,1002.01 636.5,994.5C 629.402,966.174 633.735,939.841 649.5,915.5C 650.833,914.833 651.833,913.833 652.5,912.5C 656.38,908.455 660.713,904.955 665.5,902C 668.315,900.279 671.315,899.612 674.5,900C 673.263,900.232 672.263,900.732 671.5,901.5 Z"/></g>
<g><path style="opacity:1" fill="#d3a891" d="M 712.5,966.5 C 713.032,960.848 713.365,955.181 713.5,949.5C 714.239,949.631 714.906,949.464 715.5,949C 714.866,945.948 714.866,943.114 715.5,940.5C 716.91,943.495 717.577,946.661 717.5,950C 716.492,957.56 715.158,965.06 713.5,972.5C 713.187,970.48 712.854,968.48 712.5,966.5 Z"/></g>
<g><path style="opacity:1" fill="#d7b5a2" d="M 620.5,958.5 C 620.825,965.687 620.491,972.687 619.5,979.5C 618.51,973.69 618.177,967.69 618.5,961.5C 619.167,960.5 619.833,959.5 620.5,958.5 Z"/></g>
<g><path style="opacity:1" fill="#d2a68d" d="M 649.5,915.5 C 633.735,939.841 629.402,966.174 636.5,994.5C 635.414,994.38 634.747,993.713 634.5,992.5C 628.619,965.451 632.786,940.118 647,916.5C 647.838,915.001 648.671,914.668 649.5,915.5 Z"/></g>
<g><path style="opacity:1" fill="#cea188" d="M 1130.5,872.5 C 1119.31,877.427 1108.31,882.927 1097.5,889C 1082.83,898.667 1068.17,908.333 1053.5,918C 1017.98,946.024 982.651,974.19 947.5,1002.5C 946.368,1001.65 945.035,1001.65 943.5,1002.5C 973.966,977.871 1004.3,953.038 1034.5,928C 1047.74,918.936 1059.74,910.269 1070.5,902C 1072.39,901.027 1074.39,900.36 1076.5,900C 1075.17,899.333 1075.17,898.667 1076.5,898C 1079.32,895.921 1082.32,894.421 1085.5,893.5C 1099.78,884.583 1114.78,876.916 1130.5,870.5C 1131.46,870.97 1131.46,871.637 1130.5,872.5 Z"/></g>
<g><path style="opacity:1" fill="#d2a78f" d="M 1019.5,922.5 C 1020.5,922.344 1021.5,922.844 1022.5,924C 990.791,950.711 958.791,977.044 926.5,1003C 911.512,1013.83 896.179,1024.16 880.5,1034C 852.307,1050.22 822.307,1061.89 790.5,1069C 755.715,1076.86 721.715,1074.53 688.5,1062C 687.643,1061.31 686.977,1060.48 686.5,1059.5C 688.827,1053.51 692.161,1048.17 696.5,1043.5C 695.364,1047.77 693.198,1051.44 690,1054.5C 689.289,1056.37 689.789,1057.87 691.5,1059C 690.833,1059.33 690.167,1059.67 689.5,1060C 695.146,1063.22 701.146,1065.22 707.5,1066C 706.244,1065.58 705.577,1064.75 705.5,1063.5C 723.755,1068.78 742.421,1070.78 761.5,1069.5C 768.388,1070.17 775.388,1069.67 782.5,1068C 780.527,1067.5 778.527,1067.34 776.5,1067.5C 787.48,1065.68 798.48,1063.34 809.5,1060.5C 809.082,1061.22 808.416,1061.72 807.5,1062C 818.211,1060.1 828.544,1056.76 838.5,1052C 837.906,1051.54 837.239,1051.37 836.5,1051.5C 847.409,1046.38 858.409,1041.21 869.5,1036C 888.346,1024.75 906.679,1012.75 924.5,1000C 956.228,974.15 987.895,948.317 1019.5,922.5 Z"/></g>
<g><path style="opacity:1" fill="#d1a58d" d="M 1999.5,894.5 C 1999.5,896.5 1999.5,898.5 1999.5,900.5C 1983.29,931.254 1964.79,960.588 1944,988.5C 1930.66,1003.87 1917.32,1019.21 1904,1034.5C 1895.96,1042.04 1887.8,1049.37 1879.5,1056.5C 1877.63,1056.86 1876.13,1057.86 1875,1059.5C 1874.5,1059 1874,1058.5 1873.5,1058C 1923.43,1013.99 1964.1,960.825 1995.5,898.5C 1994.11,895.342 1991.78,894.675 1988.5,896.5C 1985.14,901.234 1981.81,905.9 1978.5,910.5C 1980.93,904.474 1984.26,898.974 1988.5,894C 1987.58,893.722 1986.92,893.222 1986.5,892.5C 1987.78,891.102 1989.44,890.436 1991.5,890.5C 1994.79,890.813 1997.46,892.147 1999.5,894.5 Z"/></g>
<g><path style="opacity:1" fill="#d0a48c" d="M 1395.5,1021.5 C 1394.07,1019.4 1392.9,1017.07 1392,1014.5C 1391.72,1015.42 1391.22,1016.08 1390.5,1016.5C 1383.29,998.333 1377.62,979.666 1373.5,960.5C 1373.56,959.957 1373.89,959.624 1374.5,959.5C 1381.11,980.323 1388.11,1000.99 1395.5,1021.5 Z"/></g>
<g><path style="opacity:1" fill="#cb9b82" d="M 726.5,976.5 C 722.926,991.897 717.592,1006.56 710.5,1020.5C 709.957,1020.44 709.624,1020.11 709.5,1019.5C 716.157,1005.03 721.324,990.028 725,974.5C 725.278,975.416 725.778,976.082 726.5,976.5 Z"/></g>
<g><path style="opacity:1" fill="#d1a58e" d="M 666.5,1062.5 C 643.797,1047.8 629.464,1027.13 623.5,1000.5C 624.222,1000.08 624.722,999.416 625,998.5C 627.084,1005.76 629.751,1012.76 633,1019.5C 641.775,1035.78 653.608,1049.44 668.5,1060.5C 669.583,1061.36 669.749,1062.36 669,1063.5C 668.329,1062.75 667.496,1062.41 666.5,1062.5 Z"/></g>
<g><path style="opacity:1" fill="#d1a68e" d="M 1409.5,1015.5 C 1420.52,1039.54 1435.52,1060.87 1454.5,1079.5C 1452.91,1078.59 1451.41,1078.59 1450,1079.5C 1430.79,1061.42 1416.29,1040.09 1406.5,1015.5C 1407.52,1015.54 1408.52,1015.54 1409.5,1015.5 Z"/></g>
<g><path style="opacity:1" fill="#cfa289" d="M 698.5,887.5 C 713.717,896.243 723.551,909.243 728,926.5C 731.361,943.31 730.861,959.976 726.5,976.5C 725.778,976.082 725.278,975.416 725,974.5C 721.324,990.028 716.157,1005.03 709.5,1019.5C 709.624,1020.11 709.957,1020.44 710.5,1020.5C 705.625,1033.42 699.292,1045.58 691.5,1057C 695.493,1060.5 700.16,1062.66 705.5,1063.5C 705.577,1064.75 706.244,1065.58 707.5,1066C 701.146,1065.22 695.146,1063.22 689.5,1060C 690.167,1059.67 690.833,1059.33 691.5,1059C 689.789,1057.87 689.289,1056.37 690,1054.5C 693.198,1051.44 695.364,1047.77 696.5,1043.5C 699.811,1035.55 703.644,1027.88 708,1020.5C 718.541,997.954 724.708,974.288 726.5,949.5C 727.703,927.596 720.369,909.262 704.5,894.5C 703.086,892.946 701.419,891.612 699.5,890.5C 698.614,889.675 698.281,888.675 698.5,887.5 Z"/></g>
<g><path style="opacity:1" fill="#cc9e85" d="M 1395.5,1021.5 C 1399.64,1032.61 1404.97,1043.11 1411.5,1053C 1411.27,1053.4 1410.94,1053.57 1410.5,1053.5C 1402.04,1042.26 1395.37,1029.92 1390.5,1016.5C 1391.22,1016.08 1391.72,1015.42 1392,1014.5C 1392.9,1017.07 1394.07,1019.4 1395.5,1021.5 Z"/></g>
<g><path style="opacity:1" fill="#d2a68e" d="M 942.5,1003.5 C 926.945,1016.72 910.278,1028.38 892.5,1038.5C 909.161,1026.84 925.828,1015.17 942.5,1003.5 Z"/></g>
<g><path style="opacity:1" fill="#cfa28a" d="M 1986.5,892.5 C 1986.92,893.222 1987.58,893.722 1988.5,894C 1984.26,898.974 1980.93,904.474 1978.5,910.5C 1978.65,911.552 1978.48,912.552 1978,913.5C 1967.78,927.975 1958.11,942.642 1949,957.5C 1926.49,989.693 1900.66,1019.19 1871.5,1046C 1870.55,1046.48 1869.55,1046.65 1868.5,1046.5C 1868.72,1047.68 1868.39,1048.68 1867.5,1049.5C 1848.38,1067.22 1827.38,1082.22 1804.5,1094.5C 1791.37,1100.9 1778.37,1107.57 1765.5,1114.5C 1764.54,1114.03 1764.54,1113.36 1765.5,1112.5C 1823.59,1083.94 1873.75,1044.94 1916,995.5C 1927,980.833 1938,966.167 1949,951.5C 1961.36,931.659 1973.86,911.993 1986.5,892.5 Z"/></g>
<g><path style="opacity:1" fill="#cfa189" d="M 643.5,1016.5 C 645.892,1019.6 648.058,1022.93 650,1026.5C 650.195,1025.18 650.028,1023.85 649.5,1022.5C 653.313,1027.43 657.146,1032.43 661,1037.5C 664.794,1042.14 669.294,1045.8 674.5,1048.5C 675.528,1051.68 677.528,1052.68 680.5,1051.5C 679.375,1054.13 677.375,1054.96 674.5,1054C 664.294,1046.13 655.46,1036.96 648,1026.5C 646.191,1023.22 644.691,1019.89 643.5,1016.5 Z"/></g>
<g><path style="opacity:1" fill="#d2a68e" d="M 892.5,1038.5 C 873.437,1050.86 853.103,1060.86 831.5,1068.5C 827.303,1070.23 822.969,1071.57 818.5,1072.5C 831.21,1067.65 843.876,1062.48 856.5,1057C 868.664,1050.97 880.664,1044.8 892.5,1038.5 Z"/></g>
<g><path style="opacity:1" fill="#d2a68e" d="M 10.5,1045.5 C 13.8539,1046.26 16.6872,1047.93 19,1050.5C 22.8567,1057.58 26.0234,1064.91 28.5,1072.5C 25.0584,1066.37 21.8917,1060.03 19,1053.5C 14.5431,1046.66 9.54311,1046 4,1051.5C 4.70364,1057.52 5.87031,1063.52 7.5,1069.5C 3.65263,1063.44 2.15263,1056.77 3,1049.5C 4.31844,1046.06 6.81844,1044.73 10.5,1045.5 Z"/></g>
<g><path style="opacity:1" fill="#d3a891" d="M 710.5,973.5 C 711.5,973.5 712.5,973.5 713.5,973.5C 707.517,1001.83 696.517,1027.83 680.5,1051.5C 677.528,1052.68 675.528,1051.68 674.5,1048.5C 676.829,1049.75 678.662,1049.08 680,1046.5C 686.509,1035.48 692.509,1024.15 698,1012.5C 704.076,1000.1 708.243,987.105 710.5,973.5 Z"/></g>
<g><path style="opacity:1" fill="#d4ad99" d="M 836.5,1051.5 C 837.239,1051.37 837.906,1051.54 838.5,1052C 828.544,1056.76 818.211,1060.1 807.5,1062C 808.416,1061.72 809.082,1061.22 809.5,1060.5C 818.375,1057.36 827.375,1054.36 836.5,1051.5 Z"/></g>
<g><path style="opacity:1" fill="#cc9e85" d="M 947.5,1002.5 C 913.168,1031.52 874.835,1054.18 832.5,1070.5C 832.167,1069.83 831.833,1069.17 831.5,1068.5C 853.103,1060.86 873.437,1050.86 892.5,1038.5C 910.278,1028.38 926.945,1016.72 942.5,1003.5C 942.5,1002.83 942.833,1002.5 943.5,1002.5C 945.035,1001.65 946.368,1001.65 947.5,1002.5 Z"/></g>
<g><path style="opacity:1" fill="#d6af9b" d="M 776.5,1067.5 C 778.527,1067.34 780.527,1067.5 782.5,1068C 775.388,1069.67 768.388,1070.17 761.5,1069.5C 766.269,1068.11 771.269,1067.44 776.5,1067.5 Z"/></g>
<g><path style="opacity:1" fill="#d2a68e" d="M 645.5,1098.5 C 645.167,1097.5 644.5,1096.83 643.5,1096.5C 651.197,1087.14 658.863,1077.81 666.5,1068.5C 668.511,1067.57 670.011,1065.57 671,1062.5C 671.667,1063.83 671.667,1065.17 671,1066.5C 663.683,1078.15 655.183,1088.81 645.5,1098.5 Z"/></g>
<g><path style="opacity:1" fill="#d1a58e" d="M 717.5,1083.5 C 704.864,1081.26 692.531,1077.92 680.5,1073.5C 680.631,1072.76 680.464,1072.09 680,1071.5C 678.383,1073.76 676.55,1075.76 674.5,1077.5C 675.469,1073.37 677.969,1070.7 682,1069.5C 693.143,1074.15 704.643,1077.81 716.5,1080.5C 718.803,1080.88 719.137,1081.88 717.5,1083.5 Z"/></g>
<g><path style="opacity:1" fill="#cfa28a" d="M 831.5,1068.5 C 831.833,1069.17 832.167,1069.83 832.5,1070.5C 816.537,1076.99 799.87,1080.99 782.5,1082.5C 781.022,1082.76 779.689,1082.43 778.5,1081.5C 791.878,1078.68 805.212,1075.68 818.5,1072.5C 822.969,1071.57 827.303,1070.23 831.5,1068.5 Z"/></g>
<g><path style="opacity:1" fill="#cea088" d="M 1395.5,1021.5 C 1405.81,1042.78 1418.64,1062.44 1434,1080.5C 1442.52,1088.02 1450.69,1095.86 1458.5,1104C 1459.83,1104.33 1461.17,1104.67 1462.5,1105C 1465.77,1107.45 1468.77,1110.12 1471.5,1113C 1479.49,1116.18 1486.82,1120.35 1493.5,1125.5C 1508.33,1133.74 1524,1140.08 1540.5,1144.5C 1541.26,1145.27 1542.26,1145.77 1543.5,1146C 1542.26,1146.23 1541.26,1146.73 1540.5,1147.5C 1495.14,1134.25 1456.64,1110.25 1425,1075.5C 1419.53,1068.54 1414.69,1061.2 1410.5,1053.5C 1410.94,1053.57 1411.27,1053.4 1411.5,1053C 1404.97,1043.11 1399.64,1032.61 1395.5,1021.5 Z"/></g>
<g><path style="opacity:1" fill="#d5af9b" d="M 5.5,1044.5 C 7.41467,1044.22 9.08134,1044.55 10.5,1045.5C 6.81844,1044.73 4.31844,1046.06 3,1049.5C 2.15263,1056.77 3.65263,1063.44 7.5,1069.5C 10.3476,1077.53 14.0142,1085.2 18.5,1092.5C 18.0302,1093.46 17.3635,1093.46 16.5,1092.5C 8.64347,1080.79 2.97681,1068.12 -0.5,1054.5C -0.5,1053.83 -0.5,1053.17 -0.5,1052.5C 0.0378284,1048.77 2.03783,1046.1 5.5,1044.5 Z"/></g>
<g><path style="opacity:1" fill="#cfa28a" d="M 776.5,1083.5 C 757.509,1086.14 738.509,1086.14 719.5,1083.5C 721.223,1082.2 723.39,1081.53 726,1081.5C 741.167,1082.82 756.334,1082.82 771.5,1081.5C 773.5,1081.67 775.5,1081.83 777.5,1082C 776.944,1082.38 776.611,1082.88 776.5,1083.5 Z"/></g>
<g><path style="opacity:1" fill="#d2a68e" d="M 33.5,1081.5 C 43.5164,1097.53 54.5164,1112.86 66.5,1127.5C 52.5601,1114.29 41.5601,1098.96 33.5,1081.5 Z"/></g>
<g><path style="opacity:1" fill="#cc9c83" d="M 5.5,1044.5 C 12.416,1042.02 17.916,1044.02 22,1050.5C 31.8492,1075.88 45.5159,1098.88 63,1119.5C 71.6721,1129 80.5055,1138.34 89.5,1147.5C 90.9687,1149.11 90.6354,1149.61 88.5,1149C 81.2982,1141.63 73.9649,1134.46 66.5,1127.5C 54.5164,1112.86 43.5164,1097.53 33.5,1081.5C 31.039,1078.91 29.3724,1075.91 28.5,1072.5C 26.0234,1064.91 22.8567,1057.58 19,1050.5C 16.6872,1047.93 13.8539,1046.26 10.5,1045.5C 9.08134,1044.55 7.41467,1044.22 5.5,1044.5 Z"/></g>
<g><path style="opacity:1" fill="#d3a88e" d="M 643.5,1115.5 C 637.167,1122.5 630.5,1129.17 623.5,1135.5C 623.062,1135.57 622.728,1135.4 622.5,1135C 629.365,1127.61 636.365,1121.11 643.5,1115.5 Z"/></g>
<g><path style="opacity:1" fill="#d1a68e" d="M 1866.5,1068.5 C 1817.38,1109.56 1761.38,1137.73 1698.5,1153C 1658.75,1161.37 1618.75,1162.7 1578.5,1157C 1565.62,1154.53 1552.96,1151.36 1540.5,1147.5C 1541.26,1146.73 1542.26,1146.23 1543.5,1146C 1542.26,1145.77 1541.26,1145.27 1540.5,1144.5C 1581.71,1156.42 1623.71,1159.92 1666.5,1155C 1744.25,1142.36 1812.75,1110.53 1872,1059.5C 1872.67,1060.17 1872.67,1060.83 1872,1061.5C 1869.78,1064.02 1867.28,1066.19 1864.5,1068C 1865.09,1068.46 1865.76,1068.63 1866.5,1068.5 Z"/></g>
<g><path style="opacity:1" fill="#d1a68e" d="M 1465.5,1089.5 C 1507.08,1120.24 1553.74,1137.91 1605.5,1142.5C 1594.85,1142.67 1594.85,1143.17 1605.5,1144C 1619.79,1144.43 1633.95,1144.6 1648,1144.5C 1654.12,1143.7 1660.29,1142.86 1666.5,1142C 1664.53,1141.5 1662.53,1141.34 1660.5,1141.5C 1696.75,1136.53 1731.75,1126.86 1765.5,1112.5C 1764.54,1113.36 1764.54,1114.03 1765.5,1114.5C 1778.37,1107.57 1791.37,1100.9 1804.5,1094.5C 1802.6,1096.8 1800.27,1098.63 1797.5,1100C 1758.04,1122.07 1716.04,1136.73 1671.5,1144C 1624.89,1150.6 1579.23,1146.26 1534.5,1131C 1506.03,1121.44 1480.7,1106.78 1458.5,1087C 1460.99,1087.24 1463.32,1088.07 1465.5,1089.5 Z"/></g>
<g><path style="opacity:1" fill="#d2a68e" d="M 1493.5,1125.5 C 1509.16,1132.05 1524.83,1138.38 1540.5,1144.5C 1524,1140.08 1508.33,1133.74 1493.5,1125.5 Z"/></g>
<g><path style="opacity:1" fill="#d2a891" d="M 7.5,1069.5 C 20.3976,1093.42 35.731,1115.75 53.5,1136.5C 52.9569,1136.56 52.6236,1136.89 52.5,1137.5C 60.1877,1145.85 68.1877,1153.85 76.5,1161.5C 77.1667,1162.5 77.8333,1163.5 78.5,1164.5C 66.595,1155.43 55.7616,1145.1 46,1133.5C 40.0474,1125.21 33.7141,1117.21 27,1109.5C 22.9766,1104.11 19.4766,1098.45 16.5,1092.5C 17.3635,1093.46 18.0302,1093.46 18.5,1092.5C 14.0142,1085.2 10.3476,1077.53 7.5,1069.5 Z"/></g>
<g><path style="opacity:1" fill="#d1a48b" d="M 53.5,1136.5 C 61.9402,1144.54 70.2735,1152.7 78.5,1161C 77.9056,1161.46 77.2389,1161.63 76.5,1161.5C 68.1877,1153.85 60.1877,1145.85 52.5,1137.5C 52.6236,1136.89 52.9569,1136.56 53.5,1136.5 Z"/></g>
<g><path style="opacity:1" fill="#d3aa94" d="M 1660.5,1141.5 C 1662.53,1141.34 1664.53,1141.5 1666.5,1142C 1660.29,1142.86 1654.12,1143.7 1648,1144.5C 1633.95,1144.6 1619.79,1144.43 1605.5,1144C 1594.85,1143.17 1594.85,1142.67 1605.5,1142.5C 1623.85,1143.68 1642.19,1143.35 1660.5,1141.5 Z"/></g>
<g><path style="opacity:1" fill="#cd9e85" d="M 680.5,1073.5 C 631.014,1142.75 566.681,1193.08 487.5,1224.5C 487.082,1223.78 486.416,1223.28 485.5,1223C 497.53,1217.98 509.197,1212.48 520.5,1206.5C 541.769,1196.55 561.769,1184.55 580.5,1170.5C 581.975,1168.31 583.975,1166.98 586.5,1166.5C 598.76,1157.54 610.426,1147.87 621.5,1137.5C 622.5,1137.17 623.167,1136.5 623.5,1135.5C 630.5,1129.17 637.167,1122.5 643.5,1115.5C 644.627,1114.88 645.627,1114.04 646.5,1113C 645.72,1111.93 645.887,1110.76 647,1109.5C 649.673,1106.79 652.506,1104.62 655.5,1103C 654.549,1102.28 654.383,1101.45 655,1100.5C 662.115,1093.23 668.615,1085.56 674.5,1077.5C 676.55,1075.76 678.383,1073.76 680,1071.5C 680.464,1072.09 680.631,1072.76 680.5,1073.5 Z"/></g>
<g><path style="opacity:1" fill="#d2a68d" d="M 621.5,1137.5 C 610.426,1147.87 598.76,1157.54 586.5,1166.5C 585.262,1166.19 585.262,1165.69 586.5,1165C 598.058,1155.73 609.392,1146.23 620.5,1136.5C 621.107,1136.62 621.44,1136.96 621.5,1137.5 Z"/></g>
<g><path style="opacity:1" fill="#d2a68d" d="M 66.5,1127.5 C 73.9649,1134.46 81.2982,1141.63 88.5,1149C 90.6354,1149.61 90.9687,1149.11 89.5,1147.5C 91.4044,1147.74 92.7377,1148.74 93.5,1150.5C 92.7611,1150.37 92.0944,1150.54 91.5,1151C 98.4421,1157.46 105.442,1163.62 112.5,1169.5C 94.9723,1157.98 79.639,1143.98 66.5,1127.5 Z"/></g>
<g><path style="opacity:1" fill="#d0a48c" d="M 194.5,1230.5 C 195.6,1231.56 196.934,1232.39 198.5,1233C 196.885,1233.06 195.552,1233.23 194.5,1233.5C 160.487,1220.83 128.821,1204 99.5,1183C 92.0097,1177.34 85.0097,1171.17 78.5,1164.5C 79.2216,1164.08 79.7216,1163.42 80,1162.5C 114.289,1191.73 152.456,1214.39 194.5,1230.5 Z"/></g>
<g><path style="opacity:1" fill="#cc9c83" d="M 93.5,1150.5 C 118.3,1171.74 145.3,1189.74 174.5,1204.5C 174.44,1205.04 174.107,1205.38 173.5,1205.5C 153.422,1196.05 134.589,1184.72 117,1171.5C 116.601,1171.73 116.435,1172.06 116.5,1172.5C 114.77,1171.97 113.436,1170.97 112.5,1169.5C 105.442,1163.62 98.4421,1157.46 91.5,1151C 92.0944,1150.54 92.7611,1150.37 93.5,1150.5 Z"/></g>
<g><path style="opacity:1" fill="#d2a68e" d="M 580.5,1170.5 C 561.769,1184.55 541.769,1196.55 520.5,1206.5C 540.737,1194.94 560.737,1182.94 580.5,1170.5 Z"/></g>
<g><path style="opacity:1" fill="#d2a790" d="M 643.5,1096.5 C 644.5,1096.83 645.167,1097.5 645.5,1098.5C 634.777,1110.75 622.777,1123.25 609.5,1136C 596.477,1146.68 583.143,1157.02 569.5,1167C 479.016,1226.79 379.683,1250.45 271.5,1238C 261.597,1236.27 251.93,1234.1 242.5,1231.5C 245.866,1231.79 249.2,1231.95 252.5,1232C 251.584,1231.72 250.918,1231.22 250.5,1230.5C 254.606,1230.74 258.606,1231.41 262.5,1232.5C 259.707,1232.75 256.707,1232.91 253.5,1233C 256.734,1233.71 259.901,1234.54 263,1235.5C 263.333,1234.83 263.667,1234.17 264,1233.5C 266.709,1235.65 269.876,1236.81 273.5,1237C 276.167,1237.67 278.833,1237.67 281.5,1237C 280.263,1236.77 279.263,1236.27 278.5,1235.5C 282.548,1235.39 286.548,1235.73 290.5,1236.5C 288.708,1237.31 286.708,1237.81 284.5,1238C 287.095,1238.23 289.595,1238.73 292,1239.5C 293.067,1237.72 294.567,1237.22 296.5,1238C 295.833,1238.33 295.167,1238.67 294.5,1239C 316.164,1240.99 337.831,1240.99 359.5,1239C 354.981,1238.82 350.647,1238.32 346.5,1237.5C 451.635,1231.32 542.635,1192.82 619.5,1122C 627.366,1113.3 635.366,1104.8 643.5,1096.5 Z"/></g>
<g><path style="opacity:1" fill="#cfa38b" d="M 174.5,1204.5 C 199.227,1214.96 224.56,1223.63 250.5,1230.5C 250.918,1231.22 251.584,1231.72 252.5,1232C 249.2,1231.95 245.866,1231.79 242.5,1231.5C 217.623,1225.57 193.623,1217.07 170.5,1206C 150.959,1197.08 132.959,1185.91 116.5,1172.5C 116.435,1172.06 116.601,1171.73 117,1171.5C 134.589,1184.72 153.422,1196.05 173.5,1205.5C 174.107,1205.38 174.44,1205.04 174.5,1204.5 Z"/></g>
<g><path style="opacity:1" fill="#cc9e87" d="M 262.5,1232.5 C 267.96,1233.51 273.293,1234.51 278.5,1235.5C 279.263,1236.27 280.263,1236.77 281.5,1237C 278.833,1237.67 276.167,1237.67 273.5,1237C 269.876,1236.81 266.709,1235.65 264,1233.5C 263.667,1234.17 263.333,1234.83 263,1235.5C 259.901,1234.54 256.734,1233.71 253.5,1233C 256.707,1232.91 259.707,1232.75 262.5,1232.5 Z"/></g>
<g><path style="opacity:1" fill="#cc9e88" d="M 290.5,1236.5 C 309.152,1238.47 327.819,1238.8 346.5,1237.5C 350.647,1238.32 354.981,1238.82 359.5,1239C 337.831,1240.99 316.164,1240.99 294.5,1239C 295.167,1238.67 295.833,1238.33 296.5,1238C 294.567,1237.22 293.067,1237.72 292,1239.5C 289.595,1238.73 287.095,1238.23 284.5,1238C 286.708,1237.81 288.708,1237.31 290.5,1236.5 Z"/></g>
<g><path style="opacity:1" fill="#d0a48c" d="M 520.5,1206.5 C 509.197,1212.48 497.53,1217.98 485.5,1223C 486.416,1223.28 487.082,1223.78 487.5,1224.5C 455.388,1237.86 422.054,1246.86 387.5,1251.5C 388.598,1250.6 388.598,1249.77 387.5,1249C 405.143,1245.64 422.31,1241.8 439,1237.5C 466.815,1228.67 493.982,1218.33 520.5,1206.5 Z"/></g>
<g><path style="opacity:1" fill="#d2a78e" d="M 194.5,1230.5 C 210.605,1235.95 226.939,1240.95 243.5,1245.5C 244.647,1245.82 245.481,1246.48 246,1247.5C 248.064,1246.41 250.231,1246.24 252.5,1247C 257.448,1248.26 262.448,1249.26 267.5,1250C 266.304,1250.65 266.304,1251.15 267.5,1251.5C 275.006,1250.3 282.339,1250.63 289.5,1252.5C 285.132,1252.63 280.798,1252.3 276.5,1251.5C 274.024,1251.23 273.357,1251.9 274.5,1253.5C 246.801,1250.5 220.134,1243.83 194.5,1233.5C 195.552,1233.23 196.885,1233.06 198.5,1233C 196.934,1232.39 195.6,1231.56 194.5,1230.5 Z"/></g>
<g><path style="opacity:1" fill="#d0a48c" d="M 379.5,1252.5 C 373.231,1253.6 366.897,1254.27 360.5,1254.5C 359.942,1253.21 358.942,1252.38 357.5,1252C 367.144,1250.67 376.81,1250 386.5,1250C 383.809,1250.16 381.476,1250.99 379.5,1252.5 Z"/></g>
<g><path style="opacity:1" fill="#cfa28a" d="M 289.5,1252.5 C 295.395,1251.95 301.062,1252.61 306.5,1254.5C 316.988,1253.18 327.488,1253.18 338,1254.5C 339.722,1254.39 339.888,1253.89 338.5,1253C 344.5,1252.33 350.5,1252.33 356.5,1253C 354.825,1253.99 353.158,1254.82 351.5,1255.5C 325.766,1257.13 300.1,1256.46 274.5,1253.5C 273.357,1251.9 274.024,1251.23 276.5,1251.5C 280.798,1252.3 285.132,1252.63 289.5,1252.5 Z"/></g>
</svg>
