<?xml version="1.0" encoding="UTF-8"?>
<!DOCTYPE svg PUBLIC "-//W3C//DTD SVG 1.1//EN" "http://www.w3.org/Graphics/SVG/1.1/DTD/svg11.dtd">
<svg xmlns="http://www.w3.org/2000/svg" version="1.1" width="2000px" height="2000px" style="shape-rendering:geometricPrecision; text-rendering:geometricPrecision; image-rendering:optimizeQuality; fill-rule:evenodd; clip-rule:evenodd" xmlns:xlink="http://www.w3.org/1999/xlink">
<g><path style="opacity:1" fill="#654f44" d="M 373.5,198.5 C 378.316,199.326 383.316,199.826 388.5,200C 377.173,201.152 365.84,201.818 354.5,202C 355.737,201.768 356.737,201.268 357.5,200.5C 362.864,199.964 368.197,199.297 373.5,198.5 Z"/></g>
<g><path style="opacity:1" fill="#50372a" d="M 404.5,218.5 C 403.778,218.082 403.278,217.416 403,216.5C 402.232,224.223 398.398,229.723 391.5,233C 383.716,234.025 376.049,234.858 368.5,235.5C 364.481,235.646 360.481,235.979 356.5,236.5C 347.117,238.009 337.783,239.842 328.5,242C 324.11,242.772 319.777,242.606 315.5,241.5C 314.702,241.957 314.369,242.624 314.5,243.5C 304.311,238.099 300.978,229.765 304.5,218.5C 304.612,222.288 304.779,226.288 305,230.5C 305.317,216.569 312.484,209.069 326.5,208C 335.438,206.01 344.438,204.344 353.5,203C 351.292,202.809 349.292,202.309 347.5,201.5C 350.833,201.167 354.167,200.833 357.5,200.5C 356.737,201.268 355.737,201.768 354.5,202C 365.84,201.818 377.173,201.152 388.5,200C 383.316,199.826 378.316,199.326 373.5,198.5C 381.458,196.572 389.125,197.405 396.5,201C 402.014,205.529 404.681,211.362 404.5,218.5 Z"/></g>
<g><path style="opacity:1" fill="#644e43" d="M 347.5,201.5 C 349.292,202.309 351.292,202.809 353.5,203C 344.438,204.344 335.438,206.01 326.5,208C 312.484,209.069 305.317,216.569 305,230.5C 304.779,226.288 304.612,222.288 304.5,218.5C 306.674,214.16 310.007,210.994 314.5,209C 325.358,205.796 336.358,203.296 347.5,201.5 Z"/></g>
<g><path style="opacity:1" fill="#50372a" d="M 478.5,209.5 C 493.897,211.015 508.563,215.015 522.5,221.5C 522.082,222.222 521.416,222.722 520.5,223C 526.281,225.057 531.947,227.39 537.5,230C 539.197,230.384 540.863,230.218 542.5,229.5C 555.126,232.114 561.459,239.781 561.5,252.5C 560.732,251.737 560.232,250.737 560,249.5C 558.281,262.109 551.114,267.609 538.5,266C 519.418,257.417 499.751,250.417 479.5,245C 475.208,243.604 471.708,241.104 469,237.5C 468.329,238.252 467.496,238.586 466.5,238.5C 464.726,235.074 463.726,231.407 463.5,227.5C 465.011,229.476 465.844,231.809 466,234.5C 464.272,221.423 469.772,213.59 482.5,211C 480.942,210.79 479.609,210.29 478.5,209.5 Z"/></g>
<g><path style="opacity:1" fill="#482e21" d="M 522.5,221.5 C 529.629,223.205 536.296,225.872 542.5,229.5C 540.863,230.218 539.197,230.384 537.5,230C 531.947,227.39 526.281,225.057 520.5,223C 521.416,222.722 522.082,222.222 522.5,221.5 Z"/></g>
<g><path style="opacity:1" fill="#644e42" d="M 478.5,209.5 C 479.609,210.29 480.942,210.79 482.5,211C 469.772,213.59 464.272,221.423 466,234.5C 465.844,231.809 465.011,229.476 463.5,227.5C 464.148,217.853 469.148,211.853 478.5,209.5 Z"/></g>
<g><path style="opacity:1" fill="#280b01" d="M 368.5,235.5 C 367.158,236.637 364.325,237.303 360,237.5C 358.615,237.486 357.449,237.152 356.5,236.5C 360.481,235.979 364.481,235.646 368.5,235.5 Z"/></g>
<g><path style="opacity:1" fill="#371c11" d="M 404.5,218.5 C 403.69,226.955 399.356,232.788 391.5,236C 368.202,237.027 345.202,240.193 322.5,245.5C 319.562,245.432 316.895,244.766 314.5,243.5C 314.369,242.624 314.702,241.957 315.5,241.5C 319.777,242.606 324.11,242.772 328.5,242C 337.783,239.842 347.117,238.009 356.5,236.5C 357.449,237.152 358.615,237.486 360,237.5C 364.325,237.303 367.158,236.637 368.5,235.5C 376.049,234.858 383.716,234.025 391.5,233C 398.398,229.723 402.232,224.223 403,216.5C 403.278,217.416 403.778,218.082 404.5,218.5 Z"/></g>
<g><path style="opacity:1" fill="#50372a" d="M 248.5,267.5 C 248.665,264.482 248.498,261.482 248,258.5C 248.582,265.427 246.416,271.26 241.5,276C 222.304,287.095 203.971,299.428 186.5,313C 183.925,313.958 181.259,314.458 178.5,314.5C 174.602,314.189 170.935,313.356 167.5,312C 169.888,313.861 172.554,315.194 175.5,316C 174.906,316.464 174.239,316.631 173.5,316.5C 166.384,314.385 162.051,309.719 160.5,302.5C 161.251,298.182 162.417,293.848 164,289.5C 182.328,272.75 202.495,258.583 224.5,247C 223.552,246.517 222.552,246.351 221.5,246.5C 232.304,241.077 241.138,243.41 248,253.5C 249.588,258.277 249.755,262.943 248.5,267.5 Z"/></g>
<g><path style="opacity:1" fill="#391d12" d="M 561.5,252.5 C 557.675,265.83 549.009,270.996 535.5,268C 514.795,258.314 493.461,250.314 471.5,244C 469.627,242.296 467.96,240.463 466.5,238.5C 467.496,238.586 468.329,238.252 469,237.5C 471.708,241.104 475.208,243.604 479.5,245C 499.751,250.417 519.418,257.417 538.5,266C 551.114,267.609 558.281,262.109 560,249.5C 560.232,250.737 560.732,251.737 561.5,252.5 Z"/></g>
<g><path style="opacity:1" fill="#634c41" d="M 221.5,246.5 C 222.552,246.351 223.552,246.517 224.5,247C 202.495,258.583 182.328,272.75 164,289.5C 162.417,293.848 161.251,298.182 160.5,302.5C 158.877,294.538 161.21,287.704 167.5,282C 184.317,268.346 202.317,256.513 221.5,246.5 Z"/></g>
<g><path style="opacity:1" fill="#50372a" d="M 623.5,286.5 C 628.036,287.253 632.369,288.92 636.5,291.5C 650.806,303.806 664.14,317.14 676.5,331.5C 677.183,331.137 677.85,330.804 678.5,330.5C 686.676,335.715 690.009,343.048 688.5,352.5C 687.691,350.708 687.191,348.708 687,346.5C 686.088,360.749 678.588,366.916 664.5,365C 660.759,363.262 657.592,360.762 655,357.5C 654.493,358.996 654.993,360.163 656.5,361C 656.272,361.399 655.938,361.565 655.5,361.5C 652.129,358.129 649.129,354.463 646.5,350.5C 647.376,350.631 648.043,350.298 648.5,349.5C 637.135,337.135 625.135,325.468 612.5,314.5C 611.052,312.333 609.885,310 609,307.5C 608.722,308.416 608.222,309.082 607.5,309.5C 606.577,305.936 606.244,302.269 606.5,298.5C 607.268,299.263 607.768,300.263 608,301.5C 609.739,292.927 614.906,287.927 623.5,286.5 Z"/></g>
<g><path style="opacity:1" fill="#5e473c" d="M 622.5,284.5 C 623.609,285.29 624.942,285.79 626.5,286C 625.552,286.483 624.552,286.649 623.5,286.5C 614.906,287.927 609.739,292.927 608,301.5C 607.768,300.263 607.268,299.263 606.5,298.5C 608.986,290.686 614.32,286.019 622.5,284.5 Z"/></g>
<g><path style="opacity:1" fill="#462c1f" d="M 622.5,284.5 C 630.223,284.862 636.889,287.695 642.5,293C 655.741,304.406 667.741,316.906 678.5,330.5C 677.85,330.804 677.183,331.137 676.5,331.5C 664.14,317.14 650.806,303.806 636.5,291.5C 632.369,288.92 628.036,287.253 623.5,286.5C 624.552,286.649 625.552,286.483 626.5,286C 624.942,285.79 623.609,285.29 622.5,284.5 Z"/></g>
<g><path style="opacity:1" fill="#35190f" d="M 248.5,267.5 C 247.861,272.264 245.528,276.097 241.5,279C 222.465,289.044 204.798,301.044 188.5,315C 183.518,317.389 178.518,317.889 173.5,316.5C 174.239,316.631 174.906,316.464 175.5,316C 172.554,315.194 169.888,313.861 167.5,312C 170.935,313.356 174.602,314.189 178.5,314.5C 181.259,314.458 183.925,313.958 186.5,313C 203.971,299.428 222.304,287.095 241.5,276C 246.416,271.26 248.582,265.427 248,258.5C 248.498,261.482 248.665,264.482 248.5,267.5 Z"/></g>
<g><path style="opacity:1" fill="#452a1e" d="M 646.5,350.5 C 634.559,338.728 622.392,327.061 610,315.5C 608.878,313.593 608.045,311.593 607.5,309.5C 608.222,309.082 608.722,308.416 609,307.5C 609.885,310 611.052,312.333 612.5,314.5C 625.135,325.468 637.135,337.135 648.5,349.5C 648.043,350.298 647.376,350.631 646.5,350.5 Z"/></g>
<g><path style="opacity:1" fill="#50372a" d="M 128.5,363.5 C 127.637,362.537 126.97,362.537 126.5,363.5C 127.876,368.537 127.71,373.537 126,378.5C 113.474,396.211 102.474,414.878 93,434.5C 88.1887,440.272 82.022,442.606 74.5,441.5C 72.0576,440.101 69.7243,438.434 67.5,436.5C 67.6038,438.485 68.9371,439.985 71.5,441C 70.9056,441.464 70.2389,441.631 69.5,441.5C 64.584,438.57 61.584,434.236 60.5,428.5C 60.8333,428.5 61.1667,428.5 61.5,428.5C 62.5605,426.963 62.8938,423.963 62.5,419.5C 65.0078,415.818 67.0078,411.818 68.5,407.5C 77.8415,389.328 88.8415,372.162 101.5,356C 100.004,355.493 98.8373,355.993 98,357.5C 97.6012,357.272 97.4346,356.938 97.5,356.5C 107.219,348.335 116.719,348.668 126,357.5C 127.122,359.407 127.955,361.407 128.5,363.5 Z"/></g>
<g><path style="opacity:1" fill="#3c2015" d="M 688.5,352.5 C 684.676,365.079 676.342,369.913 663.5,367C 660.279,365.896 657.612,364.063 655.5,361.5C 655.938,361.565 656.272,361.399 656.5,361C 654.993,360.163 654.493,358.996 655,357.5C 657.592,360.762 660.759,363.262 664.5,365C 678.588,366.916 686.088,360.749 687,346.5C 687.191,348.708 687.691,350.708 688.5,352.5 Z"/></g>
<g><path style="opacity:1" fill="#654e43" d="M 68.5,407.5 C 65.4598,410.914 63.4598,414.914 62.5,419.5C 60.4833,422.267 60.1499,425.267 61.5,428.5C 61.1667,428.5 60.8333,428.5 60.5,428.5C 59.3483,424.946 59.515,421.28 61,417.5C 71.6829,396.11 83.8496,375.776 97.5,356.5C 97.4346,356.938 97.6012,357.272 98,357.5C 98.8373,355.993 100.004,355.493 101.5,356C 88.8415,372.162 77.8415,389.328 68.5,407.5 Z"/></g>
<g><path style="opacity:1" fill="#371b11" d="M 128.5,363.5 C 129.734,365.201 130.401,367.201 130.5,369.5C 129.698,374.073 128.198,378.406 126,382.5C 115.071,398.43 105.404,415.097 97,432.5C 95.1667,435 93.3333,437.5 91.5,440C 90.255,440.791 88.9217,441.291 87.5,441.5C 83.0202,442.662 78.6869,442.662 74.5,441.5C 82.022,442.606 88.1887,440.272 93,434.5C 102.474,414.878 113.474,396.211 126,378.5C 127.71,373.537 127.876,368.537 126.5,363.5C 126.97,362.537 127.637,362.537 128.5,363.5 Z"/></g>
<g><path style="opacity:1" fill="#77645a" d="M 68.5,407.5 C 67.0078,411.818 65.0078,415.818 62.5,419.5C 63.4598,414.914 65.4598,410.914 68.5,407.5 Z"/></g>
<g><path style="opacity:1" fill="#50372a" d="M 721.5,413.5 C 723.292,413.366 724.958,413.699 726.5,414.5C 726.082,415.222 725.416,415.722 724.5,416C 729.019,416.519 732.519,418.686 735,422.5C 738.865,429.565 742.198,436.898 745,444.5C 745.383,443.944 745.883,443.611 746.5,443.5C 747.404,444.209 747.737,445.209 747.5,446.5C 747.077,447.265 746.743,448.098 746.5,449C 749.865,457.297 752.532,465.797 754.5,474.5C 757.271,474.579 759.937,474.079 762.5,473C 760.153,472.666 757.819,472.833 755.5,473.5C 755.263,472.209 755.596,471.209 756.5,470.5C 770.922,469.194 785.256,467.527 799.5,465.5C 799.119,466.931 798.119,467.764 796.5,468C 801.167,468.667 805.833,468.667 810.5,468C 808.389,467.155 806.389,466.322 804.5,465.5C 819.903,466.072 827.07,474.072 826,489.5C 825.768,490.737 825.268,491.737 824.5,492.5C 824.66,490.801 824.494,489.134 824,487.5C 822.758,492.743 819.925,496.91 815.5,500C 804.413,501.904 793.413,503.404 782.5,504.5C 770.001,505.777 757.501,507.111 745,508.5C 738.626,509.08 733.293,507.08 729,502.5C 728.617,503.056 728.117,503.389 727.5,503.5C 726.108,501.727 724.941,499.727 724,497.5C 718.407,477.459 711.741,457.792 704,438.5C 703.188,434.311 703.355,430.311 704.5,426.5C 704.369,427.239 704.536,427.906 705,428.5C 708.068,419.766 714.235,415.266 723.5,415C 722.584,414.722 721.918,414.222 721.5,413.5 Z"/></g>
<g><path style="opacity:1" fill="#5c4439" d="M 721.5,413.5 C 721.918,414.222 722.584,414.722 723.5,415C 714.235,415.266 708.068,419.766 705,428.5C 704.536,427.906 704.369,427.239 704.5,426.5C 706.915,418.106 712.582,413.773 721.5,413.5 Z"/></g>
<g><path style="opacity:1" fill="#482e21" d="M 726.5,414.5 C 730.589,415.412 734.089,417.412 737,420.5C 740.732,427.96 743.898,435.626 746.5,443.5C 745.883,443.611 745.383,443.944 745,444.5C 742.198,436.898 738.865,429.565 735,422.5C 732.519,418.686 729.019,416.519 724.5,416C 725.416,415.722 726.082,415.222 726.5,414.5 Z"/></g>
<g><path style="opacity:1" fill="#766258" d="M 62.5,419.5 C 62.8938,423.963 62.5605,426.963 61.5,428.5C 60.1499,425.267 60.4833,422.267 62.5,419.5 Z"/></g>
<g><path style="opacity:1" fill="#3d2215" d="M 74.5,441.5 C 78.6869,442.662 83.0202,442.662 87.5,441.5C 85.3929,443.652 82.7262,444.652 79.5,444.5C 75.7756,444.408 72.4423,443.408 69.5,441.5C 70.2389,441.631 70.9056,441.464 71.5,441C 68.9371,439.985 67.6038,438.485 67.5,436.5C 69.7243,438.434 72.0576,440.101 74.5,441.5 Z"/></g>
<g><path style="opacity:1" fill="#472d20" d="M 747.5,446.5 C 750.46,454.437 753.46,462.437 756.5,470.5C 755.596,471.209 755.263,472.209 755.5,473.5C 757.819,472.833 760.153,472.666 762.5,473C 759.937,474.079 757.271,474.579 754.5,474.5C 752.532,465.797 749.865,457.297 746.5,449C 746.743,448.098 747.077,447.265 747.5,446.5 Z"/></g>
<g><path style="opacity:1" fill="#655045" d="M 799.5,465.5 C 801.167,465.5 802.833,465.5 804.5,465.5C 806.389,466.322 808.389,467.155 810.5,468C 805.833,468.667 801.167,468.667 796.5,468C 798.119,467.764 799.119,466.931 799.5,465.5 Z"/></g>
<g><path style="opacity:1" fill="#584034" d="M 924.5,467.5 C 937.301,469.232 949.967,471.232 962.5,473.5C 965.322,474.507 968.322,475.34 971.5,476C 953.841,473.917 936.174,471.584 918.5,469C 920.708,468.809 922.708,468.309 924.5,467.5 Z"/></g>
<g><path style="opacity:1" fill="#50372a" d="M 924.5,467.5 C 922.708,468.309 920.708,468.809 918.5,469C 936.174,471.584 953.841,473.917 971.5,476C 968.322,475.34 965.322,474.507 962.5,473.5C 981.68,473.5 989.847,482.833 987,501.5C 985.951,503.618 984.451,505.284 982.5,506.5C 982.631,505.761 982.464,505.094 982,504.5C 978.508,508.671 974.008,510.671 968.5,510.5C 952.617,507.383 936.617,505.55 920.5,505C 923.365,505.183 926.031,505.683 928.5,506.5C 919.799,506.23 911.133,505.563 902.5,504.5C 903.952,503.698 905.618,503.198 907.5,503C 896.928,502.428 890.761,496.928 889,486.5C 888.874,489.063 888.707,491.396 888.5,493.5C 886.909,490.039 886.242,486.372 886.5,482.5C 887.117,482.611 887.617,482.944 888,483.5C 889.119,478.761 891.619,474.928 895.5,472C 894.906,471.536 894.239,471.369 893.5,471.5C 895.649,469.254 898.316,467.754 901.5,467C 909.166,466.777 916.832,466.944 924.5,467.5 Z"/></g>
<g><path style="opacity:1" fill="#5b4338" d="M 893.5,471.5 C 894.239,471.369 894.906,471.536 895.5,472C 891.619,474.928 889.119,478.761 888,483.5C 887.617,482.944 887.117,482.611 886.5,482.5C 887.118,477.566 889.451,473.899 893.5,471.5 Z"/></g>
<g><path style="opacity:1" fill="#402519" d="M 902.5,504.5 C 896.08,503.081 891.413,499.415 888.5,493.5C 888.707,491.396 888.874,489.063 889,486.5C 890.761,496.928 896.928,502.428 907.5,503C 905.618,503.198 903.952,503.698 902.5,504.5 Z"/></g>
<g><path style="opacity:1" fill="#50372a" d="M 643.5,498.5 C 660.716,496.716 668.05,504.383 665.5,521.5C 665.631,520.761 665.464,520.094 665,519.5C 663.564,525.87 659.731,530.037 653.5,532C 632.395,539.068 611.728,546.902 591.5,555.5C 587.168,555.721 583.168,554.721 579.5,552.5C 577.193,551.023 575.36,549.023 574,546.5C 573.805,547.819 573.972,549.153 574.5,550.5C 570.058,545.859 568.725,540.526 570.5,534.5C 570.337,536.857 570.503,539.19 571,541.5C 571.207,534.922 573.707,529.422 578.5,525C 577.906,524.536 577.239,524.369 576.5,524.5C 583.721,520.021 591.387,516.188 599.5,513C 605.654,510.254 611.987,508.087 618.5,506.5C 618.082,507.222 617.416,507.722 616.5,508C 617,508.167 617.5,508.333 618,508.5C 627.642,504.731 637.475,501.564 647.5,499C 646.207,498.51 644.873,498.343 643.5,498.5 Z"/></g>
<g><path style="opacity:1" fill="#3c2015" d="M 824.5,492.5 C 823.137,496.702 820.47,499.869 816.5,502C 804.295,504.545 791.961,506.045 779.5,506.5C 780.952,505.698 782.618,505.198 784.5,505C 783.906,504.536 783.239,504.369 782.5,504.5C 793.413,503.404 804.413,501.904 815.5,500C 819.925,496.91 822.758,492.743 824,487.5C 824.494,489.134 824.66,490.801 824.5,492.5 Z"/></g>
<g><path style="opacity:1" fill="#50372a" d="M 1141.5,539.5 C 1140.4,542.666 1139.9,545.999 1140,549.5C 1140.28,548.584 1140.78,547.918 1141.5,547.5C 1141.54,550.089 1140.54,552.089 1138.5,553.5C 1138.06,552.769 1137.89,551.769 1138,550.5C 1132.48,558.841 1124.98,561.341 1115.5,558C 1095.49,548.885 1075.16,540.552 1054.5,533C 1052.67,531.833 1051.17,530.333 1050,528.5C 1048.94,525.066 1047.44,522.066 1045.5,519.5C 1046.91,504.937 1054.91,498.77 1069.5,501C 1091.72,508.277 1113.39,516.943 1134.5,527C 1139.22,529.871 1141.55,534.038 1141.5,539.5 Z"/></g>
<g><path style="opacity:1" fill="#5b4338" d="M 643.5,498.5 C 644.873,498.343 646.207,498.51 647.5,499C 637.475,501.564 627.642,504.731 618,508.5C 617.5,508.333 617,508.167 616.5,508C 617.416,507.722 618.082,507.222 618.5,506.5C 626.352,502.662 634.686,499.995 643.5,498.5 Z"/></g>
<g><path style="opacity:1" fill="#36190f" d="M 782.5,504.5 C 783.239,504.369 783.906,504.536 784.5,505C 782.618,505.198 780.952,505.698 779.5,506.5C 767.532,508.329 755.532,509.996 743.5,511.5C 736.755,511.461 731.421,508.794 727.5,503.5C 728.117,503.389 728.617,503.056 729,502.5C 733.293,507.08 738.626,509.08 745,508.5C 757.501,507.111 770.001,505.777 782.5,504.5 Z"/></g>
<g><path style="opacity:1" fill="#371a0f" d="M 982.5,506.5 C 979.11,510.78 974.61,513.113 969,513.5C 955.385,511.012 941.885,508.678 928.5,506.5C 926.031,505.683 923.365,505.183 920.5,505C 936.617,505.55 952.617,507.383 968.5,510.5C 974.008,510.671 978.508,508.671 982,504.5C 982.464,505.094 982.631,505.761 982.5,506.5 Z"/></g>
<g><path style="opacity:1" fill="#5b4338" d="M 576.5,524.5 C 577.239,524.369 577.906,524.536 578.5,525C 573.707,529.422 571.207,534.922 571,541.5C 570.503,539.19 570.337,536.857 570.5,534.5C 570.977,530.207 572.977,526.873 576.5,524.5 Z"/></g>
<g><path style="opacity:1" fill="#391d12" d="M 665.5,521.5 C 664.939,526.787 662.272,530.62 657.5,533C 635.965,539.622 614.965,547.622 594.5,557C 586.225,559.284 579.558,557.117 574.5,550.5C 573.972,549.153 573.805,547.819 574,546.5C 575.36,549.023 577.193,551.023 579.5,552.5C 578.262,552.81 578.262,553.31 579.5,554C 583.444,556.353 587.444,556.853 591.5,555.5C 611.728,546.902 632.395,539.068 653.5,532C 659.731,530.037 663.564,525.87 665,519.5C 665.464,520.094 665.631,520.761 665.5,521.5 Z"/></g>
<g><path style="opacity:1" fill="#614b3f" d="M 1141.5,539.5 C 1142.83,542.167 1142.83,544.833 1141.5,547.5C 1140.78,547.918 1140.28,548.584 1140,549.5C 1139.9,545.999 1140.4,542.666 1141.5,539.5 Z"/></g>
<g><path style="opacity:1" fill="#2d1005" d="M 579.5,552.5 C 583.168,554.721 587.168,555.721 591.5,555.5C 587.444,556.853 583.444,556.353 579.5,554C 578.262,553.31 578.262,552.81 579.5,552.5 Z"/></g>
<g><path style="opacity:1" fill="#3c2015" d="M 1045.5,519.5 C 1047.44,522.066 1048.94,525.066 1050,528.5C 1051.17,530.333 1052.67,531.833 1054.5,533C 1075.16,540.552 1095.49,548.885 1115.5,558C 1124.98,561.341 1132.48,558.841 1138,550.5C 1137.89,551.769 1138.06,552.769 1138.5,553.5C 1137.41,556.428 1135.41,558.594 1132.5,560C 1127.23,562.33 1121.89,562.663 1116.5,561C 1096.39,551.297 1075.73,542.964 1054.5,536C 1048.27,532.267 1045.27,526.767 1045.5,519.5 Z"/></g>
<g><path style="opacity:1" fill="#50372a" d="M 520.5,585.5 C 519.883,585.389 519.383,585.056 519,584.5C 518.207,590.563 515.374,595.396 510.5,599C 492.974,610.262 475.974,622.262 459.5,635C 455.057,636.94 450.39,637.94 445.5,638C 447.619,638.342 447.953,639.175 446.5,640.5C 438.875,638.538 433.875,633.872 431.5,626.5C 431.504,619.006 434.17,612.506 439.5,607C 458.036,592.795 477.369,579.795 497.5,568C 496.552,567.517 495.552,567.351 494.5,567.5C 504.993,563.833 513.159,566.833 519,576.5C 520.149,579.393 520.649,582.393 520.5,585.5 Z"/></g>
<g><path style="opacity:1" fill="#50372a" d="M 776.5,610.5 C 776.665,613.518 776.498,616.518 776,619.5C 775.667,609.5 775.333,599.5 775,589.5C 774.5,608.83 774.333,628.164 774.5,647.5C 774.221,652.227 773.554,656.893 772.5,661.5C 766.225,669.711 758.225,671.711 748.5,667.5C 748.167,667.667 747.833,667.833 747.5,668C 748.571,668.852 749.571,669.685 750.5,670.5C 744.184,669.015 740.351,665.015 739,658.5C 739.358,639.15 739.192,619.817 738.5,600.5C 739.29,601.609 739.79,602.942 740,604.5C 740.333,597.833 740.667,591.167 741,584.5C 742.774,579.727 745.94,576.227 750.5,574C 749.944,573.617 749.611,573.117 749.5,572.5C 762.994,568.33 771.827,572.997 776,586.5C 776.5,594.493 776.666,602.493 776.5,610.5 Z"/></g>
<g><path style="opacity:1" fill="#50372a" d="M 1269.5,606.5 C 1268.76,606.369 1268.09,606.536 1267.5,607C 1275.59,611.745 1280.26,618.578 1281.5,627.5C 1280.88,633.773 1277.88,638.439 1272.5,641.5C 1272.51,639.983 1273.18,638.816 1274.5,638C 1274.17,637.833 1273.83,637.667 1273.5,637.5C 1271.01,639.412 1268.34,640.746 1265.5,641.5C 1261.34,641.668 1257.34,641.002 1253.5,639.5C 1236.75,626.948 1219.42,615.115 1201.5,604C 1195.62,599.683 1192.79,593.849 1193,586.5C 1192.81,588.708 1192.31,590.708 1191.5,592.5C 1191.25,576.918 1198.92,569.752 1214.5,571C 1234.04,581.059 1252.38,592.892 1269.5,606.5 Z"/></g>
<g><path style="opacity:1" fill="#5c4439" d="M 749.5,572.5 C 749.611,573.117 749.944,573.617 750.5,574C 745.94,576.227 742.774,579.727 741,584.5C 740.667,591.167 740.333,597.833 740,604.5C 739.79,602.942 739.29,601.609 738.5,600.5C 737.886,593.279 738.719,586.279 741,579.5C 743.416,576.577 746.25,574.243 749.5,572.5 Z"/></g>
<g><path style="opacity:1" fill="#5c4539" d="M 494.5,567.5 C 495.552,567.351 496.552,567.517 497.5,568C 477.369,579.795 458.036,592.795 439.5,607C 434.17,612.506 431.504,619.006 431.5,626.5C 428.805,617.429 431.472,609.929 439.5,604C 457.203,590.82 475.537,578.653 494.5,567.5 Z"/></g>
<g><path style="opacity:1" fill="#3b1f14" d="M 1253.5,639.5 C 1254.35,640.966 1255.68,641.8 1257.5,642C 1260.37,642.801 1263.03,642.634 1265.5,641.5C 1268.34,640.746 1271.01,639.412 1273.5,637.5C 1273.83,637.667 1274.17,637.833 1274.5,638C 1273.18,638.816 1272.51,639.983 1272.5,641.5C 1266.31,645.275 1259.97,645.442 1253.5,642C 1235.38,628.551 1216.71,615.884 1197.5,604C 1194.31,600.779 1192.31,596.946 1191.5,592.5C 1192.31,590.708 1192.81,588.708 1193,586.5C 1192.79,593.849 1195.62,599.683 1201.5,604C 1219.42,615.115 1236.75,626.948 1253.5,639.5 Z"/></g>
<g><path style="opacity:1" fill="#624b40" d="M 1269.5,606.5 C 1278.97,610.452 1282.97,617.452 1281.5,627.5C 1280.26,618.578 1275.59,611.745 1267.5,607C 1268.09,606.536 1268.76,606.369 1269.5,606.5 Z"/></g>
<g><path style="opacity:1" fill="#3a1e13" d="M 776.5,610.5 C 777.833,617.5 777.833,624.5 776.5,631.5C 776.665,628.15 776.498,624.817 776,621.5C 775.83,630.343 775.33,639.01 774.5,647.5C 774.333,628.164 774.5,608.83 775,589.5C 775.333,599.5 775.667,609.5 776,619.5C 776.498,616.518 776.665,613.518 776.5,610.5 Z"/></g>
<g><path style="opacity:1" fill="#381d12" d="M 520.5,585.5 C 520.279,590.776 518.279,595.276 514.5,599C 495.484,611.507 476.817,624.507 458.5,638C 454.654,639.536 450.654,640.369 446.5,640.5C 447.953,639.175 447.619,638.342 445.5,638C 450.39,637.94 455.057,636.94 459.5,635C 475.974,622.262 492.974,610.262 510.5,599C 515.374,595.396 518.207,590.563 519,584.5C 519.383,585.056 519.883,585.389 520.5,585.5 Z"/></g>
<g><path style="opacity:1" fill="#230600" d="M 1253.5,639.5 C 1257.34,641.002 1261.34,641.668 1265.5,641.5C 1263.03,642.634 1260.37,642.801 1257.5,642C 1255.68,641.8 1254.35,640.966 1253.5,639.5 Z"/></g>
<g><path style="opacity:1" fill="#442a1c" d="M 776.5,631.5 C 776.666,639.84 776.5,648.173 776,656.5C 775.613,659.599 774.446,662.266 772.5,664.5C 772.5,663.5 772.5,662.5 772.5,661.5C 773.554,656.893 774.221,652.227 774.5,647.5C 775.33,639.01 775.83,630.343 776,621.5C 776.498,624.817 776.665,628.15 776.5,631.5 Z"/></g>
<g><path style="opacity:1" fill="#3c2015" d="M 772.5,661.5 C 772.5,662.5 772.5,663.5 772.5,664.5C 768.58,669.794 763.246,672.46 756.5,672.5C 754.201,672.401 752.201,671.734 750.5,670.5C 749.571,669.685 748.571,668.852 747.5,668C 747.833,667.833 748.167,667.667 748.5,667.5C 758.225,671.711 766.225,669.711 772.5,661.5 Z"/></g>
<g><path style="opacity:1" fill="#50372a" d="M 1387.5,708.5 C 1386.96,708.56 1386.62,708.893 1386.5,709.5C 1390.48,713.985 1394.65,718.318 1399,722.5C 1400.81,726.976 1401.81,731.643 1402,736.5C 1402.18,733.635 1402.68,730.969 1403.5,728.5C 1403.66,731.518 1403.5,734.518 1403,737.5C 1402.58,740.025 1401.41,742.025 1399.5,743.5C 1398.78,743.082 1398.28,742.416 1398,741.5C 1395.2,745.636 1391.37,748.136 1386.5,749C 1387.42,749.278 1388.08,749.778 1388.5,750.5C 1385.72,752.413 1382.72,752.413 1379.5,750.5C 1379.92,749.778 1380.58,749.278 1381.5,749C 1378.62,748.044 1375.96,746.711 1373.5,745C 1371.24,742.534 1368.91,740.367 1366.5,738.5C 1366.63,737.761 1366.46,737.094 1366,736.5C 1359.24,729.239 1352.08,722.572 1344.5,716.5C 1337.2,710.031 1330.37,703.031 1324,695.5C 1322.34,690.543 1322,685.543 1323,680.5C 1322.22,683.097 1321.72,683.097 1321.5,680.5C 1326.7,669.924 1335.03,666.424 1346.5,670C 1349.43,671.271 1352.1,672.938 1354.5,675C 1365.7,686.035 1376.7,697.202 1387.5,708.5 Z"/></g>
<g><path style="opacity:1" fill="#50372a" d="M 394.5,679.5 C 393.521,679.542 392.521,679.542 391.5,679.5C 396.503,686.027 396.669,692.693 392,699.5C 378.771,715.623 366.771,732.623 356,750.5C 346.648,759.754 337.315,759.754 328,750.5C 327.536,751.094 327.369,751.761 327.5,752.5C 325.331,750.66 323.998,748.326 323.5,745.5C 324.222,745.918 324.722,746.584 325,747.5C 325.137,744.32 324.637,741.32 323.5,738.5C 323.232,736.901 323.566,735.568 324.5,734.5C 324.351,735.552 324.517,736.552 325,737.5C 336.811,715.38 350.978,694.88 367.5,676C 369.717,674.725 372.051,673.725 374.5,673C 373.207,672.51 371.873,672.343 370.5,672.5C 377.3,669.525 383.967,670.025 390.5,674C 392.464,675.451 393.797,677.284 394.5,679.5 Z"/></g>
<g><path style="opacity:1" fill="#5d453a" d="M 370.5,672.5 C 371.873,672.343 373.207,672.51 374.5,673C 372.051,673.725 369.717,674.725 367.5,676C 350.978,694.88 336.811,715.38 325,737.5C 324.517,736.552 324.351,735.552 324.5,734.5C 335.915,712.577 349.915,692.41 366.5,674C 367.745,673.209 369.078,672.709 370.5,672.5 Z"/></g>
<g><path style="opacity:1" fill="#3d2116" d="M 1321.5,680.5 C 1321.72,683.097 1322.22,683.097 1323,680.5C 1322,685.543 1322.34,690.543 1324,695.5C 1330.37,703.031 1337.2,710.031 1344.5,716.5C 1344.5,717.167 1344.5,717.833 1344.5,718.5C 1336.66,711.5 1329.16,704.167 1322,696.5C 1320.31,691.072 1320.14,685.739 1321.5,680.5 Z"/></g>
<g><path style="opacity:1" fill="#391d12" d="M 394.5,679.5 C 398.303,685.947 398.47,692.614 395,699.5C 380.617,715.933 367.95,733.599 357,752.5C 347.086,763.05 337.253,763.05 327.5,752.5C 327.369,751.761 327.536,751.094 328,750.5C 337.315,759.754 346.648,759.754 356,750.5C 366.771,732.623 378.771,715.623 392,699.5C 396.669,692.693 396.503,686.027 391.5,679.5C 392.521,679.542 393.521,679.542 394.5,679.5 Z"/></g>
<g><path style="opacity:1" fill="#5d463a" d="M 1387.5,708.5 C 1395.45,713.115 1400.79,719.782 1403.5,728.5C 1402.68,730.969 1402.18,733.635 1402,736.5C 1401.81,731.643 1400.81,726.976 1399,722.5C 1394.65,718.318 1390.48,713.985 1386.5,709.5C 1386.62,708.893 1386.96,708.56 1387.5,708.5 Z"/></g>
<g><path style="opacity:1" fill="#291005" d="M 1344.5,716.5 C 1352.08,722.572 1359.24,729.239 1366,736.5C 1366.46,737.094 1366.63,737.761 1366.5,738.5C 1359.45,731.442 1352.11,724.775 1344.5,718.5C 1344.5,717.833 1344.5,717.167 1344.5,716.5 Z"/></g>
<g><path style="opacity:1" fill="#50372a" d="M 764.5,753.5 C 763.698,752.048 763.198,750.382 763,748.5C 759.597,768.253 755.763,787.92 751.5,807.5C 751.543,808.416 751.876,809.083 752.5,809.5C 752.58,812.781 751.913,815.781 750.5,818.5C 750.649,817.448 750.483,816.448 750,815.5C 745.505,829.165 736.672,833.165 723.5,827.5C 723.213,828.2 722.88,828.867 722.5,829.5C 716.578,826.171 713.578,821.004 713.5,814C 718.237,791.885 722.737,769.718 727,747.5C 731.336,734.414 740.17,729.914 753.5,734C 761.427,738.014 765.094,744.514 764.5,753.5 Z"/></g>
<g><path style="opacity:1" fill="#3b2015" d="M 1344.5,718.5 C 1352.11,724.775 1359.45,731.442 1366.5,738.5C 1368.91,740.367 1371.24,742.534 1373.5,745C 1375.96,746.711 1378.62,748.044 1381.5,749C 1380.58,749.278 1379.92,749.778 1379.5,750.5C 1377.49,749.772 1375.49,748.938 1373.5,748C 1363.63,738.298 1353.96,728.465 1344.5,718.5 Z"/></g>
<g><path style="opacity:1" fill="#604b3f" d="M 323.5,738.5 C 324.637,741.32 325.137,744.32 325,747.5C 324.722,746.584 324.222,745.918 323.5,745.5C 322.244,743.059 322.244,740.726 323.5,738.5 Z"/></g>
<g><path style="opacity:1" fill="#43271a" d="M 1399.5,743.5 C 1397.06,747.563 1393.4,749.897 1388.5,750.5C 1388.08,749.778 1387.42,749.278 1386.5,749C 1391.37,748.136 1395.2,745.636 1398,741.5C 1398.28,742.416 1398.78,743.082 1399.5,743.5 Z"/></g>
<g><path style="opacity:1" fill="#50372a" d="M 1489.5,827.5 C 1488.76,827.369 1488.09,827.536 1487.5,828C 1492.67,835.167 1497.83,842.333 1503,849.5C 1504.04,852.753 1504.7,856.086 1505,859.5C 1505.5,857.527 1505.66,855.527 1505.5,853.5C 1507.2,866.834 1501.2,874.501 1487.5,876.5C 1485.79,876.272 1484.13,875.938 1482.5,875.5C 1482.92,874.778 1483.58,874.278 1484.5,874C 1480.28,872.974 1476.78,870.807 1474,867.5C 1462.44,850.6 1450.1,834.266 1437,818.5C 1433.9,813.964 1432.23,808.964 1432,803.5C 1431.81,805.708 1431.31,807.708 1430.5,809.5C 1429.62,796.039 1435.96,788.706 1449.5,787.5C 1456.65,788.47 1462.48,791.804 1467,797.5C 1474.75,807.351 1482.25,817.351 1489.5,827.5 Z"/></g>
<g><path style="opacity:1" fill="#3d2115" d="M 764.5,753.5 C 761.118,772.421 757.118,791.087 752.5,809.5C 751.876,809.083 751.543,808.416 751.5,807.5C 755.763,787.92 759.597,768.253 763,748.5C 763.198,750.382 763.698,752.048 764.5,753.5 Z"/></g>
<g><path style="opacity:1" fill="#50372a" d="M 322.5,826.5 C 322.565,826.938 322.399,827.272 322,827.5C 321.444,825.405 320.944,825.238 320.5,827C 321.55,830.455 321.717,833.955 321,837.5C 316.525,858.636 313.525,879.969 312,901.5C 308.723,908.398 303.223,912.232 295.5,913C 296.416,913.278 297.082,913.778 297.5,914.5C 286.414,914.078 280.081,908.412 278.5,897.5C 280.166,889.528 280.499,881.528 279.5,873.5C 280.246,860.358 282.079,847.358 285,834.5C 288.445,815.698 298.945,809.865 316.5,817C 319.665,819.51 321.665,822.676 322.5,826.5 Z"/></g>
<g><path style="opacity:1" fill="#3f2318" d="M 750.5,818.5 C 748.355,827.926 742.355,832.593 732.5,832.5C 728.776,832.408 725.442,831.408 722.5,829.5C 722.88,828.867 723.213,828.2 723.5,827.5C 736.672,833.165 745.505,829.165 750,815.5C 750.483,816.448 750.649,817.448 750.5,818.5 Z"/></g>
<g><path style="opacity:1" fill="#3d2116" d="M 322.5,826.5 C 323.645,830.311 323.812,834.311 323,838.5C 318.832,860.011 315.832,881.678 314,903.5C 310.518,910.141 305.018,913.808 297.5,914.5C 297.082,913.778 296.416,913.278 295.5,913C 303.223,912.232 308.723,908.398 312,901.5C 313.525,879.969 316.525,858.636 321,837.5C 321.717,833.955 321.55,830.455 320.5,827C 320.944,825.238 321.444,825.405 322,827.5C 322.399,827.272 322.565,826.938 322.5,826.5 Z"/></g>
<g><path style="opacity:1" fill="#3b2015" d="M 1482.5,875.5 C 1477.39,873.907 1473.23,870.907 1470,866.5C 1458.97,849.784 1446.97,833.784 1434,818.5C 1432.34,815.673 1431.17,812.673 1430.5,809.5C 1431.31,807.708 1431.81,805.708 1432,803.5C 1432.23,808.964 1433.9,813.964 1437,818.5C 1450.1,834.266 1462.44,850.6 1474,867.5C 1476.78,870.807 1480.28,872.974 1484.5,874C 1483.58,874.278 1482.92,874.778 1482.5,875.5 Z"/></g>
<g><path style="opacity:1" fill="#60493e" d="M 1489.5,827.5 C 1494.31,833.765 1499.15,840.098 1504,846.5C 1504.98,848.74 1505.48,851.073 1505.5,853.5C 1505.66,855.527 1505.5,857.527 1505,859.5C 1504.7,856.086 1504.04,852.753 1503,849.5C 1497.83,842.333 1492.67,835.167 1487.5,828C 1488.09,827.536 1488.76,827.369 1489.5,827.5 Z"/></g>
<g><path style="opacity:1" fill="#5f483d" d="M 279.5,873.5 C 280.499,881.528 280.166,889.528 278.5,897.5C 277.842,896.207 277.508,894.707 277.5,893C 277.973,886.329 278.639,879.829 279.5,873.5 Z"/></g>
<g><path style="opacity:1" fill="#50372a" d="M 723.5,913.5 C 723.937,908.588 723.104,903.922 721,899.5C 720.346,898.304 719.846,898.304 719.5,899.5C 722.05,903.519 722.883,907.852 722,912.5C 718.057,925.05 713.557,937.383 708.5,949.5C 708.624,950.107 708.957,950.44 709.5,950.5C 709.737,951.791 709.404,952.791 708.5,953.5C 708.631,952.761 708.464,952.094 708,951.5C 704.333,959.5 700.667,967.5 697,975.5C 690.131,985.173 681.631,986.84 671.5,980.5C 669.728,978.38 667.728,976.713 665.5,975.5C 663.967,973.366 663.3,970.866 663.5,968C 663.506,965.967 663.839,964.134 664.5,962.5C 664.351,963.552 664.517,964.552 665,965.5C 670.997,950.845 676.997,936.178 683,921.5C 683.74,920.251 683.573,919.251 682.5,918.5C 684.45,910.815 687.283,903.482 691,896.5C 700.388,887.634 710.055,887.3 720,895.5C 724.243,901.042 725.41,907.042 723.5,913.5 Z"/></g>
<g><path style="opacity:1" fill="#50372a" d="M 1560.5,935.5 C 1558.89,934.031 1558.39,934.365 1559,936.5C 1565.25,946.67 1571.25,957.003 1577,967.5C 1577.46,966.906 1577.63,966.239 1577.5,965.5C 1581.92,973.344 1586.09,981.344 1590,989.5C 1590.67,993.833 1590.67,998.167 1590,1002.5C 1588.63,1005.27 1586.8,1007.6 1584.5,1009.5C 1583.85,1009.2 1583.18,1008.86 1582.5,1008.5C 1574.97,1014.74 1566.81,1013.4 1558,1004.5C 1547.33,985.167 1536.67,965.833 1526,946.5C 1525.01,943.576 1524.35,940.576 1524,937.5C 1523.5,939.81 1523.34,942.143 1523.5,944.5C 1520.86,931.948 1525.86,924.114 1538.5,921C 1549.3,920.567 1556.63,925.4 1560.5,935.5 Z"/></g>
<g><path style="opacity:1" fill="#594136" d="M 682.5,918.5 C 683.573,919.251 683.74,920.251 683,921.5C 676.997,936.178 670.997,950.845 665,965.5C 664.517,964.552 664.351,963.552 664.5,962.5C 669.981,947.549 675.981,932.882 682.5,918.5 Z"/></g>
<g><path style="opacity:1" fill="#381b11" d="M 723.5,913.5 C 719.993,926.364 715.327,938.697 709.5,950.5C 708.957,950.44 708.624,950.107 708.5,949.5C 713.557,937.383 718.057,925.05 722,912.5C 722.883,907.852 722.05,903.519 719.5,899.5C 719.846,898.304 720.346,898.304 721,899.5C 723.104,903.922 723.937,908.588 723.5,913.5 Z"/></g>
<g><path style="opacity:1" fill="#574034" d="M 1560.5,935.5 C 1566.67,945.167 1572.34,955.167 1577.5,965.5C 1577.63,966.239 1577.46,966.906 1577,967.5C 1571.25,957.003 1565.25,946.67 1559,936.5C 1558.39,934.365 1558.89,934.031 1560.5,935.5 Z"/></g>
<g><path style="opacity:1" fill="#41261a" d="M 708.5,953.5 C 705.564,962.042 702.064,970.375 698,978.5C 692.556,985.539 685.39,988.039 676.5,986C 670.991,984.322 667.324,980.822 665.5,975.5C 667.728,976.713 669.728,978.38 671.5,980.5C 681.631,986.84 690.131,985.173 697,975.5C 700.667,967.5 704.333,959.5 708,951.5C 708.464,952.094 708.631,952.761 708.5,953.5 Z"/></g>
<g><path style="opacity:1" fill="#50372a" d="M 328.5,981.5 C 327.038,980.542 325.705,979.376 324.5,978C 323.833,977.333 323.167,977.333 322.5,978C 325.04,980.205 327.207,982.705 329,985.5C 334.468,1000.45 341.968,1014.12 351.5,1026.5C 353.7,1030.88 356.533,1034.88 360,1038.5C 363.852,1047.46 362.019,1055.13 354.5,1061.5C 352.5,1061.83 350.5,1062.17 348.5,1062.5C 345.15,1062.33 341.817,1062.5 338.5,1063C 340.932,1064.09 340.598,1064.59 337.5,1064.5C 334.586,1063.09 332.086,1061.09 330,1058.5C 318.724,1044.28 309.224,1028.95 301.5,1012.5C 302.363,1013.46 303.03,1013.46 303.5,1012.5C 299.878,1006.09 297.545,999.26 296.5,992C 296.6,986.229 298.933,981.562 303.5,978C 302.906,977.536 302.239,977.369 301.5,977.5C 308.673,971.484 316.34,970.984 324.5,976C 326.464,977.451 327.797,979.284 328.5,981.5 Z"/></g>
<g><path style="opacity:1" fill="#3f2318" d="M 1584.5,1009.5 C 1581.63,1013.18 1577.8,1014.85 1573,1014.5C 1567.11,1014.65 1562.11,1012.65 1558,1008.5C 1548.25,990.671 1538.25,973.004 1528,955.5C 1525.93,952.029 1524.43,948.362 1523.5,944.5C 1523.34,942.143 1523.5,939.81 1524,937.5C 1524.35,940.576 1525.01,943.576 1526,946.5C 1536.67,965.833 1547.33,985.167 1558,1004.5C 1566.81,1013.4 1574.97,1014.74 1582.5,1008.5C 1583.18,1008.86 1583.85,1009.2 1584.5,1009.5 Z"/></g>
<g><path style="opacity:1" fill="#614a3e" d="M 301.5,977.5 C 302.239,977.369 302.906,977.536 303.5,978C 298.933,981.562 296.6,986.229 296.5,992C 297.545,999.26 299.878,1006.09 303.5,1012.5C 303.03,1013.46 302.363,1013.46 301.5,1012.5C 297.891,1006.17 295.558,999.341 294.5,992C 294.091,985.673 296.424,980.84 301.5,977.5 Z"/></g>
<g><path style="opacity:1" fill="#3e2116" d="M 328.5,981.5 C 332.209,988.59 335.709,995.923 339,1003.5C 342.995,1010.32 347.162,1016.98 351.5,1023.5C 350.884,1024.2 350.884,1025.2 351.5,1026.5C 341.968,1014.12 334.468,1000.45 329,985.5C 327.207,982.705 325.04,980.205 322.5,978C 323.167,977.333 323.833,977.333 324.5,978C 325.705,979.376 327.038,980.542 328.5,981.5 Z"/></g>
<g><path style="opacity:1" fill="#50372a" d="M 623.5,1031.5 C 623.082,1032.22 622.416,1032.72 621.5,1033C 630.307,1031.87 637.307,1034.7 642.5,1041.5C 644.673,1048.8 643.506,1055.47 639,1061.5C 623.621,1077.22 606.788,1091.06 588.5,1103C 584.417,1105.1 580.083,1106.44 575.5,1107C 577.769,1107.76 579.936,1107.59 582,1106.5C 582.464,1107.09 582.631,1107.76 582.5,1108.5C 568.72,1109.74 560.72,1103.41 558.5,1089.5C 558.896,1085.58 560.063,1081.91 562,1078.5C 573.257,1070.12 584.423,1061.62 595.5,1053C 602.136,1047.37 608.469,1041.37 614.5,1035C 617.072,1032.71 620.072,1031.55 623.5,1031.5 Z"/></g>
<g><path style="opacity:1" fill="#452a1e" d="M 645.5,1053.5 C 645.021,1049.36 644.021,1045.36 642.5,1041.5C 637.307,1034.7 630.307,1031.87 621.5,1033C 622.416,1032.72 623.082,1032.22 623.5,1031.5C 636.602,1029.73 644.269,1035.57 646.5,1049C 646.227,1050.53 645.894,1052.03 645.5,1053.5 Z"/></g>
<g><path style="opacity:1" fill="#44291c" d="M 351.5,1023.5 C 355.798,1028.07 359.631,1033.07 363,1038.5C 367.482,1054.67 361.482,1064 345,1066.5C 342.179,1066.59 339.679,1065.93 337.5,1064.5C 340.598,1064.59 340.932,1064.09 338.5,1063C 341.817,1062.5 345.15,1062.33 348.5,1062.5C 346.369,1063.31 344.036,1063.81 341.5,1064C 346.304,1065.03 350.637,1064.2 354.5,1061.5C 362.019,1055.13 363.852,1047.46 360,1038.5C 356.533,1034.88 353.7,1030.88 351.5,1026.5C 350.884,1025.2 350.884,1024.2 351.5,1023.5 Z"/></g>
<g><path style="opacity:1" fill="#2d1106" d="M 354.5,1061.5 C 350.637,1064.2 346.304,1065.03 341.5,1064C 344.036,1063.81 346.369,1063.31 348.5,1062.5C 350.5,1062.17 352.5,1061.83 354.5,1061.5 Z"/></g>
<g><path style="opacity:1" fill="#50372a" d="M 1633.5,1080.5 C 1640.93,1095.76 1647.59,1111.43 1653.5,1127.5C 1652.9,1127.74 1652.57,1128.24 1652.5,1129C 1655.98,1135.1 1657.15,1141.6 1656,1148.5C 1655.24,1151.47 1653.74,1153.97 1651.5,1156C 1652.09,1156.46 1652.76,1156.63 1653.5,1156.5C 1647.91,1162.2 1641.25,1163.87 1633.5,1161.5C 1634.26,1160.73 1635.26,1160.23 1636.5,1160C 1631.12,1158.4 1626.96,1155.23 1624,1150.5C 1623.54,1151.09 1623.37,1151.76 1623.5,1152.5C 1622.6,1151.79 1622.26,1150.79 1622.5,1149.5C 1623.04,1149.44 1623.38,1149.11 1623.5,1148.5C 1615.77,1128.71 1607.77,1109.04 1599.5,1089.5C 1597.04,1079.91 1600.38,1073.08 1609.5,1069C 1621.07,1066.7 1628.57,1071.2 1632,1082.5C 1632.72,1081.96 1633.22,1081.29 1633.5,1080.5 Z"/></g>
<g><path style="opacity:1" fill="#43291d" d="M 1633.5,1080.5 C 1633.22,1081.29 1632.72,1081.96 1632,1082.5C 1628.57,1071.2 1621.07,1066.7 1609.5,1069C 1600.38,1073.08 1597.04,1079.91 1599.5,1089.5C 1598.98,1091.19 1598.65,1092.86 1598.5,1094.5C 1592.66,1078.51 1597.99,1068.84 1614.5,1065.5C 1624.13,1066.46 1630.46,1071.46 1633.5,1080.5 Z"/></g>
<g><path style="opacity:1" fill="#675247" d="M 560.5,1083.5 C 561.645,1087.31 561.812,1091.31 561,1095.5C 560.5,1093.5 560,1091.5 559.5,1089.5C 560.156,1087.55 560.489,1085.55 560.5,1083.5 Z"/></g>
<g><path style="opacity:1" fill="#50372a" d="M 426.5,1087.5 C 424.708,1088.31 422.708,1088.81 420.5,1089C 429.995,1090.83 439.162,1093.67 448,1097.5C 448.725,1095.84 449.892,1095.34 451.5,1096C 449.122,1096.97 449.456,1097.64 452.5,1098C 457.431,1099.32 462.431,1100.15 467.5,1100.5C 470.518,1100.66 473.518,1100.5 476.5,1100C 475.584,1099.72 474.918,1099.22 474.5,1098.5C 480.21,1098.47 485.877,1098.97 491.5,1100C 493.066,1100.61 494.4,1101.44 495.5,1102.5C 495.082,1103.22 494.416,1103.72 493.5,1104C 501.406,1109.69 503.573,1117.19 500,1126.5C 494.974,1133.32 488.14,1135.98 479.5,1134.5C 473.137,1134.59 466.804,1134.26 460.5,1133.5C 452.616,1131.69 444.616,1130.19 436.5,1129C 438.066,1129.61 439.4,1130.44 440.5,1131.5C 429.899,1129.41 419.899,1125.74 410.5,1120.5C 405.262,1115.74 403.262,1110.08 404.5,1103.5C 404.678,1106.22 405.178,1108.88 406,1111.5C 404.982,1102.38 408.149,1095.21 415.5,1090C 415.272,1089.6 414.938,1089.43 414.5,1089.5C 418.235,1087.23 422.235,1086.57 426.5,1087.5 Z"/></g>
<g><path style="opacity:1" fill="#5f483d" d="M 414.5,1089.5 C 414.938,1089.43 415.272,1089.6 415.5,1090C 408.149,1095.21 404.982,1102.38 406,1111.5C 405.178,1108.88 404.678,1106.22 404.5,1103.5C 404.91,1096.66 408.243,1091.99 414.5,1089.5 Z"/></g>
<g><path style="opacity:1" fill="#462b1e" d="M 426.5,1087.5 C 437.749,1091.47 449.082,1094.81 460.5,1097.5C 462.103,1098.87 464.437,1099.87 467.5,1100.5C 462.431,1100.15 457.431,1099.32 452.5,1098C 449.456,1097.64 449.122,1096.97 451.5,1096C 449.892,1095.34 448.725,1095.84 448,1097.5C 439.162,1093.67 429.995,1090.83 420.5,1089C 422.708,1088.81 424.708,1088.31 426.5,1087.5 Z"/></g>
<g><path style="opacity:1" fill="#3a1f14" d="M 642.5,1041.5 C 644.021,1045.36 645.021,1049.36 645.5,1053.5C 644.62,1056.26 643.454,1058.93 642,1061.5C 624.378,1080.2 604.545,1095.86 582.5,1108.5C 582.631,1107.76 582.464,1107.09 582,1106.5C 579.936,1107.59 577.769,1107.76 575.5,1107C 580.083,1106.44 584.417,1105.1 588.5,1103C 606.788,1091.06 623.621,1077.22 639,1061.5C 643.506,1055.47 644.673,1048.8 642.5,1041.5 Z"/></g>
<g><path style="opacity:1" fill="#5d463a" d="M 460.5,1097.5 C 465.23,1097.28 469.897,1097.62 474.5,1098.5C 474.918,1099.22 475.584,1099.72 476.5,1100C 473.518,1100.5 470.518,1100.66 467.5,1100.5C 464.437,1099.87 462.103,1098.87 460.5,1097.5 Z"/></g>
<g><path style="opacity:1" fill="#3c2014" d="M 1599.5,1089.5 C 1607.77,1109.04 1615.77,1128.71 1623.5,1148.5C 1623.38,1149.11 1623.04,1149.44 1622.5,1149.5C 1614.52,1131.24 1606.52,1112.91 1598.5,1094.5C 1598.65,1092.86 1598.98,1091.19 1599.5,1089.5 Z"/></g>
<g><path style="opacity:1" fill="#402417" d="M 495.5,1102.5 C 503.794,1109.63 505.628,1118.3 501,1128.5C 499.167,1131.67 496.667,1134.17 493.5,1136C 475.461,1138.01 457.795,1136.51 440.5,1131.5C 439.4,1130.44 438.066,1129.61 436.5,1129C 444.616,1130.19 452.616,1131.69 460.5,1133.5C 462.817,1135.01 466.651,1135.68 472,1135.5C 474.69,1135.5 477.19,1135.16 479.5,1134.5C 488.14,1135.98 494.974,1133.32 500,1126.5C 503.573,1117.19 501.406,1109.69 493.5,1104C 494.416,1103.72 495.082,1103.22 495.5,1102.5 Z"/></g>
<g><path style="opacity:1" fill="#2b0e02" d="M 460.5,1133.5 C 466.804,1134.26 473.137,1134.59 479.5,1134.5C 477.19,1135.16 474.69,1135.5 472,1135.5C 466.651,1135.68 462.817,1135.01 460.5,1133.5 Z"/></g>
<g><path style="opacity:1" fill="#574034" d="M 1653.5,1127.5 C 1658.52,1134.85 1659.69,1142.85 1657,1151.5C 1656.3,1153.58 1655.14,1155.25 1653.5,1156.5C 1652.76,1156.63 1652.09,1156.46 1651.5,1156C 1653.74,1153.97 1655.24,1151.47 1656,1148.5C 1657.15,1141.6 1655.98,1135.1 1652.5,1129C 1652.57,1128.24 1652.9,1127.74 1653.5,1127.5 Z"/></g>
<g><path style="opacity:1" fill="#44281c" d="M 1633.5,1161.5 C 1628.92,1159.92 1625.58,1156.92 1623.5,1152.5C 1623.37,1151.76 1623.54,1151.09 1624,1150.5C 1626.96,1155.23 1631.12,1158.4 1636.5,1160C 1635.26,1160.23 1634.26,1160.73 1633.5,1161.5 Z"/></g>
<g><path style="opacity:1" fill="#50372a" d="M 1702.5,1312.5 C 1702.12,1311.87 1701.79,1311.2 1701.5,1310.5C 1692.73,1314.39 1685.23,1312.72 1679,1305.5C 1676.41,1300.05 1674.41,1294.38 1673,1288.5C 1672.58,1287.24 1671.75,1286.58 1670.5,1286.5C 1669.6,1285.79 1669.26,1284.79 1669.5,1283.5C 1670.22,1283.92 1670.72,1284.58 1671,1285.5C 1668.18,1273.02 1664.51,1260.68 1660,1248.5C 1657.34,1241.57 1657.01,1234.57 1659,1227.5C 1660.83,1225.67 1662.67,1223.83 1664.5,1222C 1663.83,1221.33 1663.17,1221.33 1662.5,1222C 1661.29,1223.38 1659.96,1224.54 1658.5,1225.5C 1659.2,1223.28 1660.54,1221.45 1662.5,1220C 1673.14,1214.45 1682.3,1216.28 1690,1225.5C 1698,1247.17 1705,1269.17 1711,1291.5C 1712.91,1300.63 1710.08,1307.63 1702.5,1312.5 Z"/></g>
<g><path style="opacity:1" fill="#361c11" d="M 1668.5,1218.5 C 1672.18,1218.33 1675.85,1218.5 1679.5,1219C 1680.67,1219.42 1681.67,1220.09 1682.5,1221C 1679.61,1220.44 1676.61,1219.94 1673.5,1219.5C 1671.13,1219.92 1668.8,1220.09 1666.5,1220C 1667.42,1219.72 1668.08,1219.22 1668.5,1218.5 Z"/></g>
<g><path style="opacity:1" fill="#41271a" d="M 1669.5,1283.5 C 1664.6,1268.64 1659.77,1253.64 1655,1238.5C 1654.26,1233.55 1655.43,1229.22 1658.5,1225.5C 1659.96,1224.54 1661.29,1223.38 1662.5,1222C 1663.17,1221.33 1663.83,1221.33 1664.5,1222C 1662.67,1223.83 1660.83,1225.67 1659,1227.5C 1657.01,1234.57 1657.34,1241.57 1660,1248.5C 1664.51,1260.68 1668.18,1273.02 1671,1285.5C 1670.72,1284.58 1670.22,1283.92 1669.5,1283.5 Z"/></g>
<g><path style="opacity:1" fill="#42271a" d="M 1670.5,1286.5 C 1671.75,1286.58 1672.58,1287.24 1673,1288.5C 1674.41,1294.38 1676.41,1300.05 1679,1305.5C 1685.23,1312.72 1692.73,1314.39 1701.5,1310.5C 1701.79,1311.2 1702.12,1311.87 1702.5,1312.5C 1695.55,1316.54 1688.55,1316.37 1681.5,1312C 1675.42,1304.6 1671.75,1296.1 1670.5,1286.5 Z"/></g>
<g><path style="opacity:1" fill="#50372a" d="M 1750.5,1463.5 C 1746.4,1466.54 1741.73,1468.54 1736.5,1469.5C 1728.69,1469.19 1723.19,1465.52 1720,1458.5C 1718.33,1452.5 1716.67,1446.5 1715,1440.5C 1714.51,1441.79 1714.34,1443.13 1714.5,1444.5C 1713.23,1442.09 1712.57,1439.43 1712.5,1436.5C 1713.27,1437.26 1713.77,1438.26 1714,1439.5C 1714.17,1438.83 1714.33,1438.17 1714.5,1437.5C 1710.31,1422.11 1706.64,1406.61 1703.5,1391C 1704.05,1383.11 1708.05,1377.78 1715.5,1375C 1714.91,1374.54 1714.24,1374.37 1713.5,1374.5C 1722.17,1371.21 1729.67,1373.21 1736,1380.5C 1742.8,1402.18 1748.47,1424.18 1753,1446.5C 1753.67,1451.17 1753.67,1455.83 1753,1460.5C 1752.62,1461.94 1751.79,1462.94 1750.5,1463.5 Z"/></g>
<g><path style="opacity:1" fill="#41261a" d="M 1713.5,1374.5 C 1714.24,1374.37 1714.91,1374.54 1715.5,1375C 1708.05,1377.78 1704.05,1383.11 1703.5,1391C 1706.64,1406.61 1710.31,1422.11 1714.5,1437.5C 1714.33,1438.17 1714.17,1438.83 1714,1439.5C 1713.77,1438.26 1713.27,1437.26 1712.5,1436.5C 1708.76,1421.7 1704.76,1406.87 1700.5,1392C 1701.4,1387.65 1702.9,1383.48 1705,1379.5C 1707.31,1376.93 1710.15,1375.26 1713.5,1374.5 Z"/></g>
<g><path style="opacity:1" fill="#3f2418" d="M 1750.5,1463.5 C 1748.56,1467.66 1745.23,1470.16 1740.5,1471C 1728.84,1473.09 1721,1468.59 1717,1457.5C 1715.84,1453.22 1715.01,1448.88 1714.5,1444.5C 1714.34,1443.13 1714.51,1441.79 1715,1440.5C 1716.67,1446.5 1718.33,1452.5 1720,1458.5C 1723.19,1465.52 1728.69,1469.19 1736.5,1469.5C 1741.73,1468.54 1746.4,1466.54 1750.5,1463.5 Z"/></g>
<g><path style="opacity:1" fill="#50372a" d="M 1877.5,1482.5 C 1884.05,1486.21 1889.55,1491.21 1894,1497.5C 1894.28,1496.58 1894.78,1495.92 1895.5,1495.5C 1899.5,1499.98 1901.67,1505.31 1902,1511.5C 1902.85,1517.96 1902.35,1524.29 1900.5,1530.5C 1899.18,1529.05 1898.34,1529.38 1898,1531.5C 1896.02,1536.42 1894.69,1541.42 1894,1546.5C 1894.28,1545.58 1894.78,1544.92 1895.5,1544.5C 1890.74,1560.11 1885.41,1575.44 1879.5,1590.5C 1879.28,1587.9 1878.78,1587.9 1878,1590.5C 1869.16,1617.01 1860.33,1643.51 1851.5,1670C 1851.74,1670.9 1852.08,1671.74 1852.5,1672.5C 1848.7,1684.57 1844.7,1696.57 1840.5,1708.5C 1839.78,1708.08 1839.28,1707.42 1839,1706.5C 1835.83,1716 1832.67,1725.5 1829.5,1735C 1829.57,1735.76 1829.9,1736.26 1830.5,1736.5C 1828.95,1743.28 1825.61,1748.95 1820.5,1753.5C 1817.94,1753.44 1815.61,1754.61 1813.5,1757C 1803.81,1762.22 1793.47,1763.89 1782.5,1762C 1778.63,1760.71 1774.96,1759.05 1771.5,1757C 1766,1752.17 1760.83,1747 1756,1741.5C 1711.73,1690.56 1667.07,1639.9 1622,1589.5C 1604.93,1569.83 1605.43,1550.67 1623.5,1532C 1626.19,1530.4 1628.86,1528.9 1631.5,1527.5C 1639.63,1524.74 1647.96,1522.74 1656.5,1521.5C 1666.42,1519.12 1676.42,1517.12 1686.5,1515.5C 1687.17,1515.5 1687.5,1515.17 1687.5,1514.5C 1693.85,1513.63 1700.19,1512.63 1706.5,1511.5C 1708.63,1510.95 1710.63,1510.29 1712.5,1509.5C 1731.94,1506.24 1751.28,1502.41 1770.5,1498C 1768.87,1497.51 1767.2,1497.34 1765.5,1497.5C 1767.26,1496.54 1769.26,1496.21 1771.5,1496.5C 1779.17,1496.85 1786.84,1495.69 1794.5,1493C 1793.55,1492.52 1792.55,1492.35 1791.5,1492.5C 1792.57,1491.57 1793.9,1491.23 1795.5,1491.5C 1796.1,1492.14 1796.93,1492.47 1798,1492.5C 1815.14,1488.97 1832.3,1485.64 1849.5,1482.5C 1850.49,1482.67 1851.16,1482.34 1851.5,1481.5C 1860.25,1479.97 1868.92,1480.31 1877.5,1482.5 Z"/></g>
<g><path style="opacity:1" fill="#381d13" d="M 1849.5,1482.5 C 1832.3,1485.64 1815.14,1488.97 1798,1492.5C 1796.93,1492.47 1796.1,1492.14 1795.5,1491.5C 1808.37,1488.37 1821.37,1485.37 1834.5,1482.5C 1839.5,1482.5 1844.5,1482.5 1849.5,1482.5 Z"/></g>
<g><path style="opacity:1" fill="#472c1f" d="M 1895.5,1495.5 C 1894.78,1495.92 1894.28,1496.58 1894,1497.5C 1889.55,1491.21 1884.05,1486.21 1877.5,1482.5C 1875.85,1481.07 1873.85,1480.24 1871.5,1480C 1868.67,1479.83 1865.83,1479.67 1863,1479.5C 1858.29,1479.25 1854.46,1479.92 1851.5,1481.5C 1851.16,1482.34 1850.49,1482.67 1849.5,1482.5C 1844.5,1482.5 1839.5,1482.5 1834.5,1482.5C 1842.22,1481.32 1849.88,1479.82 1857.5,1478C 1873.62,1476.56 1886.28,1482.39 1895.5,1495.5 Z"/></g>
<g><path style="opacity:1" fill="#32160b" d="M 1877.5,1482.5 C 1868.92,1480.31 1860.25,1479.97 1851.5,1481.5C 1854.46,1479.92 1858.29,1479.25 1863,1479.5C 1865.83,1479.67 1868.67,1479.83 1871.5,1480C 1873.85,1480.24 1875.85,1481.07 1877.5,1482.5 Z"/></g>
<g><path style="opacity:1" fill="#3c2015" d="M 1791.5,1492.5 C 1792.55,1492.35 1793.55,1492.52 1794.5,1493C 1786.84,1495.69 1779.17,1496.85 1771.5,1496.5C 1777.84,1494.16 1784.51,1492.83 1791.5,1492.5 Z"/></g>
<g><path style="opacity:1" fill="#3c2115" d="M 1765.5,1497.5 C 1767.2,1497.34 1768.87,1497.51 1770.5,1498C 1751.28,1502.41 1731.94,1506.24 1712.5,1509.5C 1717.58,1507.79 1723.24,1506.12 1729.5,1504.5C 1741.37,1501.61 1753.37,1499.28 1765.5,1497.5 Z"/></g>
<g><path style="opacity:1" fill="#442a1e" d="M 1729.5,1504.5 C 1723.24,1506.12 1717.58,1507.79 1712.5,1509.5C 1710.63,1510.29 1708.63,1510.95 1706.5,1511.5C 1705.9,1510.86 1705.07,1510.53 1704,1510.5C 1698.27,1511.41 1692.77,1512.74 1687.5,1514.5C 1687.5,1515.17 1687.17,1515.5 1686.5,1515.5C 1685.9,1514.86 1685.07,1514.53 1684,1514.5C 1679.15,1515.44 1674.32,1516.44 1669.5,1517.5C 1668.58,1517.46 1667.92,1517.12 1667.5,1516.5C 1688.08,1512.12 1708.75,1508.12 1729.5,1504.5 Z"/></g>
<g><path style="opacity:1" fill="#32160b" d="M 1706.5,1511.5 C 1700.19,1512.63 1693.85,1513.63 1687.5,1514.5C 1692.77,1512.74 1698.27,1511.41 1704,1510.5C 1705.07,1510.53 1705.9,1510.86 1706.5,1511.5 Z"/></g>
<g><path style="opacity:1" fill="#3b2015" d="M 1686.5,1515.5 C 1676.42,1517.12 1666.42,1519.12 1656.5,1521.5C 1655.08,1520.55 1653.41,1520.22 1651.5,1520.5C 1656.63,1518.8 1661.96,1517.47 1667.5,1516.5C 1667.92,1517.12 1668.58,1517.46 1669.5,1517.5C 1674.32,1516.44 1679.15,1515.44 1684,1514.5C 1685.07,1514.53 1685.9,1514.86 1686.5,1515.5 Z"/></g>
<g><path style="opacity:1" fill="#44291c" d="M 1651.5,1520.5 C 1647.08,1522.1 1642.41,1523.1 1637.5,1523.5C 1641.86,1521.58 1646.52,1520.58 1651.5,1520.5 Z"/></g>
<g><path style="opacity:1" fill="#2f1208" d="M 1651.5,1520.5 C 1653.41,1520.22 1655.08,1520.55 1656.5,1521.5C 1647.96,1522.74 1639.63,1524.74 1631.5,1527.5C 1630.76,1527.63 1630.09,1527.46 1629.5,1527C 1632.31,1525.91 1634.98,1524.74 1637.5,1523.5C 1642.41,1523.1 1647.08,1522.1 1651.5,1520.5 Z"/></g>
<g><path style="opacity:1" fill="#5d453a" d="M 1900.5,1530.5 C 1899.2,1535.39 1897.54,1540.06 1895.5,1544.5C 1894.78,1544.92 1894.28,1545.58 1894,1546.5C 1894.69,1541.42 1896.02,1536.42 1898,1531.5C 1898.34,1529.38 1899.18,1529.05 1900.5,1530.5 Z"/></g>
<g><path style="opacity:1" fill="#462b1e" d="M 1608.5,1554.5 C 1608.45,1560.2 1608.78,1565.86 1609.5,1571.5C 1608.05,1568.28 1607.38,1564.78 1607.5,1561C 1607.5,1558.64 1607.84,1556.47 1608.5,1554.5 Z"/></g>
<g><path style="opacity:1" fill="#391e13" d="M 1637.5,1523.5 C 1634.98,1524.74 1632.31,1525.91 1629.5,1527C 1630.09,1527.46 1630.76,1527.63 1631.5,1527.5C 1628.86,1528.9 1626.19,1530.4 1623.5,1532C 1605.43,1550.67 1604.93,1569.83 1622,1589.5C 1667.07,1639.9 1711.73,1690.56 1756,1741.5C 1760.83,1747 1766,1752.17 1771.5,1757C 1774.96,1759.05 1778.63,1760.71 1782.5,1762C 1793.47,1763.89 1803.81,1762.22 1813.5,1757C 1815.61,1754.61 1817.94,1753.44 1820.5,1753.5C 1808.63,1765.25 1794.63,1768.41 1778.5,1763C 1774.2,1761.19 1770.2,1758.85 1766.5,1756C 1715.28,1697.78 1664.11,1639.62 1613,1581.5C 1611.13,1578.39 1609.97,1575.06 1609.5,1571.5C 1608.78,1565.86 1608.45,1560.2 1608.5,1554.5C 1610.34,1542.66 1616.34,1533.49 1626.5,1527C 1629.89,1524.92 1633.56,1523.76 1637.5,1523.5 Z"/></g>
<g><path style="opacity:1" fill="#594237" d="M 1879.5,1590.5 C 1871.28,1618.16 1862.28,1645.49 1852.5,1672.5C 1852.08,1671.74 1851.74,1670.9 1851.5,1670C 1860.33,1643.51 1869.16,1617.01 1878,1590.5C 1878.78,1587.9 1879.28,1587.9 1879.5,1590.5 Z"/></g>
<g><path style="opacity:1" fill="#5e473b" d="M 1840.5,1708.5 C 1837.11,1717.92 1833.78,1727.25 1830.5,1736.5C 1829.9,1736.26 1829.57,1735.76 1829.5,1735C 1832.67,1725.5 1835.83,1716 1839,1706.5C 1839.28,1707.42 1839.78,1708.08 1840.5,1708.5 Z"/></g>
</svg>
