<?xml version="1.0" encoding="UTF-8"?>
<!DOCTYPE svg PUBLIC "-//W3C//DTD SVG 1.1//EN" "http://www.w3.org/Graphics/SVG/1.1/DTD/svg11.dtd">
<svg xmlns="http://www.w3.org/2000/svg" version="1.1" width="2000px" height="2000px" style="shape-rendering:geometricPrecision; text-rendering:geometricPrecision; image-rendering:optimizeQuality; fill-rule:evenodd; clip-rule:evenodd" xmlns:xlink="http://www.w3.org/1999/xlink">
<g><path style="opacity:1" fill="#facfbd" d="M 374.5,747.5 C 374.5,748.167 374.833,748.5 375.5,748.5C 348.001,749.25 320.335,749.25 292.5,748.5C 272.159,748.653 251.825,748.319 231.5,747.5C 211.562,744.886 196.728,752.22 187,769.5C 185.709,774.371 184.209,779.037 182.5,783.5C 183.105,771.133 188.438,760.966 198.5,753C 198.272,752.601 197.938,752.435 197.5,752.5C 202.364,748.406 208.031,745.906 214.5,745C 267.842,745.139 321.175,745.972 374.5,747.5 Z"/></g>
<g><path style="opacity:1" fill="#fad3c1" d="M 292.5,748.5 C 641.637,757.051 990.971,764.551 1340.5,771C 1362.57,772.063 1376.74,783.23 1383,804.5C 1384.87,812.464 1385.37,820.464 1384.5,828.5C 1383.52,830.398 1384.18,831.898 1386.5,833C 1547.82,837.458 1709.16,841.458 1870.5,845C 1878.87,845.578 1887.2,846.411 1895.5,847.5C 1898.28,849.392 1901.28,851.059 1904.5,852.5C 1905.52,851.998 1905.69,851.332 1905,850.5C 1903.49,849.91 1901.99,849.244 1900.5,848.5C 1900.96,847.702 1901.62,847.369 1902.5,847.5C 1908.21,849.615 1912.71,853.281 1916,858.5C 1925.38,872.261 1928.05,887.261 1924,903.5C 1922.25,908.674 1919.75,913.341 1916.5,917.5C 1915.78,917.082 1915.28,916.416 1915,915.5C 1911.16,919.673 1906.99,923.507 1902.5,927C 1898.5,928 1894.5,929 1890.5,930C 1861.17,929.915 1831.83,929.915 1802.5,930C 1801.42,931.726 1801.26,933.559 1802,935.5C 1809.51,942.528 1813.85,951.195 1815,961.5C 1815.71,968.264 1815.21,974.931 1813.5,981.5C 1812.85,982.274 1812.52,983.274 1812.5,984.5C 1812.64,986.03 1813.31,987.03 1814.5,987.5C 1837.25,988.491 1860.25,989.325 1883.5,990C 1895.99,990.828 1906.16,995.995 1914,1005.5C 1913.85,1003.49 1913.35,1001.49 1912.5,999.5C 1917.89,1004.28 1921.22,1010.28 1922.5,1017.5C 1920.79,1016.53 1919.62,1014.53 1919,1011.5C 1918.35,1010.3 1917.85,1010.3 1917.5,1011.5C 1920.51,1019.22 1922.34,1027.22 1923,1035.5C 1928.88,1038.53 1934.71,1041.69 1940.5,1045C 1943.72,1048.55 1946.55,1052.39 1949,1056.5C 1949.37,1055.58 1949.87,1054.75 1950.5,1054C 1949.75,1053.33 1949.41,1052.5 1949.5,1051.5C 1952.72,1055.67 1954.05,1060.5 1953.5,1066C 1954.14,1072.58 1952.14,1078.08 1947.5,1082.5C 1946.88,1082.39 1946.38,1082.06 1946,1081.5C 1939.21,1086.98 1931.71,1090.98 1923.5,1093.5C 1894.16,1094.35 1864.83,1094.02 1835.5,1092.5C 1833.7,1092.58 1832.03,1093.08 1830.5,1094C 1829.23,1094.98 1829.23,1095.81 1830.5,1096.5C 1834.46,1101.05 1837.96,1106.05 1841,1111.5C 1842.01,1116.79 1842.84,1122.12 1843.5,1127.5C 1845.08,1121.33 1844.41,1115 1841.5,1108.5C 1841.62,1107.89 1841.96,1107.56 1842.5,1107.5C 1844.82,1110.32 1845.99,1113.65 1846,1117.5C 1846.89,1121.87 1846.39,1126.03 1844.5,1130C 1845.06,1130.38 1845.39,1130.88 1845.5,1131.5C 1845.19,1133.14 1844.19,1134.14 1842.5,1134.5C 1842.71,1132.86 1842.21,1131.2 1841,1129.5C 1840.24,1131.77 1840.41,1133.94 1841.5,1136C 1865.5,1136.83 1889.5,1137.5 1913.5,1138C 1929.31,1138.4 1941.31,1145.23 1949.5,1158.5C 1950.83,1164.83 1950.83,1171.17 1949.5,1177.5C 1944.08,1184.58 1937.42,1190.25 1929.5,1194.5C 1919.07,1195.99 1908.57,1196.65 1898,1196.5C 1875.81,1195.89 1853.65,1195.39 1831.5,1195C 1829.22,1196.36 1829.05,1197.86 1831,1199.5C 1831.28,1198.58 1831.78,1197.92 1832.5,1197.5C 1834.7,1198.05 1835.54,1199.38 1835,1201.5C 1834.11,1200.29 1833.27,1200.29 1832.5,1201.5C 1847.02,1216.07 1846.69,1230.23 1831.5,1244C 1825.24,1247.98 1818.57,1250.48 1811.5,1251.5C 1563.33,1251.79 1315.33,1251.13 1067.5,1249.5C 910.957,1246.75 754.291,1242.58 597.5,1237C 513.841,1232.86 430.175,1228.86 346.5,1225C 271.494,1220.22 196.494,1215.39 121.5,1210.5C 113.664,1209.73 105.998,1208.07 98.5,1205.5C 80.6991,1196.93 74.8657,1183.26 81,1164.5C 79.4138,1166.67 78.0804,1169 77,1171.5C 76.8531,1177.01 76.6864,1182.01 76.5,1186.5C 72.5773,1173.93 75.9107,1163.6 86.5,1155.5C 86.6107,1156.12 86.944,1156.62 87.5,1157C 84.6059,1157.87 83.4392,1159.7 84,1162.5C 89.0174,1157.91 94.8508,1154.74 101.5,1153C 108.76,1151.51 116.093,1150.51 123.5,1150C 123.833,1149.67 124.167,1149.33 124.5,1149C 122.68,1148.8 121.347,1147.97 120.5,1146.5C 120.462,1141.07 120.628,1135.41 121,1129.5C 122.319,1125.53 124.153,1121.86 126.5,1118.5C 127.75,1118.58 128.583,1119.24 129,1120.5C 133.448,1118.39 136.948,1115.22 139.5,1111C 138.833,1110.33 138.167,1109.67 137.5,1109C 126.019,1108.31 114.685,1106.64 103.5,1104C 91.8223,1096.83 79.8223,1090.16 67.5,1084C 66.0715,1083.42 64.7382,1083.59 63.5,1084.5C 53.8284,1076.5 48.3284,1066.16 47,1053.5C 45.5349,1042.49 47.5349,1032.16 53,1022.5C 54.331,1020 56.1644,1018 58.5,1016.5C 58.5769,1019.02 57.4102,1021.36 55,1023.5C 53.4101,1025.65 52.7434,1027.98 53,1030.5C 62.2792,1013.23 76.7792,1005.23 96.5,1006.5C 97.5591,1003.16 97.3924,999.822 96,996.5C 96.0655,999.578 95.8988,1002.58 95.5,1005.5C 89.2547,1005.2 82.9213,1005.2 76.5,1005.5C 81.9397,1003.94 87.6063,1002.94 93.5,1002.5C 93.1667,1000.5 92.8333,998.5 92.5,996.5C 93.2679,995.737 93.7679,994.737 94,993.5C 94.3333,994.167 94.6667,994.833 95,995.5C 93.4453,980.284 98.7786,966.951 111,955.5C 111.648,950.475 109.648,948.808 105,950.5C 95.8333,949.143 86.6666,947.81 77.5,946.5C 64.2223,939.705 55.389,929.038 51,914.5C 50.1301,915.108 49.6301,915.941 49.5,917C 51.1109,919.21 51.7776,921.71 51.5,924.5C 46.3401,913.381 45.1734,901.714 48,889.5C 51.046,878.627 57.546,870.627 67.5,865.5C 63.6001,869.741 59.6001,874.074 55.5,878.5C 52.8103,882.52 51.3103,886.853 51,891.5C 58.7415,871.357 73.5748,861.857 95.5,863C 95.8333,862.667 96.1667,862.333 96.5,862C 95.2695,860.595 93.9361,859.429 92.5,858.5C 92.0273,848.916 92.5273,839.249 94,829.5C 99.7877,812.378 111.621,802.545 129.5,800C 140.867,799.233 152.2,799.399 163.5,800.5C 165.292,801.309 167.292,801.809 169.5,802C 164.833,802.167 160.167,802.333 155.5,802.5C 146.327,802.185 137.327,801.851 128.5,801.5C 127.833,801.667 127.167,801.833 126.5,802C 127.5,802.333 128.5,802.667 129.5,803C 117.248,803.952 107.748,809.452 101,819.5C 99.0863,822.298 98.0863,825.298 98,828.5C 106.527,810.397 120.86,802.064 141,803.5C 154.185,804.267 167.352,804.767 180.5,805C 182.303,804.363 183.636,803.197 184.5,801.5C 182.843,795.627 182.177,789.627 182.5,783.5C 184.209,779.037 185.709,774.371 187,769.5C 196.728,752.22 211.562,744.886 231.5,747.5C 251.825,748.319 272.159,748.653 292.5,748.5 Z"/></g>
<g><path style="opacity:1" fill="#fad5c4" d="M 374.5,747.5 C 388.549,747.201 402.549,747.535 416.5,748.5C 414.735,749.461 412.735,749.795 410.5,749.5C 398.676,749.559 387.01,749.225 375.5,748.5C 374.833,748.5 374.5,748.167 374.5,747.5 Z"/></g>
<g><path style="opacity:1" fill="#facec0" d="M 292.5,748.5 C 320.335,749.25 348.001,749.25 375.5,748.5C 387.01,749.225 398.676,749.559 410.5,749.5C 429.306,751.189 448.306,751.856 467.5,751.5C 477.644,751.351 487.644,751.351 497.5,751.5C 627.648,755.043 759.981,758.21 894.5,761C 1012.16,763.559 1129.83,765.725 1247.5,767.5C 1278.99,768.825 1310.66,769.659 1342.5,770C 1346.51,770.501 1350.51,771.001 1354.5,771.5C 1358.86,772.511 1362.86,774.344 1366.5,777C 1373.86,783.647 1379.86,791.147 1384.5,799.5C 1385.34,806.348 1386.34,813.182 1387.5,820C 1387.39,823.372 1386.39,826.206 1384.5,828.5C 1385.37,820.464 1384.87,812.464 1383,804.5C 1376.74,783.23 1362.57,772.063 1340.5,771C 990.971,764.551 641.637,757.051 292.5,748.5 Z"/></g>
<g><path style="opacity:1" fill="#facdba" d="M 416.5,748.5 C 431.491,749.166 446.491,749.5 461.5,749.5C 463.5,750.167 465.5,750.833 467.5,751.5C 448.306,751.856 429.306,751.189 410.5,749.5C 412.735,749.795 414.735,749.461 416.5,748.5 Z"/></g>
<g><path style="opacity:1" fill="#fad5c2" d="M 461.5,749.5 C 473.833,749.5 486.167,749.5 498.5,749.5C 499.952,750.302 501.618,750.802 503.5,751C 501.527,751.495 499.527,751.662 497.5,751.5C 487.644,751.351 477.644,751.351 467.5,751.5C 465.5,750.833 463.5,750.167 461.5,749.5 Z"/></g>
<g><path style="opacity:1" fill="#f9cdba" d="M 498.5,749.5 C 750.489,754.954 1002.49,759.954 1254.5,764.5C 1241.67,765.331 1228.67,765.831 1215.5,766C 1226.34,766.17 1237.01,766.67 1247.5,767.5C 1129.83,765.725 1012.16,763.559 894.5,761C 759.981,758.21 627.648,755.043 497.5,751.5C 499.527,751.662 501.527,751.495 503.5,751C 501.618,750.802 499.952,750.302 498.5,749.5 Z"/></g>
<g><path style="opacity:1" fill="#facfbd" d="M 1254.5,764.5 C 1285.17,765.367 1315.84,766.367 1346.5,767.5C 1348.99,769.128 1351.66,770.462 1354.5,771.5C 1350.51,771.001 1346.51,770.501 1342.5,770C 1310.66,769.659 1278.99,768.825 1247.5,767.5C 1237.01,766.67 1226.34,766.17 1215.5,766C 1228.67,765.831 1241.67,765.331 1254.5,764.5 Z"/></g>
<g><path style="opacity:1" fill="#fad5c5" d="M 197.5,752.5 C 197.938,752.435 198.272,752.601 198.5,753C 188.438,760.966 183.105,771.133 182.5,783.5C 181.732,782.737 181.232,781.737 181,780.5C 181.013,787.175 181.513,793.842 182.5,800.5C 182.167,801.167 181.833,801.833 181.5,802.5C 180.824,801.398 180.158,800.398 179.5,799.5C 177.433,785.433 180.267,772.433 188,760.5C 190.766,757.223 193.933,754.557 197.5,752.5 Z"/></g>
<g><path style="opacity:1" fill="#fad5c4" d="M 1346.5,767.5 C 1360.95,769.306 1372.12,776.306 1380,788.5C 1382.07,791.971 1383.57,795.638 1384.5,799.5C 1379.86,791.147 1373.86,783.647 1366.5,777C 1362.86,774.344 1358.86,772.511 1354.5,771.5C 1351.66,770.462 1348.99,769.128 1346.5,767.5 Z"/></g>
<g><path style="opacity:1" fill="#facebf" d="M 182.5,783.5 C 182.177,789.627 182.843,795.627 184.5,801.5C 183.636,803.197 182.303,804.363 180.5,805C 167.352,804.767 154.185,804.267 141,803.5C 120.86,802.064 106.527,810.397 98,828.5C 98.0863,825.298 99.0863,822.298 101,819.5C 107.748,809.452 117.248,803.952 129.5,803C 128.5,802.667 127.5,802.333 126.5,802C 127.167,801.833 127.833,801.667 128.5,801.5C 137.327,801.851 146.327,802.185 155.5,802.5C 160.167,802.333 164.833,802.167 169.5,802C 167.292,801.809 165.292,801.309 163.5,800.5C 168.927,800.782 174.26,800.449 179.5,799.5C 180.158,800.398 180.824,801.398 181.5,802.5C 181.833,801.833 182.167,801.167 182.5,800.5C 181.513,793.842 181.013,787.175 181,780.5C 181.232,781.737 181.732,782.737 182.5,783.5 Z"/></g>
<g><path style="opacity:1" fill="#facec1" d="M 1384.5,828.5 C 1384.94,830.113 1385.94,831.28 1387.5,832C 1414.92,832.981 1442.25,833.481 1469.5,833.5C 1568.49,836.61 1667.66,839.277 1767,841.5C 1776.99,840.791 1786.83,840.958 1796.5,842C 1822.83,842.746 1849.16,843.413 1875.5,844C 1882.5,844.064 1889.17,845.231 1895.5,847.5C 1887.2,846.411 1878.87,845.578 1870.5,845C 1709.16,841.458 1547.82,837.458 1386.5,833C 1384.18,831.898 1383.52,830.398 1384.5,828.5 Z"/></g>
<g><path style="opacity:1" fill="#fad0be" d="M 1384.5,799.5 C 1386.42,802.804 1387.58,806.471 1388,810.5C 1388.5,816.825 1388.67,823.158 1388.5,829.5C 1415.49,830.639 1442.49,831.306 1469.5,831.5C 1471.63,832.314 1473.96,832.814 1476.5,833C 1474.19,833.497 1471.86,833.663 1469.5,833.5C 1442.25,833.481 1414.92,832.981 1387.5,832C 1385.94,831.28 1384.94,830.113 1384.5,828.5C 1386.39,826.206 1387.39,823.372 1387.5,820C 1386.34,813.182 1385.34,806.348 1384.5,799.5 Z"/></g>
<g><path style="opacity:1" fill="#facdba" d="M 1469.5,831.5 C 1604.15,835.06 1738.82,838.227 1873.5,841C 1879.87,841.311 1886.21,841.977 1892.5,843C 1896.3,843.739 1899.63,845.239 1902.5,847.5C 1901.62,847.369 1900.96,847.702 1900.5,848.5C 1901.99,849.244 1903.49,849.91 1905,850.5C 1905.69,851.332 1905.52,851.998 1904.5,852.5C 1901.28,851.059 1898.28,849.392 1895.5,847.5C 1889.17,845.231 1882.5,844.064 1875.5,844C 1849.16,843.413 1822.83,842.746 1796.5,842C 1786.83,840.958 1776.99,840.791 1767,841.5C 1667.66,839.277 1568.49,836.61 1469.5,833.5C 1471.86,833.663 1474.19,833.497 1476.5,833C 1473.96,832.814 1471.63,832.314 1469.5,831.5 Z"/></g>
<g><path style="opacity:1" fill="#facebd" d="M 92.5,858.5 C 93.9361,859.429 95.2695,860.595 96.5,862C 96.1667,862.333 95.8333,862.667 95.5,863C 73.5748,861.857 58.7415,871.357 51,891.5C 51.3103,886.853 52.8103,882.52 55.5,878.5C 59.6001,874.074 63.6001,869.741 67.5,865.5C 75.2911,861.536 83.6244,859.202 92.5,858.5 Z"/></g>
<g><path style="opacity:1" fill="#facebe" d="M 1916.5,917.5 C 1912.55,924.787 1906.55,929.453 1898.5,931.5C 1897.74,931.077 1896.9,930.743 1896,930.5C 1887.42,932.03 1878.75,932.697 1870,932.5C 1847.86,930.834 1825.7,930.334 1803.5,931C 1805.35,931.69 1806.68,932.856 1807.5,934.5C 1810.27,937.713 1812.27,941.38 1813.5,945.5C 1813.2,946.15 1812.86,946.817 1812.5,947.5C 1813.77,950.373 1814.61,953.373 1815,956.5C 1815.65,955.304 1816.15,955.304 1816.5,956.5C 1816.47,962.745 1816.31,969.078 1816,975.5C 1815.96,977.974 1815.13,979.974 1813.5,981.5C 1815.21,974.931 1815.71,968.264 1815,961.5C 1813.85,951.195 1809.51,942.528 1802,935.5C 1801.26,933.559 1801.42,931.726 1802.5,930C 1831.83,929.915 1861.17,929.915 1890.5,930C 1894.5,929 1898.5,928 1902.5,927C 1906.99,923.507 1911.16,919.673 1915,915.5C 1915.28,916.416 1915.78,917.082 1916.5,917.5 Z"/></g>
<g><path style="opacity:1" fill="#f8cab3" d="M 1898.5,931.5 C 1891.88,934.119 1884.88,935.452 1877.5,935.5C 1854.1,934.231 1830.77,933.898 1807.5,934.5C 1806.68,932.856 1805.35,931.69 1803.5,931C 1825.7,930.334 1847.86,930.834 1870,932.5C 1878.75,932.697 1887.42,932.03 1896,930.5C 1896.9,930.743 1897.74,931.077 1898.5,931.5 Z"/></g>
<g><path style="opacity:1" fill="#f9cebb" d="M 77.5,946.5 C 80.8044,948.417 84.4711,949.584 88.5,950C 95.2981,950.349 101.965,951.349 108.5,953C 107.099,953.41 105.766,953.91 104.5,954.5C 86.1085,955.653 70.6085,949.653 58,936.5C 55.1735,932.845 53.0068,928.845 51.5,924.5C 51.7776,921.71 51.1109,919.21 49.5,917C 49.6301,915.941 50.1301,915.108 51,914.5C 55.389,929.038 64.2223,939.705 77.5,946.5 Z"/></g>
<g><path style="opacity:1" fill="#fad2c2" d="M 77.5,946.5 C 86.6666,947.81 95.8333,949.143 105,950.5C 109.648,948.808 111.648,950.475 111,955.5C 98.7786,966.951 93.4453,980.284 95,995.5C 94.6667,994.833 94.3333,994.167 94,993.5C 93.7679,994.737 93.2679,995.737 92.5,996.5C 91.9705,987.685 92.8038,979.019 95,970.5C 97.9397,964.941 101.106,959.608 104.5,954.5C 105.766,953.91 107.099,953.41 108.5,953C 101.965,951.349 95.2981,950.349 88.5,950C 84.4711,949.584 80.8044,948.417 77.5,946.5 Z"/></g>
<g><path style="opacity:1" fill="#fad6c5" d="M 1813.5,945.5 C 1817.18,952.071 1819.18,959.238 1819.5,967C 1818.78,972.168 1818.11,977.335 1817.5,982.5C 1816.23,983.189 1816.23,984.023 1817.5,985C 1816.21,985.49 1814.87,985.657 1813.5,985.5C 1813.5,984.167 1813.5,982.833 1813.5,981.5C 1815.13,979.974 1815.96,977.974 1816,975.5C 1816.31,969.078 1816.47,962.745 1816.5,956.5C 1816.15,955.304 1815.65,955.304 1815,956.5C 1814.61,953.373 1813.77,950.373 1812.5,947.5C 1812.86,946.817 1813.2,946.15 1813.5,945.5 Z"/></g>
<g><path style="opacity:1" fill="#fad0be" d="M 1835.5,984.5 C 1849.17,984.333 1862.84,984.5 1876.5,985C 1880.03,985.179 1883.36,985.679 1886.5,986.5C 1884.7,987.162 1882.7,987.495 1880.5,987.5C 1860.83,986.863 1841.16,986.03 1821.5,985C 1826.15,984.501 1830.82,984.334 1835.5,984.5 Z"/></g>
<g><path style="opacity:1" fill="#facdb9" d="M 1813.5,981.5 C 1813.5,982.833 1813.5,984.167 1813.5,985.5C 1814.87,985.657 1816.21,985.49 1817.5,985C 1816.23,984.023 1816.23,983.189 1817.5,982.5C 1823.5,983.167 1829.5,983.833 1835.5,984.5C 1830.82,984.334 1826.15,984.501 1821.5,985C 1841.16,986.03 1860.83,986.863 1880.5,987.5C 1882.7,987.495 1884.7,987.162 1886.5,986.5C 1888.41,986.216 1890.08,986.549 1891.5,987.5C 1891.75,988.876 1893.08,989.71 1895.5,990C 1868.56,987.856 1841.56,987.023 1814.5,987.5C 1813.31,987.03 1812.64,986.03 1812.5,984.5C 1812.52,983.274 1812.85,982.274 1813.5,981.5 Z"/></g>
<g><path style="opacity:1" fill="#facfbf" d="M 1891.5,987.5 C 1899.97,988.983 1906.97,992.983 1912.5,999.5C 1913.35,1001.49 1913.85,1003.49 1914,1005.5C 1906.16,995.995 1895.99,990.828 1883.5,990C 1860.25,989.325 1837.25,988.491 1814.5,987.5C 1841.56,987.023 1868.56,987.856 1895.5,990C 1893.08,989.71 1891.75,988.876 1891.5,987.5 Z"/></g>
<g><path style="opacity:1" fill="#facfbf" d="M 58.5,1016.5 C 63.2002,1010.81 69.2002,1007.14 76.5,1005.5C 82.9213,1005.2 89.2547,1005.2 95.5,1005.5C 95.8988,1002.58 96.0655,999.578 96,996.5C 97.3924,999.822 97.5591,1003.16 96.5,1006.5C 76.7792,1005.23 62.2792,1013.23 53,1030.5C 52.7434,1027.98 53.4101,1025.65 55,1023.5C 57.4102,1021.36 58.5769,1019.02 58.5,1016.5 Z"/></g>
<g><path style="opacity:1" fill="#facfbf" d="M 1922.5,1017.5 C 1924.08,1022.27 1925.25,1027.27 1926,1032.5C 1931.39,1035.78 1936.89,1038.95 1942.5,1042C 1945.85,1044.5 1948.18,1047.67 1949.5,1051.5C 1949.41,1052.5 1949.75,1053.33 1950.5,1054C 1949.87,1054.75 1949.37,1055.58 1949,1056.5C 1946.55,1052.39 1943.72,1048.55 1940.5,1045C 1934.71,1041.69 1928.88,1038.53 1923,1035.5C 1922.34,1027.22 1920.51,1019.22 1917.5,1011.5C 1917.85,1010.3 1918.35,1010.3 1919,1011.5C 1919.62,1014.53 1920.79,1016.53 1922.5,1017.5 Z"/></g>
<g><path style="opacity:1" fill="#facebf" d="M 1923.5,1093.5 C 1922.05,1094.3 1920.38,1094.8 1918.5,1095C 1890.48,1095.6 1862.48,1095.6 1834.5,1095C 1835.57,1095.85 1836.57,1096.69 1837.5,1097.5C 1837.39,1098.12 1837.06,1098.62 1836.5,1099C 1839.38,1101.28 1841.38,1104.11 1842.5,1107.5C 1841.96,1107.56 1841.62,1107.89 1841.5,1108.5C 1844.41,1115 1845.08,1121.33 1843.5,1127.5C 1842.84,1122.12 1842.01,1116.79 1841,1111.5C 1837.96,1106.05 1834.46,1101.05 1830.5,1096.5C 1829.23,1095.81 1829.23,1094.98 1830.5,1094C 1832.03,1093.08 1833.7,1092.58 1835.5,1092.5C 1864.83,1094.02 1894.16,1094.35 1923.5,1093.5 Z"/></g>
<g><path style="opacity:1" fill="#fae2d7" d="M 1830.5,1096.5 C 1832.09,1095.13 1833.43,1095.47 1834.5,1097.5C 1834.17,1097.83 1833.83,1098.17 1833.5,1098.5C 1832.48,1097.81 1831.48,1097.14 1830.5,1096.5 Z"/></g>
<g><path style="opacity:1" fill="#f9cbb6" d="M 1947.5,1082.5 C 1939.98,1092.09 1929.98,1097.26 1917.5,1098C 1890.84,1098.02 1864.17,1097.85 1837.5,1097.5C 1836.57,1096.69 1835.57,1095.85 1834.5,1095C 1862.48,1095.6 1890.48,1095.6 1918.5,1095C 1920.38,1094.8 1922.05,1094.3 1923.5,1093.5C 1931.71,1090.98 1939.21,1086.98 1946,1081.5C 1946.38,1082.06 1946.88,1082.39 1947.5,1082.5 Z"/></g>
<g><path style="opacity:1" fill="#f9cdbb" d="M 126.5,1118.5 C 127.649,1116.85 128.982,1115.35 130.5,1114C 130.355,1113.23 130.022,1112.56 129.5,1112C 116,1112.42 103.333,1109.42 91.5,1103C 88.5372,1101.04 85.8706,1098.71 83.5,1096C 75.9858,1093.42 69.3192,1089.58 63.5,1084.5C 64.7382,1083.59 66.0715,1083.42 67.5,1084C 79.8223,1090.16 91.8223,1096.83 103.5,1104C 114.685,1106.64 126.019,1108.31 137.5,1109C 138.167,1109.67 138.833,1110.33 139.5,1111C 136.948,1115.22 133.448,1118.39 129,1120.5C 128.583,1119.24 127.75,1118.58 126.5,1118.5 Z"/></g>
<g><path style="opacity:1" fill="#f9cdb9" d="M 1845.5,1131.5 C 1869.97,1132.58 1894.64,1133.41 1919.5,1134C 1923.49,1134.5 1927.16,1135.67 1930.5,1137.5C 1929.76,1137.37 1929.09,1137.54 1928.5,1138C 1929.7,1138.65 1929.7,1139.15 1928.5,1139.5C 1924.94,1138.24 1921.27,1137.41 1917.5,1137C 1892.33,1136.35 1867.33,1135.52 1842.5,1134.5C 1844.19,1134.14 1845.19,1133.14 1845.5,1131.5 Z"/></g>
<g><path style="opacity:1" fill="#facebe" d="M 1842.5,1134.5 C 1867.33,1135.52 1892.33,1136.35 1917.5,1137C 1921.27,1137.41 1924.94,1138.24 1928.5,1139.5C 1929.7,1139.15 1929.7,1138.65 1928.5,1138C 1929.09,1137.54 1929.76,1137.37 1930.5,1137.5C 1937.64,1139.99 1943.31,1144.32 1947.5,1150.5C 1946.96,1150.56 1946.62,1150.89 1946.5,1151.5C 1948.33,1153.49 1949.33,1155.82 1949.5,1158.5C 1941.31,1145.23 1929.31,1138.4 1913.5,1138C 1889.5,1137.5 1865.5,1136.83 1841.5,1136C 1840.41,1133.94 1840.24,1131.77 1841,1129.5C 1842.21,1131.2 1842.71,1132.86 1842.5,1134.5 Z"/></g>
<g><path style="opacity:1" fill="#facebd" d="M 120.5,1146.5 C 121.347,1147.97 122.68,1148.8 124.5,1149C 124.167,1149.33 123.833,1149.67 123.5,1150C 116.093,1150.51 108.76,1151.51 101.5,1153C 94.8508,1154.74 89.0174,1157.91 84,1162.5C 83.4392,1159.7 84.6059,1157.87 87.5,1157C 86.944,1156.62 86.6107,1156.12 86.5,1155.5C 96.6972,1148.78 108.031,1145.78 120.5,1146.5 Z"/></g>
<g><path style="opacity:1" fill="#fad4c7" d="M 1947.5,1150.5 C 1950.08,1153.32 1951.91,1156.65 1953,1160.5C 1953.67,1165.83 1953.67,1171.17 1953,1176.5C 1952.39,1178.07 1951.56,1179.4 1950.5,1180.5C 1949.6,1179.79 1949.26,1178.79 1949.5,1177.5C 1950.83,1171.17 1950.83,1164.83 1949.5,1158.5C 1949.33,1155.82 1948.33,1153.49 1946.5,1151.5C 1946.62,1150.89 1946.96,1150.56 1947.5,1150.5 Z"/></g>
<g><path style="opacity:1" fill="#facfbf" d="M 98.5,1205.5 C 97.4168,1205.46 96.4168,1205.13 95.5,1204.5C 95.2129,1205.2 94.8795,1205.87 94.5,1206.5C 85.3696,1202.7 79.3696,1196.03 76.5,1186.5C 76.6864,1182.01 76.8531,1177.01 77,1171.5C 78.0804,1169 79.4138,1166.67 81,1164.5C 74.8657,1183.26 80.6991,1196.93 98.5,1205.5 Z"/></g>
<g><path style="opacity:1" fill="#facec1" d="M 1929.5,1194.5 C 1927.12,1195.89 1924.46,1196.72 1921.5,1197C 1892.97,1197.88 1864.47,1197.38 1836,1195.5C 1834.3,1195.39 1833.13,1196.05 1832.5,1197.5C 1831.78,1197.92 1831.28,1198.58 1831,1199.5C 1829.05,1197.86 1829.22,1196.36 1831.5,1195C 1853.65,1195.39 1875.81,1195.89 1898,1196.5C 1908.57,1196.65 1919.07,1195.99 1929.5,1194.5 Z"/></g>
<g><path style="opacity:1" fill="#facec1" d="M 121.5,1210.5 C 196.494,1215.39 271.494,1220.22 346.5,1225C 430.175,1228.86 513.841,1232.86 597.5,1237C 754.291,1242.58 910.957,1246.75 1067.5,1249.5C 963.642,1248.81 859.809,1246.81 756,1243.5C 749.148,1243.81 742.481,1244.14 736,1244.5C 720.304,1242.57 704.471,1241.57 688.5,1241.5C 683.833,1241.67 679.167,1241.83 674.5,1242C 673.944,1242.38 673.611,1242.88 673.5,1243.5C 671.167,1243.5 668.833,1243.5 666.5,1243.5C 669.024,1242.48 671.358,1241.64 673.5,1241C 489.285,1234.71 305.285,1224.55 121.5,1210.5 Z"/></g>
<g><path style="opacity:1" fill="#facdba" d="M 98.5,1205.5 C 105.998,1208.07 113.664,1209.73 121.5,1210.5C 305.285,1224.55 489.285,1234.71 673.5,1241C 671.358,1241.64 669.024,1242.48 666.5,1243.5C 481.903,1238.04 297.57,1227.87 113.5,1213C 106.487,1212.5 100.153,1210.33 94.5,1206.5C 94.8795,1205.87 95.2129,1205.2 95.5,1204.5C 96.4168,1205.13 97.4168,1205.46 98.5,1205.5 Z"/></g>
<g><path style="opacity:1" fill="#f9cdb9" d="M 1949.5,1177.5 C 1949.26,1178.79 1949.6,1179.79 1950.5,1180.5C 1945.16,1190.52 1936.82,1196.69 1925.5,1199C 1914.21,1200.09 1902.87,1200.59 1891.5,1200.5C 1873.5,1200.02 1855.5,1199.86 1837.5,1200C 1837.17,1200.33 1836.83,1200.67 1836.5,1201C 1847.37,1212.09 1849.2,1224.59 1842,1238.5C 1833.24,1248.63 1822.07,1254.13 1808.5,1255C 1585.5,1255.67 1362.5,1255.34 1139.5,1254C 984.103,1251.7 828.77,1248.2 673.5,1243.5C 673.611,1242.88 673.944,1242.38 674.5,1242C 679.167,1241.83 683.833,1241.67 688.5,1241.5C 704.471,1241.57 720.304,1242.57 736,1244.5C 742.481,1244.14 749.148,1243.81 756,1243.5C 859.809,1246.81 963.642,1248.81 1067.5,1249.5C 1091,1250.33 1114.66,1250.83 1138.5,1251C 1141.43,1251.22 1144.26,1251.72 1147,1252.5C 1368.6,1252.68 1590.1,1252.35 1811.5,1251.5C 1818.57,1250.48 1825.24,1247.98 1831.5,1244C 1846.69,1230.23 1847.02,1216.07 1832.5,1201.5C 1833.27,1200.29 1834.11,1200.29 1835,1201.5C 1835.54,1199.38 1834.7,1198.05 1832.5,1197.5C 1833.13,1196.05 1834.3,1195.39 1836,1195.5C 1864.47,1197.38 1892.97,1197.88 1921.5,1197C 1924.46,1196.72 1927.12,1195.89 1929.5,1194.5C 1937.42,1190.25 1944.08,1184.58 1949.5,1177.5 Z"/></g>
<g><path style="opacity:1" fill="#facdc0" d="M 1067.5,1249.5 C 1315.33,1251.13 1563.33,1251.79 1811.5,1251.5C 1590.1,1252.35 1368.6,1252.68 1147,1252.5C 1144.26,1251.72 1141.43,1251.22 1138.5,1251C 1114.66,1250.83 1091,1250.33 1067.5,1249.5 Z"/></g>
</svg>
