<?xml version="1.0" encoding="UTF-8"?>
<!DOCTYPE svg PUBLIC "-//W3C//DTD SVG 1.1//EN" "http://www.w3.org/Graphics/SVG/1.1/DTD/svg11.dtd">
<svg xmlns="http://www.w3.org/2000/svg" version="1.1" width="2000px" height="2000px" style="shape-rendering:geometricPrecision; text-rendering:geometricPrecision; image-rendering:optimizeQuality; fill-rule:evenodd; clip-rule:evenodd" xmlns:xlink="http://www.w3.org/1999/xlink">
<g><path style="opacity:1" fill="#908a86" d="M 1323.5,262.5 C 1322.74,263.268 1321.74,263.768 1320.5,264C 1321.97,264.71 1322.64,265.876 1322.5,267.5C 1169.15,201.057 1010.48,184.89 846.5,219C 800.936,229.188 756.603,243.188 713.5,261C 711.391,261.907 710.058,263.407 709.5,265.5C 709.146,263.459 709.146,261.626 709.5,260C 708.552,259.517 707.552,259.351 706.5,259.5C 858.079,196.791 1014.41,181.957 1175.5,215C 1226.19,226.732 1275.53,242.565 1323.5,262.5 Z"/></g>
<g><path style="opacity:1" fill="#8f8989" d="M 1322.5,267.5 C 1323.8,270.779 1325.46,273.946 1327.5,277C 1330.17,277.667 1332.83,277.667 1335.5,277C 1336.38,276.292 1337.05,275.458 1337.5,274.5C 1338.22,274.082 1338.72,273.416 1339,272.5C 1354.53,279.68 1369.69,287.513 1384.5,296C 1382.4,297.733 1382.07,299.733 1383.5,302C 1385.46,302.624 1387.13,302.124 1388.5,300.5C 1546.54,391.048 1660.04,520.714 1729,689.5C 1780.11,821.548 1794.61,957.548 1772.5,1097.5C 1770.92,1099.14 1770.25,1101.14 1770.5,1103.5C 1763.75,1147.83 1752.92,1191.17 1738,1233.5C 1728.01,1257.48 1718.01,1281.48 1708,1305.5C 1679.13,1365.71 1642.96,1421.21 1599.5,1472C 1598.91,1472.46 1598.24,1472.63 1597.5,1472.5C 1594.88,1463.33 1588.88,1457.5 1579.5,1455C 1567.94,1452.69 1556.27,1452.02 1544.5,1453C 1499.94,1460.74 1456.94,1473.74 1415.5,1492C 1371.7,1510.27 1328.7,1530.27 1286.5,1552C 1276.48,1556.23 1266.31,1560.06 1256,1563.5C 1252.21,1561.28 1249.88,1557.94 1249,1553.5C 1248.68,1535.73 1250.02,1518.06 1253,1500.5C 1255.54,1435.4 1228.7,1386.57 1172.5,1354C 1177.39,1347.53 1175.72,1345.2 1167.5,1347C 1166.66,1348.01 1166.33,1349.18 1166.5,1350.5C 1139.87,1339.78 1112.21,1335.95 1083.5,1339C 1058.4,1341.54 1033.23,1343.04 1008,1343.5C 988.619,1344.59 971.286,1339.26 956,1327.5C 956.584,1325.3 956.418,1323.13 955.5,1321C 953.953,1320.67 952.62,1321.17 951.5,1322.5C 946.433,1317.38 942.6,1311.38 940,1304.5C 929.037,1278.66 928.704,1252.66 939,1226.5C 948.696,1204.1 960.696,1183.1 975,1163.5C 992.612,1139.95 1010.95,1116.95 1030,1094.5C 1046.88,1073.08 1059.88,1049.42 1069,1023.5C 1082.86,956.426 1062.7,901.926 1008.5,860C 971.937,835.375 931.604,825.042 887.5,829C 852.184,832.216 819.518,843.216 789.5,862C 775.66,871.086 761.993,880.419 748.5,890C 743.882,893.142 738.882,895.476 733.5,897C 732.619,897.708 731.953,898.542 731.5,899.5C 709.38,911.483 686.38,913.649 662.5,906C 658.241,904.066 654.241,901.732 650.5,899C 640.47,889.304 630.803,879.304 621.5,869C 603.164,856.401 583.498,854.068 562.5,862C 548.666,867.746 536.333,875.746 525.5,886C 521.228,886.52 517.395,888.02 514,890.5C 513.333,891.5 513.333,892.5 514,893.5C 515.022,894.354 515.855,895.354 516.5,896.5C 511.418,903.662 506.585,910.995 502,918.5C 489.701,944.434 476.368,969.767 462,994.5C 456.453,1003.05 449.287,1009.88 440.5,1015C 437.382,1016.73 434.049,1017.56 430.5,1017.5C 423.426,993.87 417.926,969.87 414,945.5C 411.929,917.861 410.262,890.194 409,862.5C 406.061,817.195 398.061,772.862 385,729.5C 378.144,708.615 367.311,690.115 352.5,674C 341.251,664.27 328.251,660.603 313.5,663C 308.527,664.237 304.027,666.404 300,669.5C 299.805,668.181 299.972,666.847 300.5,665.5C 374.401,499.76 491.401,373.926 651.5,288C 668.256,279.288 685.256,271.122 702.5,263.5C 704.3,266.454 706.633,267.121 709.5,265.5C 710.058,263.407 711.391,261.907 713.5,261C 756.603,243.188 800.936,229.188 846.5,219C 1010.48,184.89 1169.15,201.057 1322.5,267.5 Z"/></g>
<g><path style="opacity:1" fill="#bdb6b1" d="M 955.5,257.5 C 960.799,257.549 961.799,259.715 958.5,264C 953.148,264.175 952.148,262.009 955.5,257.5 Z"/></g>
<g><path style="opacity:1" fill="#bcb6b1" d="M 1238.5,257.5 C 1243.95,256.507 1245.95,258.507 1244.5,263.5C 1238.13,265.796 1236.13,263.796 1238.5,257.5 Z"/></g>
<g><path style="opacity:1" fill="#beb8b2" d="M 1323.5,262.5 C 1328.48,264.323 1333.15,266.657 1337.5,269.5C 1338.07,270.973 1338.07,272.64 1337.5,274.5C 1337.05,275.458 1336.38,276.292 1335.5,277C 1332.83,277.667 1330.17,277.667 1327.5,277C 1325.46,273.946 1323.8,270.779 1322.5,267.5C 1322.64,265.876 1321.97,264.71 1320.5,264C 1321.74,263.768 1322.74,263.268 1323.5,262.5 Z"/></g>
<g><path style="opacity:1" fill="#beb4b2" d="M 1045.5,288.5 C 1049.98,287.494 1052.14,289.16 1052,293.5C 1048.51,296.502 1046.01,295.835 1044.5,291.5C 1044.69,290.416 1045.02,289.416 1045.5,288.5 Z"/></g>
<g><path style="opacity:1" fill="#f8f1f1" d="M 1154.5,290.5 C 1161.89,290.386 1166.55,293.886 1168.5,301C 1170.52,301.14 1172.35,301.307 1174,301.5C 1173.63,303.769 1173.63,306.102 1174,308.5C 1176.93,311.154 1177.26,314.154 1175,317.5C 1173.5,319 1172,320.5 1170.5,322C 1164.13,323.363 1158.13,325.529 1152.5,328.5C 1148.21,324.71 1144.04,320.71 1140,316.5C 1138.74,314.487 1137.91,312.321 1137.5,310C 1139.83,300.508 1145.5,294.008 1154.5,290.5 Z"/></g>
<g><path style="opacity:1" fill="#beb8b2" d="M 717.5,297.5 C 720.724,297.203 723.724,297.87 726.5,299.5C 728.425,303.369 727.258,305.702 723,306.5C 718.029,305.205 716.196,302.205 717.5,297.5 Z"/></g>
<g><path style="opacity:1" fill="#cdc7c0" d="M 778.5,299.5 C 823.168,296.951 866.168,304.118 907.5,321C 929.119,330.306 948.285,343.139 965,359.5C 988.272,386.948 991.938,416.948 976,449.5C 966.537,469.262 952.037,484.096 932.5,494C 919.459,498.109 906.126,499.442 892.5,498C 878.377,495.176 864.377,491.842 850.5,488C 842.882,486.626 835.215,485.626 827.5,485C 796.153,485.297 764.82,485.964 733.5,487C 712.7,486.242 693.366,480.576 675.5,470C 653.471,453.601 644.971,431.768 650,404.5C 663.481,354.017 695.314,321.184 745.5,306C 756.537,303.317 767.537,301.15 778.5,299.5 Z"/></g>
<g><path style="opacity:1" fill="#bfb8b2" d="M 981.5,300.5 C 982.5,300.5 983.5,300.5 984.5,300.5C 984.828,305.875 984.495,311.208 983.5,316.5C 980.568,311.446 979.901,306.113 981.5,300.5 Z"/></g>
<g><path style="opacity:1" fill="#8f8989" d="M 807.5,332.5 C 842.754,330.984 876.088,338.151 907.5,354C 925.445,363.278 938.612,377.112 947,395.5C 953.231,413.894 951.231,431.227 941,447.5C 937.027,451.318 932.694,454.651 928,457.5C 926.269,455.383 924.102,453.883 921.5,453C 913.709,452.896 906.042,451.896 898.5,450C 865.65,432.538 830.65,423.371 793.5,422.5C 773.858,424.064 754.191,424.564 734.5,424C 723.418,422.547 714.584,417.38 708,408.5C 706.544,402.903 706.211,397.237 707,391.5C 714.633,372.866 727.466,359.033 745.5,350C 765.369,340.873 786.036,335.039 807.5,332.5 Z"/></g>
<g><path style="opacity:1" fill="#beb8b2" d="M 1440.5,347.5 C 1442.72,347.559 1443.72,348.725 1443.5,351C 1442.9,354.229 1442.07,357.396 1441,360.5C 1439.41,361.727 1438.08,361.394 1437,359.5C 1435.75,354.738 1436.91,350.738 1440.5,347.5 Z"/></g>
<g><path style="opacity:1" fill="#9c9793" d="M 1396.5,300.5 C 1405.52,304.676 1414.18,309.509 1422.5,315C 1445.05,329.554 1467.05,344.887 1488.5,361C 1502.54,373.376 1516.87,385.376 1531.5,397C 1544.34,410.169 1557.5,423.002 1571,435.5C 1578.42,443.078 1585.25,451.078 1591.5,459.5C 1591.63,460.239 1591.46,460.906 1591,461.5C 1533.29,396.416 1466.79,342.582 1391.5,300C 1390.3,299.346 1390.3,298.846 1391.5,298.5C 1393.08,299.456 1394.74,300.123 1396.5,300.5 Z"/></g>
<g><path style="opacity:1" fill="#cdc7c0" d="M 1268.5,357.5 C 1309.77,355.766 1349.1,363.599 1386.5,381C 1461.43,416.197 1520.1,468.03 1562.5,536.5C 1587.3,581.268 1576.96,615.102 1531.5,638C 1510.44,648.603 1489.77,647.937 1469.5,636C 1460.26,630.099 1451.6,623.432 1443.5,616C 1418.11,591.958 1394.94,566.124 1374,538.5C 1356.31,511.794 1337.65,485.794 1318,460.5C 1298.83,437.989 1274.99,422.822 1246.5,415C 1242.23,413.925 1237.9,413.425 1233.5,413.5C 1234.85,401.11 1236.35,388.776 1238,376.5C 1245.76,366.231 1255.92,359.897 1268.5,357.5 Z"/></g>
<g><path style="opacity:1" fill="#bbb4af" d="M 737.5,404.5 C 738.725,405.152 739.392,406.319 739.5,408C 739.601,411.3 738.267,413.8 735.5,415.5C 735.167,414.667 734.833,413.833 734.5,413C 735.367,410.104 736.367,407.271 737.5,404.5 Z"/></g>
<g><path style="opacity:1" fill="#bcb5af" d="M 515.5,418.5 C 518.541,418.379 520.208,419.879 520.5,423C 519.48,426.861 517.647,427.361 515,424.5C 514.322,422.402 514.489,420.402 515.5,418.5 Z"/></g>
<g><path style="opacity:1" fill="#bdb6b1" d="M 533.5,418.5 C 536.249,418.274 538.916,418.607 541.5,419.5C 543.137,423.044 541.971,425.044 538,425.5C 532.595,425.016 531.095,422.683 533.5,418.5 Z"/></g>
<g><path style="opacity:1" fill="#9b9691" d="M 706.5,259.5 C 707.552,259.351 708.552,259.517 709.5,260C 709.146,261.626 709.146,263.459 709.5,265.5C 706.633,267.121 704.3,266.454 702.5,263.5C 685.256,271.122 668.256,279.288 651.5,288C 491.401,373.926 374.401,499.76 300.5,665.5C 299.833,665.5 299.167,665.5 298.5,665.5C 340.191,569.308 398.858,484.808 474.5,412C 532.658,356.839 597.658,311.506 669.5,276C 681.619,269.939 693.952,264.439 706.5,259.5 Z"/></g>
<g><path style="opacity:1" fill="#f7f0f0" d="M 1447.5,476.5 C 1449.74,477.286 1450.74,478.952 1450.5,481.5C 1450.61,483.374 1449.94,484.874 1448.5,486C 1444.49,487.098 1440.99,486.265 1438,483.5C 1437.26,481.559 1437.42,479.726 1438.5,478C 1441.69,477.819 1444.69,477.319 1447.5,476.5 Z"/></g>
<g><path style="opacity:1" fill="#c0b9b3" d="M 678.5,477.5 C 684.956,478.818 691.289,480.651 697.5,483C 699.211,484.133 699.711,485.633 699,487.5C 684.362,500.021 677.529,496.688 678.5,477.5 Z"/></g>
<g><path style="opacity:1" fill="#cdc7c0" d="M 1173.5,495.5 C 1171.61,494.639 1169.78,493.639 1168,492.5C 1168.83,497.663 1166.67,500.496 1161.5,501C 1159.22,506.547 1160.88,508.381 1166.5,506.5C 1168.36,511.221 1171.69,513.721 1176.5,514C 1177.06,513.275 1177.39,512.442 1177.5,511.5C 1175.16,506.812 1173.83,501.812 1173.5,496.5C 1182.48,500.966 1190.81,506.466 1198.5,513C 1214.92,528.076 1229.09,544.909 1241,563.5C 1250.5,578.341 1259.17,593.674 1267,609.5C 1269.87,621.552 1266.37,631.385 1256.5,639C 1234.86,649.282 1212.03,654.116 1188,653.5C 1175.48,654.473 1163.48,652.473 1152,647.5C 1148.6,650.179 1144.76,651.012 1140.5,650C 1138.49,649.32 1137.15,647.987 1136.5,646C 1138.41,644.164 1140.75,642.998 1143.5,642.5C 1137.17,637.513 1132,631.513 1128,624.5C 1110.94,584.996 1098.11,544.162 1089.5,502C 1090.45,493.762 1094.79,488.095 1102.5,485C 1107.1,484.536 1111.43,483.203 1115.5,481C 1125.37,479.86 1135.04,480.694 1144.5,483.5C 1147.17,487.5 1150.83,489.333 1155.5,489C 1157.6,487.267 1157.93,485.267 1156.5,483C 1152.51,482.501 1148.51,482.334 1144.5,482.5C 1140.34,479.629 1140.5,477.296 1145,475.5C 1154.28,477.811 1162.94,481.478 1171,486.5C 1172.3,489.375 1173.14,492.375 1173.5,495.5 Z"/></g>
<g><path style="opacity:1" fill="#f8f1f1" d="M 1144.5,482.5 C 1148.51,482.334 1152.51,482.501 1156.5,483C 1157.93,485.267 1157.6,487.267 1155.5,489C 1150.83,489.333 1147.17,487.5 1144.5,483.5C 1144.5,483.167 1144.5,482.833 1144.5,482.5 Z"/></g>
<g><path style="opacity:1" fill="#f6efee" d="M 1021.5,486.5 C 1025.51,486.502 1029.18,487.668 1032.5,490C 1033.83,491.333 1033.83,492.667 1032.5,494C 1026.69,495.782 1020.69,496.948 1014.5,497.5C 1005.84,497.383 1004.34,494.05 1010,487.5C 1014.06,490.186 1017.9,489.852 1021.5,486.5 Z"/></g>
<g><path style="opacity:1" fill="#e5e3dd" d="M 1173.5,495.5 C 1173.5,495.833 1173.5,496.167 1173.5,496.5C 1173.83,501.812 1175.16,506.812 1177.5,511.5C 1177.39,512.442 1177.06,513.275 1176.5,514C 1171.69,513.721 1168.36,511.221 1166.5,506.5C 1160.88,508.381 1159.22,506.547 1161.5,501C 1166.67,500.496 1168.83,497.663 1168,492.5C 1169.78,493.639 1171.61,494.639 1173.5,495.5 Z"/></g>
<g><path style="opacity:1" fill="#f7f0f0" d="M 1425.5,493.5 C 1433.56,492.242 1437.56,495.575 1437.5,503.5C 1439.5,503.5 1441.5,503.5 1443.5,503.5C 1443.5,504.833 1443.5,506.167 1443.5,507.5C 1440.81,507.664 1438.15,507.497 1435.5,507C 1432.98,502.976 1429.64,499.809 1425.5,497.5C 1424.37,496.192 1424.37,494.858 1425.5,493.5 Z"/></g>
<g><path style="opacity:1" fill="#bfb9b3" d="M 1230.5,496.5 C 1232.72,496.178 1234.56,496.845 1236,498.5C 1237.02,502.317 1236.52,505.817 1234.5,509C 1232.53,509.495 1230.53,509.662 1228.5,509.5C 1228.15,504.964 1228.82,500.631 1230.5,496.5 Z"/></g>
<g><path style="opacity:1" fill="#cdc7c0" d="M 550.5,498.5 C 565.779,496.302 576.279,502.302 582,516.5C 583.331,537.502 573.498,547.669 552.5,547C 536.796,541.095 530.963,529.929 535,513.5C 538.765,506.899 543.932,501.899 550.5,498.5 Z"/></g>
<g><path style="opacity:1" fill="#f1eaea" d="M 1204.5,498.5 C 1208.07,498.408 1209.24,500.074 1208,503.5C 1205.67,504.877 1203.17,505.877 1200.5,506.5C 1199.39,505.277 1199.22,503.944 1200,502.5C 1201.4,500.93 1202.9,499.596 1204.5,498.5 Z"/></g>
<g><path style="opacity:1" fill="#bfb4b3" d="M 998.5,499.5 C 1000.91,500.921 1003.41,502.254 1006,503.5C 1006.71,505.367 1006.21,506.867 1004.5,508C 1001.9,508.769 999.401,508.602 997,507.5C 997.611,504.967 998.111,502.3 998.5,499.5 Z"/></g>
<g><path style="opacity:1" fill="#beb7b2" d="M 634.5,515.5 C 641.726,516.284 644.892,520.284 644,527.5C 638.409,530.047 634.076,528.381 631,522.5C 630.176,519.16 631.343,516.827 634.5,515.5 Z"/></g>
<g><path style="opacity:1" fill="#8f8989" d="M 1172.5,542.5 C 1174.72,546.277 1178.05,547.944 1182.5,547.5C 1199.38,566.756 1214.05,587.756 1226.5,610.5C 1224.49,612.106 1222.15,613.273 1219.5,614C 1204.97,617.052 1190.31,618.052 1175.5,617C 1170.26,616.297 1165.76,614.13 1162,610.5C 1163.95,605.095 1162.12,601.761 1156.5,600.5C 1146.23,574.022 1137.56,547.022 1130.5,519.5C 1130.83,518.833 1131.17,518.167 1131.5,517.5C 1145.38,521.275 1158.05,527.442 1169.5,536C 1170.93,538.045 1171.93,540.212 1172.5,542.5 Z"/></g>
<g><path style="opacity:1" fill="#f6f0ef" d="M 1013.5,535.5 C 1018.5,534.671 1020.67,536.671 1020,541.5C 1017.66,546.546 1013.82,549.046 1008.5,549C 1006.06,542.873 1007.73,538.373 1013.5,535.5 Z"/></g>
<g><path style="opacity:1" fill="#f2ecec" d="M 1182.5,547.5 C 1178.05,547.944 1174.72,546.277 1172.5,542.5C 1172.5,540.5 1172.5,538.5 1172.5,536.5C 1176.18,536.335 1179.85,536.501 1183.5,537C 1186.28,540.819 1185.95,544.319 1182.5,547.5 Z"/></g>
<g><path style="opacity:1" fill="#ece6e5" d="M 407.5,536.5 C 411.062,536.965 414.395,538.132 417.5,540C 419.066,542.677 418.4,544.01 415.5,544C 412.287,541.95 409.621,539.45 407.5,536.5 Z"/></g>
<g><path style="opacity:1" fill="#bdb6b1" d="M 654.5,540.5 C 655.822,540.33 656.989,540.663 658,541.5C 658.758,543.769 658.591,545.936 657.5,548C 652.917,548.934 651.417,547.1 653,542.5C 653.717,541.956 654.217,541.289 654.5,540.5 Z"/></g>
<g><path style="opacity:1" fill="#bdb6b1" d="M 1585.5,542.5 C 1590.65,543.797 1592.49,547.13 1591,552.5C 1588.28,555.319 1585.95,554.986 1584,551.5C 1583.07,548.177 1583.57,545.177 1585.5,542.5 Z"/></g>
<g><path style="opacity:1" fill="#beb8b2" d="M 402.5,577.5 C 405.187,577.336 407.854,577.503 410.5,578C 411.423,580.041 411.756,582.208 411.5,584.5C 405.908,585.228 402.908,582.895 402.5,577.5 Z"/></g>
<g><path style="opacity:1" fill="#bdb7b1" d="M 541.5,578.5 C 547.555,577.942 548.888,580.109 545.5,585C 540.791,585.082 539.458,582.915 541.5,578.5 Z"/></g>
<g><path style="opacity:1" fill="#f5eeed" d="M 1045.5,581.5 C 1048.85,581.335 1052.18,581.502 1055.5,582C 1056.83,583 1056.83,584 1055.5,585C 1051.13,585.828 1046.8,585.661 1042.5,584.5C 1043.77,583.712 1044.77,582.712 1045.5,581.5 Z"/></g>
<g><path style="opacity:1" fill="#cdc7c0" d="M 761.5,583.5 C 789.386,581.044 815.72,586.211 840.5,599C 863.061,613.292 872.895,633.792 870,660.5C 864.982,681.889 856.649,701.889 845,720.5C 841.606,724.898 838.606,729.565 836,734.5C 832.151,738.841 827.318,741.174 821.5,741.5C 799.027,739.79 777.027,735.623 755.5,729C 750.566,727.023 745.732,724.857 741,722.5C 736.577,725.76 734.077,724.593 733.5,719C 707.53,704.011 691.03,681.844 684,652.5C 672.977,645.74 669.977,636.407 675,624.5C 687.552,612.618 701.719,603.118 717.5,596C 731.902,590.365 746.569,586.198 761.5,583.5 Z"/></g>
<g><path style="opacity:1" fill="#b4acab" d="M 883.5,589.5 C 884.496,589.414 885.329,589.748 886,590.5C 886.463,598.195 882.963,600.861 875.5,598.5C 873.876,597.131 873.376,595.464 874,593.5C 877.222,592.083 880.388,590.749 883.5,589.5 Z"/></g>
<g><path style="opacity:1" fill="#beb8b3" d="M 1415.5,611.5 C 1423.06,610.09 1425.56,613.09 1423,620.5C 1421.06,622.978 1418.9,623.145 1416.5,621C 1411.76,617.972 1411.42,614.806 1415.5,611.5 Z"/></g>
<g><path style="opacity:1" fill="#beb7b2" d="M 583.5,620.5 C 588.501,619.671 590.668,621.671 590,626.5C 585.752,632.267 582.918,631.767 581.5,625C 581.519,623.167 582.185,621.667 583.5,620.5 Z"/></g>
<g><path style="opacity:1" fill="#8f8989" d="M 767.5,619.5 C 785.96,618.367 803.627,621.533 820.5,629C 831.583,635.334 836.083,644.834 834,657.5C 828.56,673.489 821.393,688.655 812.5,703C 807.81,703.332 803.143,702.998 798.5,702C 796.448,696.574 793.448,696.074 789.5,700.5C 772.503,697.667 756.837,691.5 742.5,682C 727.887,670.272 720.053,655.105 719,636.5C 734.113,627.523 750.279,621.856 767.5,619.5 Z"/></g>
<g><path style="opacity:1" fill="#beb8b2" d="M 1323.5,622.5 C 1321.91,624.633 1319.91,626.299 1317.5,627.5C 1316.78,625.236 1316.45,622.903 1316.5,620.5C 1319.08,620.394 1321.41,621.061 1323.5,622.5 Z"/></g>
<g><path style="opacity:1" fill="#bfb9b3" d="M 1678.5,620.5 C 1684.14,620.812 1686.47,623.812 1685.5,629.5C 1682.5,629.5 1679.5,629.5 1676.5,629.5C 1676.07,626.162 1676.73,623.162 1678.5,620.5 Z"/></g>
<g><path style="opacity:1" fill="#f5eeed" d="M 1323.5,622.5 C 1324.5,622.5 1325.5,622.5 1326.5,622.5C 1326.74,624.467 1326.41,626.301 1325.5,628C 1322.08,629.904 1318.41,630.737 1314.5,630.5C 1314.5,629.5 1314.5,628.5 1314.5,627.5C 1315.5,627.5 1316.5,627.5 1317.5,627.5C 1319.91,626.299 1321.91,624.633 1323.5,622.5 Z"/></g>
<g><path style="opacity:1" fill="#f1ebea" d="M 807.5,646.5 C 813.361,646.212 815.361,648.878 813.5,654.5C 809.546,653.407 805.88,651.74 802.5,649.5C 804.145,648.304 805.811,647.304 807.5,646.5 Z"/></g>
<g><path style="opacity:1" fill="#bdb2b1" d="M 1580.5,652.5 C 1582.86,652.337 1585.19,652.503 1587.5,653C 1590.81,659.321 1588.81,661.654 1581.5,660C 1579.29,657.758 1578.95,655.258 1580.5,652.5 Z"/></g>
<g><path style="opacity:1" fill="#f3ecec" d="M 401.5,658.5 C 407.032,658.028 409.365,660.362 408.5,665.5C 406.635,666.666 404.968,666.333 403.5,664.5C 401.018,666.344 398.351,667.677 395.5,668.5C 395.338,666.473 395.505,664.473 396,662.5C 398.015,661.303 399.849,659.97 401.5,658.5 Z"/></g>
<g><path style="opacity:1" fill="#bfb9b3" d="M 1530.5,659.5 C 1533.52,659.335 1536.52,659.502 1539.5,660C 1542.56,665.167 1540.9,668 1534.5,668.5C 1529.51,667.304 1528.17,664.304 1530.5,659.5 Z"/></g>
<g><path style="opacity:1" fill="#ece6e5" d="M 1374.5,661.5 C 1379,659.992 1383,660.992 1386.5,664.5C 1386.11,665.72 1385.28,666.387 1384,666.5C 1380.59,665.21 1377.42,663.544 1374.5,661.5 Z"/></g>
<g><path style="opacity:1" fill="#cec8c1" d="M 731.5,899.5 C 731.953,898.542 732.619,897.708 733.5,897C 738.882,895.476 743.882,893.142 748.5,890C 761.993,880.419 775.66,871.086 789.5,862C 819.518,843.216 852.184,832.216 887.5,829C 931.604,825.042 971.937,835.375 1008.5,860C 1062.7,901.926 1082.86,956.426 1069,1023.5C 1059.88,1049.42 1046.88,1073.08 1030,1094.5C 1010.95,1116.95 992.612,1139.95 975,1163.5C 960.696,1183.1 948.696,1204.1 939,1226.5C 928.704,1252.66 929.037,1278.66 940,1304.5C 942.6,1311.38 946.433,1317.38 951.5,1322.5C 952.62,1321.17 953.953,1320.67 955.5,1321C 956.418,1323.13 956.584,1325.3 956,1327.5C 971.286,1339.26 988.619,1344.59 1008,1343.5C 1033.23,1343.04 1058.4,1341.54 1083.5,1339C 1112.21,1335.95 1139.87,1339.78 1166.5,1350.5C 1166.33,1349.18 1166.66,1348.01 1167.5,1347C 1175.72,1345.2 1177.39,1347.53 1172.5,1354C 1228.7,1386.57 1255.54,1435.4 1253,1500.5C 1250.02,1518.06 1248.68,1535.73 1249,1553.5C 1249.88,1557.94 1252.21,1561.28 1256,1563.5C 1266.31,1560.06 1276.48,1556.23 1286.5,1552C 1328.7,1530.27 1371.7,1510.27 1415.5,1492C 1456.94,1473.74 1499.94,1460.74 1544.5,1453C 1556.27,1452.02 1567.94,1452.69 1579.5,1455C 1588.88,1457.5 1594.88,1463.33 1597.5,1472.5C 1597.05,1474.74 1597.05,1476.74 1597.5,1478.5C 1595.79,1482.93 1593.79,1487.26 1591.5,1491.5C 1591.71,1492.09 1592.04,1492.59 1592.5,1493C 1591.17,1493.67 1589.83,1494.33 1588.5,1495C 1589.25,1495.67 1589.59,1496.5 1589.5,1497.5C 1587.82,1498.18 1587.16,1499.52 1587.5,1501.5C 1586.17,1501.5 1584.83,1501.5 1583.5,1501.5C 1583.65,1502.55 1583.48,1503.55 1583,1504.5C 1571.53,1515.31 1560.03,1526.14 1548.5,1537C 1544.19,1539.65 1540.19,1542.65 1536.5,1546C 1538.29,1547.59 1538.45,1549.09 1537,1550.5C 1535.82,1549.27 1534.65,1549.27 1533.5,1550.5C 1534.49,1553.4 1533.49,1554.07 1530.5,1552.5C 1529.7,1554.08 1529.2,1555.74 1529,1557.5C 1526.24,1555.98 1524.41,1556.82 1523.5,1560C 1519.8,1561.21 1516.47,1563.04 1513.5,1565.5C 1459.77,1611.56 1400.77,1649.89 1336.5,1680.5C 1335.18,1680.33 1334.01,1680.66 1333,1681.5C 1332.69,1680.69 1332.19,1680.03 1331.5,1679.5C 1323.1,1683.37 1314.76,1687.21 1306.5,1691C 1249.67,1714.21 1189.67,1731.21 1126.5,1742C 1046.19,1747.13 965.862,1747.8 885.5,1744C 888.5,1744.33 891.5,1744.67 894.5,1745C 892.19,1745.5 889.857,1745.66 887.5,1745.5C 845.056,1742.39 803.723,1733.89 763.5,1720C 745.927,1713.48 728.427,1706.98 711,1700.5C 709.635,1700.84 708.468,1701.51 707.5,1702.5C 707.306,1700.93 707.306,1699.43 707.5,1698C 704.767,1697.24 702.267,1697.74 700,1699.5C 696.063,1699 695.23,1697.5 697.5,1695C 695.633,1694.29 694.133,1694.79 693,1696.5C 684.417,1693.53 675.917,1690.36 667.5,1687C 634.238,1668.03 600.238,1650.03 565.5,1633C 560.581,1628.72 555.248,1625.22 549.5,1622.5C 550.091,1621.85 550.757,1621.18 551.5,1620.5C 550.674,1619.55 550.508,1618.55 551,1617.5C 556.688,1621.01 562.688,1623.68 569,1625.5C 570.943,1625.04 572.276,1626.04 573,1628.5C 573.333,1628.17 573.667,1627.83 574,1627.5C 576.185,1629.54 578.685,1630.87 581.5,1631.5C 581.33,1632.82 581.663,1633.99 582.5,1635C 596.456,1642.31 610.623,1650.15 625,1658.5C 626.309,1656.11 627.309,1656.11 628,1658.5C 629.617,1657.46 629.784,1656.3 628.5,1655C 616.112,1648.14 603.779,1641.31 591.5,1634.5C 526.534,1595.35 467.367,1548.35 414,1493.5C 383.32,1460.93 356.153,1425.77 332.5,1388C 333.27,1386.23 334.437,1384.73 336,1383.5C 336.915,1381.08 336.082,1379.75 333.5,1379.5C 331.726,1379.89 330.059,1380.55 328.5,1381.5C 303.374,1341.24 283.041,1298.58 267.5,1253.5C 257.47,1224.05 249.304,1194.05 243,1163.5C 242.667,1164.5 242.333,1165.5 242,1166.5C 241.243,1164.69 240.41,1163.02 239.5,1161.5C 221.003,1055 222.503,948.666 244,842.5C 252.54,788.671 266.54,736.338 286,685.5C 288.428,677.623 292.594,670.957 298.5,665.5C 299.167,665.5 299.833,665.5 300.5,665.5C 299.972,666.847 299.805,668.181 300,669.5C 304.027,666.404 308.527,664.237 313.5,663C 328.251,660.603 341.251,664.27 352.5,674C 367.311,690.115 378.144,708.615 385,729.5C 398.061,772.862 406.061,817.195 409,862.5C 410.262,890.194 411.929,917.861 414,945.5C 417.926,969.87 423.426,993.87 430.5,1017.5C 434.049,1017.56 437.382,1016.73 440.5,1015C 449.287,1009.88 456.453,1003.05 462,994.5C 476.368,969.767 489.701,944.434 502,918.5C 506.585,910.995 511.418,903.662 516.5,896.5C 515.855,895.354 515.022,894.354 514,893.5C 513.333,892.5 513.333,891.5 514,890.5C 517.395,888.02 521.228,886.52 525.5,886C 536.333,875.746 548.666,867.746 562.5,862C 583.498,854.068 603.164,856.401 621.5,869C 630.803,879.304 640.47,889.304 650.5,899C 654.241,901.732 658.241,904.066 662.5,906C 686.38,913.649 709.38,911.483 731.5,899.5 Z"/></g>
<g><path style="opacity:1" fill="#f2eceb" d="M 510.5,671.5 C 506.616,671.058 504.616,672.725 504.5,676.5C 498.201,674.746 492.201,675.413 486.5,678.5C 483.965,676.805 481.298,675.305 478.5,674C 483.167,674 487.833,674 492.5,674C 497.154,673.169 498.488,670.669 496.5,666.5C 496.833,665.5 497.5,664.833 498.5,664.5C 499.382,665.76 500.382,666.926 501.5,668C 505.211,668.175 508.878,668.675 512.5,669.5C 512.145,670.522 511.478,671.189 510.5,671.5 Z"/></g>
<g><path style="opacity:1" fill="#eee8e7" d="M 1138.5,664.5 C 1143.8,666.048 1146.47,669.715 1146.5,675.5C 1143.56,675.283 1140.73,674.617 1138,673.5C 1134.2,674.986 1130.37,676.319 1126.5,677.5C 1126.28,676.325 1126.61,675.325 1127.5,674.5C 1129.81,673.786 1131.98,672.786 1134,671.5C 1134.1,668.115 1135.6,665.781 1138.5,664.5 Z"/></g>
<g><path style="opacity:1" fill="#f8f1f1" d="M 1390.5,666.5 C 1394.46,666.089 1398.13,666.922 1401.5,669C 1403.52,670.555 1403.85,672.389 1402.5,674.5C 1398.89,670.999 1394.56,669.665 1389.5,670.5C 1389.43,669.041 1389.77,667.708 1390.5,666.5 Z"/></g>
<g><path style="opacity:1" fill="#f3eceb" d="M 1431.5,669.5 C 1437.49,669.664 1438.82,672.164 1435.5,677C 1431.57,676.779 1428.23,675.112 1425.5,672C 1427.5,670.981 1429.5,670.148 1431.5,669.5 Z"/></g>
<g><path style="opacity:1" fill="#beb7b2" d="M 510.5,671.5 C 510.082,672.222 509.416,672.722 508.5,673C 510.377,674.185 512.377,675.185 514.5,676C 515.359,679.054 514.359,681.554 511.5,683.5C 510.416,682.335 509.583,681.002 509,679.5C 507.122,678.947 505.622,677.947 504.5,676.5C 504.616,672.725 506.616,671.058 510.5,671.5 Z"/></g>
<g><path style="opacity:1" fill="#eee7e6" d="M 1514.5,672.5 C 1517.52,672.335 1520.52,672.502 1523.5,673C 1524.34,674.011 1524.67,675.178 1524.5,676.5C 1521.21,675.793 1517.88,675.46 1514.5,675.5C 1514.5,674.5 1514.5,673.5 1514.5,672.5 Z"/></g>
<g><path style="opacity:1" fill="#ebe5e4" d="M 1104.5,670.5 C 1108.51,670.502 1112.18,671.668 1115.5,674C 1117.04,675.11 1117.7,676.61 1117.5,678.5C 1112.02,678.262 1107.35,676.096 1103.5,672C 1104.06,671.617 1104.39,671.117 1104.5,670.5 Z"/></g>
<g><path style="opacity:1" fill="#bdb6b0" d="M 399.5,676.5 C 404.341,678.544 404.675,681.211 400.5,684.5C 399.28,684.113 398.613,683.28 398.5,682C 398.708,680.189 399.041,678.356 399.5,676.5 Z"/></g>
<g><path style="opacity:1" fill="#efe8e7" d="M 1685.5,678.5 C 1689.17,678.5 1692.83,678.5 1696.5,678.5C 1696.67,679.822 1696.34,680.989 1695.5,682C 1691.92,683.251 1688.25,684.251 1684.5,685C 1683.12,687.477 1681.29,688.311 1679,687.5C 1678.33,686.5 1678.33,685.5 1679,684.5C 1681.06,682.266 1683.23,680.266 1685.5,678.5 Z"/></g>
<g><path style="opacity:1" fill="#b9b3ad" d="M 963.5,688.5 C 966.93,687.755 968.597,689.089 968.5,692.5C 967.89,696.486 967.39,700.486 967,704.5C 964.681,709.429 962.515,709.595 960.5,705C 961.861,699.526 962.861,694.026 963.5,688.5 Z"/></g>
<g><path style="opacity:1" fill="#b9b3ad" d="M 1032.5,689.5 C 1033.5,689.5 1034.5,689.5 1035.5,689.5C 1035.5,691.833 1035.5,694.167 1035.5,696.5C 1038.83,696.998 1042,697.998 1045,699.5C 1045.8,705.446 1043.3,708.279 1037.5,708C 1035.67,704.833 1033.83,701.667 1032,698.5C 1031.26,695.408 1031.43,692.408 1032.5,689.5 Z"/></g>
<g><path style="opacity:1" fill="#f3edec" d="M 1719.5,690.5 C 1720.5,690.5 1721.5,690.5 1722.5,690.5C 1722.5,692.167 1722.5,693.833 1722.5,695.5C 1726.24,694.599 1728.24,695.932 1728.5,699.5C 1724.74,698.622 1721.08,698.289 1717.5,698.5C 1715.97,695.282 1716.64,692.615 1719.5,690.5 Z"/></g>
<g><path style="opacity:1" fill="#efe8e7" d="M 901.5,693.5 C 904.579,695.02 907.912,695.853 911.5,696C 915.785,698.207 915.452,699.374 910.5,699.5C 906.545,699.519 903.212,698.186 900.5,695.5C 900.863,694.817 901.196,694.15 901.5,693.5 Z"/></g>
<g><path style="opacity:1" fill="#bfb9b3" d="M 557.5,717.5 C 557.586,716.504 557.252,715.671 556.5,715C 554.026,714.887 552.026,713.887 550.5,712C 548.866,711.506 547.199,711.34 545.5,711.5C 546.609,710.71 547.942,710.21 549.5,710C 544.684,702.152 546.684,699.485 555.5,702C 557.845,704.677 560.512,707.01 563.5,709C 570.728,711.641 578.061,713.974 585.5,716C 587.344,717.182 589.177,718.349 591,719.5C 592.885,719.138 593.719,717.971 593.5,716C 592.241,713.473 591.241,710.806 590.5,708C 590.388,706.338 591.054,705.171 592.5,704.5C 595.024,707.522 597.691,710.356 600.5,713C 599.372,714.468 598.706,716.135 598.5,718C 600.8,723.421 599.467,727.587 594.5,730.5C 593.691,732.071 593.357,733.738 593.5,735.5C 591.801,735.66 590.134,735.494 588.5,735C 587.32,730.486 584.654,727.153 580.5,725C 572.992,721.997 565.325,719.497 557.5,717.5 Z"/></g>
<g><path style="opacity:1" fill="#f3ecec" d="M 422.5,704.5 C 428.292,704.779 430.292,707.612 428.5,713C 424.972,712.672 422.306,710.839 420.5,707.5C 421.193,706.482 421.859,705.482 422.5,704.5 Z"/></g>
<g><path style="opacity:1" fill="#f2eceb" d="M 1557.5,704.5 C 1564.54,704.653 1566.37,707.986 1563,714.5C 1560.77,718.325 1558.77,718.325 1557,714.5C 1556.34,711.112 1556.51,707.779 1557.5,704.5 Z"/></g>
<g><path style="opacity:1" fill="#ede7e6" d="M 1090.5,708.5 C 1097.9,711.895 1099.23,716.895 1094.5,723.5C 1092.13,722.631 1090.63,720.965 1090,718.5C 1089.83,715.174 1089.99,711.841 1090.5,708.5 Z"/></g>
<g><path style="opacity:1" fill="#f0e9e8" d="M 545.5,711.5 C 547.199,711.34 548.866,711.506 550.5,712C 552.026,713.887 554.026,714.887 556.5,715C 557.252,715.671 557.586,716.504 557.5,717.5C 555.737,718.334 554.07,717.834 552.5,716C 549.833,715.667 547.167,715.333 544.5,715C 543.2,713.421 543.534,712.255 545.5,711.5 Z"/></g>
<g><path style="opacity:1" fill="#bdb7b1" d="M 1422.5,710.5 C 1430.22,710.161 1432.55,713.327 1429.5,720C 1420.4,721.879 1418.07,718.712 1422.5,710.5 Z"/></g>
<g><path style="opacity:1" fill="#f2ebeb" d="M 1365.5,712.5 C 1369.58,712.017 1371.91,713.684 1372.5,717.5C 1370.41,717.318 1368.41,717.652 1366.5,718.5C 1365.53,716.604 1365.2,714.604 1365.5,712.5 Z"/></g>
<g><path style="opacity:1" fill="#bdb6b1" d="M 1310.5,717.5 C 1313.54,719.251 1314.7,721.917 1314,725.5C 1310.55,727.353 1308.72,726.353 1308.5,722.5C 1308.44,720.486 1309.1,718.819 1310.5,717.5 Z"/></g>
<g><path style="opacity:1" fill="#cdc7c0" d="M 509.5,724.5 C 516.626,723.798 520.626,726.965 521.5,734C 521.458,735.967 520.958,737.801 520,739.5C 510.61,746.352 510.11,753.852 518.5,762C 523.448,764.721 528.281,767.554 533,770.5C 533.667,773.167 533.667,775.833 533,778.5C 532.097,779.701 530.931,780.535 529.5,781C 514.897,778.514 502.73,782.681 493,793.5C 484.865,805.105 478.865,817.772 475,831.5C 472.959,835.084 470.792,838.584 468.5,842C 464.102,843.378 460.602,842.212 458,838.5C 457.303,834.465 457.47,830.465 458.5,826.5C 458.535,824.263 457.702,823.93 456,825.5C 454.527,825.097 453.194,824.43 452,823.5C 451.828,820.174 451.995,816.841 452.5,813.5C 457.467,814.319 459.634,817.319 459,822.5C 462.955,810.103 464.289,797.437 463,784.5C 459.601,776.462 453.434,772.295 444.5,772C 439.776,769.565 438.276,765.731 440,760.5C 440.833,759.667 441.667,758.833 442.5,758C 460.851,758.648 477.184,753.315 491.5,742C 498.004,736.663 504.004,730.829 509.5,724.5 Z"/></g>
<g><path style="opacity:1" fill="#cdc7c0" d="M 1619.5,1043.5 C 1617.82,1043.29 1616.82,1043.95 1616.5,1045.5C 1615.78,1045.08 1615.28,1044.42 1615,1043.5C 1590.17,1067.07 1560.5,1078.4 1526,1077.5C 1486.7,1077.87 1456.7,1061.54 1436,1028.5C 1429.65,1015.93 1426.48,1002.6 1426.5,988.5C 1421.34,988.864 1419.51,986.53 1421,981.5C 1422.17,980.107 1423.67,979.273 1425.5,979C 1426.06,978.275 1426.39,977.442 1426.5,976.5C 1423.72,965.668 1422.89,954.668 1424,943.5C 1427.63,923.568 1434.63,904.901 1445,887.5C 1464.17,822.664 1504,775.164 1564.5,745C 1591.26,732.769 1618.93,729.602 1647.5,735.5C 1647.29,737.144 1647.62,738.644 1648.5,740C 1685.53,754.19 1705.53,781.023 1708.5,820.5C 1707.97,833.961 1704.47,846.627 1698,858.5C 1686.53,876.638 1673.53,893.638 1659,909.5C 1651.25,920.337 1646.25,932.337 1644,945.5C 1643.26,963.948 1641.43,982.281 1638.5,1000.5C 1638.53,1002.03 1639.2,1003.2 1640.5,1004C 1642.81,1004.5 1645.14,1004.66 1647.5,1004.5C 1647.86,1009.66 1645.53,1011.49 1640.5,1010C 1639.3,1009.1 1638.47,1007.93 1638,1006.5C 1633.25,1019.85 1626.08,1031.68 1616.5,1042C 1617.74,1042.23 1618.74,1042.73 1619.5,1043.5 Z"/></g>
<g><path style="opacity:1" fill="#f5eeed" d="M 1721.5,732.5 C 1724.7,732.513 1726.36,734.18 1726.5,737.5C 1725.51,740.134 1724.01,742.468 1722,744.5C 1719.58,742.348 1716.74,741.015 1713.5,740.5C 1712.61,739.675 1712.28,738.675 1712.5,737.5C 1717.13,738.583 1720.13,736.917 1721.5,732.5 Z"/></g>
<g><path style="opacity:1" fill="#efe8e7" d="M 1024.5,767.5 C 1025.83,767.5 1027.17,767.5 1028.5,767.5C 1028.28,775.085 1024.95,777.085 1018.5,773.5C 1020.03,772.139 1021.7,770.972 1023.5,770C 1024.25,769.329 1024.59,768.496 1024.5,767.5 Z"/></g>
<g><path style="opacity:1" fill="#ece6e5" d="M 1147.5,767.5 C 1149.72,767.178 1151.56,767.845 1153,769.5C 1153.5,772.146 1153.66,774.813 1153.5,777.5C 1149.77,777.823 1146.11,777.489 1142.5,776.5C 1143.4,773.021 1145.07,770.021 1147.5,767.5 Z"/></g>
<g><path style="opacity:1" fill="#908a85" d="M 1337.5,269.5 C 1357.68,279.087 1377.35,289.421 1396.5,300.5C 1394.74,300.123 1393.08,299.456 1391.5,298.5C 1390.3,298.846 1390.3,299.346 1391.5,300C 1466.79,342.582 1533.29,396.416 1591,461.5C 1591.46,460.906 1591.63,460.239 1591.5,459.5C 1602.58,470.306 1612.75,481.972 1622,494.5C 1734.62,641.869 1789.45,808.869 1786.5,995.5C 1785.5,995.5 1784.5,995.5 1783.5,995.5C 1782.98,1028.36 1780.15,1061.03 1775,1093.5C 1774.88,1095.44 1774.05,1096.77 1772.5,1097.5C 1794.61,957.548 1780.11,821.548 1729,689.5C 1660.04,520.714 1546.54,391.048 1388.5,300.5C 1387.13,302.124 1385.46,302.624 1383.5,302C 1382.07,299.733 1382.4,297.733 1384.5,296C 1369.69,287.513 1354.53,279.68 1339,272.5C 1338.72,273.416 1338.22,274.082 1337.5,274.5C 1338.07,272.64 1338.07,270.973 1337.5,269.5 Z"/></g>
<g><path style="opacity:1" fill="#bcb5b0" d="M 856.5,780.5 C 857.822,780.33 858.989,780.663 860,781.5C 860.495,783.473 860.662,785.473 860.5,787.5C 855.824,787.153 854.491,784.82 856.5,780.5 Z"/></g>
<g><path style="opacity:1" fill="#e3dddc" d="M 1176.5,785.5 C 1179.85,785.335 1183.18,785.502 1186.5,786C 1183.09,788.948 1179.09,790.115 1174.5,789.5C 1174.53,787.801 1175.19,786.467 1176.5,785.5 Z"/></g>
<g><path style="opacity:1" fill="#8f8989" d="M 1652.5,784.5 C 1655.73,786.22 1658.56,788.553 1661,791.5C 1673.34,807.929 1674.67,825.262 1665,843.5C 1653.71,858.455 1642.05,873.121 1630,887.5C 1620.05,901.074 1613.05,916.074 1609,932.5C 1606.89,949.449 1605.23,966.449 1604,983.5C 1601.44,1006.14 1589.94,1022.31 1569.5,1032C 1557.09,1037.52 1544.09,1040.35 1530.5,1040.5C 1530.82,1036.25 1529.99,1032.25 1528,1028.5C 1523.52,1024.26 1518.85,1020.26 1514,1016.5C 1497.05,993.812 1495.39,970.145 1509,945.5C 1514.74,927.948 1521.07,910.614 1528,893.5C 1548.48,852.357 1580.98,825.857 1625.5,814C 1641.02,809.988 1650.02,800.155 1652.5,784.5 Z"/></g>
<g><path style="opacity:1" fill="#f2ebea" d="M 1441.5,790.5 C 1443.35,790.272 1444.19,790.939 1444,792.5C 1441.51,794.743 1438.85,796.743 1436,798.5C 1435.33,797.5 1435.33,796.5 1436,795.5C 1437.73,793.598 1439.56,791.931 1441.5,790.5 Z"/></g>
<g><path style="opacity:1" fill="#ede7e6" d="M 790.5,792.5 C 793.455,793.159 796.455,793.492 799.5,793.5C 799.5,794.833 799.5,796.167 799.5,797.5C 796.276,797.797 793.276,797.13 790.5,795.5C 789.438,794.575 789.438,793.575 790.5,792.5 Z"/></g>
<g><path style="opacity:1" fill="#f3ecec" d="M 605.5,801.5 C 608.721,802.111 611.721,803.278 614.5,805C 615.93,806.88 615.596,808.38 613.5,809.5C 609.042,806.326 605.375,806.992 602.5,811.5C 600.955,812.452 599.288,812.785 597.5,812.5C 597.933,809.834 598.433,807.168 599,804.5C 601.045,803.074 603.212,802.074 605.5,801.5 Z"/></g>
<g><path style="opacity:1" fill="#bfb9b3" d="M 1723.5,803.5 C 1725.86,803.337 1728.19,803.503 1730.5,804C 1731.83,806 1731.83,808 1730.5,810C 1727.85,810.497 1725.19,810.664 1722.5,810.5C 1722.3,808.05 1722.63,805.717 1723.5,803.5 Z"/></g>
<g><path style="opacity:1" fill="#f3eceb" d="M 546.5,804.5 C 552.13,805.292 557.797,805.625 563.5,805.5C 563.5,806.5 563.5,807.5 563.5,808.5C 561.5,808.5 559.5,808.5 557.5,808.5C 560,813.837 558.333,816.17 552.5,815.5C 552.498,811.651 550.665,808.985 547,807.5C 546.517,806.552 546.351,805.552 546.5,804.5 Z"/></g>
<g><path style="opacity:1" fill="#efeae8" d="M 956.5,805.5 C 960.442,805.754 963.775,807.254 966.5,810C 966.167,810.5 965.833,811 965.5,811.5C 963.224,810.787 960.891,810.287 958.5,810C 956.893,808.951 956.227,807.451 956.5,805.5 Z"/></g>
<g><path style="opacity:1" fill="#bfb8b3" d="M 653.5,809.5 C 658.255,809.156 659.588,811.156 657.5,815.5C 655.955,816.452 654.288,816.785 652.5,816.5C 652.298,814.05 652.631,811.717 653.5,809.5 Z"/></g>
<g><path style="opacity:1" fill="#f0e9e6" d="M 1307.5,815.5 C 1311.44,816.209 1315.44,816.209 1319.5,815.5C 1319.7,817.39 1319.04,818.89 1317.5,820C 1315.3,820.373 1313.14,820.873 1311,821.5C 1308.09,820.571 1306.92,818.571 1307.5,815.5 Z"/></g>
<g><path style="opacity:1" fill="#ede7e7" d="M 1150.5,818.5 C 1154.27,817.822 1157.11,819.156 1159,822.5C 1159.75,823.635 1159.58,824.635 1158.5,825.5C 1151.9,824.035 1145.23,822.869 1138.5,822C 1142.6,820.996 1146.6,819.829 1150.5,818.5 Z"/></g>
<g><path style="opacity:1" fill="#f5eeee" d="M 727.5,820.5 C 733.338,821.667 739.171,821.667 745,820.5C 746.971,820.281 748.138,821.115 748.5,823C 747.295,824.538 745.795,825.705 744,826.5C 742.177,825.349 740.344,824.182 738.5,823C 734.367,823.094 730.701,822.26 727.5,820.5 Z"/></g>
<g><path style="opacity:1" fill="#bbb4af" d="M 1292.5,828.5 C 1296.29,828.726 1299.96,829.56 1303.5,831C 1303.96,831.414 1304.29,831.914 1304.5,832.5C 1300.47,833.959 1296.64,833.626 1293,831.5C 1292.52,830.552 1292.35,829.552 1292.5,828.5 Z"/></g>
<g><path style="opacity:1" fill="#f3edeb" d="M 381.5,831.5 C 385.677,830.842 387.177,832.508 386,836.5C 382.926,840.47 379.093,841.47 374.5,839.5C 374.244,841.912 375.244,843.579 377.5,844.5C 376.652,846.283 375.319,846.783 373.5,846C 366.85,842.771 366.183,838.771 371.5,834C 374.952,833.115 378.286,832.282 381.5,831.5 Z"/></g>
<g><path style="opacity:1" fill="#f1eae9" d="M 1563.5,862.5 C 1564.83,862.5 1566.17,862.5 1567.5,862.5C 1567.5,863.5 1567.5,864.5 1567.5,865.5C 1561.46,865.829 1555.46,865.496 1549.5,864.5C 1554.32,863.833 1558.98,863.166 1563.5,862.5 Z"/></g>
<g><path style="opacity:1" fill="#f9f2f2" d="M 1254.5,1592.5 C 1254.59,1593.5 1254.25,1594.33 1253.5,1595C 1251.17,1596 1248.83,1597 1246.5,1598C 1236.29,1600.37 1226.29,1603.37 1216.5,1607C 1206.26,1617.99 1207.26,1628.32 1219.5,1638C 1224,1640.39 1228.67,1642.39 1233.5,1644C 1235.35,1645.68 1237.02,1647.52 1238.5,1649.5C 1237.39,1650.89 1236.06,1652.06 1234.5,1653C 1230.72,1654.39 1227.05,1656.06 1223.5,1658C 1224.42,1658.28 1225.08,1658.78 1225.5,1659.5C 1109.48,1701.97 991.151,1709.47 870.5,1682C 708.839,1645.12 571.672,1566.62 459,1446.5C 405.551,1387.65 364.218,1320.99 335,1246.5C 295.176,1140.12 288.843,1031.79 316,921.5C 321.013,904.793 327.013,888.46 334,872.5C 335.833,869.333 338.333,866.833 341.5,865C 345.904,865.03 349.071,867.196 351,871.5C 351.667,873.5 352.333,875.5 353,877.5C 353.352,913.187 354.352,948.853 356,984.5C 361.925,1005.87 368.925,1026.87 377,1047.5C 396.426,1090.64 427.259,1101.14 469.5,1079C 483.169,1069.68 494.003,1058.51 502,1045.5C 514.917,1025.33 527.584,1005 540,984.5C 546.321,975.52 553.321,967.187 561,959.5C 571.422,971.925 582.589,983.759 594.5,995C 620.076,1016.95 649.743,1027.28 683.5,1026C 714.408,1022.08 739.908,1008.25 760,984.5C 766.359,976.411 771.692,969.078 776,962.5C 793.983,942.345 817.15,928.845 845.5,922C 868.572,918.041 890.739,920.874 912,930.5C 916.407,928.343 918.74,929.676 919,934.5C 950.508,957.024 960.508,987.024 949,1024.5C 943.34,1040.82 935.34,1055.82 925,1069.5C 895.38,1107.45 865.38,1145.12 835,1182.5C 819.633,1203.23 807.966,1225.9 800,1250.5C 791.916,1281.49 795.249,1311.15 810,1339.5C 821.528,1356.36 837.362,1366.86 857.5,1371C 867.433,1372.66 877.433,1373.49 887.5,1373.5C 914.563,1372.61 941.563,1370.77 968.5,1368C 993.869,1365.89 1018.87,1367.89 1043.5,1374C 1053.89,1377.69 1063.56,1382.69 1072.5,1389C 1083.47,1398.81 1094.8,1408.14 1106.5,1417C 1135.65,1447.44 1144.15,1482.94 1132,1523.5C 1128.58,1541.96 1131.91,1558.96 1142,1574.5C 1147.28,1580.64 1153.62,1585.3 1161,1588.5C 1162.47,1587.67 1163.97,1587.5 1165.5,1588C 1167.5,1589.67 1169.5,1591.33 1171.5,1593C 1186.24,1597.07 1201.24,1598.41 1216.5,1597C 1229.31,1596.48 1241.97,1594.98 1254.5,1592.5 Z"/></g>
<g><path style="opacity:1" fill="#f4edeb" d="M 1343.5,864.5 C 1348.41,865.084 1351.41,867.751 1352.5,872.5C 1349.48,872.665 1346.48,872.498 1343.5,872C 1342.35,869.541 1342.35,867.041 1343.5,864.5 Z"/></g>
<g><path style="opacity:1" fill="#e6e0e0" d="M 882.5,866.5 C 887.565,865.6 891.565,867.1 894.5,871C 893.892,875.016 893.559,879.016 893.5,883C 888.89,884.29 884.223,884.624 879.5,884C 878.667,883.167 877.833,882.333 877,881.5C 874.958,874.873 876.792,869.873 882.5,866.5 Z"/></g>
<g><path style="opacity:1" fill="#bfb5b3" d="M 1069.5,864.5 C 1072.65,863.959 1075.15,864.959 1077,867.5C 1080.43,872.597 1083.43,877.931 1086,883.5C 1093.9,889.128 1093.07,891.628 1083.5,891C 1079.29,883.402 1074.45,876.235 1069,869.5C 1068.36,867.735 1068.53,866.068 1069.5,864.5 Z"/></g>
<g><path style="opacity:1" fill="#bcb4b0" d="M 741.5,876.5 C 742.496,876.414 743.329,876.748 744,877.5C 744.83,883.849 742.83,889.182 738,893.5C 738.329,887.687 739.496,882.02 741.5,876.5 Z"/></g>
<g><path style="opacity:1" fill="#e0dfd8" d="M 523.5,887.5 C 527.675,886.92 530.675,888.42 532.5,892C 531.112,896.37 528.112,898.87 523.5,899.5C 520.888,899.389 518.888,898.222 517.5,896C 519.705,893.298 521.705,890.464 523.5,887.5 Z"/></g>
<g><path style="opacity:1" fill="#bab0ae" d="M 1678.5,889.5 C 1684.83,889.174 1687.16,892.174 1685.5,898.5C 1682.5,898.5 1679.5,898.5 1676.5,898.5C 1676.07,895.162 1676.73,892.162 1678.5,889.5 Z"/></g>
<g><path style="opacity:1" fill="#e0dfd8" d="M 731.5,899.5 C 733.156,898.854 734.823,898.187 736.5,897.5C 738.167,897.833 739.167,898.833 739.5,900.5C 741.421,901.641 743.421,901.808 745.5,901C 749.813,898.7 754.147,896.367 758.5,894C 759.5,893.333 760.5,893.333 761.5,894C 759.833,898.333 756.833,901.333 752.5,903C 746.201,904.33 739.868,904.996 733.5,905C 731.845,903.556 731.178,901.722 731.5,899.5 Z"/></g>
<g><path style="opacity:1" fill="#f3eceb" d="M 1328.5,920.5 C 1332,921.944 1335.67,923.11 1339.5,924C 1341.09,926.48 1340.59,928.313 1338,929.5C 1334.75,928.932 1331.58,928.098 1328.5,927C 1325.94,924.844 1325.94,922.677 1328.5,920.5 Z"/></g>
<g><path style="opacity:1" fill="#ddd9d8" d="M 1705.5,925.5 C 1711.35,926.706 1713.02,929.872 1710.5,935C 1709,935.5 1707.5,936 1706,936.5C 1704.5,936.333 1703.67,935.5 1703.5,934C 1704.12,931.116 1704.78,928.283 1705.5,925.5 Z"/></g>
<g><path style="opacity:1" fill="#cdc7c0" d="M 1278.5,1123.5 C 1275.35,1122.07 1272.35,1122.24 1269.5,1124C 1270.67,1125.08 1272,1125.92 1273.5,1126.5C 1274.17,1128.17 1274.83,1129.83 1275.5,1131.5C 1276.18,1131.14 1276.85,1130.8 1277.5,1130.5C 1276.91,1146.58 1268.58,1153.41 1252.5,1151C 1244.99,1147.15 1241.16,1140.99 1241,1132.5C 1241.17,1119.17 1241.17,1105.84 1241,1092.5C 1239.9,1078.52 1234.9,1066.19 1226,1055.5C 1220.03,1050.53 1214.36,1045.2 1209,1039.5C 1205.71,1034.31 1204.05,1028.64 1204,1022.5C 1198.83,1024 1197,1022.17 1198.5,1017C 1200.9,1016.29 1203.23,1016.46 1205.5,1017.5C 1207.64,1014.19 1209.97,1011.03 1212.5,1008C 1224.21,1000.09 1236.87,994.092 1250.5,990C 1263.08,984.415 1273.58,976.248 1282,965.5C 1284.52,959.744 1286.18,953.744 1287,947.5C 1291.45,937.693 1298.95,933.86 1309.5,936C 1318.1,940.114 1323.1,946.948 1324.5,956.5C 1315.08,981.049 1316.91,1004.72 1330,1027.5C 1335.1,1032.6 1339.43,1038.26 1343,1044.5C 1345.04,1053.39 1342.54,1060.56 1335.5,1066C 1327.83,1067.91 1320.17,1069.91 1312.5,1072C 1297.36,1082.14 1286.2,1095.64 1279,1112.5C 1278.5,1116.15 1278.33,1119.82 1278.5,1123.5 Z"/></g>
<g><path style="opacity:1" fill="#efe8e7" d="M 1135.5,958.5 C 1138.17,958.933 1140.83,959.433 1143.5,960C 1144.52,961.049 1144.68,962.216 1144,963.5C 1139.88,963.522 1135.71,963.856 1131.5,964.5C 1130.42,963.635 1130.25,962.635 1131,961.5C 1132.41,960.219 1133.91,959.219 1135.5,958.5 Z"/></g>
<g><path style="opacity:1" fill="#b8b1ad" d="M 1149.5,944.5 C 1153.31,946.766 1157.31,948.932 1161.5,951C 1171.12,958.345 1170.79,965.179 1160.5,971.5C 1157.87,975.931 1154.87,980.098 1151.5,984C 1149.87,984.494 1148.2,984.66 1146.5,984.5C 1146.02,979.476 1148.18,976.143 1153,974.5C 1155.34,970.672 1157.84,967.005 1160.5,963.5C 1155.78,959.61 1151.95,954.944 1149,949.5C 1148.36,947.735 1148.53,946.068 1149.5,944.5 Z"/></g>
<g><path style="opacity:1" fill="#bcb6b0" d="M 1651.5,974.5 C 1657.02,974.473 1658.35,976.64 1655.5,981C 1650.57,981.427 1649.24,979.26 1651.5,974.5 Z"/></g>
<g><path style="opacity:1" fill="#f9f2f2" d="M 1683.5,977.5 C 1692.89,976.609 1699.06,980.609 1702,989.5C 1705.99,994.579 1711.16,997.745 1717.5,999C 1722.18,1005.16 1728.18,1008.99 1735.5,1010.5C 1734.16,1016.74 1733.33,1023.07 1733,1029.5C 1728.48,1033.02 1724.31,1036.85 1720.5,1041C 1717.36,1042.02 1714.19,1042.85 1711,1043.5C 1710.95,1047.61 1713.12,1049.61 1717.5,1049.5C 1717.62,1047.52 1716.95,1045.85 1715.5,1044.5C 1719.39,1043.46 1722.72,1044.46 1725.5,1047.5C 1722.68,1050.82 1719.68,1053.98 1716.5,1057C 1711.51,1057.75 1706.51,1058.42 1701.5,1059C 1700.27,1060.63 1698.94,1062.13 1697.5,1063.5C 1695.02,1060.64 1694.02,1057.31 1694.5,1053.5C 1693.13,1053.66 1691.79,1053.49 1690.5,1053C 1688.46,1050.63 1686.13,1048.63 1683.5,1047C 1676.66,1043.61 1669.66,1040.61 1662.5,1038C 1661.15,1035.99 1659.82,1033.99 1658.5,1032C 1661.39,1027.05 1663.89,1021.88 1666,1016.5C 1665.96,1008.75 1665.3,1001.08 1664,993.5C 1667.27,989.642 1671.44,987.475 1676.5,987C 1678.01,983.103 1680.35,979.937 1683.5,977.5 Z"/></g>
<g><path style="opacity:1" fill="#cec8c1" d="M 830.5,984.5 C 860.03,988.683 880.196,1004.68 891,1032.5C 891.939,1040.08 890.939,1047.42 888,1054.5C 869.623,1091.55 845.789,1124.72 816.5,1154C 806.231,1163.47 794.231,1169.8 780.5,1173C 775.129,1173.68 769.796,1173.51 764.5,1172.5C 764.56,1166.7 762.226,1165.37 757.5,1168.5C 755.851,1167.35 754.351,1166.02 753,1164.5C 750.697,1160.06 748.53,1155.56 746.5,1151C 746.645,1150.23 746.978,1149.56 747.5,1149C 741.936,1128.3 736.769,1107.47 732,1086.5C 729.672,1074.4 730.006,1062.4 733,1050.5C 734.829,1046.17 737.162,1042.17 740,1038.5C 756.596,1023.52 774.43,1011.02 793.5,1001C 805.923,995.45 818.257,989.95 830.5,984.5 Z"/></g>
<g><path style="opacity:1" fill="#b2aba6" d="M 1145.5,985.5 C 1147.28,986.574 1148.45,988.24 1149,990.5C 1149.51,995.943 1151.18,1000.94 1154,1005.5C 1155.17,1008.89 1154.33,1011.56 1151.5,1013.5C 1149.62,1008.35 1147.78,1003.02 1146,997.5C 1144.88,994.758 1143.38,992.258 1141.5,990C 1143.02,988.649 1144.35,987.149 1145.5,985.5 Z"/></g>
<g><path style="opacity:1" fill="#f8f1f0" d="M 813.5,1001.5 C 819.501,1001.46 821.668,1004.46 820,1010.5C 817.333,1014.5 814.667,1014.5 812,1010.5C 811.068,1007.18 811.568,1004.18 813.5,1001.5 Z"/></g>
<g><path style="opacity:1" fill="#8f8989" d="M 1283.5,1012.5 C 1284.75,1012.58 1285.58,1013.24 1286,1014.5C 1288.08,1023.25 1291.25,1031.58 1295.5,1039.5C 1286.61,1045.38 1278.28,1052.04 1270.5,1059.5C 1265.67,1048.49 1259.33,1038.49 1251.5,1029.5C 1260.26,1025.62 1268.92,1021.46 1277.5,1017C 1279.75,1015.72 1281.75,1014.22 1283.5,1012.5 Z"/></g>
<g><path style="opacity:1" fill="#b8afad" d="M 1130.5,1015.5 C 1131.83,1015.5 1133.17,1015.5 1134.5,1015.5C 1135.11,1018.96 1133.94,1021.63 1131,1023.5C 1129.91,1026.04 1129.24,1028.71 1129,1031.5C 1127.52,1033.78 1125.85,1033.78 1124,1031.5C 1123.66,1025.18 1125.82,1019.85 1130.5,1015.5 Z"/></g>
<g><path style="opacity:1" fill="#beb8b2" d="M 1103.5,1020.5 C 1105.68,1021.3 1107.35,1022.8 1108.5,1025C 1110.09,1025.86 1111.75,1026.53 1113.5,1027C 1114.45,1027.72 1114.62,1028.55 1114,1029.5C 1106.19,1031.87 1102.69,1028.87 1103.5,1020.5 Z"/></g>
<g><path style="opacity:1" fill="#f4eded" d="M 1619.5,1043.5 C 1620.82,1043.33 1621.99,1043.66 1623,1044.5C 1624.83,1048.83 1627.16,1052.83 1630,1056.5C 1630.83,1059.67 1629.67,1060.83 1626.5,1060C 1622.29,1055.75 1618.96,1050.91 1616.5,1045.5C 1616.82,1043.95 1617.82,1043.29 1619.5,1043.5 Z"/></g>
<g><path style="opacity:1" fill="#bfb8b3" d="M 1621.5,1063.5 C 1623.02,1063.51 1624.18,1064.18 1625,1065.5C 1626.95,1073.16 1624.12,1076.66 1616.5,1076C 1612.99,1074.67 1611.33,1072.17 1611.5,1068.5C 1613.26,1068.36 1614.93,1068.69 1616.5,1069.5C 1618.64,1067.88 1620.31,1065.88 1621.5,1063.5 Z"/></g>
<g><path style="opacity:1" fill="#f7f0f0" d="M 766.5,1071.5 C 769.285,1072.31 772.119,1072.97 775,1073.5C 776.561,1073.4 778.061,1073.06 779.5,1072.5C 779.833,1073.33 780.167,1074.17 780.5,1075C 779.17,1084.46 778.17,1093.96 777.5,1103.5C 778.379,1115.88 785.046,1122.38 797.5,1123C 792.596,1127.74 787.263,1131.91 781.5,1135.5C 775.236,1114.44 770.236,1093.11 766.5,1071.5 Z"/></g>
<g><path style="opacity:1" fill="#ece6e5" d="M 1579.5,1081.5 C 1587.89,1081.77 1588.22,1082.61 1580.5,1084C 1579.27,1085.63 1577.94,1087.13 1576.5,1088.5C 1576.17,1088.17 1575.83,1087.83 1575.5,1087.5C 1576.47,1085.21 1577.8,1083.21 1579.5,1081.5 Z"/></g>
<g><path style="opacity:1" fill="#b8afad" d="M 1562.5,1083.5 C 1566.19,1082.97 1569.36,1083.97 1572,1086.5C 1572.77,1093.21 1569.93,1095.21 1563.5,1092.5C 1561.31,1089.71 1560.98,1086.71 1562.5,1083.5 Z"/></g>
<g><path style="opacity:1" fill="#f4eded" d="M 1614.5,1090.5 C 1616.09,1090.92 1617.59,1091.59 1619,1092.5C 1623.43,1089.19 1625.43,1090.19 1625,1095.5C 1621.93,1095.79 1619.77,1097.29 1618.5,1100C 1619.66,1103.15 1620.66,1106.31 1621.5,1109.5C 1619.86,1109.71 1618.36,1109.38 1617,1108.5C 1613.59,1104.37 1611.93,1099.71 1612,1094.5C 1612.66,1093.02 1613.5,1091.68 1614.5,1090.5 Z"/></g>
<g><path style="opacity:1" fill="#f1eaea" d="M 1646.5,1095.5 C 1649.69,1095.76 1652.36,1097.1 1654.5,1099.5C 1650.85,1101.22 1647.85,1100.56 1645.5,1097.5C 1645.86,1096.82 1646.2,1096.15 1646.5,1095.5 Z"/></g>
<g><path style="opacity:1" fill="#beb7b1" d="M 1338.5,1099.5 C 1342.84,1099.35 1345.01,1101.35 1345,1105.5C 1339.32,1107.66 1337.16,1105.66 1338.5,1099.5 Z"/></g>
<g><path style="opacity:1" fill="#f8f1f1" d="M 1172.5,1110.5 C 1172.5,1111.17 1172.83,1111.5 1173.5,1111.5C 1174.69,1119.29 1172.35,1125.79 1166.5,1131C 1161.22,1131.11 1156.22,1132.28 1151.5,1134.5C 1141.21,1132.01 1138.71,1126.01 1144,1116.5C 1146.34,1113.25 1149.51,1111.41 1153.5,1111C 1154.5,1109.33 1155.5,1107.67 1156.5,1106C 1159.23,1105.82 1161.89,1105.32 1164.5,1104.5C 1165.25,1103.26 1165.58,1101.93 1165.5,1100.5C 1166.68,1100.28 1167.68,1100.61 1168.5,1101.5C 1170.12,1104.4 1171.45,1107.4 1172.5,1110.5 Z"/></g>
<g><path style="opacity:1" fill="#958f8a" d="M 1783.5,1060.5 C 1782.82,1069.48 1782.32,1078.48 1782,1087.5C 1778.47,1095.88 1777.47,1104.54 1779,1113.5C 1777.71,1116.41 1776.71,1119.41 1776,1122.5C 1775.52,1131.95 1774.18,1141.28 1772,1150.5C 1769.03,1159.64 1766.7,1168.98 1765,1178.5C 1760.95,1187.04 1758.62,1196.04 1758,1205.5C 1750.5,1227.68 1742.83,1249.68 1735,1271.5C 1726.78,1288.6 1719.12,1305.93 1712,1323.5C 1695.72,1355.13 1677.72,1385.79 1658,1415.5C 1652.01,1422.14 1647.01,1429.47 1643,1437.5C 1640.96,1439.71 1638.8,1441.71 1636.5,1443.5C 1636.49,1441.69 1636.99,1440.02 1638,1438.5C 1642.12,1433.7 1645.46,1428.37 1648,1422.5C 1652.19,1418.25 1655.19,1413.25 1657,1407.5C 1660.28,1403.23 1663.78,1399.23 1667.5,1395.5C 1668.57,1392.8 1669.57,1390.13 1670.5,1387.5C 1671.5,1387.5 1672.5,1387.5 1673.5,1387.5C 1677.53,1379.13 1682.36,1371.13 1688,1363.5C 1692.53,1352.77 1697.87,1342.44 1704,1332.5C 1706.7,1327.88 1708.04,1322.88 1708,1317.5C 1709.65,1312.57 1711.82,1307.91 1714.5,1303.5C 1714.28,1302.06 1713.78,1300.73 1713,1299.5C 1710.17,1305.16 1707.34,1310.83 1704.5,1316.5C 1681.51,1362.52 1654.51,1405.85 1623.5,1446.5C 1614.48,1456.85 1605.82,1467.52 1597.5,1478.5C 1597.05,1476.74 1597.05,1474.74 1597.5,1472.5C 1598.24,1472.63 1598.91,1472.46 1599.5,1472C 1642.96,1421.21 1679.13,1365.71 1708,1305.5C 1718.01,1281.48 1728.01,1257.48 1738,1233.5C 1752.92,1191.17 1763.75,1147.83 1770.5,1103.5C 1771.64,1103.91 1772.64,1104.57 1773.5,1105.5C 1761.74,1172.1 1741.74,1236.1 1713.5,1297.5C 1714.83,1298.83 1716.17,1298.83 1717.5,1297.5C 1749.52,1227.99 1770.52,1154.66 1780.5,1077.5C 1780.31,1072.02 1780.31,1067.52 1780.5,1064C 1781.91,1063.79 1782.91,1062.63 1783.5,1060.5 Z"/></g>
<g><path style="opacity:1" fill="#bfb8b3" d="M 1173.5,1111.5 C 1172.83,1111.5 1172.5,1111.17 1172.5,1110.5C 1172.79,1106.07 1175.12,1104.57 1179.5,1106C 1183.89,1111.3 1182.55,1113.64 1175.5,1113C 1174.96,1112.28 1174.29,1111.78 1173.5,1111.5 Z"/></g>
<g><path style="opacity:1" fill="#beb8b2" d="M 1012.5,1117.5 C 1017.38,1118.47 1018.72,1121.3 1016.5,1126C 1014.56,1126.74 1012.73,1126.58 1011,1125.5C 1010.28,1122.59 1010.78,1119.93 1012.5,1117.5 Z"/></g>
<g><path style="opacity:1" fill="#f1ebe9" d="M 1278.5,1123.5 C 1280.72,1124.11 1282.39,1125.45 1283.5,1127.5C 1281.03,1127.96 1279.03,1128.96 1277.5,1130.5C 1276.85,1130.8 1276.18,1131.14 1275.5,1131.5C 1274.83,1129.83 1274.17,1128.17 1273.5,1126.5C 1272,1125.92 1270.67,1125.08 1269.5,1124C 1272.35,1122.24 1275.35,1122.07 1278.5,1123.5 Z"/></g>
<g><path style="opacity:1" fill="#efe9e8" d="M 1618.5,1127.5 C 1619.82,1127.33 1620.99,1127.66 1622,1128.5C 1622.67,1131.17 1622.67,1133.83 1622,1136.5C 1619.22,1138.01 1617.38,1137.18 1616.5,1134C 1617.1,1131.78 1617.76,1129.61 1618.5,1127.5 Z"/></g>
<g><path style="opacity:1" fill="#f0ebe7" d="M 1287.5,1129.5 C 1290.89,1128.79 1293.22,1129.96 1294.5,1133C 1292.23,1136.64 1288.9,1138.47 1284.5,1138.5C 1283.92,1134.89 1284.92,1131.89 1287.5,1129.5 Z"/></g>
<g><path style="opacity:1" fill="#bfb9b3" d="M 1208.5,1131.5 C 1209.5,1131.41 1210.33,1131.75 1211,1132.5C 1211.67,1135.5 1211.67,1138.5 1211,1141.5C 1209.56,1143.16 1207.72,1143.82 1205.5,1143.5C 1205.65,1139.2 1206.65,1135.2 1208.5,1131.5 Z"/></g>
<g><path style="opacity:1" fill="#f4eded" d="M 1658.5,1132.5 C 1665,1131.5 1667.5,1134.17 1666,1140.5C 1665.36,1142.3 1664.2,1143.64 1662.5,1144.5C 1656.29,1142.1 1654.96,1138.1 1658.5,1132.5 Z"/></g>
<g><path style="opacity:1" fill="#e5dfdf" d="M 1672.5,1132.5 C 1678.13,1132.96 1680.63,1135.96 1680,1141.5C 1676.71,1144.31 1673.71,1143.98 1671,1140.5C 1670.11,1137.5 1670.61,1134.84 1672.5,1132.5 Z"/></g>
<g><path style="opacity:1" fill="#eee8e7" d="M 1365.5,1139.5 C 1368.8,1139.54 1370.97,1140.87 1372,1143.5C 1368.65,1144.54 1365.49,1144.04 1362.5,1142C 1363.94,1141.62 1364.94,1140.79 1365.5,1139.5 Z"/></g>
<g><path style="opacity:1" fill="#f0eae9" d="M 1535.5,1140.5 C 1541.9,1139.46 1547.07,1141.46 1551,1146.5C 1551.69,1150.48 1550.02,1152.81 1546,1153.5C 1542.37,1152.77 1538.87,1151.61 1535.5,1150C 1532.89,1146.84 1532.89,1143.67 1535.5,1140.5 Z"/></g>
<g><path style="opacity:1" fill="#f6efef" d="M 1390.5,1150.5 C 1398.2,1150.38 1402.7,1154.04 1404,1161.5C 1413.98,1165.13 1417.31,1172.13 1414,1182.5C 1411.92,1187.57 1408.76,1191.73 1404.5,1195C 1403.17,1195.67 1401.83,1195.67 1400.5,1195C 1397.45,1192.29 1394.78,1189.29 1392.5,1186C 1392.82,1184.35 1393.82,1183.35 1395.5,1183C 1398.17,1182.33 1400.83,1181.67 1403.5,1181C 1402.43,1179.69 1401.76,1178.19 1401.5,1176.5C 1402.7,1173.94 1404.03,1171.44 1405.5,1169C 1404.04,1166.59 1402.71,1164.09 1401.5,1161.5C 1399.73,1162.27 1398.73,1163.6 1398.5,1165.5C 1401.72,1169.18 1401.05,1171.85 1396.5,1173.5C 1394.97,1172.14 1393.3,1170.97 1391.5,1170C 1386.8,1169.72 1382.14,1169.22 1377.5,1168.5C 1375.6,1168.73 1374.27,1169.73 1373.5,1171.5C 1369.95,1172.02 1366.62,1173.02 1363.5,1174.5C 1362.69,1174.19 1362.03,1173.69 1361.5,1173C 1363.2,1170.31 1365.2,1167.98 1367.5,1166C 1365.73,1164.17 1363.57,1163.01 1361,1162.5C 1360.22,1161.06 1360.39,1159.72 1361.5,1158.5C 1362.17,1158.83 1362.83,1159.17 1363.5,1159.5C 1365.23,1157.97 1367.23,1156.97 1369.5,1156.5C 1373.96,1158.56 1378.29,1160.9 1382.5,1163.5C 1386.64,1160.13 1389.3,1155.8 1390.5,1150.5 Z"/></g>
<g><path style="opacity:1" fill="#f6f0f0" d="M 1199.5,1158.5 C 1203.51,1158.33 1207.51,1158.5 1211.5,1159C 1215.02,1164.41 1213.69,1167.91 1207.5,1169.5C 1202.89,1168.73 1199.56,1166.23 1197.5,1162C 1197.98,1160.7 1198.64,1159.53 1199.5,1158.5 Z"/></g>
<g><path style="opacity:1" fill="#bfb8b3" d="M 1514.5,1164.5 C 1516.59,1164.32 1518.59,1164.65 1520.5,1165.5C 1521.01,1169.78 1522.35,1173.78 1524.5,1177.5C 1523.22,1180.8 1520.89,1181.97 1517.5,1181C 1514.95,1178.15 1512.11,1175.65 1509,1173.5C 1508.33,1172.17 1508.33,1170.83 1509,1169.5C 1510.81,1167.7 1512.65,1166.03 1514.5,1164.5 Z"/></g>
<g><path style="opacity:1" fill="#ada8a5" d="M 1786.5,995.5 C 1786.46,1005.15 1786.46,1014.82 1786.5,1024.5C 1785.37,1036.49 1784.37,1048.49 1783.5,1060.5C 1782.91,1062.63 1781.91,1063.79 1780.5,1064C 1780.31,1067.52 1780.31,1072.02 1780.5,1077.5C 1770.52,1154.66 1749.52,1227.99 1717.5,1297.5C 1716.17,1298.83 1714.83,1298.83 1713.5,1297.5C 1741.74,1236.1 1761.74,1172.1 1773.5,1105.5C 1772.64,1104.57 1771.64,1103.91 1770.5,1103.5C 1770.25,1101.14 1770.92,1099.14 1772.5,1097.5C 1774.05,1096.77 1774.88,1095.44 1775,1093.5C 1780.15,1061.03 1782.98,1028.36 1783.5,995.5C 1784.5,995.5 1785.5,995.5 1786.5,995.5 Z"/></g>
<g><path style="opacity:1" fill="#ccc6bf" d="M 1562.5,1192.5 C 1580.86,1192.01 1587.02,1200.34 1581,1217.5C 1571.93,1225.81 1563.27,1225.48 1555,1216.5C 1551.35,1209.83 1551.85,1203.5 1556.5,1197.5C 1558.57,1195.81 1560.57,1194.15 1562.5,1192.5 Z"/></g>
<g><path style="opacity:1" fill="#beb7b2" d="M 1000.5,1195.5 C 1002.2,1195.34 1003.87,1195.51 1005.5,1196C 1006.52,1197.05 1006.68,1198.22 1006,1199.5C 1001.92,1203.62 997.087,1206.29 991.5,1207.5C 991.085,1209.95 992.085,1211.28 994.5,1211.5C 1000.34,1209.51 1005.67,1206.67 1010.5,1203C 1011.94,1202.22 1013.28,1202.39 1014.5,1203.5C 1010.99,1210.92 1006.16,1217.25 1000,1222.5C 995.435,1220.59 990.935,1218.59 986.5,1216.5C 981.856,1220.29 977.523,1224.29 973.5,1228.5C 969.01,1227.75 967.343,1225.08 968.5,1220.5C 972.007,1221.01 975.174,1220.34 978,1218.5C 978.667,1217.17 978.667,1215.83 978,1214.5C 976.333,1212.17 974.667,1209.83 973,1207.5C 972.28,1205.89 972.446,1204.39 973.5,1203C 977.833,1202.67 982.167,1202.33 986.5,1202C 991.137,1199.51 995.804,1197.34 1000.5,1195.5 Z"/></g>
<g><path style="opacity:1" fill="#bcb6b1" d="M 1470.5,1196.5 C 1475.33,1196.39 1476.66,1198.55 1474.5,1203C 1473.1,1203.59 1471.77,1203.43 1470.5,1202.5C 1469.31,1200.48 1469.31,1198.48 1470.5,1196.5 Z"/></g>
<g><path style="opacity:1" fill="#b8b1ad" d="M 1040.5,1208.5 C 1041.83,1208.5 1043.17,1208.5 1044.5,1208.5C 1045.42,1215.67 1042.59,1220.34 1036,1222.5C 1031.92,1221.84 1030.58,1219.51 1032,1215.5C 1035.02,1213.3 1037.86,1210.97 1040.5,1208.5 Z"/></g>
<g><path style="opacity:1" fill="#bdb6b1" d="M 1422.5,1220.5 C 1426.98,1220.8 1428.31,1222.97 1426.5,1227C 1422.49,1226.49 1421.16,1224.32 1422.5,1220.5 Z"/></g>
<g><path style="opacity:1" fill="#bfb9b3" d="M 1076.5,1228.5 C 1082.02,1228.47 1083.35,1230.64 1080.5,1235C 1075.57,1235.43 1074.24,1233.26 1076.5,1228.5 Z"/></g>
<g><path style="opacity:1" fill="#cdc7c0" d="M 1236.5,1237.5 C 1249.94,1236.64 1259.44,1242.3 1265,1254.5C 1267.28,1276.48 1257.45,1286.98 1235.5,1286C 1218.15,1278.48 1213.32,1265.98 1221,1248.5C 1225.13,1243.2 1230.29,1239.54 1236.5,1237.5 Z"/></g>
<g><path style="opacity:1" fill="#f4edec" d="M 995.5,1241.5 C 997.527,1241.34 999.527,1241.5 1001.5,1242C 1003.38,1245.98 1002.05,1248.14 997.5,1248.5C 994.508,1246.87 993.841,1244.53 995.5,1241.5 Z"/></g>
<g><path style="opacity:1" fill="#bdb6b1" d="M 960.5,1253.5 C 962.5,1253.5 964.5,1253.5 966.5,1253.5C 966.67,1254.82 966.337,1255.99 965.5,1257C 962.857,1258.44 960.19,1258.6 957.5,1257.5C 958.524,1256.15 959.524,1254.81 960.5,1253.5 Z"/></g>
<g><path style="opacity:1" fill="#beb3b2" d="M 1160.5,1260.5 C 1164.18,1260.33 1167.85,1260.5 1171.5,1261C 1174.03,1261.61 1174.87,1263.11 1174,1265.5C 1167.92,1266.48 1161.76,1266.81 1155.5,1266.5C 1155.06,1262.62 1156.73,1260.62 1160.5,1260.5 Z"/></g>
<g><path style="opacity:1" fill="#b7b1ab" d="M 1008.5,1253.5 C 1013.13,1253.98 1017.13,1255.81 1020.5,1259C 1023.19,1259.43 1025.86,1259.26 1028.5,1258.5C 1027.27,1264.75 1024.27,1270.09 1019.5,1274.5C 1017,1273.42 1014.67,1272.09 1012.5,1270.5C 1009.77,1272.55 1006.77,1273.38 1003.5,1273C 1001.49,1269.45 1000.49,1265.62 1000.5,1261.5C 1006.81,1262.36 1009.48,1259.69 1008.5,1253.5 Z"/></g>
<g><path style="opacity:1" fill="#beb8b2" d="M 1102.5,1264.5 C 1107.47,1264.95 1108.47,1267.12 1105.5,1271C 1099.1,1270.93 1098.1,1268.77 1102.5,1264.5 Z"/></g>
<g><path style="opacity:1" fill="#f5eeee" d="M 1338.5,1273.5 C 1346.24,1274.39 1349.58,1278.56 1348.5,1286C 1337.77,1288.05 1334.44,1283.88 1338.5,1273.5 Z"/></g>
<g><path style="opacity:1" fill="#bdb6b0" d="M 1440.5,1277.5 C 1442.63,1277.15 1443.97,1277.98 1444.5,1280C 1444.14,1283.44 1443.98,1286.94 1444,1290.5C 1441.22,1292.01 1439.38,1291.18 1438.5,1288C 1440.26,1284.77 1440.93,1281.27 1440.5,1277.5 Z"/></g>
<g><path style="opacity:1" fill="#d4cdc9" d="M 239.5,1161.5 C 240.41,1163.02 241.243,1164.69 242,1166.5C 242.333,1165.5 242.667,1164.5 243,1163.5C 249.304,1194.05 257.47,1224.05 267.5,1253.5C 266.402,1254.6 266.235,1255.93 267,1257.5C 271.403,1268.81 275.237,1279.81 278.5,1290.5C 281.715,1293.07 282.715,1296.23 281.5,1300C 282.807,1304.74 284.64,1309.24 287,1313.5C 287.333,1313.17 287.667,1312.83 288,1312.5C 289.785,1319.12 292.285,1325.45 295.5,1331.5C 296.325,1332.39 297.325,1332.72 298.5,1332.5C 298.67,1333.82 298.337,1334.99 297.5,1336C 300.124,1336.58 300.791,1337.91 299.5,1340C 301.901,1343.52 303.734,1347.36 305,1351.5C 307.525,1353.05 309.359,1355.22 310.5,1358C 309.366,1359.02 309.699,1359.68 311.5,1360C 311.167,1360.33 310.833,1360.67 310.5,1361C 314.123,1370.27 319.623,1378.1 327,1384.5C 327.459,1387.75 329.126,1390.75 332,1393.5C 333.557,1398.37 335.723,1402.87 338.5,1407C 347.447,1421.38 357.947,1435.21 370,1448.5C 371.092,1451.39 372.592,1454.06 374.5,1456.5C 380.558,1465.16 387.058,1473.49 394,1481.5C 423.448,1510.09 452.948,1538.25 482.5,1566C 497.683,1576.76 512.683,1587.76 527.5,1599C 541.977,1604.33 555.477,1612.16 568,1622.5C 568.333,1622.17 568.667,1621.83 569,1621.5C 573.443,1625.15 578.277,1628.15 583.5,1630.5C 584.354,1631.52 585.354,1632.36 586.5,1633C 586.167,1633.33 585.833,1633.67 585.5,1634C 587.387,1633.58 589.387,1633.74 591.5,1634.5C 603.779,1641.31 616.112,1648.14 628.5,1655C 629.784,1656.3 629.617,1657.46 628,1658.5C 627.309,1656.11 626.309,1656.11 625,1658.5C 610.623,1650.15 596.456,1642.31 582.5,1635C 581.663,1633.99 581.33,1632.82 581.5,1631.5C 578.685,1630.87 576.185,1629.54 574,1627.5C 573.667,1627.83 573.333,1628.17 573,1628.5C 572.276,1626.04 570.943,1625.04 569,1625.5C 562.688,1623.68 556.688,1621.01 551,1617.5C 550.508,1618.55 550.674,1619.55 551.5,1620.5C 550.757,1621.18 550.091,1621.85 549.5,1622.5C 541.406,1618.26 533.406,1613.76 525.5,1609C 514.714,1599.44 503.047,1591.11 490.5,1584C 472.447,1567.28 453.781,1551.28 434.5,1536C 420.853,1522.83 408.02,1509 396,1494.5C 391.301,1489.47 386.301,1484.8 381,1480.5C 358.618,1452.45 336.618,1424.12 315,1395.5C 303.968,1372.77 292.968,1350.1 282,1327.5C 264.754,1281.84 251.754,1236.84 243,1192.5C 241.261,1187.76 241.094,1182.93 242.5,1178C 240.549,1172.74 239.549,1167.24 239.5,1161.5 Z"/></g>
<g><path style="opacity:1" fill="#cdc7c0" d="M 1379.5,1308.5 C 1379.25,1311.5 1380.25,1314 1382.5,1316C 1387.96,1316.83 1393.29,1317.83 1398.5,1319C 1400.36,1314.85 1399.36,1311.52 1395.5,1309C 1393.83,1308 1392.17,1307 1390.5,1306C 1387.66,1306.26 1384.99,1306.09 1382.5,1305.5C 1390.83,1301.51 1399.5,1298.34 1408.5,1296C 1416.12,1294.57 1423.79,1294.24 1431.5,1295C 1456.68,1294.73 1481.01,1299.06 1504.5,1308C 1521.53,1315.43 1536.36,1325.93 1549,1339.5C 1564.29,1360.19 1564.29,1380.86 1549,1401.5C 1542.33,1406.75 1534.83,1410.25 1526.5,1412C 1513.15,1412.21 1499.82,1411.71 1486.5,1410.5C 1472.23,1410.63 1459.23,1414.8 1447.5,1423C 1428.04,1438.91 1407.04,1452.57 1384.5,1464C 1372.24,1470.32 1359.24,1472.98 1345.5,1472C 1341.35,1471.34 1337.35,1470.17 1333.5,1468.5C 1331.28,1471.07 1330.12,1474.07 1330,1477.5C 1328.27,1478.58 1326.44,1478.74 1324.5,1478C 1322.62,1475.08 1320.62,1472.25 1318.5,1469.5C 1319,1469.17 1319.5,1468.83 1320,1468.5C 1323.84,1471.36 1327.34,1471.03 1330.5,1467.5C 1319.67,1460.19 1312.5,1450.19 1309,1437.5C 1305.52,1418.76 1307.85,1400.76 1316,1383.5C 1329.82,1352.19 1350.99,1327.19 1379.5,1308.5 Z"/></g>
<g><path style="opacity:1" fill="#f8f1f1" d="M 1382.5,1305.5 C 1384.99,1306.09 1387.66,1306.26 1390.5,1306C 1392.17,1307 1393.83,1308 1395.5,1309C 1399.36,1311.52 1400.36,1314.85 1398.5,1319C 1393.29,1317.83 1387.96,1316.83 1382.5,1316C 1380.25,1314 1379.25,1311.5 1379.5,1308.5C 1379.5,1307.5 1379.5,1306.5 1379.5,1305.5C 1380.5,1305.5 1381.5,1305.5 1382.5,1305.5 Z"/></g>
<g><path style="opacity:1" fill="#8f8989" d="M 1437.5,1332.5 C 1466.28,1331.36 1492.28,1339.19 1515.5,1356C 1451.5,1345.84 1400.5,1366.84 1362.5,1419C 1358.21,1422.98 1353.21,1424.98 1347.5,1425C 1345.99,1423.53 1345.33,1421.69 1345.5,1419.5C 1353.39,1382.24 1374.72,1355.74 1409.5,1340C 1418.81,1336.91 1428.14,1334.41 1437.5,1332.5 Z"/></g>
<g><path style="opacity:1" fill="#f8f1f1" d="M 1525.5,1338.5 C 1527.83,1338.5 1530.17,1338.5 1532.5,1338.5C 1533.69,1345.82 1530.69,1348.82 1523.5,1347.5C 1523.21,1344.25 1523.87,1341.25 1525.5,1338.5 Z"/></g>
<g><path style="opacity:1" fill="#e8e3e1" d="M 1189.5,1346.5 C 1193.88,1345.76 1196.38,1347.42 1197,1351.5C 1192.72,1355.63 1189.55,1354.79 1187.5,1349C 1188.06,1347.99 1188.72,1347.16 1189.5,1346.5 Z"/></g>
<g><path style="opacity:1" fill="#bdb6b1" d="M 1641.5,1347.5 C 1646.87,1347.04 1649.37,1349.37 1649,1354.5C 1644.24,1357.93 1641.07,1356.93 1639.5,1351.5C 1639.75,1349.93 1640.42,1348.59 1641.5,1347.5 Z"/></g>
<g><path style="opacity:1" fill="#f4efed" d="M 1599.5,1358.5 C 1605.99,1358.16 1607.99,1360.99 1605.5,1367C 1599.45,1367.11 1597.45,1364.28 1599.5,1358.5 Z"/></g>
<g><path style="opacity:1" fill="#b8aead" d="M 1236.5,1376.5 C 1237.5,1376.5 1238.5,1376.5 1239.5,1376.5C 1238.02,1382.12 1235.02,1386.79 1230.5,1390.5C 1229.06,1389.13 1227.73,1387.63 1226.5,1386C 1221.28,1385.43 1220.28,1383.1 1223.5,1379C 1228.13,1378.95 1232.46,1378.12 1236.5,1376.5 Z"/></g>
<g><path style="opacity:1" fill="#c3c0bd" d="M 1704.5,1316.5 C 1705.63,1318.63 1705.8,1320.96 1705,1323.5C 1695.39,1341.63 1685.56,1359.79 1675.5,1378C 1674.13,1378.4 1672.79,1378.9 1671.5,1379.5C 1671.04,1383.61 1669.54,1387.28 1667,1390.5C 1665.83,1391.89 1664.33,1392.73 1662.5,1393C 1663.06,1393.72 1663.39,1394.56 1663.5,1395.5C 1659.32,1402.16 1654.99,1408.66 1650.5,1415C 1649.55,1415.48 1648.55,1415.65 1647.5,1415.5C 1647.5,1417.17 1647.5,1418.83 1647.5,1420.5C 1646.5,1420.5 1645.5,1420.5 1644.5,1420.5C 1641.56,1427.94 1637.56,1434.77 1632.5,1441C 1631.26,1441.79 1629.92,1442.29 1628.5,1442.5C 1626.82,1443.92 1625.15,1445.25 1623.5,1446.5C 1654.51,1405.85 1681.51,1362.52 1704.5,1316.5 Z"/></g>
<g><path style="opacity:1" fill="#beb7b2" d="M 1599.5,1385.5 C 1604.33,1385.39 1605.66,1387.55 1603.5,1392C 1597.74,1392.42 1596.4,1390.25 1599.5,1385.5 Z"/></g>
<g><path style="opacity:1" fill="#f3edec" d="M 1579.5,1394.5 C 1588.57,1394.77 1590.91,1398.94 1586.5,1407C 1581.11,1408.61 1578.11,1406.61 1577.5,1401C 1578.03,1398.77 1578.7,1396.61 1579.5,1394.5 Z"/></g>
<g><path style="opacity:1" fill="#9f9a96" d="M 1636.5,1443.5 C 1630.51,1451.48 1624.18,1459.15 1617.5,1466.5C 1616.81,1460.51 1618.98,1455.51 1624,1451.5C 1624.62,1450.55 1624.45,1449.72 1623.5,1449C 1626.82,1448.07 1628.49,1445.91 1628.5,1442.5C 1629.92,1442.29 1631.26,1441.79 1632.5,1441C 1637.56,1434.77 1641.56,1427.94 1644.5,1420.5C 1645.5,1420.5 1646.5,1420.5 1647.5,1420.5C 1647.5,1418.83 1647.5,1417.17 1647.5,1415.5C 1648.55,1415.65 1649.55,1415.48 1650.5,1415C 1654.99,1408.66 1659.32,1402.16 1663.5,1395.5C 1663.39,1394.56 1663.06,1393.72 1662.5,1393C 1664.33,1392.73 1665.83,1391.89 1667,1390.5C 1669.54,1387.28 1671.04,1383.61 1671.5,1379.5C 1672.79,1378.9 1674.13,1378.4 1675.5,1378C 1685.56,1359.79 1695.39,1341.63 1705,1323.5C 1705.8,1320.96 1705.63,1318.63 1704.5,1316.5C 1707.34,1310.83 1710.17,1305.16 1713,1299.5C 1713.78,1300.73 1714.28,1302.06 1714.5,1303.5C 1711.82,1307.91 1709.65,1312.57 1708,1317.5C 1708.04,1322.88 1706.7,1327.88 1704,1332.5C 1697.87,1342.44 1692.53,1352.77 1688,1363.5C 1682.36,1371.13 1677.53,1379.13 1673.5,1387.5C 1672.5,1387.5 1671.5,1387.5 1670.5,1387.5C 1669.57,1390.13 1668.57,1392.8 1667.5,1395.5C 1663.78,1399.23 1660.28,1403.23 1657,1407.5C 1655.19,1413.25 1652.19,1418.25 1648,1422.5C 1645.46,1428.37 1642.12,1433.7 1638,1438.5C 1636.99,1440.02 1636.49,1441.69 1636.5,1443.5 Z"/></g>
<g><path style="opacity:1" fill="#f3ecec" d="M 1518.5,1430.5 C 1519.5,1430.5 1520.5,1430.5 1521.5,1430.5C 1520.91,1433.13 1520.58,1435.79 1520.5,1438.5C 1518.8,1438.66 1517.13,1438.49 1515.5,1438C 1514.98,1437.44 1514.64,1436.77 1514.5,1436C 1515.48,1433.85 1516.82,1432.02 1518.5,1430.5 Z"/></g>
<g><path style="opacity:1" fill="#e0e0d9" d="M 436.5,1453.5 C 442.064,1454.91 445.064,1458.58 445.5,1464.5C 443.948,1471.55 439.781,1476.22 433,1478.5C 426.726,1477.39 422.893,1473.73 421.5,1467.5C 425.236,1461.43 430.236,1456.76 436.5,1453.5 Z"/></g>
<g><path style="opacity:1" fill="#b3ada8" d="M 1628.5,1442.5 C 1628.49,1445.91 1626.82,1448.07 1623.5,1449C 1624.45,1449.72 1624.62,1450.55 1624,1451.5C 1618.98,1455.51 1616.81,1460.51 1617.5,1466.5C 1609.27,1477.25 1600.77,1487.91 1592,1498.5C 1591.33,1497.75 1590.5,1497.41 1589.5,1497.5C 1589.59,1496.5 1589.25,1495.67 1588.5,1495C 1589.83,1494.33 1591.17,1493.67 1592.5,1493C 1592.04,1492.59 1591.71,1492.09 1591.5,1491.5C 1593.79,1487.26 1595.79,1482.93 1597.5,1478.5C 1605.82,1467.52 1614.48,1456.85 1623.5,1446.5C 1625.15,1445.25 1626.82,1443.92 1628.5,1442.5 Z"/></g>
<g><path style="opacity:1" fill="#f4edec" d="M 1326.5,1485.5 C 1330.38,1485.23 1332.54,1486.9 1333,1490.5C 1326.64,1494.2 1324.48,1492.53 1326.5,1485.5 Z"/></g>
<g><path style="opacity:1" fill="#bdb6b1" d="M 1302.5,1488.5 C 1305.1,1489.27 1307.76,1489.6 1310.5,1489.5C 1310.71,1491.14 1310.38,1492.64 1309.5,1494C 1306.49,1494.5 1303.49,1495 1300.5,1495.5C 1300.17,1492.81 1300.83,1490.48 1302.5,1488.5 Z"/></g>
<g><path style="opacity:1" fill="#c7c1ba" d="M 1587.5,1501.5 C 1588.83,1502.17 1588.83,1502.17 1587.5,1501.5 Z"/></g>
<g><path style="opacity:1" fill="#e6e3e0" d="M 267.5,1253.5 C 283.041,1298.58 303.374,1341.24 328.5,1381.5C 330.059,1380.55 331.726,1379.89 333.5,1379.5C 336.082,1379.75 336.915,1381.08 336,1383.5C 334.437,1384.73 333.27,1386.23 332.5,1388C 356.153,1425.77 383.32,1460.93 414,1493.5C 467.367,1548.35 526.534,1595.35 591.5,1634.5C 589.387,1633.74 587.387,1633.58 585.5,1634C 585.833,1633.67 586.167,1633.33 586.5,1633C 585.354,1632.36 584.354,1631.52 583.5,1630.5C 578.277,1628.15 573.443,1625.15 569,1621.5C 568.667,1621.83 568.333,1622.17 568,1622.5C 555.477,1612.16 541.977,1604.33 527.5,1599C 512.683,1587.76 497.683,1576.76 482.5,1566C 452.948,1538.25 423.448,1510.09 394,1481.5C 387.058,1473.49 380.558,1465.16 374.5,1456.5C 372.592,1454.06 371.092,1451.39 370,1448.5C 357.947,1435.21 347.447,1421.38 338.5,1407C 335.723,1402.87 333.557,1398.37 332,1393.5C 329.126,1390.75 327.459,1387.75 327,1384.5C 319.623,1378.1 314.123,1370.27 310.5,1361C 310.833,1360.67 311.167,1360.33 311.5,1360C 309.699,1359.68 309.366,1359.02 310.5,1358C 309.359,1355.22 307.525,1353.05 305,1351.5C 303.734,1347.36 301.901,1343.52 299.5,1340C 300.791,1337.91 300.124,1336.58 297.5,1336C 298.337,1334.99 298.67,1333.82 298.5,1332.5C 297.325,1332.72 296.325,1332.39 295.5,1331.5C 292.285,1325.45 289.785,1319.12 288,1312.5C 287.667,1312.83 287.333,1313.17 287,1313.5C 284.64,1309.24 282.807,1304.74 281.5,1300C 282.715,1296.23 281.715,1293.07 278.5,1290.5C 275.237,1279.81 271.403,1268.81 267,1257.5C 266.235,1255.93 266.402,1254.6 267.5,1253.5 Z"/></g>
<g><path style="opacity:1" fill="#e0e0d9" d="M 468.5,1505.5 C 471.695,1505.51 473.362,1507.18 473.5,1510.5C 470.355,1515.12 468.021,1520.12 466.5,1525.5C 465.66,1522.63 463.993,1520.47 461.5,1519C 456.582,1518.81 451.749,1518.31 447,1517.5C 446.837,1515.61 447.671,1514.11 449.5,1513C 453.749,1511.87 458.082,1511.21 462.5,1511C 464.996,1509.67 466.996,1507.84 468.5,1505.5 Z"/></g>
<g><path style="opacity:1" fill="#bfb9b3" d="M 1250.5,1539.5 C 1253.52,1539.34 1256.52,1539.5 1259.5,1540C 1261.54,1545.63 1259.54,1547.97 1253.5,1547C 1250.96,1545.15 1249.96,1542.65 1250.5,1539.5 Z"/></g>
<g><path style="opacity:1" fill="#d4ccc8" d="M 1298.5,1623.5 C 1297.76,1623.63 1297.09,1623.46 1296.5,1623C 1298.17,1621.33 1299.83,1619.67 1301.5,1618C 1300.71,1615.56 1300.88,1613.06 1302,1610.5C 1307.39,1602.52 1304.89,1599.02 1294.5,1600C 1291.5,1599 1288.5,1598 1285.5,1597C 1284.98,1596.44 1284.64,1595.77 1284.5,1595C 1288.14,1589.01 1293.48,1585.84 1300.5,1585.5C 1302.56,1581.47 1305.89,1579.47 1310.5,1579.5C 1311.29,1578.76 1311.95,1577.92 1312.5,1577C 1312.27,1576.6 1311.94,1576.43 1311.5,1576.5C 1321.17,1573.18 1330.84,1569.51 1340.5,1565.5C 1341.44,1562.2 1342.27,1558.86 1343,1555.5C 1346.27,1550.26 1350.77,1549.1 1356.5,1552C 1353.65,1553.29 1350.65,1553.79 1347.5,1553.5C 1348.67,1556.5 1348.67,1559.5 1347.5,1562.5C 1347.7,1564.21 1348.54,1565.54 1350,1566.5C 1352.95,1565.91 1356.12,1564.91 1359.5,1563.5C 1360.72,1564 1361.88,1564.33 1363,1564.5C 1367.19,1560.8 1370.36,1561.8 1372.5,1567.5C 1370.05,1573.75 1366.38,1579.25 1361.5,1584C 1347.6,1592.52 1332.6,1601.19 1316.5,1610C 1313.83,1612 1311.17,1614 1308.5,1616C 1310.3,1616.32 1310.63,1616.98 1309.5,1618C 1306.09,1620.37 1302.42,1622.2 1298.5,1623.5 Z"/></g>
<g><path style="opacity:1" fill="#f1eae8" d="M 1272.5,1588.5 C 1272.67,1589.82 1272.34,1590.99 1271.5,1592C 1259.5,1597.33 1247.5,1602.67 1235.5,1608C 1232.49,1610.17 1230.49,1613 1229.5,1616.5C 1235.18,1628.35 1244.35,1636.01 1257,1639.5C 1261.04,1636.39 1264.21,1637.06 1266.5,1641.5C 1252.98,1647.76 1239.31,1653.76 1225.5,1659.5C 1225.08,1658.78 1224.42,1658.28 1223.5,1658C 1227.05,1656.06 1230.72,1654.39 1234.5,1653C 1236.06,1652.06 1237.39,1650.89 1238.5,1649.5C 1237.02,1647.52 1235.35,1645.68 1233.5,1644C 1228.67,1642.39 1224,1640.39 1219.5,1638C 1207.26,1628.32 1206.26,1617.99 1216.5,1607C 1226.29,1603.37 1236.29,1600.37 1246.5,1598C 1248.83,1597 1251.17,1596 1253.5,1595C 1254.25,1594.33 1254.59,1593.5 1254.5,1592.5C 1260.25,1590.6 1266.25,1589.26 1272.5,1588.5 Z"/></g>
<g><path style="opacity:1" fill="#dfd8d2" d="M 1311.5,1576.5 C 1311.94,1576.43 1312.27,1576.6 1312.5,1577C 1311.95,1577.92 1311.29,1578.76 1310.5,1579.5C 1305.89,1579.47 1302.56,1581.47 1300.5,1585.5C 1293.48,1585.84 1288.14,1589.01 1284.5,1595C 1284.64,1595.77 1284.98,1596.44 1285.5,1597C 1288.5,1598 1291.5,1599 1294.5,1600C 1304.89,1599.02 1307.39,1602.52 1302,1610.5C 1300.88,1613.06 1300.71,1615.56 1301.5,1618C 1299.83,1619.67 1298.17,1621.33 1296.5,1623C 1297.09,1623.46 1297.76,1623.63 1298.5,1623.5C 1290.86,1628.66 1282.86,1633.32 1274.5,1637.5C 1273.97,1636.15 1273.81,1634.82 1274,1633.5C 1275.61,1632.85 1277.11,1632.02 1278.5,1631C 1276.09,1630.85 1273.76,1631.35 1271.5,1632.5C 1269.14,1631.9 1266.98,1630.9 1265,1629.5C 1262.89,1621.85 1260.39,1614.35 1257.5,1607C 1257.44,1605.29 1258.11,1603.96 1259.5,1603C 1266.17,1598.33 1273.17,1594.16 1280.5,1590.5C 1281.58,1588.54 1282.91,1586.87 1284.5,1585.5C 1293.36,1582.33 1302.36,1579.33 1311.5,1576.5 Z"/></g>
<g><path style="opacity:1" fill="#e6dfdd" d="M 1284.5,1585.5 C 1282.91,1586.87 1281.58,1588.54 1280.5,1590.5C 1273.17,1594.16 1266.17,1598.33 1259.5,1603C 1258.11,1603.96 1257.44,1605.29 1257.5,1607C 1260.39,1614.35 1262.89,1621.85 1265,1629.5C 1266.98,1630.9 1269.14,1631.9 1271.5,1632.5C 1273.76,1631.35 1276.09,1630.85 1278.5,1631C 1277.11,1632.02 1275.61,1632.85 1274,1633.5C 1273.81,1634.82 1273.97,1636.15 1274.5,1637.5C 1271.55,1638.31 1268.88,1639.64 1266.5,1641.5C 1264.21,1637.06 1261.04,1636.39 1257,1639.5C 1244.35,1636.01 1235.18,1628.35 1229.5,1616.5C 1230.49,1613 1232.49,1610.17 1235.5,1608C 1247.5,1602.67 1259.5,1597.33 1271.5,1592C 1272.34,1590.99 1272.67,1589.82 1272.5,1588.5C 1276.2,1586.72 1280.2,1585.72 1284.5,1585.5 Z"/></g>
<g><path style="opacity:1" fill="#f6efef" d="M 1331.5,1668.5 C 1338.82,1669.32 1340.15,1672.49 1335.5,1678C 1330.23,1678.31 1328.06,1675.81 1329,1670.5C 1329.99,1669.93 1330.83,1669.27 1331.5,1668.5 Z"/></g>
<g><path style="opacity:1" fill="#c9c0b9" d="M 1336.5,1680.5 C 1320.56,1688.32 1304.22,1695.49 1287.5,1702C 1235.23,1721.48 1181.57,1735.82 1126.5,1745C 1078.21,1747.32 1029.87,1748.82 981.5,1749.5C 949.954,1749.46 918.621,1748.13 887.5,1745.5C 889.857,1745.66 892.19,1745.5 894.5,1745C 891.5,1744.67 888.5,1744.33 885.5,1744C 965.862,1747.8 1046.19,1747.13 1126.5,1742C 1189.67,1731.21 1249.67,1714.21 1306.5,1691C 1314.76,1687.21 1323.1,1683.37 1331.5,1679.5C 1332.19,1680.03 1332.69,1680.69 1333,1681.5C 1334.01,1680.66 1335.18,1680.33 1336.5,1680.5 Z"/></g>
</svg>
