<?xml version="1.0" encoding="UTF-8"?>
<!DOCTYPE svg PUBLIC "-//W3C//DTD SVG 1.1//EN" "http://www.w3.org/Graphics/SVG/1.1/DTD/svg11.dtd">
<svg xmlns="http://www.w3.org/2000/svg" version="1.1" width="2000px" height="2000px" style="shape-rendering:geometricPrecision; text-rendering:geometricPrecision; image-rendering:optimizeQuality; fill-rule:evenodd; clip-rule:evenodd" xmlns:xlink="http://www.w3.org/1999/xlink">
<g><path style="opacity:1" fill="#010101" d="M 1252.5,269.5 C 1249.6,270.792 1247.27,272.792 1245.5,275.5C 1262.04,282.605 1278.71,289.438 1295.5,296C 1300.23,298.956 1303.4,303.123 1305,308.5C 1305.38,307.944 1305.88,307.611 1306.5,307.5C 1306.94,312.412 1306.1,317.078 1304,321.5C 1299.17,327.833 1294.33,334.167 1289.5,340.5C 1289.71,341.086 1290.04,341.586 1290.5,342C 1336.87,339.902 1383.21,336.902 1429.5,333C 1459.16,332.079 1488.83,331.412 1518.5,331C 1535.78,328.572 1553.11,326.739 1570.5,325.5C 1570.08,326.222 1569.42,326.722 1568.5,327C 1594.89,326.103 1621.22,327.103 1647.5,330C 1662.11,331.983 1676.11,335.817 1689.5,341.5C 1691.05,342.441 1692.72,343.107 1694.5,343.5C 1699.44,347.936 1704.27,352.603 1709,357.5C 1713.09,363.406 1716.92,369.406 1720.5,375.5C 1725.7,388.108 1729.7,401.108 1732.5,414.5C 1736.23,434.686 1739.07,455.019 1741,475.5C 1743.56,516.424 1746.73,557.091 1750.5,597.5C 1750.5,600.167 1750.5,602.833 1750.5,605.5C 1749.87,623.501 1750.2,641.501 1751.5,659.5C 1751.17,698.172 1751.5,736.839 1752.5,775.5C 1753.18,775.863 1753.85,776.196 1754.5,776.5C 1753.77,832.164 1753.61,887.83 1754,943.5C 1752.97,1000.72 1750.47,1057.72 1746.5,1114.5C 1745.76,1119.38 1744.93,1124.38 1744,1129.5C 1740.95,1173.21 1737.28,1216.87 1733,1260.5C 1726.6,1310.02 1719.1,1359.35 1710.5,1408.5C 1710.67,1410.62 1710.34,1412.62 1709.5,1414.5C 1701.31,1444.58 1691.14,1474.24 1679,1503.5C 1672.86,1517.11 1666.19,1530.45 1659,1543.5C 1650.92,1555.4 1643.08,1567.4 1635.5,1579.5C 1617.52,1603.65 1595.85,1623.82 1570.5,1640C 1545,1656.41 1517.67,1669.08 1488.5,1678C 1434.11,1692.67 1378.78,1701.67 1322.5,1705C 986.856,1731.57 650.856,1737.23 314.5,1722C 296.827,1721.83 280.494,1717.17 265.5,1708C 252.039,1695.91 244.872,1680.74 244,1662.5C 241.683,1642.87 239.849,1623.21 238.5,1603.5C 239.075,1601.92 239.408,1600.26 239.5,1598.5C 228.348,1478.06 221.014,1357.39 217.5,1236.5C 216.159,1183.17 215.159,1129.84 214.5,1076.5C 214.334,1067.83 214.5,1059.16 215,1050.5C 215.21,1052.06 215.71,1053.39 216.5,1054.5C 227.31,1258.25 246.144,1461.25 273,1663.5C 275.141,1676.3 282.308,1684.8 294.5,1689C 304.424,1690.75 314.424,1691.75 324.5,1692C 667.251,1697.7 1009.58,1688.37 1351.5,1664C 1366.26,1663.09 1380.93,1661.42 1395.5,1659C 1422.36,1624.41 1431.52,1585.58 1423,1542.5C 1406.64,1503.13 1382.14,1469.63 1349.5,1442C 1341.02,1435.69 1332.69,1429.19 1324.5,1422.5C 1415.46,1365.73 1495.63,1296.07 1565,1213.5C 1679.95,1072.71 1740.95,911.039 1748,728.5C 1745.16,681.06 1741.33,633.727 1736.5,586.5C 1736.07,577.628 1735.07,568.961 1733.5,560.5C 1732.08,543.959 1730.08,527.625 1727.5,511.5C 1727.05,500.257 1725.72,489.257 1723.5,478.5C 1721.1,447.014 1713.94,416.68 1702,387.5C 1697.27,379.438 1691.77,371.938 1685.5,365C 1680.26,361.712 1674.59,359.545 1668.5,358.5C 1664.87,356.46 1660.87,355.293 1656.5,355C 1619.3,351.481 1582.3,351.981 1545.5,356.5C 1533.16,357.488 1520.82,358.655 1508.5,360C 1483.46,360.001 1458.46,361.001 1433.5,363C 1374.67,368.783 1316.01,374.616 1257.5,380.5C 1255.85,383.625 1256.85,385.792 1260.5,387C 1271.91,390.469 1283.24,394.135 1294.5,398C 1302.27,405.542 1302.43,413.375 1295,421.5C 1280.93,437.397 1267.09,453.397 1253.5,469.5C 1265.49,450.878 1277.99,432.544 1291,414.5C 1292.72,409.661 1291.22,406.494 1286.5,405C 1273.63,402.283 1260.96,398.95 1248.5,395C 1243.55,390.671 1241.22,385.171 1241.5,378.5C 1256.36,357.131 1271.36,335.964 1286.5,315C 1286.28,313.379 1285.44,312.212 1284,311.5C 1265.35,305.06 1246.85,298.227 1228.5,291C 1219.85,282.307 1219.35,273.141 1227,263.5C 1237.7,252.47 1248.7,241.803 1260,231.5C 1261.81,229.239 1263.31,226.905 1264.5,224.5C 1166.89,231.291 1069.22,237.124 971.5,242C 880.476,245.291 789.476,249.124 698.5,253.5C 695.941,253.802 693.607,253.468 691.5,252.5C 692.833,252.5 694.167,252.5 695.5,252.5C 697.764,251.781 700.097,251.448 702.5,251.5C 820.407,235.376 938.741,223.209 1057.5,215C 1123.23,211.405 1188.9,206.738 1254.5,201C 1250.97,200.821 1247.64,200.321 1244.5,199.5C 1253.84,199.023 1263.18,198.356 1272.5,197.5C 1287.2,197.537 1295.2,204.87 1296.5,219.5C 1295.72,225.4 1293.55,230.734 1290,235.5C 1277.52,246.967 1265.02,258.3 1252.5,269.5 Z"/></g>
<g><path style="opacity:1" fill="#1f1f1f" d="M 1244.5,199.5 C 1247.64,200.321 1250.97,200.821 1254.5,201C 1188.9,206.738 1123.23,211.405 1057.5,215C 938.741,223.209 820.407,235.376 702.5,251.5C 700.052,250.527 697.385,250.194 694.5,250.5C 774.801,239.548 855.467,230.381 936.5,223C 1039.13,214.569 1141.8,206.736 1244.5,199.5 Z"/></g>
<g><path style="opacity:1" fill="#f9f9f9" d="M 1253.5,469.5 C 1251.37,471.091 1249.7,473.091 1248.5,475.5C 1070.97,477.429 893.64,484.096 716.5,495.5C 715.5,495.167 714.5,494.833 713.5,494.5C 717.779,488.718 722.612,483.385 728,478.5C 733.517,470.68 733.85,462.68 729,454.5C 714.007,441.839 698.173,430.339 681.5,420C 673.281,414.064 665.281,407.897 657.5,401.5C 677.799,395.123 698.133,388.623 718.5,382C 725.852,375.359 727.352,367.525 723,358.5C 720.5,356 718,353.5 715.5,351C 683.663,326.153 652.163,300.986 621,275.5C 619.622,271.058 620.788,267.558 624.5,265C 636.44,262.182 648.44,259.682 660.5,257.5C 662.854,257.162 665.187,256.662 667.5,256C 664.5,255.667 661.5,255.333 658.5,255C 660.852,254.76 662.852,253.927 664.5,252.5C 672.17,252.222 679.836,251.889 687.5,251.5C 690.385,251.194 693.052,251.527 695.5,252.5C 694.167,252.5 692.833,252.5 691.5,252.5C 688.544,253.137 685.544,253.637 682.5,254C 688.016,254.817 693.35,254.651 698.5,253.5C 789.476,249.124 880.476,245.291 971.5,242C 1069.22,237.124 1166.89,231.291 1264.5,224.5C 1263.31,226.905 1261.81,229.239 1260,231.5C 1248.7,241.803 1237.7,252.47 1227,263.5C 1219.35,273.141 1219.85,282.307 1228.5,291C 1246.85,298.227 1265.35,305.06 1284,311.5C 1285.44,312.212 1286.28,313.379 1286.5,315C 1271.36,335.964 1256.36,357.131 1241.5,378.5C 1241.22,385.171 1243.55,390.671 1248.5,395C 1260.96,398.95 1273.63,402.283 1286.5,405C 1291.22,406.494 1292.72,409.661 1291,414.5C 1277.99,432.544 1265.49,450.878 1253.5,469.5 Z"/></g>
<g><path style="opacity:1" fill="#808080" d="M 687.5,251.5 C 689.607,250.532 691.941,250.198 694.5,250.5C 697.385,250.194 700.052,250.527 702.5,251.5C 700.097,251.448 697.764,251.781 695.5,252.5C 693.052,251.527 690.385,251.194 687.5,251.5 Z"/></g>
<g><path style="opacity:1" fill="#989898" d="M 691.5,252.5 C 693.607,253.468 695.941,253.802 698.5,253.5C 693.35,254.651 688.016,254.817 682.5,254C 685.544,253.637 688.544,253.137 691.5,252.5 Z"/></g>
<g><path style="opacity:1" fill="#6d6d6d" d="M 664.5,252.5 C 662.852,253.927 660.852,254.76 658.5,255C 661.5,255.333 664.5,255.667 667.5,256C 665.187,256.662 662.854,257.162 660.5,257.5C 658.052,256.527 655.385,256.194 652.5,256.5C 652.494,255.583 653.494,255.083 655.5,255C 654.552,254.517 653.552,254.351 652.5,254.5C 656.336,253.622 660.336,252.956 664.5,252.5 Z"/></g>
<g><path style="opacity:1" fill="#3c3c3c" d="M 652.5,254.5 C 653.552,254.351 654.552,254.517 655.5,255C 653.494,255.083 652.494,255.583 652.5,256.5C 641.618,258.272 630.618,260.105 619.5,262C 614.775,264.408 612.108,268.242 611.5,273.5C 610.022,266.636 612.688,261.803 619.5,259C 630.439,257.116 641.439,255.616 652.5,254.5 Z"/></g>
<g><path style="opacity:1" fill="#020202" d="M 652.5,256.5 C 655.385,256.194 658.052,256.527 660.5,257.5C 648.44,259.682 636.44,262.182 624.5,265C 620.788,267.558 619.622,271.058 621,275.5C 652.163,300.986 683.663,326.153 715.5,351C 718,353.5 720.5,356 723,358.5C 727.352,367.525 725.852,375.359 718.5,382C 698.133,388.623 677.799,395.123 657.5,401.5C 665.281,407.897 673.281,414.064 681.5,420C 698.173,430.339 714.007,441.839 729,454.5C 733.85,462.68 733.517,470.68 728,478.5C 722.612,483.385 717.779,488.718 713.5,494.5C 714.5,494.833 715.5,495.167 716.5,495.5C 893.64,484.096 1070.97,477.429 1248.5,475.5C 1249.29,475.783 1249.96,476.283 1250.5,477C 1076.24,496.251 901.57,510.918 726.5,521C 717.833,521.667 709.167,521.667 700.5,521C 687.203,516.585 682.036,507.419 685,493.5C 690.698,484.112 697.365,475.445 705,467.5C 705.667,466.833 705.667,466.167 705,465.5C 683.167,449 661.333,432.5 639.5,416C 631.213,407.513 630.38,398.346 637,388.5C 642.33,383.941 648.497,381.108 655.5,380C 526.751,372.91 398.418,361.243 270.5,345C 266.167,344.333 261.833,344.333 257.5,345C 254.572,346.26 252.739,348.427 252,351.5C 248.921,362.642 246.921,373.975 246,385.5C 239.003,472.785 232.67,560.118 227,647.5C 223.312,705.786 220.812,764.12 219.5,822.5C 218.202,837.983 217.535,853.65 217.5,869.5C 216.686,914.503 215.686,959.503 214.5,1004.5C 213.521,1001.38 213.187,998.042 213.5,994.5C 212.782,985.518 212.448,976.518 212.5,967.5C 211.833,958.833 211.167,950.167 210.5,941.5C 208.154,883.524 206.654,825.524 206,767.5C 205.79,769.058 205.29,770.391 204.5,771.5C 203.471,716.496 203.804,661.496 205.5,606.5C 207.402,591.536 208.402,576.202 208.5,560.5C 208.333,556.5 208.167,552.5 208,548.5C 207.617,549.056 207.117,549.389 206.5,549.5C 208.214,522.545 209.214,495.545 209.5,468.5C 210.496,468.586 211.329,468.252 212,467.5C 213.038,427.743 215.371,388.076 219,348.5C 223.091,330.077 234.257,318.577 252.5,314C 250.381,313.658 250.047,312.825 251.5,311.5C 257.805,310.513 264.138,310.347 270.5,311C 405.532,325.708 540.865,336.208 676.5,342.5C 677.5,342.167 678.167,341.5 678.5,340.5C 657.561,321.067 636.394,301.734 615,282.5C 612.713,279.928 611.547,276.928 611.5,273.5C 612.108,268.242 614.775,264.408 619.5,262C 630.618,260.105 641.618,258.272 652.5,256.5 Z"/></g>
<g><path style="opacity:1" fill="#1e1e1e" d="M 1252.5,269.5 C 1251.97,271.624 1250.64,273.124 1248.5,274C 1264.9,281.528 1281.56,288.528 1298.5,295C 1303.03,298.017 1305.69,302.184 1306.5,307.5C 1305.88,307.611 1305.38,307.944 1305,308.5C 1303.4,303.123 1300.23,298.956 1295.5,296C 1278.71,289.438 1262.04,282.605 1245.5,275.5C 1247.27,272.792 1249.6,270.792 1252.5,269.5 Z"/></g>
<g><path style="opacity:1" fill="#262222" d="M 1693.5,339.5 C 1693.63,340.376 1693.3,341.043 1692.5,341.5C 1691.31,340.347 1690.31,340.347 1689.5,341.5C 1676.11,335.817 1662.11,331.983 1647.5,330C 1621.22,327.103 1594.89,326.103 1568.5,327C 1569.42,326.722 1570.08,326.222 1570.5,325.5C 1608.04,322.6 1645.04,325.766 1681.5,335C 1685.49,336.607 1689.49,338.107 1693.5,339.5 Z"/></g>
<g><path style="opacity:1" fill="#f9b4ba" d="M 1248.5,475.5 C 1249.7,473.091 1251.37,471.091 1253.5,469.5C 1267.09,453.397 1280.93,437.397 1295,421.5C 1302.43,413.375 1302.27,405.542 1294.5,398C 1283.24,394.135 1271.91,390.469 1260.5,387C 1256.85,385.792 1255.85,383.625 1257.5,380.5C 1280.52,379.387 1303.52,377.887 1326.5,376C 1388.57,367.751 1450.9,362.751 1513.5,361C 1527.05,360.11 1540.38,358.61 1553.5,356.5C 1580.79,354.578 1608.13,354.078 1635.5,355C 1646.59,355.478 1657.59,356.645 1668.5,358.5C 1674.59,359.545 1680.26,361.712 1685.5,365C 1691.77,371.938 1697.27,379.438 1702,387.5C 1713.94,416.68 1721.1,447.014 1723.5,478.5C 1724.12,489.725 1725.45,500.725 1727.5,511.5C 1730.08,527.625 1732.08,543.959 1733.5,560.5C 1733.46,569.429 1734.46,578.096 1736.5,586.5C 1741.33,633.727 1745.16,681.06 1748,728.5C 1740.95,911.039 1679.95,1072.71 1565,1213.5C 1495.63,1296.07 1415.46,1365.73 1324.5,1422.5C 1332.69,1429.19 1341.02,1435.69 1349.5,1442C 1382.14,1469.63 1406.64,1503.13 1423,1542.5C 1431.52,1585.58 1422.36,1624.41 1395.5,1659C 1380.93,1661.42 1366.26,1663.09 1351.5,1664C 1009.58,1688.37 667.251,1697.7 324.5,1692C 314.424,1691.75 304.424,1690.75 294.5,1689C 282.308,1684.8 275.141,1676.3 273,1663.5C 246.144,1461.25 227.31,1258.25 216.5,1054.5C 215.853,1046.85 215.353,1039.19 215,1031.5C 214.667,1036.83 214.333,1042.17 214,1047.5C 213.792,1043.08 213.126,1038.75 212,1034.5C 211.5,1042.16 211.334,1049.83 211.5,1057.5C 210.736,1042.67 210.736,1027.67 211.5,1012.5C 212.825,1011.05 213.658,1011.38 214,1013.5C 214.498,1010.52 214.665,1007.52 214.5,1004.5C 215.686,959.503 216.686,914.503 217.5,869.5C 218.906,854.021 219.573,838.354 219.5,822.5C 220.812,764.12 223.312,705.786 227,647.5C 232.67,560.118 239.003,472.785 246,385.5C 246.921,373.975 248.921,362.642 252,351.5C 252.739,348.427 254.572,346.26 257.5,345C 261.833,344.333 266.167,344.333 270.5,345C 398.418,361.243 526.751,372.91 655.5,380C 648.497,381.108 642.33,383.941 637,388.5C 630.38,398.346 631.213,407.513 639.5,416C 661.333,432.5 683.167,449 705,465.5C 705.667,466.167 705.667,466.833 705,467.5C 697.365,475.445 690.698,484.112 685,493.5C 682.036,507.419 687.203,516.585 700.5,521C 709.167,521.667 717.833,521.667 726.5,521C 901.57,510.918 1076.24,496.251 1250.5,477C 1249.96,476.283 1249.29,475.783 1248.5,475.5 Z"/></g>
<g><path style="opacity:1" fill="#ddccce" d="M 1668.5,358.5 C 1657.59,356.645 1646.59,355.478 1635.5,355C 1608.13,354.078 1580.79,354.578 1553.5,356.5C 1550.83,356.5 1548.17,356.5 1545.5,356.5C 1582.3,351.981 1619.3,351.481 1656.5,355C 1660.87,355.293 1664.87,356.46 1668.5,358.5 Z"/></g>
<g><path style="opacity:1" fill="#766264" d="M 1693.5,339.5 C 1701.89,343.04 1709.39,348.04 1716,354.5C 1727.61,373.503 1734.11,394.169 1735.5,416.5C 1734.71,415.391 1734.21,414.058 1734,412.5C 1733.72,413.416 1733.22,414.082 1732.5,414.5C 1729.7,401.108 1725.7,388.108 1720.5,375.5C 1719.86,373.54 1719.86,371.707 1720.5,370C 1719.27,369.221 1718.27,368.221 1717.5,367C 1718.33,365.535 1718.5,364.035 1718,362.5C 1716.06,358.89 1713.72,355.557 1711,352.5C 1709.28,352.038 1707.45,351.872 1705.5,352C 1702.53,348.193 1698.87,345.359 1694.5,343.5C 1692.72,343.107 1691.05,342.441 1689.5,341.5C 1690.31,340.347 1691.31,340.347 1692.5,341.5C 1693.3,341.043 1693.63,340.376 1693.5,339.5 Z"/></g>
<g><path style="opacity:1" fill="#a09798" d="M 1694.5,343.5 C 1698.87,345.359 1702.53,348.193 1705.5,352C 1707.45,351.872 1709.28,352.038 1711,352.5C 1713.72,355.557 1716.06,358.89 1718,362.5C 1718.5,364.035 1718.33,365.535 1717.5,367C 1718.27,368.221 1719.27,369.221 1720.5,370C 1719.86,371.707 1719.86,373.54 1720.5,375.5C 1716.92,369.406 1713.09,363.406 1709,357.5C 1704.27,352.603 1699.44,347.936 1694.5,343.5 Z"/></g>
<g><path style="opacity:1" fill="#e1d6d6" d="M 1545.5,356.5 C 1548.17,356.5 1550.83,356.5 1553.5,356.5C 1540.38,358.61 1527.05,360.11 1513.5,361C 1450.9,362.751 1388.57,367.751 1326.5,376C 1303.52,377.887 1280.52,379.387 1257.5,380.5C 1316.01,374.616 1374.67,368.783 1433.5,363C 1458.46,361.001 1483.46,360.001 1508.5,360C 1520.82,358.655 1533.16,357.488 1545.5,356.5 Z"/></g>
<g><path style="opacity:1" fill="#161313" d="M 251.5,311.5 C 250.047,312.825 250.381,313.658 252.5,314C 234.257,318.577 223.091,330.077 219,348.5C 215.371,388.076 213.038,427.743 212,467.5C 211.329,468.252 210.496,468.586 209.5,468.5C 211.397,436.195 212.897,403.861 214,371.5C 214.737,362.801 215.737,354.134 217,345.5C 217.449,341.895 218.616,338.562 220.5,335.5C 220.32,334.446 219.987,333.446 219.5,332.5C 222.497,329.007 225.497,325.507 228.5,322C 231.789,319.729 235.122,317.395 238.5,315C 242.808,313.673 247.141,312.507 251.5,311.5 Z"/></g>
<g><path style="opacity:1" fill="#c0adae" d="M 1723.5,478.5 C 1725.72,489.257 1727.05,500.257 1727.5,511.5C 1725.45,500.725 1724.12,489.725 1723.5,478.5 Z"/></g>
<g><path style="opacity:1" fill="#493d3e" d="M 1735.5,416.5 C 1740.88,444.869 1744.38,473.535 1746,502.5C 1748.09,534.143 1749.59,565.81 1750.5,597.5C 1746.73,557.091 1743.56,516.424 1741,475.5C 1739.07,455.019 1736.23,434.686 1732.5,414.5C 1733.22,414.082 1733.72,413.416 1734,412.5C 1734.21,414.058 1734.71,415.391 1735.5,416.5 Z"/></g>
<g><path style="opacity:1" fill="#1b1818" d="M 205.5,606.5 C 205.405,587.49 205.738,568.49 206.5,549.5C 207.117,549.389 207.617,549.056 208,548.5C 208.167,552.5 208.333,556.5 208.5,560.5C 208.402,576.202 207.402,591.536 205.5,606.5 Z"/></g>
<g><path style="opacity:1" fill="#d1b6b9" d="M 1733.5,560.5 C 1735.07,568.961 1736.07,577.628 1736.5,586.5C 1734.46,578.096 1733.46,569.429 1733.5,560.5 Z"/></g>
<g><path style="opacity:1" fill="#3e3435" d="M 1750.5,605.5 C 1752.09,627.651 1753.09,649.984 1753.5,672.5C 1753.5,674.5 1753.5,676.5 1753.5,678.5C 1752.83,672.167 1752.17,665.833 1751.5,659.5C 1750.2,641.501 1749.87,623.501 1750.5,605.5 Z"/></g>
<g><path style="opacity:1" fill="#6d6162" d="M 1751.5,659.5 C 1752.17,665.833 1752.83,672.167 1753.5,678.5C 1753.17,710.004 1753.5,741.338 1754.5,772.5C 1754.5,773.833 1754.5,775.167 1754.5,776.5C 1753.85,776.196 1753.18,775.863 1752.5,775.5C 1751.5,736.839 1751.17,698.172 1751.5,659.5 Z"/></g>
<g><path style="opacity:1" fill="#d1abaf" d="M 1753.5,672.5 C 1754.84,687.813 1755.51,703.313 1755.5,719C 1755.02,736.832 1754.69,754.665 1754.5,772.5C 1753.5,741.338 1753.17,710.004 1753.5,678.5C 1753.5,676.5 1753.5,674.5 1753.5,672.5 Z"/></g>
<g><path style="opacity:1" fill="#221c1c" d="M 210.5,941.5 C 209.833,941.5 209.5,941.167 209.5,940.5C 205.754,884.266 204.087,827.933 204.5,771.5C 205.29,770.391 205.79,769.058 206,767.5C 206.654,825.524 208.154,883.524 210.5,941.5 Z"/></g>
<g><path style="opacity:1" fill="#c4afb1" d="M 219.5,822.5 C 219.573,838.354 218.906,854.021 217.5,869.5C 217.535,853.65 218.202,837.983 219.5,822.5 Z"/></g>
<g><path style="opacity:1" fill="#e65d70" d="M 1516.5,1323.5 C 1520.44,1321.23 1523.77,1318.23 1526.5,1314.5C 1536.17,1304.17 1546.17,1294.17 1556.5,1284.5C 1558.59,1283.42 1559.92,1281.75 1560.5,1279.5C 1657.49,1174.85 1718.99,1051.85 1745,910.5C 1738.15,1036.78 1725.15,1162.44 1706,1287.5C 1699.88,1334.58 1690.21,1380.92 1677,1426.5C 1665.87,1464.74 1649.87,1500.74 1629,1534.5C 1594.55,1585.93 1547.71,1621.1 1488.5,1640C 1460.45,1649.08 1431.79,1655.08 1402.5,1658C 1431.24,1626.13 1444.74,1588.63 1443,1545.5C 1438.32,1522.46 1429.98,1500.79 1418,1480.5C 1405.9,1460.89 1392.06,1442.56 1376.5,1425.5C 1426.81,1396.53 1473.47,1362.53 1516.5,1323.5 Z"/></g>
<g><path style="opacity:1" fill="#3d2f30" d="M 209.5,940.5 C 209.5,941.167 209.833,941.5 210.5,941.5C 211.167,950.167 211.833,958.833 212.5,967.5C 211.673,972.651 211.173,977.984 211,983.5C 210.91,975.933 210.076,968.6 208.5,961.5C 208.175,954.313 208.509,947.313 209.5,940.5 Z"/></g>
<g><path style="opacity:1" fill="#715d5f" d="M 208.5,961.5 C 210.076,968.6 210.91,975.933 211,983.5C 211.173,977.984 211.673,972.651 212.5,967.5C 212.448,976.518 212.782,985.518 213.5,994.5C 212.622,998.336 211.956,1002.34 211.5,1006.5C 209.702,991.705 208.702,976.705 208.5,961.5 Z"/></g>
<g><path style="opacity:1" fill="#ae9195" d="M 213.5,994.5 C 213.187,998.042 213.521,1001.38 214.5,1004.5C 214.665,1007.52 214.498,1010.52 214,1013.5C 213.658,1011.38 212.825,1011.05 211.5,1012.5C 211.5,1010.5 211.5,1008.5 211.5,1006.5C 211.956,1002.34 212.622,998.336 213.5,994.5 Z"/></g>
<g><path style="opacity:1" fill="#7e6466" d="M 216.5,1054.5 C 215.71,1053.39 215.21,1052.06 215,1050.5C 214.5,1059.16 214.334,1067.83 214.5,1076.5C 213.672,1070.01 213.172,1063.35 213,1056.5C 212.5,1064.16 212.334,1071.83 212.5,1079.5C 211.508,1072.35 211.175,1065.02 211.5,1057.5C 211.334,1049.83 211.5,1042.16 212,1034.5C 213.126,1038.75 213.792,1043.08 214,1047.5C 214.333,1042.17 214.667,1036.83 215,1031.5C 215.353,1039.19 215.853,1046.85 216.5,1054.5 Z"/></g>
<g><path style="opacity:1" fill="#352b2c" d="M 214.5,1076.5 C 215.159,1129.84 216.159,1183.17 217.5,1236.5C 216.833,1235.17 216.167,1233.83 215.5,1232.5C 213.093,1181.59 212.093,1130.59 212.5,1079.5C 212.334,1071.83 212.5,1064.16 213,1056.5C 213.172,1063.35 213.672,1070.01 214.5,1076.5 Z"/></g>
<g><path style="opacity:1" fill="#261416" d="M 1746.5,1114.5 C 1742.39,1198.01 1733.55,1281.01 1720,1363.5C 1717.38,1378.75 1714.22,1393.75 1710.5,1408.5C 1719.1,1359.35 1726.6,1310.02 1733,1260.5C 1737.28,1216.87 1740.95,1173.21 1744,1129.5C 1744.93,1124.38 1745.76,1119.38 1746.5,1114.5 Z"/></g>
<g><path style="opacity:1" fill="#c2888e" d="M 1560.5,1279.5 C 1559.92,1281.75 1558.59,1283.42 1556.5,1284.5C 1557.08,1282.25 1558.41,1280.58 1560.5,1279.5 Z"/></g>
<g><path style="opacity:1" fill="#d58a94" d="M 1526.5,1314.5 C 1523.77,1318.23 1520.44,1321.23 1516.5,1323.5C 1519.23,1319.77 1522.56,1316.77 1526.5,1314.5 Z"/></g>
<g><path style="opacity:1" fill="#1e1818" d="M 215.5,1232.5 C 216.167,1233.83 216.833,1235.17 217.5,1236.5C 221.014,1357.39 228.348,1478.06 239.5,1598.5C 239.408,1600.26 239.075,1601.92 238.5,1603.5C 226.551,1480.25 218.884,1356.58 215.5,1232.5 Z"/></g>
<g><path style="opacity:1" fill="#160a0c" d="M 1709.5,1414.5 C 1698.83,1466.03 1679.67,1514.03 1652,1558.5C 1646.96,1566.02 1641.46,1573.02 1635.5,1579.5C 1643.08,1567.4 1650.92,1555.4 1659,1543.5C 1666.19,1530.45 1672.86,1517.11 1679,1503.5C 1691.14,1474.24 1701.31,1444.58 1709.5,1414.5 Z"/></g>
</svg>
