<?xml version="1.0" encoding="UTF-8"?>
<!DOCTYPE svg PUBLIC "-//W3C//DTD SVG 1.1//EN" "http://www.w3.org/Graphics/SVG/1.1/DTD/svg11.dtd">
<svg xmlns="http://www.w3.org/2000/svg" version="1.1" width="2000px" height="2000px" style="shape-rendering:geometricPrecision; text-rendering:geometricPrecision; image-rendering:optimizeQuality; fill-rule:evenodd; clip-rule:evenodd" xmlns:xlink="http://www.w3.org/1999/xlink">
<g><path style="opacity:1" fill="#504e44" d="M 1627.5,113.5 C 1628.83,113.833 1630.17,114.167 1631.5,114.5C 1607.91,117.515 1584.24,121.015 1560.5,125C 1555.18,125.499 1549.84,125.666 1544.5,125.5C 1572.01,121.365 1599.68,117.365 1627.5,113.5 Z"/></g>
<g><path style="opacity:1" fill="#383634" d="M 1631.5,114.5 C 1632.75,115.334 1633.41,116.667 1633.5,118.5C 1646.87,206.064 1660.87,293.397 1675.5,380.5C 1697.76,522.277 1720.76,663.944 1744.5,805.5C 1746.5,815.5 1748.5,825.5 1750.5,835.5C 1758.95,886.225 1767.62,936.891 1776.5,987.5C 1792.15,1076.08 1808.82,1164.41 1826.5,1252.5C 1830.13,1264.68 1833.29,1277.01 1836,1289.5C 1837.99,1297.81 1841.33,1305.48 1846,1312.5C 1846.56,1314.88 1846.39,1317.22 1845.5,1319.5C 1841.44,1325.07 1836.77,1330.24 1831.5,1335C 1817.21,1345.81 1802.54,1355.98 1787.5,1365.5C 1737,1395.33 1685.34,1422.99 1632.5,1448.5C 1552.43,1486.7 1471.43,1523.03 1389.5,1557.5C 1321.88,1584.15 1254.21,1610.49 1186.5,1636.5C 1080.06,1674.62 972.732,1710.28 864.5,1743.5C 808.605,1759.61 752.605,1775.44 696.5,1791C 684.259,1794.31 671.925,1797.14 659.5,1799.5C 649.038,1800.93 638.705,1802.76 628.5,1805C 620.85,1807.33 613.183,1809.67 605.5,1812C 600.149,1811.86 595.149,1813.03 590.5,1815.5C 586.862,1816.18 583.195,1816.68 579.5,1817C 577.416,1817.7 575.749,1818.86 574.5,1820.5C 565.365,1821.41 556.365,1822.91 547.5,1825C 544.555,1825.14 542.221,1826.31 540.5,1828.5C 536.21,1827.75 531.877,1827.91 527.5,1829C 523.719,1830.83 519.719,1831.83 515.5,1832C 513.075,1833.21 510.741,1834.38 508.5,1835.5C 496.966,1837.07 485.632,1839.41 474.5,1842.5C 467.294,1842.85 460.294,1844.19 453.5,1846.5C 452.833,1846.17 452.167,1845.83 451.5,1845.5C 446.804,1846.14 442.304,1847.48 438,1849.5C 435.285,1848.51 432.785,1849.01 430.5,1851C 424.29,1851.39 418.29,1852.72 412.5,1855C 408.779,1855.68 405.112,1855.51 401.5,1854.5C 438.591,1845.9 475.924,1837.9 513.5,1830.5C 517.816,1830.23 521.816,1829.23 525.5,1827.5C 579.939,1814.68 634.272,1801.34 688.5,1787.5C 691.152,1787.59 693.485,1786.92 695.5,1785.5C 731.96,1775.97 768.294,1765.97 804.5,1755.5C 807.152,1755.59 809.485,1754.92 811.5,1753.5C 817.385,1751.43 823.385,1749.76 829.5,1748.5C 835.166,1747.61 840.5,1745.94 845.5,1743.5C 852.373,1741.1 859.373,1739.1 866.5,1737.5C 872.915,1736.47 878.915,1734.47 884.5,1731.5C 913.549,1722.71 942.549,1713.71 971.5,1704.5C 976.165,1703.94 980.498,1702.61 984.5,1700.5C 1076.15,1670.23 1167.15,1638.06 1257.5,1604C 1291.08,1586.88 1323.75,1568.21 1355.5,1548C 1452.07,1486.76 1544.74,1420.09 1633.5,1348C 1646.54,1335.96 1659.87,1324.29 1673.5,1313C 1688.39,1299.45 1702.55,1285.28 1716,1270.5C 1728.94,1256.56 1739.94,1241.23 1749,1224.5C 1750.32,1221.36 1751.49,1218.2 1752.5,1215C 1774.42,1234.91 1795.92,1255.74 1817,1277.5C 1823.09,1283.59 1828.43,1290.26 1833,1297.5C 1830.92,1288.43 1828.75,1279.43 1826.5,1270.5C 1826.43,1267.57 1825.77,1264.91 1824.5,1262.5C 1819.07,1237.19 1813.74,1211.86 1808.5,1186.5C 1808.78,1183.17 1808.12,1180.17 1806.5,1177.5C 1805.78,1175.24 1805.45,1172.9 1805.5,1170.5C 1805.59,1167.85 1804.92,1165.51 1803.5,1163.5C 1797.5,1130.5 1791.5,1097.5 1785.5,1064.5C 1785.45,1060.92 1784.78,1057.59 1783.5,1054.5C 1783.5,1054.17 1783.5,1053.83 1783.5,1053.5C 1782.99,1048.61 1781.99,1043.94 1780.5,1039.5C 1779.3,1031.48 1777.96,1023.48 1776.5,1015.5C 1776.45,1011.92 1775.78,1008.59 1774.5,1005.5C 1774.5,1005.17 1774.5,1004.83 1774.5,1004.5C 1774.04,998.939 1773.04,993.606 1771.5,988.5C 1769.03,973.673 1766.36,959.007 1763.5,944.5C 1763.5,938.209 1762.5,932.209 1760.5,926.5C 1759.09,916.455 1757.42,906.455 1755.5,896.5C 1755.73,891.454 1754.73,886.787 1752.5,882.5C 1752.5,881.167 1752.5,879.833 1752.5,878.5C 1752.13,872.924 1751.13,867.591 1749.5,862.5C 1747.72,850.463 1745.72,838.463 1743.5,826.5C 1743.71,823.505 1743.04,820.838 1741.5,818.5C 1739.11,801.135 1736.45,783.801 1733.5,766.5C 1733.78,763.171 1733.12,760.171 1731.5,757.5C 1724.65,714.14 1717.65,670.806 1710.5,627.5C 1710.59,624.848 1709.92,622.515 1708.5,620.5C 1706.01,601.74 1703.01,583.074 1699.5,564.5C 1699.38,557.902 1698.38,551.569 1696.5,545.5C 1690.5,506.135 1684.16,466.802 1677.5,427.5C 1676.95,421.626 1675.95,415.959 1674.5,410.5C 1672.83,399.164 1671.17,387.831 1669.5,376.5C 1668.95,370.626 1667.95,364.959 1666.5,359.5C 1664.06,345.184 1661.73,330.851 1659.5,316.5C 1659.8,312.21 1659.14,308.21 1657.5,304.5C 1657.5,303.833 1657.5,303.167 1657.5,302.5C 1656.69,294.615 1655.35,286.949 1653.5,279.5C 1651.83,268.165 1650.17,256.832 1648.5,245.5C 1648.78,242.171 1648.12,239.171 1646.5,236.5C 1646.5,235.5 1646.5,234.5 1646.5,233.5C 1645.95,227.626 1644.95,221.959 1643.5,216.5C 1638.5,184.499 1633.5,152.499 1628.5,120.5C 1617.16,121.739 1605.82,123.073 1594.5,124.5C 1586.27,125.217 1578.27,126.55 1570.5,128.5C 1565.59,128.362 1560.92,129.028 1556.5,130.5C 1538.1,133.02 1519.77,135.686 1501.5,138.5C 1493.93,138.755 1486.6,139.755 1479.5,141.5C 1463.48,143.687 1447.48,146.02 1431.5,148.5C 1419.58,149.292 1407.91,150.959 1396.5,153.5C 1384.12,154.888 1371.79,156.554 1359.5,158.5C 1348.26,159.431 1337.26,161.097 1326.5,163.5C 1310.42,165.402 1294.42,167.735 1278.5,170.5C 1268.58,170.947 1258.91,172.28 1249.5,174.5C 1235.01,176.418 1220.68,178.418 1206.5,180.5C 1194.93,181.438 1183.6,183.105 1172.5,185.5C 1163.12,186.554 1153.79,187.887 1144.5,189.5C 1134.58,189.947 1124.91,191.28 1115.5,193.5C 1100.5,195.5 1085.5,197.5 1070.5,199.5C 1066.96,199.753 1063.63,200.419 1060.5,201.5C 1049.26,202.43 1038.26,204.097 1027.5,206.5C 1014.76,207.736 1002.09,209.402 989.5,211.5C 985.511,211.116 981.845,211.783 978.5,213.5C 928.74,220.037 879.073,227.037 829.5,234.5C 820.289,235.273 811.289,236.607 802.5,238.5C 787.49,240.39 772.49,242.39 757.5,244.5C 746.604,245.539 735.938,247.206 725.5,249.5C 717.155,250.418 708.822,251.418 700.5,252.5C 694.88,252.694 689.547,253.694 684.5,255.5C 684.167,255.5 683.833,255.5 683.5,255.5C 673.917,255.989 664.584,257.322 655.5,259.5C 644.091,260.917 632.758,262.584 621.5,264.5C 615.931,264.376 610.598,265.043 605.5,266.5C 596.259,267.098 587.259,268.431 578.5,270.5C 570.82,271.407 563.153,272.407 555.5,273.5C 548.902,273.625 542.569,274.625 536.5,276.5C 531.878,276.156 527.545,276.823 523.5,278.5C 505.774,280.511 488.107,282.844 470.5,285.5C 466.267,285.539 462.267,286.205 458.5,287.5C 452.511,287.367 446.844,288.367 441.5,290.5C 400.373,295.367 359.373,301.034 318.5,307.5C 306.913,308.323 295.579,309.989 284.5,312.5C 269.484,314.392 254.484,316.392 239.5,318.5C 232.936,318.864 226.603,319.864 220.5,321.5C 204.18,323.915 187.847,326.248 171.5,328.5C 167.511,328.116 163.845,328.783 160.5,330.5C 159.833,330.5 159.167,330.5 158.5,330.5C 149.262,331.098 140.262,332.431 131.5,334.5C 121.78,335.46 112.114,336.793 102.5,338.5C 103.886,344.095 104.886,349.762 105.5,355.5C 105.495,361.791 106.495,367.791 108.5,373.5C 111.55,387.419 114.217,401.419 116.5,415.5C 116.24,421.194 117.24,426.527 119.5,431.5C 125.708,463.08 131.374,494.746 136.5,526.5C 136.156,531.122 136.823,535.455 138.5,539.5C 142.901,559.564 146.568,579.898 149.5,600.5C 149.565,603.428 150.232,606.095 151.5,608.5C 153.243,620.215 155.243,631.881 157.5,643.5C 157.156,648.122 157.823,652.455 159.5,656.5C 170.523,715.962 181.19,775.628 191.5,835.5C 191.676,838.727 192.343,841.727 193.5,844.5C 199.89,879.113 205.89,913.779 211.5,948.5C 211.28,953.1 211.946,957.433 213.5,961.5C 221.347,1003.74 228.68,1046.07 235.5,1088.5C 235.565,1091.43 236.232,1094.09 237.5,1096.5C 239.497,1108.49 241.497,1120.49 243.5,1132.5C 243.362,1137.41 244.028,1142.08 245.5,1146.5C 251.925,1181.05 257.925,1215.72 263.5,1250.5C 263.572,1258.51 264.906,1266.18 267.5,1273.5C 269.391,1285.85 271.391,1298.18 273.5,1310.5C 274.107,1320.15 275.774,1329.48 278.5,1338.5C 280.924,1352.8 283.257,1367.13 285.5,1381.5C 285.362,1386.41 286.028,1391.08 287.5,1395.5C 290.695,1413.33 293.695,1431.33 296.5,1449.5C 296.126,1455.54 297.126,1461.2 299.5,1466.5C 299.5,1467.5 299.5,1468.5 299.5,1469.5C 299.41,1472.15 300.076,1474.49 301.5,1476.5C 303.167,1487.83 304.833,1499.17 306.5,1510.5C 306.238,1516.84 307.238,1522.84 309.5,1528.5C 312.98,1550.82 316.313,1573.15 319.5,1595.5C 319.565,1598.43 320.232,1601.09 321.5,1603.5C 323.5,1617.5 325.5,1631.5 327.5,1645.5C 327.547,1652.77 328.547,1659.77 330.5,1666.5C 333.187,1681.97 335.521,1697.64 337.5,1713.5C 337.765,1720.74 338.765,1727.74 340.5,1734.5C 340.335,1737.85 340.502,1741.18 341,1744.5C 341.232,1745.74 341.732,1746.74 342.5,1747.5C 343.969,1760.53 345.636,1773.53 347.5,1786.5C 347.444,1791.73 348.111,1796.73 349.5,1801.5C 350.817,1806.74 351.483,1812.07 351.5,1817.5C 351.302,1822.75 351.969,1827.75 353.5,1832.5C 353.852,1842.65 355.185,1852.65 357.5,1862.5C 371.481,1859.7 385.481,1857.04 399.5,1854.5C 398.426,1855.88 397.093,1857.05 395.5,1858C 385.617,1860.27 375.617,1861.94 365.5,1863C 360.673,1864.2 356.339,1866.04 352.5,1868.5C 351.833,1868.5 351.5,1868.17 351.5,1867.5C 349.496,1845.14 347.162,1822.8 344.5,1800.5C 341.985,1778.74 338.818,1757.08 335,1735.5C 333.942,1716.43 331.109,1697.77 326.5,1679.5C 321.515,1640.44 316.015,1601.44 310,1562.5C 305.216,1539.68 301.549,1516.68 299,1493.5C 296.335,1481.06 293.835,1468.72 291.5,1456.5C 291.666,1452.15 291.499,1447.82 291,1443.5C 279.457,1377.24 268.457,1310.91 258,1244.5C 251.811,1213.06 245.977,1181.73 240.5,1150.5C 235.331,1116.15 229.831,1081.81 224,1047.5C 217.704,1014.7 211.537,982.034 205.5,949.5C 205.666,945.486 205.499,941.486 205,937.5C 194.013,878.916 183.68,820.25 174,761.5C 158.57,675.949 142.737,590.616 126.5,505.5C 124.279,498.114 122.946,490.448 122.5,482.5C 120.669,470.18 118.836,457.846 117,445.5C 116.155,443.389 115.322,441.389 114.5,439.5C 114.5,439.167 114.5,438.833 114.5,438.5C 109.04,403.406 103.04,368.406 96.5,333.5C 104.86,332.997 113.193,332.164 121.5,331C 221.186,315.307 320.853,300.807 420.5,287.5C 465.794,280.791 511.128,274.458 556.5,268.5C 862.431,224.472 1168.43,180.638 1474.5,137C 1498.11,133.94 1521.44,130.107 1544.5,125.5C 1549.84,125.666 1555.18,125.499 1560.5,125C 1584.24,121.015 1607.91,117.515 1631.5,114.5 Z"/></g>
<g><path style="opacity:1" fill="#f9f2b4" d="M 1643.5,216.5 C 1643.13,222.537 1644.13,228.203 1646.5,233.5C 1646.5,234.5 1646.5,235.5 1646.5,236.5C 1646.68,239.727 1647.34,242.727 1648.5,245.5C 1650.17,256.832 1651.83,268.165 1653.5,279.5C 1653.55,287.522 1654.88,295.189 1657.5,302.5C 1657.5,303.167 1657.5,303.833 1657.5,304.5C 1657.72,308.705 1658.38,312.705 1659.5,316.5C 1661.73,330.851 1664.06,345.184 1666.5,359.5C 1666.33,365.503 1667.33,371.17 1669.5,376.5C 1671.17,387.831 1672.83,399.164 1674.5,410.5C 1674.33,416.503 1675.33,422.17 1677.5,427.5C 1684.16,466.802 1690.5,506.135 1696.5,545.5C 1696.55,552.111 1697.55,558.444 1699.5,564.5C 1703.01,583.074 1706.01,601.74 1708.5,620.5C 1708.41,623.152 1709.08,625.485 1710.5,627.5C 1717.65,670.806 1724.65,714.14 1731.5,757.5C 1731.68,760.727 1732.34,763.727 1733.5,766.5C 1736.45,783.801 1739.11,801.135 1741.5,818.5C 1741.57,821.428 1742.23,824.095 1743.5,826.5C 1745.72,838.463 1747.72,850.463 1749.5,862.5C 1749.23,868.216 1750.23,873.549 1752.5,878.5C 1752.5,879.833 1752.5,881.167 1752.5,882.5C 1753.22,887.349 1754.22,892.015 1755.5,896.5C 1757.42,906.455 1759.09,916.455 1760.5,926.5C 1760.5,932.791 1761.5,938.791 1763.5,944.5C 1766.36,959.007 1769.03,973.673 1771.5,988.5C 1771.24,994.194 1772.24,999.527 1774.5,1004.5C 1774.5,1004.83 1774.5,1005.17 1774.5,1005.5C 1774.34,1008.19 1774.5,1010.85 1775,1013.5C 1775.28,1014.42 1775.78,1015.08 1776.5,1015.5C 1777.96,1023.48 1779.3,1031.48 1780.5,1039.5C 1780.34,1042.52 1780.5,1045.52 1781,1048.5C 1781.1,1050.65 1781.93,1052.32 1783.5,1053.5C 1783.5,1053.83 1783.5,1054.17 1783.5,1054.5C 1783.34,1057.19 1783.5,1059.85 1784,1062.5C 1784.28,1063.42 1784.78,1064.08 1785.5,1064.5C 1791.5,1097.5 1797.5,1130.5 1803.5,1163.5C 1803.41,1166.15 1804.08,1168.49 1805.5,1170.5C 1805.45,1172.9 1805.78,1175.24 1806.5,1177.5C 1806.68,1180.73 1807.34,1183.73 1808.5,1186.5C 1813.74,1211.86 1819.07,1237.19 1824.5,1262.5C 1824.29,1265.5 1824.96,1268.16 1826.5,1270.5C 1828.75,1279.43 1830.92,1288.43 1833,1297.5C 1828.43,1290.26 1823.09,1283.59 1817,1277.5C 1795.92,1255.74 1774.42,1234.91 1752.5,1215C 1751.49,1218.2 1750.32,1221.36 1749,1224.5C 1739.94,1241.23 1728.94,1256.56 1716,1270.5C 1702.55,1285.28 1688.39,1299.45 1673.5,1313C 1659.87,1324.29 1646.54,1335.96 1633.5,1348C 1544.74,1420.09 1452.07,1486.76 1355.5,1548C 1323.75,1568.21 1291.08,1586.88 1257.5,1604C 1167.15,1638.06 1076.15,1670.23 984.5,1700.5C 979.835,1701.06 975.502,1702.39 971.5,1704.5C 942.549,1713.71 913.549,1722.71 884.5,1731.5C 878.216,1732.93 872.216,1734.93 866.5,1737.5C 859.373,1739.1 852.373,1741.1 845.5,1743.5C 839.834,1744.39 834.5,1746.06 829.5,1748.5C 823.385,1749.76 817.385,1751.43 811.5,1753.5C 808.848,1753.41 806.515,1754.08 804.5,1755.5C 768.294,1765.97 731.96,1775.97 695.5,1785.5C 692.848,1785.41 690.515,1786.08 688.5,1787.5C 634.272,1801.34 579.939,1814.68 525.5,1827.5C 521.159,1827.66 517.159,1828.66 513.5,1830.5C 475.924,1837.9 438.591,1845.9 401.5,1854.5C 400.833,1854.5 400.167,1854.5 399.5,1854.5C 385.481,1857.04 371.481,1859.7 357.5,1862.5C 355.185,1852.65 353.852,1842.65 353.5,1832.5C 353.556,1827.27 352.889,1822.27 351.5,1817.5C 351.483,1812.07 350.817,1806.74 349.5,1801.5C 349.556,1796.27 348.889,1791.27 347.5,1786.5C 345.636,1773.53 343.969,1760.53 342.5,1747.5C 342.23,1742.97 341.563,1738.64 340.5,1734.5C 340.322,1727.25 339.322,1720.25 337.5,1713.5C 335.521,1697.64 333.187,1681.97 330.5,1666.5C 330.322,1659.25 329.322,1652.25 327.5,1645.5C 325.5,1631.5 323.5,1617.5 321.5,1603.5C 321.889,1600.45 321.223,1597.78 319.5,1595.5C 316.313,1573.15 312.98,1550.82 309.5,1528.5C 309.043,1522.28 308.043,1516.28 306.5,1510.5C 304.833,1499.17 303.167,1487.83 301.5,1476.5C 301.829,1473.77 301.163,1471.44 299.5,1469.5C 299.5,1468.5 299.5,1467.5 299.5,1466.5C 299.02,1460.61 298.02,1454.95 296.5,1449.5C 293.695,1431.33 290.695,1413.33 287.5,1395.5C 287.638,1390.59 286.972,1385.92 285.5,1381.5C 283.257,1367.13 280.924,1352.8 278.5,1338.5C 277.462,1328.93 275.795,1319.59 273.5,1310.5C 271.391,1298.18 269.391,1285.85 267.5,1273.5C 266.896,1265.58 265.563,1257.91 263.5,1250.5C 257.925,1215.72 251.925,1181.05 245.5,1146.5C 245.638,1141.59 244.972,1136.92 243.5,1132.5C 241.497,1120.49 239.497,1108.49 237.5,1096.5C 237.889,1093.45 237.223,1090.78 235.5,1088.5C 228.68,1046.07 221.347,1003.74 213.5,961.5C 213.72,956.9 213.054,952.567 211.5,948.5C 205.89,913.779 199.89,879.113 193.5,844.5C 193.785,841.171 193.118,838.171 191.5,835.5C 181.19,775.628 170.523,715.962 159.5,656.5C 159.72,651.9 159.054,647.567 157.5,643.5C 155.243,631.881 153.243,620.215 151.5,608.5C 151.889,605.447 151.223,602.78 149.5,600.5C 146.568,579.898 142.901,559.564 138.5,539.5C 138.72,534.9 138.054,530.567 136.5,526.5C 131.374,494.746 125.708,463.08 119.5,431.5C 119.129,425.924 118.129,420.591 116.5,415.5C 114.217,401.419 111.55,387.419 108.5,373.5C 108.505,367.209 107.505,361.209 105.5,355.5C 104.886,349.762 103.886,344.095 102.5,338.5C 112.114,336.793 121.78,335.46 131.5,334.5C 140.811,334.381 149.811,333.047 158.5,330.5C 159.167,330.5 159.833,330.5 160.5,330.5C 164.36,330.192 168.026,329.525 171.5,328.5C 187.847,326.248 204.18,323.915 220.5,321.5C 227.111,321.453 233.444,320.453 239.5,318.5C 254.484,316.392 269.484,314.392 284.5,312.5C 296.066,311.563 307.399,309.896 318.5,307.5C 359.373,301.034 400.373,295.367 441.5,290.5C 447.425,290.224 453.092,289.224 458.5,287.5C 462.79,287.802 466.79,287.136 470.5,285.5C 488.107,282.844 505.774,280.511 523.5,278.5C 528.049,278.376 532.382,277.709 536.5,276.5C 543.147,276.669 549.48,275.669 555.5,273.5C 563.153,272.407 570.82,271.407 578.5,270.5C 587.822,270.455 596.822,269.121 605.5,266.5C 611.069,266.624 616.402,265.957 621.5,264.5C 632.758,262.584 644.091,260.917 655.5,259.5C 665.082,258.988 674.416,257.655 683.5,255.5C 683.833,255.5 684.167,255.5 684.5,255.5C 690.097,255.23 695.43,254.23 700.5,252.5C 708.822,251.418 717.155,250.418 725.5,249.5C 736.495,249.111 747.162,247.444 757.5,244.5C 772.49,242.39 787.49,240.39 802.5,238.5C 811.774,238.172 820.774,236.839 829.5,234.5C 879.073,227.037 928.74,220.037 978.5,213.5C 982.36,213.192 986.026,212.525 989.5,211.5C 1002.09,209.402 1014.76,207.736 1027.5,206.5C 1038.75,205.655 1049.75,203.989 1060.5,201.5C 1064.16,201.841 1067.49,201.175 1070.5,199.5C 1085.5,197.5 1100.5,195.5 1115.5,193.5C 1125.38,192.726 1135.04,191.392 1144.5,189.5C 1153.79,187.887 1163.12,186.554 1172.5,185.5C 1184.12,184.935 1195.46,183.269 1206.5,180.5C 1220.68,178.418 1235.01,176.418 1249.5,174.5C 1259.4,173.895 1269.07,172.561 1278.5,170.5C 1294.42,167.735 1310.42,165.402 1326.5,163.5C 1336.85,162.554 1347.18,161.387 1357.5,160C 1358.42,159.722 1359.08,159.222 1359.5,158.5C 1371.79,156.554 1384.12,154.888 1396.5,153.5C 1408.42,152.721 1420.09,151.054 1431.5,148.5C 1447.48,146.02 1463.48,143.687 1479.5,141.5C 1487.07,141.245 1494.4,140.245 1501.5,138.5C 1519.77,135.686 1538.1,133.02 1556.5,130.5C 1561.43,130.771 1566.1,130.104 1570.5,128.5C 1578.77,128.042 1586.77,126.709 1594.5,124.5C 1605.82,123.073 1617.16,121.739 1628.5,120.5C 1633.5,152.499 1638.5,184.499 1643.5,216.5 Z"/></g>
<g><path style="opacity:1" fill="#847f66" d="M 1594.5,124.5 C 1586.77,126.709 1578.77,128.042 1570.5,128.5C 1578.27,126.55 1586.27,125.217 1594.5,124.5 Z"/></g>
<g><path style="opacity:1" fill="#bab588" d="M 1570.5,128.5 C 1566.1,130.104 1561.43,130.771 1556.5,130.5C 1560.92,129.028 1565.59,128.362 1570.5,128.5 Z"/></g>
<g><path style="opacity:1" fill="#858274" d="M 1627.5,113.5 C 1630.14,112.021 1632.64,112.354 1635,114.5C 1637.84,132.505 1640.67,150.505 1643.5,168.5C 1643.78,174.105 1644.78,179.438 1646.5,184.5C 1648.6,195.753 1650.27,207.087 1651.5,218.5C 1651.34,221.518 1651.5,224.518 1652,227.5C 1652.28,228.416 1652.78,229.082 1653.5,229.5C 1660.5,274.2 1667.5,318.866 1674.5,363.5C 1675.29,369.13 1675.63,374.797 1675.5,380.5C 1660.87,293.397 1646.87,206.064 1633.5,118.5C 1633.41,116.667 1632.75,115.334 1631.5,114.5C 1630.17,114.167 1628.83,113.833 1627.5,113.5 Z"/></g>
<g><path style="opacity:1" fill="#afaa81" d="M 1501.5,138.5 C 1494.4,140.245 1487.07,141.245 1479.5,141.5C 1486.6,139.755 1493.93,138.755 1501.5,138.5 Z"/></g>
<g><path style="opacity:1" fill="#bfba8d" d="M 1431.5,148.5 C 1420.09,151.054 1408.42,152.721 1396.5,153.5C 1407.91,150.959 1419.58,149.292 1431.5,148.5 Z"/></g>
<g><path style="opacity:1" fill="#beb98b" d="M 1359.5,158.5 C 1359.08,159.222 1358.42,159.722 1357.5,160C 1347.18,161.387 1336.85,162.554 1326.5,163.5C 1337.26,161.097 1348.26,159.431 1359.5,158.5 Z"/></g>
<g><path style="opacity:1" fill="#c3bd8e" d="M 1278.5,170.5 C 1269.07,172.561 1259.4,173.895 1249.5,174.5C 1258.91,172.28 1268.58,170.947 1278.5,170.5 Z"/></g>
<g><path style="opacity:1" fill="#c3bd8e" d="M 1206.5,180.5 C 1195.46,183.269 1184.12,184.935 1172.5,185.5C 1183.6,183.105 1194.93,181.438 1206.5,180.5 Z"/></g>
<g><path style="opacity:1" fill="#c5bf9c" d="M 1643.5,168.5 C 1645.31,173.547 1646.31,178.88 1646.5,184.5C 1644.78,179.438 1643.78,174.105 1643.5,168.5 Z"/></g>
<g><path style="opacity:1" fill="#a4a07b" d="M 1144.5,189.5 C 1135.04,191.392 1125.38,192.726 1115.5,193.5C 1124.91,191.28 1134.58,189.947 1144.5,189.5 Z"/></g>
<g><path style="opacity:1" fill="#8f8b6c" d="M 1070.5,199.5 C 1067.49,201.175 1064.16,201.841 1060.5,201.5C 1063.63,200.419 1066.96,199.753 1070.5,199.5 Z"/></g>
<g><path style="opacity:1" fill="#cdc795" d="M 1060.5,201.5 C 1049.75,203.989 1038.75,205.655 1027.5,206.5C 1038.26,204.097 1049.26,202.43 1060.5,201.5 Z"/></g>
<g><path style="opacity:1" fill="#9e9977" d="M 989.5,211.5 C 986.026,212.525 982.36,213.192 978.5,213.5C 981.845,211.783 985.511,211.116 989.5,211.5 Z"/></g>
<g><path style="opacity:1" fill="#59564b" d="M 1544.5,125.5 C 1521.44,130.107 1498.11,133.94 1474.5,137C 1168.43,180.638 862.431,224.472 556.5,268.5C 558.948,266.716 561.615,265.383 564.5,264.5C 891.108,217.876 1217.78,171.543 1544.5,125.5 Z"/></g>
<g><path style="opacity:1" fill="#b3ae84" d="M 1643.5,216.5 C 1644.95,221.959 1645.95,227.626 1646.5,233.5C 1644.13,228.203 1643.13,222.537 1643.5,216.5 Z"/></g>
<g><path style="opacity:1" fill="#aaa88b" d="M 1651.5,218.5 C 1652.9,221.909 1653.57,225.575 1653.5,229.5C 1652.78,229.082 1652.28,228.416 1652,227.5C 1651.5,224.518 1651.34,221.518 1651.5,218.5 Z"/></g>
<g><path style="opacity:1" fill="#c4be8f" d="M 829.5,234.5 C 820.774,236.839 811.774,238.172 802.5,238.5C 811.289,236.607 820.289,235.273 829.5,234.5 Z"/></g>
<g><path style="opacity:1" fill="#7a745f" d="M 1646.5,236.5 C 1648.12,239.171 1648.78,242.171 1648.5,245.5C 1647.34,242.727 1646.68,239.727 1646.5,236.5 Z"/></g>
<g><path style="opacity:1" fill="#cac493" d="M 757.5,244.5 C 747.162,247.444 736.495,249.111 725.5,249.5C 735.938,247.206 746.604,245.539 757.5,244.5 Z"/></g>
<g><path style="opacity:1" fill="#9c9774" d="M 700.5,252.5 C 695.43,254.23 690.097,255.23 684.5,255.5C 689.547,253.694 694.88,252.694 700.5,252.5 Z"/></g>
<g><path style="opacity:1" fill="#bfba8b" d="M 683.5,255.5 C 674.416,257.655 665.082,258.988 655.5,259.5C 664.584,257.322 673.917,255.989 683.5,255.5 Z"/></g>
<g><path style="opacity:1" fill="#bcb689" d="M 621.5,264.5 C 616.402,265.957 611.069,266.624 605.5,266.5C 610.598,265.043 615.931,264.376 621.5,264.5 Z"/></g>
<g><path style="opacity:1" fill="#cec896" d="M 605.5,266.5 C 596.822,269.121 587.822,270.455 578.5,270.5C 587.259,268.431 596.259,267.098 605.5,266.5 Z"/></g>
<g><path style="opacity:1" fill="#68655a" d="M 564.5,264.5 C 561.615,265.383 558.948,266.716 556.5,268.5C 511.128,274.458 465.794,280.791 420.5,287.5C 419.609,286.89 418.609,286.557 417.5,286.5C 466.315,278.886 515.315,271.552 564.5,264.5 Z"/></g>
<g><path style="opacity:1" fill="#afaa82" d="M 555.5,273.5 C 549.48,275.669 543.147,276.669 536.5,276.5C 542.569,274.625 548.902,273.625 555.5,273.5 Z"/></g>
<g><path style="opacity:1" fill="#b0a982" d="M 536.5,276.5 C 532.382,277.709 528.049,278.376 523.5,278.5C 527.545,276.823 531.878,276.156 536.5,276.5 Z"/></g>
<g><path style="opacity:1" fill="#a29d79" d="M 470.5,285.5 C 466.79,287.136 462.79,287.802 458.5,287.5C 462.267,286.205 466.267,285.539 470.5,285.5 Z"/></g>
<g><path style="opacity:1" fill="#b2ad83" d="M 1653.5,279.5 C 1655.35,286.949 1656.69,294.615 1657.5,302.5C 1654.88,295.189 1653.55,287.522 1653.5,279.5 Z"/></g>
<g><path style="opacity:1" fill="#c1bb8d" d="M 458.5,287.5 C 453.092,289.224 447.425,290.224 441.5,290.5C 446.844,288.367 452.511,287.367 458.5,287.5 Z"/></g>
<g><path style="opacity:1" fill="#b5b086" d="M 318.5,307.5 C 307.399,309.896 296.066,311.563 284.5,312.5C 295.579,309.989 306.913,308.323 318.5,307.5 Z"/></g>
<g><path style="opacity:1" fill="#79765f" d="M 1657.5,304.5 C 1659.14,308.21 1659.8,312.21 1659.5,316.5C 1658.38,312.705 1657.72,308.705 1657.5,304.5 Z"/></g>
<g><path style="opacity:1" fill="#5c594d" d="M 417.5,286.5 C 418.609,286.557 419.609,286.89 420.5,287.5C 320.853,300.807 221.186,315.307 121.5,331C 113.193,332.164 104.86,332.997 96.5,333.5C 103.04,368.406 109.04,403.406 114.5,438.5C 107.897,407.729 101.731,376.729 96,345.5C 95.5931,342.318 95.0931,339.151 94.5,336C 94.4393,334.289 95.1059,332.956 96.5,332C 203.372,315.858 310.372,300.692 417.5,286.5 Z"/></g>
<g><path style="opacity:1" fill="#aaa57e" d="M 239.5,318.5 C 233.444,320.453 227.111,321.453 220.5,321.5C 226.603,319.864 232.936,318.864 239.5,318.5 Z"/></g>
<g><path style="opacity:1" fill="#a09b79" d="M 171.5,328.5 C 168.026,329.525 164.36,330.192 160.5,330.5C 163.845,328.783 167.511,328.116 171.5,328.5 Z"/></g>
<g><path style="opacity:1" fill="#cfca97" d="M 158.5,330.5 C 149.811,333.047 140.811,334.381 131.5,334.5C 140.262,332.431 149.262,331.098 158.5,330.5 Z"/></g>
<g><path style="opacity:1" fill="#736f5b" d="M 105.5,355.5 C 107.505,361.209 108.505,367.209 108.5,373.5C 106.495,367.791 105.495,361.791 105.5,355.5 Z"/></g>
<g><path style="opacity:1" fill="#9a9573" d="M 1666.5,359.5 C 1667.95,364.959 1668.95,370.626 1669.5,376.5C 1667.33,371.17 1666.33,365.503 1666.5,359.5 Z"/></g>
<g><path style="opacity:1" fill="#bbb589" d="M 1674.5,410.5 C 1675.95,415.959 1676.95,421.626 1677.5,427.5C 1675.33,422.17 1674.33,416.503 1674.5,410.5 Z"/></g>
<g><path style="opacity:1" fill="#7e7a62" d="M 116.5,415.5 C 118.129,420.591 119.129,425.924 119.5,431.5C 117.24,426.527 116.24,421.194 116.5,415.5 Z"/></g>
<g><path style="opacity:1" fill="#504c41" d="M 114.5,439.5 C 115.322,441.389 116.155,443.389 117,445.5C 118.836,457.846 120.669,470.18 122.5,482.5C 120.111,473.019 117.945,463.353 116,453.5C 115.335,448.844 114.835,444.177 114.5,439.5 Z"/></g>
<g><path style="opacity:1" fill="#dddbae" d="M 1694.5,482.5 C 1695.27,483.263 1695.77,484.263 1696,485.5C 1696.5,488.817 1696.67,492.15 1696.5,495.5C 1695.1,491.409 1694.44,487.076 1694.5,482.5 Z"/></g>
<g><path style="opacity:1" fill="#dedab0" d="M 1697.5,503.5 C 1700.02,508.073 1701.02,513.073 1700.5,518.5C 1699.14,513.696 1698.14,508.696 1697.5,503.5 Z"/></g>
<g><path style="opacity:1" fill="#64614f" d="M 136.5,526.5 C 138.054,530.567 138.72,534.9 138.5,539.5C 136.823,535.455 136.156,531.122 136.5,526.5 Z"/></g>
<g><path style="opacity:1" fill="#b1ac83" d="M 1696.5,545.5 C 1698.38,551.569 1699.38,557.902 1699.5,564.5C 1697.55,558.444 1696.55,552.111 1696.5,545.5 Z"/></g>
<g><path style="opacity:1" fill="#999688" d="M 1674.5,363.5 C 1676.49,371.996 1678.32,380.663 1680,389.5C 1684.12,420.602 1688.95,451.602 1694.5,482.5C 1694.44,487.076 1695.1,491.409 1696.5,495.5C 1697.27,498.096 1697.6,500.763 1697.5,503.5C 1698.14,508.696 1699.14,513.696 1700.5,518.5C 1705.56,545.891 1709.9,573.558 1713.5,601.5C 1714.01,607.709 1715.01,613.709 1716.5,619.5C 1719.34,633.091 1721.68,646.758 1723.5,660.5C 1723.83,668.473 1725.16,676.14 1727.5,683.5C 1734.17,724.167 1740.83,764.834 1747.5,805.5C 1746.78,805.082 1746.28,804.416 1746,803.5C 1745.72,804.416 1745.22,805.082 1744.5,805.5C 1720.76,663.944 1697.76,522.277 1675.5,380.5C 1675.63,374.797 1675.29,369.13 1674.5,363.5 Z"/></g>
<g><path style="opacity:1" fill="#a09b78" d="M 149.5,600.5 C 151.223,602.78 151.889,605.447 151.5,608.5C 150.232,606.095 149.565,603.428 149.5,600.5 Z"/></g>
<g><path style="opacity:1" fill="#d0cdab" d="M 1713.5,601.5 C 1714.22,601.918 1714.72,602.584 1715,603.5C 1715.83,608.808 1716.33,614.141 1716.5,619.5C 1715.01,613.709 1714.01,607.709 1713.5,601.5 Z"/></g>
<g><path style="opacity:1" fill="#8f896a" d="M 1708.5,620.5 C 1709.92,622.515 1710.59,624.848 1710.5,627.5C 1709.08,625.485 1708.41,623.152 1708.5,620.5 Z"/></g>
<g><path style="opacity:1" fill="#646050" d="M 157.5,643.5 C 159.054,647.567 159.72,651.9 159.5,656.5C 157.823,652.455 157.156,648.122 157.5,643.5 Z"/></g>
<g><path style="opacity:1" fill="#c6c3a7" d="M 1723.5,660.5 C 1725.32,667.953 1726.65,675.62 1727.5,683.5C 1725.16,676.14 1723.83,668.473 1723.5,660.5 Z"/></g>
<g><path style="opacity:1" fill="#535045" d="M 126.5,505.5 C 142.737,590.616 158.57,675.949 174,761.5C 183.68,820.25 194.013,878.916 205,937.5C 205.499,941.486 205.666,945.486 205.5,949.5C 200.084,923.026 194.917,896.36 190,869.5C 168.997,748.146 147.83,626.813 126.5,505.5 Z"/></g>
<g><path style="opacity:1" fill="#7e7a61" d="M 1731.5,757.5 C 1733.12,760.171 1733.78,763.171 1733.5,766.5C 1732.34,763.727 1731.68,760.727 1731.5,757.5 Z"/></g>
<g><path style="opacity:1" fill="#9d9876" d="M 1741.5,818.5 C 1743.04,820.838 1743.71,823.505 1743.5,826.5C 1742.23,824.095 1741.57,821.428 1741.5,818.5 Z"/></g>
<g><path style="opacity:1" fill="#76746b" d="M 1747.5,805.5 C 1749.11,814.791 1750.45,824.124 1751.5,833.5C 1751.67,834.492 1751.34,835.158 1750.5,835.5C 1748.5,825.5 1746.5,815.5 1744.5,805.5C 1745.22,805.082 1745.72,804.416 1746,803.5C 1746.28,804.416 1746.78,805.082 1747.5,805.5 Z"/></g>
<g><path style="opacity:1" fill="#a4a079" d="M 191.5,835.5 C 193.118,838.171 193.785,841.171 193.5,844.5C 192.343,841.727 191.676,838.727 191.5,835.5 Z"/></g>
<g><path style="opacity:1" fill="#b5b186" d="M 1749.5,862.5 C 1751.13,867.591 1752.13,872.924 1752.5,878.5C 1750.23,873.549 1749.23,868.216 1749.5,862.5 Z"/></g>
<g><path style="opacity:1" fill="#918d6f" d="M 1752.5,882.5 C 1754.73,886.787 1755.73,891.454 1755.5,896.5C 1754.22,892.015 1753.22,887.349 1752.5,882.5 Z"/></g>
<g><path style="opacity:1" fill="#848274" d="M 1751.5,833.5 C 1752.78,835.562 1753.61,837.896 1754,840.5C 1762.03,889.858 1770.19,939.191 1778.5,988.5C 1777.83,988.167 1777.17,987.833 1776.5,987.5C 1767.62,936.891 1758.95,886.225 1750.5,835.5C 1751.34,835.158 1751.67,834.492 1751.5,833.5 Z"/></g>
<g><path style="opacity:1" fill="#b6b085" d="M 1760.5,926.5 C 1762.5,932.209 1763.5,938.209 1763.5,944.5C 1761.5,938.791 1760.5,932.791 1760.5,926.5 Z"/></g>
<g><path style="opacity:1" fill="#6f6a58" d="M 211.5,948.5 C 213.054,952.567 213.72,956.9 213.5,961.5C 211.946,957.433 211.28,953.1 211.5,948.5 Z"/></g>
<g><path style="opacity:1" fill="#b1ac83" d="M 1771.5,988.5 C 1773.04,993.606 1774.04,998.939 1774.5,1004.5C 1772.24,999.527 1771.24,994.194 1771.5,988.5 Z"/></g>
<g><path style="opacity:1" fill="#afaa83" d="M 1774.5,1005.5 C 1775.78,1008.59 1776.45,1011.92 1776.5,1015.5C 1775.78,1015.08 1775.28,1014.42 1775,1013.5C 1774.5,1010.85 1774.34,1008.19 1774.5,1005.5 Z"/></g>
<g><path style="opacity:1" fill="#c1bb8d" d="M 1780.5,1039.5 C 1781.99,1043.94 1782.99,1048.61 1783.5,1053.5C 1781.93,1052.32 1781.1,1050.65 1781,1048.5C 1780.5,1045.52 1780.34,1042.52 1780.5,1039.5 Z"/></g>
<g><path style="opacity:1" fill="#9f9a78" d="M 1783.5,1054.5 C 1784.78,1057.59 1785.45,1060.92 1785.5,1064.5C 1784.78,1064.08 1784.28,1063.42 1784,1062.5C 1783.5,1059.85 1783.34,1057.19 1783.5,1054.5 Z"/></g>
<g><path style="opacity:1" fill="#a6a27c" d="M 235.5,1088.5 C 237.223,1090.78 237.889,1093.45 237.5,1096.5C 236.232,1094.09 235.565,1091.43 235.5,1088.5 Z"/></g>
<g><path style="opacity:1" fill="#737165" d="M 1776.5,987.5 C 1777.17,987.833 1777.83,988.167 1778.5,988.5C 1794.37,1076.2 1811.04,1163.87 1828.5,1251.5C 1827.83,1251.83 1827.17,1252.17 1826.5,1252.5C 1808.82,1164.41 1792.15,1076.08 1776.5,987.5 Z"/></g>
<g><path style="opacity:1" fill="#545145" d="M 205.5,949.5 C 211.537,982.034 217.704,1014.7 224,1047.5C 229.831,1081.81 235.331,1116.15 240.5,1150.5C 227.267,1083.89 215.6,1016.89 205.5,949.5 Z"/></g>
<g><path style="opacity:1" fill="#72705b" d="M 243.5,1132.5 C 244.972,1136.92 245.638,1141.59 245.5,1146.5C 244.028,1142.08 243.362,1137.41 243.5,1132.5 Z"/></g>
<g><path style="opacity:1" fill="#979272" d="M 1803.5,1163.5 C 1804.92,1165.51 1805.59,1167.85 1805.5,1170.5C 1804.08,1168.49 1803.41,1166.15 1803.5,1163.5 Z"/></g>
<g><path style="opacity:1" fill="#75735c" d="M 1806.5,1177.5 C 1808.12,1180.17 1808.78,1183.17 1808.5,1186.5C 1807.34,1183.73 1806.68,1180.73 1806.5,1177.5 Z"/></g>
<g><path style="opacity:1" fill="#f1df75" d="M 1308.5,1583.5 C 1307.21,1583.74 1306.21,1583.4 1305.5,1582.5C 1414.96,1516.54 1519.62,1443.71 1619.5,1364C 1653.83,1336.35 1686.33,1306.52 1717,1274.5C 1731.98,1258.52 1744.48,1240.85 1754.5,1221.5C 1775.74,1241.23 1796.57,1261.57 1817,1282.5C 1824.06,1290.29 1830.39,1298.63 1836,1307.5C 1839.42,1313.01 1839.09,1318.35 1835,1323.5C 1830.8,1328.03 1826.3,1332.2 1821.5,1336C 1805.44,1347.06 1789.1,1357.73 1772.5,1368C 1730.46,1391.51 1687.79,1413.85 1644.5,1435C 1534.19,1487.98 1422.19,1537.48 1308.5,1583.5 Z"/></g>
<g><path style="opacity:1" fill="#706b58" d="M 263.5,1250.5 C 265.563,1257.91 266.896,1265.58 267.5,1273.5C 264.906,1266.18 263.572,1258.51 263.5,1250.5 Z"/></g>
<g><path style="opacity:1" fill="#a59f7a" d="M 1824.5,1262.5 C 1825.77,1264.91 1826.43,1267.57 1826.5,1270.5C 1824.96,1268.16 1824.29,1265.5 1824.5,1262.5 Z"/></g>
<g><path style="opacity:1" fill="#5b5749" d="M 1828.5,1251.5 C 1831.68,1266.2 1835.51,1280.87 1840,1295.5C 1841.78,1301.07 1844.12,1306.4 1847,1311.5C 1847.5,1313.81 1847.66,1316.14 1847.5,1318.5C 1846.83,1318.83 1846.17,1319.17 1845.5,1319.5C 1846.39,1317.22 1846.56,1314.88 1846,1312.5C 1841.33,1305.48 1837.99,1297.81 1836,1289.5C 1833.29,1277.01 1830.13,1264.68 1826.5,1252.5C 1827.17,1252.17 1827.83,1251.83 1828.5,1251.5 Z"/></g>
<g><path style="opacity:1" fill="#575449" d="M 240.5,1150.5 C 245.977,1181.73 251.811,1213.06 258,1244.5C 268.457,1310.91 279.457,1377.24 291,1443.5C 291.499,1447.82 291.666,1452.15 291.5,1456.5C 273.029,1354.89 256.029,1252.89 240.5,1150.5 Z"/></g>
<g><path style="opacity:1" fill="#74715b" d="M 273.5,1310.5 C 275.795,1319.59 277.462,1328.93 278.5,1338.5C 275.774,1329.48 274.107,1320.15 273.5,1310.5 Z"/></g>
<g><path style="opacity:1" fill="#8d8763" d="M 1847.5,1318.5 C 1846.33,1323.83 1843.83,1328.5 1840,1332.5C 1836.04,1335.89 1831.87,1338.89 1827.5,1341.5C 1825.09,1342.4 1823.09,1343.9 1821.5,1346C 1817.11,1347.52 1813.45,1350.02 1810.5,1353.5C 1810.5,1354.17 1810.17,1354.5 1809.5,1354.5C 1805.83,1356 1802.49,1358 1799.5,1360.5C 1797.21,1362.65 1794.54,1364.32 1791.5,1365.5C 1790.17,1365.5 1788.83,1365.5 1787.5,1365.5C 1802.54,1355.98 1817.21,1345.81 1831.5,1335C 1836.77,1330.24 1841.44,1325.07 1845.5,1319.5C 1846.17,1319.17 1846.83,1318.83 1847.5,1318.5 Z"/></g>
<g><path style="opacity:1" fill="#c4b974" d="M 1827.5,1341.5 C 1823.44,1347.7 1817.78,1351.7 1810.5,1353.5C 1813.45,1350.02 1817.11,1347.52 1821.5,1346C 1823.09,1343.9 1825.09,1342.4 1827.5,1341.5 Z"/></g>
<g><path style="opacity:1" fill="#bfb36f" d="M 1809.5,1354.5 C 1806.84,1357.5 1803.51,1359.5 1799.5,1360.5C 1802.49,1358 1805.83,1356 1809.5,1354.5 Z"/></g>
<g><path style="opacity:1" fill="#716e58" d="M 285.5,1381.5 C 286.972,1385.92 287.638,1390.59 287.5,1395.5C 286.028,1391.08 285.362,1386.41 285.5,1381.5 Z"/></g>
<g><path style="opacity:1" fill="#7a734a" d="M 1787.5,1365.5 C 1788.83,1365.5 1790.17,1365.5 1791.5,1365.5C 1740.1,1396.7 1687.1,1425.04 1632.5,1450.5C 1632.5,1449.83 1632.5,1449.17 1632.5,1448.5C 1685.34,1422.99 1737,1395.33 1787.5,1365.5 Z"/></g>
<g><path style="opacity:1" fill="#686452" d="M 296.5,1449.5 C 298.02,1454.95 299.02,1460.61 299.5,1466.5C 297.126,1461.2 296.126,1455.54 296.5,1449.5 Z"/></g>
<g><path style="opacity:1" fill="#aaa47d" d="M 299.5,1469.5 C 301.163,1471.44 301.829,1473.77 301.5,1476.5C 300.076,1474.49 299.41,1472.15 299.5,1469.5 Z"/></g>
<g><path style="opacity:1" fill="#6f6842" d="M 1632.5,1448.5 C 1632.5,1449.17 1632.5,1449.83 1632.5,1450.5C 1555.2,1487.98 1476.87,1522.98 1397.5,1555.5C 1394.83,1556.17 1392.17,1556.83 1389.5,1557.5C 1471.43,1523.03 1552.43,1486.7 1632.5,1448.5 Z"/></g>
<g><path style="opacity:1" fill="#75725d" d="M 306.5,1510.5 C 308.043,1516.28 309.043,1522.28 309.5,1528.5C 307.238,1522.84 306.238,1516.84 306.5,1510.5 Z"/></g>
<g><path style="opacity:1" fill="#a99f5b" d="M 1305.5,1582.5 C 1306.21,1583.4 1307.21,1583.74 1308.5,1583.5C 1305.27,1584.77 1301.93,1586.11 1298.5,1587.5C 1297.3,1587.15 1297.3,1586.65 1298.5,1586C 1300.89,1584.81 1303.22,1583.64 1305.5,1582.5 Z"/></g>
<g><path style="opacity:1" fill="#807c64" d="M 1397.5,1555.5 C 1395.9,1556.64 1394.23,1557.81 1392.5,1559C 1354.56,1574.14 1316.56,1588.98 1278.5,1603.5C 1267.84,1606.72 1257.5,1610.72 1247.5,1615.5C 1247.39,1616.12 1247.06,1616.62 1246.5,1617C 1231.29,1622.21 1216.29,1627.88 1201.5,1634C 1199.87,1634.49 1198.2,1634.66 1196.5,1634.5C 1193.31,1635.76 1189.97,1636.42 1186.5,1636.5C 1254.21,1610.49 1321.88,1584.15 1389.5,1557.5C 1392.17,1556.83 1394.83,1556.17 1397.5,1555.5 Z"/></g>
<g><path style="opacity:1" fill="#a8a37c" d="M 319.5,1595.5 C 321.223,1597.78 321.889,1600.45 321.5,1603.5C 320.232,1601.09 319.565,1598.43 319.5,1595.5 Z"/></g>
<g><path style="opacity:1" fill="#59564a" d="M 291.5,1456.5 C 293.835,1468.72 296.335,1481.06 299,1493.5C 301.549,1516.68 305.216,1539.68 310,1562.5C 316.015,1601.44 321.515,1640.44 326.5,1679.5C 323.853,1668.39 321.686,1657.06 320,1645.5C 310.497,1582.48 300.997,1519.48 291.5,1456.5 Z"/></g>
<g><path style="opacity:1" fill="#b4af8a" d="M 1278.5,1603.5 C 1277.94,1604.79 1276.94,1605.62 1275.5,1606C 1268.77,1608.67 1262.1,1611.34 1255.5,1614C 1252.88,1614.82 1250.22,1615.32 1247.5,1615.5C 1257.5,1610.72 1267.84,1606.72 1278.5,1603.5 Z"/></g>
<g><path style="opacity:1" fill="#b3af89" d="M 1196.5,1634.5 C 1191.28,1636.99 1185.95,1639.49 1180.5,1642C 1174.89,1643.79 1169.22,1645.29 1163.5,1646.5C 1171.2,1643.16 1178.87,1639.83 1186.5,1636.5C 1189.97,1636.42 1193.31,1635.76 1196.5,1634.5 Z"/></g>
<g><path style="opacity:1" fill="#73705c" d="M 327.5,1645.5 C 329.322,1652.25 330.322,1659.25 330.5,1666.5C 328.547,1659.77 327.547,1652.77 327.5,1645.5 Z"/></g>
<g><path style="opacity:1" fill="#bab48b" d="M 1155.5,1649.5 C 1153.62,1650.21 1151.96,1651.37 1150.5,1653C 1148.19,1653.5 1145.86,1653.66 1143.5,1653.5C 1147.06,1651.06 1151.06,1649.73 1155.5,1649.5 Z"/></g>
<g><path style="opacity:1" fill="#aba681" d="M 1143.5,1653.5 C 1135.58,1657.48 1127.24,1660.48 1118.5,1662.5C 1118.61,1661.88 1118.94,1661.38 1119.5,1661C 1127.57,1658.59 1135.57,1656.09 1143.5,1653.5 Z"/></g>
<g><path style="opacity:1" fill="#6b6956" d="M 984.5,1700.5 C 980.498,1702.61 976.165,1703.94 971.5,1704.5C 975.502,1702.39 979.835,1701.06 984.5,1700.5 Z"/></g>
<g><path style="opacity:1" fill="#79755f" d="M 337.5,1713.5 C 339.322,1720.25 340.322,1727.25 340.5,1734.5C 338.765,1727.74 337.765,1720.74 337.5,1713.5 Z"/></g>
<g><path style="opacity:1" fill="#7c775e" d="M 1186.5,1636.5 C 1178.87,1639.83 1171.2,1643.16 1163.5,1646.5C 1161.32,1648.58 1158.65,1649.58 1155.5,1649.5C 1151.06,1649.73 1147.06,1651.06 1143.5,1653.5C 1135.57,1656.09 1127.57,1658.59 1119.5,1661C 1118.94,1661.38 1118.61,1661.88 1118.5,1662.5C 1032.84,1693.05 946.176,1721.05 858.5,1746.5C 860.5,1745.5 862.5,1744.5 864.5,1743.5C 972.732,1710.28 1080.06,1674.62 1186.5,1636.5 Z"/></g>
<g><path style="opacity:1" fill="#636051" d="M 884.5,1731.5 C 878.915,1734.47 872.915,1736.47 866.5,1737.5C 872.216,1734.93 878.216,1732.93 884.5,1731.5 Z"/></g>
<g><path style="opacity:1" fill="#6d6a58" d="M 340.5,1734.5 C 341.563,1738.64 342.23,1742.97 342.5,1747.5C 341.732,1746.74 341.232,1745.74 341,1744.5C 340.502,1741.18 340.335,1737.85 340.5,1734.5 Z"/></g>
<g><path style="opacity:1" fill="#626051" d="M 845.5,1743.5 C 840.5,1745.94 835.166,1747.61 829.5,1748.5C 834.5,1746.06 839.834,1744.39 845.5,1743.5 Z"/></g>
<g><path style="opacity:1" fill="#524f48" d="M 326.5,1679.5 C 331.109,1697.77 333.942,1716.43 335,1735.5C 338.818,1757.08 341.985,1778.74 344.5,1800.5C 342.926,1793.48 341.259,1786.48 339.5,1779.5C 335.181,1746.28 330.847,1712.95 326.5,1679.5 Z"/></g>
<g><path style="opacity:1" fill="#75735c" d="M 811.5,1753.5 C 809.485,1754.92 807.152,1755.59 804.5,1755.5C 806.515,1754.08 808.848,1753.41 811.5,1753.5 Z"/></g>
<g><path style="opacity:1" fill="#625f54" d="M 339.5,1779.5 C 341.259,1786.48 342.926,1793.48 344.5,1800.5C 347.162,1822.8 349.496,1845.14 351.5,1867.5C 350.833,1866.5 350.167,1865.5 349.5,1864.5C 346.174,1836.21 342.841,1807.88 339.5,1779.5 Z"/></g>
<g><path style="opacity:1" fill="#7f7c62" d="M 695.5,1785.5 C 693.485,1786.92 691.152,1787.59 688.5,1787.5C 690.515,1786.08 692.848,1785.41 695.5,1785.5 Z"/></g>
<g><path style="opacity:1" fill="#706d59" d="M 347.5,1786.5 C 348.889,1791.27 349.556,1796.27 349.5,1801.5C 348.111,1796.73 347.444,1791.73 347.5,1786.5 Z"/></g>
<g><path style="opacity:1" fill="#736e50" d="M 864.5,1743.5 C 862.5,1744.5 860.5,1745.5 858.5,1746.5C 742.243,1781.98 624.576,1812.65 505.5,1838.5C 503.5,1838.5 501.5,1838.5 499.5,1838.5C 502.647,1837.95 505.647,1836.95 508.5,1835.5C 519.443,1833.95 530.109,1831.62 540.5,1828.5C 552.143,1826.97 563.476,1824.31 574.5,1820.5C 603.185,1814.48 631.519,1807.48 659.5,1799.5C 671.925,1797.14 684.259,1794.31 696.5,1791C 752.605,1775.44 808.605,1759.61 864.5,1743.5 Z"/></g>
<g><path style="opacity:1" fill="#25221b" d="M 659.5,1799.5 C 631.519,1807.48 603.185,1814.48 574.5,1820.5C 575.749,1818.86 577.416,1817.7 579.5,1817C 583.195,1816.68 586.862,1816.18 590.5,1815.5C 595.149,1813.03 600.149,1811.86 605.5,1812C 613.183,1809.67 620.85,1807.33 628.5,1805C 638.705,1802.76 649.038,1800.93 659.5,1799.5 Z"/></g>
<g><path style="opacity:1" fill="#2a2720" d="M 574.5,1820.5 C 563.476,1824.31 552.143,1826.97 540.5,1828.5C 542.221,1826.31 544.555,1825.14 547.5,1825C 556.365,1822.91 565.365,1821.41 574.5,1820.5 Z"/></g>
<g><path style="opacity:1" fill="#a29c79" d="M 351.5,1817.5 C 352.889,1822.27 353.556,1827.27 353.5,1832.5C 351.969,1827.75 351.302,1822.75 351.5,1817.5 Z"/></g>
<g><path style="opacity:1" fill="#716c59" d="M 525.5,1827.5 C 521.816,1829.23 517.816,1830.23 513.5,1830.5C 517.159,1828.66 521.159,1827.66 525.5,1827.5 Z"/></g>
<g><path style="opacity:1" fill="#23201a" d="M 540.5,1828.5 C 530.109,1831.62 519.443,1833.95 508.5,1835.5C 510.741,1834.38 513.075,1833.21 515.5,1832C 519.719,1831.83 523.719,1830.83 527.5,1829C 531.877,1827.91 536.21,1827.75 540.5,1828.5 Z"/></g>
<g><path style="opacity:1" fill="#837e56" d="M 499.5,1838.5 C 501.5,1838.5 503.5,1838.5 505.5,1838.5C 471.357,1846.28 437.024,1853.62 402.5,1860.5C 404.5,1859.5 406.5,1858.5 408.5,1857.5C 438.818,1851 469.151,1844.67 499.5,1838.5 Z"/></g>
<g><path style="opacity:1" fill="#242018" d="M 508.5,1835.5 C 505.647,1836.95 502.647,1837.95 499.5,1838.5C 469.151,1844.67 438.818,1851 408.5,1857.5C 404.015,1858.34 399.681,1859.34 395.5,1860.5C 394.833,1860.5 394.167,1860.5 393.5,1860.5C 379.837,1863.17 366.17,1865.83 352.5,1868.5C 356.339,1866.04 360.673,1864.2 365.5,1863C 375.617,1861.94 385.617,1860.27 395.5,1858C 397.093,1857.05 398.426,1855.88 399.5,1854.5C 400.167,1854.5 400.833,1854.5 401.5,1854.5C 405.112,1855.51 408.779,1855.68 412.5,1855C 418.29,1852.72 424.29,1851.39 430.5,1851C 432.785,1849.01 435.285,1848.51 438,1849.5C 442.304,1847.48 446.804,1846.14 451.5,1845.5C 452.167,1845.83 452.833,1846.17 453.5,1846.5C 460.294,1844.19 467.294,1842.85 474.5,1842.5C 485.632,1839.41 496.966,1837.07 508.5,1835.5 Z"/></g>
<g><path style="opacity:1" fill="#736d4b" d="M 408.5,1857.5 C 406.5,1858.5 404.5,1859.5 402.5,1860.5C 401.833,1860.5 401.167,1860.5 400.5,1860.5C 398.833,1860.5 397.167,1860.5 395.5,1860.5C 399.681,1859.34 404.015,1858.34 408.5,1857.5 Z"/></g>
<g><path style="opacity:1" fill="#aaa374" d="M 393.5,1860.5 C 394.167,1860.5 394.833,1860.5 395.5,1860.5C 397.167,1860.5 398.833,1860.5 400.5,1860.5C 395.164,1862.75 389.497,1864.08 383.5,1864.5C 383.611,1863.88 383.944,1863.38 384.5,1863C 387.851,1862.94 390.851,1862.11 393.5,1860.5 Z"/></g>
<g><path style="opacity:1" fill="#6f6a4c" d="M 393.5,1860.5 C 390.851,1862.11 387.851,1862.94 384.5,1863C 383.944,1863.38 383.611,1863.88 383.5,1864.5C 373.765,1866.87 363.932,1868.87 354,1870.5C 350.438,1870.1 348.938,1868.1 349.5,1864.5C 350.167,1865.5 350.833,1866.5 351.5,1867.5C 351.5,1868.17 351.833,1868.5 352.5,1868.5C 366.17,1865.83 379.837,1863.17 393.5,1860.5 Z"/></g>
</svg>
