<?xml version="1.0" encoding="UTF-8"?>
<!DOCTYPE svg PUBLIC "-//W3C//DTD SVG 1.1//EN" "http://www.w3.org/Graphics/SVG/1.1/DTD/svg11.dtd">
<svg xmlns="http://www.w3.org/2000/svg" version="1.1" width="2000px" height="2000px" style="shape-rendering:geometricPrecision; text-rendering:geometricPrecision; image-rendering:optimizeQuality; fill-rule:evenodd; clip-rule:evenodd" xmlns:xlink="http://www.w3.org/1999/xlink">
<g><path style="opacity:1" fill="#50372b" d="M 942.5,169.5 C 962.782,173.07 982.782,177.904 1002.5,184C 1092.97,213.07 1180.3,249.57 1264.5,293.5C 1263.4,294.397 1263.4,295.23 1264.5,296C 1370.05,349.574 1469.72,411.907 1563.5,483C 1572.83,491 1582.17,499 1591.5,507C 1592.17,507.667 1592.83,507.667 1593.5,507C 1592.62,506.292 1591.95,505.458 1591.5,504.5C 1594.09,505.419 1596.09,507.086 1597.5,509.5C 1596.76,509.369 1596.09,509.536 1595.5,510C 1613.1,525.763 1629.43,542.596 1644.5,560.5C 1652.68,572.862 1659.85,585.862 1666,599.5C 1666.28,598.584 1666.78,597.918 1667.5,597.5C 1667.84,601.115 1667.18,604.448 1665.5,607.5C 1665.12,608.133 1664.79,608.8 1664.5,609.5C 1662.59,608.652 1660.59,608.318 1658.5,608.5C 1658.66,609.873 1658.49,611.207 1658,612.5C 1648.51,619.924 1637.68,624.091 1625.5,625C 1609.43,625.382 1593.43,625.549 1577.5,625.5C 1571.8,624.053 1566.14,623.053 1560.5,622.5C 1559.45,622.68 1558.45,623.013 1557.5,623.5C 1553.16,621.798 1548.66,620.465 1544,619.5C 1541.33,620.786 1539.49,620.286 1538.5,618C 1527.52,615.672 1516.69,612.839 1506,609.5C 1505.23,609.645 1504.56,609.978 1504,610.5C 1498.18,607.106 1492.01,604.272 1485.5,602C 1466.92,597.029 1448.92,590.696 1431.5,583C 1414.69,578.373 1398.19,572.873 1382,566.5C 1381.13,566.735 1380.29,567.069 1379.5,567.5C 1377.98,565.379 1375.98,563.879 1373.5,563C 1364.38,560.144 1355.38,556.978 1346.5,553.5C 1345.2,554.09 1344.37,555.09 1344,556.5C 1343.78,555.062 1343.28,553.729 1342.5,552.5C 1338.46,549.867 1334.12,547.7 1329.5,546C 1294.4,531.996 1259.4,518.163 1224.5,504.5C 1212.8,499.367 1200.47,494.533 1187.5,490C 1153.89,472.031 1119.89,455.031 1085.5,439C 1070.75,430.116 1055.75,421.449 1040.5,413C 1039.55,412.383 1038.72,412.549 1038,413.5C 1033.53,409.375 1028.69,405.541 1023.5,402C 978.697,375.812 936.531,347.312 897,316.5C 894.167,315 892,312.833 890.5,310C 874.454,297.275 858.454,284.608 842.5,272C 832.556,263.052 823.056,253.886 814,244.5C 808.587,236.683 803.92,228.35 800,219.5C 797.141,212.161 797.308,204.828 800.5,197.5C 800.058,196.261 799.391,195.261 798.5,194.5C 804.453,188.418 811.453,183.585 819.5,180C 844.288,171.713 869.788,167.88 896,168.5C 912.551,168.984 929.051,169.817 945.5,171C 944.263,170.768 943.263,170.268 942.5,169.5 Z"/></g>
<g><path style="opacity:1" fill="#5c453a" d="M 942.5,169.5 C 943.263,170.268 944.263,170.768 945.5,171C 929.051,169.817 912.551,168.984 896,168.5C 869.788,167.88 844.288,171.713 819.5,180C 811.453,183.585 804.453,188.418 798.5,194.5C 798.5,193.833 798.5,193.167 798.5,192.5C 804.288,185.223 811.621,180.056 820.5,177C 845.364,169.038 870.864,165.538 897,166.5C 912.291,166.464 927.457,167.464 942.5,169.5 Z"/></g>
<g><path style="opacity:1" fill="#eceaea" d="M 897.5,183.5 C 908.505,183.333 919.505,183.5 930.5,184C 934.02,184.673 937.353,185.84 940.5,187.5C 939.667,187.833 938.833,188.167 938,188.5C 927.441,189.317 916.941,189.65 906.5,189.5C 904.5,189.333 902.5,189.167 900.5,189C 900,188.5 899.5,188 899,187.5C 888.757,189.643 878.257,191.143 867.5,192C 858.36,193.872 849.36,196.539 840.5,200C 831.564,204.038 828.064,210.871 830,220.5C 833.475,230.617 839.309,239.117 847.5,246C 853.519,251.004 859.853,255.504 866.5,259.5C 865.277,260.614 863.944,260.781 862.5,260C 846.803,252.971 834.97,241.805 827,226.5C 821.712,214.497 824.212,204.663 834.5,197C 843.09,192.803 852.09,189.803 861.5,188C 873.595,186.055 885.595,184.555 897.5,183.5 Z"/></g>
<g><path style="opacity:1" fill="#51382b" d="M 792.5,199.5 C 793.178,202.327 792.844,205.161 791.5,208C 792.259,212.471 793.092,216.971 794,221.5C 803.79,240.546 816.624,257.379 832.5,272C 847.167,284.667 861.833,297.333 876.5,310C 882.033,312.934 887.033,316.6 891.5,321C 895.459,320.651 898.126,322.317 899.5,326C 941.793,357.952 985.459,387.952 1030.5,416C 1075.95,439.396 1121.28,463.396 1166.5,488C 1172.64,489.45 1178.31,491.95 1183.5,495.5C 1185.1,494.515 1186.76,494.349 1188.5,495C 1191.53,497.516 1194.87,499.516 1198.5,501C 1240.12,516.432 1281.12,533.432 1321.5,552C 1327.01,553.614 1332.34,555.614 1337.5,558C 1339.57,558.687 1341.57,558.52 1343.5,557.5C 1347.15,560.326 1351.15,562.493 1355.5,564C 1402.95,580.816 1450.29,597.816 1497.5,615C 1499.98,615.68 1501.81,614.847 1503,612.5C 1503.83,614 1505,615.167 1506.5,616C 1548.41,629.78 1591.41,635.114 1635.5,632C 1639.88,630.822 1644.21,629.488 1648.5,628C 1653.23,625.643 1657.57,622.81 1661.5,619.5C 1658.56,628.042 1655.06,636.375 1651,644.5C 1647.16,652.045 1647.16,659.379 1651,666.5C 1659.38,674.378 1665.55,683.711 1669.5,694.5C 1669.2,695.15 1668.86,695.817 1668.5,696.5C 1678.2,719.233 1681.7,742.9 1679,767.5C 1679.33,766.167 1679.67,764.833 1680,763.5C 1680.46,764.094 1680.63,764.761 1680.5,765.5C 1675.84,787.492 1666.84,807.492 1653.5,825.5C 1652.78,825.082 1652.28,824.416 1652,823.5C 1634.79,847.041 1612.62,864.208 1585.5,875C 1586.42,875.278 1587.08,875.778 1587.5,876.5C 1579.17,878.964 1570.83,881.297 1562.5,883.5C 1516.28,884.421 1470.62,879.587 1425.5,869C 1354.66,851.833 1285.33,829.833 1217.5,803C 1083.73,750.781 955.73,687.447 833.5,613C 783.98,582.233 737.313,547.566 693.5,509C 676.346,491.711 660.679,473.544 646.5,454.5C 623.359,413.124 620.359,370.458 637.5,326.5C 638.222,326.918 638.722,327.584 639,328.5C 646.336,311.987 656.503,297.487 669.5,285C 668.423,284.53 667.423,284.697 666.5,285.5C 684.769,266.695 707.102,255.195 733.5,251C 741.5,250.667 749.5,250.333 757.5,250C 762.525,248.311 766.359,245.144 769,240.5C 775.357,225.76 783.191,212.093 792.5,199.5 Z M 728.5,359.5 C 730.199,359.34 731.866,359.506 733.5,360C 730.694,360.605 728.36,361.938 726.5,364C 724.337,365.48 722.337,365.48 720.5,364C 723.633,363.14 726.3,361.64 728.5,359.5 Z M 719.5,367.5 C 717.598,369.151 715.598,369.484 713.5,368.5C 715.32,366.539 717.32,366.206 719.5,367.5 Z M 707.5,371.5 C 710.001,371.511 710.168,372.178 708,373.5C 707.536,372.906 707.369,372.239 707.5,371.5 Z"/></g>
<g><path style="opacity:1" fill="#201a19" d="M 931.5,211.5 C 951.836,211.333 972.169,211.5 992.5,212C 998.803,213.186 1005.14,214.186 1011.5,215C 1013.62,215.635 1015.62,216.469 1017.5,217.5C 1019.8,216.604 1022.13,216.438 1024.5,217C 1032.54,219.122 1040.54,221.456 1048.5,224C 1101.32,244.582 1153.65,265.248 1205.5,286C 1248.51,309.001 1291.51,331.668 1334.5,354C 1335.83,355.333 1337.17,356.667 1338.5,358C 1340.92,357.012 1343.25,357.345 1345.5,359C 1363.98,369.074 1381.65,380.407 1398.5,393C 1439.59,417.792 1479.26,444.459 1517.5,473C 1534.7,488.532 1550.87,505.032 1566,522.5C 1569.85,528.21 1573.19,534.21 1576,540.5C 1579.48,550.092 1577.31,557.926 1569.5,564C 1561.08,568.151 1552.24,569.651 1543,568.5C 1540.91,569.398 1538.74,570.065 1536.5,570.5C 1527.52,569.783 1518.52,569.283 1509.5,569C 1506.47,568.461 1503.47,567.794 1500.5,567C 1464.5,556.423 1428.83,545.089 1393.5,533C 1386.29,530.282 1379.29,527.116 1372.5,523.5C 1370.57,524.52 1368.57,524.687 1366.5,524C 1362.2,521.421 1357.54,519.755 1352.5,519C 1303.62,496.871 1254.29,476.538 1204.5,458C 1196.75,454.861 1189.08,451.528 1181.5,448C 1146.39,428.447 1111.06,409.447 1075.5,391C 1068.06,386.555 1060.89,381.722 1054,376.5C 1052.61,377.554 1051.11,377.72 1049.5,377C 1043.83,372.831 1037.83,369.165 1031.5,366C 997.155,339.835 962.488,314.168 927.5,289C 921.238,284.575 916.238,279.075 912.5,272.5C 911.232,273.428 909.899,273.595 908.5,273C 902.559,266.392 897.392,259.225 893,251.5C 886.58,235.421 891.413,224.254 907.5,218C 915.471,215.281 923.471,213.114 931.5,211.5 Z"/></g>
<g><path style="opacity:1" fill="#50372a" d="M 959.5,215.5 C 961.366,216.014 963.2,216.68 965,217.5C 969.812,217.563 974.646,217.23 979.5,216.5C 991.574,218.034 1003.57,220.034 1015.5,222.5C 1016.09,222.291 1016.59,221.957 1017,221.5C 1050.11,232.538 1082.95,244.372 1115.5,257C 1116.78,257.684 1117.95,257.517 1119,256.5C 1127.06,260.694 1135.39,264.36 1144,267.5C 1144.41,267.043 1144.91,266.709 1145.5,266.5C 1146.42,268.98 1147.92,269.647 1150,268.5C 1150.37,269.416 1150.87,270.25 1151.5,271C 1161.64,274.699 1171.64,278.699 1181.5,283C 1221.64,303.57 1261.64,323.737 1301.5,343.5C 1302.09,343.291 1302.59,342.957 1303,342.5C 1303.47,343.931 1304.3,345.097 1305.5,346C 1322.6,354.13 1338.94,363.463 1354.5,374C 1400.09,400.775 1443.93,428.608 1486,457.5C 1497.33,467.098 1508.83,476.598 1520.5,486C 1532.36,497.195 1544.19,508.361 1556,519.5C 1557.51,522.006 1559.01,524.506 1560.5,527C 1561.45,527.483 1562.45,527.649 1563.5,527.5C 1565.81,532.152 1568.14,536.819 1570.5,541.5C 1571.32,544.447 1571.82,547.447 1572,550.5C 1572.5,551 1573,551.5 1573.5,552C 1566.34,559.29 1557.5,563.124 1547,563.5C 1545.5,563.167 1544,562.833 1542.5,562.5C 1548.91,554.596 1550.07,545.929 1546,536.5C 1535.88,522.051 1524.71,508.551 1512.5,496C 1483.3,475.517 1452.96,456.517 1421.5,439C 1416.83,435.667 1412.17,432.333 1407.5,429C 1357.79,401.312 1307.46,376.312 1256.5,354C 1250.19,349.84 1243.52,346.173 1236.5,343C 1208.45,330.238 1180.45,317.571 1152.5,305C 1151.22,304.316 1150.05,304.483 1149,305.5C 1140.1,300.924 1131.1,296.59 1122,292.5C 1109.02,287.454 1095.85,281.788 1082.5,275.5C 1081.91,275.709 1081.41,276.043 1081,276.5C 1075.81,273.013 1070.31,269.846 1064.5,267C 1050.7,261.598 1037.03,255.931 1023.5,250C 1007.44,244.476 991.108,239.81 974.5,236C 962.416,233.542 950.416,233.542 938.5,236C 937.874,236.75 937.374,237.584 937,238.5C 935.612,237.446 934.112,237.28 932.5,238C 921.078,244.105 914.244,253.605 912,266.5C 907.163,259.496 902.829,252.163 899,244.5C 896.463,236.198 898.963,230.032 906.5,226C 910.934,224.617 915.268,222.95 919.5,221C 932.918,218.711 946.252,216.878 959.5,215.5 Z"/></g>
<g><path style="opacity:1" fill="#50382b" d="M 945.5,239.5 C 952.175,239.334 958.842,239.5 965.5,240C 985.859,245.092 1005.86,251.425 1025.5,259C 1041.3,266.567 1057.3,273.567 1073.5,280C 1075.44,280.743 1077.27,280.576 1079,279.5C 1094.36,288.428 1110.52,295.594 1127.5,301C 1145.93,309.882 1164.6,318.216 1183.5,326C 1205.46,337.816 1227.8,348.816 1250.5,359C 1252.37,359.711 1253.87,359.211 1255,357.5C 1270.5,367.564 1287,375.731 1304.5,382C 1320.65,390.574 1336.98,398.907 1353.5,407C 1376.47,421.131 1399.8,434.631 1423.5,447.5C 1424.48,447.023 1425.31,446.357 1426,445.5C 1427.17,447 1428.33,448.5 1429.5,450C 1442.67,458.757 1456.34,466.757 1470.5,474C 1482.18,481.508 1493.52,489.508 1504.5,498C 1518.04,510.609 1529.54,524.775 1539,540.5C 1541.56,549.318 1539.06,556.152 1531.5,561C 1522.8,561.645 1514.13,561.312 1505.5,560C 1437.82,543.205 1371.82,520.205 1307.5,491C 1293.17,486.002 1278.84,481.002 1264.5,476C 1262.86,473.661 1260.86,472.828 1258.5,473.5C 1242.28,465.696 1225.28,458.53 1207.5,452C 1178.9,437.703 1150.57,423.036 1122.5,408C 1115.85,405.343 1109.52,402.177 1103.5,398.5C 1099.53,396.516 1095.53,394.516 1091.5,392.5C 1078.78,384.945 1065.45,377.445 1051.5,370C 1048.02,366.761 1044.35,363.761 1040.5,361C 1016.55,345.871 993.549,329.538 971.5,312C 970.167,311.667 968.833,311.333 967.5,311C 950.873,298.751 934.373,285.918 918,272.5C 917.73,266.456 919.063,260.789 922,255.5C 928.471,247.811 936.305,242.478 945.5,239.5 Z"/></g>
<g><path style="opacity:1" fill="#6e594f" d="M 637.5,326.5 C 642.905,309.771 652.572,296.104 666.5,285.5C 667.423,284.697 668.423,284.53 669.5,285C 656.503,297.487 646.336,311.987 639,328.5C 638.722,327.584 638.222,326.918 637.5,326.5 Z"/></g>
<g><path style="opacity:1" fill="#5b443a" d="M 1264.5,293.5 C 1372.03,347.731 1473.37,411.231 1568.5,484C 1576.62,490.381 1584.28,497.215 1591.5,504.5C 1591.95,505.458 1592.62,506.292 1593.5,507C 1592.83,507.667 1592.17,507.667 1591.5,507C 1582.17,499 1572.83,491 1563.5,483C 1469.72,411.907 1370.05,349.574 1264.5,296C 1263.4,295.23 1263.4,294.397 1264.5,293.5 Z"/></g>
<g><path style="opacity:1" fill="#43291d" d="M 719.5,367.5 C 717.32,366.206 715.32,366.539 713.5,368.5C 711.452,369.456 709.452,370.456 707.5,371.5C 705.77,372.026 704.436,373.026 703.5,374.5C 701.158,374.225 701.158,373.392 703.5,372C 711.707,365.394 720.707,360.06 730.5,356C 736.832,355.368 738.166,355.535 734.5,356.5C 734.238,357.978 734.571,359.311 735.5,360.5C 738.849,359.17 739.182,359.67 736.5,362C 731.887,365.387 726.721,367.554 721,368.5C 720.235,368.43 719.735,368.097 719.5,367.5 Z M 728.5,359.5 C 726.3,361.64 723.633,363.14 720.5,364C 722.337,365.48 724.337,365.48 726.5,364C 728.36,361.938 730.694,360.605 733.5,360C 731.866,359.506 730.199,359.34 728.5,359.5 Z"/></g>
<g><path style="opacity:1" fill="#211a1a" d="M 761.5,258.5 C 762.822,258.33 763.989,258.663 765,259.5C 765.325,261.553 764.991,263.553 764,265.5C 758.602,275.801 753.102,285.967 747.5,296C 747.957,296.414 748.291,296.914 748.5,297.5C 747.833,300.5 747.167,303.5 746.5,306.5C 748.111,309.22 748.944,312.22 749,315.5C 750.583,317.911 751.583,320.578 752,323.5C 771.312,350.812 794.812,374.312 822.5,394C 823.743,395.154 824.743,396.488 825.5,398C 850.315,414.52 875.315,430.52 900.5,446C 923.6,459.388 946.6,473.055 969.5,487C 987.551,499.268 1006.55,510.602 1026.5,521C 1046.61,533.048 1067.27,544.381 1088.5,555C 1108.07,567.187 1127.74,579.187 1147.5,591C 1165.98,600.057 1183.65,609.724 1200.5,620C 1205.21,621.695 1209.88,623.362 1214.5,625C 1257.53,646.961 1302.53,664.127 1349.5,676.5C 1351.58,676.686 1353.08,677.686 1354,679.5C 1354.56,678.978 1355.23,678.645 1356,678.5C 1399.62,688.474 1443.12,698.974 1486.5,710C 1501.06,712.982 1515.73,715.315 1530.5,717C 1532.85,719.439 1535.69,719.939 1539,718.5C 1547.15,719.676 1555.49,721.009 1564,722.5C 1569.25,722.029 1574.59,722.029 1580,722.5C 1590.6,722.892 1600.77,721.058 1610.5,717C 1612.67,714.833 1614.83,712.667 1617,710.5C 1623,697.833 1629,685.167 1635,672.5C 1636.65,669.483 1638.65,666.816 1641,664.5C 1642.96,665.292 1644.46,666.625 1645.5,668.5C 1638.82,684.191 1631.32,699.525 1623,714.5C 1616.83,721.789 1609,726.289 1599.5,728C 1593.21,728.971 1586.87,729.471 1580.5,729.5C 1559.56,726.758 1538.56,724.258 1517.5,722C 1509,721 1500.83,718.834 1493,715.5C 1491.87,716.944 1490.37,717.61 1488.5,717.5C 1480.65,715.28 1472.65,713.78 1464.5,713C 1417.99,700.701 1371.49,688.534 1325,676.5C 1321.17,675.13 1317.5,673.464 1314,671.5C 1311.88,672.459 1309.71,672.626 1307.5,672C 1299.13,669.49 1290.8,666.823 1282.5,664C 1242.07,646.283 1202.4,627.283 1163.5,607C 1157.78,603.814 1152.45,600.148 1147.5,596C 1145.17,595.667 1142.83,595.333 1140.5,595C 1135.94,591.555 1130.94,588.888 1125.5,587C 1082.43,559.798 1038.43,534.131 993.5,510C 990.344,507.843 987.511,505.343 985,502.5C 984.311,503.357 983.478,504.023 982.5,504.5C 973.826,498.828 964.826,493.661 955.5,489C 919.477,464.655 882.811,441.322 845.5,419C 839.874,415.699 834.874,411.699 830.5,407C 820.12,402.302 810.453,396.302 801.5,389C 787.971,375.805 774.804,362.305 762,348.5C 752.423,337.013 745.756,324.013 742,309.5C 740.959,300.296 742.626,291.629 747,283.5C 751.377,274.83 756.21,266.497 761.5,258.5 Z"/></g>
<g><path style="opacity:1" fill="#695449" d="M 691.5,385.5 C 692.978,385.238 694.311,385.571 695.5,386.5C 684.003,397.481 675.503,410.481 670,425.5C 669,425.833 668,426.167 667,426.5C 666.333,424.833 666.333,423.167 667,421.5C 670.549,414.848 674.216,408.181 678,401.5C 678.333,399.833 678.667,398.167 679,396.5C 683.36,392.968 687.527,389.301 691.5,385.5 Z"/></g>
<g><path style="opacity:1" fill="#6f584c" d="M 687.5,467.5 C 687.5,466.167 687.5,464.833 687.5,463.5C 685.708,463.366 684.042,463.699 682.5,464.5C 685.387,458.196 686.887,451.529 687,444.5C 687.667,445.833 688.333,445.833 689,444.5C 689.41,446.668 690.244,448.001 691.5,448.5C 689.803,454.634 688.47,460.967 687.5,467.5 Z"/></g>
<g><path style="opacity:1" fill="#8e7d75" d="M 662.5,450.5 C 664.159,451.834 665.492,453.501 666.5,455.5C 666.167,456.5 665.5,457.167 664.5,457.5C 662.829,455.49 662.162,453.157 662.5,450.5 Z"/></g>
<g><path style="opacity:1" fill="#f7f7f7" d="M 1415.5,482.5 C 1416.67,484.79 1417.5,487.124 1418,489.5C 1414.92,490.288 1411.76,490.788 1408.5,491C 1406.43,493.971 1406.1,497.138 1407.5,500.5C 1409.86,504.358 1413.02,507.358 1417,509.5C 1417.84,511.351 1418.67,513.184 1419.5,515C 1414.26,516.822 1408.93,518.322 1403.5,519.5C 1389.4,517.857 1376.07,513.691 1363.5,507C 1350.67,501.502 1339.51,493.668 1330,483.5C 1325.59,478.264 1323.59,472.264 1324,465.5C 1327,461.074 1331.17,458.241 1336.5,457C 1353.65,455.369 1369.98,458.369 1385.5,466C 1396.01,470.751 1406.01,476.251 1415.5,482.5 Z"/></g>
<g><path style="opacity:1" fill="#d3a795" d="M 646.5,454.5 C 660.679,473.544 676.346,491.711 693.5,509C 737.313,547.566 783.98,582.233 833.5,613C 955.73,687.447 1083.73,750.781 1217.5,803C 1285.33,829.833 1354.66,851.833 1425.5,869C 1470.62,879.587 1516.28,884.421 1562.5,883.5C 1554.65,895.857 1545.82,907.524 1536,918.5C 1526.4,933.363 1516.07,947.697 1505,961.5C 1487.83,987.846 1470.16,1013.85 1452,1039.5C 1450.86,1041.74 1450.03,1044.08 1449.5,1046.5C 1447.44,1046.52 1445.44,1046.85 1443.5,1047.5C 1441.8,1047.34 1440.13,1047.51 1438.5,1048C 1435.87,1050.15 1432.87,1051.48 1429.5,1052C 1391.05,1055.96 1352.72,1054.96 1314.5,1049C 1242.87,1036.93 1172.87,1018.59 1104.5,994C 1012.5,961.501 923.499,922.167 837.5,876C 787.486,848.301 740.486,816.301 696.5,780C 674.412,761.091 655.079,739.925 638.5,716.5C 640.765,716.559 641.098,715.726 639.5,714C 639.93,712.566 640.764,711.399 642,710.5C 644.002,713.253 646.336,714.919 649,715.5C 650.076,713.933 650.909,712.266 651.5,710.5C 650.124,703.597 648.124,696.93 645.5,690.5C 647.934,678.973 649.1,667.307 649,655.5C 651.997,647.878 652.164,640.212 649.5,632.5C 647.833,631.167 646.167,631.167 644.5,632.5C 639.788,641.856 637.621,651.856 638,662.5C 636.956,661.377 636.29,660.044 636,658.5C 635.28,651.903 634.113,645.403 632.5,639C 634.272,632.246 635.772,625.413 637,618.5C 639.623,613.04 641.623,607.374 643,601.5C 645.08,594.588 642.746,591.922 636,593.5C 625.716,618.156 620.05,643.822 619,670.5C 620.697,672.699 622.197,675.032 623.5,677.5C 622.687,678.814 621.687,679.981 620.5,681C 624.439,683.972 624.439,686.806 620.5,689.5C 610.944,673.385 603.277,656.385 597.5,638.5C 615.551,585.793 629.718,531.793 640,476.5C 641.88,469.031 644.047,461.698 646.5,454.5 Z"/></g>
<g><path style="opacity:1" fill="#c2b9b4" d="M 687.5,467.5 C 687.666,472.511 687.499,477.511 687,482.5C 686.586,482.957 686.086,483.291 685.5,483.5C 683.007,477.421 682.007,471.088 682.5,464.5C 684.042,463.699 685.708,463.366 687.5,463.5C 687.5,464.833 687.5,466.167 687.5,467.5 Z"/></g>
<g><path style="opacity:1" fill="#e8e6e5" d="M 1415.5,482.5 C 1423.74,486.567 1430.24,492.567 1435,500.5C 1435.24,509.288 1431.07,515.121 1422.5,518C 1416.13,520.241 1409.8,520.741 1403.5,519.5C 1408.93,518.322 1414.26,516.822 1419.5,515C 1418.67,513.184 1417.84,511.351 1417,509.5C 1413.02,507.358 1409.86,504.358 1407.5,500.5C 1406.1,497.138 1406.43,493.971 1408.5,491C 1411.76,490.788 1414.92,490.288 1418,489.5C 1417.5,487.124 1416.67,484.79 1415.5,482.5 Z"/></g>
<g><path style="opacity:1" fill="#ecebea" d="M 1602.5,538.5 C 1622.02,547.875 1633.35,563.375 1636.5,585C 1635.89,597.946 1629.22,605.613 1616.5,608C 1596.09,609.115 1575.76,608.448 1555.5,606C 1553.05,605.275 1550.72,604.275 1548.5,603C 1547.17,602.333 1547.17,601.667 1548.5,601C 1550.5,600.833 1552.5,600.667 1554.5,600.5C 1563.12,601.759 1571.79,602.592 1580.5,603C 1581,603.5 1581.5,604 1582,604.5C 1587.57,603.664 1593.07,603.664 1598.5,604.5C 1605.18,603.777 1611.84,602.943 1618.5,602C 1627.54,599.124 1631.54,592.958 1630.5,583.5C 1629.51,573.843 1626.01,565.177 1620,557.5C 1614.25,550.924 1608.42,544.591 1602.5,538.5 Z"/></g>
<g><path style="opacity:1" fill="#6a544a" d="M 1597.5,509.5 C 1604.29,513.998 1610.46,519.332 1616,525.5C 1624.72,534.885 1633.39,544.219 1642,553.5C 1644.39,556.379 1646.55,559.379 1648.5,562.5C 1648.57,562.938 1648.4,563.272 1648,563.5C 1647.24,561.937 1646.07,560.937 1644.5,560.5C 1629.43,542.596 1613.1,525.763 1595.5,510C 1596.09,509.536 1596.76,509.369 1597.5,509.5 Z"/></g>
<g><path style="opacity:1" fill="#201a1a" d="M 798.5,192.5 C 798.5,193.167 798.5,193.833 798.5,194.5C 799.391,195.261 800.058,196.261 800.5,197.5C 797.308,204.828 797.141,212.161 800,219.5C 803.92,228.35 808.587,236.683 814,244.5C 823.056,253.886 832.556,263.052 842.5,272C 858.454,284.608 874.454,297.275 890.5,310C 892,312.833 894.167,315 897,316.5C 936.531,347.312 978.697,375.812 1023.5,402C 1028.69,405.541 1033.53,409.375 1038,413.5C 1038.72,412.549 1039.55,412.383 1040.5,413C 1055.75,421.449 1070.75,430.116 1085.5,439C 1119.89,455.031 1153.89,472.031 1187.5,490C 1200.47,494.533 1212.8,499.367 1224.5,504.5C 1259.4,518.163 1294.4,531.996 1329.5,546C 1334.12,547.7 1338.46,549.867 1342.5,552.5C 1343.28,553.729 1343.78,555.062 1344,556.5C 1344.37,555.09 1345.2,554.09 1346.5,553.5C 1355.38,556.978 1364.38,560.144 1373.5,563C 1375.98,563.879 1377.98,565.379 1379.5,567.5C 1380.29,567.069 1381.13,566.735 1382,566.5C 1398.19,572.873 1414.69,578.373 1431.5,583C 1448.92,590.696 1466.92,597.029 1485.5,602C 1492.01,604.272 1498.18,607.106 1504,610.5C 1504.56,609.978 1505.23,609.645 1506,609.5C 1516.69,612.839 1527.52,615.672 1538.5,618C 1539.49,620.286 1541.33,620.786 1544,619.5C 1548.66,620.465 1553.16,621.798 1557.5,623.5C 1558.45,623.013 1559.45,622.68 1560.5,622.5C 1566.14,623.053 1571.8,624.053 1577.5,625.5C 1593.43,625.549 1609.43,625.382 1625.5,625C 1637.68,624.091 1648.51,619.924 1658,612.5C 1658.49,611.207 1658.66,609.873 1658.5,608.5C 1660.59,608.318 1662.59,608.652 1664.5,609.5C 1664.79,608.8 1665.12,608.133 1665.5,607.5C 1667.1,612.331 1665.77,616.331 1661.5,619.5C 1657.57,622.81 1653.23,625.643 1648.5,628C 1644.21,629.488 1639.88,630.822 1635.5,632C 1591.41,635.114 1548.41,629.78 1506.5,616C 1505,615.167 1503.83,614 1503,612.5C 1501.81,614.847 1499.98,615.68 1497.5,615C 1450.29,597.816 1402.95,580.816 1355.5,564C 1351.15,562.493 1347.15,560.326 1343.5,557.5C 1341.57,558.52 1339.57,558.687 1337.5,558C 1332.34,555.614 1327.01,553.614 1321.5,552C 1281.12,533.432 1240.12,516.432 1198.5,501C 1194.87,499.516 1191.53,497.516 1188.5,495C 1186.76,494.349 1185.1,494.515 1183.5,495.5C 1178.31,491.95 1172.64,489.45 1166.5,488C 1121.28,463.396 1075.95,439.396 1030.5,416C 985.459,387.952 941.793,357.952 899.5,326C 898.126,322.317 895.459,320.651 891.5,321C 887.033,316.6 882.033,312.934 876.5,310C 861.833,297.333 847.167,284.667 832.5,272C 816.624,257.379 803.79,240.546 794,221.5C 793.092,216.971 792.259,212.471 791.5,208C 792.844,205.161 793.178,202.327 792.5,199.5C 793.092,195.911 795.092,193.578 798.5,192.5 Z"/></g>
<g><path style="opacity:1" fill="#7c6a61" d="M 1644.5,560.5 C 1646.07,560.937 1647.24,561.937 1648,563.5C 1648.4,563.272 1648.57,562.938 1648.5,562.5C 1653.25,567.442 1657.09,573.109 1660,579.5C 1662.24,585.64 1664.74,591.64 1667.5,597.5C 1666.78,597.918 1666.28,598.584 1666,599.5C 1659.85,585.862 1652.68,572.862 1644.5,560.5 Z"/></g>
<g><path style="opacity:1" fill="#d3a890" d="M 638.5,716.5 C 631.749,708.067 625.749,699.067 620.5,689.5C 624.439,686.806 624.439,683.972 620.5,681C 621.687,679.981 622.687,678.814 623.5,677.5C 622.197,675.032 620.697,672.699 619,670.5C 620.05,643.822 625.716,618.156 636,593.5C 642.746,591.922 645.08,594.588 643,601.5C 641.623,607.374 639.623,613.04 637,618.5C 635.772,625.413 634.272,632.246 632.5,639C 634.113,645.403 635.28,651.903 636,658.5C 636.29,660.044 636.956,661.377 638,662.5C 637.621,651.856 639.788,641.856 644.5,632.5C 646.167,631.167 647.833,631.167 649.5,632.5C 652.164,640.212 651.997,647.878 649,655.5C 649.1,667.307 647.934,678.973 645.5,690.5C 648.124,696.93 650.124,703.597 651.5,710.5C 650.909,712.266 650.076,713.933 649,715.5C 646.336,714.919 644.002,713.253 642,710.5C 640.764,711.399 639.93,712.566 639.5,714C 641.098,715.726 640.765,716.559 638.5,716.5 Z"/></g>
<g><path style="opacity:1" fill="#e0c6b9" d="M 629.5,640.5 C 629.649,639.448 629.483,638.448 629,637.5C 628.333,638.833 627.667,638.833 627,637.5C 627.891,641.191 627.558,644.858 626,648.5C 625.583,647.244 624.75,646.577 623.5,646.5C 623.519,644.195 623.519,641.862 623.5,639.5C 624.947,635.86 626.28,631.86 627.5,627.5C 629.626,617.3 633.126,607.3 638,597.5C 639.367,596.476 640.2,596.976 640.5,599C 636.687,612.915 633.021,626.748 629.5,640.5 Z"/></g>
<g><path style="opacity:1" fill="#f7f3f1" d="M 645.5,636.5 C 646.496,636.414 647.329,636.748 648,637.5C 648.167,639.167 648.333,640.833 648.5,642.5C 646.404,654.723 645.237,667.056 645,679.5C 642.385,686.236 640.551,686.069 639.5,679C 639.683,664.55 641.683,650.383 645.5,636.5 Z"/></g>
<g><path style="opacity:1" fill="#51382b" d="M 597.5,638.5 C 603.277,656.385 610.944,673.385 620.5,689.5C 625.749,699.067 631.749,708.067 638.5,716.5C 655.079,739.925 674.412,761.091 696.5,780C 740.486,816.301 787.486,848.301 837.5,876C 923.499,922.167 1012.5,961.501 1104.5,994C 1172.87,1018.59 1242.87,1036.93 1314.5,1049C 1352.72,1054.96 1391.05,1055.96 1429.5,1052C 1432.87,1051.48 1435.87,1050.15 1438.5,1048C 1440.13,1047.51 1441.8,1047.34 1443.5,1047.5C 1448.46,1049.55 1451.13,1053.38 1451.5,1059C 1447.85,1064.66 1444.18,1070.32 1440.5,1076C 1440.73,1076.4 1441.06,1076.57 1441.5,1076.5C 1403.33,1134.83 1364.17,1192.5 1324,1249.5C 1313.38,1263.79 1302.38,1277.79 1291,1291.5C 1257.16,1339.85 1222.82,1387.85 1188,1435.5C 1171.25,1462.67 1154.25,1489.67 1137,1516.5C 1134.36,1519.96 1131.2,1522.8 1127.5,1525C 1123.48,1525.5 1119.48,1525.33 1115.5,1524.5C 1114.51,1524.67 1113.84,1524.34 1113.5,1523.5C 1112.77,1521.95 1111.44,1521.12 1109.5,1521C 1099.69,1520.14 1089.85,1519.64 1080,1519.5C 1006.63,1526.22 935.128,1517.72 865.5,1494C 791.824,1466.66 720.824,1433.66 652.5,1395C 610.589,1369.09 570.922,1340.09 533.5,1308C 502.541,1276.9 475.207,1243.06 451.5,1206.5C 450.89,1205.61 450.557,1204.61 450.5,1203.5C 450.666,1198.16 450.499,1192.82 450,1187.5C 449.667,1191.5 449.333,1195.5 449,1199.5C 448.79,1197.94 448.29,1196.61 447.5,1195.5C 448.922,1182.46 450.756,1169.46 453,1156.5C 467.111,1109.06 480.444,1061.39 493,1013.5C 512.004,935.144 531.004,856.811 550,778.5C 561.411,731.189 573.911,684.189 587.5,637.5C 591.278,634.579 594.611,634.912 597.5,638.5 Z"/></g>
<g><path style="opacity:1" fill="#efedec" d="M 1527.5,645.5 C 1528.5,645.5 1529.5,645.5 1530.5,645.5C 1530.31,647.564 1529.81,649.564 1529,651.5C 1521.06,666.392 1512.89,681.058 1504.5,695.5C 1503.26,696.246 1501.93,696.579 1500.5,696.5C 1502.28,689.264 1505.45,682.597 1510,676.5C 1511,673.833 1512,671.167 1513,668.5C 1518.05,660.952 1522.89,653.286 1527.5,645.5 Z"/></g>
<g><path style="opacity:1" fill="#eeeceb" d="M 1542.5,650.5 C 1543.59,650.62 1544.25,651.287 1544.5,652.5C 1543.82,655.544 1542.99,658.544 1542,661.5C 1535.73,673.041 1529.73,684.708 1524,696.5C 1522.56,698.155 1520.72,698.822 1518.5,698.5C 1518.34,696.801 1518.51,695.134 1519,693.5C 1526.32,678.865 1534.15,664.531 1542.5,650.5 Z"/></g>
<g><path style="opacity:1" fill="#f3eae6" d="M 629.5,640.5 C 628.246,649.532 626.746,658.532 625,667.5C 624.163,669.007 622.996,669.507 621.5,669C 620.878,667.431 620.544,665.764 620.5,664C 621.4,657.722 622.4,651.889 623.5,646.5C 624.75,646.577 625.583,647.244 626,648.5C 627.558,644.858 627.891,641.191 627,637.5C 627.667,638.833 628.333,638.833 629,637.5C 629.483,638.448 629.649,639.448 629.5,640.5 Z"/></g>
<g><path style="opacity:1" fill="#6e5950" d="M 1669.5,694.5 C 1680.87,717.036 1684.53,740.703 1680.5,765.5C 1680.63,764.761 1680.46,764.094 1680,763.5C 1679.67,764.833 1679.33,766.167 1679,767.5C 1681.7,742.9 1678.2,719.233 1668.5,696.5C 1668.86,695.817 1669.2,695.15 1669.5,694.5 Z"/></g>
<g><path style="opacity:1" fill="#e6e3e2" d="M 1631.5,776.5 C 1630.04,775.595 1628.7,775.595 1627.5,776.5C 1625.77,772.37 1624.6,768.036 1624,763.5C 1618.51,753.189 1613.01,742.856 1607.5,732.5C 1607.83,732.167 1608.17,731.833 1608.5,731.5C 1611.43,732.93 1613.93,734.93 1616,737.5C 1618.6,741.03 1620.93,744.697 1623,748.5C 1627.31,757.703 1630.14,767.036 1631.5,776.5 Z"/></g>
<g><path style="opacity:1" fill="#cbc4c0" d="M 1647.5,762.5 C 1645.03,762.088 1643.69,763.088 1643.5,765.5C 1640.87,757.904 1637.37,750.571 1633,743.5C 1632.51,741.866 1632.34,740.199 1632.5,738.5C 1635.26,738.744 1637.43,740.077 1639,742.5C 1642.78,749.097 1645.62,755.764 1647.5,762.5 Z"/></g>
<g><path style="opacity:1" fill="#efeeed" d="M 1647.5,762.5 C 1648.53,764.961 1649.2,767.627 1649.5,770.5C 1649.5,771.5 1649.5,772.5 1649.5,773.5C 1647.83,773.5 1646.17,773.5 1644.5,773.5C 1644.42,770.794 1644.09,768.127 1643.5,765.5C 1643.69,763.088 1645.03,762.088 1647.5,762.5 Z"/></g>
<g><path style="opacity:1" fill="#f2f0f0" d="M 1631.5,776.5 C 1634.83,804.673 1626.17,828.506 1605.5,848C 1602.56,849.715 1599.73,851.548 1597,853.5C 1595.74,853.15 1595.41,852.483 1596,851.5C 1619.04,831.903 1629.54,806.903 1627.5,776.5C 1628.7,775.595 1630.04,775.595 1631.5,776.5 Z"/></g>
<g><path style="opacity:1" fill="#685348" d="M 1650.5,774.5 C 1651.01,781.47 1650.67,788.47 1649.5,795.5C 1648.78,795.918 1648.28,796.584 1648,797.5C 1646.42,790.191 1646.25,782.857 1647.5,775.5C 1648.42,774.873 1649.42,774.539 1650.5,774.5 Z"/></g>
<g><path style="opacity:1" fill="#89786f" d="M 1649.5,770.5 C 1650.43,771.568 1650.77,772.901 1650.5,774.5C 1649.42,774.539 1648.42,774.873 1647.5,775.5C 1646.25,782.857 1646.42,790.191 1648,797.5C 1648.28,796.584 1648.78,795.918 1649.5,795.5C 1649.47,798.916 1648.47,801.916 1646.5,804.5C 1645.93,802.048 1645.27,799.715 1644.5,797.5C 1645.65,789.481 1645.65,781.481 1644.5,773.5C 1646.17,773.5 1647.83,773.5 1649.5,773.5C 1649.5,772.5 1649.5,771.5 1649.5,770.5 Z"/></g>
<g><path style="opacity:1" fill="#dad5d3" d="M 1644.5,797.5 C 1645.27,799.715 1645.93,802.048 1646.5,804.5C 1646.63,805.376 1646.3,806.043 1645.5,806.5C 1644.52,803.572 1644.18,800.572 1644.5,797.5 Z"/></g>
<g><path style="opacity:1" fill="#42261a" d="M 1653.5,825.5 C 1636.15,848.523 1614.15,865.523 1587.5,876.5C 1587.08,875.778 1586.42,875.278 1585.5,875C 1612.62,864.208 1634.79,847.041 1652,823.5C 1652.28,824.416 1652.78,825.082 1653.5,825.5 Z"/></g>
<g><path style="opacity:1" fill="#f7f5f3" d="M 1504.5,896.5 C 1505.5,896.47 1506.16,896.97 1506.5,898C 1504.47,902.561 1502.3,907.061 1500,911.5C 1489.09,926.993 1478.42,942.66 1468,958.5C 1465.88,961.299 1463.21,963.299 1460,964.5C 1459.33,963.167 1459.33,961.833 1460,960.5C 1474.08,938.685 1488.91,917.352 1504.5,896.5 Z"/></g>
<g><path style="opacity:1" fill="#f8f5f4" d="M 1523.5,900.5 C 1525.23,900.843 1525.73,901.843 1525,903.5C 1510.42,925.664 1496.08,947.997 1482,970.5C 1475.62,982.93 1468.95,995.263 1462,1007.5C 1455.27,1014.17 1453.94,1012.83 1458,1003.5C 1476.67,967.292 1498.51,932.959 1523.5,900.5 Z"/></g>
<g><path style="opacity:1" fill="#efe3d0" d="M 549.5,1053.5 C 548.596,1052.79 548.263,1051.79 548.5,1050.5C 547.167,1050.5 545.833,1050.5 544.5,1050.5C 544.5,1051.83 544.5,1053.17 544.5,1054.5C 543.566,1053.43 543.232,1052.1 543.5,1050.5C 538.353,1049.53 534.853,1046.53 533,1041.5C 532.722,1042.42 532.222,1043.08 531.5,1043.5C 530.474,1035.2 531.808,1027.53 535.5,1020.5C 535.435,1020.94 535.601,1021.27 536,1021.5C 552.141,1008.51 569.641,997.677 588.5,989C 594.236,984.936 600.236,981.27 606.5,978C 618.982,979.206 631.649,979.873 644.5,980C 651.75,981.528 658.75,983.861 665.5,987C 671.909,996.584 670.575,1004.92 661.5,1012C 649.299,1019.6 636.966,1026.93 624.5,1034C 613.384,1042.3 602.217,1050.47 591,1058.5C 589.682,1061.41 589.348,1064.41 590,1067.5C 592.041,1071.08 594.208,1074.58 596.5,1078C 603.61,1080.46 610.943,1081.96 618.5,1082.5C 622.096,1080.02 625.762,1077.52 629.5,1075C 637.616,1075.11 643.949,1071.78 648.5,1065C 666.664,1053.08 684.997,1041.42 703.5,1030C 712.799,1030.72 714.965,1035.22 710,1043.5C 705.5,1048 701,1052.5 696.5,1057C 698.87,1059.37 701.704,1060.87 705,1061.5C 709.33,1060.09 713.497,1058.25 717.5,1056C 725.832,1050.17 734.499,1044.83 743.5,1040C 750.196,1036.75 756.863,1036.75 763.5,1040C 765.815,1042.48 765.482,1044.81 762.5,1047C 755.256,1051.57 748.59,1056.91 742.5,1063C 736.616,1065.77 731.283,1069.27 726.5,1073.5C 731.825,1078.66 737.325,1083.66 743,1088.5C 743.684,1089.78 743.517,1090.95 742.5,1092C 734.134,1087.49 725.468,1083.49 716.5,1080C 702.699,1092.13 689.199,1104.63 676,1117.5C 672.174,1123.08 671.508,1129.08 674,1135.5C 674.903,1136.7 676.069,1137.53 677.5,1138C 687.86,1139.67 698.193,1141.51 708.5,1143.5C 710.167,1143.17 711.833,1142.83 713.5,1142.5C 718.018,1130.29 725.351,1120.13 735.5,1112C 748.779,1104.53 759.613,1107.03 768,1119.5C 767.623,1126.4 764.456,1131.9 758.5,1136C 748.169,1141.5 738.169,1147.5 728.5,1154C 726.127,1158.3 726.794,1162.3 730.5,1166C 742.864,1171.67 755.864,1174.34 769.5,1174C 770.554,1175.39 770.72,1176.89 770,1178.5C 766.177,1182.76 761.344,1184.43 755.5,1183.5C 740.855,1183.68 728.355,1178.68 718,1168.5C 713.613,1164.06 711.779,1158.72 712.5,1152.5C 701.566,1151.1 690.566,1150.27 679.5,1150C 669.491,1148.3 661.991,1143.14 657,1134.5C 655.829,1127.87 656.662,1121.53 659.5,1115.5C 653.862,1114.67 648.196,1114.17 642.5,1114C 634.926,1112.45 627.76,1109.95 621,1106.5C 618.268,1106.61 615.768,1107.45 613.5,1109C 605.111,1118.39 595.778,1126.72 585.5,1134C 568.995,1138.46 564.828,1133.29 573,1118.5C 583.75,1107.41 595.917,1098.24 609.5,1091C 603.536,1089.48 597.536,1088.15 591.5,1087C 588.098,1085.6 585.264,1083.43 583,1080.5C 576.709,1071.34 574.542,1061.34 576.5,1050.5C 567.5,1050.5 558.5,1050.5 549.5,1050.5C 549.5,1051.5 549.5,1052.5 549.5,1053.5 Z"/></g>
<g><path style="opacity:1" fill="#52392c" d="M 629.5,991.5 C 638.002,991.126 646.002,992.959 653.5,997C 654.705,999.234 654.039,1000.9 651.5,1002C 645.073,1003.71 639.406,1006.71 634.5,1011C 625.657,1015.92 616.657,1020.59 607.5,1025C 596.258,1028.64 584.924,1031.98 573.5,1035C 567.548,1036.33 561.548,1036.66 555.5,1036C 547.32,1031.7 547.653,1028.03 556.5,1025C 562.5,1020.67 568.5,1016.33 574.5,1012C 582.619,1008.52 590.619,1004.85 598.5,1001C 609.307,998.894 619.64,995.727 629.5,991.5 Z"/></g>
<g><path style="opacity:1" fill="#efedec" d="M 535.5,1020.5 C 531.808,1027.53 530.474,1035.2 531.5,1043.5C 530.655,1050.94 529.321,1058.27 527.5,1065.5C 526.726,1066.71 525.893,1066.71 525,1065.5C 525.359,1049.29 527.359,1033.29 531,1017.5C 532.356,1016.62 533.856,1016.29 535.5,1016.5C 535.5,1017.83 535.5,1019.17 535.5,1020.5 Z"/></g>
<g><path style="opacity:1" fill="#edebea" d="M 549.5,1053.5 C 550.209,1062.34 551.876,1071.01 554.5,1079.5C 553.111,1085.92 551.278,1085.92 549,1079.5C 546.987,1071.24 545.487,1062.9 544.5,1054.5C 544.5,1053.17 544.5,1051.83 544.5,1050.5C 545.833,1050.5 547.167,1050.5 548.5,1050.5C 548.263,1051.79 548.596,1052.79 549.5,1053.5 Z"/></g>
<g><path style="opacity:1" fill="#684d40" d="M 1449.5,1046.5 C 1449.61,1048.78 1450.44,1050.78 1452,1052.5C 1452.67,1055.83 1452.67,1059.17 1452,1062.5C 1448.72,1067.41 1445.22,1072.08 1441.5,1076.5C 1441.06,1076.57 1440.73,1076.4 1440.5,1076C 1444.18,1070.32 1447.85,1064.66 1451.5,1059C 1451.13,1053.38 1448.46,1049.55 1443.5,1047.5C 1445.44,1046.85 1447.44,1046.52 1449.5,1046.5 Z"/></g>
<g><path style="opacity:1" fill="#52392c" d="M 686.5,1062.5 C 688.783,1062.61 690.783,1063.44 692.5,1065C 694.211,1066.13 694.711,1067.63 694,1069.5C 684.12,1081.04 674.62,1092.88 665.5,1105C 656.833,1105.67 648.167,1105.67 639.5,1105C 634.588,1103.29 630.421,1100.46 627,1096.5C 626.318,1092.82 627.818,1090.32 631.5,1089C 650.412,1081.21 668.746,1072.38 686.5,1062.5 Z"/></g>
<g><path style="opacity:1" fill="#d3cdcb" d="M 1366.5,1085.5 C 1367.24,1085.37 1367.91,1085.54 1368.5,1086C 1367.27,1087.49 1367.27,1088.99 1368.5,1090.5C 1365.3,1091.7 1362.13,1091.7 1359,1090.5C 1358.5,1091 1358,1091.5 1357.5,1092C 1353.63,1092.27 1349.79,1092.77 1346,1093.5C 1344.86,1093.01 1343.69,1092.68 1342.5,1092.5C 1344.67,1091.36 1347,1090.36 1349.5,1089.5C 1347.26,1088.53 1344.92,1088.19 1342.5,1088.5C 1350.32,1087.15 1358.32,1086.15 1366.5,1085.5 Z"/></g>
<g><path style="opacity:1" fill="#9b8d87" d="M 1254.5,1086.5 C 1262.34,1086.88 1270.01,1087.55 1277.5,1088.5C 1274.5,1088.5 1271.5,1088.5 1268.5,1088.5C 1268.57,1089.96 1268.23,1091.29 1267.5,1092.5C 1263.01,1092.02 1258.67,1091.36 1254.5,1090.5C 1253.05,1088.84 1251.05,1088 1248.5,1088C 1250.71,1087.81 1252.71,1087.31 1254.5,1086.5 Z"/></g>
<g><path style="opacity:1" fill="#c6beb9" d="M 1254.5,1086.5 C 1252.71,1087.31 1250.71,1087.81 1248.5,1088C 1251.05,1088 1253.05,1088.84 1254.5,1090.5C 1249.15,1090.66 1244.15,1089.49 1239.5,1087C 1240.26,1086.06 1241.26,1085.56 1242.5,1085.5C 1246.45,1086.36 1250.45,1086.7 1254.5,1086.5 Z"/></g>
<g><path style="opacity:1" fill="#b8aea8" d="M 1368.5,1090.5 C 1367.27,1088.99 1367.27,1087.49 1368.5,1086C 1367.91,1085.54 1367.24,1085.37 1366.5,1085.5C 1372.49,1084.28 1378.66,1083.28 1385,1082.5C 1387.39,1082.48 1389.56,1083.15 1391.5,1084.5C 1389.07,1086.14 1386.41,1087.31 1383.5,1088C 1378.23,1089.1 1373.23,1089.93 1368.5,1090.5 Z"/></g>
<g><path style="opacity:1" fill="#c2b9b4" d="M 1277.5,1088.5 C 1280.39,1088.19 1283.05,1088.53 1285.5,1089.5C 1284.45,1089.9 1284.45,1090.57 1285.5,1091.5C 1282.69,1092.17 1280.03,1092.83 1277.5,1093.5C 1274.14,1093.38 1270.81,1093.05 1267.5,1092.5C 1268.23,1091.29 1268.57,1089.96 1268.5,1088.5C 1271.5,1088.5 1274.5,1088.5 1277.5,1088.5 Z"/></g>
<g><path style="opacity:1" fill="#f0eded" d="M 1342.5,1088.5 C 1344.92,1088.19 1347.26,1088.53 1349.5,1089.5C 1347,1090.36 1344.67,1091.36 1342.5,1092.5C 1320.92,1094.79 1299.26,1095.12 1277.5,1093.5C 1280.03,1092.83 1282.69,1092.17 1285.5,1091.5C 1284.45,1090.57 1284.45,1089.9 1285.5,1089.5C 1304.52,1089.77 1323.52,1089.44 1342.5,1088.5 Z"/></g>
<g><path style="opacity:1" fill="#5f473a" d="M 597.5,1107.5 C 599.225,1107.84 599.725,1108.84 599,1110.5C 596.273,1113.73 593.106,1116.4 589.5,1118.5C 589.167,1118.17 588.833,1117.83 588.5,1117.5C 590.839,1113.5 593.839,1110.16 597.5,1107.5 Z"/></g>
<g><path style="opacity:1" fill="#573e31" d="M 742.5,1123.5 C 746.487,1123.65 747.987,1125.65 747,1129.5C 740.918,1134.13 734.418,1138.13 727.5,1141.5C 727.167,1141.17 726.833,1140.83 726.5,1140.5C 730.503,1133.5 735.836,1127.83 742.5,1123.5 Z"/></g>
<g><path style="opacity:1" fill="#efe2d0" d="M 816.5,1125.5 C 821.953,1124.4 825.953,1126.23 828.5,1131C 825.143,1138.35 820.976,1145.18 816,1151.5C 815.333,1153.5 815.333,1155.5 816,1157.5C 819.745,1158.3 823.579,1158.8 827.5,1159C 830.991,1160.82 832.157,1163.65 831,1167.5C 823.595,1174.23 816.928,1181.57 811,1189.5C 809.466,1193.71 809.133,1198.04 810,1202.5C 811.44,1204.05 813.273,1204.88 815.5,1205C 822.167,1205.67 828.833,1205.67 835.5,1205C 839.382,1200.82 843.549,1196.98 848,1193.5C 851.418,1187.66 855.084,1182 859,1176.5C 873.537,1160.96 887.704,1145.13 901.5,1129C 907.86,1125.25 914.527,1124.58 921.5,1127C 924.394,1129.91 925.227,1133.41 924,1137.5C 922.613,1142.68 920.28,1147.34 917,1151.5C 901.504,1167.85 883.67,1180.85 863.5,1190.5C 863.833,1190.83 864.167,1191.17 864.5,1191.5C 873.387,1186.68 880.887,1188.35 887,1196.5C 887.239,1206.13 885.573,1215.47 882,1224.5C 881.233,1228.56 881.4,1232.56 882.5,1236.5C 887.398,1239.39 892.731,1240.72 898.5,1240.5C 904.207,1239.99 909.874,1239.15 915.5,1238C 921.593,1226.92 930.593,1218.92 942.5,1214C 945.598,1213.08 948.765,1212.58 952,1212.5C 958.172,1213.61 964.339,1213.78 970.5,1213C 975.768,1216.53 978.435,1221.53 978.5,1228C 977.122,1234.27 975.289,1240.44 973,1246.5C 971.99,1251.56 972.49,1256.39 974.5,1261C 976.289,1261.52 977.956,1261.19 979.5,1260C 986.842,1252.15 995.175,1245.49 1004.5,1240C 1007.74,1238.63 1011.07,1238.3 1014.5,1239C 1016.62,1240.74 1017.46,1242.9 1017,1245.5C 1009.25,1253.25 1002.25,1261.58 996,1270.5C 995.333,1272.83 995.333,1275.17 996,1277.5C 1002.94,1278.48 1009.44,1276.98 1015.5,1273C 1018.33,1270.75 1021.33,1268.75 1024.5,1267C 1029.87,1259.96 1036.21,1253.96 1043.5,1249C 1050.13,1247.96 1053.3,1250.8 1053,1257.5C 1044,1266.83 1037,1277.5 1032,1289.5C 1031.33,1295.66 1034.16,1298.33 1040.5,1297.5C 1048.7,1296.78 1056.7,1295.12 1064.5,1292.5C 1069,1293.48 1069.67,1295.81 1066.5,1299.5C 1064.66,1300.92 1062.66,1302.09 1060.5,1303C 1055.06,1304.36 1049.73,1306.03 1044.5,1308C 1036.49,1309.34 1029.66,1307.17 1024,1301.5C 1021.04,1297.08 1018.21,1292.58 1015.5,1288C 1009.76,1289.05 1003.93,1289.89 998,1290.5C 985.169,1290.19 977.336,1283.85 974.5,1271.5C 966.768,1272.1 962.935,1268.43 963,1260.5C 962.107,1259.92 961.107,1259.59 960,1259.5C 955.326,1261.49 951.159,1264.33 947.5,1268C 938.033,1270.32 928.7,1269.99 919.5,1267C 914.394,1261.51 912.394,1255.01 913.5,1247.5C 906.563,1249.06 899.563,1249.89 892.5,1250C 882.045,1248.88 874.545,1243.71 870,1234.5C 869.833,1231.5 869.667,1228.5 869.5,1225.5C 870.204,1217.04 871.37,1208.71 873,1200.5C 865.14,1202.34 857.64,1205.18 850.5,1209C 844.482,1214.35 839.148,1220.35 834.5,1227C 831.364,1228.04 828.864,1227.21 827,1224.5C 825.684,1221.31 825.184,1217.98 825.5,1214.5C 814.024,1215.52 804.191,1211.86 796,1203.5C 795.19,1198.74 795.524,1194.08 797,1189.5C 800.248,1183.34 803.748,1177.34 807.5,1171.5C 804.172,1168.34 800.672,1165.34 797,1162.5C 792.801,1167.03 788.301,1171.2 783.5,1175C 779.764,1175.61 776.097,1175.28 772.5,1174C 771.978,1173.44 771.645,1172.77 771.5,1172C 778.154,1162.68 786.154,1154.68 795.5,1148C 802.409,1140.29 809.409,1132.79 816.5,1125.5 Z"/></g>
<g><path style="opacity:1" fill="#aca09b" d="M 1357.5,1139.5 C 1356.17,1139.5 1354.83,1139.5 1353.5,1139.5C 1358.79,1133.04 1364.29,1126.71 1370,1120.5C 1371.23,1121.28 1371.56,1122.28 1371,1123.5C 1366.72,1129.09 1362.22,1134.42 1357.5,1139.5 Z"/></g>
<g><path style="opacity:1" fill="#5a4134" d="M 904.5,1143.5 C 905.5,1143.5 906.5,1143.5 907.5,1143.5C 899.207,1156.63 888.373,1167.29 875,1175.5C 873.623,1174.96 873.623,1173.96 875,1172.5C 884.065,1161.93 893.898,1152.27 904.5,1143.5 Z"/></g>
<g><path style="opacity:1" fill="#d6d1cf" d="M 1353.5,1139.5 C 1354.83,1139.5 1356.17,1139.5 1357.5,1139.5C 1348.73,1150.72 1339.73,1161.72 1330.5,1172.5C 1330.57,1170.97 1329.91,1169.97 1328.5,1169.5C 1336.37,1159.09 1344.7,1149.09 1353.5,1139.5 Z"/></g>
<g><path style="opacity:1" fill="#927263" d="M 450.5,1203.5 C 449.778,1203.92 449.278,1204.58 449,1205.5C 448.617,1204.94 448.117,1204.61 447.5,1204.5C 447.5,1201.5 447.5,1198.5 447.5,1195.5C 448.29,1196.61 448.79,1197.94 449,1199.5C 449.333,1195.5 449.667,1191.5 450,1187.5C 450.499,1192.82 450.666,1198.16 450.5,1203.5 Z"/></g>
<g><path style="opacity:1" fill="#d3a795" d="M 451.5,1206.5 C 475.207,1243.06 502.541,1276.9 533.5,1308C 570.922,1340.09 610.589,1369.09 652.5,1395C 720.824,1433.66 791.824,1466.66 865.5,1494C 935.128,1517.72 1006.63,1526.22 1080,1519.5C 1089.85,1519.64 1099.69,1520.14 1109.5,1521C 1111.44,1521.12 1112.77,1521.95 1113.5,1523.5C 1110.02,1528.43 1106.52,1533.43 1103,1538.5C 1102.67,1538.17 1102.33,1537.83 1102,1537.5C 1074.95,1575.75 1049.79,1615.25 1026.5,1656C 1018.68,1665.58 1011.85,1675.41 1006,1685.5C 1005.67,1685.17 1005.33,1684.83 1005,1684.5C 994.908,1697.3 981.741,1704.46 965.5,1706C 964.333,1707.17 963.167,1708.33 962,1709.5C 957.287,1718.86 952.621,1728.19 948,1737.5C 942.955,1743.71 937.621,1749.71 932,1755.5C 930.524,1759.24 928.191,1762.57 925,1765.5C 923.927,1764.72 922.76,1764.89 921.5,1766C 914.262,1772.79 905.929,1777.79 896.5,1781C 881.474,1783.54 866.474,1786.21 851.5,1789C 832.691,1789.7 814.024,1788.37 795.5,1785C 777.123,1781.21 758.79,1777.21 740.5,1773C 671.562,1747.53 604.562,1717.7 539.5,1683.5C 539.036,1684.64 538.702,1685.64 538.5,1686.5C 536.181,1686.01 534.181,1685.01 532.5,1683.5C 533.552,1683.65 534.552,1683.48 535.5,1683C 536.833,1682.33 536.833,1681.67 535.5,1681C 518.385,1672.95 502.051,1663.61 486.5,1653C 469.876,1640.05 453.543,1626.71 437.5,1613C 421.465,1598.75 408.965,1581.92 400,1562.5C 384.964,1543.36 380.298,1521.7 386,1497.5C 390.146,1479.92 395.979,1462.92 403.5,1446.5C 399.682,1440.58 396.516,1434.25 394,1427.5C 392.203,1416.51 392.203,1405.51 394,1394.5C 405.529,1354.58 417.863,1314.91 431,1275.5C 437.157,1253.87 443.157,1232.21 449,1210.5C 449.2,1208.68 450.034,1207.35 451.5,1206.5 Z"/></g>
<g><path style="opacity:1" fill="#533a2d" d="M 949.5,1221.5 C 952.85,1221.65 954.516,1223.48 954.5,1227C 953.375,1232.52 954.042,1237.85 956.5,1243C 956.091,1245.32 955.257,1247.49 954,1249.5C 949.015,1253.82 943.515,1257.32 937.5,1260C 933.218,1260.97 929.218,1260.3 925.5,1258C 924.02,1256.7 923.354,1255.03 923.5,1253C 924.794,1248.95 925.627,1244.78 926,1240.5C 932.269,1232.13 940.102,1225.8 949.5,1221.5 Z"/></g>
<g><path style="opacity:1" fill="#958173" d="M 965.5,1226.5 C 966.438,1228.92 965.938,1231.26 964,1233.5C 963.761,1231.04 964.261,1228.71 965.5,1226.5 Z"/></g>
<g><path style="opacity:1" fill="#f0eeee" d="M 1328.5,1169.5 C 1329.91,1169.97 1330.57,1170.97 1330.5,1172.5C 1310.07,1198.41 1290.9,1225.08 1273,1252.5C 1242.69,1289.69 1216.36,1329.03 1194,1370.5C 1174.23,1398.36 1156.23,1427.36 1140,1457.5C 1136.39,1463.44 1132.39,1469.11 1128,1474.5C 1127.68,1472.45 1128.01,1470.45 1129,1468.5C 1147.92,1430.34 1169.58,1393.01 1194,1356.5C 1195,1355.83 1196,1355.17 1197,1354.5C 1218.91,1317.41 1242.91,1281.41 1269,1246.5C 1288.82,1220.72 1308.65,1195.05 1328.5,1169.5 Z"/></g>
<g><path style="opacity:1" fill="#efe3d0" d="M 1105.5,1236.5 C 1108.79,1236.26 1111.79,1237.09 1114.5,1239C 1115.1,1240.06 1115.43,1241.23 1115.5,1242.5C 1114.03,1249.07 1111.86,1255.41 1109,1261.5C 1108.33,1263.83 1108.33,1266.17 1109,1268.5C 1109.8,1269.8 1110.97,1270.47 1112.5,1270.5C 1116,1268.74 1119.66,1268.24 1123.5,1269C 1125.15,1270.47 1126.15,1272.3 1126.5,1274.5C 1121.5,1283.02 1116.67,1291.68 1112,1300.5C 1111.3,1304.91 1111.64,1309.24 1113,1313.5C 1113.35,1315.18 1114.35,1316.18 1116,1316.5C 1121.88,1315.75 1127.72,1314.75 1133.5,1313.5C 1133.74,1308.43 1136.4,1305.93 1141.5,1306C 1143.56,1303.49 1145.06,1300.66 1146,1297.5C 1149.15,1296.21 1151.82,1294.21 1154,1291.5C 1158.98,1282.24 1162.98,1272.57 1166,1262.5C 1169.78,1259.91 1173.45,1260.24 1177,1263.5C 1178.15,1266.71 1178.82,1270.04 1179,1273.5C 1179.28,1291.27 1178.61,1308.93 1177,1326.5C 1179.91,1329.39 1183.41,1330.23 1187.5,1329C 1194.72,1325.22 1202.05,1321.72 1209.5,1318.5C 1211.89,1318.71 1212.89,1320.05 1212.5,1322.5C 1212.19,1325.65 1210.52,1327.82 1207.5,1329C 1200.88,1331.87 1194.22,1334.54 1187.5,1337C 1180.44,1338.19 1173.78,1337.19 1167.5,1334C 1162.5,1333.67 1157.5,1333.33 1152.5,1333C 1147.23,1331.13 1141.89,1329.46 1136.5,1328C 1134.84,1326.56 1134.18,1324.72 1134.5,1322.5C 1127.29,1324.41 1119.96,1324.91 1112.5,1324C 1108.31,1323.27 1104.48,1321.77 1101,1319.5C 1098.57,1313.05 1097.9,1306.38 1099,1299.5C 1101.15,1294.23 1102.98,1288.89 1104.5,1283.5C 1100.04,1282.94 1096.04,1281.27 1092.5,1278.5C 1089.45,1284.11 1085.78,1289.27 1081.5,1294C 1077.51,1294.5 1073.51,1294.67 1069.5,1294.5C 1069.8,1290.89 1070.97,1287.56 1073,1284.5C 1082.94,1271.61 1091.61,1257.95 1099,1243.5C 1101.37,1241.3 1103.54,1238.96 1105.5,1236.5 Z"/></g>
<g><path style="opacity:1" fill="#563d30" d="M 1165.5,1291.5 C 1167.13,1293.03 1167.96,1295.03 1168,1297.5C 1168.67,1302.83 1168.67,1308.17 1168,1313.5C 1165.46,1318.07 1161.63,1319.57 1156.5,1318C 1153.43,1317.3 1151.43,1315.47 1150.5,1312.5C 1155.91,1305.76 1160.91,1298.76 1165.5,1291.5 Z"/></g>
<g><path style="opacity:1" fill="#d2a891" d="M 450.5,1203.5 C 450.557,1204.61 450.89,1205.61 451.5,1206.5C 450.034,1207.35 449.2,1208.68 449,1210.5C 443.157,1232.21 437.157,1253.87 431,1275.5C 417.863,1314.91 405.529,1354.58 394,1394.5C 392.203,1405.51 392.203,1416.51 394,1427.5C 396.516,1434.25 399.682,1440.58 403.5,1446.5C 395.979,1462.92 390.146,1479.92 386,1497.5C 380.298,1521.7 384.964,1543.36 400,1562.5C 408.965,1581.92 421.465,1598.75 437.5,1613C 453.543,1626.71 469.876,1640.05 486.5,1653C 502.051,1663.61 518.385,1672.95 535.5,1681C 536.833,1681.67 536.833,1682.33 535.5,1683C 534.552,1683.48 533.552,1683.65 532.5,1683.5C 516.24,1675.7 500.573,1666.87 485.5,1657C 467.833,1642.67 450.167,1628.33 432.5,1614C 422.497,1603.48 413.33,1592.31 405,1580.5C 400.396,1572.23 395.396,1564.23 390,1556.5C 380.952,1538.79 378.286,1520.12 382,1500.5C 385.225,1481.92 391.058,1464.25 399.5,1447.5C 391.925,1436.94 388.258,1425.1 388.5,1412C 390.215,1392.97 394.382,1374.47 401,1356.5C 418.222,1306.33 433.722,1255.67 447.5,1204.5C 448.117,1204.61 448.617,1204.94 449,1205.5C 449.278,1204.58 449.778,1203.92 450.5,1203.5 Z"/></g>
<g><path style="opacity:1" fill="#e5cec3" d="M 410.5,1403.5 C 409.488,1400.74 408.488,1398.08 407.5,1395.5C 408.377,1392.74 409.544,1390.08 411,1387.5C 412.183,1386.27 413.349,1386.27 414.5,1387.5C 413.974,1393.16 412.64,1398.49 410.5,1403.5 Z"/></g>
<g><path style="opacity:1" fill="#f7f3f1" d="M 422.5,1410.5 C 423.5,1410.5 424.5,1410.5 425.5,1410.5C 425.334,1415.18 425.501,1419.85 426,1424.5C 427.418,1431.57 428.918,1438.57 430.5,1445.5C 428.856,1445.71 427.356,1445.38 426,1444.5C 424.331,1439.16 422.665,1433.82 421,1428.5C 420.102,1422.34 420.602,1416.34 422.5,1410.5 Z"/></g>
<g><path style="opacity:1" fill="#f6f0ed" d="M 407.5,1395.5 C 408.488,1398.08 409.488,1400.74 410.5,1403.5C 409.468,1410.82 409.301,1418.16 410,1425.5C 408.921,1427.39 407.587,1427.73 406,1426.5C 403.718,1416.02 404.218,1405.69 407.5,1395.5 Z"/></g>
<g><path style="opacity:1" fill="#e4e3e2" d="M 979.5,1483.5 C 994.641,1484.68 1009.97,1486.01 1025.5,1487.5C 1025.5,1488.5 1025.5,1489.5 1025.5,1490.5C 1020.53,1491.08 1015.53,1491.42 1010.5,1491.5C 1001.53,1490.69 992.526,1489.86 983.5,1489C 979.977,1488.39 978.643,1486.56 979.5,1483.5 Z"/></g>
<g><path style="opacity:1" fill="#f6f1ee" d="M 407.5,1489.5 C 408.497,1489.47 409.164,1489.97 409.5,1491C 406.854,1498.46 404.354,1505.96 402,1513.5C 399.934,1520.88 400.101,1528.21 402.5,1535.5C 402.547,1538.07 401.547,1540.07 399.5,1541.5C 398.201,1540.91 397.368,1539.91 397,1538.5C 393.129,1521.2 396.629,1504.86 407.5,1489.5 Z"/></g>
<g><path style="opacity:1" fill="#edebea" d="M 1042.5,1508.5 C 1037.16,1508.67 1031.82,1508.5 1026.5,1508C 1027.83,1507 1027.83,1506 1026.5,1505C 1027.45,1504.52 1028.45,1504.35 1029.5,1504.5C 1048,1503.84 1066.5,1502.51 1085,1500.5C 1086.73,1501.65 1086.56,1502.81 1084.5,1504C 1070.78,1507.94 1056.78,1509.44 1042.5,1508.5 Z"/></g>
<g><path style="opacity:1" fill="#dedddc" d="M 1029.5,1504.5 C 1028.45,1504.35 1027.45,1504.52 1026.5,1505C 1027.83,1506 1027.83,1507 1026.5,1508C 1031.82,1508.5 1037.16,1508.67 1042.5,1508.5C 1039.52,1509.16 1036.35,1509.5 1033,1509.5C 1019.11,1509.13 1005.28,1508.3 991.5,1507C 988.412,1506.42 985.745,1505.09 983.5,1503C 985.629,1501.9 987.963,1501.4 990.5,1501.5C 998.119,1501.96 1005.62,1502.96 1013,1504.5C 1018.56,1503.45 1024.06,1503.45 1029.5,1504.5 Z"/></g>
<g><path style="opacity:1" fill="#f7f5f4" d="M 413.5,1524.5 C 414.5,1524.5 415.5,1524.5 416.5,1524.5C 419.542,1537.3 421.042,1550.3 421,1563.5C 419.667,1564.83 418.333,1564.83 417,1563.5C 415.274,1550.72 414.108,1537.72 413.5,1524.5 Z"/></g>
<g><path style="opacity:1" fill="#f8f5f3" d="M 1074.5,1534.5 C 1075.73,1535.15 1076.39,1536.32 1076.5,1538C 1073.48,1548.02 1068.15,1556.69 1060.5,1564C 1056.47,1566.31 1054.97,1565.14 1056,1560.5C 1063.4,1552.68 1069.57,1544.02 1074.5,1534.5 Z"/></g>
<g><path style="opacity:1" fill="#f7f4f3" d="M 1054.5,1542.5 C 1055.5,1542.5 1056.5,1542.5 1057.5,1542.5C 1055.56,1550.46 1050.89,1556.46 1043.5,1560.5C 1040.92,1560.25 1040.09,1558.92 1041,1556.5C 1045.72,1552.08 1050.22,1547.41 1054.5,1542.5 Z"/></g>
<g><path style="opacity:1" fill="#241d1d" d="M 419.5,1455.5 C 429.346,1465.23 439.179,1474.9 449,1484.5C 449.483,1485.45 449.649,1486.45 449.5,1487.5C 466.373,1501.18 482.707,1516.01 498.5,1532C 509.017,1540.85 519.183,1550.02 529,1559.5C 529.333,1560.5 529.667,1561.5 530,1562.5C 530.718,1561.55 531.551,1561.38 532.5,1562C 544.108,1571.45 556.108,1580.29 568.5,1588.5C 569.386,1589.32 569.719,1590.32 569.5,1591.5C 573.592,1593.04 577.592,1594.88 581.5,1597C 604.952,1612.43 628.952,1627.1 653.5,1641C 666.21,1646.98 678.71,1652.48 691,1657.5C 698.7,1662.46 707.2,1665.63 716.5,1667C 754.287,1681.47 792.787,1692.64 832,1700.5C 833.365,1700.84 834.532,1701.51 835.5,1702.5C 837.106,1701.92 838.772,1701.59 840.5,1701.5C 846.879,1702.56 853.379,1703.89 860,1705.5C 860.725,1704.94 861.558,1704.61 862.5,1704.5C 892.703,1708.43 923.037,1710.77 953.5,1711.5C 953.756,1713.79 953.423,1715.96 952.5,1718C 943.167,1718.67 933.833,1718.67 924.5,1718C 875.92,1713.3 827.92,1706.3 780.5,1697C 739.612,1683.6 699.612,1668.27 660.5,1651C 658.97,1648.07 656.803,1647.24 654,1648.5C 649.452,1645.76 644.619,1643.59 639.5,1642C 604.642,1620.74 570.642,1598.24 537.5,1574.5C 534.007,1571.84 531.007,1568.67 528.5,1565C 526.833,1564.67 525.167,1564.33 523.5,1564C 519.452,1560.28 515.118,1556.95 510.5,1554C 481.198,1524.36 451.698,1495.2 422,1466.5C 420.086,1464.25 418.586,1461.75 417.5,1459C 417.978,1457.7 418.645,1456.53 419.5,1455.5 Z"/></g>
<g><path style="opacity:1" fill="#d1a58d" d="M 1113.5,1523.5 C 1113.84,1524.34 1114.51,1524.67 1115.5,1524.5C 1085.35,1566.78 1057.18,1610.44 1031,1655.5C 1022.16,1669.66 1012,1682.83 1000.5,1695C 990.482,1703.73 978.815,1708.9 965.5,1710.5C 954.252,1735.57 938.252,1757.07 917.5,1775C 911.391,1779.39 904.724,1782.72 897.5,1785C 883.804,1787.15 870.137,1789.48 856.5,1792C 799.443,1792.82 744.776,1781.82 692.5,1759C 649.327,1740.75 606.661,1721.41 564.5,1701C 555.287,1696.9 546.62,1692.07 538.5,1686.5C 538.702,1685.64 539.036,1684.64 539.5,1683.5C 604.562,1717.7 671.562,1747.53 740.5,1773C 758.79,1777.21 777.123,1781.21 795.5,1785C 814.024,1788.37 832.691,1789.7 851.5,1789C 866.474,1786.21 881.474,1783.54 896.5,1781C 905.929,1777.79 914.262,1772.79 921.5,1766C 922.76,1764.89 923.927,1764.72 925,1765.5C 928.191,1762.57 930.524,1759.24 932,1755.5C 937.621,1749.71 942.955,1743.71 948,1737.5C 952.621,1728.19 957.287,1718.86 962,1709.5C 963.167,1708.33 964.333,1707.17 965.5,1706C 981.741,1704.46 994.908,1697.3 1005,1684.5C 1005.33,1684.83 1005.67,1685.17 1006,1685.5C 1011.85,1675.41 1018.68,1665.58 1026.5,1656C 1049.79,1615.25 1074.95,1575.75 1102,1537.5C 1102.33,1537.83 1102.67,1538.17 1103,1538.5C 1106.52,1533.43 1110.02,1528.43 1113.5,1523.5 Z"/></g>
<g><path style="opacity:1" fill="#f7f3f1" d="M 881.5,1690.5 C 892.954,1692.29 904.454,1693.62 916,1694.5C 926.892,1694.72 937.558,1693.39 948,1690.5C 955.152,1692.12 954.985,1693.95 947.5,1696C 944.312,1697.38 941.146,1697.55 938,1696.5C 936.312,1698.04 934.312,1699.04 932,1699.5C 931.586,1699.04 931.086,1698.71 930.5,1698.5C 919.166,1701.11 907.832,1700.95 896.5,1698C 891.441,1696.59 886.441,1695.09 881.5,1693.5C 881.5,1692.5 881.5,1691.5 881.5,1690.5 Z"/></g>
</svg>
